<svg width="340" height="60" viewBox="0 0 340 60" fill="none" xmlns="http://www.w3.org/2000/svg">
<path d="M311.68 59.79H30.44C14.97 59.79 2.42 47.25 2.42 31.77C2.42 16.3 14.96 3.75 30.44 3.75H311.68C327.15 3.75 339.7 16.29 339.7 31.77C339.7 47.24 327.16 59.79 311.68 59.79Z" fill="#D770A1"/>
<path d="M309.62 56.66H28.38C12.91 56.66 0.360001 44.12 0.360001 28.64C0.360001 13.17 12.9 0.619995 28.38 0.619995H309.62C325.09 0.619995 337.64 13.16 337.64 28.64C337.64 44.12 325.1 56.66 309.62 56.66Z" fill="#FCC8D6"/>
<path d="M64.7126 18.008C62.4086 18.2 59.3686 18.168 56.9046 17.816C55.6246 17.624 55.0806 16.728 55.2726 14.872C55.4966 12.792 56.1366 12.28 57.7686 12.504C59.9766 12.824 63.1446 12.888 66.0886 12.6C68.3286 12.376 70.2806 12.6 70.8886 15.128C71.5286 17.784 70.2486 20.6 67.9126 23.16C68.9366 23.64 70.3446 24.152 71.6886 24.472C73.0326 24.792 73.2246 25.528 72.7446 27.416C72.2966 29.24 71.5926 29.848 70.2806 29.528C68.2966 29.048 66.4726 28.216 65.2566 27.352C64.8086 27.032 64.4886 26.712 64.2966 26.296C62.4406 27.704 60.2646 29.016 58.3446 29.752C57.0006 30.264 55.8806 30.072 54.9526 28.184C53.9286 26.104 54.5686 25.208 56.1046 24.632C59.5926 23.32 63.3366 20.856 65.0006 18.424C65.1286 18.232 65.0006 17.976 64.7126 18.008ZM80.3926 31.96C80.4886 34.008 79.1126 34.2 77.4166 34.2C75.7206 34.2 74.5366 34.168 74.4406 32.12C74.2806 28.28 74.2806 17.368 74.4406 13.528C74.5366 11.48 75.7206 11.128 77.4166 11.128C79.1126 11.128 80.4886 11.384 80.3926 13.432C80.3286 14.68 80.2966 16.632 80.2966 18.84H82.2486C83.7206 18.84 84.0406 19.832 84.0406 21.528C84.0406 23.224 83.7206 24.216 82.2486 24.216H80.2646C80.2966 27.352 80.3286 30.296 80.3926 31.96ZM64.0726 36.536C64.0726 37.08 64.4246 37.528 65.4486 37.656C68.7766 38.04 74.6006 37.784 78.2806 37.08C80.2646 36.696 80.7766 37.432 80.9366 39.064C81.1286 41.016 81.0966 42.04 79.3046 42.392C74.7606 43.256 67.3046 43.48 62.6326 42.84C59.4646 42.392 57.9606 40.376 58.1526 37.688C58.1846 37.304 58.1846 35.032 58.0886 33.688C57.9606 32.024 59.0806 31.384 61.0646 31.384C63.0486 31.384 63.8166 31.544 64.0406 33.528C64.1366 34.264 64.0726 36.12 64.0726 36.536ZM92.8394 31.512C92.8074 32.376 93.0954 32.824 93.9274 32.92C95.6234 33.144 97.7994 33.016 100.679 32.376C102.503 31.96 103.175 32.792 103.335 34.424C103.527 36.376 103.335 37.336 101.703 37.688C97.9594 38.52 94.1514 38.616 90.7914 38.04C88.2634 37.592 86.8554 36.312 86.9194 33.624C86.9834 30.36 87.0154 26.328 86.8874 22.744C86.8234 21.08 87.8794 20.504 89.8634 20.44C92.1674 20.376 92.7754 20.92 92.8394 22.584C92.9354 25.4 92.9034 28.536 92.8394 31.512ZM100.327 14.36C101.831 14.136 102.695 15.032 102.823 16.92C102.951 18.744 102.567 19.544 100.807 19.768C97.1274 20.248 91.8474 19.128 88.3914 19.672C86.8874 19.896 85.9594 18.712 85.9594 17.112C85.9594 15.288 86.5354 14.456 88.0074 14.264C91.6874 13.752 97.2234 14.808 100.327 14.36ZM112.839 40.952C112.935 43 111.559 43.192 109.863 43.192C108.167 43.192 106.983 43.16 106.887 41.112C106.567 34.072 106.567 21.208 106.887 14.168C106.983 12.12 108.167 11.768 109.863 11.768C111.559 11.768 112.935 12.024 112.839 14.072C112.519 21.112 112.519 33.912 112.839 40.952ZM128.038 18.2C128.006 17.656 127.814 17.528 127.238 17.56C124.614 17.72 121.254 17.656 118.854 17.176C116.934 16.792 116.678 15.8 116.934 14.232C117.222 12.504 117.862 11.864 119.974 12.184C122.438 12.568 125.446 12.6 128.134 12.344C132.678 11.896 133.606 13.144 133.766 16.344C133.894 18.744 133.862 20.792 133.446 22.616C133.126 24.056 132.07 24.376 129.862 23.992C128.038 23.672 127.59 23.064 127.814 21.592C128.006 20.376 128.102 19.032 128.038 18.2ZM143.686 19.48C145.158 19.48 145.478 20.44 145.478 22.136C145.478 23.832 145.158 24.76 143.686 24.76H142.054L142.15 29.08C142.246 31.128 141.03 31.32 139.334 31.32C137.638 31.32 136.614 31.288 136.518 29.24C136.326 25.4 136.358 18.008 136.518 14.168C136.614 12.12 137.638 11.768 139.334 11.768C141.03 11.768 142.246 12.024 142.15 14.072C142.086 15.512 142.022 17.432 142.022 19.48H143.686ZM133.286 25.528C134.502 25.4 135.462 25.624 135.686 27.576C135.878 29.176 135.654 29.944 134.694 30.168C132.934 30.552 129.67 30.488 126.406 30.36C123.27 30.232 120.166 30.36 118.118 30.744C116.966 30.968 115.91 30.872 115.654 28.984C115.462 27.544 115.846 26.296 116.966 26.072C117.862 25.912 118.822 25.784 119.846 25.688V21.592C119.846 20.12 120.87 19.8 122.662 19.8C124.454 19.8 125.478 20.088 125.478 21.592V25.56C128.614 25.656 131.43 25.72 133.286 25.528ZM132.902 34.392C132.838 36.184 132.23 36.824 130.534 36.856C126.214 36.92 125.062 37.016 125.062 37.688C125.062 38.328 126.054 38.744 130.854 38.68C135.974 38.616 136.742 38.36 136.742 37.816C136.742 37.368 136.294 37.144 134.758 37.048C133.542 36.952 133.158 36.248 133.318 34.52C133.478 32.888 134.15 32.44 135.846 32.536C139.814 32.76 142.854 34.072 142.918 37.656C142.982 41.976 139.59 43.384 130.918 43.512C122.246 43.64 118.854 41.368 118.79 37.784C118.726 33.912 121.67 31.992 130.406 32.12C132.262 32.152 132.966 32.76 132.902 34.392ZM156.869 17.688C154.565 17.88 151.525 17.848 149.061 17.496C147.781 17.304 147.237 16.408 147.429 14.552C147.653 12.472 148.293 11.96 149.925 12.184C152.133 12.504 155.301 12.568 158.245 12.28C160.485 12.056 162.437 12.28 163.045 14.808C163.653 17.368 162.501 20.056 160.357 22.488C161.349 22.936 162.629 23.384 163.845 23.672C165.189 23.992 165.381 24.728 164.901 26.616C164.453 28.44 163.749 29.048 162.437 28.728C160.453 28.248 158.629 27.416 157.413 26.552C157.061 26.296 156.805 26.072 156.613 25.784C154.693 27.128 152.453 28.408 150.501 29.112C149.157 29.592 148.037 29.432 147.109 27.544C146.085 25.464 146.725 24.536 148.261 23.992C151.749 22.776 155.493 20.376 157.157 18.104C157.285 17.912 157.157 17.656 156.869 17.688ZM172.549 27.64C172.645 29.688 171.269 29.88 169.573 29.88C167.877 29.88 166.693 29.848 166.597 27.8C166.437 23.96 166.437 17.368 166.597 13.528C166.693 11.48 167.877 11.128 169.573 11.128C171.269 11.128 172.645 11.384 172.549 13.432L172.453 17.88H174.405C175.877 17.88 176.197 18.872 176.197 20.568C176.197 22.264 175.877 23.256 174.405 23.256H172.453L172.549 27.64ZM164.005 33.144C163.909 35.16 163.237 35.512 161.541 35.512C157.861 35.512 156.261 35.896 156.261 36.824C156.261 37.592 157.061 38.2 161.861 38.2C166.661 38.2 167.685 37.656 167.685 36.856C167.685 36.184 167.045 35.832 165.925 35.704C164.613 35.544 164.485 34.488 164.613 32.76C164.741 31.128 165.093 30.712 167.013 30.776C170.469 30.904 173.957 32.536 173.957 36.76C173.957 41.4 170.597 43.512 161.861 43.512C152.869 43.512 149.989 41.016 149.989 36.76C149.989 32.344 153.797 30.264 161.573 30.424C163.429 30.456 164.069 31.128 164.005 33.144ZM199.019 35.48C199.179 37.528 198.155 38.04 196.459 38.04C195.499 38.04 194.827 37.976 194.443 37.528C192.939 37.88 191.435 38.008 189.195 37.944C186.379 37.848 185.867 35.992 185.643 33.304C185.355 30.04 185.355 23.128 185.611 16.344C185.675 14.68 186.123 14.104 188.107 14.04C190.411 13.976 190.827 14.52 190.763 16.184C190.475 22.2 190.475 28.216 190.763 31.192C190.859 32.056 191.019 32.6 191.851 32.568C192.427 32.536 193.067 32.472 193.771 32.312L193.707 27.448H192.427C190.955 27.448 190.923 26.456 190.923 24.76C190.923 23.064 190.955 22.072 192.427 22.072H193.739C193.771 20.056 193.835 18.072 193.931 16.216C194.027 14.168 194.763 13.976 196.459 13.976C198.155 13.976 199.179 14.488 199.019 16.536C198.603 22.296 198.475 28.664 199.019 35.48ZM213.323 41.112C213.419 42.84 212.299 43.192 210.603 43.192C208.907 43.192 208.139 43 208.043 41.272C207.883 37.912 207.787 33.304 207.787 28.632H205.867C205.867 32.92 205.963 37.144 206.123 40.472C206.219 42.2 205.259 42.552 203.563 42.552C201.867 42.552 200.939 42.36 200.843 40.632C200.491 33.432 200.491 21.848 200.843 14.648C200.939 12.92 201.867 12.408 203.563 12.408C205.259 12.408 206.219 12.824 206.123 14.552C205.995 17.048 205.931 20.088 205.899 23.256H207.787C207.851 19.8 207.915 16.536 208.043 14.008C208.139 12.28 208.907 11.768 210.603 11.768C212.299 11.768 213.419 12.184 213.323 13.912C212.971 21.112 212.971 33.912 213.323 41.112ZM217.482 37.656C216.074 36.472 215.178 34.936 216.458 33.976C220.938 30.648 225.354 25.528 226.378 22.328C226.538 21.784 226.25 21.688 225.834 21.72C223.786 21.816 220.906 21.848 218.538 21.56C217.162 21.4 217.002 20.088 217.034 18.52C217.098 16.6 217.738 15.896 219.882 16.056L221.93 16.184C221.898 15.352 221.898 14.552 221.898 13.688C221.898 12.248 223.082 12.184 224.778 12.184C226.474 12.184 227.69 12.44 227.626 13.752L227.466 16.184L228.394 16.12C231.37 15.928 232.842 17.368 232.586 20.632C232.426 22.808 231.21 25.496 229.482 28.152C229.674 28.248 229.834 28.408 229.994 28.6C231.498 30.616 233.642 33.368 234.602 34.424C235.338 35.256 234.826 36.376 233.418 37.464C232.01 38.552 230.634 38.36 229.866 37.496C228.906 36.44 227.434 34.36 226.282 32.472C224.49 34.584 222.538 36.504 220.714 37.944C219.722 38.744 218.57 38.584 217.482 37.656ZM243.402 40.952C243.498 43 242.122 43.192 240.426 43.192C238.73 43.192 237.546 43.16 237.45 41.112C237.13 34.072 237.13 21.208 237.45 14.168C237.546 12.12 238.73 11.768 240.426 11.768C242.122 11.768 243.498 12.024 243.402 14.072C243.082 21.112 243.082 33.912 243.402 40.952ZM260.649 13.528C263.657 13.944 267.369 13.72 269.481 13.4C271.561 13.08 272.041 14.328 272.041 15.96C272.041 17.784 271.721 18.584 270.121 18.808C267.241 19.224 263.593 19.352 260.393 18.904C257.257 18.456 253.897 18.392 251.177 18.712C249.065 18.936 248.681 17.752 248.681 16.152C248.681 14.328 249.353 13.432 250.665 13.304C254.153 12.984 257.065 13.016 260.649 13.528ZM255.561 24.408C255.497 24.952 255.817 25.08 256.649 25.176C260.297 25.592 266.281 25.336 269.961 24.632C271.785 24.28 272.457 24.984 272.617 26.616C272.809 28.568 272.617 29.624 270.985 29.944C266.441 30.808 258.825 31.032 253.513 30.296C250.985 29.944 249.449 28.568 249.641 25.88C249.705 24.856 249.705 23.224 249.609 21.56C249.513 19.896 250.601 19.32 252.585 19.256C254.889 19.192 255.337 19.736 255.561 21.4C255.657 22.136 255.657 23.672 255.561 24.408ZM258.089 33.208C258.089 31.736 259.273 31.576 261.065 31.576C262.857 31.576 264.041 31.704 264.041 33.208V35.832H264.297C268.009 36.056 270.345 36.152 273.033 35.736C274.793 35.448 275.497 36.312 275.593 38.2C275.657 39.64 275.593 40.728 274.057 41.048C271.113 41.656 268.073 41.688 260.937 40.952C256.777 40.536 253.257 40.568 249.193 41.176C247.273 41.464 246.409 40.6 246.409 38.712C246.409 37.272 246.505 36.152 248.361 35.8C250.249 35.448 253.129 35.128 257.705 35.352L258.089 35.384V33.208Z" fill="white"/>
</svg>
