<svg width="350" height="570" viewBox="0 0 350 570" fill="none" preserveAspectRatio="none" xmlns="http://www.w3.org/2000/svg">
<g clip-path="url(#clip0_187_54)">
<path d="M350 173.65H0V570H350V173.65Z" fill="#F99DCD"/>
<path d="M350 0H0V173.65H350V0Z" fill="#F4F4F4"/>
<path d="M-28.53 173.65H378.53" stroke="#231815" stroke-miterlimit="10"/>
<path d="M-12.4399 215.47H374.31" stroke="#EA7ABA" stroke-miterlimit="10"/>
<path d="M-12.4399 255.48H374.31" stroke="#EA7ABA" stroke-miterlimit="10"/>
<path d="M-12.4399 295.5H374.31" stroke="#EA7ABA" stroke-miterlimit="10"/>
<path d="M-12.4399 335.52H374.31" stroke="#EA7ABA" stroke-miterlimit="10"/>
<path d="M-12.4399 375.54H374.31" stroke="#EA7ABA" stroke-miterlimit="10"/>
<path d="M-12.4399 415.55H374.31" stroke="#EA7ABA" stroke-miterlimit="10"/>
<path d="M-12.4399 455.57H374.31" stroke="#EA7ABA" stroke-miterlimit="10"/>
<path d="M-12.4399 495.59H374.31" stroke="#EA7ABA" stroke-miterlimit="10"/>
<path d="M-12.4399 535.61H374.31" stroke="#EA7ABA" stroke-miterlimit="10"/>
<path d="M293.89 20.5601H19.77V152.88H293.89V20.5601Z" fill="#226D4F" stroke="#231815" stroke-miterlimit="10"/>
<path d="M301.62 146.05H12.04V156.58H301.62V146.05Z" fill="#663F14" stroke="#231815" stroke-miterlimit="10"/>
<path d="M39.03 73.15C39.03 72.81 39.14 72.58 39.38 72.45C39.61 72.32 39.86 72.23 40.13 72.17C40.78 71.98 41.42 71.55 42.05 70.89C42.68 70.23 43.24 69.47 43.75 68.61C44.25 67.76 44.68 66.89 45.02 66.02C45.37 65.15 45.59 64.39 45.7 63.76C45.76 63.42 45.83 63.1 45.9 62.78C45.97 62.46 46.07 62.22 46.2 62.05C46.3 61.9 46.45 61.79 46.62 61.7C46.8 61.62 46.97 61.57 47.14 61.57C47.5 61.57 47.8 61.69 48.07 61.93C48.33 62.17 48.46 62.47 48.46 62.83C48.46 63.48 48.34 64.14 48.08 64.79C47.83 65.44 47.56 66.08 47.26 66.69C47.22 66.77 47.18 66.86 47.15 66.94C47.12 67.02 47.08 67.12 47.04 67.22C47.19 67.37 47.39 67.58 47.65 67.87C47.91 68.15 48.2 68.48 48.51 68.83C48.82 69.19 49.14 69.57 49.47 69.97C49.79 70.37 50.09 70.76 50.35 71.14C50.61 71.52 50.83 71.86 50.99 72.17C51.16 72.48 51.24 72.72 51.24 72.91C51.24 73.16 51.11 73.38 50.86 73.57C50.61 73.76 50.35 73.85 50.07 73.85C49.67 73.85 49.36 73.71 49.13 73.44C49.02 73.29 48.93 73.15 48.83 73C48.74 72.85 48.64 72.71 48.53 72.56C48.13 71.95 47.71 71.37 47.26 70.82C46.81 70.27 46.33 69.73 45.83 69.21C45.54 69.65 45.18 70.15 44.75 70.7C44.32 71.25 43.85 71.77 43.35 72.26C42.85 72.76 42.31 73.17 41.73 73.49C41.15 73.82 40.57 73.98 39.99 73.98C39.74 73.98 39.51 73.9 39.31 73.73C39.11 73.56 39.01 73.36 39.01 73.13L39.03 73.15ZM56.8 74.99C56.95 73.54 57.08 72.04 57.19 70.5C57.3 68.96 57.36 67.46 57.36 66.01C56.94 66.24 56.45 66.5 55.88 66.77C55.31 67.04 54.72 67.3 54.11 67.53C53.5 67.76 52.89 67.96 52.3 68.11C51.71 68.26 51.19 68.35 50.73 68.35C50.44 68.35 50.19 68.23 49.99 67.99C49.79 67.75 49.69 67.48 49.69 67.18C49.69 66.99 49.74 66.82 49.85 66.67C49.95 66.52 50.08 66.4 50.23 66.29C50.29 66.25 50.45 66.19 50.7 66.12C50.95 66.05 51.23 65.97 51.53 65.9C51.83 65.83 52.13 65.76 52.43 65.69C52.72 65.63 52.93 65.57 53.06 65.53C53.79 65.3 54.52 65.01 55.26 64.66C55.99 64.31 56.66 63.9 57.27 63.41C57.25 62.76 57.19 62.07 57.08 61.35C57.02 60.87 56.94 60.36 56.84 59.85C56.74 59.34 56.7 58.82 56.7 58.32C56.7 57.96 56.82 57.66 57.06 57.4C57.3 57.15 57.6 57.02 57.96 57.02C58.19 57.02 58.41 57.08 58.62 57.21C58.83 57.34 58.99 57.52 59.09 57.75C59.15 57.92 59.22 58.3 59.29 58.89C59.36 59.48 59.42 60.13 59.46 60.83C59.5 61.54 59.54 62.21 59.57 62.85C59.6 63.49 59.62 63.94 59.62 64.19C59.62 66.36 59.5 68.51 59.27 70.63C59.04 72.75 58.78 74.87 58.48 77C58.46 77.11 58.44 77.26 58.42 77.46C58.4 77.66 58.37 77.87 58.34 78.09C58.31 78.31 58.27 78.51 58.23 78.69C58.19 78.87 58.15 79 58.1 79.09C57.93 79.43 57.67 79.6 57.31 79.6C57.06 79.6 56.84 79.51 56.65 79.33C56.46 79.15 56.37 78.92 56.37 78.65V78.56C56.43 77.95 56.5 77.35 56.57 76.76C56.64 76.17 56.71 75.58 56.77 74.99H56.8Z" fill="#F4F4F4"/>
<path d="M63.58 70.4601C63.2 70.4601 62.89 70.3301 62.65 70.0601C62.41 69.8001 62.29 69.4901 62.29 69.1301C62.29 68.8601 62.39 68.6001 62.6 68.3601C62.81 68.1201 63.05 67.9801 63.32 67.9301C63.65 67.8901 63.98 67.8601 64.31 67.8501C64.63 67.8401 64.96 67.8101 65.3 67.7701C66.26 67.6401 67.23 67.4301 68.21 67.1201C69.18 66.8101 70.15 66.4601 71.1 66.0601C72.05 65.6601 72.99 65.2301 73.91 64.7801C74.83 64.3301 75.72 63.8801 76.58 63.4401C76.77 63.3301 76.98 63.2101 77.22 63.0801C77.46 62.9401 77.7 62.8701 77.93 62.8701C78.18 62.8701 78.4 62.9601 78.59 63.1401C78.78 63.3201 78.87 63.5401 78.87 63.7901C78.87 63.9601 78.84 64.0901 78.79 64.1901C78.74 64.2801 78.66 64.3801 78.55 64.4901C78.47 64.5701 78.28 64.7101 77.98 64.8901C77.69 65.0701 77.34 65.2801 76.93 65.5101C76.52 65.7401 76.09 65.9801 75.63 66.2201C75.17 66.4601 74.72 66.6901 74.3 66.9001C73.87 67.1101 73.48 67.3101 73.14 67.4801C72.79 67.6601 72.54 67.7801 72.37 67.8401C72.43 68.4901 72.42 69.1601 72.34 69.8501C72.26 70.5401 72.13 71.2101 71.96 71.8901C72.08 71.8301 72.21 71.7601 72.34 71.7001C72.46 71.6401 72.59 71.5601 72.72 71.4801C72.82 71.4401 72.92 71.3701 73 71.2901C73.08 71.2101 73.17 71.1201 73.25 71.0401C73.63 70.6601 74.02 70.4401 74.44 70.3801C74.54 70.3601 74.69 70.3501 74.88 70.3501C75.21 70.3901 75.48 70.5201 75.68 70.7301C75.88 70.9401 75.98 71.1901 75.98 71.4901C75.98 72.9901 75.73 74.3801 75.24 75.6801C74.75 76.9801 73.99 78.0401 72.96 78.8601C72.69 79.0701 72.43 79.2601 72.17 79.4101C71.92 79.5701 71.66 79.7001 71.38 79.8201C71.11 79.9401 70.8 80.0401 70.47 80.1201C70.14 80.2001 69.76 80.2901 69.34 80.3701C69.76 80.7501 70.27 81.0601 70.88 81.2901C71.49 81.5201 72.07 81.6401 72.64 81.6401C73.06 81.6401 73.41 81.5701 73.71 81.4201C74 81.2701 74.27 81.1101 74.53 80.9301C74.78 80.7501 75.03 80.5301 75.28 80.2801C75.53 80.0301 75.79 79.7201 76.07 79.3601C76.34 79.0001 76.67 78.5501 77.04 78.0001C77.23 77.6801 77.51 77.5301 77.89 77.5301C78.12 77.5301 78.32 77.6301 78.5 77.8301C78.68 78.0301 78.77 78.2401 78.77 78.4501C78.77 78.6001 78.73 78.7501 78.66 78.9101C78.59 79.0701 78.52 79.2001 78.46 79.3101C77.41 80.9301 76.43 82.1001 75.51 82.8201C74.59 83.5401 73.51 83.8901 72.27 83.8901C71.73 83.8901 71.16 83.8101 70.56 83.6401C69.96 83.4701 69.39 83.2401 68.85 82.9401C68.31 82.6401 67.8 82.3001 67.33 81.9101C66.86 81.5201 66.47 81.1001 66.15 80.6601C65.98 80.3901 65.9 80.0901 65.9 79.7701C65.9 79.4501 66.04 79.1801 66.31 78.9501C66.58 78.7201 66.86 78.6001 67.16 78.6001C67.26 78.6001 67.37 78.6201 67.47 78.6501C67.57 78.6801 67.67 78.7401 67.75 78.8201C68.11 78.7801 68.47 78.7101 68.83 78.6301C69.2 78.5501 69.56 78.4301 69.91 78.2801C70.91 77.8601 71.72 77.2501 72.31 76.4601C72.91 75.6701 73.29 74.7401 73.46 73.6601C73.13 73.8301 72.65 74.0601 72.05 74.3601C71.44 74.6601 70.8 74.9401 70.13 75.2301C69.46 75.5201 68.82 75.7601 68.21 75.9601C67.6 76.1601 67.13 76.2601 66.8 76.2601C66.47 76.2601 66.19 76.1301 65.97 75.8601C65.75 75.6001 65.64 75.3101 65.64 74.9901C65.64 74.7201 65.69 74.5101 65.8 74.3601C65.9 74.2101 66.06 74.0701 66.27 73.9201C66.35 73.8401 66.52 73.7601 66.76 73.6801C67 73.6101 67.26 73.5301 67.55 73.4601C67.83 73.3901 68.11 73.3201 68.38 73.2501C68.65 73.1901 68.85 73.1301 68.98 73.0901C69.13 73.0501 69.27 73.0101 69.4 72.9801C69.54 72.9501 69.67 72.9101 69.79 72.8701C69.81 72.4301 69.86 72.0001 69.93 71.5701C70 71.1501 70.04 70.7201 70.04 70.2701V69.5701C70.04 69.3401 70.03 69.1101 70.01 68.8701C69.03 69.2501 67.97 69.6101 66.85 69.9501C65.73 70.2901 64.64 70.4601 63.57 70.4601H63.58ZM69.8 63.9801C69.15 63.9801 68.52 63.8801 67.9 63.7001C67.28 63.5101 66.74 63.2301 66.27 62.8501C65.8 62.4701 65.42 62.0101 65.14 61.4701C64.86 60.9301 64.72 60.3201 64.72 59.6201C64.72 58.8801 64.87 58.2101 65.16 57.6101C65.45 57.0101 65.85 56.5001 66.35 56.0901C66.85 55.6801 67.43 55.3601 68.08 55.1401C68.73 54.9201 69.41 54.8101 70.12 54.8101C71.4 54.8101 72.38 55.1701 73.07 55.8801C73.76 56.6001 74.11 57.5801 74.11 58.8201C74.11 59.4901 74.02 60.1401 73.84 60.7501C73.66 61.3601 73.39 61.9101 73.04 62.3901C72.68 62.8701 72.23 63.2601 71.69 63.5401C71.15 63.8201 70.52 63.9701 69.81 63.9701L69.8 63.9801ZM70.21 56.9601C69.79 56.9601 69.38 57.0101 68.99 57.1201C68.59 57.2301 68.25 57.3901 67.95 57.6301C67.66 57.8601 67.42 58.1501 67.24 58.5001C67.06 58.8501 66.97 59.2501 66.97 59.7201C66.97 60.0801 67.06 60.3901 67.24 60.6701C67.42 60.9401 67.64 61.1701 67.9 61.3301C68.16 61.5001 68.46 61.6301 68.8 61.7101C69.13 61.7901 69.46 61.8401 69.77 61.8401C70.17 61.8401 70.5 61.7501 70.77 61.5701C71.04 61.3901 71.26 61.1601 71.41 60.8701C71.56 60.5801 71.68 60.2601 71.74 59.9101C71.8 59.5501 71.83 59.1901 71.83 58.8301C71.83 58.2201 71.71 57.7501 71.47 57.4401C71.23 57.1201 70.8 56.9701 70.2 56.9701L70.21 56.9601Z" fill="#F4F4F4"/>
<path d="M81.05 66.42C80.72 66.38 80.46 66.24 80.3 65.99C80.13 65.75 80.05 65.48 80.05 65.18C80.05 64.84 80.17 64.57 80.41 64.36C80.65 64.15 81.11 64.01 81.78 63.95C82.62 63.87 83.43 63.69 84.21 63.43C85 63.17 85.78 62.88 86.55 62.56C86.78 62.45 87.02 62.36 87.27 62.28C87.52 62.2 87.73 62.15 87.9 62.15C88.13 62.15 88.33 62.24 88.51 62.43C88.69 62.62 88.78 62.82 88.78 63.03C88.78 63.33 88.66 63.56 88.44 63.73C88.23 63.9 87.91 64.08 87.48 64.28C87.05 64.48 86.6 64.69 86.11 64.9C85.63 65.11 85.15 65.31 84.68 65.48C84.21 65.66 83.84 65.8 83.56 65.91C83.6 66.14 83.64 66.37 83.69 66.61C83.73 66.84 83.77 67.07 83.81 67.31C83.98 68.05 84.11 68.79 84.2 69.54C84.29 70.29 84.34 71.04 84.34 71.8C84.34 72.01 84.4 72.12 84.53 72.12C85.22 72.12 85.96 71.92 86.74 71.52C87.52 71.12 88.3 70.63 89.06 70.07C89.82 69.5 90.55 68.91 91.23 68.28C91.91 67.66 92.5 67.13 93 66.68C93.12 66.55 93.24 66.46 93.34 66.41C93.44 66.36 93.58 66.33 93.75 66.33C93.83 66.33 93.9 66.34 93.94 66.36C93.82 64.15 93.6 61.93 93.28 59.72C93.26 59.62 93.25 59.53 93.25 59.47V59.25C93.25 58.89 93.38 58.59 93.63 58.35C93.88 58.11 94.18 57.99 94.54 57.99C94.79 57.99 94.99 58.03 95.14 58.12C95.29 58.2 95.44 58.35 95.61 58.56C95.74 58.73 95.83 59.09 95.89 59.65C95.95 60.21 96 60.82 96.03 61.47C96.06 62.12 96.09 62.76 96.11 63.37C96.13 63.98 96.15 64.42 96.17 64.7C96.74 64.38 97.3 64.07 97.87 63.77C98.44 63.46 99.02 63.19 99.63 62.93C99.67 62.89 99.76 62.85 99.88 62.8C100.01 62.76 100.08 62.73 100.1 62.71V61.49C100.1 61.1 100.09 60.69 100.07 60.27C100.05 59.98 100.02 59.69 99.98 59.4C99.94 59.11 99.92 58.83 99.92 58.53C99.92 58.15 100.05 57.85 100.31 57.61C100.57 57.38 100.89 57.26 101.27 57.26C101.52 57.26 101.73 57.33 101.9 57.48C102.07 57.63 102.2 57.8 102.29 58C102.38 58.2 102.45 58.42 102.48 58.66C102.51 58.9 102.53 59.12 102.53 59.31C102.53 62.01 102.41 64.69 102.17 67.36C101.93 70.03 101.5 72.69 100.9 75.34C100.88 75.47 100.84 75.67 100.77 75.94C100.7 76.21 100.63 76.5 100.55 76.81C100.47 77.12 100.38 77.39 100.3 77.65C100.22 77.9 100.14 78.06 100.08 78.12C99.93 78.29 99.81 78.4 99.72 78.45C99.63 78.5 99.46 78.53 99.23 78.53C99 78.53 98.8 78.43 98.63 78.23C98.46 78.03 98.38 77.82 98.38 77.61C98.38 77.38 98.44 77.08 98.57 76.71C98.69 76.34 98.79 76.04 98.85 75.81C98.95 75.43 99.04 75.05 99.1 74.67C99.16 74.29 99.22 73.92 99.29 73.56C99.54 72.17 99.72 70.77 99.82 69.37C99.92 67.97 100.01 66.57 100.07 65.18C99.4 65.5 98.75 65.83 98.11 66.18C97.47 66.53 96.84 66.88 96.21 67.24V68.28C96.21 68.79 96.21 69.36 96.19 70C96.18 70.64 96.17 71.32 96.17 72.04C96.17 72.76 96.16 73.42 96.14 74.03C96.12 74.64 96.09 75.16 96.06 75.58C96.03 76 95.99 76.26 95.95 76.34C95.78 76.72 95.48 76.91 95.04 76.91C94.81 76.91 94.61 76.81 94.44 76.61C94.27 76.41 94.19 76.19 94.19 75.96C94.19 74.67 94.18 73.39 94.16 72.1C94.14 70.81 94.1 69.53 94.03 68.24C93.49 68.81 92.83 69.44 92.05 70.14C91.27 70.84 90.45 71.48 89.58 72.08C88.71 72.68 87.84 73.18 86.96 73.58C86.08 73.98 85.26 74.18 84.51 74.18C83.55 74.18 82.9 73.93 82.56 73.44C82.23 72.94 82.02 72.27 81.93 71.4C81.8 69.71 81.5 68.05 81.02 66.4L81.05 66.42Z" fill="#F4F4F4"/>
<path d="M115.78 73.72C115.4 73.72 115.09 73.59 114.85 73.32C114.61 73.06 114.49 72.75 114.49 72.39C114.49 72.12 114.59 71.86 114.8 71.62C115.01 71.38 115.25 71.24 115.52 71.19C115.73 71.15 115.94 71.13 116.15 71.13H116.78C117.14 71.11 117.48 71.09 117.82 71.07C118.15 71.05 118.49 71.02 118.82 70.98C119.72 70.83 120.66 70.6 121.63 70.28C122.6 69.96 123.57 69.59 124.52 69.16C125.47 68.73 126.39 68.25 127.28 67.72C128.17 67.19 128.98 66.66 129.71 66.11C130.11 65.79 130.52 65.45 130.93 65.07C131.06 64.92 131.18 64.77 131.31 64.61C131.44 64.45 131.58 64.32 131.75 64.21C131.9 64.06 132.11 63.99 132.38 63.99C132.61 63.99 132.81 64.09 132.98 64.29C133.15 64.49 133.23 64.71 133.23 64.94C133.23 65.24 133.05 65.59 132.68 66C132.31 66.41 131.86 66.84 131.31 67.28C130.77 67.72 130.18 68.16 129.55 68.59C128.92 69.02 128.34 69.41 127.79 69.76C127.25 70.11 126.61 70.5 125.87 70.95C125.95 71.39 126.01 71.84 126.03 72.29C126.05 72.74 126.06 73.21 126.06 73.7C126.06 73.95 126.06 74.2 126.04 74.44C126.03 74.68 126.02 74.92 126.02 75.15C126.48 75 126.93 74.88 127.35 74.77C127.78 74.66 128.15 74.61 128.47 74.61C129.1 74.61 129.57 74.81 129.9 75.19C130.22 75.58 130.39 76.07 130.39 76.66C130.39 77.04 130.31 77.59 130.15 78.3C129.99 79.02 129.79 79.75 129.55 80.51C129.31 81.27 129.05 81.97 128.76 82.63C128.48 83.28 128.21 83.74 127.96 83.99C127.77 84.16 127.53 84.24 127.24 84.24C126.88 84.24 126.64 84.1 126.52 83.81C126.4 83.52 126.36 83.27 126.43 83.04C126.51 82.81 126.61 82.58 126.71 82.36C126.81 82.14 126.92 81.91 127.02 81.68C127.35 80.9 127.64 80.1 127.88 79.29C128.12 78.48 128.26 77.65 128.3 76.81C127.86 76.85 127.37 76.98 126.82 77.21C126.28 77.43 125.79 77.62 125.38 77.76C124.52 78.08 123.61 78.36 122.63 78.61C121.65 78.86 120.7 78.99 119.76 78.99C119.4 78.99 119.1 78.86 118.85 78.61C118.6 78.36 118.47 78.04 118.47 77.66C118.47 77.43 118.54 77.21 118.67 77.01C118.81 76.81 118.98 76.66 119.19 76.55C119.4 76.44 119.69 76.39 120.05 76.39C120.41 76.39 120.74 76.38 121.01 76.36C121.53 76.32 122.05 76.24 122.56 76.12C123.07 76 123.59 75.87 124.11 75.72C124.09 75.62 124.08 75.51 124.08 75.4C124.08 75.29 124.07 75.19 124.05 75.08C124.01 74.53 123.95 74 123.88 73.48C123.81 72.96 123.69 72.45 123.52 71.95C122.28 72.46 121.01 72.87 119.7 73.2C118.39 73.53 117.07 73.69 115.73 73.69L115.78 73.72ZM117.07 66.29C117.64 66.21 118.19 66.01 118.75 65.71C119.3 65.4 119.83 65.04 120.34 64.6C120.84 64.17 121.31 63.7 121.74 63.21C122.17 62.71 122.54 62.25 122.85 61.8C122.18 62.03 121.43 62.29 120.59 62.56C119.75 62.83 118.99 62.97 118.3 62.97C117.92 62.97 117.62 62.84 117.39 62.59C117.16 62.34 117.04 62.03 117.04 61.67C117.04 61.29 117.23 60.99 117.61 60.75C117.78 60.65 118.02 60.57 118.35 60.51C118.68 60.45 119 60.41 119.34 60.37C120.14 60.27 120.91 60.07 121.65 59.79C122.39 59.51 123.13 59.18 123.86 58.83C123.96 58.79 124.08 58.74 124.21 58.69C124.34 58.64 124.46 58.59 124.59 58.55C124.67 58.51 124.76 58.49 124.84 58.49H125.12C125.41 58.49 125.66 58.62 125.87 58.87C126.08 59.12 126.18 59.38 126.18 59.63C126.18 59.84 126.12 60.1 125.99 60.4C125.86 60.7 125.71 61.02 125.53 61.35C125.35 61.68 125.17 61.98 124.98 62.27C124.79 62.55 124.62 62.79 124.48 62.98C124.69 63 125.05 63.05 125.56 63.12C126.07 63.19 126.6 63.28 127.15 63.39C127.69 63.5 128.2 63.61 128.67 63.74C129.14 63.87 129.45 63.98 129.6 64.09C129.93 64.36 130.1 64.68 130.1 65.04C130.1 65.34 129.97 65.58 129.72 65.77C129.47 65.96 129.2 66.05 128.9 66.05C128.6 66.05 128.26 66 127.86 65.89C127.46 65.79 127.05 65.68 126.63 65.57C125.98 65.4 125.33 65.28 124.68 65.19C124.03 65.11 123.37 65.03 122.7 64.97C122.3 65.35 121.86 65.73 121.37 66.12C120.88 66.51 120.37 66.86 119.83 67.18C119.3 67.5 118.74 67.75 118.17 67.95C117.59 68.15 117.02 68.25 116.46 68.25C116.17 68.25 115.93 68.16 115.74 67.98C115.55 67.8 115.47 67.57 115.49 67.3C115.53 66.98 115.69 66.75 115.96 66.6C116.23 66.45 116.6 66.35 117.06 66.28L117.07 66.29ZM124.23 56.61C124.23 56.93 124.11 57.17 123.88 57.34C123.63 57.53 123.27 57.74 122.81 57.97C122.35 58.2 121.87 58.42 121.37 58.62C120.87 58.82 120.37 58.99 119.88 59.13C119.39 59.27 118.99 59.34 118.67 59.34C118.31 59.34 118.01 59.21 117.76 58.96C117.51 58.71 117.38 58.4 117.38 58.04C117.38 57.85 117.44 57.65 117.57 57.44C117.7 57.23 117.87 57.07 118.1 56.97C118.2 56.93 118.38 56.9 118.62 56.88C118.86 56.86 119.13 56.83 119.42 56.79C119.9 56.75 120.34 56.68 120.72 56.58C121.11 56.48 121.52 56.35 121.96 56.18C122.13 56.12 122.3 56.05 122.48 55.97C122.66 55.9 122.85 55.84 123.06 55.8C123.1 55.78 123.18 55.77 123.28 55.77C123.51 55.77 123.73 55.85 123.92 56.02C124.12 56.19 124.22 56.39 124.22 56.62L124.23 56.61Z" fill="#F4F4F4"/>
<path d="M135.69 74.5101C136.34 74.2801 136.94 73.8301 137.48 73.1701C138.02 72.5101 138.5 71.7501 138.91 70.8901C139.32 70.0401 139.65 69.1501 139.9 68.2301C140.15 67.3101 140.32 66.5101 140.4 65.8101L139.9 65.9701C139.25 66.2001 138.53 66.4401 137.75 66.6801C136.96 66.9201 136.27 67.0401 135.66 67.0401C135.28 67.0401 134.97 66.9101 134.73 66.6401C134.49 66.3801 134.37 66.0701 134.37 65.7101C134.37 65.5201 134.44 65.3101 134.59 65.0901C134.74 64.8701 134.98 64.7201 135.31 64.6301C135.5 64.5901 135.69 64.5501 135.87 64.5201C136.05 64.4901 136.25 64.4501 136.44 64.4101C136.96 64.3101 137.47 64.1901 137.96 64.0801C138.45 63.9601 138.96 63.8101 139.48 63.6201C139.86 63.4701 140.24 63.3401 140.63 63.2101C141.02 63.0801 141.31 63.0201 141.49 63.0201C141.76 63.0201 141.98 63.0701 142.13 63.1801C142.28 63.2901 142.41 63.4301 142.49 63.6101C142.57 63.7901 142.63 63.9801 142.65 64.1901C142.67 64.4001 142.68 64.6001 142.68 64.7901C142.68 65.5901 142.57 66.4001 142.37 67.2201C142.17 68.0401 141.91 68.8301 141.62 69.5901C141.87 69.7601 142.22 70.0401 142.67 70.4401C143.12 70.8401 143.56 71.2801 144 71.7501C144.44 72.2201 144.82 72.6901 145.13 73.1601C145.44 73.6201 145.6 74.0001 145.6 74.3001C145.6 74.6001 145.47 74.8301 145.21 75.0101C144.95 75.1901 144.67 75.2801 144.38 75.2801C144.19 75.2801 144.03 75.2301 143.89 75.1401C143.75 75.0501 143.63 74.9501 143.53 74.8401C143.41 74.6901 143.28 74.5301 143.17 74.3701C143.05 74.2001 142.95 74.0401 142.84 73.9001C142.53 73.4601 142.2 73.0501 141.87 72.6701C141.54 72.2901 141.14 71.9401 140.68 71.6301C140.45 72.0701 140.15 72.5701 139.78 73.1201C139.41 73.6701 139.01 74.1801 138.56 74.6701C138.11 75.1601 137.62 75.5701 137.1 75.9001C136.58 76.2401 136.03 76.4101 135.47 76.4101C135.22 76.4101 135 76.3301 134.81 76.1601C134.62 75.9901 134.53 75.7801 134.53 75.5301C134.53 75.2101 134.65 74.9901 134.89 74.8701C135.13 74.7401 135.4 74.6301 135.69 74.5201V74.5101ZM148.72 69.6701V68.2501C148.72 67.7901 148.71 67.3201 148.69 66.8601C148.42 67.0901 148.09 67.3701 147.72 67.7001C147.34 68.0301 146.95 68.3401 146.53 68.6501C146.11 68.9601 145.69 69.2201 145.27 69.4401C144.85 69.6601 144.46 69.7701 144.11 69.7701C143.84 69.7701 143.59 69.6601 143.37 69.4401C143.15 69.2201 143.04 68.9701 143.04 68.7001C143.04 68.2801 143.22 67.9601 143.57 67.7501C143.7 67.6701 143.83 67.6001 143.98 67.5401C144.13 67.4901 144.27 67.4301 144.42 67.3701C144.8 67.2001 145.15 67.0101 145.49 66.8001C145.82 66.5901 146.15 66.3601 146.46 66.1001C146.75 65.8701 147.01 65.6401 147.25 65.4201C147.48 65.2001 147.73 64.9701 148 64.7401C148.1 64.6601 148.19 64.5601 148.27 64.4401C148.34 64.3201 148.42 64.2101 148.51 64.1101C148.51 63.6901 148.49 63.2501 148.45 62.7801C148.41 62.3201 148.34 61.8701 148.26 61.4501C148.2 61.2201 148.13 60.9801 148.06 60.7201C147.99 60.4701 147.95 60.2101 147.95 59.9601C147.95 59.6001 148.09 59.3101 148.37 59.0901C148.65 58.8701 148.96 58.7601 149.3 58.7601C149.57 58.7601 149.8 58.8601 149.98 59.0401C150.16 59.2301 150.3 59.4401 150.4 59.6701C150.52 59.9201 150.62 60.2801 150.68 60.7301C150.74 61.1801 150.8 61.6601 150.84 62.1701C150.88 62.6801 150.91 63.1701 150.92 63.6401C150.93 64.1101 150.94 64.5101 150.94 64.8301C150.94 65.1001 150.94 65.5401 150.92 66.1401C150.91 66.7401 150.89 67.4201 150.86 68.1801C150.83 68.9401 150.79 69.7301 150.75 70.5701C150.71 71.4001 150.66 72.1801 150.61 72.8901C150.56 73.6101 150.5 74.2301 150.44 74.7701C150.38 75.3101 150.31 75.6601 150.25 75.8301C150.19 76.0001 150.08 76.1301 149.92 76.2101C149.76 76.2901 149.6 76.3401 149.43 76.3401C149.18 76.3401 148.96 76.2501 148.79 76.0701C148.61 75.8901 148.52 75.6701 148.52 75.4201C148.52 75.1301 148.53 74.8401 148.55 74.5701C148.57 74.3001 148.59 74.0101 148.61 73.7201C148.65 73.0501 148.68 72.3701 148.7 71.7001C148.72 71.0301 148.73 70.3501 148.73 69.6801L148.72 69.6701ZM153.43 68.4701V66.6401C153.43 65.9901 153.42 65.3201 153.4 64.6501C153.38 63.9801 153.34 63.3101 153.27 62.6601C153.21 62.0101 153.11 61.4101 152.99 60.8601C152.93 60.6301 152.85 60.4101 152.77 60.2001C152.69 59.9901 152.64 59.7701 152.64 59.5401C152.64 59.1801 152.78 58.8901 153.06 58.6701C153.34 58.4501 153.64 58.3401 153.96 58.3401C154.19 58.3401 154.4 58.4101 154.59 58.5501C154.78 58.6901 154.92 58.8601 155.03 59.0701C155.18 59.3901 155.29 59.7701 155.38 60.2201C155.46 60.6701 155.53 61.1401 155.57 61.6301C155.61 62.1201 155.64 62.5901 155.65 63.0701C155.66 63.5401 155.67 63.9601 155.67 64.3201C155.67 65.6901 155.64 67.0501 155.59 68.4001C155.54 69.7501 155.46 71.1101 155.35 72.4801C155.29 73.2801 155.22 74.1001 155.16 74.9501C155.1 75.8001 154.95 76.6001 154.72 77.3801C154.57 77.8401 154.28 78.0801 153.84 78.0801C153.59 78.0801 153.37 77.9801 153.18 77.8001C152.99 77.6101 152.9 77.3901 152.9 77.1401C152.9 76.9701 152.92 76.8201 152.96 76.6801C153 76.5401 153.03 76.4001 153.05 76.2501C153.11 75.9101 153.15 75.5801 153.18 75.2401C153.2 74.9001 153.23 74.5701 153.27 74.2301C153.33 73.2801 153.37 72.3301 153.4 71.3801C153.42 70.4301 153.43 69.4701 153.43 68.5001V68.4701Z" fill="#F4F4F4"/>
<path d="M47.85 102.4C46.85 102.89 45.85 103.3 44.85 103.63C43.86 103.97 42.8 104.25 41.69 104.48C41.61 104.5 41.53 104.52 41.45 104.54C41.37 104.56 41.3 104.58 41.21 104.6C41.04 104.64 40.88 104.68 40.71 104.73C40.54 104.77 40.38 104.79 40.21 104.79C39.85 104.79 39.57 104.64 39.35 104.35C39.13 104.06 39.02 103.75 39.02 103.43C39.02 103.22 39.08 103.03 39.21 102.88C39.33 102.72 39.49 102.59 39.68 102.48C39.74 102.44 39.84 102.4 39.98 102.35C40.12 102.31 40.27 102.27 40.44 102.24C40.61 102.21 40.79 102.18 40.97 102.16C41.15 102.14 41.31 102.12 41.44 102.1L41.66 102.07C43.71 101.69 45.69 101.01 47.6 100.01C47.79 99.91 47.98 99.8 48.18 99.71C48.38 99.62 48.59 99.53 48.82 99.44C48.86 99.42 48.92 99.41 48.99 99.41H49.16C49.45 99.41 49.71 99.53 49.93 99.76C50.15 99.99 50.26 100.23 50.26 100.49C50.26 101 50.21 101.66 50.1 102.47C49.99 103.28 49.85 104.16 49.66 105.11C49.47 106.06 49.25 107.04 48.98 108.05C48.71 109.06 48.45 110.03 48.16 110.94C47.88 111.86 47.58 112.68 47.28 113.41C46.98 114.14 46.68 114.7 46.38 115.1C46.13 115.42 45.81 115.57 45.44 115.57C45.21 115.57 45.01 115.48 44.83 115.29C44.65 115.1 44.56 114.9 44.56 114.69C44.56 114.54 44.6 114.38 44.69 114.22C45.17 113.25 45.58 112.29 45.91 111.33C46.24 110.37 46.53 109.41 46.77 108.45C47.01 107.49 47.21 106.51 47.38 105.51C47.55 104.51 47.69 103.47 47.82 102.4H47.85ZM53.41 116.03C53.64 114.3 53.87 112.58 54.1 110.86C54.33 109.14 54.45 107.39 54.45 105.6C54.45 103.96 54.39 102.37 54.26 100.86C54.13 99.34 53.86 97.78 53.44 96.18C53.42 96.1 53.41 95.97 53.41 95.8C53.41 95.42 53.53 95.1 53.79 94.85C54.04 94.6 54.36 94.47 54.73 94.47C54.96 94.47 55.17 94.54 55.36 94.69C55.55 94.84 55.69 95.01 55.8 95.2C55.92 95.47 56.04 95.85 56.14 96.34C56.24 96.83 56.33 97.37 56.39 97.97C56.45 98.57 56.5 99.2 56.53 99.87C56.56 100.53 56.59 101.17 56.61 101.78C56.63 102.39 56.64 102.96 56.64 103.49V104.75C57.1 104.73 57.52 104.69 57.91 104.62C58.3 104.56 58.66 104.48 59.01 104.4C59.36 104.32 59.71 104.21 60.06 104.08C60.41 103.95 60.8 103.82 61.22 103.67C61.28 103.65 61.35 103.64 61.41 103.65C61.47 103.66 61.55 103.67 61.63 103.67C61.88 103.71 62.1 103.86 62.29 104.13C62.48 104.39 62.55 104.66 62.51 104.94C62.45 105.3 62.27 105.56 61.98 105.73C61.25 106.22 60.43 106.54 59.51 106.71C58.6 106.88 57.63 106.97 56.61 106.99C56.57 107.62 56.52 108.19 56.47 108.7C56.42 109.21 56.35 109.7 56.27 110.17C56.19 110.64 56.1 111.13 56 111.62C55.91 112.12 55.82 112.68 55.73 113.31C55.69 113.48 55.65 113.73 55.62 114.05C55.59 114.38 55.55 114.71 55.49 115.06C55.44 115.41 55.38 115.73 55.32 116.02C55.26 116.32 55.2 116.52 55.13 116.62C54.9 116.94 54.61 117.09 54.25 117.09C53.98 117.09 53.77 116.97 53.62 116.74C53.47 116.51 53.4 116.27 53.4 116.01L53.41 116.03Z" fill="#F4F4F4"/>
<path d="M69.11 111.48C68.34 111.48 67.63 111.35 67.01 111.1C66.39 110.85 65.84 110.49 65.39 110.02C64.94 109.56 64.59 109.01 64.35 108.38C64.11 107.75 63.99 107.05 63.99 106.29C63.99 105.57 64.15 104.83 64.46 104.06C64.77 103.29 65.2 102.59 65.73 101.96C66.26 101.33 66.88 100.81 67.58 100.39C68.28 99.9701 69.02 99.7701 69.79 99.7701C70.48 99.7701 71.11 99.9401 71.69 100.28C72.27 100.62 72.76 101.05 73.18 101.58C73.6 102.11 73.92 102.69 74.15 103.34C74.38 103.99 74.5 104.61 74.5 105.22C74.5 106.02 74.38 106.8 74.14 107.56C73.9 108.32 73.55 108.99 73.1 109.57C72.65 110.15 72.09 110.61 71.42 110.96C70.75 111.31 69.97 111.48 69.1 111.48H69.11ZM69.8 101.93C69.32 101.93 68.87 102.08 68.45 102.37C68.03 102.67 67.65 103.04 67.32 103.49C66.99 103.94 66.72 104.43 66.53 104.94C66.34 105.46 66.25 105.94 66.25 106.38C66.25 107.27 66.51 107.98 67.02 108.53C67.53 109.08 68.23 109.35 69.11 109.35C69.65 109.35 70.13 109.23 70.52 108.99C70.92 108.75 71.25 108.43 71.51 108.04C71.77 107.65 71.97 107.21 72.09 106.71C72.22 106.21 72.28 105.71 72.28 105.21C72.28 104.89 72.22 104.54 72.09 104.15C71.96 103.76 71.79 103.4 71.57 103.07C71.35 102.74 71.09 102.47 70.78 102.25C70.48 102.03 70.15 101.92 69.79 101.92L69.8 101.93ZM77.91 114.96C77.91 114.41 77.96 113.86 78.05 113.3C78.14 112.74 78.22 112.19 78.29 111.64C78.44 110.42 78.56 109.19 78.67 107.97C78.78 106.75 78.83 105.51 78.83 104.27C78.83 103.3 78.8 102.33 78.75 101.36C78.7 100.39 78.59 99.4201 78.42 98.4501C78.31 97.9401 78.17 97.4301 78 96.9001C77.82 96.3701 77.73 95.8601 77.73 95.3501C77.73 95.0101 77.86 94.7201 78.11 94.4801C78.36 94.2401 78.65 94.1201 78.99 94.1201C79.33 94.1201 79.62 94.2501 79.87 94.5001C80.04 94.6701 80.19 95.0201 80.33 95.5601C80.47 96.1001 80.58 96.6801 80.67 97.3101C80.76 97.9401 80.84 98.5501 80.91 99.1401C80.97 99.7301 81.01 100.16 81.04 100.44C81.4 100.38 81.76 100.31 82.12 100.25C82.49 100.19 82.85 100.09 83.2 99.9701C83.45 99.8901 83.76 99.7601 84.13 99.5901C84.5 99.4201 84.8 99.3401 85.06 99.3401C85.35 99.3401 85.59 99.4701 85.78 99.7401C85.97 100 86.06 100.27 86.06 100.55C86.06 100.83 85.93 101.07 85.68 101.28C85.53 101.43 85.26 101.58 84.85 101.74C84.44 101.9 84 102.04 83.52 102.17C83.04 102.3 82.57 102.41 82.12 102.52C81.67 102.63 81.33 102.69 81.1 102.71C81.06 103.66 81.01 104.61 80.94 105.56C80.88 106.51 80.79 107.46 80.69 108.41C80.82 108.43 80.94 108.45 81.07 108.47C81.2 108.49 81.32 108.5 81.45 108.5C82.18 108.5 82.82 108.38 83.35 108.15C83.88 107.92 84.47 107.68 85.12 107.42C85.18 107.38 85.3 107.36 85.46 107.36C85.75 107.36 86 107.48 86.21 107.72C86.42 107.96 86.52 108.22 86.52 108.49C86.52 108.87 86.32 109.2 85.91 109.49C85.5 109.78 85.02 110.01 84.46 110.19C83.9 110.37 83.35 110.5 82.8 110.59C82.25 110.67 81.82 110.72 81.53 110.72H80.96C80.77 110.72 80.58 110.71 80.39 110.69C80.35 110.88 80.3 111.22 80.25 111.72C80.2 112.22 80.13 112.73 80.06 113.25C79.99 113.78 79.91 114.26 79.82 114.7C79.74 115.14 79.65 115.42 79.57 115.52C79.38 115.77 79.14 115.9 78.85 115.9C78.6 115.9 78.38 115.81 78.19 115.63C78 115.45 77.91 115.23 77.91 114.98V114.96Z" fill="#F4F4F4"/>
<path d="M101.15 100.5C101.15 100.82 100.99 101.07 100.68 101.26C98.98 102.44 97.1 103.39 95.04 104.12C92.98 104.85 90.9 105.21 88.81 105.21C88.45 105.21 88.16 105.09 87.91 104.86C87.67 104.63 87.55 104.33 87.55 103.97C87.55 103.34 87.87 102.96 88.52 102.83C88.75 102.79 88.98 102.76 89.21 102.75C89.44 102.74 89.67 102.73 89.9 102.73C91.49 102.71 93.03 102.48 94.52 102.03C96.01 101.59 97.44 100.97 98.82 100.16C99.05 100.03 99.3 99.9 99.56 99.76C99.82 99.62 100.06 99.55 100.27 99.55C100.5 99.55 100.7 99.65 100.88 99.85C101.06 100.05 101.15 100.26 101.15 100.47V100.5ZM99.42 97.18C99.42 97.52 99.25 97.79 98.92 97.99C98.59 98.19 98.26 98.35 97.95 98.48C97.43 98.73 96.83 99.01 96.14 99.3C95.46 99.6 94.76 99.86 94.05 100.09C93.34 100.32 92.63 100.52 91.91 100.67C91.2 100.83 90.55 100.91 89.96 100.91C89.6 100.91 89.3 100.79 89.05 100.56C88.8 100.33 88.67 100.03 88.67 99.67C88.67 99.21 88.88 98.86 89.3 98.63C89.45 98.55 89.68 98.49 90.01 98.47C90.33 98.45 90.64 98.43 90.94 98.41C92.07 98.35 93.17 98.16 94.25 97.86C95.33 97.55 96.37 97.16 97.37 96.67C97.56 96.59 97.76 96.5 97.97 96.42C98.18 96.34 98.37 96.29 98.54 96.29C98.77 96.29 98.97 96.39 99.15 96.59C99.33 96.79 99.42 96.99 99.42 97.17V97.18ZM95.59 115.05C95.02 115.05 94.46 114.94 93.89 114.73C93.32 114.52 92.82 114.23 92.37 113.86C91.92 113.49 91.55 113.06 91.27 112.56C90.99 112.06 90.85 111.52 90.85 110.93C90.85 110.28 91.01 109.66 91.34 109.06C91.66 108.47 92.08 107.95 92.6 107.51C93.11 107.07 93.69 106.72 94.33 106.47C94.97 106.22 95.6 106.09 96.23 106.09C96.82 106.09 97.37 106.18 97.9 106.36C98.42 106.54 98.88 106.8 99.28 107.13C99.68 107.47 99.99 107.88 100.21 108.36C100.43 108.84 100.54 109.38 100.54 109.97C100.54 110.56 100.4 111.19 100.12 111.8C99.84 112.41 99.47 112.95 99.02 113.43C98.57 113.9 98.05 114.29 97.45 114.58C96.85 114.88 96.24 115.02 95.61 115.02L95.59 115.05ZM96.25 108.25C95.89 108.25 95.53 108.32 95.15 108.47C94.77 108.62 94.43 108.82 94.13 109.07C93.83 109.32 93.58 109.62 93.39 109.96C93.2 110.3 93.11 110.66 93.11 111.03C93.11 111.3 93.18 111.56 93.33 111.79C93.48 112.02 93.66 112.23 93.9 112.41C94.13 112.59 94.4 112.73 94.7 112.84C95 112.95 95.31 113 95.63 113C95.95 113 96.26 112.92 96.57 112.75C96.88 112.58 97.17 112.35 97.42 112.07C97.67 111.79 97.88 111.46 98.03 111.11C98.19 110.75 98.27 110.37 98.27 109.97C98.27 109.36 98.07 108.92 97.67 108.66C97.27 108.4 96.8 108.26 96.26 108.26L96.25 108.25ZM103.12 117.67C103.12 117.44 103.15 117.2 103.2 116.96C103.25 116.72 103.3 116.48 103.34 116.25C103.42 115.76 103.49 115.29 103.54 114.81C103.59 114.34 103.65 113.86 103.71 113.37C104.02 110.46 104.18 107.54 104.18 104.61C104.18 103.35 104.14 102.09 104.05 100.85C103.97 99.61 103.82 98.36 103.61 97.12C103.57 96.83 103.52 96.55 103.45 96.28C103.39 96.02 103.36 95.74 103.36 95.44C103.36 95.08 103.5 94.79 103.77 94.55C104.04 94.32 104.35 94.2 104.68 94.2C104.89 94.2 105.1 94.27 105.31 94.42C105.52 94.57 105.67 94.74 105.75 94.93C105.87 95.2 105.99 95.71 106.08 96.45C106.17 97.19 106.25 97.99 106.3 98.85C106.35 99.71 106.39 100.54 106.41 101.33C106.43 102.12 106.44 102.71 106.44 103.08C106.44 103.69 106.43 104.3 106.41 104.91C106.39 105.52 106.36 106.13 106.32 106.74C107.05 106.63 107.71 106.48 108.3 106.28C108.89 106.08 109.51 105.84 110.18 105.57C110.35 105.53 110.47 105.51 110.56 105.51C110.85 105.51 111.1 105.63 111.31 105.87C111.52 106.11 111.62 106.37 111.62 106.64C111.62 107.02 111.39 107.36 110.93 107.65C110.47 107.95 109.93 108.19 109.33 108.39C108.72 108.59 108.12 108.74 107.51 108.85C106.9 108.96 106.45 109.02 106.16 109.04C106.14 109.27 106.1 109.64 106.05 110.15C106 110.66 105.93 111.24 105.86 111.89C105.79 112.54 105.7 113.22 105.61 113.91C105.52 114.61 105.42 115.26 105.33 115.87C105.24 116.48 105.15 117.01 105.06 117.45C104.98 117.89 104.9 118.17 104.84 118.27C104.63 118.56 104.34 118.71 103.96 118.71C103.67 118.71 103.45 118.59 103.32 118.36C103.18 118.13 103.12 117.89 103.12 117.63V117.67Z" fill="#F4F4F4"/>
<path d="M133.71 103.03C133.71 103.33 133.57 103.59 133.3 103.82C133.15 103.93 133 104.03 132.84 104.14C132.68 104.25 132.52 104.35 132.35 104.46C131.87 104.8 131.39 105.12 130.91 105.42C130.43 105.73 129.95 106.04 129.47 106.35C128.38 107.02 127.34 107.63 126.35 108.17C125.35 108.71 124.34 109.17 123.3 109.55C122.26 109.93 121.19 110.23 120.08 110.45C118.97 110.67 117.77 110.8 116.47 110.85C116.24 110.85 115.94 110.84 115.57 110.82C115.2 110.8 114.82 110.76 114.42 110.71C114.02 110.66 113.66 110.58 113.32 110.47C112.98 110.36 112.74 110.23 112.6 110.06C112.5 109.93 112.42 109.8 112.38 109.65C112.34 109.5 112.32 109.34 112.32 109.18C112.32 108.86 112.45 108.58 112.71 108.33C112.97 108.08 113.26 107.95 113.57 107.95C113.63 107.95 113.7 107.95 113.76 107.97C113.82 107.98 113.89 107.99 113.95 107.99C114.49 108.1 115.03 108.2 115.55 108.29C116.07 108.38 116.61 108.43 117.15 108.43C118.3 108.43 119.42 108.31 120.49 108.07C121.57 107.83 122.63 107.5 123.66 107.09C124.7 106.68 125.71 106.2 126.69 105.67C127.67 105.13 128.64 104.57 129.58 103.98C130.04 103.69 130.49 103.4 130.93 103.11C131.37 102.83 131.82 102.54 132.28 102.24C132.57 102.07 132.88 102.08 133.21 102.26C133.53 102.44 133.7 102.71 133.7 103.07L133.71 103.03ZM118.48 105.22C118.21 105.22 117.99 105.16 117.84 105.05C117.69 104.94 117.56 104.79 117.48 104.62C117.29 104.2 117.09 103.65 116.88 102.96C116.67 102.28 116.48 101.56 116.3 100.81C116.12 100.06 115.97 99.34 115.86 98.64C115.74 97.94 115.69 97.37 115.69 96.93C115.69 96.57 115.8 96.28 116.04 96.06C116.27 95.84 116.56 95.73 116.92 95.73C117.25 95.73 117.55 95.82 117.8 96C118.05 96.18 118.2 96.45 118.24 96.81C118.28 97 118.31 97.19 118.32 97.38C118.33 97.57 118.35 97.76 118.37 97.95C118.47 98.81 118.61 99.66 118.78 100.48C118.95 101.3 119.14 102.14 119.35 102.98C119.94 102.87 120.54 102.7 121.16 102.46C121.78 102.22 122.37 101.92 122.95 101.57C123.53 101.22 124.07 100.83 124.58 100.38C125.09 99.94 125.54 99.47 125.91 98.99C126.06 98.82 126.19 98.66 126.32 98.52C126.44 98.37 126.56 98.26 126.66 98.17C126.76 98.11 126.86 98.05 126.96 98C127.05 97.95 127.17 97.93 127.32 97.95C127.55 97.99 127.76 98.09 127.95 98.25C128.14 98.41 128.23 98.61 128.23 98.87C128.23 99 128.18 99.14 128.09 99.31C128 99.48 127.88 99.65 127.74 99.82C127.6 99.99 127.46 100.15 127.3 100.31C127.14 100.47 127.01 100.6 126.91 100.71C126.43 101.2 125.86 101.71 125.2 102.24C124.54 102.77 123.83 103.27 123.08 103.71C122.33 104.15 121.55 104.52 120.76 104.8C119.96 105.08 119.21 105.23 118.5 105.23L118.48 105.22ZM130.23 115.65C130.23 115.82 130.18 116 130.07 116.19C129.96 116.38 129.83 116.57 129.68 116.77C129.52 116.97 129.37 117.15 129.21 117.32C129.05 117.49 128.92 117.63 128.82 117.73C127.84 118.68 126.7 119.45 125.4 120.04C124.1 120.63 122.76 120.93 121.38 120.93C120.65 120.93 120 120.76 119.43 120.41C118.86 120.06 118.38 119.61 117.98 119.07C117.58 118.52 117.28 117.91 117.09 117.24C116.89 116.57 116.79 115.89 116.79 115.22C116.79 114.86 116.91 114.56 117.15 114.3C117.39 114.04 117.69 113.92 118.05 113.92C118.43 113.92 118.71 114.03 118.91 114.24C119.11 114.45 119.24 114.74 119.3 115.09C119.36 115.47 119.42 115.87 119.47 116.29C119.52 116.71 119.62 117.1 119.77 117.46C119.92 117.82 120.13 118.11 120.41 118.35C120.69 118.58 121.08 118.7 121.59 118.7C122.74 118.7 123.86 118.46 124.95 117.99C126.04 117.52 126.98 116.86 127.78 116.01C127.93 115.84 128.07 115.65 128.22 115.43C128.37 115.21 128.52 115.05 128.69 114.94C128.9 114.81 129.12 114.75 129.35 114.75C129.58 114.75 129.78 114.85 129.96 115.03C130.14 115.22 130.23 115.43 130.23 115.66V115.65Z" fill="#F4F4F4"/>
<path d="M144.7 106.77C144.7 105.97 144.84 105.21 145.11 104.49C145.38 103.77 145.77 103.15 146.27 102.61C146.77 102.07 147.37 101.65 148.06 101.33C148.75 101.01 149.52 100.86 150.35 100.86C151.18 100.86 151.93 101.02 152.56 101.35C153.2 101.68 153.73 102.11 154.16 102.66C154.59 103.21 154.91 103.84 155.13 104.54C155.35 105.25 155.46 105.98 155.46 106.74C155.46 107.44 155.32 108.1 155.05 108.73C154.78 109.36 154.41 109.91 153.95 110.37C153.49 110.83 152.95 111.2 152.33 111.48C151.71 111.75 151.05 111.89 150.34 111.89C149.63 111.89 148.9 111.77 148.22 111.53C147.54 111.29 146.94 110.95 146.41 110.5C145.89 110.06 145.47 109.52 145.15 108.89C144.84 108.26 144.68 107.55 144.68 106.77H144.7ZM150.2 102.97C149.7 102.97 149.25 103.08 148.85 103.3C148.45 103.52 148.11 103.81 147.81 104.15C147.52 104.5 147.29 104.9 147.13 105.37C146.97 105.83 146.89 106.3 146.89 106.76C146.89 107.22 146.99 107.67 147.19 108.04C147.39 108.41 147.65 108.72 147.98 108.97C148.3 109.22 148.67 109.41 149.08 109.54C149.49 109.67 149.9 109.73 150.32 109.73C150.72 109.73 151.09 109.65 151.43 109.49C151.78 109.33 152.08 109.12 152.34 108.86C152.6 108.6 152.81 108.28 152.95 107.91C153.1 107.54 153.17 107.15 153.17 106.72C153.17 106.24 153.12 105.77 153.01 105.31C152.91 104.86 152.73 104.46 152.49 104.11C152.25 103.76 151.94 103.48 151.56 103.27C151.18 103.06 150.72 102.95 150.18 102.95L150.2 102.97ZM160.94 108.44C160.94 107.77 160.92 107.03 160.89 106.24C160.86 105.45 160.8 104.66 160.72 103.87C160.64 103.08 160.52 102.31 160.36 101.55C160.2 100.79 160.01 100.1 159.78 99.46C159.66 99.1 159.47 98.71 159.23 98.29C158.99 97.87 158.87 97.48 158.87 97.12C158.87 96.8 159.01 96.53 159.28 96.3C159.55 96.07 159.83 95.95 160.13 95.95C160.36 95.95 160.57 96.01 160.77 96.14C160.97 96.27 161.12 96.44 161.23 96.65C161.61 97.26 161.92 97.98 162.16 98.8C162.4 99.62 162.59 100.48 162.73 101.36C162.87 102.24 162.95 103.13 163 104C163.04 104.88 163.06 105.67 163.06 106.39C163.06 106.66 163.05 107.09 163.03 107.67C163.01 108.25 162.98 108.9 162.94 109.63C162.9 110.36 162.85 111.12 162.78 111.92C162.72 112.72 162.65 113.46 162.58 114.15C162.51 114.84 162.43 115.44 162.34 115.95C162.26 116.47 162.16 116.8 162.06 116.95C161.89 117.27 161.63 117.42 161.27 117.42C160.98 117.42 160.75 117.32 160.59 117.12C160.43 116.92 160.35 116.67 160.35 116.38C160.52 115.05 160.66 113.73 160.77 112.41C160.88 111.09 160.94 109.77 160.94 108.44Z" fill="#F4F4F4"/>
<path d="M185.22 105.18C185.22 105.41 185.08 105.7 184.8 106.05C184.52 106.4 184.19 106.74 183.83 107.08C183.47 107.42 183.09 107.73 182.72 108.03C182.34 108.33 182.06 108.55 181.87 108.69C181.99 108.92 182.09 109.21 182.17 109.54C182.24 109.88 182.31 110.23 182.36 110.6C182.41 110.97 182.44 111.34 182.45 111.71C182.46 112.08 182.47 112.4 182.47 112.67C182.47 112.84 182.46 113.18 182.44 113.68C182.42 114.18 182.39 114.77 182.35 115.43C182.31 116.09 182.26 116.79 182.21 117.52C182.16 118.25 182.11 118.92 182.05 119.54C182 120.16 181.95 120.69 181.89 121.12C181.84 121.55 181.79 121.81 181.75 121.89C181.64 122.06 181.54 122.18 181.42 122.27C181.3 122.35 181.14 122.4 180.93 122.4C180.68 122.4 180.46 122.32 180.27 122.15C180.08 121.98 179.99 121.76 179.99 121.49C179.99 121.11 180 120.73 180.02 120.35C180.04 119.97 180.06 119.57 180.08 119.15C180.12 118.37 180.16 117.59 180.19 116.81C180.22 116.03 180.24 115.24 180.24 114.44C180.24 113.7 180.22 112.96 180.18 112.23C180.14 111.49 179.98 110.78 179.71 110.08C179.06 110.44 178.4 110.78 177.73 111.09C177.06 111.41 176.39 111.71 175.72 112.01C175.7 112.14 175.65 112.41 175.56 112.83C175.48 113.25 175.38 113.75 175.26 114.32C175.14 114.89 175.01 115.49 174.87 116.12C174.73 116.75 174.58 117.34 174.45 117.89C174.31 118.44 174.19 118.9 174.09 119.28C173.99 119.66 173.91 119.88 173.87 119.94C173.66 120.21 173.4 120.35 173.08 120.35C172.79 120.35 172.55 120.24 172.36 120.02C172.17 119.8 172.1 119.54 172.14 119.25C172.29 118.17 172.44 117.12 172.6 116.07C172.76 115.03 172.91 113.97 173.06 112.89C172.1 113.19 171.1 113.44 170.06 113.66C169.02 113.88 167.99 113.99 166.97 113.99C166.61 113.99 166.32 113.87 166.08 113.63C165.84 113.39 165.72 113.09 165.72 112.73C165.72 112.06 166.03 111.66 166.66 111.53C166.93 111.47 167.21 111.43 167.51 111.43C167.81 111.43 168.1 111.42 168.39 111.4C168.93 111.36 169.47 111.29 169.99 111.21C170.95 111.04 171.95 110.81 172.97 110.53C174 110.25 175.01 109.91 176 109.52C176.99 109.13 177.96 108.69 178.89 108.19C179.82 107.69 180.68 107.15 181.48 106.56C181.9 106.24 182.28 105.89 182.63 105.5C182.98 105.11 183.36 104.76 183.78 104.44C183.93 104.31 184.14 104.25 184.41 104.25C184.64 104.25 184.84 104.35 185.01 104.55C185.18 104.75 185.26 104.96 185.26 105.17L185.22 105.18ZM168.7 101.77C168.7 101.05 168.83 100.33 169.08 99.59C169.33 98.85 169.69 98.18 170.16 97.57C170.63 96.96 171.19 96.46 171.84 96.07C172.49 95.68 173.21 95.49 174.01 95.49C174.72 95.49 175.38 95.65 175.97 95.96C176.57 96.28 177.08 96.69 177.51 97.21C177.94 97.73 178.27 98.31 178.51 98.96C178.75 99.61 178.87 100.28 178.87 100.95C178.87 102.49 178.42 103.74 177.52 104.7C176.62 105.66 175.37 106.14 173.78 106.14C173.15 106.14 172.53 106.04 171.93 105.84C171.33 105.64 170.78 105.35 170.3 104.97C169.82 104.59 169.43 104.13 169.14 103.59C168.85 103.05 168.7 102.45 168.7 101.77ZM176.61 100.95C176.61 100.55 176.55 100.15 176.42 99.75C176.29 99.35 176.11 98.99 175.87 98.68C175.63 98.36 175.34 98.11 175.01 97.91C174.68 97.71 174.29 97.61 173.85 97.61C173.41 97.61 173.04 97.76 172.69 98.05C172.33 98.35 172.02 98.71 171.76 99.14C171.5 99.57 171.29 100.03 171.15 100.5C171 100.97 170.93 101.39 170.93 101.75C170.93 102.13 171.02 102.46 171.2 102.75C171.38 103.03 171.61 103.27 171.89 103.45C172.17 103.63 172.49 103.77 172.83 103.86C173.18 103.95 173.5 104 173.82 104C174.76 104 175.46 103.73 175.92 103.19C176.38 102.65 176.61 101.91 176.61 100.96V100.95Z" fill="#F4F4F4"/>
</g>
<defs>
<clipPath id="clip0_187_54">
<rect width="350" height="570" fill="white"/>
</clipPath>
</defs>
</svg>
