<svg width="350" height="570" viewBox="0 0 350 570" fill="none" preserveAspectRatio="none" xmlns="http://www.w3.org/2000/svg">
<g clip-path="url(#clip0_187_83)">
<path d="M350 0H0V570H350V0Z" fill="#F99DCD"/>
<path d="M71.5299 -16.3301H-7.56006V62.7599H71.5299V-16.3301Z" stroke="#EA7ABA" stroke-miterlimit="10"/>
<path d="M150.62 -16.3301H71.53V62.7599H150.62V-16.3301Z" stroke="#EA7ABA" stroke-miterlimit="10"/>
<path d="M229.7 -16.3301H150.61V62.7599H229.7V-16.3301Z" stroke="#EA7ABA" stroke-miterlimit="10"/>
<path d="M308.79 -16.3301H229.7V62.7599H308.79V-16.3301Z" stroke="#EA7ABA" stroke-miterlimit="10"/>
<path d="M387.88 -16.3301H308.79V62.7599H387.88V-16.3301Z" stroke="#EA7ABA" stroke-miterlimit="10"/>
<path d="M31.9899 62.75H-47.1001V141.84H31.9899V62.75Z" stroke="#EA7ABA" stroke-miterlimit="10"/>
<path d="M111.45 62.75H32.3601V141.84H111.45V62.75Z" stroke="#EA7ABA" stroke-miterlimit="10"/>
<path d="M190.91 62.75H111.82V141.84H190.91V62.75Z" stroke="#EA7ABA" stroke-miterlimit="10"/>
<path d="M270.37 62.75H191.28V141.84H270.37V62.75Z" stroke="#EA7ABA" stroke-miterlimit="10"/>
<path d="M349.83 62.75H270.74V141.84H349.83V62.75Z" stroke="#EA7ABA" stroke-miterlimit="10"/>
<path d="M71.5299 141.84H-7.56006V220.93H71.5299V141.84Z" stroke="#EA7ABA" stroke-miterlimit="10"/>
<path d="M150.62 141.84H71.53V220.93H150.62V141.84Z" stroke="#EA7ABA" stroke-miterlimit="10"/>
<path d="M229.7 141.84H150.61V220.93H229.7V141.84Z" stroke="#EA7ABA" stroke-miterlimit="10"/>
<path d="M308.79 141.84H229.7V220.93H308.79V141.84Z" stroke="#EA7ABA" stroke-miterlimit="10"/>
<path d="M387.88 141.84H308.79V220.93H387.88V141.84Z" stroke="#EA7ABA" stroke-miterlimit="10"/>
<path d="M31.9899 220.93H-47.1001V300.02H31.9899V220.93Z" stroke="#EA7ABA" stroke-miterlimit="10"/>
<path d="M111.45 220.93H32.3601V300.02H111.45V220.93Z" stroke="#EA7ABA" stroke-miterlimit="10"/>
<path d="M190.91 220.93H111.82V300.02H190.91V220.93Z" stroke="#EA7ABA" stroke-miterlimit="10"/>
<path d="M270.37 220.93H191.28V300.02H270.37V220.93Z" stroke="#EA7ABA" stroke-miterlimit="10"/>
<path d="M349.83 220.93H270.74V300.02H349.83V220.93Z" stroke="#EA7ABA" stroke-miterlimit="10"/>
<path d="M71.5299 300.02H-7.56006V379.11H71.5299V300.02Z" stroke="#EA7ABA" stroke-miterlimit="10"/>
<path d="M150.62 300.02H71.53V379.11H150.62V300.02Z" stroke="#EA7ABA" stroke-miterlimit="10"/>
<path d="M229.7 300.02H150.61V379.11H229.7V300.02Z" stroke="#EA7ABA" stroke-miterlimit="10"/>
<path d="M308.79 300.02H229.7V379.11H308.79V300.02Z" stroke="#EA7ABA" stroke-miterlimit="10"/>
<path d="M387.88 300.02H308.79V379.11H387.88V300.02Z" stroke="#EA7ABA" stroke-miterlimit="10"/>
<path d="M31.9899 379.1H-47.1001V458.19H31.9899V379.1Z" stroke="#EA7ABA" stroke-miterlimit="10"/>
<path d="M111.45 379.1H32.3601V458.19H111.45V379.1Z" stroke="#EA7ABA" stroke-miterlimit="10"/>
<path d="M190.91 379.1H111.82V458.19H190.91V379.1Z" stroke="#EA7ABA" stroke-miterlimit="10"/>
<path d="M270.37 379.1H191.28V458.19H270.37V379.1Z" stroke="#EA7ABA" stroke-miterlimit="10"/>
<path d="M349.83 379.1H270.74V458.19H349.83V379.1Z" stroke="#EA7ABA" stroke-miterlimit="10"/>
<path d="M71.5299 458.19H-7.56006V537.28H71.5299V458.19Z" stroke="#EA7ABA" stroke-miterlimit="10"/>
<path d="M150.62 458.19H71.53V537.28H150.62V458.19Z" stroke="#EA7ABA" stroke-miterlimit="10"/>
<path d="M229.7 458.19H150.61V537.28H229.7V458.19Z" stroke="#EA7ABA" stroke-miterlimit="10"/>
<path d="M308.79 458.19H229.7V537.28H308.79V458.19Z" stroke="#EA7ABA" stroke-miterlimit="10"/>
<path d="M387.88 458.19H308.79V537.28H387.88V458.19Z" stroke="#EA7ABA" stroke-miterlimit="10"/>
<path d="M31.9899 537.28H-47.1001V616.37H31.9899V537.28Z" stroke="#EA7ABA" stroke-miterlimit="10"/>
<path d="M111.45 537.28H32.3601V616.37H111.45V537.28Z" stroke="#EA7ABA" stroke-miterlimit="10"/>
<path d="M190.91 537.28H111.82V616.37H190.91V537.28Z" stroke="#EA7ABA" stroke-miterlimit="10"/>
<path d="M270.37 537.28H191.28V616.37H270.37V537.28Z" stroke="#EA7ABA" stroke-miterlimit="10"/>
<path d="M349.83 537.28H270.74V616.37H349.83V537.28Z" stroke="#EA7ABA" stroke-miterlimit="10"/>
</g>
<defs>
<clipPath id="clip0_187_83">
<rect width="350" height="570" fill="white"/>
</clipPath>
</defs>
</svg>
