<svg width="350" height="570" viewBox="0 0 350 570" fill="none" preserveAspectRatio="none" xmlns="http://www.w3.org/2000/svg">
<g clip-path="url(#clip0_206_332)">
<path d="M350 459H0V570H350V459Z" fill="#ABACB2"/>
<path d="M350 169.96H0V458.99H350V169.96Z" fill="#64636B"/>
<path d="M389.93 169.96H-29.8901" stroke="#231815" stroke-miterlimit="10"/>
<path d="M389.93 459H-29.8901" stroke="#231815" stroke-miterlimit="10"/>
<path d="M350 0H0V169.96H350V0Z" fill="#F4F4F4"/>
<path d="M350 459H0V570H350V459Z" fill="#F4F4F4"/>
<path d="M350 169.96H0V458.99H350V169.96Z" fill="#F99DCD"/>
<path d="M62.8 -67.3H-16.29V11.79H62.8V-67.3Z" stroke="#E2E2E2" stroke-miterlimit="10"/>
<path d="M141.89 -67.3H62.7998V11.79H141.89V-67.3Z" stroke="#E2E2E2" stroke-miterlimit="10"/>
<path d="M220.98 -67.3H141.89V11.79H220.98V-67.3Z" stroke="#E2E2E2" stroke-miterlimit="10"/>
<path d="M300.06 -67.3H220.97V11.79H300.06V-67.3Z" stroke="#E2E2E2" stroke-miterlimit="10"/>
<path d="M379.15 -67.3H300.06V11.79H379.15V-67.3Z" stroke="#E2E2E2" stroke-miterlimit="10"/>
<path d="M23.2599 11.79H-55.8301V90.88H23.2599V11.79Z" stroke="#E2E2E2" stroke-miterlimit="10"/>
<path d="M102.72 11.79H23.6299V90.88H102.72V11.79Z" stroke="#E2E2E2" stroke-miterlimit="10"/>
<path d="M182.18 11.79H103.09V90.88H182.18V11.79Z" stroke="#E2E2E2" stroke-miterlimit="10"/>
<path d="M261.64 11.79H182.55V90.88H261.64V11.79Z" stroke="#E2E2E2" stroke-miterlimit="10"/>
<path d="M341.1 11.79H262.01V90.88H341.1V11.79Z" stroke="#E2E2E2" stroke-miterlimit="10"/>
<path d="M62.8 90.8799H-16.29V169.97H62.8V90.8799Z" stroke="#E2E2E2" stroke-miterlimit="10"/>
<path d="M141.89 90.8799H62.7998V169.97H141.89V90.8799Z" stroke="#E2E2E2" stroke-miterlimit="10"/>
<path d="M220.98 90.8799H141.89V169.97H220.98V90.8799Z" stroke="#E2E2E2" stroke-miterlimit="10"/>
<path d="M300.06 90.8799H220.97V169.97H300.06V90.8799Z" stroke="#E2E2E2" stroke-miterlimit="10"/>
<path d="M379.15 90.8799H300.06V169.97H379.15V90.8799Z" stroke="#E2E2E2" stroke-miterlimit="10"/>
<path d="M5.17001 170H-133.98V206.12H5.17001V170Z" stroke="#EA7ABA" stroke-miterlimit="10"/>
<path d="M144.32 170H5.16992V206.12H144.32V170Z" stroke="#EA7ABA" stroke-miterlimit="10"/>
<path d="M283.47 170H144.32V206.12H283.47V170Z" stroke="#EA7ABA" stroke-miterlimit="10"/>
<path d="M422.63 170H283.48V206.12H422.63V170Z" stroke="#EA7ABA" stroke-miterlimit="10"/>
<path d="M75.4 206.12H-63.75V242.24H75.4V206.12Z" stroke="#EA7ABA" stroke-miterlimit="10"/>
<path d="M215.21 206.12H76.0601V242.24H215.21V206.12Z" stroke="#EA7ABA" stroke-miterlimit="10"/>
<path d="M355.02 206.12H215.87V242.24H355.02V206.12Z" stroke="#EA7ABA" stroke-miterlimit="10"/>
<path d="M5.17001 242.25H-133.98V278.37H5.17001V242.25Z" stroke="#EA7ABA" stroke-miterlimit="10"/>
<path d="M144.32 242.25H5.16992V278.37H144.32V242.25Z" stroke="#EA7ABA" stroke-miterlimit="10"/>
<path d="M283.47 242.25H144.32V278.37H283.47V242.25Z" stroke="#EA7ABA" stroke-miterlimit="10"/>
<path d="M422.63 242.25H283.48V278.37H422.63V242.25Z" stroke="#EA7ABA" stroke-miterlimit="10"/>
<path d="M75.4 278.37H-63.75V314.49H75.4V278.37Z" stroke="#EA7ABA" stroke-miterlimit="10"/>
<path d="M215.21 278.37H76.0601V314.49H215.21V278.37Z" stroke="#EA7ABA" stroke-miterlimit="10"/>
<path d="M355.02 278.37H215.87V314.49H355.02V278.37Z" stroke="#EA7ABA" stroke-miterlimit="10"/>
<path d="M5.17001 314.5H-133.98V350.62H5.17001V314.5Z" stroke="#EA7ABA" stroke-miterlimit="10"/>
<path d="M144.32 314.5H5.16992V350.62H144.32V314.5Z" stroke="#EA7ABA" stroke-miterlimit="10"/>
<path d="M283.47 314.5H144.32V350.62H283.47V314.5Z" stroke="#EA7ABA" stroke-miterlimit="10"/>
<path d="M422.63 314.5H283.48V350.62H422.63V314.5Z" stroke="#EA7ABA" stroke-miterlimit="10"/>
<path d="M75.4 350.62H-63.75V386.74H75.4V350.62Z" stroke="#EA7ABA" stroke-miterlimit="10"/>
<path d="M215.21 350.62H76.0601V386.74H215.21V350.62Z" stroke="#EA7ABA" stroke-miterlimit="10"/>
<path d="M355.02 350.62H215.87V386.74H355.02V350.62Z" stroke="#EA7ABA" stroke-miterlimit="10"/>
<path d="M5.17001 386.75H-133.98V422.87H5.17001V386.75Z" stroke="#EA7ABA" stroke-miterlimit="10"/>
<path d="M144.32 386.75H5.16992V422.87H144.32V386.75Z" stroke="#EA7ABA" stroke-miterlimit="10"/>
<path d="M283.47 386.75H144.32V422.87H283.47V386.75Z" stroke="#EA7ABA" stroke-miterlimit="10"/>
<path d="M422.63 386.75H283.48V422.87H422.63V386.75Z" stroke="#EA7ABA" stroke-miterlimit="10"/>
<path d="M75.4 422.87H-63.75V458.99H75.4V422.87Z" stroke="#EA7ABA" stroke-miterlimit="10"/>
<path d="M215.21 422.87H76.0601V458.99H215.21V422.87Z" stroke="#EA7ABA" stroke-miterlimit="10"/>
<path d="M355.02 422.87H215.87V458.99H355.02V422.87Z" stroke="#EA7ABA" stroke-miterlimit="10"/>
<path d="M389.93 170H-29.8901" stroke="#231815" stroke-miterlimit="10"/>
<path d="M389.93 459H-29.8901" stroke="#231815" stroke-miterlimit="10"/>
<path d="M270.93 169.96V62.4499C270.93 57.0099 266.52 52.6099 261.09 52.6099H119.54C114.1 52.6099 109.7 57.0199 109.7 62.4499V169.96" fill="#DDB780"/>
<path d="M270.93 169.96V62.4499C270.93 57.0099 266.52 52.6099 261.09 52.6099H119.54C114.1 52.6099 109.7 57.0199 109.7 62.4499V169.96" stroke="#231815" stroke-width="2" stroke-linejoin="round"/>
<path d="M270.93 169.96V62.4499C270.93 57.0099 266.52 52.6099 261.09 52.6099H119.54C114.1 52.6099 109.7 57.0199 109.7 62.4499V169.96H270.93Z" stroke="#231815" stroke-linejoin="round"/>
<path d="M246.61 12.47H134.51C129.357 12.47 125.18 16.6472 125.18 21.8V43.27C125.18 48.4228 129.357 52.6 134.51 52.6H246.61C251.763 52.6 255.94 48.4228 255.94 43.27V21.8C255.94 16.6472 251.763 12.47 246.61 12.47Z" fill="#2E684D" stroke="#231815" stroke-width="2" stroke-linecap="round" stroke-linejoin="round"/>
<path d="M160.94 41.5099C160.94 42.8099 160.51 43.4499 159.65 43.4099C157.63 43.3299 155.61 43.2699 153.58 43.2299C151.54 43.1899 149.52 43.1699 147.51 43.1699C145.5 43.1699 143.41 43.1899 141.38 43.2299C139.34 43.2699 137.32 43.3299 135.31 43.4099C134.49 43.4499 134.07 42.8199 134.05 41.5099C134.03 40.2099 134.45 39.5699 135.31 39.6099C137.33 39.6899 139.36 39.7499 141.41 39.7899C143.46 39.8299 145.5 39.8499 147.51 39.8499C149.52 39.8499 151.55 39.8299 153.58 39.7899C155.61 39.7499 157.64 39.6899 159.65 39.6099C160.51 39.5699 160.94 40.1999 160.94 41.5099ZM139.16 24.2799C139.12 24.9699 139.1 25.5499 139.1 26.0299V27.6899C139.1 28.3199 139.17 28.7199 139.32 28.8799C139.51 29.0399 140.47 29.1199 142.2 29.1199H147.38C149.13 29.1199 151.16 29.0999 153.45 29.0599C155.75 29.0199 157.36 28.9599 158.29 28.8799C159.15 28.7999 159.58 29.4299 159.58 30.7799C159.58 32.1299 159.15 32.7599 158.29 32.6799C157.36 32.5999 155.83 32.5399 153.7 32.4999C151.57 32.4599 149.46 32.4399 147.37 32.4399C145.28 32.4399 143.45 32.4699 141.77 32.5299C140.09 32.5899 138.74 32.6599 137.7 32.7399C136.93 32.7799 136.29 32.5999 135.79 32.1899C135.29 31.7799 135.12 30.9999 135.27 29.8499C135.34 29.2099 135.41 28.5599 135.47 27.9099C135.53 27.2599 135.55 26.6399 135.55 26.0399C135.55 25.4099 135.52 24.7899 135.47 24.1699C135.41 23.5599 135.35 22.9399 135.27 22.2999C135.19 21.3899 135.88 20.9399 137.31 20.9399C138.74 20.9399 139.41 21.3899 139.3 22.2999C139.22 22.9299 139.17 23.5899 139.13 24.2899L139.16 24.2799Z" fill="#F4F4F4" stroke="#231815" stroke-linecap="round" stroke-linejoin="round"/>
<path d="M173.54 24.76C172.72 24.7 171.94 24.67 171.19 24.67C170.44 24.67 169.65 24.68 168.81 24.7C167.97 24.72 167.46 24.81 167.27 24.98C167.16 25.27 167.1 25.59 167.1 25.94C167.1 26.29 167.14 26.67 167.21 27.09C167.81 27.17 168.51 27.25 169.31 27.31C170.11 27.37 170.85 27.4 171.52 27.4C172.23 27.4 172.95 27.37 173.68 27.31C174.41 27.25 175.13 27.18 175.84 27.1C176.7 26.98 177.13 27.62 177.13 29.03C177.13 30.44 176.7 31.1 175.84 31.02C175.09 30.94 174.36 30.87 173.66 30.81C172.95 30.75 172.18 30.72 171.36 30.72C170.54 30.72 169.77 30.75 169.06 30.81C168.35 30.87 167.73 30.91 167.21 30.95C167.13 31.33 167.09 31.74 167.07 32.18C167.05 32.62 167.12 33.06 167.27 33.52C167.46 33.67 167.95 33.76 168.75 33.78C169.55 33.8 170.33 33.81 171.07 33.81C171.81 33.81 172.63 33.78 173.51 33.72C174.39 33.66 175.29 33.59 176.23 33.51C177.09 33.43 177.52 34.08 177.52 35.47C177.52 36.86 177.09 37.51 176.23 37.43C175.3 37.35 174.45 37.28 173.68 37.22C172.91 37.16 172.05 37.13 171.08 37.13C170.11 37.13 169.23 37.16 168.34 37.22C167.44 37.28 166.57 37.35 165.73 37.43C164.96 37.51 164.33 37.35 163.85 36.96C163.37 36.57 163.19 35.86 163.3 34.84C163.37 34.02 163.44 33.13 163.5 32.19C163.56 31.25 163.58 30.33 163.58 29.42C163.58 28.51 163.55 27.54 163.5 26.48C163.44 25.42 163.38 24.48 163.3 23.65C163.22 22.71 163.43 22.02 163.91 21.59C164.39 21.16 165.09 21 166.01 21.12C166.71 21.2 167.53 21.26 168.48 21.3C169.43 21.34 170.34 21.36 171.2 21.36C172.06 21.36 172.85 21.33 173.58 21.27C174.31 21.21 175.19 21.14 176.24 21.06C177.1 20.98 177.53 21.63 177.53 23.02C177.53 24.41 177.1 25.06 176.24 24.98C175.27 24.9 174.37 24.83 173.55 24.77L173.54 24.76ZM184.43 19.51C185.79 19.51 186.46 19.96 186.42 20.87C186.35 22.69 186.29 24.54 186.25 26.41C186.21 28.29 186.19 30.16 186.19 32.01C186.19 33.86 186.21 35.69 186.25 37.58C186.29 39.48 186.34 41.35 186.42 43.21C186.46 44.08 185.8 44.51 184.43 44.51C183.06 44.51 182.4 44.07 182.44 43.21C182.51 41.35 182.57 39.48 182.61 37.58C182.65 35.68 182.66 33.83 182.66 32.01C182.66 30.19 182.64 28.29 182.61 26.41C182.57 24.53 182.52 22.69 182.44 20.87C182.4 19.96 183.06 19.51 184.43 19.51Z" fill="#F4F4F4" stroke="#231815" stroke-linecap="round" stroke-linejoin="round"/>
<path d="M195.77 25.62C195.73 27.04 195.71 28.03 195.71 28.58V31.34C195.71 32.63 195.78 33.35 195.93 33.5C196.12 33.66 196.61 33.75 197.41 33.77C198.21 33.79 198.99 33.8 199.73 33.8C200.47 33.8 201.55 33.77 202.95 33.71C204.35 33.65 205.52 33.58 206.45 33.5C207.31 33.42 207.74 34.07 207.74 35.46C207.74 36.85 207.31 37.5 206.45 37.42C205.52 37.34 204.41 37.27 203.12 37.21C201.83 37.15 200.7 37.12 199.73 37.12C198.76 37.12 197.88 37.15 196.99 37.21C196.09 37.27 195.22 37.34 194.36 37.42C193.58 37.5 192.94 37.34 192.46 36.94C191.97 36.54 191.79 35.82 191.9 34.77C191.97 33.93 192.04 32.91 192.1 31.73C192.16 30.54 192.18 29.5 192.18 28.59C192.18 27.68 192.15 26.55 192.1 25.21C192.04 23.87 191.98 22.78 191.9 21.95C191.82 21 192.5 20.54 193.92 20.56C195.34 20.58 196.01 21.04 195.94 21.95C195.86 22.98 195.81 24.2 195.77 25.63V25.62ZM214.92 23.75C214.88 24.6 214.86 25.36 214.86 26.03C214.86 26.31 215.14 26.44 215.7 26.42C216.26 26.4 216.74 26.33 217.16 26.21C218.02 25.97 218.44 26.52 218.42 27.84C218.4 29.16 217.98 29.73 217.16 29.53C216.71 29.41 216.22 29.33 215.68 29.29C215.14 29.25 214.87 29.37 214.87 29.65C214.87 31.94 214.89 34.21 214.93 36.44C214.97 38.67 215.02 40.94 215.1 43.23C215.14 44.1 214.47 44.53 213.11 44.53C211.75 44.53 211.08 44.09 211.12 43.23C211.19 41.45 211.25 39.58 211.29 37.6C211.33 35.62 211.35 33.75 211.35 31.97C211.35 30.19 211.33 28.34 211.29 26.43C211.25 24.51 211.2 22.67 211.12 20.89C211.08 19.98 211.75 19.53 213.14 19.53C214.53 19.53 215.17 19.98 215.1 20.89C215.02 21.96 214.97 22.92 214.93 23.77L214.92 23.75Z" fill="#F4F4F4" stroke="#231815" stroke-linecap="round" stroke-linejoin="round"/>
<path d="M247.05 33.4699C247.05 34.7499 246.62 35.3799 245.76 35.3399C244.04 35.2599 242.32 35.2099 240.58 35.1899C238.84 35.1699 237.1 35.1599 235.35 35.1599C235.35 36.4999 235.37 37.8999 235.41 39.3399C235.45 40.7799 235.5 42.1799 235.58 43.5199C235.65 44.3899 234.98 44.8199 233.56 44.8199C232.14 44.8199 231.45 44.3799 231.49 43.5199C231.56 42.1799 231.63 40.7799 231.69 39.3399C231.75 37.8999 231.74 36.4999 231.66 35.1599C229.94 35.1599 228.21 35.1799 226.45 35.2199C224.7 35.2599 222.96 35.3199 221.24 35.3999C220.42 35.4399 220.01 34.8099 220.01 33.4999C220.01 32.1899 220.42 31.5599 221.24 31.5999C223.26 31.6799 225.3 31.7399 227.37 31.7799C229.44 31.8199 231.49 31.8399 233.5 31.8399C235.51 31.8399 237.56 31.8199 239.63 31.7799C241.7 31.7399 243.75 31.6799 245.76 31.5999C246.62 31.5599 247.05 32.1799 247.05 33.4699ZM245.18 21.4699C245.64 21.8699 245.78 22.4399 245.6 23.1899C245.45 23.7799 245.38 24.4799 245.38 25.2899C245.38 26.0999 245.45 26.8399 245.6 27.5099C245.79 28.2599 245.65 28.8899 245.18 29.4099C244.72 29.9199 244.04 30.1199 243.16 29.9999C242.46 29.9199 240.95 29.8599 238.62 29.8199C236.3 29.7799 234.62 29.7599 233.58 29.7599C232.54 29.7599 230.82 29.7799 228.41 29.8199C225.99 29.8599 224.45 29.9199 223.79 29.9999C222.98 30.1199 222.33 29.9399 221.85 29.4699C221.37 28.9999 221.24 28.2799 221.46 27.3399C221.61 26.7499 221.68 26.0699 221.68 25.2899C221.68 24.5099 221.6 23.8199 221.46 23.1899C221.31 22.5599 221.46 21.9999 221.9 21.5299C222.34 21.0599 222.97 20.8799 223.78 20.9999C224.44 21.0799 225.86 21.1399 228.04 21.1799C230.22 21.2199 232.06 21.2399 233.57 21.2399C235.08 21.2399 236.93 21.2199 239.1 21.1799C241.28 21.1399 242.71 21.0799 243.42 20.9999C244.12 20.9199 244.7 21.0799 245.17 21.4699H245.18ZM225.22 25.8599C225.22 26.3699 225.24 26.7499 225.28 26.9899C226.41 27.1099 229.14 27.1599 233.48 27.1399C237.82 27.1199 240.57 27.0499 241.74 26.9299C241.82 26.7299 241.85 26.3699 241.85 25.8299C241.85 25.2899 241.79 24.9099 241.68 24.6699C240.74 24.5899 238.07 24.5499 233.68 24.5499C229.29 24.5499 226.48 24.5899 225.28 24.6699C225.24 24.9499 225.22 25.3399 225.22 25.8599Z" fill="#F4F4F4" stroke="#231815" stroke-linecap="round" stroke-linejoin="round"/>
<path d="M166.27 155.62C164.2 155.62 161 173.64 150.2 168.43C139.4 163.22 155.29 130.94 151.96 134.77C148.63 138.6 141.47 143.43 137.39 143.06C135.29 142.87 131.05 139.86 137.39 128.49C144.65 115.47 155.98 111.54 155.98 111.54H176.58C176.58 111.54 187.9 115.48 195.17 128.49C201.51 139.85 197.27 142.86 195.17 143.06C191.09 143.44 183.93 138.6 180.6 134.77C177.27 130.94 193.16 163.21 182.36 168.43C171.56 173.64 168.36 155.62 166.29 155.62" fill="#F4F4F4"/>
<path d="M166.27 155.62C164.2 155.62 161 173.64 150.2 168.43C139.4 163.22 155.29 130.94 151.96 134.77C148.63 138.6 141.47 143.43 137.39 143.06C135.29 142.87 131.05 139.86 137.39 128.49C144.65 115.47 155.98 111.54 155.98 111.54H176.58C176.58 111.54 187.9 115.48 195.17 128.49C201.51 139.85 197.27 142.86 195.17 143.06C191.09 143.44 183.93 138.6 180.6 134.77C177.27 130.94 193.16 163.21 182.36 168.43C171.56 173.64 168.36 155.62 166.29 155.62" stroke="#231815" stroke-linecap="round" stroke-linejoin="round"/>
<circle cx="156.12" cy="121.06" r="0.5" fill="#231815"/>
<path d="M182.34 168.43C171.54 173.64 168.34 155.62 166.26 155.62C164.18 155.62 160.99 173.64 150.18 168.43C143.89 165.4 146.65 153.19 149.39 144.28C154.52 143.59 173.29 141.42 183.39 145.19C186.04 154 188.41 165.5 182.33 168.44L182.34 168.43Z" fill="#F9EBC0" stroke="#231815" stroke-linecap="round" stroke-linejoin="round"/>
<path d="M190.02 141.8C186.52 140.17 182.75 137.26 180.59 134.77C179.13 133.09 181.35 138.32 183.41 145.18C173.31 141.42 154.54 143.58 149.41 144.27C151.38 137.87 153.35 133.17 151.96 134.77C150.14 136.87 147.16 139.27 144.17 140.95C142.75 134.88 137.39 132.2 135.84 131.55C136.27 130.61 136.78 129.59 137.39 128.49C144.65 115.47 155.98 111.54 155.98 111.54H176.57C176.57 111.54 187.89 115.48 195.16 128.49C195.99 129.97 196.63 131.32 197.13 132.52C190.47 136.21 190.03 141.6 190.03 141.79L190.02 141.8Z" fill="#2E684D" stroke="#231815" stroke-linecap="round" stroke-linejoin="round"/>
<path d="M156.68 120.67C156.07 120.79 155.55 120.91 155.12 121.02L153.25 112.79C153.79 112.5 154.27 112.27 154.67 112.08L156.68 120.66V120.67Z" fill="#754107" stroke="#231815" stroke-linecap="round" stroke-linejoin="round"/>
<path d="M179.58 112.94L178.19 122.33C177.67 122.12 177.16 121.93 176.64 121.75L178.27 112.28C178.65 112.46 179.09 112.68 179.58 112.94Z" fill="#754107" stroke="#231815" stroke-linecap="round" stroke-linejoin="round"/>
<path d="M153.65 121.43C153.65 121.43 166.35 117.14 179.05 122.68L188.53 160.6L143.99 159.88L153.65 121.42V121.43Z" fill="#754107" stroke="#231815" stroke-linecap="round" stroke-linejoin="round"/>
<path d="M166.27 117.06C176.57 117.06 184.92 108.71 184.92 98.41C184.92 88.1099 176.57 79.76 166.27 79.76C155.97 79.76 147.62 88.1099 147.62 98.41C147.62 108.71 155.97 117.06 166.27 117.06Z" fill="#F4F4F4" stroke="#231815" stroke-linecap="round" stroke-linejoin="round"/>
<path d="M149.53 87.86C149.53 87.86 142.9 63.45 175.9 75.36C194.04 81.9 185.31 92.62 185.31 92.62" fill="#754107"/>
<path d="M149.53 87.86C149.53 87.86 142.9 63.45 175.9 75.36C194.04 81.9 185.31 92.62 185.31 92.62" stroke="#231815" stroke-linecap="round" stroke-linejoin="round"/>
<path d="M149.53 90.18C149.53 90.18 174.24 87.97 184.46 94.28L185.31 92.62C185.31 92.62 172 83.33 149.53 87.85V90.17V90.18Z" fill="#754107" stroke="#231815" stroke-linecap="round" stroke-linejoin="round"/>
<path d="M158.64 100.67C159.391 100.67 160 100.061 160 99.3102C160 98.5591 159.391 97.9502 158.64 97.9502C157.889 97.9502 157.28 98.5591 157.28 99.3102C157.28 100.061 157.889 100.67 158.64 100.67Z" fill="#231815" stroke="#231815" stroke-linecap="round" stroke-linejoin="round"/>
<path d="M173.9 100.67C174.651 100.67 175.26 100.061 175.26 99.3102C175.26 98.5591 174.651 97.9502 173.9 97.9502C173.149 97.9502 172.54 98.5591 172.54 99.3102C172.54 100.061 173.149 100.67 173.9 100.67Z" fill="#231815" stroke="#231815" stroke-linecap="round" stroke-linejoin="round"/>
<path d="M168.95 108.28C168.95 109.9 167.75 111.21 166.27 111.21C164.79 111.21 163.59 109.9 163.59 108.28C163.59 106.66 164.79 107.32 166.27 107.32C167.75 107.32 168.95 106.66 168.95 108.28Z" fill="#231815" stroke="#231815" stroke-linecap="round" stroke-linejoin="round"/>
<path d="M156.24 96.9101C156.24 96.9101 157.28 95.1901 158.92 95.9601" stroke="#231815" stroke-linecap="round" stroke-linejoin="round"/>
<path d="M176.3 96.9101C176.3 96.9101 175.26 95.1901 173.62 95.9601" stroke="#231815" stroke-linecap="round" stroke-linejoin="round"/>
</g>
<defs>
<clipPath id="clip0_206_332">
<rect width="350" height="570" fill="white"/>
</clipPath>
</defs>
</svg>
