<svg width="350" height="570" viewBox="0 0 350 570" fill="none" preserveAspectRatio="none" xmlns="http://www.w3.org/2000/svg">
<g clip-path="url(#clip0_188_16699)">
<path d="M352.55 289.19C350.33 289.19 347.83 289.49 345.61 289.22C343.62 288.97 341.74 287.61 339.72 287.38C338.51 287.24 337.12 287.34 335.91 287.38C333.75 287.43 331.75 288.51 329.55 288.69C324.87 289.06 320.26 289.2 315.52 289.2C310.46 289.2 305.4 289.24 300.34 289.2C296.24 289.17 292.37 290.35 288.3 290.52C286.35 290.6 284.78 290.75 282.88 291.25C279.94 292.03 277.01 292.4 273.97 292.35C272.17 292.32 270.38 292.33 268.58 292.33C266.7 292.33 264.54 292.02 262.69 292.42C260.73 292.85 258.71 293.4 256.75 293.9C254.79 294.4 252.95 294.91 250.99 295.01C250.55 295.03 249.88 294.95 249.43 295.06C247.62 295.49 246.11 296.92 244.31 297.44C242.98 297.83 241.6 297.77 240.24 298.12C236.29 299.15 232.32 299.52 228.23 299.53C226.25 299.53 224.11 299.69 222.15 299.48C219.32 299.17 216.74 298.06 214.25 296.76C213.29 296.25 212.48 296.37 211.41 296.38C209.69 296.4 208.06 296.21 206.37 295.98C202.33 295.43 198.18 294.34 194.11 294.15C190.93 294 187.56 293.85 184.41 294.35C181.82 294.76 177.59 295.37 175.45 293.38C174.34 292.35 173.65 291.76 172.17 291.21C170.44 290.57 168.81 290.09 166.94 290.07C164.87 290.04 162.79 290.11 160.72 290.09C156.94 290.07 153.18 290.55 149.44 290.98C147.61 291.19 145.98 291.52 144.1 291.42C142.84 291.36 141.03 289.64 139.78 289.64H-8.40967V37.8301H364.15L352.55 289.18V289.19Z" fill="#FFD2EC"/>
<path d="M350 289.63H0V472.03H350V289.63Z" fill="#F4F4F4"/>
<path d="M350.41 471.96H0.410156V569.94H350.41V471.96Z" fill="#FFD2EC"/>
<path d="M350 28.4399H0V289.63H350V28.4399Z" fill="#FFD2EC"/>
<path d="M350 0H0V45.73H350V0Z" fill="#F99DCD"/>
<path d="M-8.40967 45.73H360.94" stroke="#231815" stroke-linecap="round" stroke-linejoin="round"/>
<path d="M283.04 596.18C275.72 591.96 272.94 582.12 275.19 573.98C277.44 565.84 283.77 559.35 290.94 554.89C298.11 550.43 306.18 547.67 314.02 544.51C335.46 535.84 355.4 523.91 375.24 512.03L378.16 587.27L283.04 596.18Z" fill="#AEED94"/>
<path d="M283.04 596.18C275.72 591.96 272.94 582.12 275.19 573.98C277.44 565.84 283.77 559.35 290.94 554.89C298.11 550.43 306.18 547.67 314.02 544.51C335.46 535.84 355.4 523.91 375.24 512.03" stroke="#231815" stroke-linecap="round" stroke-linejoin="round"/>
<path d="M-5.6001 312.43H121.17" stroke="#231815" stroke-linecap="round" stroke-linejoin="round"/>
<path d="M-5.6001 335.23H121.17" stroke="#231815" stroke-linecap="round" stroke-linejoin="round"/>
<path d="M-5.6001 358.03H121.17" stroke="#231815" stroke-linecap="round" stroke-linejoin="round"/>
<path d="M-5.6001 380.83H121.17" stroke="#231815" stroke-linecap="round" stroke-linejoin="round"/>
<path d="M-5.6001 403.62H121.17" stroke="#231815" stroke-linecap="round" stroke-linejoin="round"/>
<path d="M-5.6001 426.42H121.17" stroke="#231815" stroke-linecap="round" stroke-linejoin="round"/>
<path d="M-5.6001 449.22H121.17" stroke="#231815" stroke-linecap="round" stroke-linejoin="round"/>
<path d="M121.17 289.63V472.03" stroke="#231815" stroke-linecap="round" stroke-linejoin="round"/>
<path d="M139.79 289.54H-6.8999V304.75H139.79V289.54Z" fill="#FFD2EC" stroke="#F49FD3" stroke-linecap="round" stroke-linejoin="round"/>
<path d="M132.36 297.14H-14.3301V312.35H132.36V297.14Z" fill="#FFD2EC" stroke="#F49FD3" stroke-linecap="round" stroke-linejoin="round"/>
<path d="M139.79 289.54L132.35 297.14H-14.3301L-6.90008 289.54H139.79Z" fill="#FFD2EC" stroke="#F49FD3" stroke-linecap="round" stroke-linejoin="round"/>
<path d="M132.35 297.14V312.35L139.79 304.74" fill="#FFD2EC"/>
<path d="M132.35 297.14V312.35L139.79 304.74" stroke="#F49FD3" stroke-linecap="round" stroke-linejoin="round"/>
<path d="M132.36 312.35H-14.3301V327.56H132.36V312.35Z" fill="#FFD2EC" stroke="#F49FD3" stroke-linecap="round" stroke-linejoin="round"/>
<path d="M124.92 319.95H-21.77V335.16H124.92V319.95Z" fill="#FFD2EC" stroke="#F49FD3" stroke-linecap="round" stroke-linejoin="round"/>
<path d="M132.35 312.35L124.91 319.95H-21.77L-14.33 312.35H132.35Z" fill="#FFD2EC" stroke="#F49FD3" stroke-linecap="round" stroke-linejoin="round"/>
<path d="M124.91 319.95V335.16L132.35 327.56" fill="#FFD2EC"/>
<path d="M124.91 319.95V335.16L132.35 327.56" stroke="#F49FD3" stroke-linecap="round" stroke-linejoin="round"/>
<path d="M124.92 335.16H-21.77V350.37H124.92V335.16Z" fill="#FFD2EC" stroke="#F49FD3" stroke-linecap="round" stroke-linejoin="round"/>
<path d="M117.48 342.76H-29.21V357.97H117.48V342.76Z" fill="#FFD2EC" stroke="#F49FD3" stroke-linecap="round" stroke-linejoin="round"/>
<path d="M124.91 335.16L117.48 342.76H-29.21L-21.77 335.16H124.91Z" fill="#FFD2EC" stroke="#F49FD3" stroke-linecap="round" stroke-linejoin="round"/>
<path d="M117.48 342.76V357.97L124.91 350.37" fill="#FFD2EC"/>
<path d="M117.48 342.76V357.97L124.91 350.37" stroke="#F49FD3" stroke-linecap="round" stroke-linejoin="round"/>
<path d="M117.48 357.97H-29.21V373.18H117.48V357.97Z" fill="#FFD2EC" stroke="#F49FD3" stroke-linecap="round" stroke-linejoin="round"/>
<path d="M110.04 365.57H-36.6499V380.78H110.04V365.57Z" fill="#FFD2EC" stroke="#F49FD3" stroke-linecap="round" stroke-linejoin="round"/>
<path d="M117.48 357.97L110.04 365.57H-36.6499L-29.2099 357.97H117.48Z" fill="#FFD2EC" stroke="#F49FD3" stroke-linecap="round" stroke-linejoin="round"/>
<path d="M110.04 365.57V380.78L117.48 373.18" fill="#FFD2EC"/>
<path d="M110.04 365.57V380.78L117.48 373.18" stroke="#F49FD3" stroke-linecap="round" stroke-linejoin="round"/>
<path d="M110.04 380.78H-36.6499V395.99H110.04V380.78Z" fill="#FFD2EC" stroke="#F49FD3" stroke-linecap="round" stroke-linejoin="round"/>
<path d="M102.61 388.39H-44.0801V403.6H102.61V388.39Z" fill="#FFD2EC" stroke="#F49FD3" stroke-linecap="round" stroke-linejoin="round"/>
<path d="M110.04 380.78L102.6 388.39H-44.0801L-36.6501 380.78H110.04Z" fill="#FFD2EC" stroke="#F49FD3" stroke-linecap="round" stroke-linejoin="round"/>
<path d="M102.6 388.39V403.59L110.04 395.99" fill="#FFD2EC"/>
<path d="M102.6 388.39V403.59L110.04 395.99" stroke="#F49FD3" stroke-linecap="round" stroke-linejoin="round"/>
<path d="M102.61 403.59H-44.0801V418.8H102.61V403.59Z" fill="#FFD2EC" stroke="#F49FD3" stroke-linecap="round" stroke-linejoin="round"/>
<path d="M95.17 411.2H-51.52V426.41H95.17V411.2Z" fill="#FFD2EC" stroke="#F49FD3" stroke-linecap="round" stroke-linejoin="round"/>
<path d="M102.6 403.59L95.16 411.2H-51.52L-44.08 403.59H102.6Z" fill="#FFD2EC" stroke="#F49FD3" stroke-linecap="round" stroke-linejoin="round"/>
<path d="M95.1602 411.2V426.4L102.6 418.8" fill="#FFD2EC"/>
<path d="M95.1602 411.2V426.4L102.6 418.8" stroke="#F49FD3" stroke-linecap="round" stroke-linejoin="round"/>
<path d="M95.17 426.4H-51.52V441.61H95.17V426.4Z" fill="#FFD2EC" stroke="#F49FD3" stroke-linecap="round" stroke-linejoin="round"/>
<path d="M87.73 434.01H-58.96V449.22H87.73V434.01Z" fill="#FFD2EC" stroke="#F49FD3" stroke-linecap="round" stroke-linejoin="round"/>
<path d="M95.16 426.4L87.73 434.01H-58.96L-51.52 426.4H95.16Z" fill="#FFD2EC" stroke="#F49FD3" stroke-linecap="round" stroke-linejoin="round"/>
<path d="M87.73 434.01V449.21L95.16 441.61" fill="#FFD2EC"/>
<path d="M87.73 434.01V449.21L95.16 441.61" stroke="#F49FD3" stroke-linecap="round" stroke-linejoin="round"/>
<path d="M87.73 449.21H-58.96V464.42H87.73V449.21Z" fill="#FFD2EC" stroke="#F49FD3" stroke-linecap="round" stroke-linejoin="round"/>
<path d="M80.2901 456.82H-66.3999V472.03H80.2901V456.82Z" fill="#FFD2EC" stroke="#F49FD3" stroke-linecap="round" stroke-linejoin="round"/>
<path d="M87.7301 449.21L80.2901 456.82H-66.3999L-58.9599 449.21H87.7301Z" fill="#FFD2EC" stroke="#F49FD3" stroke-linecap="round" stroke-linejoin="round"/>
<path d="M87.73 464.42L85.6 466.6L80.29 472.03V456.82" fill="#FFD2EC"/>
<path d="M87.73 464.42L85.6 466.6L80.29 472.03V456.82" stroke="#F49FD3" stroke-linecap="round" stroke-linejoin="round"/>
<path d="M111.88 440.49L80.1299 472.03V456.66L87.5799 449.21V433.86L95.0399 426.4V411.07L102.52 403.59V388.3L110.04 380.78V365.57L117.33 357.97V342.62L124.79 335.16V319.83L132.27 312.35V297.06L139.79 289.54V403.59" fill="#F49FD3"/>
<path d="M111.88 440.49L80.1299 472.03V456.66L87.5799 449.21V433.86L95.0399 426.4V411.07L102.52 403.59V388.3L110.04 380.78V365.57L117.33 357.97V342.62L124.79 335.16V319.83L132.27 312.35V297.06L139.79 289.54V403.59" stroke="#F49FD3" stroke-linecap="round" stroke-linejoin="round"/>
<path d="M360.94 472.03H81.8901C81.9301 471.37 82.3601 471.21 82.7401 470.71C83.0501 470.31 83.3701 469.59 83.6301 469.13C83.9601 468.57 83.9601 467.93 84.2401 467.4C84.6101 466.7 85.3301 466.19 85.7401 465.5C86.5101 464.23 87.2501 463.22 88.1601 462.07C88.8401 461.2 89.6501 460.57 90.3801 459.76C91.8401 458.13 92.4701 455.53 93.4501 453.68C93.7201 453.17 94.0801 452.89 94.3401 452.41C94.6301 451.9 94.5501 451.13 94.8701 450.57C95.4601 449.55 96.1001 448.65 96.5401 447.53C97.1801 445.9 97.9901 444.43 98.6601 442.82C99.0501 441.88 99.0501 440.92 99.5001 439.99C99.9701 439 100.82 437.69 101.52 436.87C102.22 436.05 102.65 435.23 103.28 434.37C104.06 433.29 104.92 432.46 105.89 431.56C107.49 430.08 108.15 428.62 108.98 426.68C109.45 425.59 110.21 424.66 110.7 423.58C111.27 422.3 111.51 420.9 112.12 419.63C112.8 418.23 113.65 416.92 114.33 415.52C115.83 412.42 116.78 408.95 116.87 405.5C116.98 401.58 116.37 397.45 116.93 393.56C117.09 392.46 117.44 391.2 117.73 390.14C118.02 389.08 118.44 388.26 118.85 387.19C119.42 385.71 119.59 384.37 120.37 382.93C121.07 381.65 121.77 380.57 122.07 379.12C123.21 373.68 123.47 368.18 123.47 362.66C123.47 359.73 123.04 356.46 123.56 353.56C124.17 350.17 128.23 348.13 127.47 344.2C127.13 342.47 126.05 341.08 125.66 339.4C125.32 337.95 125.54 335.23 126.33 334.02C126.92 333.12 127.75 332.94 128.42 332.36C129.39 331.54 130.07 329.69 129.76 328.65C129.52 327.83 128.99 326.78 129.23 325.92C129.57 324.73 131.12 324.51 131.94 323.82C133.29 322.7 133.98 322 134.49 320.37C134.76 319.51 134.85 318.97 135.02 318.07C135.19 317.17 135.77 316.38 135.85 315.47C135.96 314.29 136.05 313.75 136.57 312.7C137.16 311.5 138.01 309.93 138.08 308.58C138.11 308.06 138.04 307.71 138.12 307.22C138.17 306.92 138.51 306.17 138.57 305.76C138.77 304.42 138.93 303.21 138.9 301.86C138.88 300.9 139.06 300.66 139.24 299.86C139.46 298.9 139.34 297.89 139.34 296.91C139.34 295.19 138.79 291.04 139.78 289.61C141.03 289.61 142.84 291.32 144.1 291.39C145.98 291.49 147.61 291.16 149.44 290.95C153.18 290.52 156.93 290.03 160.72 290.06C162.79 290.07 164.87 290.01 166.94 290.04C168.81 290.07 170.44 290.54 172.17 291.18C173.65 291.73 174.34 292.32 175.45 293.35C177.59 295.34 181.82 294.73 184.41 294.32C187.56 293.82 190.93 293.97 194.11 294.12C198.17 294.31 202.33 295.4 206.37 295.95C208.06 296.18 209.7 296.38 211.41 296.35C212.48 296.33 213.29 296.22 214.25 296.73C216.74 298.03 219.31 299.14 222.15 299.45C224.11 299.67 226.26 299.51 228.23 299.5C232.33 299.49 236.29 299.12 240.24 298.09C241.6 297.74 242.98 297.8 244.31 297.41C246.11 296.88 247.62 295.46 249.43 295.03C249.88 294.92 250.54 295 250.99 294.98C252.96 294.88 254.85 294.35 256.75 293.87C258.65 293.39 260.73 292.82 262.69 292.39C264.54 291.98 266.7 292.3 268.58 292.3C270.46 292.3 272.17 292.29 273.97 292.32C277.01 292.37 279.94 292 282.88 291.22C284.78 290.71 286.35 290.57 288.3 290.49C292.37 290.32 296.24 289.13 300.34 289.17C305.4 289.21 310.46 289.17 315.52 289.17C320.25 289.17 324.87 289.03 329.55 288.66C331.74 288.48 333.75 287.4 335.91 287.35C337.13 287.32 338.52 287.22 339.72 287.35C341.73 287.58 343.62 288.94 345.61 289.19C347.82 289.47 350.33 289.16 352.55 289.16L360.94 472V472.03Z" fill="#CE67AC"/>
<path d="M352.55 289.19C350.33 289.19 347.83 289.49 345.61 289.22C343.62 288.97 341.74 287.61 339.72 287.38C338.51 287.24 337.12 287.34 335.91 287.38C333.75 287.43 331.75 288.51 329.55 288.69C324.87 289.06 320.26 289.2 315.52 289.2C310.46 289.2 305.4 289.24 300.34 289.2C296.24 289.17 292.37 290.35 288.3 290.52C286.35 290.6 284.78 290.75 282.88 291.25C279.94 292.03 277.01 292.4 273.97 292.35C272.17 292.32 270.38 292.33 268.58 292.33C266.7 292.33 264.54 292.02 262.69 292.42C260.73 292.85 258.71 293.4 256.75 293.9C254.79 294.4 252.95 294.91 250.99 295.01C250.55 295.03 249.88 294.95 249.43 295.06C247.62 295.49 246.11 296.92 244.31 297.44C242.98 297.83 241.6 297.77 240.24 298.12C236.29 299.15 232.32 299.52 228.23 299.53C226.25 299.53 224.11 299.69 222.15 299.48C219.32 299.17 216.74 298.06 214.25 296.76C213.29 296.25 212.48 296.37 211.41 296.38C209.69 296.4 208.06 296.21 206.37 295.98C202.33 295.43 198.18 294.34 194.11 294.15C190.93 294 187.56 293.85 184.41 294.35C181.82 294.76 177.59 295.37 175.45 293.38C174.34 292.35 173.65 291.76 172.17 291.21C170.44 290.57 168.81 290.09 166.94 290.07C164.87 290.04 162.79 290.11 160.72 290.09C156.94 290.07 153.18 290.55 149.44 290.98C147.61 291.19 145.98 291.52 144.1 291.42C142.84 291.36 141.03 289.64 139.78 289.64H-8.41002L-21.77 46.3799H382.09L352.55 289.19Z" fill="#FFD2EC"/>
<path d="M352.55 289.19C350.33 289.19 347.83 289.49 345.61 289.22C343.62 288.97 341.74 287.61 339.72 287.38C338.51 287.24 337.12 287.34 335.91 287.38C333.75 287.43 331.75 288.51 329.55 288.69C324.87 289.06 320.26 289.2 315.52 289.2C310.46 289.2 305.4 289.24 300.34 289.2C296.24 289.17 292.37 290.35 288.3 290.52C286.35 290.6 284.78 290.75 282.88 291.25C279.94 292.03 277.01 292.4 273.97 292.35C272.17 292.32 270.38 292.33 268.58 292.33C266.7 292.33 264.54 292.02 262.69 292.42C260.73 292.85 258.71 293.4 256.75 293.9C254.79 294.4 252.95 294.91 250.99 295.01C250.55 295.03 249.88 294.95 249.43 295.06C247.62 295.49 246.11 296.92 244.31 297.44C242.98 297.83 241.6 297.77 240.24 298.12C236.29 299.15 232.32 299.52 228.23 299.53C226.25 299.53 224.11 299.69 222.15 299.48C219.32 299.17 216.74 298.06 214.25 296.76C213.29 296.25 212.48 296.37 211.41 296.38C209.69 296.4 208.06 296.21 206.37 295.98C202.33 295.43 198.18 294.34 194.11 294.15C190.93 294 187.56 293.85 184.41 294.35C181.82 294.76 177.59 295.37 175.45 293.38C174.34 292.35 173.65 291.76 172.17 291.21C170.44 290.57 168.81 290.09 166.94 290.07C164.87 290.04 162.79 290.11 160.72 290.09C156.94 290.07 153.18 290.55 149.44 290.98C147.61 291.19 145.98 291.52 144.1 291.42C142.84 291.36 141.03 289.64 139.78 289.64H-8.40967" stroke="#231815" stroke-linecap="round" stroke-linejoin="round"/>
<path d="M-8.40967 472.03H360.94" stroke="#231815" stroke-linecap="round" stroke-linejoin="round"/>
<path d="M184.74 320.76C184.8 320.04 184.33 319.77 184.01 319.21C183.22 317.8 183.53 315.91 184.11 314.49C186.3 309.14 191.32 305.02 196.81 303.5C196.73 310.82 202.12 318.44 207.77 322.81C209.87 324.44 212.21 325.76 214.35 327.35C218.5 330.44 222.63 333.25 227.83 334.19C230.54 334.68 229.59 334.48 230.77 336.71C232.38 339.76 233.82 342.89 235.6 345.85C236.88 348 238.8 350.18 239.01 352.76C239.2 355.15 238.09 357.57 238.42 359.96C241.83 360.63 245.36 357.56 247.8 355.61C250 353.85 254.42 349.22 251.87 346.17C248.49 342.12 242.65 341.4 240.39 336.24C238.65 332.28 236.42 327.75 239.42 323.92C240.6 322.41 242.05 321.11 243.43 319.79C244.43 318.84 245.83 317.82 246.05 316.36C246.17 315.56 245.81 314.62 245.67 313.85C245.28 311.75 244.87 309.64 244.89 307.49C244.89 306.46 244.79 304.15 245.68 303.48C246.23 303.06 246.62 303.22 247.29 303.2C248.62 303.17 249.8 302.77 250.94 303.83L252.59 306.5C253.5 308.65 254.37 310.83 255.19 313.02C257.4 318.79 259.52 324.76 262.15 330.33C264.06 334.38 265.98 338.29 269.01 341.65C270.6 343.42 273.38 345.88 275.8 344.63C278.4 343.28 280.31 340.48 282.57 338.6C284.05 337.37 286.98 336.08 288.18 334.47C289.22 333.06 288.68 329.47 288.66 327.87C288.61 323.69 288.29 319.55 287.89 315.39C287.7 313.37 286.91 310.5 288.18 308.67C288.88 307.65 289.97 307.04 291.03 306.7C294.61 305.54 298.33 305.2 301.86 303.77C303.26 303.2 304.26 302.69 305.78 302.69C310.52 302.7 316 301.62 320.48 300.78C325.93 299.77 331.34 298.7 336.57 296.84C336.46 296.66 336.33 298.84 336.33 298.9C336.21 300.63 336.61 302.45 336.75 304.18C337.4 312.31 339.25 321.94 344.05 328.81C345.43 330.79 347.14 332.52 348.72 334.33C350.68 336.57 352.48 338.93 354.43 341.17C356.38 343.41 358.39 345.72 358.32 348.74C358.25 351.76 356.08 353.94 355.37 356.67C355.03 357.96 355.68 359.45 356.03 360.67C356.98 363.95 358.6 367.45 359.98 370.62C362.65 376.75 366.61 381.89 370.81 387.03C373.95 390.87 377.84 394.49 380 399.01C381.57 402.3 383.24 405.95 380.98 409.27C379.41 411.58 377.91 413.95 376.66 416.44C374.88 419.99 374.38 423.84 372.86 427.42C371.85 429.81 370.74 430.11 368.29 430.8C361.28 432.78 353.69 432.42 346.48 433.2C340.82 433.82 334.83 434.34 329.25 435.65C322.75 437.18 317.3 440.42 312.44 444.87L310 447.11C308.45 449.18 307.04 451.34 305.78 453.6C304.62 454.9 303.23 456.08 301.57 456.68C297.16 458.26 291.76 457.31 287.15 457.16C274.18 456.72 261.01 457.39 248.13 455.76C242.74 455.08 237.47 453.86 232.14 452.81C228.17 452.03 223.69 450.68 219.77 452.37C217.89 453.18 216.53 454.13 214.45 454.69C211.54 455.47 208.24 455.48 205.25 455.89C202.62 456.26 200.04 456.87 197.4 457.18C194.19 457.56 190.96 457.47 187.76 458C185.84 458.32 183.99 459.01 182.04 459.19C179.76 459.41 177.47 459.09 175.2 459.18C171.03 459.35 167.34 461.28 163.41 462.38C159.81 463.39 155.68 462.78 152.01 462.78C148.83 462.78 145.55 462.54 142.38 462.88C140.23 463.11 137.77 463.98 135.69 463.69C133.46 463.37 131.74 463.26 129.49 463.69C127.57 464.05 124.97 463.23 123.12 462.82C121.48 462.46 119.85 462.01 118.25 461.52C117.63 461.33 116.22 461 115.62 460.48C114.86 459.81 114.98 459.19 114.95 458.3C114.85 455.18 114.81 452.23 115.43 449.15C116.53 443.65 120.23 438.92 123.04 434.21C125.46 430.15 127.07 426.2 127.71 421.49C128.14 418.33 128.59 415.23 128.56 412.04C128.53 408.85 128.3 405.25 128.84 401.95C129.65 397.02 129.54 392.21 129.55 387.24C129.55 385.18 129.46 383.1 129.49 381.04C129.55 377.6 130.7 374.49 131.35 371.12C131.75 369.06 131.89 367 132.19 364.93C132.4 363.54 133.02 362.85 133.58 361.7C133.98 360.88 134.01 360.45 134.26 359.41C135 356.29 136.29 353.1 136.54 349.87C136.65 348.35 136.6 346.83 136.58 345.3C136.56 342.51 136.87 339.48 136.49 336.71C136.31 335.39 135.87 334.1 135.66 332.78C135.35 330.86 135.52 328.84 135.69 326.91C135.93 324.16 135.86 321.26 136.41 318.56C137.32 314.01 140.65 311.3 142.76 313.7C145 319.45 146.52 319.72 152.08 323.16C154.51 324.67 157.61 324.88 160.39 324.79C163.55 324.69 165.69 321.29 168.72 320.43C170.08 320.04 171.29 320.02 172.68 319.53C173.71 319.17 174.69 319.28 175.76 319C176.76 318.74 177.91 317.99 178.96 318.24C180.13 318.52 181.88 319.98 184.75 320.73L184.74 320.76Z" fill="#AA5592"/>
<path d="M264.53 316.71C265.13 317.61 264.67 318.13 265.86 318.58C267.17 319.07 268.36 319.2 269.75 319.18C270.21 319.18 270.68 319.14 271.14 319.2C271.87 319.29 273.4 319.33 274.01 319.67C274.41 319.76 274.57 320.04 274.49 320.5C274.87 321.6 275.35 322.65 275.94 323.65C276.51 324.61 276.92 325.63 277.15 326.71C277.15 327.39 277.18 328.06 277.23 328.74C277.33 329.59 277.53 330.38 277.49 331.24C277.45 331.91 277.36 332.57 277.22 333.22C277.14 333.66 277.14 334.1 277.21 334.54C276.87 335.15 275.5 335.55 274.79 335.46C273.81 335.34 272.41 333.37 271.93 332.7C271.09 331.52 271.03 330.7 271.01 329.34C270.99 328.46 270.75 327.63 270.73 326.76C270.7 325.66 270.24 324.84 269.37 324.17C268.7 323.65 268.45 323.93 267.94 323.24C267.31 322.39 266.79 321.35 266.2 320.45C265.95 320.06 265.68 319.67 264.54 316.72L264.53 316.71Z" fill="#AA5592"/>
<path d="M21.9201 152.02H16.3701V271.78H21.9201V152.02Z" fill="#C1C1C1" stroke="#231815" stroke-linecap="round" stroke-linejoin="round"/>
<path d="M27.87 259.49H0V279.45H27.87V259.49Z" fill="#C1C1C1" stroke="#231815" stroke-linecap="round" stroke-linejoin="round"/>
<path d="M38.02 269.47H0V282.24H38.02V269.47Z" fill="#C1C1C1" stroke="#231815" stroke-linecap="round" stroke-linejoin="round"/>
<path d="M0 114.59V158.2H32.19V152.4C32.19 133.33 18.24 117.52 0 114.59Z" fill="#FAE260" stroke="#231815" stroke-linecap="round" stroke-linejoin="round"/>
<path d="M120.24 460.28C118.96 460.04 117.61 459.72 116.69 458.69C115.87 457.77 115.55 456.44 115.46 455.14C115.07 449.45 118.68 444.31 122.84 441.01C127 437.71 131.86 435.61 135.95 432.19C146.56 423.3 150.61 406.73 161.79 398.77C178.73 386.69 201.98 400.37 220.88 392.78C225.34 390.99 229.4 388.05 233.92 386.47C240.45 384.18 247.46 384.84 254.28 385.41C266.59 386.44 278.93 387.1 291.28 387.39C300.61 387.61 310.03 387.6 319.18 385.5C329.38 383.16 339.2 378.23 349.61 378C360.02 377.76 371.78 384.36 373.26 395.9C373.63 398.76 373.33 401.66 373.04 404.53C372.49 409.82 371.95 415.12 371.4 420.41C371.04 423.89 370.6 427.6 368.54 430.25C365.43 434.26 359.8 434.41 356.16 437.8C353.96 439.86 352.71 442.88 351.15 445.58C343.73 458.41 329.31 463.55 315.81 465.89C303.77 467.97 291.55 468.56 279.36 468.48C265.59 468.39 251.82 467.45 238.14 465.68C230.89 464.74 223.66 463.56 216.39 462.91C206.51 462.02 196.58 462.09 186.67 462.16C164.73 462.32 141.98 464.37 120.25 460.28H120.24Z" fill="#A4EAFF" stroke="#231815" stroke-linecap="round" stroke-linejoin="round"/>
<path d="M114.12 428.57L114.08 428.83C113.69 428.84 113.44 428.46 113.07 428.34C112.4 428.11 111.69 428.28 111.07 428.52C109.98 428.93 108.94 429.62 107.89 430.13C107.09 430.52 106.76 431.16 106.24 431.94C104.92 433.91 103.86 437.06 101.47 437.89C99.4599 438.59 98.0099 439.26 96.9399 441.16C95.6399 443.46 93.3599 445.23 92.8099 447.9C92.3899 449.91 91.8699 451.9 91.8199 453.96C91.8099 454.54 91.8399 454.85 91.3899 455.25C90.6799 455.89 90.0699 455.99 89.8599 457.1C89.7099 457.88 89.6599 459.48 89.8599 460.23C90.4799 462.61 93.6399 463.62 95.6199 464.31C97.2599 464.88 98.6799 465.62 100.44 465.57C103.87 465.49 107.08 464.3 110.35 463.45C111.24 463.22 112.08 463.28 113 463.29C115.24 463.31 117.43 463.33 119.61 462.72C120.84 462.38 122.31 462.28 123.43 461.65C124.55 461.02 125.59 460 126.5 459.04C127.34 458.15 128.28 457.33 129.08 456.41C130.07 455.26 130.6 453.32 130.99 451.88C131.53 449.89 131.77 447.81 131.89 445.76C132.02 443.61 131.89 441.39 132.31 439.26C132.61 437.78 133.17 436.47 133.3 434.95C133.46 433.06 134.08 430.65 132.59 429.09C131.5 427.95 129.4 428.06 127.98 427.77C127.16 427.6 126.29 427.71 125.46 427.71C124.31 427.71 123.14 427.6 122.01 427.86C121.25 428.04 120.51 428.34 119.8 428.64C119.36 428.83 118.71 428.94 118.2 429.18C117.69 429.42 117.24 429.89 116.66 429.98C116.31 430.04 115.88 429.97 114.12 428.56V428.57Z" fill="#A48CD3" stroke="#231815" stroke-linecap="round" stroke-linejoin="round"/>
<path d="M131.15 391.37C129.84 390.12 127.81 391.16 126.6 392C124.99 393.12 123.96 395.06 123.09 396.77C122.1 398.73 121.81 400.63 121.82 402.8C121.82 403.71 122.03 404.87 121.67 405.75C120.76 407.97 117.96 409.58 115.9 410.52C113.52 411.61 110.91 412.14 108.71 413.61C107.53 414.4 106.64 415.71 105.99 416.96C104.52 419.81 104.73 422.92 105.64 425.89C106.26 427.92 107.48 429.35 109.36 430.34C110.96 431.18 113.1 430.21 114.63 429.57C115.31 429.29 115.95 428.98 116.55 428.56C116.89 428.32 117.22 427.94 117.58 427.73C118.17 427.38 118.71 427.51 119.41 427.5C120.4 427.48 121.1 427.53 122.03 427.9C122.96 428.27 123.85 428.58 124.77 428.91C126.87 429.68 129.15 429.49 131.29 430.15C133.77 430.92 136.65 431.25 139.24 431.41C140.27 431.48 141.31 431.35 142.33 431.43C143.08 431.49 143.7 431.77 144.45 431.43C145.33 431.03 145.88 429.99 146.44 429.26C147.67 427.67 149.32 426.16 150.21 424.35C150.74 423.26 151.17 422.23 151.81 421.21C152.73 419.75 152.55 418.1 152.38 416.47C152.25 415.19 152.01 413.96 151.81 412.69C151.51 410.78 151.91 409.46 153.19 407.97C154.12 406.89 155.55 406.05 156.29 404.81C156.71 404.1 156.83 403.16 157.01 402.37C157.26 401.28 157.2 400.08 156.85 399.01C156.3 397.32 154.62 396.53 153.22 395.61C150.9 394.08 147.6 394.3 144.94 394.51C143.34 394.63 141.76 395.05 140.15 395.05C138.98 395.05 137.91 394.73 136.77 394.53C135.63 394.33 135.78 394.17 135.27 393.32C134.94 392.76 134.61 392.2 131.17 391.35L131.15 391.37Z" fill="#A48CD3" stroke="#231815" stroke-linecap="round" stroke-linejoin="round"/>
<path d="M143.76 369L144.04 368.98C142.44 367.97 140.95 367.36 139.07 367.6C135.53 368.05 135.4 371.7 135.57 374.53C135.65 375.87 135.99 376.67 136.66 377.78C137.03 378.38 137.07 378.74 137.02 379.51C136.93 380.81 136.39 381.91 136.1 383.17C135.8 384.53 135.84 385.89 135.84 387.27C135.84 388.75 135.64 390.3 135.9 391.76C136.22 393.55 136.97 394.28 138.7 394.69C142.94 395.69 147.35 394.41 151.62 395.44C154.75 396.2 157.63 397.61 160.85 398.01C162.75 398.25 164.79 397.8 166.65 398.32C167.12 398.53 167.6 398.73 168.08 398.92L169.74 399.16C171.22 399.38 172.69 399.35 174.15 399.07C175.2 398.63 176.06 397.97 176.73 397.09C178.32 395.37 179.67 393.52 181.45 391.98C182.82 390.8 184.11 389.79 183.82 387.84C183.5 385.65 181.96 383.92 180.6 382.26C178.97 380.28 177.37 377.95 175.36 376.33C174.5 375.64 173.42 375.27 172.58 374.58C172.37 374.41 172.24 374.15 172 373.96C170.85 373.04 169.25 372.48 167.94 371.87C166.26 371.08 164.68 370.24 163.11 369.27C160.77 367.82 158.29 367.21 155.56 367.27C154.14 367.3 152.71 367.27 151.29 367.27C148.61 367.27 146.1 368.37 143.72 368.96L143.76 369Z" fill="#A48CD3" stroke="#231815" stroke-linecap="round" stroke-linejoin="round"/>
<path d="M159.7 318.59L159.72 318.87C158.27 318.93 156.49 318.77 155.15 319.42C154.39 319.79 153.86 320.28 153.26 320.86C151.92 322.15 150.03 323.18 149.12 324.8C148.4 326.07 148.29 327.69 148.11 329.11C147.93 330.53 147.99 332.01 147.96 333.44C147.93 334.52 148.21 335.25 148.98 336.01C149.66 336.67 150.17 337.48 150.9 338.1C151.83 338.9 152.86 339.54 153.93 340.12C155.08 340.74 156.22 341.19 157.52 341.28C159.55 341.43 161.7 340.56 163.73 340.53C164.43 340.52 164.96 340.61 165.63 340.76C167.32 341.13 169.12 340.61 170.81 340.33C173.15 339.94 175.55 339.87 177.83 339.21C178.54 339 179.3 339.03 179.79 338.39C180.78 337.1 180.42 334.6 179.82 333.36C179.33 332.36 178.64 331.18 177.77 330.48C176.17 329.2 174.06 328.6 172.28 327.62C171.68 327.29 171.45 326.76 171.02 326.25C170.34 325.45 169.52 324.97 168.63 324.42C167.96 324.01 168.08 323.45 167.53 322.94C166.79 322.25 165.44 322 164.53 321.61C163.76 321.28 162.93 321.32 159.69 318.6L159.7 318.59Z" fill="#A48CD3" stroke="#231815" stroke-linecap="round" stroke-linejoin="round"/>
<path d="M177.35 351.5L177.55 351.75C177.21 351.82 176.92 351.48 176.63 351.33C175.74 350.89 174.84 350.75 173.85 350.68C172.53 350.59 170.6 350.29 169.32 350.59C168.21 350.85 167.42 351.48 166.72 352.39C164.63 355.07 164.47 358.67 163.77 361.84C163.63 362.45 163.55 362.21 163.39 362.61C163.16 363.17 163.1 363.89 163.29 364.54C163.51 365.29 163.99 365.72 164.55 366.21C165.68 367.18 166.8 368.16 167.94 369.12C169.47 370.41 170.96 371.72 172.6 372.87C174.98 374.54 177.5 376.05 180.05 377.44C182.26 378.65 184.87 380.03 187.41 379.23C191.36 377.98 193.76 374.18 196.05 370.99C196.77 369.98 197.28 369.21 197.35 367.9C197.43 366.37 196.28 364.66 195.79 363.25C195.53 362.5 195.4 361.84 195.27 361.06C194.94 359.12 193.12 358.56 191.42 357.94C189.15 357.12 186.71 356.83 184.3 356.84C183.82 356.84 183.15 356.98 182.69 356.88C181.93 356.71 181.63 355.54 181.29 354.91C180.62 353.65 180.15 352.87 178.79 352.56C178.78 352.48 178.76 352.41 177.34 351.49L177.35 351.5Z" fill="#A48CD3" stroke="#231815" stroke-linecap="round" stroke-linejoin="round"/>
<path d="M166.91 298.99C165.17 296.27 162.21 296.36 159.57 297.5C157.91 298.21 157.24 298.65 156.24 300.23C155 302.21 153.88 304.49 152.99 306.66C151.86 306.21 150.21 307.18 149.37 307.84C147.95 308.96 147.43 311.17 147.18 312.91C146.95 314.53 147.37 315.98 148.15 317.42C149.38 319.67 151.14 320.83 153.73 321.18C155.9 321.48 158.1 321.44 160.29 321.77C162.88 322.16 165.42 322.96 168.02 323.23C169.6 323.4 171.32 323.41 172.91 323.18C173.81 323.05 175.29 322.87 175.98 322.16C176.43 321.7 176.25 320.77 176.24 320.21C176.21 318.11 176.21 316.01 176.22 313.91C176.22 313.14 176.35 312.28 176.26 311.51C176.19 310.91 175.8 310.67 175.45 310.23C175.01 309.68 174.06 308.88 173.92 308.24C173.72 307.37 174.4 306.54 174.52 305.72C174.59 305.24 174.78 303.97 174.5 303.55C174.24 303.16 172.91 302.76 172.48 302.65C171.91 302.51 171.18 302.3 170.7 301.93C170.14 301.49 169.85 300.74 169.31 300.24C168.85 299.81 167.77 299.4 166.89 298.98L166.91 298.99Z" fill="#A48CD3" stroke="#231815" stroke-linecap="round" stroke-linejoin="round"/>
<path d="M137.91 322.62C137.32 322.72 136.72 322.65 136.12 322.63C134.76 322.58 134.36 322.96 133.66 324.1C133.04 325.11 132.42 326.11 131.81 327.13C131.38 327.73 130.99 328.34 130.64 328.98C130.51 329.45 130.49 329.63 130.59 330.16C131.14 333.01 131.4 335.22 129.97 337.92C129.59 338.63 128.74 339.71 128.48 340.55C128.27 341.25 128.42 342.16 128.51 342.85C128.7 344.35 129.1 345.82 129.42 347.29C129.53 347.78 129.56 349.06 129.93 349.52C130.3 349.98 130.86 350.01 131.41 350.15C133.2 350.59 134.89 350.64 136.72 350.48C139.47 350.24 142.27 350.08 145 349.72C147.43 349.4 149.88 349.33 152.3 348.91C154.55 348.52 157.03 348.21 159.17 347.41C160.04 347.09 161.53 346.48 162.18 345.84C162.83 345.2 163.06 344.09 163.15 343.2C163.47 340.19 162 336.71 159.78 334.73C158.02 333.16 155.38 332.75 153.18 332.22C152.42 332.04 151.42 331.88 150.8 331.37C149.61 330.41 150.11 327.8 149.73 326.42C149.49 325.54 148.91 325.65 148.12 325.31C147.33 324.97 147.1 324.75 146.19 324.76C145.48 324.76 144.7 324.92 143.98 324.83C143.54 324.78 143.34 324.59 142.95 324.46C142.56 324.33 142.12 324.45 141.73 324.31C140.79 323.99 140.37 323.2 137.91 322.6V322.62Z" fill="#A48CD3" stroke="#231815" stroke-linecap="round" stroke-linejoin="round"/>
<path d="M121.67 376.22V376.42C120.42 376.52 119.32 376.71 118.26 377.42C117.31 378.05 116.46 378.82 115.45 379.36C113.62 380.33 111.75 381.45 110.46 383.1C109.33 384.55 109.64 386.3 109.4 388.02C109.16 389.74 108.93 391.3 108.96 392.98C108.98 394.1 108.69 395.17 108.67 396.27C108.65 397.08 109.16 397.3 109.8 397.7C110.6 398.2 111.35 398.79 112.15 399.29C113.13 399.9 113.92 399.97 115 400.17C116.17 400.38 117.44 400.94 118.65 400.89C119.48 400.85 120.11 400.12 120.76 399.7C122.61 398.49 124.78 397.91 126.77 396.98C129.6 395.66 132.48 393.79 134.53 391.42C134.92 390.97 135.29 390.44 135.78 390.1C136.27 389.76 136.91 389.67 137.45 389.38C138.22 388.96 138.3 388.1 138.34 387.25C138.42 385.63 137.09 384.44 135.99 383.36C134.89 382.28 133.49 381.4 132.19 380.55C130.89 379.7 129.6 378.69 128.28 377.8C127.66 377.38 127.08 376.93 126.34 376.82C125.82 376.75 125.17 376.99 124.78 376.5C124.39 376.01 124.59 374.89 124.46 374.3C123.01 373.86 122.65 375.45 121.66 376.25L121.67 376.22Z" fill="#A48CD3" stroke="#231815" stroke-linecap="round" stroke-linejoin="round"/>
<path d="M139.22 350.33H139.4C139.03 350.34 138.92 350.02 138.6 349.89C137.72 349.52 135.82 349.65 134.96 349.77C132.31 350.15 130.54 352.71 129.1 354.76C128.38 355.79 127.91 356.83 127.39 357.97C127.18 358.42 127.08 358.52 126.67 358.94C125.82 359.8 124.99 360.66 123.97 361.33C122.95 362 121.58 362.49 120.92 363.62C120.46 364.42 120.38 365.41 120.06 366.29C119.76 367.1 119.31 367.87 119.07 368.7C118.57 370.45 118.92 372.51 118.87 374.32C118.85 375.2 118.77 375.29 119.38 375.73C120.28 376.37 121.54 377 122.5 377.43C123.95 378.09 125.41 378.5 126.75 379.37C127.88 380.1 128.87 380.32 130.27 380.32C132.25 380.32 134.16 379.77 136.11 379.76C137.37 379.75 138.67 379.04 139.83 378.63C141.4 378.08 142.91 377.45 144.42 376.75C147.17 375.47 149.19 373.53 151.34 371.43C153.17 369.64 154.49 367.66 155.64 365.39C156.51 363.67 157.49 361.5 157.86 359.55C158.18 357.83 155.97 356.66 154.72 355.82C153.33 354.89 151.79 354.15 150.18 353.69C149.18 353.41 148.16 353.22 147.18 352.88C146.2 352.54 145.3 352.25 144.33 352.01C143.77 351.87 143.09 351.88 142.58 351.62C142.07 351.36 141.62 350.75 139.22 350.34V350.33Z" fill="#A48CD3" stroke="#231815" stroke-linecap="round" stroke-linejoin="round"/>
<path d="M318.51 300.96L318.8 301.14C317.4 300.91 315.94 300.61 314.54 300.94C313.05 301.29 311.48 302.19 310.29 303.16C308.5 304.62 310.48 306.1 310.34 307.93C310.27 308.79 309.5 309 309.48 309.9C309.47 310.67 309.69 311.63 310.1 312.29C310.4 312.77 310.75 312.93 311.3 312.98C312.79 313.1 314.66 312.39 316.1 312.07C318.59 311.51 320.98 310.64 323.46 310.04C324.57 309.77 325.31 309.47 326.29 308.93C327.16 308.45 329.14 308.01 329.31 306.96C329.54 305.55 327.25 304.79 326.48 303.88C326.21 303.56 326.11 303.22 325.77 303.01C325.36 302.76 324.73 302.62 324.28 302.47C323.11 302.07 321.78 301.91 320.55 301.85C319.71 301.81 318.93 301.96 318.11 302.08C317.16 302.22 316.72 302.06 318.51 300.98V300.96Z" fill="#A48CD3" stroke="#231815" stroke-linecap="round" stroke-linejoin="round"/>
<path d="M282 375.22C281.1 374.43 280.08 373.76 278.96 373.34C278.22 372.97 277.44 372.74 276.61 372.64C275.53 372.53 274.44 372.49 273.36 372.54C271.6 373.09 271.26 374.58 270.72 376.2C270.24 377.68 269.53 379.04 268.22 379.97C267.26 380.65 266.05 380.95 265.27 381.9C264.67 382.62 264.5 383.63 264.37 384.54C264.15 386.11 264.57 386.74 265.99 387.53C269.81 389.67 274.66 390.11 278.88 389.23C281.4 388.7 284.05 387.76 286.47 386.87C288.17 386.24 290.06 385.15 291.35 383.87C292 383.22 293.55 381.73 293.25 380.66C293.1 380.12 292.34 379.65 291.96 379.4C291.17 378.86 290.04 377.87 289.02 377.79C288.91 376.72 288.68 375.79 287.58 375.25C286.75 374.84 285.8 375.17 284.98 374.87C284.77 374.79 284.5 374.47 282 375.22Z" fill="#A48CD3" stroke="#231815" stroke-linecap="round" stroke-linejoin="round"/>
<path d="M225.01 376.67C224.22 375.68 222.95 376.96 222.37 377.52C221.23 378.62 219.43 380.16 219.14 381.76C218.76 383.84 217.87 385.79 217.71 387.92C217.64 388.83 217.47 390.02 217.99 390.84C218.77 392.08 220.2 393.15 221.28 394.1C222.52 395.19 224.05 396.56 225.74 396.93C227.26 397.26 228.83 397.45 230.38 397.57C232.76 397.76 235.55 397.79 237.95 397.55C238.59 397.49 239.29 397.44 239.91 397.28C242.04 396.73 243.43 395.27 244.74 393.62C247.34 390.36 251.28 388.23 253.06 384.29C253.54 383.23 253.7 382.27 253.06 381.2C252.09 379.58 249.54 379.35 247.84 379.32C246.98 379.3 246.66 379.37 245.95 378.89C245.16 378.36 244.32 378.07 243.47 377.67C241.55 376.77 239.72 376.49 237.55 376.39C236.94 376.36 236.33 376.3 235.73 376.44C235.27 376.55 234.78 376.76 234.26 376.83C232.95 377 232.54 377 231.38 376.56C229.76 375.95 228.15 376.09 224.98 376.67H225.01Z" fill="#A48CD3" stroke="#231815" stroke-linecap="round" stroke-linejoin="round"/>
<path d="M203.79 375.51C202.54 375.05 201.49 374.9 200.15 374.91C199.12 374.91 197.52 374.47 196.73 375.34C195.58 376.61 195.15 378.8 194.53 380.33C194.17 381.1 193.86 381.89 193.61 382.7C193.38 383.33 193.2 383.97 193.05 384.63C192.56 385.63 191.23 385.49 190.25 385.64C188.63 385.86 187.04 386.23 185.5 386.76C184.78 386.76 184.29 387.04 184.01 387.57C183.71 387.95 183.6 388.41 183.7 388.93C183.53 389.92 183.41 390.92 183.36 391.93C183.41 393.95 183.91 396.14 184.79 397.95C185.4 399.21 185.9 399.92 187.28 400.2C189.03 400.28 190.78 400.26 192.53 400.14L195.61 399.97C199.97 399.76 204.34 400.62 208.67 399.93C209.55 399.79 211.85 399.76 212.4 399.05C212.66 398.72 212.54 398.08 212.52 397.71C212.43 395.8 211.42 394.42 210.94 392.63C211.95 391.73 213.92 392.16 214.89 391.05C215.14 390.76 215.19 390.37 215.27 390C215.61 388.29 215.83 385.82 214.35 384.59C213.88 384.2 213.33 383.92 212.9 383.47C212.52 383.08 212.35 382.61 212.05 382.17C211.57 381.46 210.81 381.09 210.45 380.3C210.09 379.51 210.07 378.63 209.83 377.8C209.38 376.22 207.92 375.92 203.78 375.49L203.79 375.51Z" fill="#A48CD3" stroke="#231815" stroke-linecap="round" stroke-linejoin="round"/>
<path d="M346.83 370.86C345.75 370.05 344.64 369.73 343.29 369.57C342.25 369.55 341.49 370 341 370.93C340.14 371.75 339.42 372.69 338.84 373.73C337.68 375.45 336.44 377.26 335.88 379.27C335 382.44 337.94 384.88 339.87 387.03C340.9 388.18 341.75 389.22 342.47 390.58C342.85 391.3 343.3 392.07 343.89 392.63C344.92 393.59 346.39 393.92 347.74 394.09C349.84 394.35 352.38 394.1 354.44 393.61C357.88 392.79 361.29 390.92 364.31 389.15C366.2 388.04 367.98 386.8 369.53 385.25C370.29 384.5 371.04 383.73 371.83 383.01C372.83 382.11 373.76 381.07 373.35 379.52C372.83 377.55 370.43 376.1 368.47 376.01C366.38 375.92 364.31 375.94 362.21 375.72C360.76 375.57 359.19 375.5 357.91 374.9C357 374.48 355.89 374.22 355.09 373.6C354.2 372.9 354.23 371.39 352.9 371.4C352.12 371.4 351.29 371.67 350.6 371.86C350.13 371.99 349.68 372 346.82 370.84L346.83 370.86Z" fill="#A48CD3" stroke="#231815" stroke-linecap="round" stroke-linejoin="round"/>
<path d="M317.47 381.33L317.52 381.52C316.82 381.38 316.11 381.24 315.41 381.1C314.92 381.05 314.43 381.01 313.94 380.96C313.36 381.28 312.64 383.46 312.52 383.74C311.89 385.31 311.45 386.91 311.36 388.61C311.28 390.19 312.61 390.77 313.98 391.18C316.42 391.92 319.1 391.38 321.62 391.73C324.14 392.08 327.58 391.58 329.74 390.02C330.78 389.27 332.91 387.29 332.95 385.75C332.98 384.8 332.38 384.18 331.71 383.63C331.09 383.12 330.89 382.75 330.47 382.03C329.78 380.84 329.15 380.22 328.02 379.52C327.69 379.31 327.38 379 326.98 378.96C326.77 378.92 326.56 378.96 326.36 379.08C325.14 379.51 323.92 379.93 322.69 380.32C322.12 380.52 321.05 381.18 320.36 381.36C319.96 381.46 319.35 381.33 317.46 381.33H317.47Z" fill="#A48CD3" stroke="#231815" stroke-linecap="round" stroke-linejoin="round"/>
<path d="M306.42 379C305.43 379 304.43 378.93 303.44 378.96C301.7 379.01 300.14 379.51 298.55 380.17C296.96 380.83 296.68 381.1 296.27 382.72C295.92 384.08 295.32 385.3 294.83 386.6C294.4 387.73 294.13 388.84 295.16 389.67C296.31 390.6 297.59 391.41 298.78 392.3C299.75 393.1 300.78 393.82 301.88 394.44C303.19 394.92 304.55 395.12 305.95 395.04C307.02 395.06 309.6 395.35 310.63 394.72C311.1 394.43 311.93 393.09 312.16 392.78C313.29 391.24 314.26 389.61 315.08 387.89C315.62 387.2 315.85 386.46 315.77 385.67C315.5 384.42 314.3 383.91 313.23 383.33C312.45 382.91 311.92 382.44 311.34 381.76C310.8 381.12 310.25 380.39 309.91 379.63C309.72 379.61 309.63 379.5 309.63 379.32C309.71 379.16 309.7 379 309.61 378.86C308.76 377.42 306.76 379.19 306.44 379.02L306.42 379Z" fill="#A48CD3" stroke="#231815" stroke-linecap="round" stroke-linejoin="round"/>
<path d="M237.08 366.85C236 368.17 233.85 367.56 232.42 367.72C232.26 368.96 232.31 370.39 233.19 371.34C233.5 371.68 233.81 371.92 234.21 372.06C234.69 372.13 235.18 372.13 235.67 372.06C236.55 372.06 237.43 372.11 238.31 372.21C239.31 372.31 240.36 372.47 241.37 372.39C242.17 372.32 242.69 371.86 243.36 371.47C244.39 370.89 244.98 370.31 245.18 369.07C245.23 368.74 245.35 367.99 245.06 367.67C244.75 367.32 243.84 367.32 243.44 367.11C242.79 366.78 241.62 366.49 240.89 366.87C240.64 367 240.66 367.33 240.29 367.42C240.11 367.47 239.61 367.46 239.41 367.42C238.63 367.25 237.97 366.86 237.12 367.16L237.09 367.4" fill="#A48CD3"/>
<path d="M237.08 366.85C236 368.17 233.85 367.56 232.42 367.72C232.26 368.96 232.31 370.39 233.19 371.34C233.5 371.68 233.81 371.92 234.21 372.06C234.69 372.13 235.18 372.13 235.67 372.06C236.55 372.06 237.43 372.11 238.31 372.21C239.31 372.31 240.36 372.47 241.37 372.39C242.17 372.32 242.69 371.86 243.36 371.47C244.39 370.89 244.98 370.31 245.18 369.07C245.23 368.74 245.35 367.99 245.06 367.67C244.75 367.32 243.84 367.32 243.44 367.11C242.79 366.78 241.62 366.49 240.89 366.87C240.64 367 240.66 367.33 240.29 367.42C240.11 367.47 239.61 367.46 239.41 367.42C238.63 367.25 237.97 366.86 237.12 367.16L237.09 367.4" stroke="#231815" stroke-linecap="round" stroke-linejoin="round"/>
<path d="M331.07 353.9C329.99 353.38 328.91 353.2 327.72 353.09C326.36 352.96 324.72 352.84 323.37 353.03C322.58 352.95 322.12 353.29 321.99 354.04C321.83 354.85 321.71 355.67 321.63 356.5C321.43 358.31 321.37 360.18 321.45 362C321.5 363.01 322.1 363.34 322.96 363.76C324.6 364.57 325.85 365.89 327.5 366.69C328.07 366.96 328.65 367.3 329.29 367.31C330.37 367.31 331.56 366.53 332.25 365.77C332.98 364.97 334.02 364.11 334.59 363.19C334.67 363.07 335.24 362.24 335.18 362.01C335.1 361.67 334.36 361.59 334.05 361.46C333.51 361.23 332.72 360.96 332.34 360.51C331.72 359.76 331.65 359.24 331.65 358.25C331.65 357.13 331.94 355.57 331.61 354.51C331.05 354.47 329.84 354.12 331.07 353.9Z" fill="#A48CD3" stroke="#231815" stroke-linecap="round" stroke-linejoin="round"/>
<path d="M298.03 360.24C294.52 360.7 290.76 360.92 287.33 361.88C285.56 362.38 284.13 362.68 284.02 364.66C283.91 366.64 284.21 368.68 285.58 370.14C287.26 371.92 290.03 371.95 292.24 372.54C291.93 373.76 293.94 373.91 294.71 373.96C295.61 374.02 297.43 373.93 298.31 373.5C298.81 373.25 299.37 372.68 299.83 372.35C300.42 371.92 303.47 369.59 302.27 368.58C301.87 368.24 301.07 368.19 300.55 368.09C299.88 367.92 299.21 367.83 298.53 367.82C298.13 367.78 297.73 367.78 297.33 367.82C296.98 367.51 296.77 365.92 296.8 365.45C296.85 364.58 297.76 364.09 297.95 363.23C298.27 361.79 297.81 360.51 298.01 360.23L298.03 360.24Z" fill="#A48CD3" stroke="#231815" stroke-linecap="round" stroke-linejoin="round"/>
<path d="M189.58 337.57C188.97 337.39 188.22 337.27 187.75 336.78C187.32 337.01 187.36 339.21 187.31 339.6C187.17 340.86 187.02 341.86 187.93 342.82C188.43 343.34 188.87 343.53 189.08 344.27C189.36 345.24 189.22 346.21 189.23 347.19C190.65 347.83 192.27 348.21 193.81 348.43C195.82 348.71 198.44 349.08 200.32 348.12C201.24 347.65 201.21 347.43 201.2 346.48C201.19 345.53 201.56 344.12 200.63 343.4C199.48 342.5 197.7 342.87 196.43 342.25C195.65 341.87 195.42 340.84 195.02 340.14C194.49 339.2 194.23 338.28 193.86 337.28C192.96 337.25 191.9 335.99 189.56 337.56L189.58 337.57Z" fill="#A48CD3" stroke="#231815" stroke-linecap="round" stroke-linejoin="round"/>
<path d="M199.83 299.54C199.61 300.14 199.14 299.61 198.79 300.03C198.62 300.24 198.68 300.84 198.69 301.09C198.75 302.56 199.75 303.77 200.23 305.11C200.79 306.67 200.99 308.2 200.95 309.86C200.92 311.3 200.9 312.75 200.92 314.2C200.92 315.17 200.67 315.97 200.56 316.94" stroke="#231815" stroke-linecap="round" stroke-linejoin="round"/>
<path d="M207.44 299.9C206.35 300.02 206.54 302.78 206.11 303.49C205.65 304.26 204.98 304.62 204.7 305.54C204.42 306.46 204.4 307.61 205.26 308.24" stroke="#231815" stroke-linecap="round" stroke-linejoin="round"/>
<path d="M259.86 296.64C260.46 297.37 261.04 298.6 261.25 299.53C261.3 300.1 261.34 300.67 261.37 301.24C261.55 301.9 261.78 302.53 262.05 303.16C262.42 304.3 262.33 305.24 262.37 306.39C262.41 307.54 262.83 308.37 263.48 309.33C264.13 310.29 264.38 310.88 264.56 312.07C264.68 312.85 265.01 313.17 265.38 313.84C266.07 315.06 266.39 315.38 267.84 316.01C269.92 316.76 272.05 317.36 274.22 317.81C275.13 317.59 275.83 317.78 276.32 318.35C276.05 318.92 276.16 319.58 276.15 320.18" stroke="#231815" stroke-linecap="round" stroke-linejoin="round"/>
<path d="M278.34 308.23C278.13 309.21 278.95 310.05 279.46 310.81C280.31 312.07 281.16 313.39 282.33 314.38" stroke="#231815" stroke-linecap="round" stroke-linejoin="round"/>
<path d="M239.94 327.44C239.92 327.97 239.59 328.45 239.43 328.95C239 330.27 239.15 331.84 239.27 333.21C239.43 334.89 239.85 336.53 239.92 338.22C240.01 340.19 239.95 342.17 239.94 344.14C239.94 345.08 239.81 346.1 239.92 347.03C239.98 347.53 240.21 347.84 240.27 348.29C240.36 348.92 240.06 349.8 240.66 350.26" stroke="#231815" stroke-linecap="round" stroke-linejoin="round"/>
<path d="M156.05 319.81L156.02 319.94C155.74 320.03 155.48 320.01 155.26 319.81C154.87 319.45 154.43 318.1 154.64 317.6C154.87 317.57 155.05 317.66 155.29 317.73C156.25 318.02 157.21 318.3 158.19 318.52C159.58 318.84 160.91 318.84 162.33 318.87C162.78 318.88 163.21 318.9 163.65 318.98C164.59 319.15 165.69 319.38 166.55 318.82C166.87 318.61 167.15 318.27 167.44 318.02C168.08 317.45 168.7 316.84 169.33 316.25C169.74 315.86 170.16 315.47 170.58 315.09C170.79 314.9 171.03 314.51 171.25 314.38C171.47 314.25 171.31 314.24 171.59 314.33C172.02 314.47 172.41 315.25 172.57 315.66C172.8 316.26 173.03 317.12 173.06 317.77C173.09 318.25 173.19 319.5 172.78 319.85C172.57 320.02 172.37 319.93 172.09 319.97C171.48 320.06 170.83 320.46 170.23 320.64C169.58 320.84 168.94 320.92 168.26 320.98C166.81 321.1 165.35 321.06 163.9 321.06C162.92 321.06 161.81 321.19 160.86 320.9C159.67 320.54 158.58 321.01 157.39 321.06C156.66 321.09 155.99 320.89 156.05 319.8V319.81Z" fill="#917EC1"/>
<path d="M159.82 300.25C159.73 300.33 159.63 300.4 159.51 300.44C160.37 300.21 161.18 299.76 162.09 299.77C162.35 300.22 161.7 300.47 161.6 300.84C162.71 301.85 164.27 302.24 165.52 303.04C164.63 302.94 163.88 303.05 163.04 303.38C162.31 303.67 160.75 304.31 160.26 305.01C160.09 305.25 160.12 305.37 160.15 305.64C160.34 307.03 159.65 308.43 159.52 309.8C159.49 310.12 159.71 311.25 159.36 311.53C159.11 311.73 158.91 311.47 158.68 311.33C158.46 311.18 158.24 311.04 158 310.92L157.75 310.83C157.56 310.54 157.68 310.11 157.73 309.81C157.96 308.4 158.28 307.01 158.5 305.59C158.67 304.5 158.79 303.46 158.84 302.37C158.87 301.67 159.07 300.94 159.83 300.24L159.82 300.25Z" fill="#B29CE5"/>
<path d="M168.15 306.13L168.24 306.24C167.42 306.44 166.07 306.71 165.55 307.46C165.21 307.95 165.57 308.43 165.69 309C166.06 310.79 165.79 312.62 165.87 314.43C165.74 313.15 165.52 311.95 165.94 310.66C166.45 309.08 167.26 307.67 168.15 306.13Z" fill="#B29CE5"/>
<path d="M144.47 328.5L144.52 328.6C144.32 328.51 144.12 328.47 143.89 328.47C142.81 328.37 141.74 328.28 140.66 328.18C139.74 328.07 138.96 327.95 138.12 327.63C137.84 327.52 137.84 327.45 137.55 327.71C137.33 327.91 137.21 328.17 137.19 328.48C137.07 328.9 136.94 329.32 136.8 329.73C136.82 330.1 136.95 330.09 137.16 330.36C137.53 330.83 137.49 331.31 137.42 331.88C137.31 332.92 136.92 333.74 136.46 334.68C136.01 335.46 135.68 336.28 135.47 337.15C135.44 337.63 135.32 338.09 135.12 338.53C135.02 338.35 135.11 338.2 135.37 338.07C135.91 337.34 136.51 336.66 137.15 336.02C138.14 334.95 139.19 333.95 140.29 332.99C140.96 332.4 141.62 331.8 142.27 331.18C142.93 330.36 143.23 329.4 143.76 328.51C142.88 328.41 141.92 328.5 141.03 328.5" fill="#B29CE5"/>
<path d="M132.39 330.3L132.22 330.42C132.26 329.93 133.26 329.38 133.62 329.11C134.02 329.23 133.51 331.58 133.46 332C133.39 332.58 133.37 333.16 133.35 333.74C133.33 334.32 133.14 334.92 133.07 335.52C132.95 336.43 133.07 337.37 133.05 338.28C133.03 339.37 132.81 340.5 132.68 341.59C132.36 341.59 132.09 340.94 131.96 340.72C131.63 340.19 131.79 339.84 131.85 339.19C131.89 338.66 131.85 338.19 132.05 337.7C132.2 337.33 132.39 336.98 132.55 336.61C132.95 335.66 132.87 334.45 132.87 333.43C132.87 332.53 132.72 331.67 132.38 330.29L132.39 330.3Z" fill="#B29CE5"/>
<path d="M126.84 375.03H126.96C126.21 375.07 125.34 374.79 124.62 374.63C123.9 374.47 123.16 374.17 122.74 373.55C122.53 373.24 122.55 372.79 122.57 372.41C122.65 370.74 124.49 369.95 125.53 368.96C127.88 366.72 129.14 363.4 130.71 360.62C131.59 359.07 132.39 357.52 133.11 355.88C133.57 354.83 134.29 354.23 135.13 353.45C135.41 353.91 135.62 353.84 136.33 353.95C137.79 354.17 139.41 354.16 140.85 353.83C140.56 353.87 140.39 354.18 140.24 354.4C139.4 355.6 138.64 356.85 137.79 358.04C137 359.15 136.2 360.25 135.62 361.48C135.36 362.04 134.99 362.77 135.15 363.42C135.12 363.14 135.25 363 135.37 362.77C135.55 362.44 135.78 362.15 136.06 361.9C136.86 360.98 137.66 360.06 138.45 359.13C139.5 357.88 140.6 356.65 141.59 355.36L142.28 354.41C142.34 354.17 142.45 353.97 142.63 353.81C142.89 353.62 143.25 353.65 143.57 353.59C144.21 353.48 144.63 353.38 145.21 353.78C145.85 354.21 145.62 355.01 145.62 355.71C145.62 356.62 145.02 357.47 144.56 358.24C143.97 359.23 143.11 359.78 142.18 360.43C141.25 361.08 140.26 361.81 139.42 362.62C138.72 363.3 138.36 364.01 137.96 364.88C137.86 365.1 137.77 365.55 137.6 365.73C137.42 365.93 137.29 365.83 137.05 365.85C136.64 365.88 136.28 366.05 135.9 366.19C134.67 366.64 133.43 367.05 132.19 367.48C131.95 367.56 131.17 367.73 130.91 367.93C130.73 368.07 130.77 368.17 130.76 368.38C130.74 368.8 130.73 369.21 130.63 369.63C130.36 370.77 129.71 371.96 128.92 372.85C128.45 373.37 128.4 373.06 127.7 373.27C127.08 373.46 126.4 374.01 126.84 375.01V375.03Z" fill="#B29CE5"/>
<path d="M175.41 367.93C175.01 368.43 174.77 368.09 174.29 367.82C173.25 367.23 172.22 366.61 171.21 365.96C170.33 365.46 169.5 364.88 168.73 364.23C168.09 363.5 168.16 363.07 168.02 362.2C167.93 361.65 167.66 361.26 167.51 360.74C167.42 360.42 167.35 360.03 167.37 359.69C167.41 359.09 167.91 358.77 168.36 358.45C168.84 358.11 169.28 357.83 169.87 357.72C171.22 357.47 172.57 357.3 173.92 357.02C173.84 357.4 173.67 357.8 173.53 358.16C173.17 359.03 172.62 360.1 172.11 360.91C172 361.09 171.77 361.34 171.69 361.55C171.57 361.88 171.53 362.56 171.48 362.83C171.32 363.78 171.11 364.62 171.92 365.36C172.6 365.98 173.46 366.31 174.24 366.78C174.88 367.16 175.35 367.63 175.41 367.94V367.93Z" fill="#B29CE5"/>
<path d="M157.45 387.85C156.2 388 154.97 388.14 153.71 388.23C153.16 388.27 151.86 388.53 151.25 388.2C151.13 388.03 150.98 387.91 150.78 387.86C150.49 387.7 150.17 387.64 149.83 387.67C149.44 387.65 149.16 387.75 148.79 387.82C148.17 387.95 147.99 387.63 147.54 387.27C146.91 386.78 145.91 386.67 145.7 385.82C145.37 384.48 146.41 383.58 147.3 382.77C147.92 382.21 148.5 381.71 148.94 381.02C150.26 378.91 151.79 376.83 153.33 374.88L154.48 373.45C154.77 373.09 155.05 372.71 155.32 372.33C155.64 372.02 155.75 371.9 156.23 372.05C155.38 374.23 154.5 376.39 153.69 378.58C153.25 379.77 152.87 381.23 151.98 382.17C151.69 382.48 151.33 382.67 151 382.93C150.24 383.53 149.9 384.3 149.59 385.21C150.01 385.87 151.3 385.53 151.95 385.85C152.35 386.05 152.61 386.41 153.08 386.51C153.65 386.63 153.87 386.55 154.41 386.86C155.18 387.29 155.93 387.49 156.8 387.56C156.81 387.66 156.8 387.76 157.44 387.86L157.45 387.85Z" fill="#B29CE5"/>
<path d="M158.76 373.969C158.57 374.089 158.41 374.199 158.27 374.419C158.01 375.239 157.77 376.069 157.55 376.909C157.28 377.979 156.95 379.029 156.57 380.059C155.97 381.449 154.53 382.899 154.36 384.409C154.31 384.879 153.9 385.669 154.47 385.999L154.89 386.069C155.63 386.049 156.38 386.049 157.12 386.049C158.11 386.049 159.09 386.049 160.08 386.049C160.5 386.209 160.86 386.169 161.15 385.929C160.46 383.489 159.72 381.079 159.33 378.569C159.21 377.799 159.26 375.779 158.3 375.559C158.19 374.929 157.64 374.459 158.76 373.959V373.969Z" fill="#B29CE5"/>
<path d="M117.29 384.089C116.53 383.909 115.79 384.689 115.3 385.119C114.17 386.109 113.1 387.199 112.01 388.239C111.15 389.059 111.24 389.28 111.9 390.26C112.44 391.05 113.01 391.709 113.41 392.579C113.64 393.119 113.92 393.62 114.25 394.1C114.38 394.28 114.48 394.48 114.55 394.69C114.69 394.82 114.92 394.91 115.08 395.03C115.57 395.39 116.08 395.11 116.59 394.72C117.45 394.07 117.81 393.139 117.88 392.119C117.94 391.689 117.9 391.27 117.75 390.85C117.43 390.29 117 389.81 116.48 389.42C116.21 389.12 116.21 388.969 116.3 388.589C116.59 387.269 118.16 386.419 119.07 385.549C119.45 385.189 119.61 384.7 119.07 384.41C118.47 384.09 117.45 384.249 117.27 384.089H117.29Z" fill="#B29CE5"/>
<path d="M131.33 402.87C131.45 402.89 131.52 402.84 131.53 402.73C130.54 402.2 128.98 403.82 128.53 404.47C127.77 405.56 127.52 406.72 127.58 408C127.66 409.6 127.28 410.59 126.25 411.88C124.71 413.81 122.47 414.96 120.88 416.83C120.26 417.56 119.71 418.33 118.94 418.9C118.57 419.18 118.38 419.28 118.22 419.73C118.06 420.15 118.06 420.39 117.71 420.72C117.29 421.06 116.88 421.41 116.47 421.76C116.21 421.87 116.05 422.05 115.98 422.29C116.2 422.38 116.42 422.61 116.59 422.76C116.37 422.85 116.08 422.79 115.85 422.79C115.24 422.79 114.62 422.79 114.01 422.79C113.02 422.79 111.87 422.92 110.92 422.58C110.52 422.36 110.14 422.12 109.76 421.86C109.37 421.72 109.09 421.47 108.91 421.11C108.55 420.33 108.79 418.59 108.98 417.84C109.38 416.29 110.45 415.75 111.89 415.28C112.45 415.1 113.11 414.83 113.7 414.77C114.61 414.68 115.35 415.26 116.21 415.41C116.64 415.49 117.15 415.48 117.57 415.4C117.44 415.42 117.96 415.25 117.85 415.32C118.31 414.86 118.76 414.39 119.2 413.92C119.86 413.35 120.46 412.74 121.02 412.08C121.22 411.79 121.46 411 121.82 410.86C122.04 410.78 122.57 410.78 122.78 410.72C123.42 410.53 123.62 410.45 123.65 409.79C123.66 409.24 123.65 408.69 123.6 408.14C123.54 407.82 123.49 407.49 123.44 407.16C123.44 406.58 123.81 406.07 123.94 405.52C124.18 404.46 125.1 403.6 126.07 403.14C126.72 402.83 127.42 402.62 128.02 402.21C128.62 401.8 129.26 401.54 130 401.43C130.42 401.36 130.44 401.43 130.79 401.24C131.6 400.79 132.42 400.33 133.23 399.88C133.63 399.66 135.03 398.7 135.6 398.93C136.44 399.27 136.45 400.92 136.5 401.58L136.58 402.88C136.65 403.38 136.68 403.88 136.69 404.38C136.51 404.68 135.43 404.68 135.14 404.67C134.73 404.67 134.79 404.63 134.53 404.34C134.45 404.25 134.04 403.77 133.91 403.81C133.6 403.91 133.63 404.55 133.59 404.8C133.53 405.14 133.5 405.29 133.1 405.41C132.7 404.78 132.71 404.07 132.57 403.34C132.5 402.96 132.46 402.68 132.12 402.48C131.78 402.28 131.42 402.42 131.3 402.87H131.33Z" fill="#B29CE5"/>
<path d="M131.49 408.09C131.51 408.38 131.09 408.63 130.94 408.78C130.06 409.65 129.18 410.86 128.61 411.94C128.14 412.84 127.97 413.69 127.69 414.65C127.36 415.79 126.64 416.79 126.02 417.79C125.4 418.83 124.76 419.86 124.1 420.87C123.81 421.39 123.46 421.87 123.04 422.3C122.83 422.45 122.6 422.52 122.39 422.7C122.03 423.02 121.79 423.53 121.53 423.93C122.24 424.29 124.56 423.6 125.07 423.46L126.76 422.93C127.38 422.69 128 422.47 128.63 422.27C129 422.08 128.94 422.12 129.09 421.74C129.49 420.73 129.78 419.66 130.06 418.61C130.39 417.37 130.49 416.09 130.5 414.81C130.5 413.99 130.38 413.12 130.53 412.31C130.68 411.5 130.92 410.85 131.48 408.08L131.49 408.09Z" fill="#B29CE5"/>
<path d="M191.51 389.709C191.65 391.009 186.42 389.489 185.83 390.049C185.68 390.389 185.55 390.739 185.44 391.089C185.25 392.099 185.24 393.119 185.39 394.139C185.54 395.079 185.65 395.599 186.3 396.179C186.57 396.419 186.87 396.779 187.23 396.879C188.05 397.099 189.03 396.249 189.48 395.659C189.97 395.009 189.68 394.439 189.96 393.739C190.17 393.219 190.84 392.599 191.31 392.299C192.03 392.769 192.57 393.879 192.97 394.589C193.53 395.599 193.84 396.579 193.99 397.709C194.42 397.679 194.88 397.089 195.11 396.769C195.56 396.159 195.7 395.609 195.42 394.919C195.25 394.499 194.94 394.259 194.92 393.789C194.88 393.089 195.18 392.419 195.55 391.849C196.85 389.829 198.47 388.029 199.66 385.919C200.19 384.989 200.52 383.899 200.65 382.839C200.74 382.109 200.63 381.419 200.85 380.709C199.66 383.329 197.33 385.289 195.46 387.409C194.69 388.289 194.07 389.129 193.53 390.179C193.37 390.489 193.22 390.739 193.02 391.019C192.82 391.289 192.73 391.689 192.41 391.649C192.17 391.619 192.05 391.309 191.85 391.199C191.6 391.059 191.31 391.039 191.52 389.699L191.51 389.709Z" fill="#B29CE5"/>
<path d="M229.55 379.59L229.7 379.73C229.27 379.86 228.75 379.76 228.31 379.75C227.51 379.74 226.71 379.73 225.92 379.82C224.99 379.93 224.66 380.36 224.24 381.14C223.54 382.43 223.14 383.87 222.76 385.28C222.45 386.42 221.97 387.72 221.99 388.92C222.01 390.06 223.47 390.85 224.34 391.35C224.27 389.76 224.26 388.16 225.08 386.74C225.34 386.28 225.63 385.86 225.98 385.46C226.27 385.13 226.67 384.86 226.9 384.48C227.42 383.65 227.59 382.65 228.16 381.82C228.7 381.05 229.33 380.37 229.77 379.52C229.98 379.11 230.14 378.68 229.54 379.59H229.55Z" fill="#B29CE5"/>
<path d="M100.47 460.42L100.58 460.57C100.36 460.69 99.2199 459.35 99.1499 459.28C98.0399 458.03 98.0299 456.65 97.9999 455.04C97.9599 454.6 97.9699 454.16 98.0499 453.72C98.3099 453.22 98.6099 452.76 98.9599 452.32C99.3899 451.7 99.8699 451.19 100.35 450.61C102.16 448.44 103.7 445.98 105.04 443.49C105.76 442.16 106.36 440.81 107.31 439.63C107.72 439.12 108.07 438.54 108.59 438.14C108.82 438.28 109 438.9 109.1 439.14C109.68 440.58 110.1 442.35 110.21 443.89C110.26 444.61 110.4 445.81 109.8 446.38C109.51 446.66 108.94 446.82 108.55 446.85C108.24 446.87 107.9 446.79 107.6 446.85C106.85 447.03 106.17 447.61 105.68 448.17C105.1 448.83 104.53 449.77 104.24 450.61C103.99 451.34 104.05 451.92 104.35 452.63C104.58 453.17 104.9 453.65 105.15 454.18C105.43 454.77 105.33 455.34 105.2 455.96C104.84 457.55 103.98 459.54 102.67 460.57C102.05 461.06 101.31 461.12 100.64 461.48C100.19 461.72 99.7499 462.15 100.5 460.41L100.47 460.42Z" fill="#B29CE5"/>
<path d="M101.29 442.619C101.3 442.329 101.17 442.279 100.91 442.259C100.14 442.189 98.8301 443.839 98.5001 444.229C97.5401 445.359 96.6301 446.519 95.6701 447.649C95.1901 448.219 94.4401 448.849 94.2401 449.599C94.1201 450.059 94.2501 450.749 94.2901 451.229C94.3101 451.459 94.2901 452.029 94.5501 452.149C94.8101 452.269 95.3301 451.609 95.4801 451.449C96.0501 450.839 96.6401 450.229 97.0201 449.479C97.1701 449.179 97.2401 448.769 97.4901 448.539C97.6701 448.499 97.8401 448.419 97.9801 448.299C98.3001 448.109 98.5901 447.889 98.8501 447.609C99.4601 446.999 99.8301 446.189 100.31 445.489C100.65 444.999 101.13 444.369 101.28 443.779C101.35 443.499 101.32 442.649 101.27 442.619H101.29Z" fill="#B29CE5"/>
<path d="M115.49 435.439L115.62 435.419C115.68 434.949 115.97 434.729 116.32 434.429C116.74 434.069 117.21 433.369 117.76 433.229C117.95 434.299 118.03 435.439 118.08 436.509C118.14 437.869 118.23 439.269 118.06 440.609C117.23 440.869 116.65 439.239 116.32 438.729C115.96 438.169 115.49 437.559 115.28 436.929C115.11 436.419 115.15 435.859 115.16 435.329C115.17 434.759 115.47 434.699 115.98 434.459" fill="#B29CE5"/>
<path d="M274.53 378.65L274.77 378.75C274.55 379.11 274.09 379.43 273.81 379.72C273.24 380.3 272.93 380.83 272.57 381.55C272.27 382.15 271.42 382.21 271.59 383C272.8 383.28 275.08 382.94 275.66 381.73C276.15 380.71 276.07 379.26 276.19 378.15C276.24 377.72 276.21 377.15 276.48 376.84C276.01 377.14 275.13 377.68 274.54 377.68" fill="#B29CE5"/>
<path d="M150.86 316.51L150.97 316.67C150.58 316.63 150.23 315.64 150.07 315.32C149.61 314.38 149.16 313.249 149.26 312.179C149.3 311.759 149.23 311.789 149.73 311.779C150.12 311.779 150.55 311.739 150.94 311.779C152.09 311.869 151.92 313.44 152.9 313.67C153.78 313.87 154.79 313.46 155.65 313.67C156 313.76 156.28 314.109 156.36 314.459C156.54 315.229 155.4 315.759 154.8 315.869C153.93 316.029 153 315.359 152.11 315.579C151.72 315.669 151.5 316.02 151.24 316.29C151.1 316.43 150.58 316.659 150.54 316.829" fill="#B29CE5"/>
<path d="M164.56 336.03L164.73 336.05C164.56 335.19 163.77 334.29 163.38 333.51L162.89 332.52C162.72 332.14 162.49 331.79 162.22 331.48C162.12 331.11 162.61 330.59 162.79 330.35C163.39 329.64 164.01 328.96 164.66 328.3C165.09 328.04 165.36 327.69 165.46 327.23C165.01 326.87 164.59 327.05 164.11 326.89C163.78 326.78 163.31 326.2 163.03 325.98C162.8 325.8 162.48 325.6 162.48 325.29C162.48 324.77 163.07 325.03 163.38 325.1C165.22 325.53 167.06 326.08 168.71 327.02C169.52 327.49 169.67 328.28 170.22 329.01C170.77 329.74 171.41 330.61 172.11 331.23C172.65 331.71 173.29 331.7 173.86 332.12C174.13 332.32 174.49 332.52 174.62 332.85C174.92 333.59 174.51 334.73 174.23 335.4C174.04 335.83 173.78 336.22 173.64 336.67C173.59 336.82 173.59 337.03 173.46 337.11C173.35 337.18 173.02 337.12 172.89 337.13C172.43 337.15 171.97 337.25 171.53 337.37C170.33 337.69 169.21 337.75 167.98 337.75C167.62 337.75 167.27 337.73 166.91 337.74C166.39 337.75 165.87 337.81 165.36 337.91C165.08 337.96 164.77 338.09 164.48 338.08C164.19 338.07 163.93 337.87 164.58 336.02L164.56 336.03Z" fill="#917EC1"/>
<path d="M140 347.52C139.97 348.15 139.29 347.01 139.3 347.03C138.92 346.65 137.46 346.09 137.48 345.52C137.63 345.47 137.76 345.38 137.87 345.26C138.42 344.79 139.01 344.37 139.63 343.99C140.29 343.6 140.78 343.44 141.26 342.88C141.87 342.16 142.68 341.57 143.15 340.75C143.25 340.51 143.4 340.31 143.61 340.15C143.81 340.03 144.02 339.91 144.24 339.81C144.47 339.61 144.41 339.49 144.41 339.19C144.43 337.92 144.23 336.55 144.41 335.29C145 335.03 145.93 335.87 146.38 336.12C147.07 336.51 147.76 336.65 148.5 336.87C148.63 336.91 148.71 336.97 148.89 336.98C149.22 337 149.59 337.01 149.92 336.95C150.47 336.85 151 336.6 151.51 336.38C151.84 336.24 152.13 336.2 152.42 336.05C153.01 335.74 153.29 335.4 153.88 335.8C155 336.57 155.4 338.17 156.69 338.71C157.02 338.85 157.16 339.07 157.44 339.31C157.85 339.66 157.79 339.69 157.79 340.31C157.79 341.07 157.88 341.82 157.45 342.46C157.02 343.1 156.72 343.51 156.67 344.31C156.26 344.04 156.07 343.87 155.55 343.7C154.86 343.48 154.14 343.35 153.43 343.18C152.9 343.05 152.44 342.86 151.96 342.63C151.74 342.52 151.56 342.43 151.3 342.47C150.6 342.56 150.59 343.14 150.54 343.68C150.49 344.22 150.13 345.29 149.7 345.67C149.51 345.84 149.21 345.78 148.98 345.82C148.7 345.87 148.47 346.02 148.19 346.09C147.86 346.18 147.44 346.12 147.11 346.11C146.45 346.1 145.83 346.15 145.17 346.26C144.3 346.41 143.44 346.62 142.57 346.78C142.21 346.85 141.78 346.93 141.45 347.09C141.12 347.25 140.86 347.55 140 347.53V347.52Z" fill="#917EC1"/>
<path d="M179.51 372.55C180.43 372.7 181.22 373.39 182.15 373.58C182.69 373.69 183.24 373.66 183.79 373.66C184.82 373.66 185.84 373.69 186.86 373.5C187.18 373.44 187.51 373.4 187.82 373.33C188.06 373.28 188.39 373.08 188.59 373.01C189.14 372.82 189.8 372.7 190.21 372.26C190.51 371.94 190.68 371.51 190.88 371.12C191.78 369.37 192.53 367.51 193.28 365.69C193.44 365.3 193.78 364.74 193.71 364.3C193.66 364.01 193.43 363.8 193.26 363.56C192.99 363.17 192.74 362.88 192.32 362.63C191.97 362.42 191.49 362.3 191.19 362.02C190.8 361.66 190.96 360.84 190.59 360.57C190.05 360.18 189.35 364.9 189.35 364.9C189.3 365.31 189.35 365.89 189.11 366.26C188.95 366.52 188.64 366.67 188.45 366.91C188.32 367.08 188.25 367.25 188.14 367.43C187.89 367.85 187.38 368.22 187.03 368.57C186.79 368.81 186.4 369.37 186.12 369.61C185.99 369.72 186.03 369.69 185.85 369.74C185.56 369.83 185.14 369.83 184.83 369.89C184.2 370.03 183.54 370.09 182.9 370.17C182.23 370.26 182.03 370.54 181.67 371.15C181.53 371.39 181.48 371.81 181.34 372C181.24 372.13 181.05 372.12 180.9 372.23C180.59 372.46 180.18 372.94 179.48 372.56L179.51 372.55Z" fill="#917EC1"/>
<path d="M135.43 377.43V377.56C135.03 377.71 134.4 377.56 134.2 377.17L134.16 376.57C134.16 375.79 134.16 375.01 134.16 374.22C134.16 373.71 134.01 373 134.2 372.52C135.36 372.48 136.47 372.57 137.64 372.43C139.13 372.26 140.64 371.94 141.89 371.06C142.07 370.94 142.18 370.86 142.36 370.78C144.35 369.94 146.55 368.99 148.05 367.36C148.54 366.83 148.95 366.25 149.41 365.7C150.18 364.76 151.09 363.96 151.91 363.07C152.36 362.58 152.54 362.02 152.93 361.53C152.99 361.46 153.08 361.44 153.15 361.38C153.48 361.11 153.83 360.92 154.13 360.6C154.33 360.39 154.22 360.4 154.49 360.4C154.85 360.4 155.32 361.15 155.48 361.47C155.65 361.81 155.59 362.2 155.59 362.59C155.59 363.15 155.73 363.7 155.34 364.12C154.37 365.17 153.83 366.58 153.11 367.82C152.66 368.6 152.27 369.44 151.76 370.18C151.35 370.77 150.8 371.1 150.21 371.47C149.27 372.07 148.5 372.87 147.46 373.3C146.97 373.5 146.45 373.48 145.94 373.57C145.14 373.7 144.48 374.08 143.76 374.45C142.42 375.14 141.09 375.78 139.78 376.53C138.94 377.01 138.06 377.11 137.17 377.48C136.43 377.78 135.95 378.23 135.44 377.41L135.43 377.43Z" fill="#917EC1"/>
<path d="M135.43 387.83C135.55 387.86 135.61 387.83 135.64 387.72C134.88 387.04 133.94 386.63 133.11 386.04C132.44 385.57 132 384.92 131.46 384.32C131.02 384.5 130.89 385.93 130.82 386.26C130.67 386.94 130.57 387.62 130.52 388.31C130.52 388.78 130.38 389.2 130.11 389.57C129.68 390.06 128.77 390.39 128.21 390.67C127.03 391.25 125.7 391.49 124.5 392.02C124.09 392.11 123.75 392.3 123.49 392.61C123.48 392.75 123.47 392.89 123.47 393.03C123.34 393.35 122.66 393.63 122.42 393.84C121.77 394.42 120.95 395.15 120.67 396.02C120.45 396.7 121.12 396.66 121.63 396.68C122.34 396.75 123.05 396.71 123.76 396.57C124.77 396.25 125.7 395.78 126.57 395.17C127.07 394.84 127.58 394.48 128.06 394.11C128.66 393.65 128.81 393.02 129.22 392.43C129.67 391.78 130.24 391.27 130.9 390.85C131.61 390.46 132.31 390.04 133 389.61C133.31 389.4 133.62 389.17 133.92 388.94C134.29 388.78 134.63 388.8 134.92 388.47C135.17 388.19 135.16 388.05 135.45 387.84L135.43 387.83Z" fill="#917EC1"/>
<path d="M131.89 425.14L131.94 425.3C132.15 425.38 132.33 425.3 132.47 425.06C132.92 424.69 133.39 424.35 133.88 424.05C134.52 423.64 135.14 423.22 135.76 422.78C136.15 422.57 136.46 422.29 136.69 421.93C136.86 421.54 136.77 421.14 136.77 420.68C136.77 418.95 136.8 417.22 136.74 415.49C136.69 414.19 136.5 412.82 136.65 411.51C136.69 411.18 136.72 410.63 136.92 410.32C137.14 409.96 137.34 410.05 137.71 410.04C138.91 409.83 140.09 409.54 141.25 409.16C141.9 409.11 142.43 408.87 142.84 408.43C142.53 407.87 142.84 406.99 142.72 406.37C142.66 406.02 142.49 405.91 142.75 405.59C143.19 405.04 144.39 404.77 144.99 404.52C145.3 404.4 145.61 404.26 145.92 404.13C146.2 403.88 146.45 403.61 146.68 403.32C147.05 402.93 147.46 402.59 147.86 402.23C148.03 402 148.25 401.93 148.54 402.02C149.2 402.08 149.84 402 150.47 401.79C151.06 401.61 152.89 400.97 152.69 400.01C152.61 400.4 152.71 400.97 152.7 401.32C152.7 402.52 152.62 403.83 152.26 404.98C151.75 406.61 150.1 407.67 148.82 408.63C148.33 408.99 147.85 409.42 147.28 409.65C146.9 409.8 146.72 409.86 146.5 410.24C146.28 410.62 146.14 411.16 146.26 411.6C146.38 412.04 146.85 412.45 147.11 412.83C147.85 413.87 148 414.82 147.98 416.1C147.96 417.81 147.8 419.65 147.23 421.28C146.95 422.1 146.47 422.54 145.86 423.13C145.34 423.64 144.77 424.15 144.31 424.71C143.91 425.19 143.59 425.73 143.12 426.16C142.65 426.59 141.44 427.05 141.45 427.81C139.53 428.21 137.43 428.43 135.52 427.8C135.29 427.72 135.09 427.6 134.85 427.55C134.43 427.47 134.02 427.55 133.61 427.43C133.33 427.35 133.11 427.24 132.82 427.2C132.44 427.15 132.12 427.15 131.88 425.16L131.89 425.14Z" fill="#917EC1"/>
<path d="M207.96 388.99C208.25 389.32 207.36 390.05 207.25 390.2C206.99 390.55 206.64 390.95 206.46 391.34C206.28 391.73 206.41 392.22 206.38 392.63C206.32 393.37 206.12 393.83 205.53 394.31C204.99 394.75 204.29 395.36 203.57 395.47C203.29 395.51 203.02 395.42 202.74 395.38C202.35 395.32 201.87 395.19 201.47 395.24C200.73 395.34 199.92 396.5 199.61 397C199.45 397.27 198.81 398.12 198.92 398.49C198.99 398.72 199.43 398.71 199.6 398.73C201.22 398.9 202.9 398.75 204.53 398.76C204.9 398.76 205.86 398.93 206.11 398.65C206.36 398.37 206.3 397.66 206.39 397.27C206.68 396.07 207.43 395.02 208.27 394.14C208.78 393.61 209.19 392.99 209.23 392.26C209.26 391.63 209.37 391.29 209.68 390.74C209.95 390.27 210.34 389.89 210.68 389.47C210.84 389.27 211.14 388.93 210.92 388.67C210.7 388.41 209.76 388.45 209.44 388.54C208.98 388.67 208.57 389.49 207.97 388.99H207.96Z" fill="#917EC1"/>
<path d="M239.29 391.9L239.31 392.07C239.68 391.75 239.99 390.95 240.24 390.52C240.43 390.19 240.87 389.62 240.9 389.25C240.94 388.81 239.6 388.55 239.26 388.47C238.16 388.24 237.1 388.87 236.28 389.53C235.29 390.33 234.44 391.33 233.36 392.02C232.89 392.32 232.53 392.5 232.01 392.55C230.91 392.64 229.84 392.51 228.73 392.69C228.25 392.77 227.8 392.79 227.32 392.82C226.55 392.87 226.03 393.97 226.45 394.59C226.95 395.34 229.08 395.22 229.68 395.23C231.11 395.26 232.55 395.19 233.98 395.21C234.9 395.23 235.77 395 236.67 394.82C237.57 394.64 238.38 394.51 239.02 393.83C239.33 393.51 239.79 393.25 239.95 392.81C239.98 392.74 240.08 392.27 239.28 391.89L239.29 391.9Z" fill="#917EC1"/>
<path d="M127.64 445.52L127.76 445.6C128.34 444.32 128.44 442.88 128.52 441.5C128.55 440.89 128.59 440.28 128.66 439.67C128.72 438.88 128.81 438.09 128.94 437.3C128.94 436.47 128.85 435.9 128.15 435.36C127.23 436.02 126.65 437.28 125.99 438.2C125.09 439.46 123.44 441.07 123.85 442.79C124.06 443.68 124.8 444.41 124.87 445.31C124.94 446.21 124.27 447.13 123.71 447.77C122.8 448.82 121.78 450.24 120.16 449.76C119.54 449.58 119.41 449.04 119.11 448.49C119.02 448.32 118.81 447.6 118.66 447.55C118.28 447.42 118.09 448 117.99 448.21C117.61 449.04 117.24 449.87 116.85 450.7C116.53 451.38 116.32 451.8 116.29 452.53C116.26 453.08 115.94 453.04 115.42 453.16C114.71 453.33 114.04 453.42 113.3 453.4C112.86 453.38 112.43 453.25 112.13 453.63C111.87 453.96 111.69 454.5 112.02 454.83C112.32 455.13 113.31 455.07 113.48 455.37C112.72 455.69 112.09 456.39 111.49 456.94C111.22 457.18 110.94 457.42 110.73 457.71C110.44 458.1 110.31 458.56 110.04 458.97C109.87 459.23 109.67 459.44 109.41 459.6C109.17 459.75 108.79 459.81 108.58 459.98C108.34 460.18 108.49 460.35 108.34 460.65C108.8 461.08 110.3 460.7 110.9 460.65C112.16 460.53 113.43 460.32 114.7 460.31C115.76 460.31 116.83 460.3 117.9 460.33C118.45 460.35 118.84 460.31 119.32 460.04C120.33 459.46 121.18 458.59 122.11 457.9C122.86 457.34 123.57 456.82 124.27 456.24C125.24 455.43 126.39 454.88 127.34 454.04C127.97 453.48 128.41 452.89 128.81 452.15C129.18 451.48 129.56 450.82 129.88 450.12C130.15 449.54 130.16 449.04 130.15 448.42C130.14 447.8 130.19 447.12 130.06 446.47C129.94 445.88 129.74 444.58 127.63 445.53L127.64 445.52Z" fill="#917EC1"/>
<path d="M309.51 387.57C309.62 387.19 308.89 386.97 308.67 386.83C308.12 386.49 307.52 385.97 306.83 386.22C305.96 386.53 305.55 387.5 305.4 388.3C305.3 388.81 305.47 389.59 304.78 389.64C304.29 389.67 303.74 389.63 303.25 389.62C302.46 389.6 301.98 389.22 301.25 389C300.98 388.92 300.31 388.65 300.06 388.83C299.55 389.19 299.52 390.5 299.58 391.03C299.74 392.4 301.27 392.3 302.33 392.31C303.24 392.31 304.02 392.31 304.91 392.41C305.61 392.48 306.62 392.64 307.29 392.33C308.01 391.99 308.84 391.54 309.49 391.1C310.28 390.56 310.92 389.6 310.96 388.6C311 387.6 309.89 387.09 309.31 386.44C309.33 386.4 309.35 386.35 309.52 387.57H309.51Z" fill="#917EC1"/>
<path d="M285.58 381.74C285.4 381.68 285.29 381.52 285.11 381.45C284.31 381.13 283.08 381.85 282.44 382.27C281.98 382.58 279.23 384.16 279.64 384.7C279.91 385.05 281.14 384.91 281.49 384.87C282.4 384.76 283.31 384.37 284.11 383.94C284.45 383.75 284.77 383.53 285.14 383.39C285.48 383.25 285.77 383.23 285.9 382.87C286.07 382.39 285.66 381.58 285.59 381.74H285.58Z" fill="#917EC1"/>
<path d="M328.24 384.58L328.41 384.68C328.26 384.4 327.52 384.31 327.23 384.22C326.73 384.07 326.04 383.72 325.49 383.75C324.73 383.8 323.86 384.8 323.27 385.25C322.49 385.83 321.72 386.43 320.96 387.05C320.44 387.26 320.1 387.6 319.94 388.07C321.31 388.84 322.56 389.14 324.1 389.14C324.47 389.14 324.82 389.17 325.17 389.03C325.98 388.7 326.65 387.94 327.38 387.49C327.79 387.23 328.14 387.12 328.4 386.82C328.48 386.49 328.63 386.18 328.83 385.9L329.18 385.14C329.21 385.06 329.47 384.3 329.38 384.09C329.33 383.92 329.21 383.84 329.01 383.84C328.74 383.83 328.54 383.71 328.25 384.58H328.24Z" fill="#917EC1"/>
<path d="M354.53 381.9C354.05 381.52 353.24 380.95 352.75 381.55C351.88 382.63 351.96 384.51 351.81 385.8C351.74 386.39 351.69 386.9 351.36 387.4C350.82 388.21 349.24 388.61 348.47 389.17C348.01 389.51 347.33 390.02 348.02 390.49C348.92 391.1 350.75 390.63 351.68 390.41C352.45 390.23 353.19 390.01 353.74 389.39C354.12 388.96 354.46 388.47 354.78 388C356.33 385.76 355.38 383.12 354.53 381.9Z" fill="#917EC1"/>
<path d="M320.88 307.07L321.07 307.09C319.39 306.48 316.97 305.49 315.28 306.09C314.37 306.41 313.41 307.48 312.59 308.01C311.77 308.54 310.72 309.01 310.14 309.77C309.38 310.78 310.27 311.18 310.94 312.01C311.07 312.17 311.16 312.43 311.36 312.52C311.74 312.69 312.82 312.02 313.12 311.88C314.59 311.21 316.1 310.35 317.41 309.4C317.73 309.17 318.24 308.54 318.56 308.41C318.71 308.35 318.88 308.46 319.03 308.43C319.5 308.32 319.52 308.23 319.9 308.04C320.51 307.72 321.64 308.09 322.15 307.55C322.08 307.48 322.01 307.41 320.86 307.07H320.88Z" fill="#917EC1"/>
<path d="M264.47 407.2C264.39 406.91 264.55 406.7 264.75 406.48C265.68 405.48 266.99 404.82 268.16 404.16C269.33 403.5 270.67 402.81 272.03 402.41C272.67 402.22 272.41 402.25 272.91 402.41C273.7 402.79 274.53 403.1 275.38 403.33C276.47 403.74 277.6 403.98 278.77 404.04C280.22 404.11 281.69 404.02 283.15 404.02C285.86 404.02 288.45 404.02 291.14 403.58C292.84 403.3 294.52 402.92 296.21 402.64C297.35 402.45 298.52 402.43 299.68 402.38C303.87 402.21 308.15 402.15 312.3 402.72C314.2 402.98 316.15 403.1 318.07 403.06C318.83 403.04 319.1 403.7 319.56 404.26C319.96 404.74 320.4 405.18 320.78 405.67C320.62 406.06 320.29 406.25 319.8 406.25C319.12 406.5 318.44 406.76 317.76 407C316.7 407.38 315.62 407.65 314.51 407.28C313.54 406.96 313.02 406.44 311.95 406.42C311.23 406.41 310.52 406.46 309.79 406.42C308.58 406.35 307.31 406.38 306.11 406.21C305.31 406.1 304.39 406.01 303.95 406.89C302.98 408.82 305.72 409.06 306.98 409.09C309.79 409.16 312.61 409.09 315.42 409.07H316.98C317.35 408.98 317.72 408.99 318.07 409.1C318.26 409.34 318.45 409.58 318.66 409.81C318.96 410.2 319.32 410.52 319.74 410.79C320.06 411.01 321.03 411.26 321.13 411.74C321.26 412.32 320.7 412.36 321.55 412.68C322.6 413.08 323.76 413.01 324.86 413.01C326.63 413.01 328.38 413.04 330.15 412.78C331 412.65 331.84 412.48 332.67 412.25C332.82 412.18 332.94 412.22 333.01 412.35C333.63 412.66 334.49 413.89 334.56 414.56C334.67 415.53 333.77 415.92 332.97 416.16C332.12 416.35 331.26 416.45 330.39 416.47C328.97 416.58 327.55 416.61 326.13 416.54C322.71 416.45 319.14 416.24 315.78 415.59C315.16 415.53 314.58 415.36 314.03 415.07C313.99 414.91 313.9 414.83 313.75 414.83L313.3 414.95C312.89 415.16 312.45 415.27 311.99 415.27C310.62 415.39 309.18 415.19 307.82 415.1C306.63 415.02 305.43 415.06 304.24 414.96C302.77 414.85 301.13 414.65 299.69 415.07L298.68 415.43C298.39 415.59 298.13 415.77 297.88 415.99C297.61 416.08 297.34 416.04 297.07 415.89L295.5 415.7C294.58 415.65 291.86 416.14 293.36 417.51C293.93 418.11 294.64 418.47 295.51 418.59C297.91 419.18 300.34 419.55 302.81 419.68C304.7 419.75 306.62 419.85 308.41 419.15C308.86 418.97 308.73 418.94 309.01 419.12C309.45 419.41 309.79 420.18 309.95 420.66C308.13 420.81 306.29 420.49 304.47 420.64C302.08 420.84 299.46 421.39 297.4 422.67C296.63 423.14 296.14 423.4 296.86 424.08C297.45 424.65 298.74 424.73 299.1 425.49C298.39 425.98 297.46 425.92 296.62 426.01C294.87 426.2 293.02 426.48 291.26 426.21C289.77 425.98 288.42 425.49 287.01 425.02C286.09 424.72 285.17 424.39 284.2 424.59C283.23 424.79 283.19 425.95 282.7 426.68C282.12 427.54 280.03 426.89 279.31 426.77C277.28 426.41 275.19 425.84 273.12 425.83C272.39 425.83 271.93 425.92 271.39 426.44C270.85 426.96 270.41 427.49 270.02 428.1C269.77 428.49 269.76 429.12 269.46 429.44L268.75 429.67C267.84 429.77 266.93 429.83 266.02 429.85C264.8 429.9 263.63 429.96 262.5 429.46C260.55 428.6 258.59 426.7 257.26 425.05C256.85 424.55 256.46 424 256.29 423.37C256.09 422.61 256.19 422.38 256.92 422.1L258.61 421.83L260.97 421.55C262.78 421.34 264.57 421.17 266.38 421.24C267.62 421.28 268.85 421.39 270.09 421.45C270.39 421.46 270.84 421.56 271.1 421.34C271.48 421.02 271.45 420.47 271.32 420.11C270.95 419.11 268.39 418.83 267.47 418.71C265.23 418.42 262.89 418.63 260.63 418.64C259.76 418.64 258.88 418.62 258.02 418.54C257.26 418.47 256.66 418.23 255.96 417.92C254.36 417.22 252.84 416.33 251.24 415.64C249.64 414.95 247.97 414.68 246.27 414.57C243.27 414.39 240.26 414.57 237.26 414.52C237.4 414 237.81 413.75 238.51 413.77C239.91 413.32 241.35 413.07 242.82 413.02C243.86 412.97 244.88 413.05 245.91 413.02C248.61 412.96 251.23 414.06 253.88 414.49C256.04 414.85 258.26 414.85 260.44 415.05C262.62 415.25 264.68 415.58 266.78 416.11C267.71 416.43 268.67 416.64 269.64 416.74C270.51 416.76 271.39 416.77 272.26 416.76C276.32 416.78 280.27 416.69 284.25 415.79C285.08 415.57 285.92 415.42 286.77 415.32C287.93 415.24 289.08 415.06 290.21 414.8C291.12 414.47 291.47 414.04 292.01 413.32C292.13 413.21 292.23 413.09 292.3 412.94C292.23 412.49 292.04 412.1 291.73 411.77C291.06 410.89 290.08 410.7 289.03 410.57C287.72 410.4 286.18 410.14 284.93 410.73C284.52 410.94 284.15 411.2 283.83 411.53C283.42 411.78 282.98 411.92 282.5 411.96C281.54 412.13 280.52 412.14 279.55 412.04C278.82 411.96 277.8 411.85 277.15 411.46C277.17 411.06 277.72 411.12 277.91 410.86C278.23 410.43 277.4 410.13 277.03 409.88C275.84 409.07 274.66 408.62 273.25 408.31C272.73 408.19 272.19 408.03 271.67 407.94C270.04 407.67 268.39 408.22 266.89 408.79C266.07 409.1 264.86 409.47 264.46 410.33C264.27 410.74 264.38 411.28 264.16 411.67C263.98 412 263.52 412.13 263.18 412.2C261.83 412.49 260.24 411.99 258.91 411.81C257.58 411.63 256.28 411.45 254.99 411.09C252.82 410.47 250.65 409.57 248.64 408.54C247.67 408.04 246.31 407.47 245.61 406.56C245.44 406.34 245.3 406.02 245.34 405.73C246.43 405.62 247.52 405.46 248.61 405.37C250.31 405.23 252.04 405.3 253.75 405.19C254.74 405.12 254.8 405.26 255.74 405.56C257.11 406 258.38 406.17 259.8 406.28C260.65 406.34 261.48 406.61 262.29 406.9C262.6 406.96 262.88 407.09 263.12 407.28C263.12 407.35 263.16 407.4 263.22 407.41C263.93 407.56 264.18 406.08 264.43 407.21L264.47 407.2Z" fill="#B6F0FF"/>
<path d="M190.66 415.27C190.39 415.41 190.1 415.52 189.8 415.58C191.31 415.19 192.97 415.13 194.52 414.99C196.53 414.8 198.94 414.44 200.96 414.87C203.64 415.43 206.46 414.13 209.11 413.73C210.26 413.56 211.29 413.38 212.26 414.17C212.57 414.42 212.96 414.82 212.89 415.27C212.8 415.88 210.68 416.54 210.52 416.61C208.37 417.51 206.16 418.25 203.82 418.47C201.48 418.69 199.48 418.13 197.21 417.81C196.19 417.67 195.13 417.48 194.2 418.02C193.46 418.45 193.16 418.8 192.31 419.01C191.92 419.11 191.54 419.2 191.16 419.31C190.32 419.55 189.66 419.89 188.87 420.31C187.09 421.28 185.13 421.82 183.12 422.02C181.11 422.22 178.1 421.57 176.94 423.58C177.72 425.44 181.51 425.64 182.98 425.8C185.95 426.12 188.92 426.1 191.91 426.09C194.59 426.08 197.61 425.66 200.15 426.67C200.09 427.15 199.25 427.38 198.88 427.56C197.83 428.06 196.7 428.45 195.57 428.72C191.89 429.6 187.89 429.82 184.58 431.79C184.75 433.11 187.62 433.92 188.47 434.13C191.72 434.94 195.19 434.34 198.47 434.08C200.25 433.94 202.36 433.47 204.05 434.27C204.95 434.7 206.09 435.58 206.69 436.42C205.8 437.32 204.4 437.51 203.19 437.78C201.53 438.16 199.1 438.31 197.82 439.58C197.17 440.22 196.76 441.27 197.34 442.1C197.92 442.93 199.73 443.02 200.6 443.3C204.59 444.56 208.74 445.34 212.92 445.53C213.78 445.57 215.22 445.41 216.14 445.55C216.38 445.59 216.46 445.55 216.63 445.7C216.96 445.98 216.94 446.41 216.73 446.7C216.4 447.17 215.44 447.66 215 447.96C214.07 448.58 213.15 449.21 212.18 449.78C210.8 450.59 209.3 451.13 207.7 451.24C206.21 451.34 204.69 451.22 203.2 451.24C201.99 451.26 201.15 450.97 199.98 450.68C196.62 449.86 192.96 450.07 189.53 450.32C188.77 450.37 188.02 450.4 187.29 450.61C186.99 450.7 186.46 451.02 186.16 451.05C185.93 451.07 185.69 450.95 185.45 450.93C184.98 450.9 184.58 451 184.14 451.16C182.06 451.9 180.02 452.65 177.86 453.09C176.02 453.47 174.5 453.36 172.67 453.12C171.14 452.92 169.25 453.47 167.88 454.13C166.51 454.79 164.52 455.7 162.99 455.47C161.61 455.26 160.21 454.04 159.01 453.36C158.23 452.92 157.18 452.72 156.54 452.1C155.93 451.51 155.13 450.15 156.46 450.11C159.34 450.03 162.19 450.35 165.06 450.53C167.24 450.67 169.49 450.78 171.68 450.66C172.92 450.59 174.33 450.55 175.51 450.16C176.22 449.92 176.52 449.91 177.25 449.87C178.63 449.79 179.96 448.92 181.28 448.54C183.28 447.95 185.34 447.64 187.38 447.22C188.03 447.09 188.6 446.8 189.16 446.44C190.09 445.85 191.88 444.4 191.71 443.17C191.58 442.19 190.33 441.6 189.37 441.49C188.73 441.42 187.99 441.53 187.36 441.59C185.83 441.74 184.29 441.8 182.75 441.88C181.43 441.95 180.16 442.2 178.86 442.3C177.64 442.39 176.44 442.26 175.22 442.42C174 442.58 172.7 442.57 171.43 442.56C170.88 442.56 169.24 442.27 168.93 442.81C170.3 443.18 171.74 441.27 172.81 440.72C174.46 439.88 176.58 440.71 178.34 440.7C180.84 440.7 182.07 439.94 182.94 437.66C182.51 436.91 181.85 436.52 180.94 436.49C178.52 436.23 176.09 436.14 173.65 436.2C168.82 436.06 164 435.78 159.17 435.8C158.46 435.8 154.25 436.26 153.78 435.04C153.6 434.58 153.62 434.66 154.09 434.39C155.45 433.6 157.25 433.63 158.7 432.92C159.67 432.44 160.27 432.72 161.28 432.56C161.85 432.47 163.62 432.17 163.63 431.47C163.06 430.96 162.52 430.55 161.84 430.2C161.21 429.87 159.33 429.34 159.21 428.49C159.84 427.33 162.22 427.71 163.24 426.99C163.54 426.78 164.01 426.16 163.93 425.77C163.84 425.33 163.42 425.35 163.36 424.98C164.04 425.13 164.58 425.4 165.2 425.71C165.62 425.92 166.43 426.15 166.61 426.61C166.72 426.88 166.65 427.28 166.76 427.58C166.95 428.11 167.31 428.55 167.63 429.01C168.3 429.98 169.59 429.97 170.71 430.18C172.03 430.43 173.4 430.65 174.74 430.67C175.27 430.67 175.69 430.65 176.2 430.78C177.23 431.05 178.39 430.4 177.36 429.29C176.64 428.52 175.48 427.94 174.57 427.43C173.74 426.96 172.89 426.54 171.97 426.26C171.57 426.14 170.29 426.07 170.35 425.37C171.2 424.87 173.3 424.92 173.06 423.56C172.87 422.5 171.39 422.09 170.62 421.65C170.73 421.04 172.22 421.19 172.7 421.02C174.11 420.54 175.36 419.45 176.88 419.28C178.2 419.13 179.6 419.26 180.9 419.05C181.67 418.93 183 418.26 182.3 417.47C181.74 416.84 180.92 416.37 180.21 415.91C178.94 415.1 177.51 414.65 176.01 414.47C176.06 414.47 174.56 414.52 174.39 414.4C174.04 414.15 174.1 413.44 174.2 413.11C174.46 412.24 175.38 412.44 176.13 412.63C177.46 412.97 178.43 414.3 179.82 414.64C180.7 414.86 181.64 414.9 182.54 414.95C183.39 415 183.97 415.62 184.76 415.8C185.12 415.88 186.62 415.9 186.97 415.73C187.1 415.66 187.37 415.32 187.49 415.21C187.71 415 188.12 414.79 188.29 414.49C188.63 413.89 188.17 413.93 187.85 413.42C187.44 412.74 187.92 412.8 188.52 413C189.31 413.27 190.39 413.75 190.82 414.55C190.65 414.97 190.36 415.27 190.31 415.73C190.24 415.75 190.16 415.76 190.63 415.24L190.66 415.27Z" fill="#B6F0FF"/>
<path d="M327.47 440.18C325.81 440.18 324.13 440.08 322.47 440.18C316.46 440.51 310.77 442.92 304.77 443.49C303.38 443.62 301.9 443.73 300.62 444.33C300.24 444.51 299.8 444.88 299.4 445C298.52 445.26 297.1 445 296.22 444.99C292.74 444.97 289.27 445.28 285.8 445.35C282.01 445.42 278.19 446.16 274.49 446.94C271.91 447.48 269.01 446.94 266.39 447.22C264.63 447.41 262.84 447.96 261.08 447.68C259.04 447.36 257.08 447.46 255.02 447.46C251.6 447.46 248.27 446.31 245.27 444.75C244.56 444.38 243.9 444.09 243.1 443.9C241.5 443.52 239.73 443.58 238.19 443.05C237.5 442.81 236.97 442.46 236.32 442.12C235.35 441.62 234.06 440.98 233.03 441.43C232.45 441.68 231.95 442.15 231.36 442.42C230.86 442.65 230.34 442.79 229.84 443C230.47 445.13 234.71 445.71 236.44 446.16C237.38 446.4 238.22 446.69 239.14 447.01C240.13 447.35 241.15 447.35 242.15 447.63C243.56 448.03 244.6 449.16 245.14 450.55C245.46 451.35 244.97 452.01 245.68 452.59C246.87 453.58 249.33 453.29 250.78 453.27C251.94 453.26 253.06 453.27 254.23 453.35C255.65 453.45 257.46 453.89 258.84 453.6C259.28 453.51 259.61 453.31 260.08 453.25C261.06 453.12 262.07 453.33 263.06 453.21C264.18 453.08 265.31 452.53 266.43 452.52C267.13 452.52 267.73 452.91 268.35 453.19C269.59 453.76 270.54 453.59 271.91 453.31C273.17 453.05 274.03 452.49 275.19 452.11C275.79 451.91 276.31 451.92 276.93 451.85C278.34 451.7 280 451.05 281.19 450.3C281.59 450.05 281.8 449.81 282.25 449.79C282.89 449.77 284.11 450.72 284.68 451.03C285.33 451.38 286.22 451.75 286.86 452.18C287.69 452.74 288.26 453.68 288.95 454.37C289.97 455.38 291.04 455.79 292.49 456C296.45 456.59 300.13 454.32 304.03 454.25C305.68 454.22 307.35 454.37 309 454.32C309.85 454.3 310.94 454.3 311.27 453.33C310.92 452.17 307.83 452.06 307.27 451.97C303.17 451.32 298.86 451.17 294.71 451.17C292.13 451.17 289.68 451.35 287.11 451.48C286.44 451.82 285.98 451.74 285.74 451.24C285.87 450.9 285.98 450.56 286.08 450.21C286.6 449.59 287.07 449.8 287.96 449.81C290.77 449.86 293.6 449.89 296.4 449.84C297.97 449.81 299.47 449.5 300.95 448.98C302.19 448.31 303.51 447.89 304.92 447.72C306.6 447.58 308.27 447.35 309.93 447.04C310.83 446.77 310.65 446.75 311.47 446.71C312.44 446.73 313.41 446.74 314.38 446.74C315.12 446.76 315.85 446.66 316.55 446.43C317.41 446.36 317.75 446.7 318.49 447.07C319.71 447.67 321.08 447.77 322.41 447.76C323.4 447.76 324.4 447.76 325.39 447.76C326.1 447.76 326.95 447.9 327.49 447.33C327.45 446.84 322.22 445.54 323.76 444.03C324.15 443.65 327.46 443.97 327.67 443.97C329.08 443.97 330.5 444.01 331.91 443.99C333.79 443.96 335.69 443.68 337.51 443.19C338.11 443.03 339.67 442.67 340 441.92C339.36 440.76 337.22 440.51 336.04 440.53C334.98 440.54 333.92 440.53 332.86 440.53C330.84 440.53 328.83 440.53 327.5 440.19L327.47 440.18Z" fill="#B6F0FF"/>
</g>
<defs>
<clipPath id="clip0_188_16699">
<rect width="350" height="570" fill="white"/>
</clipPath>
</defs>
</svg>
