<svg width="255" height="64" viewBox="0 0 255 64" fill="none" xmlns="http://www.w3.org/2000/svg">
<g clip-path="url(#clip0_9_169)">
<path d="M253.68 62.67C253.4 62.95 253.51 62.17 253.11 62.17C252.71 62.17 252.72 62.48 252.32 62.48C251.92 62.48 251.93 62.38 251.53 62.38C251.13 62.38 251.14 62.98 250.74 62.98C250.34 62.98 250.35 62.19 249.95 62.19C249.55 62.19 249.56 63.34 249.16 63.34C248.76 63.34 248.77 62.49 248.37 62.49C247.97 62.49 247.98 63.25 247.58 63.25C247.18 63.25 247.19 62.57 246.79 62.57C246.39 62.57 246.4 62.31 246 62.31C245.6 62.31 245.61 63.36 245.21 63.36C244.81 63.36 244.82 63.55 244.42 63.55C244.02 63.55 244.03 62.46 243.63 62.46C243.23 62.46 243.24 62.75 242.84 62.75C242.44 62.75 242.45 62.82 242.05 62.82C241.65 62.82 241.66 63.15 241.26 63.15C240.86 63.15 240.87 63.52 240.47 63.52C240.07 63.52 240.08 63.28 239.68 63.28C239.28 63.28 239.29 62.34 238.89 62.34C238.49 62.34 238.5 62.4 238.1 62.4C237.7 62.4 237.71 63.46 237.31 63.46C236.91 63.46 236.92 63.58 236.52 63.58C236.12 63.58 236.13 63.53 235.73 63.53C235.33 63.53 235.34 62.2 234.94 62.2C234.54 62.2 234.55 63.22 234.15 63.22C233.75 63.22 233.76 62.19 233.36 62.19C232.96 62.19 232.97 62.78 232.57 62.78C232.17 62.78 232.18 62.18 231.78 62.18C231.38 62.18 231.39 62.27 230.99 62.27C230.59 62.27 230.6 62.87 230.2 62.87C229.8 62.87 229.81 62.75 229.41 62.75C229.01 62.75 229.02 62.37 228.62 62.37C228.22 62.37 228.23 62.6 227.83 62.6C227.43 62.6 227.44 63.09 227.04 63.09C226.64 63.09 226.64 62.74 226.25 62.74C225.86 62.74 225.85 62.24 225.46 62.24C225.07 62.24 225.06 63.61 224.67 63.61C224.28 63.61 224.27 62.65 223.88 62.65C223.49 62.65 223.48 63.39 223.09 63.39C222.7 63.39 222.69 63.36 222.3 63.36C221.91 63.36 221.9 62.39 221.51 62.39C221.12 62.39 221.11 62.85 220.72 62.85C220.33 62.85 220.32 62.89 219.93 62.89C219.54 62.89 219.53 63.38 219.14 63.38C218.75 63.38 218.74 62.85 218.35 62.85C217.96 62.85 217.95 62.4 217.56 62.4C217.17 62.4 217.16 63.43 216.77 63.43C216.38 63.43 216.37 62.93 215.98 62.93C215.59 62.93 215.58 62.6 215.19 62.6C214.8 62.6 214.79 62.84 214.4 62.84C214.01 62.84 214 63.48 213.61 63.48C213.22 63.48 213.21 62.28 212.82 62.28C212.43 62.28 212.42 63.51 212.03 63.51C211.64 63.51 211.63 62.51 211.24 62.51C210.85 62.51 210.84 62.44 210.45 62.44C210.06 62.44 210.05 63.58 209.66 63.58C209.27 63.58 209.26 62.96 208.87 62.96C208.48 62.96 208.48 62.48 208.08 62.48C207.68 62.48 207.69 62.14 207.29 62.14C206.89 62.14 206.9 62.81 206.5 62.81C206.1 62.81 206.11 62.21 205.71 62.21C205.31 62.21 205.32 63.24 204.92 63.24C204.52 63.24 204.53 62.95 204.13 62.95C203.73 62.95 203.74 62.69 203.34 62.69C202.94 62.69 202.95 62.86 202.55 62.86C202.15 62.86 202.16 62.18 201.76 62.18C201.36 62.18 201.37 63.33 200.97 63.33C200.57 63.33 200.58 63.21 200.18 63.21C199.78 63.21 199.79 63.47 199.39 63.47C198.99 63.47 199 62.39 198.6 62.39C198.2 62.39 198.21 63.57 197.81 63.57C197.41 63.57 197.42 62.55 197.02 62.55C196.62 62.55 196.63 62.12 196.23 62.12C195.83 62.12 195.84 63.35 195.44 63.35C195.04 63.35 195.05 62.85 194.65 62.85C194.25 62.85 194.26 63.19 193.86 63.19C193.46 63.19 193.47 63.54 193.07 63.54C192.67 63.54 192.68 62.32 192.28 62.32C191.88 62.32 191.89 62.36 191.49 62.36C191.09 62.36 191.1 62.47 190.7 62.47C190.3 62.47 190.31 62.87 189.91 62.87C189.51 62.87 189.52 62.67 189.12 62.67C188.72 62.67 188.73 62.32 188.33 62.32C187.93 62.32 187.93 62.24 187.54 62.24C187.15 62.24 187.14 62.63 186.75 62.63C186.36 62.63 186.35 63.47 185.96 63.47C185.57 63.47 185.56 62.48 185.17 62.48C184.78 62.48 184.77 63.07 184.38 63.07C183.99 63.07 183.98 63.07 183.59 63.07C183.2 63.07 183.19 63 182.8 63C182.41 63 182.4 63.08 182.01 63.08C181.62 63.08 181.61 62.41 181.22 62.41C180.83 62.41 180.82 62.62 180.43 62.62C180.04 62.62 180.03 62.52 179.64 62.52C179.25 62.52 179.24 62.15 178.85 62.15C178.46 62.15 178.45 63.26 178.06 63.26C177.67 63.26 177.66 63.28 177.27 63.28C176.88 63.28 176.87 63.51 176.48 63.51C176.09 63.51 176.08 62.82 175.69 62.82C175.3 62.82 175.29 62.5 174.9 62.5C174.51 62.5 174.5 63.05 174.11 63.05C173.72 63.05 173.71 63.08 173.32 63.08C172.93 63.08 172.93 62.32 172.53 62.32C172.13 62.32 172.14 63.55 171.74 63.55C171.34 63.55 171.35 62.2 170.95 62.2C170.55 62.2 170.56 63.45 170.16 63.45C169.76 63.45 169.77 62.11 169.37 62.11C168.97 62.11 168.98 62.8 168.58 62.8C168.18 62.8 168.19 62.33 167.79 62.33C167.39 62.33 167.4 62.14 167 62.14C166.6 62.14 166.61 63.1 166.21 63.1C165.81 63.1 165.82 63.32 165.42 63.32C165.02 63.32 165.03 62.23 164.63 62.23C164.23 62.23 164.24 63.2 163.84 63.2C163.44 63.2 163.45 62.83 163.05 62.83C162.65 62.83 162.66 62.57 162.26 62.57C161.86 62.57 161.87 63.04 161.47 63.04C161.07 63.04 161.08 62.5 160.68 62.5C160.28 62.5 160.29 62.56 159.89 62.56C159.49 62.56 159.5 62.91 159.1 62.91C158.7 62.91 158.71 62.29 158.31 62.29C157.91 62.29 157.92 62.36 157.52 62.36C157.12 62.36 157.13 62.95 156.73 62.95C156.33 62.95 156.34 62.21 155.94 62.21C155.54 62.21 155.55 63.01 155.15 63.01C154.75 63.01 154.76 62.72 154.36 62.72C153.96 62.72 153.97 62.72 153.57 62.72C153.17 62.72 153.18 62.91 152.78 62.91C152.38 62.91 152.39 62.35 151.99 62.35C151.59 62.35 151.6 62.72 151.2 62.72C150.8 62.72 150.81 62.95 150.41 62.95C150.01 62.95 150.02 62.64 149.62 62.64C149.22 62.64 149.23 62.53 148.83 62.53C148.43 62.53 148.44 62.4 148.04 62.4C147.64 62.4 147.65 62.73 147.25 62.73C146.85 62.73 146.86 63.55 146.46 63.55C146.06 63.55 146.07 62.65 145.67 62.65C145.27 62.65 145.28 62.17 144.88 62.17C144.48 62.17 144.49 62.51 144.09 62.51C143.69 62.51 143.7 63.26 143.3 63.26C142.9 63.26 142.91 63.36 142.51 63.36C142.11 63.36 142.12 63.09 141.72 63.09C141.32 63.09 141.33 62.18 140.93 62.18C140.53 62.18 140.54 62.92 140.14 62.92C139.74 62.92 139.75 62.6 139.35 62.6C138.95 62.6 138.96 62.67 138.56 62.67C138.16 62.67 138.17 62.8 137.77 62.8C137.37 62.8 137.38 63.27 136.98 63.27C136.58 63.27 136.59 62.65 136.19 62.65C135.79 62.65 135.8 63.26 135.4 63.26C135 63.26 135.01 62.15 134.61 62.15C134.21 62.15 134.22 62.69 133.82 62.69C133.42 62.69 133.43 63.32 133.03 63.32C132.63 63.32 132.64 62.91 132.24 62.91C131.84 62.91 131.85 63.41 131.45 63.41C131.05 63.41 131.05 63 130.66 63C130.27 63 130.26 62.99 129.87 62.99C129.48 62.99 129.47 62.7 129.08 62.7C128.69 62.7 128.68 62.88 128.29 62.88C127.9 62.88 127.89 62.19 127.5 62.19C127.11 62.19 127.1 62.37 126.71 62.37C126.32 62.37 126.31 62.11 125.92 62.11C125.53 62.11 125.52 62.07 125.13 62.07C124.74 62.07 124.73 62.59 124.34 62.59C123.95 62.59 123.94 62.12 123.55 62.12C123.16 62.12 123.15 62.43 122.76 62.43C122.37 62.43 122.36 62.24 121.97 62.24C121.58 62.24 121.57 63.07 121.18 63.07C120.79 63.07 120.78 62.86 120.39 62.86C120 62.86 119.99 62.27 119.6 62.27C119.21 62.27 119.2 62.63 118.81 62.63C118.42 62.63 118.41 62.19 118.02 62.19C117.63 62.19 117.62 63.36 117.23 63.36C116.84 63.36 116.83 63.33 116.44 63.33C116.05 63.33 116.04 62.76 115.65 62.76C115.26 62.76 115.25 62.13 114.86 62.13C114.47 62.13 114.47 62.34 114.07 62.34C113.67 62.34 113.68 63.14 113.28 63.14C112.88 63.14 112.89 62.89 112.49 62.89C112.09 62.89 112.1 62.49 111.7 62.49C111.3 62.49 111.31 62.69 110.91 62.69C110.51 62.69 110.52 63.45 110.12 63.45C109.72 63.45 109.73 62.96 109.33 62.96C108.93 62.96 108.94 62.51 108.54 62.51C108.14 62.51 108.15 62.36 107.75 62.36C107.35 62.36 107.36 63.38 106.96 63.38C106.56 63.38 106.57 63.09 106.17 63.09C105.77 63.09 105.78 62.35 105.38 62.35C104.98 62.35 104.99 62.56 104.59 62.56C104.19 62.56 104.2 63.07 103.8 63.07C103.4 63.07 103.41 63.22 103.01 63.22C102.61 63.22 102.62 62.31 102.22 62.31C101.82 62.31 101.83 62.31 101.43 62.31C101.03 62.31 101.03 63.49 100.64 63.49C100.25 63.49 100.24 63.15 99.85 63.15C99.46 63.15 99.45 62.69 99.06 62.69C98.67 62.69 98.66 62.45 98.27 62.45C97.88 62.45 97.87 62.45 97.48 62.45C97.09 62.45 97.08 62.12 96.69 62.12C96.3 62.12 96.29 63.17 95.9 63.17C95.51 63.17 95.5 63.3 95.11 63.3C94.72 63.3 94.71 62.83 94.32 62.83C93.93 62.83 93.92 62.46 93.53 62.46C93.14 62.46 93.13 62.99 92.74 62.99C92.35 62.99 92.34 62.39 91.95 62.39C91.56 62.39 91.55 62.67 91.16 62.67C90.77 62.67 90.76 62.6 90.37 62.6C89.98 62.6 89.97 62.26 89.58 62.26C89.19 62.26 89.18 62.31 88.79 62.31C88.4 62.31 88.39 62.89 88 62.89C87.61 62.89 87.6 62.09 87.21 62.09C86.82 62.09 86.81 62.56 86.42 62.56C86.03 62.56 86.02 63.01 85.63 63.01C85.24 63.01 85.23 62.23 84.84 62.23C84.45 62.23 84.44 62.62 84.05 62.62C83.66 62.62 83.65 62.77 83.26 62.77C82.87 62.77 82.86 62.56 82.47 62.56C82.08 62.56 82.07 63.15 81.68 63.15C81.29 63.15 81.28 63.34 80.89 63.34C80.5 63.34 80.49 63.4 80.1 63.4C79.71 63.4 79.7 63.33 79.31 63.33C78.92 63.33 78.91 62.79 78.52 62.79C78.13 62.79 78.12 63.23 77.73 63.23C77.34 63.23 77.33 63.21 76.94 63.21C76.55 63.21 76.54 63.48 76.15 63.48C75.76 63.48 75.75 63.23 75.36 63.23C74.97 63.23 74.96 62.78 74.57 62.78C74.18 62.78 74.17 62.8 73.78 62.8C73.39 62.8 73.38 62.75 72.99 62.75C72.6 62.75 72.59 63.18 72.2 63.18C71.81 63.18 71.8 62.62 71.41 62.62C71.02 62.62 71.01 62.24 70.62 62.24C70.23 62.24 70.22 62.36 69.83 62.36C69.44 62.36 69.43 62.21 69.04 62.21C68.65 62.21 68.64 63.4 68.25 63.4C67.86 63.4 67.85 62.68 67.46 62.68C67.07 62.68 67.06 62.28 66.67 62.28C66.28 62.28 66.27 62.49 65.88 62.49C65.49 62.49 65.48 63.13 65.09 63.13C64.7 63.13 64.69 62.05 64.3 62.05C63.91 62.05 63.9 62.9 63.51 62.9C63.12 62.9 63.11 62.61 62.72 62.61C62.33 62.61 62.32 62.34 61.93 62.34C61.54 62.34 61.53 62.52 61.14 62.52C60.75 62.52 60.74 62.3 60.35 62.3C59.96 62.3 59.95 63.48 59.56 63.48C59.17 63.48 59.16 62.55 58.77 62.55C58.38 62.55 58.37 62.89 57.98 62.89C57.59 62.89 57.58 62.1 57.19 62.1C56.8 62.1 56.79 62.55 56.4 62.55C56.01 62.55 56 62.47 55.61 62.47C55.22 62.47 55.21 63.03 54.82 63.03C54.43 63.03 54.42 62.7 54.03 62.7C53.64 62.7 53.63 62.52 53.24 62.52C52.85 62.52 52.84 63.12 52.45 63.12C52.06 63.12 52.05 62.3 51.66 62.3C51.27 62.3 51.26 62.2 50.87 62.2C50.48 62.2 50.47 63.17 50.08 63.17C49.69 63.17 49.68 62.06 49.29 62.06C48.9 62.06 48.89 62.52 48.5 62.52C48.11 62.52 48.1 62.52 47.71 62.52C47.32 62.52 47.31 62.39 46.92 62.39C46.53 62.39 46.52 63.13 46.13 63.13C45.74 63.13 45.73 62.12 45.34 62.12C44.95 62.12 44.94 62.44 44.55 62.44C44.16 62.44 44.15 62.56 43.76 62.56C43.37 62.56 43.36 62.06 42.97 62.06C42.58 62.06 42.57 62.41 42.18 62.41C41.79 62.41 41.78 63.47 41.39 63.47C41 63.47 40.99 62.57 40.6 62.57C40.21 62.57 40.2 63.25 39.81 63.25C39.42 63.25 39.41 62.09 39.02 62.09C38.63 62.09 38.62 62.39 38.23 62.39C37.84 62.39 37.83 62.17 37.44 62.17C37.05 62.17 37.04 62.3 36.65 62.3C36.26 62.3 36.25 62.48 35.86 62.48C35.47 62.48 35.46 62.4 35.07 62.4C34.68 62.4 34.67 63.43 34.28 63.43C33.89 63.43 33.88 63.17 33.49 63.17C33.1 63.17 33.09 62.64 32.69 62.64C32.29 62.64 32.29 63.11 31.89 63.11C31.49 63.11 31.49 62.61 31.1 62.61C30.71 62.61 30.7 63.11 30.31 63.11C29.92 63.11 29.91 62.23 29.52 62.23C29.13 62.23 29.12 62.77 28.73 62.77C28.34 62.77 28.33 62.85 27.94 62.85C27.55 62.85 27.54 62.13 27.15 62.13C26.76 62.13 26.75 63.44 26.36 63.44C25.97 63.44 25.96 63.3 25.57 63.3C25.18 63.3 25.17 62.81 24.77 62.81C24.37 62.81 24.37 63.38 23.97 63.38C23.57 63.38 23.57 62.58 23.17 62.58C22.77 62.58 22.77 62.99 22.37 62.99C21.97 62.99 21.97 62.41 21.58 62.41C21.19 62.41 21.18 62.1 20.79 62.1C20.4 62.1 20.39 62.06 19.99 62.06C19.59 62.06 19.59 62.39 19.19 62.39C18.79 62.39 18.79 62.3 18.39 62.3C17.99 62.3 17.99 62.54 17.59 62.54C17.19 62.54 17.19 63.05 16.79 63.05C16.39 63.05 16.39 62.16 15.99 62.16C15.59 62.16 15.59 62.85 15.19 62.85C14.79 62.85 14.79 62.55 14.39 62.55C13.99 62.55 13.99 63.42 13.6 63.42C13.21 63.42 13.2 63.07 12.8 63.07C12.4 63.07 12.4 62.27 12 62.27C11.6 62.27 11.6 62.04 11.2 62.04C10.8 62.04 10.8 62.27 10.41 62.27C10.02 62.27 10.01 62.39 9.61 62.39C9.21 62.39 9.21 62.92 8.81 62.92C8.41 62.92 8.41 62.47 8.01 62.47C7.61 62.47 7.61 62.22 7.21 62.22C6.81 62.22 6.81 62.65 6.41 62.65C6.01 62.65 6.01 62.15 5.61 62.15C5.21 62.15 5.21 63.21 4.81 63.21C4.41 63.21 4.41 63.21 4.01 63.21C3.61 63.21 3.61 62.89 3.21 62.89C2.81 62.89 2.81 62.97 2.41 62.97C2.01 62.97 2.01 63.2 1.61 63.2C1.21 63.2 0.69 63.47 0.4 63.2C0.11 62.93 1.54 62.39 1.54 62C1.54 61.61 1.05 61.61 1.05 61.22C1.05 60.83 0.61 60.83 0.61 60.44C0.61 60.05 0.17 60.05 0.17 59.66C0.17 59.27 0.96 59.27 0.96 58.88C0.96 58.49 0.93 58.49 0.93 58.09C0.93 57.69 0.38 57.7 0.38 57.3C0.38 56.9 0.33 56.91 0.33 56.51C0.33 56.11 1.49 56.12 1.49 55.72C1.49 55.32 1.36 55.33 1.36 54.93C1.36 54.53 0.82 54.54 0.82 54.14C0.82 53.74 1.47 53.75 1.47 53.35C1.47 52.95 1.21 52.96 1.21 52.56C1.21 52.16 0.29 52.17 0.29 51.77C0.29 51.37 0.81 51.38 0.81 50.99C0.81 50.6 0.55 50.6 0.55 50.21C0.55 49.82 1.32 49.82 1.32 49.43C1.32 49.04 0.61 49.04 0.61 48.64C0.61 48.24 0.5 48.25 0.5 47.85C0.5 47.45 0.62 47.46 0.62 47.07C0.62 46.68 0.42 46.68 0.42 46.28C0.42 45.88 0.66 45.89 0.66 45.49C0.66 45.09 1.39 45.1 1.39 44.7C1.39 44.3 1.26 44.31 1.26 43.91C1.26 43.51 0.18 43.52 0.18 43.13C0.18 42.74 1.21 42.74 1.21 42.35C1.21 41.96 1.44 41.96 1.44 41.57C1.44 41.18 0.23 41.18 0.23 40.79C0.23 40.4 0.92 40.4 0.92 40.01C0.92 39.62 1.45 39.62 1.45 39.23C1.45 38.84 1.27 38.84 1.27 38.45C1.27 38.06 1.3 38.06 1.3 37.67C1.3 37.28 1.29 37.28 1.29 36.89C1.29 36.5 1.55 36.5 1.55 36.11C1.55 35.72 0.56 35.72 0.56 35.33C0.56 34.94 1.46 34.94 1.46 34.55C1.46 34.16 0.4 34.16 0.4 33.76C0.4 33.36 1.03 33.37 1.03 32.97C1.03 32.57 0.44 32.58 0.44 32.18C0.44 31.78 0.79 31.79 0.79 31.39C0.79 30.99 1.17 31 1.17 30.6C1.17 30.2 1.21 30.21 1.21 29.81C1.21 29.41 0 29.54 0 29.15C0 28.76 0.67 28.76 0.67 28.37C0.67 27.98 1.21 27.98 1.21 27.59C1.21 27.2 1.12 27.2 1.12 26.8C1.12 26.4 0.3 26.41 0.3 26.01C0.3 25.61 0.7 25.62 0.7 25.22C0.7 24.82 0.75 24.83 0.75 24.43C0.75 24.03 1.48 24.04 1.48 23.64C1.48 23.24 1.36 23.25 1.36 22.85C1.36 22.45 1.34 22.46 1.34 22.06C1.34 21.66 0.77 21.67 0.77 21.27C0.77 20.87 0.66 20.88 0.66 20.48C0.66 20.08 0.44 20.09 0.44 19.69C0.44 19.29 1.05 19.3 1.05 18.9C1.05 18.5 0.63 18.51 0.63 18.11C0.63 17.71 1.34 17.72 1.34 17.32C1.34 16.92 1.4 16.93 1.4 16.53C1.4 16.13 0.86 16.14 0.86 15.74C0.86 15.34 0.12 15.35 0.12 14.95C0.12 14.55 0.91 14.56 0.91 14.16C0.91 13.76 1.45 13.77 1.45 13.38C1.45 12.99 1.23 12.99 1.23 12.59C1.23 12.19 0.76 12.2 0.76 11.8C0.76 11.4 0.27 11.41 0.27 11.01C0.27 10.61 1.06 10.62 1.06 10.22C1.06 9.82 0.53 9.83 0.53 9.43C0.53 9.03 1.48 9.03 1.48 8.64C1.48 8.25 0.44 8.25 0.44 7.85C0.44 7.45 1.31 7.46 1.31 7.06C1.31 6.66 0.81 6.66 0.81 6.27C0.81 5.88 1.37 5.87 1.37 5.48C1.37 5.09 1.45 5.08 1.45 4.69C1.45 4.3 1.12 4.3 1.12 3.9C1.12 3.5 1.44 3.5 1.44 3.11C1.44 2.72 0.09 2.74 0.09 2.35C0.09 1.96 0.25 1.95 0.25 1.55C0.25 1.15 0.8 1.38 1.08 1.1C1.36 0.82 1.13 1.42 1.52 1.42C1.91 1.42 1.91 1.2 2.31 1.2C2.71 1.2 2.7 0.89 3.1 0.89C3.5 0.89 3.5 0.02 3.9 0.02C4.3 0.02 4.29 0.18 4.69 0.18C5.09 0.18 5.08 1.03 5.48 1.03C5.88 1.03 5.87 1.26 6.27 1.26C6.67 1.26 6.66 1.51 7.06 1.51C7.46 1.51 7.45 0.83 7.85 0.83C8.25 0.83 8.24 0.77 8.64 0.77C9.04 0.77 9.03 0.64 9.43 0.64C9.83 0.64 9.82 1.27 10.22 1.27C10.62 1.27 10.61 1.11 11.01 1.11C11.41 1.11 11.4 1.34 11.8 1.34C12.2 1.34 12.19 1.25 12.59 1.25C12.99 1.25 12.98 0.75 13.38 0.75C13.78 0.75 13.77 0.54 14.17 0.54C14.57 0.54 14.56 0.24 14.96 0.24C15.36 0.24 15.35 0.54 15.75 0.54C16.15 0.54 16.14 0.28 16.54 0.28C16.94 0.28 16.93 1.04 17.33 1.04C17.73 1.04 17.72 0.54 18.12 0.54C18.52 0.54 18.51 1.23 18.91 1.23C19.31 1.23 19.3 0.57 19.7 0.57C20.1 0.57 20.09 1.02 20.49 1.02C20.89 1.02 20.88 0.83 21.28 0.83C21.68 0.83 21.67 0.47 22.07 0.47C22.47 0.47 22.46 0.51 22.86 0.51C23.26 0.51 23.25 1.07 23.65 1.07C24.05 1.07 24.04 0.67 24.44 0.67C24.84 0.67 24.83 0.58 25.23 0.58C25.63 0.58 25.62 1.48 26.02 1.48C26.42 1.48 26.41 1.35 26.81 1.35C27.21 1.35 27.2 0.8 27.6 0.8C28 0.8 28 0.89 28.39 0.89C28.78 0.89 28.79 1.43 29.18 1.43C29.57 1.43 29.58 0.08 29.97 0.08C30.36 0.08 30.37 1.09 30.76 1.09C31.15 1.09 31.16 1.35 31.55 1.35C31.94 1.35 31.95 1 32.34 1C32.73 1 32.74 0.13 33.13 0.13C33.52 0.13 33.53 1.01 33.92 1.01C34.31 1.01 34.32 0.05 34.71 0.05C35.1 0.05 35.11 0.6 35.5 0.6C35.89 0.6 35.9 0.07 36.29 0.07C36.68 0.07 36.69 1.24 37.08 1.24C37.47 1.24 37.48 0.06 37.87 0.06C38.26 0.06 38.27 1.36 38.66 1.36C39.05 1.36 39.06 0.78 39.45 0.78C39.84 0.78 39.85 0.5 40.24 0.5C40.63 0.5 40.64 0.3 41.03 0.3C41.42 0.3 41.43 1.08 41.82 1.08C42.21 1.08 42.22 0.86 42.61 0.86C43 0.86 43.01 1.21 43.4 1.21C43.79 1.21 43.8 0.79 44.19 0.79C44.58 0.79 44.59 1.23 44.98 1.23C45.37 1.23 45.38 0.04 45.77 0.04C46.16 0.04 46.16 0.26 46.56 0.26C46.96 0.26 46.95 0.38 47.35 0.38C47.75 0.38 47.74 0.92 48.14 0.92C48.54 0.92 48.53 0.42 48.93 0.42C49.33 0.42 49.32 0.99 49.72 0.99C50.12 0.99 50.11 0.4 50.51 0.4C50.91 0.4 50.9 1.42 51.3 1.42C51.7 1.42 51.69 0.37 52.09 0.37C52.49 0.37 52.48 1.36 52.88 1.36C53.28 1.36 53.27 1.27 53.67 1.27C54.07 1.27 54.06 0.13 54.46 0.13C54.86 0.13 54.85 1.32 55.25 1.32C55.65 1.32 55.64 0.63 56.04 0.63C56.44 0.63 56.43 1.3 56.83 1.3C57.23 1.3 57.22 0.82 57.62 0.82C58.02 0.82 58.01 1.13 58.41 1.13C58.81 1.13 58.8 0.76 59.2 0.76C59.6 0.76 59.59 1.22 59.99 1.22C60.39 1.22 60.38 0.58 60.78 0.58C61.18 0.58 61.17 0.17 61.57 0.17C61.97 0.17 61.96 0.77 62.36 0.77C62.76 0.77 62.75 0.93 63.15 0.93C63.55 0.93 63.54 0.26 63.94 0.26C64.34 0.26 64.33 0.03 64.73 0.03C65.13 0.03 65.12 1.27 65.52 1.27C65.92 1.27 65.91 1.16 66.31 1.16C66.71 1.16 66.71 0.28 67.1 0.28C67.49 0.28 67.5 1.15 67.89 1.15C68.28 1.15 68.29 0.76 68.68 0.76C69.07 0.76 69.08 0.96 69.47 0.96C69.86 0.96 69.87 1.03 70.26 1.03C70.65 1.03 70.66 0.55 71.05 0.55C71.44 0.55 71.45 0.84 71.84 0.84C72.23 0.84 72.24 0.88 72.63 0.88C73.02 0.88 73.03 0.55 73.42 0.55C73.81 0.55 73.82 0.57 74.21 0.57C74.6 0.57 74.61 0.41 75 0.41C75.39 0.41 75.4 1.05 75.79 1.05C76.18 1.05 76.19 0.79 76.58 0.79C76.97 0.79 76.98 0.91 77.37 0.91C77.76 0.91 77.77 0.64 78.16 0.64C78.55 0.64 78.56 1.05 78.95 1.05C79.34 1.05 79.33 0 79.72 0C80.11 0 80.12 0.06 80.51 0.06C80.9 0.06 80.91 0.74 81.3 0.74C81.69 0.74 81.69 0.03 82.09 0.03C82.49 0.03 82.48 0.81 82.88 0.81C83.28 0.81 83.27 1.11 83.67 1.11C84.07 1.11 84.06 0.08 84.46 0.08C84.86 0.08 84.85 0.54 85.25 0.54C85.65 0.54 85.64 1.12 86.04 1.12C86.44 1.12 86.43 1.25 86.83 1.25C87.23 1.25 87.22 0.74 87.62 0.74C88.02 0.74 88.01 1.42 88.41 1.42C88.81 1.42 88.8 0.01 89.2 0.01C89.6 0.01 89.59 0.58 89.99 0.58C90.39 0.58 90.38 1.4 90.78 1.4C91.18 1.4 91.17 1.03 91.57 1.03C91.97 1.03 91.96 1.09 92.36 1.09C92.76 1.09 92.75 0.53 93.15 0.53C93.55 0.53 93.54 0.92 93.94 0.92C94.34 0.92 94.33 0.66 94.73 0.66C95.13 0.66 95.12 0.31 95.52 0.31C95.92 0.31 95.91 0.39 96.31 0.39C96.71 0.39 96.7 1.35 97.1 1.35C97.5 1.35 97.49 0.99 97.89 0.99C98.29 0.99 98.28 0.92 98.68 0.92C99.08 0.92 99.07 0 99.47 0C99.87 0 99.86 1.11 100.26 1.11C100.66 1.11 100.65 0.79 101.05 0.79C101.45 0.79 101.44 0.28 101.84 0.28C102.24 0.28 102.23 0.46 102.63 0.46C103.03 0.46 103.02 1.49 103.42 1.49C103.82 1.49 103.81 1.46 104.21 1.46C104.61 1.46 104.6 0.34 105 0.34C105.4 0.34 105.39 0.23 105.79 0.23C106.19 0.23 106.18 0.59 106.58 0.59C106.98 0.59 106.97 0.82 107.37 0.82C107.77 0.82 107.76 0.09 108.16 0.09C108.56 0.09 108.55 1.34 108.95 1.34C109.35 1.34 109.34 0.9 109.74 0.9C110.14 0.9 110.13 1.05 110.53 1.05C110.93 1.05 110.92 0.64 111.32 0.64C111.72 0.64 111.71 0.3 112.11 0.3C112.51 0.3 112.5 0.07 112.9 0.07C113.3 0.07 113.29 0.42 113.69 0.42C114.09 0.42 114.08 0.85 114.48 0.85C114.88 0.85 114.87 1.12 115.27 1.12C115.67 1.12 115.66 0.09 116.06 0.09C116.46 0.09 116.45 1.39 116.85 1.39C117.25 1.39 117.24 0.58 117.64 0.58C118.04 0.58 118.03 0.79 118.43 0.79C118.83 0.79 118.82 1.46 119.22 1.46C119.62 1.46 119.61 0.06 120.01 0.06C120.41 0.06 120.4 0.09 120.8 0.09C121.2 0.09 121.19 1.35 121.59 1.35C121.99 1.35 121.98 0.95 122.38 0.95C122.78 0.95 122.77 0.3 123.17 0.3C123.57 0.3 123.57 0.48 123.96 0.48C124.35 0.48 124.36 0.41 124.75 0.41C125.14 0.41 125.15 0.39 125.54 0.39C125.93 0.39 125.94 0.79 126.33 0.79C126.72 0.79 126.73 1.38 127.12 1.38C127.51 1.38 127.52 0.54 127.91 0.54C128.3 0.54 128.31 1.13 128.7 1.13C129.09 1.13 129.1 1.33 129.49 1.33C129.88 1.33 129.89 0.7 130.28 0.7C130.67 0.7 130.68 0.1 131.07 0.1C131.46 0.1 131.47 0.7 131.86 0.7C132.25 0.7 132.26 0.9 132.65 0.9C133.04 0.9 133.05 0.24 133.44 0.24C133.83 0.24 133.84 1.22 134.23 1.22C134.62 1.22 134.63 1.22 135.02 1.22C135.41 1.22 135.42 0.5 135.81 0.5C136.2 0.5 136.21 0.79 136.6 0.79C136.99 0.79 137 0.81 137.39 0.81C137.78 0.81 137.79 0.58 138.18 0.58C138.57 0.58 138.58 1.45 138.97 1.45C139.36 1.45 139.37 1.04 139.76 1.04C140.15 1.04 140.15 0.02 140.55 0.02C140.95 0.02 140.94 0.24 141.34 0.24C141.74 0.24 141.73 0.02 142.13 0.02C142.53 0.02 142.52 0.7 142.92 0.7C143.32 0.7 143.31 1.17 143.71 1.17C144.11 1.17 144.1 0.57 144.5 0.57C144.9 0.57 144.89 0.99 145.29 0.99C145.69 0.99 145.68 0.97 146.08 0.97C146.48 0.97 146.47 0.39 146.87 0.39C147.27 0.39 147.26 0.96 147.66 0.96C148.06 0.96 148.05 0.75 148.45 0.75C148.85 0.75 148.84 1.02 149.24 1.02C149.64 1.02 149.63 0.94 150.03 0.94C150.43 0.94 150.42 1.49 150.82 1.49C151.22 1.49 151.21 0.77 151.61 0.77C152.01 0.77 152 0.53 152.4 0.53C152.8 0.53 152.79 0.88 153.19 0.88C153.59 0.88 153.59 0.47 153.98 0.47C154.37 0.47 154.38 0.34 154.77 0.34C155.16 0.34 155.17 0.8 155.56 0.8C155.95 0.8 155.96 1.35 156.35 1.35C156.74 1.35 156.75 1.42 157.14 1.42C157.53 1.42 157.54 0.54 157.93 0.54C158.32 0.54 158.33 0.77 158.72 0.77C159.11 0.77 159.12 1.3 159.51 1.3C159.9 1.3 159.91 1.09 160.3 1.09C160.69 1.09 160.7 0.41 161.09 0.41C161.48 0.41 161.49 0.37 161.88 0.37C162.27 0.37 162.28 0.54 162.67 0.54C163.06 0.54 163.07 0.81 163.46 0.81C163.85 0.81 163.86 0.35 164.25 0.35C164.64 0.35 164.65 1.2 165.04 1.2C165.43 1.2 165.44 1.28 165.83 1.28C166.22 1.28 166.23 0.68 166.62 0.68C167.01 0.68 167.02 1.44 167.41 1.44C167.8 1.44 167.81 0.41 168.2 0.41C168.59 0.41 168.6 1.17 168.99 1.17C169.38 1.17 169.39 0.68 169.78 0.68C170.17 0.68 170.18 0.58 170.57 0.58C170.96 0.58 170.97 1.3 171.36 1.3C171.75 1.3 171.76 0.05 172.15 0.05C172.54 0.05 172.55 0.13 172.94 0.13C173.33 0.13 173.34 0.37 173.73 0.37C174.12 0.37 174.13 1.34 174.52 1.34C174.91 1.34 174.92 0.97 175.31 0.97C175.7 0.97 175.71 1.25 176.1 1.25C176.49 1.25 176.5 0.28 176.89 0.28C177.28 0.28 177.29 1.04 177.68 1.04C178.07 1.04 178.08 0.62 178.47 0.62C178.86 0.62 178.87 0.79 179.26 0.79C179.65 0.79 179.66 0.24 180.05 0.24C180.44 0.24 180.45 0.37 180.84 0.37C181.23 0.37 181.24 1.3 181.63 1.3C182.02 1.3 182.03 1.19 182.42 1.19C182.81 1.19 182.82 1.35 183.21 1.35C183.6 1.35 183.61 0.44 184 0.44C184.39 0.44 184.4 0.03 184.79 0.03C185.18 0.03 185.19 0.99 185.58 0.99C185.97 0.99 185.98 1.42 186.37 1.42C186.76 1.42 186.77 1.27 187.16 1.27C187.55 1.27 187.56 0.53 187.95 0.53C188.34 0.53 188.35 0.52 188.74 0.52C189.13 0.52 189.14 0.48 189.53 0.48C189.92 0.48 189.93 1.33 190.32 1.33C190.71 1.33 190.72 0.83 191.11 0.83C191.5 0.83 191.51 0.72 191.9 0.72C192.29 0.72 192.3 0.22 192.69 0.22C193.08 0.22 193.09 0.35 193.48 0.35C193.87 0.35 193.88 0.65 194.27 0.65C194.66 0.65 194.67 0.96 195.06 0.96C195.45 0.96 195.46 0.49 195.85 0.49C196.24 0.49 196.25 0.37 196.64 0.37C197.03 0.37 197.04 0.93 197.43 0.93C197.82 0.93 197.83 0.78 198.22 0.78C198.61 0.78 198.62 0.97 199.01 0.97C199.4 0.97 199.41 0.43 199.8 0.43C200.19 0.43 200.2 0.26 200.59 0.26C200.98 0.26 200.99 0.9 201.38 0.9C201.77 0.9 201.78 0.44 202.17 0.44C202.56 0.44 202.57 1.11 202.96 1.11C203.35 1.11 203.36 0.1 203.75 0.1C204.14 0.1 204.15 0.99 204.54 0.99C204.93 0.99 204.94 0.61 205.33 0.61C205.72 0.61 205.73 0.96 206.12 0.96C206.51 0.96 206.52 0.81 206.91 0.81C207.3 0.81 207.31 1.41 207.7 1.41C208.09 1.41 208.1 0.48 208.49 0.48C208.88 0.48 208.89 0.57 209.28 0.57C209.67 0.57 209.68 0.15 210.07 0.15C210.46 0.15 210.47 0.53 210.86 0.53C211.25 0.53 211.26 0.43 211.65 0.43C212.04 0.43 212.05 1.06 212.44 1.06C212.83 1.06 212.84 0.74 213.23 0.74C213.62 0.74 213.63 0.82 214.02 0.82C214.41 0.82 214.42 0.64 214.81 0.64C215.2 0.64 215.21 0.83 215.6 0.83C215.99 0.83 216 0.31 216.39 0.31C216.78 0.31 216.79 0.25 217.18 0.25C217.57 0.25 217.58 0.8 217.97 0.8C218.36 0.8 218.37 1.32 218.76 1.32C219.15 1.32 219.16 1.32 219.55 1.32C219.94 1.32 219.95 0.35 220.34 0.35C220.73 0.35 220.74 0.84 221.13 0.84C221.52 0.84 221.53 1.42 221.93 1.42C222.33 1.42 222.33 0.17 222.73 0.17C223.13 0.17 223.13 1.19 223.52 1.19C223.91 1.19 223.92 0.49 224.31 0.49C224.7 0.49 224.71 0.41 225.1 0.41C225.49 0.41 225.5 0.39 225.89 0.39C226.28 0.39 226.29 1.39 226.68 1.39C227.07 1.39 227.08 0.76 227.47 0.76C227.86 0.76 227.87 1.35 228.26 1.35C228.65 1.35 228.66 0.73 229.05 0.73C229.44 0.73 229.45 0.42 229.85 0.42C230.25 0.42 230.25 0.13 230.65 0.13C231.05 0.13 231.05 1.12 231.45 1.12C231.85 1.12 231.85 0.96 232.25 0.96C232.65 0.96 232.65 0.12 233.04 0.12C233.43 0.12 233.44 1.01 233.83 1.01C234.22 1.01 234.23 0.24 234.63 0.24C235.03 0.24 235.03 0.82 235.43 0.82C235.83 0.82 235.83 1.24 236.23 1.24C236.63 1.24 236.63 1.01 237.03 1.01C237.43 1.01 237.43 0.41 237.83 0.41C238.23 0.41 238.23 1.39 238.63 1.39C239.03 1.39 239.03 1.02 239.43 1.02C239.83 1.02 239.83 1.08 240.23 1.08C240.63 1.08 240.63 0 241.02 0C241.41 0 241.42 0.91 241.82 0.91C242.22 0.91 242.22 1.18 242.62 1.18C243.02 1.18 243.02 0.73 243.42 0.73C243.82 0.73 243.82 1.21 244.21 1.21C244.6 1.21 244.61 0.64 245.01 0.64C245.41 0.64 245.41 0.57 245.81 0.57C246.21 0.57 246.21 0.13 246.61 0.13C247.01 0.13 247.01 0.96 247.41 0.96C247.81 0.96 247.81 0.56 248.21 0.56C248.61 0.56 248.61 0.19 249.01 0.19C249.41 0.19 249.41 0.67 249.81 0.67C250.21 0.67 250.21 0.57 250.61 0.57C251.01 0.57 251.01 0.27 251.41 0.27C251.81 0.27 251.81 0.4 252.21 0.4C252.61 0.4 252.61 0.69 253.01 0.69C253.41 0.69 253.9 0.07 254.19 0.35C254.48 0.63 254.14 1.12 254.14 1.52C254.14 1.92 254.08 1.91 254.08 2.3C254.08 2.69 253.32 2.69 253.32 3.08C253.32 3.47 253.47 3.47 253.47 3.86C253.47 4.25 254.42 4.25 254.42 4.64C254.42 5.03 253.37 5.03 253.37 5.43C253.37 5.83 253.11 5.82 253.11 6.22C253.11 6.62 253.55 6.61 253.55 7.01C253.55 7.41 253.71 7.4 253.71 7.8C253.71 8.2 253.85 8.19 253.85 8.59C253.85 8.99 253.1 8.98 253.1 9.38C253.1 9.78 254.38 9.77 254.38 10.17C254.38 10.57 254.54 10.56 254.54 10.96C254.54 11.36 254.35 11.35 254.35 11.75C254.35 12.15 254.08 12.14 254.08 12.53C254.08 12.92 254.54 12.92 254.54 13.31C254.54 13.7 254.24 13.7 254.24 14.09C254.24 14.48 253.22 14.48 253.22 14.88C253.22 15.28 253.29 15.27 253.29 15.67C253.29 16.07 253.48 16.06 253.48 16.45C253.48 16.84 253.57 16.84 253.57 17.24C253.57 17.64 254.46 17.63 254.46 18.03C254.46 18.43 253.12 18.42 253.12 18.82C253.12 19.22 253.55 19.21 253.55 19.61C253.55 20.01 253.13 20 253.13 20.39C253.13 20.78 254.43 20.78 254.43 21.17C254.43 21.56 253.7 21.56 253.7 21.95C253.7 22.34 254.26 22.34 254.26 22.73C254.26 23.12 253.92 23.12 253.92 23.51C253.92 23.9 253.08 23.9 253.08 24.29C253.08 24.68 253.35 24.68 253.35 25.07C253.35 25.46 254.44 25.46 254.44 25.85C254.44 26.24 253.29 26.24 253.29 26.63C253.29 27.02 254.47 27.02 254.47 27.41C254.47 27.8 253.49 27.8 253.49 28.19C253.49 28.58 253.29 28.58 253.29 28.97C253.29 29.36 254.41 29.36 254.41 29.76C254.41 30.16 253.85 30.15 253.85 30.55C253.85 30.95 254.29 30.94 254.29 31.34C254.29 31.74 253.8 31.73 253.8 32.13C253.8 32.53 254.47 32.52 254.47 32.92C254.47 33.32 254.52 33.31 254.52 33.71C254.52 34.11 253.81 34.1 253.81 34.5C253.81 34.9 253.2 34.89 253.2 35.28C253.2 35.67 253.98 35.67 253.98 36.06C253.98 36.45 254.28 36.45 254.28 36.85C254.28 37.25 254.04 37.24 254.04 37.64C254.04 38.04 253.07 38.03 253.07 38.43C253.07 38.83 254.13 38.82 254.13 39.22C254.13 39.62 253.86 39.61 253.86 40.01C253.86 40.41 253.14 40.4 253.14 40.8C253.14 41.2 253.92 41.19 253.92 41.59C253.92 41.99 254.05 41.98 254.05 42.38C254.05 42.78 254.38 42.77 254.38 43.17C254.38 43.57 254.43 43.56 254.43 43.96C254.43 44.36 253.16 44.35 253.16 44.75C253.16 45.15 254.42 45.14 254.42 45.54C254.42 45.94 253.7 45.93 253.7 46.33C253.7 46.73 253.4 46.72 253.4 47.12C253.4 47.52 253.9 47.51 253.9 47.91C253.9 48.31 253.51 48.3 253.51 48.7C253.51 49.1 254.25 49.09 254.25 49.49C254.25 49.89 254.41 49.88 254.41 50.27C254.41 50.66 253.22 50.66 253.22 51.06C253.22 51.46 254.23 51.45 254.23 51.85C254.23 52.25 254.41 52.24 254.41 52.64C254.41 53.04 254.15 53.03 254.15 53.43C254.15 53.83 253.92 53.82 253.92 54.22C253.92 54.62 254.53 54.62 254.53 55.01C254.53 55.4 254 55.4 254 55.8C254 56.2 254.14 56.19 254.14 56.59C254.14 56.99 253.25 56.99 253.25 57.38C253.25 57.77 253.54 57.78 253.54 58.17C253.54 58.56 253.71 58.57 253.71 58.96C253.71 59.35 254.49 59.35 254.49 59.75C254.49 60.15 254.04 60.15 254.04 60.54C254.04 60.93 253.29 60.94 253.29 61.33C253.29 61.72 253.17 61.76 253.19 62.16C253.21 62.48 253.86 62.42 253.58 62.7L253.68 62.67Z" fill="#EC7FBC"/>
</g>
<defs>
<clipPath id="clip0_9_169">
<rect width="254.63" height="63.63" fill="white"/>
</clipPath>
</defs>
</svg>
