<svg width="77" height="77" viewBox="0 0 77 77" fill="none" xmlns="http://www.w3.org/2000/svg">
<g clip-path="url(#clip0_3_99)">
<path d="M38.49 75.98C59.1952 75.98 75.98 59.1952 75.98 38.49C75.98 17.7848 59.1952 1 38.49 1C17.7848 1 1 17.7848 1 38.49C1 59.1952 17.7848 75.98 38.49 75.98Z" fill="#F6DD61" stroke="#EC7FBC" stroke-width="2" stroke-miterlimit="10"/>
<path d="M27.94 39.6699C29.1771 39.6699 30.18 38.6671 30.18 37.4299C30.18 36.1928 29.1771 35.1899 27.94 35.1899C26.7028 35.1899 25.7 36.1928 25.7 37.4299C25.7 38.6671 26.7028 39.6699 27.94 39.6699Z" fill="#403B14"/>
<path d="M49.75 36.3301C50.9871 36.3301 51.99 35.3272 51.99 34.0901C51.99 32.853 50.9871 31.8501 49.75 31.8501C48.5129 31.8501 47.51 32.853 47.51 34.0901C47.51 35.3272 48.5129 36.3301 49.75 36.3301Z" fill="#403B14"/>
<path d="M44.66 44.4122L37.6694 45.7635C36.6121 45.9679 35.9206 46.9907 36.125 48.0481L36.1269 48.0579C36.3312 49.1153 37.3541 49.8068 38.4115 49.6024L45.4021 48.2512C46.4595 48.0468 47.151 47.0239 46.9466 45.9665L46.9447 45.9567C46.7403 44.8993 45.7174 44.2078 44.66 44.4122Z" fill="#ED7A14" stroke="#5E3424"/>
<path d="M52.9448 27.3646L44.5698 28.9834L45.0063 31.2416L53.3813 29.6228L52.9448 27.3646Z" fill="#403B14"/>
<path d="M32.1401 31.27H23.6101V33.57H32.1401V31.27Z" fill="#403B14"/>
<path d="M44.605 38.724L36.0042 40.3865C34.5184 40.6737 33.5464 42.1087 33.833 43.5918C34.1197 45.0748 35.5565 46.0443 37.0423 45.7571L45.6431 44.0946C47.1288 43.8074 48.1009 42.3724 47.8142 40.8893C47.5276 39.4063 46.0907 38.4368 44.605 38.724Z" fill="#ED7A14" stroke="#5E3424"/>
</g>
<defs>
<clipPath id="clip0_3_99">
<rect width="76.99" height="76.99" fill="white"/>
</clipPath>
</defs>
</svg>
