<svg width="88" height="88" viewBox="0 0 88 88" fill="none" xmlns="http://www.w3.org/2000/svg">
<g clip-path="url(#clip0_188_1327)">
<mask id="mask0_188_1327" style="mask-type:luminance" maskUnits="userSpaceOnUse" x="0" y="0" width="88" height="88">
<path d="M88 0H0V88H88V0Z" fill="white"/>
</mask>
<g mask="url(#mask0_188_1327)">
<path opacity="0.5" d="M44 86.9197C58.5417 86.9197 70.33 83.3917 70.33 79.0397C70.33 74.6877 58.5417 71.1597 44 71.1597C29.4584 71.1597 17.67 74.6877 17.67 79.0397C17.67 83.3917 29.4584 86.9197 44 86.9197Z" fill="#7A736E"/>
<path d="M22.61 31.6597C9.03001 34.4897 1.43001 42.1197 2.23001 47.9897C2.76001 51.8897 7.11001 55.8097 10.89 55.5597C16.39 55.1997 21.58 45.9797 22.6 31.6597H22.61Z" fill="#FAE260" stroke="#5E3424"/>
<path d="M60.19 70.8398C58.92 65.5298 57.82 60.8898 56.55 55.5698L50.77 57.1498L55.01 72.2798C52.87 75.0698 52.66 77.4398 52.67 78.5998C52.68 79.4398 52.7 80.8098 53.5 81.1798C54.21 81.5098 55.34 80.9698 56.27 79.8498C57.15 81.5398 58.89 82.2098 60.07 81.7098C61.06 81.2798 61.38 80.1398 61.44 79.9198C62.47 80.5998 63.58 80.7698 64.2 80.2998C64.97 79.7198 64.73 78.3898 64.58 77.5598C64.05 74.6498 61.83 72.6098 60.34 71.5098L60.18 70.8298L60.19 70.8398Z" fill="#ED7A14" stroke="#5E3424"/>
<path d="M66.9601 28.6099C80.2001 32.7499 87.0201 41.0799 85.6501 46.8499C84.7401 50.6699 80.0301 54.1499 76.2901 53.5399C70.8501 52.6499 66.5801 42.9599 66.9601 28.6099Z" fill="#FAE260" stroke="#5E3424"/>
<path d="M67.19 27.4398C66.36 25.2798 66.38 22.8698 66.21 20.5698C65.95 16.6298 64.52 12.7898 62.18 9.69978C58.12 4.21978 51.21 0.919784 44.17 1.07978C33.61 1.10978 24.19 8.98978 22.83 19.0598C22.2 22.6898 23.28 26.5998 22.14 30.0498C21.22 32.8598 19.75 34.4298 19.01 35.4998C14.69 41.7998 16.19 53.6698 21.46 60.7898C30.27 72.7198 52.28 74.9398 64.49 64.0598C73.28 56.2098 75.71 42.7198 71.15 33.1598C69.96 30.6798 68.46 28.7898 67.19 27.4398Z" fill="#FAE260" stroke="#5E3424"/>
<path d="M36.09 22.2699C36.95 22.2399 37.62 21.5099 37.59 20.6599C37.56 19.8099 36.83 19.1399 35.97 19.1699C35.11 19.1999 34.44 19.9299 34.47 20.7799C34.5 21.6299 35.23 22.2999 36.09 22.2699Z" fill="#403B14"/>
<path d="M51.51 21.6498C52.37 21.6198 53.04 20.8898 53.01 20.0398C52.98 19.1898 52.25 18.5198 51.39 18.5498C50.53 18.5798 49.86 19.3098 49.89 20.1598C49.92 21.0098 50.65 21.6798 51.51 21.6498Z" fill="#403B14"/>
<path d="M46.89 27.1299L41.93 27.3699C41.18 27.4099 40.6 28.0399 40.64 28.7799C40.68 29.5299 41.31 30.1099 42.07 30.0699L47.03 29.8299C47.78 29.7899 48.36 29.1599 48.32 28.4199C48.28 27.6699 47.65 27.0899 46.89 27.1299Z" fill="#ED7A14" stroke="#5E3424"/>
<path d="M54.21 15.75L48.27 16.04L48.35 17.63L54.29 17.34L54.21 15.75Z" fill="#403B14"/>
<path d="M38.84 16.3896L32.89 16.6296L32.95 18.2196L38.9 17.9796L38.84 16.3896Z" fill="#403B14"/>
<path d="M47.42 23.2297L41.32 23.5297C40.27 23.5797 39.45 24.4697 39.5 25.5097C39.55 26.5497 40.45 27.3597 41.5 27.3097L47.61 27.0097C48.66 26.9597 49.48 26.0697 49.43 25.0297C49.38 23.9897 48.48 23.1797 47.43 23.2297H47.42Z" fill="#ED7A14" stroke="#5E3424"/>
<path d="M39.9601 70.7696C40.7201 69.8796 41.3301 68.8596 41.7501 67.7696C42.4901 65.8596 41.9401 63.7296 41.4501 61.8296C41.3301 61.3796 41.1001 60.5496 40.3901 60.1996C39.4901 59.7596 38.1101 60.2696 36.8501 61.4796C36.6801 61.3496 35.4801 60.4496 33.9201 60.8096C32.6601 61.0896 31.6501 62.0796 31.2901 63.3696C31.1401 63.3096 28.8901 62.4196 27.8101 63.4896C27.2201 64.0696 27.2501 64.9596 27.2601 65.3696C27.3201 67.1396 27.5601 68.9696 28.3101 70.5896C29.1001 72.2696 30.7101 73.7696 32.6101 73.9896C33.5601 74.0996 34.5201 73.9896 35.4401 73.7396C37.2201 73.2396 38.7801 72.1596 39.9701 70.7596L39.9601 70.7696Z" fill="#ED7A14" stroke="#5E3424"/>
</g>
</g>
<defs>
<clipPath id="clip0_188_1327">
<rect width="88" height="88" fill="white"/>
</clipPath>
</defs>
</svg>
