<svg width="88" height="88" viewBox="0 0 88 88" fill="none" xmlns="http://www.w3.org/2000/svg">
<g clip-path="url(#clip0_188_1346)">
<mask id="mask0_188_1346" style="mask-type:luminance" maskUnits="userSpaceOnUse" x="0" y="0" width="88" height="88">
<path d="M88 0H0V88H88V0Z" fill="white"/>
</mask>
<g mask="url(#mask0_188_1346)">
<path opacity="0.5" d="M44 86.9202C58.5417 86.9202 70.33 83.3922 70.33 79.0402C70.33 74.6881 58.5417 71.1602 44 71.1602C29.4584 71.1602 17.67 74.6881 17.67 79.0402C17.67 83.3922 29.4584 86.9202 44 86.9202Z" fill="#7A736E"/>
<path d="M22.51 31.4399C12.34 40.6599 9.67999 50.9799 13.31 55.5799C15.72 58.6399 21.39 59.7999 24.5 57.6999C29.01 54.6399 28.82 44.1699 22.51 31.4399Z" fill="#FAE260" stroke="#5E3424"/>
<path d="M37.49 71.18C37.58 66.76 37.6699 62.34 37.7599 57.91L31.8299 57.75L31.4199 71.21C30.0999 72.05 25.5599 75.1 24.9399 78.48C24.8599 78.93 24.7199 79.78 25.2099 80.39C25.8299 81.17 27.2799 81.28 28.9199 80.73C29.0199 80.92 29.7099 82.22 31.2599 82.56C32.4999 82.84 33.8299 82.37 34.6899 81.38C34.7999 81.5 36.4399 83.24 37.86 82.74C38.6299 82.47 38.9799 81.66 39.1399 81.28C40.4899 78.12 38.05 72.44 37.49 71.18Z" fill="#ED7A14" stroke="#5E3424"/>
<path d="M66.22 31.4102C76.03 41.0102 78.3 51.4302 74.5 55.8902C71.98 58.8502 66.26 59.8002 63.24 57.5802C58.84 54.3502 59.44 43.8902 66.23 31.4102H66.22Z" fill="#FAE260" stroke="#5E3424"/>
<path d="M67.08 28.3601C66.38 26.1801 66.52 23.8001 66.47 21.5201C66.42 17.6101 65.21 13.7401 63.06 10.5701C59.34 4.94015 52.68 1.32015 45.71 1.11015C35.27 0.590147 25.55 7.88015 23.68 17.7601C22.87 21.3101 23.73 25.2301 22.43 28.5801C21.37 31.3101 19.84 32.7801 19.05 33.8001C14.45 39.8001 15.31 51.6101 20.14 58.9201C28.22 71.1702 49.86 74.5201 62.5 64.4002C71.6 57.1101 74.71 43.9002 70.7 34.2201C69.66 31.7101 68.27 29.7601 67.08 28.3601Z" fill="#FAE260" stroke="#5E3424"/>
<path d="M36.62 21.6099C37.47 21.6199 38.18 20.9399 38.19 20.0999C38.2 19.2599 37.52 18.5599 36.66 18.5499C35.8 18.5399 35.1 19.2199 35.09 20.0599C35.08 20.8999 35.76 21.5999 36.62 21.6099Z" fill="#403B14"/>
<path d="M51.89 21.8204C52.74 21.8304 53.45 21.1504 53.46 20.3104C53.47 19.4704 52.79 18.7704 51.93 18.7604C51.07 18.7504 50.37 19.4304 50.36 20.2704C50.35 21.1104 51.03 21.8104 51.89 21.8204Z" fill="#403B14"/>
<path d="M47.04 26.9902L42.12 26.9702C41.38 26.9702 40.77 27.5602 40.77 28.3002C40.77 29.0402 41.37 29.6502 42.11 29.6502L47.03 29.6702C47.77 29.6702 48.38 29.0802 48.38 28.3402C48.38 27.6002 47.78 26.9902 47.04 26.9902Z" fill="#ED7A14" stroke="#5E3424"/>
<path d="M54.87 16.1304L48.98 16.1104V17.6904L54.86 17.7104V16.1304H54.87Z" fill="#403B14"/>
<path d="M39.65 15.9604L33.76 15.8804L33.74 17.4604L39.63 17.5404L39.65 15.9604Z" fill="#403B14"/>
<path d="M47.7699 23.1601L41.7199 23.1401C40.6799 23.1401 39.8199 23.9701 39.8199 25.0101C39.8199 26.0401 40.6599 26.8901 41.6999 26.8901L47.7499 26.9101C48.7899 26.9101 49.6499 26.0801 49.6499 25.0401C49.6499 24.0101 48.8099 23.1601 47.7699 23.1601Z" fill="#ED7A14" stroke="#5E3424"/>
<path d="M60.33 72.2602C62.28 70.3702 63.16 67.1702 63.13 64.6602C63.12 63.6602 63.09 62.0102 62.14 61.5602C61.29 61.1702 59.93 61.8102 58.81 63.1502C57.76 61.1202 55.67 60.3102 54.25 60.9102C53.06 61.4202 52.67 62.7902 52.6 63.0502C51.36 62.2302 50.04 62.0302 49.29 62.5902C48.37 63.2802 48.65 64.8902 48.83 65.8702C49.12 67.4602 49.87 68.9402 50.84 70.2102C52.3 72.1302 53.81 73.3502 56.25 73.7402C56.88 73.8402 57.52 73.7902 58.13 73.6002C58.98 73.3302 59.71 72.8602 60.34 72.2602H60.33Z" fill="#ED7A14" stroke="#5E3424"/>
</g>
</g>
<defs>
<clipPath id="clip0_188_1346">
<rect width="88" height="88" fill="white"/>
</clipPath>
</defs>
</svg>
