<svg width="174" height="270" viewBox="0 0 174 270" fill="none" xmlns="http://www.w3.org/2000/svg">
<g clip-path="url(#clip0_188_16864)">
<mask id="mask0_188_16864" style="mask-type:luminance" maskUnits="userSpaceOnUse" x="0" y="0" width="174" height="270">
<path d="M174 0H0V270H174V0Z" fill="white"/>
</mask>
<g mask="url(#mask0_188_16864)">
<path d="M102.46 10.3499C102.46 10.3499 101.48 4.93991 110.26 4.43991C119.04 3.93991 119.86 6.44991 121.81 6.44991C123.76 6.44991 126.77 6.87991 128.34 9.04991C129.91 11.2199 127.99 11.9999 127.99 11.9999L125.02 18.2299L111.89 17.7199L102.47 10.3599L102.46 10.3499Z" fill="#C9AA81" stroke="#231815" stroke-linecap="round" stroke-linejoin="round"/>
<path opacity="0.5" d="M124.27 54.45C148.725 54.45 168.55 48.6879 168.55 41.58C168.55 34.4721 148.725 28.71 124.27 28.71C99.8146 28.71 79.9897 34.4721 79.9897 41.58C79.9897 48.6879 99.8146 54.45 124.27 54.45Z" fill="#7A736E"/>
<path d="M135.03 33.0198C134.78 28.4098 136.17 23.2498 133.06 19.4398C130.49 16.2998 128.55 17.1898 128.05 12.6998C128.02 12.4598 128.01 12.2198 127.99 11.9798C126.71 11.4798 125.61 10.6698 124.85 9.38983C123.85 11.3898 123.85 13.3898 123.85 15.3898C118.22 8.95983 109.36 6.40983 102.46 10.3398C101.09 14.0098 100.7 17.4098 99.6696 21.0498C97.4096 29.0598 90.4196 36.0198 88.5996 43.9998C91.8996 41.8798 98.0696 40.5198 101.73 39.3398C103.78 38.6698 106.5 36.4398 108.65 36.7498C109.55 39.0798 109.32 41.6298 109.58 43.9898C114.11 44.3098 119.3 44.7798 123.01 42.4098C125.8 40.6198 125.43 39.4898 129.29 39.4698C135.84 39.4498 143.17 35.9998 148.83 38.2098C145.21 35.5698 139.66 32.9898 135.03 33.0198Z" fill="#C1682D" stroke="#231815" stroke-linecap="round" stroke-linejoin="round"/>
<path d="M124.32 11.98C124.43 11.36 124.42 10.73 124.54 10.11C123.85 11.87 123.85 13.64 123.85 15.4C121.79 13.05 119.31 11.22 116.64 10.04C116.55 10.1 116.46 10.17 116.36 10.21C115.76 10.44 115.22 9.94004 114.83 9.34004C114.5 9.23004 114.16 9.13004 113.83 9.04004C113.83 9.04004 113.83 9.05004 113.83 9.06004C113.5 9.83004 113.32 10.67 113.02 11.45C112.47 12.93 111.82 14.38 111.28 15.86C110.4 18.3 110.06 20.85 109.28 23.31C108.93 24.4 108.59 24.64 107.63 25.3C106.21 26.29 105 27.42 103.85 28.72C103.48 29.14 102.91 30.11 102.34 30.27C102.21 31.27 101.86 32.17 101.83 33.19C102.53 33.42 104.47 32.15 104.71 32.02C104.62 32.07 107.65 30.01 108.16 30.15C108.67 30.29 108.95 31 109.33 31.4C109.99 32.09 110.66 32.73 111.38 33.35C111.76 33.68 112.52 34.21 112.65 34.78C112.8 35.43 112.44 36.51 112.32 37.1C112.19 37.74 111.65 38.87 112.06 39.44C113 39.35 114.21 39.32 115.03 38.78C115.94 38.18 116 36.83 115.87 35.83C115.69 34.43 114.09 32.23 115.61 31.15C115.83 30.99 116.92 30.36 117.16 30.44C117.31 30.49 117.48 30.91 117.61 31.05C118.13 31.62 118.93 31.86 119.43 32.45C119.76 32.84 119.75 33.19 119.9 33.65C120.19 34.51 121.21 35.44 121.87 36.06C122.17 36.34 122.6 36.64 122.99 36.79C123.53 37 124.18 36.84 124.74 36.92C125.76 37.06 126.67 37.6 127.68 37.81C127.94 37.87 129.52 38.22 129.97 38.03C130.2 37.93 130.34 37.67 130.47 37.43C130.68 37 130.97 36.17 130.76 35.69C130.57 35.27 130.03 35.13 129.68 34.91C129.04 34.51 128.53 34.02 127.79 33.79C127.3 33.64 126.72 33.7 126.26 33.45C125.68 33.13 125.17 32.55 124.56 32.21C124.11 31.96 123.26 31.67 123 31.23C122.89 31.04 122.89 30.69 122.8 30.46C122.4 29.45 121.28 28.73 121.12 27.66C121.05 27.2 121.2 26.77 121.11 26.3C121.02 25.82 120.84 25.37 120.91 24.87C121.67 24.39 123.7 24.56 124.49 25.04C125 25.35 125.46 25.8 125.97 26.13C126.74 26.63 127.59 27 128.43 27.35C128.92 27.07 128.24 25.81 128.08 25.49C127.69 24.73 127.17 24.12 126.54 23.55C126.26 23.3 125.93 23.11 125.73 22.78C124.95 21.49 125.39 19.63 125.03 18.21C124.92 17.78 124.72 17.32 124.49 16.94C124.37 16.75 124.15 16.57 124.05 16.41C123.83 16.04 123.93 15.52 123.92 15.05C123.91 13.93 124.14 13.05 124.33 11.96L124.32 11.98Z" fill="#AD5828"/>
<path d="M135.03 33.0198C134.78 28.4098 136.17 23.2498 133.06 19.4398C130.49 16.2998 128.55 17.1898 128.05 12.6998C128.02 12.4598 128.01 12.2198 127.99 11.9798C126.71 11.4798 125.61 10.6698 124.85 9.38983C123.85 11.3898 123.85 13.3898 123.85 15.3898C118.22 8.95983 109.36 6.40983 102.46 10.3398C101.09 14.0098 100.7 17.4098 99.6696 21.0498C97.4096 29.0598 90.4196 36.0198 88.5996 43.9998C91.8996 41.8798 98.0696 40.5198 101.73 39.3398C103.78 38.6698 106.5 36.4398 108.65 36.7498C109.55 39.0798 109.32 41.6298 109.58 43.9898C114.11 44.3098 119.3 44.7798 123.01 42.4098C125.8 40.6198 125.43 39.4898 129.29 39.4698C135.84 39.4498 143.17 35.9998 148.83 38.2098C145.21 35.5698 139.66 32.9898 135.03 33.0198Z" stroke="#231815" stroke-linecap="round" stroke-linejoin="round"/>
<path d="M84.5298 261.86C84.2398 264.12 86.5198 264.36 88.5898 264.13C92.8398 263.67 91.2298 261.8 92.9798 259.65C94.2098 258.14 96.3998 255.83 98.1398 254.4C102.64 250.68 106.44 248.87 106.84 242.26C107.11 237.78 107.83 234.31 108.36 229.79C109.9 229.54 115.11 230.1 116.02 228.41C117.95 224.82 112.16 225.05 110.67 223.51C104.51 217.17 125.1 216.96 121.76 207.68C124.65 206.98 127.06 205.07 129.83 204.04C132.22 205.74 142.47 202.62 144.05 200.15C144.94 198.76 144.48 196.02 144.67 194.35C143.12 193.31 143.57 189.92 144.16 187.98C145.07 185.01 146.61 185.55 145.67 182.09C144.72 178.6 140.16 175.63 141.55 171.48C142.89 167.48 146.25 169.02 149.15 166.73C151.32 165.01 150.54 163 151.61 161.54C153.3 159.24 156.39 158.36 158.32 156.25C154.43 152.39 156.35 148.1 154.69 143.15C158.71 140.71 169.29 141.27 171.16 135.36C171.78 133.42 170.07 132.88 169.94 130.98C169.77 128.57 171.21 126.04 170.14 123.82C167.29 117.87 155.35 116.51 150.68 111.89C150.79 114.42 149.08 116.62 146.92 117.8C146.28 111.31 133.65 106.97 128.77 110.84C126.61 112.56 127.25 116.92 125.36 118.21C122.32 120.27 114.61 117.07 111.54 116.73C111.09 118.96 111.14 121.28 111.25 123.55C106.21 121.05 98.6898 113.24 93.5198 114.26C82.6298 116.39 91.6398 127.44 87.0198 132.32C85.0698 134.38 80.0698 134.25 77.6198 132.47C74.3198 130.07 76.7998 128.76 76.1798 124.54C75.0998 117.17 65.6498 114.91 59.4598 111.16C62.1198 111.14 63.2898 107.92 63.2198 105.57C57.8398 103.42 49.8698 103.46 44.1798 103.5C38.4398 111.57 29.6598 103.11 23.8498 98.2198C22.6798 97.2398 20.8998 97.7998 20.4798 99.2698C18.6598 105.72 16.9598 112.03 16.2298 118.79C13.5898 118.4 9.50978 120.29 7.37978 121.43C1.74978 124.43 2.63978 124.19 3.47978 128.31C4.16978 131.66 5.89978 132.21 4.70978 135.96C3.49978 139.77 1.18978 142.48 4.11978 147.08C7.17978 151.88 7.53978 148.61 10.8198 149.27C14.1398 149.94 18.3598 153.26 16.1198 157.49C14.6798 160.21 9.97978 159.65 8.36978 162.35C2.48978 172.27 17.2498 174.33 22.5998 175.98C25.4498 170.94 27.7998 171.45 30.6098 177.16C31.6198 179.2 32.1198 183 34.3798 183.73C36.9998 184.58 40.3798 181.16 40.6298 178.94C49.2698 179.4 48.5198 186.39 40.1898 185.73C37.2598 190.18 43.2098 194.88 46.2398 197.38C40.4398 199.95 34.2498 202.01 33.8898 209.32C33.5998 215.22 37.2398 220.89 42.5398 221.95C48.5098 223.14 46.4698 218.42 50.6698 216.36C54.8998 214.29 59.1898 218.7 58.4998 222.63C57.6298 227.53 54.9698 227.28 56.3498 232.69C57.9998 239.14 57.5598 235.81 54.6298 240.9C52.1398 245.23 53.4698 248.56 55.7198 252.41C56.9398 254.49 57.2498 253.61 58.2598 256.5C59.7298 260.68 60.0698 265.01 62.8598 268.74C66.8998 266.49 70.5598 265.12 73.9498 262.14C74.6598 263.32 76.2898 263.49 77.9898 262.93C78.6398 261.23 78.9198 259.4 79.1498 257.61C81.8198 257.87 83.7798 260.16 84.5198 261.87L84.5298 261.86Z" fill="#73D165" stroke="#231815" stroke-linecap="round" stroke-linejoin="round"/>
<path d="M102.67 1.27C102.39 3.68 102.11 6.08 100.62 8.35C99.8796 6.71 98.6795 5.57 97.2095 4.79C96.9195 12.04 93.5595 18.07 91.7795 24.94C90.2295 30.93 89.5695 36.86 87.8195 42.86C85.9895 49.1 85.1695 56.52 84.9595 62.98C84.6595 72.61 88.1295 81.25 86.0895 91.05C84.1995 100.11 84.2495 103.55 85.8095 113.21C86.8095 119.38 78.6695 127.01 76.3395 132.89C74.2595 138.15 70.0696 143.92 69.5396 149.21L115.76 141.41C114.39 139.48 112.26 138.44 110.33 137C107.68 135.02 106.36 132.32 104.04 130.04C100.88 126.95 102.62 125.6 104.11 122.06C105.49 118.78 106.34 115.36 106.31 111.79C106.24 102.91 104.16 94.48 104.98 85.36C105.81 76.19 110.12 67.77 111.27 58.58C112.1 51.94 111.43 44.06 113.47 37.68C115.31 31.94 120.96 29.2 122.98 23.5C124.64 18.82 125.21 15.11 127.62 10.48C127.64 10.44 127.66 10.39 127.68 10.35C118.83 14.1 108.53 9.79 102.66 1.25L102.67 1.27Z" fill="#C1682D" stroke="#231815" stroke-linecap="round" stroke-linejoin="round"/>
<path d="M81.1698 151.34C81.1198 153.61 82.4898 156 84.9898 156.18C86.1598 156.26 87.4398 155.86 88.3998 155.09C88.8398 154.82 89.2398 154.47 89.5598 154.02C90.4298 152.8 91.3598 151.61 91.8098 150.15C92.2698 148.67 92.4498 147.21 92.5298 145.67C92.6298 143.49 91.4598 141.53 89.2698 140.98C87.3798 140.5 84.9798 141.4 84.2398 143.34C84.0198 143.57 83.8198 143.81 83.7798 143.85C82.9298 144.72 82.2798 145.8 82.1098 147.03C82.0998 147.11 82.0698 147.47 82.0798 147.5C82.0098 147.77 81.8998 148.03 81.8198 148.3C81.5098 149.29 81.1998 150.3 81.1798 151.34H81.1698Z" fill="#C1682D"/>
<path d="M101.49 138.87C98.1199 136.74 95.2599 133.99 93.6799 139.12C92.5799 142.67 93.3999 147.61 91.4099 150.73C91.3499 150.65 91.4699 150.81 91.4099 150.73" fill="#73D165"/>
<path d="M101.49 138.87C98.1199 136.74 95.2599 133.99 93.6799 139.12C92.5799 142.67 93.3999 147.61 91.4099 150.73M91.4099 150.73C91.3499 150.65 91.4699 150.81 91.4099 150.73Z" stroke="#231815" stroke-linecap="round" stroke-linejoin="round"/>
<path d="M108.75 144.79C108.78 144.94 108.81 145.1 108.84 145.25C108.92 145.89 109.14 146.47 109.51 146.99C109.79 147.55 110.19 148.02 110.72 148.39C111.23 148.81 111.81 149.07 112.44 149.17C113.06 149.39 113.71 149.43 114.37 149.31L115.58 148.96C116.35 148.62 117 148.11 117.51 147.44C117.72 147.08 117.92 146.71 118.13 146.35C118.46 145.52 118.56 144.67 118.43 143.79C118.4 143.64 118.37 143.48 118.34 143.33C118.26 142.69 118.04 142.11 117.67 141.59C117.39 141.03 116.99 140.56 116.46 140.19C115.95 139.77 115.37 139.51 114.74 139.41C114.12 139.19 113.47 139.15 112.81 139.27L111.6 139.62C110.83 139.96 110.18 140.47 109.67 141.14C109.46 141.5 109.26 141.87 109.05 142.23C108.72 143.06 108.62 143.91 108.75 144.79Z" fill="#73D165"/>
<path d="M94.7198 147.63C94.9498 148.16 95.1798 148.7 95.4198 149.23C95.8998 150.35 96.9098 151.32 98.0398 151.78C98.6598 152.06 99.2898 152.16 99.9498 152.09C100.59 152.14 101.21 152.02 101.81 151.73C102.92 151.19 103.94 150.31 104.36 149.11C104.8 147.88 104.84 146.57 104.31 145.34C104.08 144.81 103.85 144.27 103.61 143.74C103.13 142.62 102.12 141.65 100.99 141.19C100.37 140.91 99.7398 140.81 99.0798 140.88C98.4398 140.83 97.8198 140.95 97.2198 141.24C96.1098 141.78 95.0898 142.66 94.6698 143.86C94.2298 145.09 94.1898 146.4 94.7198 147.63Z" fill="#73D165"/>
<path d="M118.29 140.19C120.03 135.86 114.5 136.71 111.3 136.65C109.18 136.61 106.96 136.37 104.94 136.88C102.59 137.48 100.55 137.58 99.8399 139.82C99.1999 141.86 101.31 146.4 99.8099 147.59" fill="#73D165"/>
<path d="M118.29 140.19C120.03 135.86 114.5 136.71 111.3 136.65C109.18 136.61 106.96 136.37 104.94 136.88C102.59 137.48 100.55 137.58 99.8399 139.82C99.1999 141.86 101.31 146.4 99.8099 147.59" stroke="#231815" stroke-linecap="round" stroke-linejoin="round"/>
<path d="M66.5399 151.66C67.9299 153.79 71.4799 154.06 73.3499 152.46C75.0599 150.98 75.4799 148.96 74.8199 147.04C74.8999 146.89 74.9699 146.75 75.0199 146.64C75.5199 145.49 75.9099 144.35 76.1099 143.1C76.5199 140.6 74.3899 137.91 71.8599 137.72C69.1399 137.52 66.9299 139.29 66.4799 141.97C66.4899 141.89 66.4999 141.83 66.5099 141.77C66.4899 141.87 66.4599 141.98 66.4299 142.06C66.3099 142.38 66.1599 142.68 66.0299 142.99C65.6499 143.87 65.3599 144.75 65.1799 145.7C64.7699 147.89 65.3399 149.83 66.5399 151.66Z" fill="#73D165"/>
<path d="M66.52 141.77C66.58 141.51 66.6 141.3 66.52 141.77V141.77Z" fill="#73D165"/>
<path d="M81.89 150.27C82.06 146.44 84.42 142.28 85.25 138.49C80.65 137.61 78.11 139.49 75 142.29" fill="#73D165"/>
<path d="M81.89 150.27C82.06 146.44 84.42 142.28 85.25 138.49C80.65 137.61 78.11 139.49 75 142.29" stroke="#231815" stroke-linecap="round" stroke-linejoin="round"/>
<path d="M65.0796 146.42C66.4996 148.32 69.1196 148.93 71.1396 147.56C71.1996 147.52 71.2695 147.48 71.3395 147.44C71.3095 147.85 71.3196 148.26 71.4195 148.64C71.3295 149.23 71.3996 149.8 71.6196 150.37C71.7896 150.93 72.0896 151.4 72.4996 151.79C72.6296 151.96 72.7796 152.1 72.9296 152.23C72.4796 154.77 74.0196 157.74 77.3596 157.51C78.1396 157.46 78.7896 157.23 79.3296 156.9C79.9396 157.77 80.8396 158.42 81.9195 158.51C83.5695 158.65 85.2496 158.9 86.8996 158.71C88.3596 158.54 89.8096 158.22 91.2496 157.97C93.5696 157.57 95.4696 155.84 95.2896 153.31C95.1396 151.14 92.9695 148.86 90.6295 149.27C88.2495 149.69 86.0195 150.17 83.6295 149.97C82.5095 149.87 81.4096 150.09 80.4996 150.6C80.3396 150.36 80.1596 150.14 79.9596 149.93C79.9996 149.79 80.0496 149.65 80.0796 149.5C80.0896 149.43 80.0996 149.36 80.1096 149.29C80.1596 148.87 80.1896 148.42 80.1896 148C80.1896 147.52 80.0296 147.03 79.9296 146.56C79.8996 146.42 79.8596 146.29 79.7996 146.17C79.6296 145.61 79.3295 145.14 78.9195 144.75C78.5795 144.3 78.1496 143.95 77.6196 143.72C77.0996 143.44 76.5496 143.3 75.9696 143.32C75.9396 143.32 75.9095 143.32 75.8795 143.32C75.9095 143.22 75.9395 143.12 75.9495 143.03C76.1595 141.97 75.9396 140.59 75.2796 139.71C74.6196 138.82 73.6696 138.07 72.5396 137.89C71.3096 137.7 70.3096 137.98 69.2196 138.56C68.1896 139.11 67.1996 139.71 66.2296 140.36C64.3396 141.63 63.6795 144.55 65.0895 146.42H65.0796Z" fill="#73D165"/>
<path d="M92.5997 155.42C93.4397 154.49 96.1497 151.45 95.3197 150.17C93.8297 147.86 85.6597 149.85 83.8597 149.99C77.3797 150.48 73.5297 150.69 75.6397 143.63C77.6797 136.8 71.2197 137.67 66.6997 137.99" stroke="#231815" stroke-linecap="round" stroke-linejoin="round"/>
<path d="M71.1098 246.62L70.8598 246.56C71.7898 246.97 72.2198 247.65 73.3398 247.45C74.9198 247.17 75.0798 245.69 75.1198 244.29C75.1798 242.22 74.3598 240.18 74.1698 238.12L74.0798 235.85L74.2798 234.86C73.9998 234.05 72.6198 234.35 72.2998 233.4C71.9398 232.34 73.4598 230.45 73.9198 229.57C74.4598 228.54 74.7898 228.4 75.9198 228.3C76.8598 228.21 77.3798 227.77 78.3298 227.84C79.2798 227.91 80.4498 227.84 81.0198 228.62C81.5898 228.42 82.2998 227.39 82.5598 226.93C83.0298 226.08 82.8498 225.53 82.2298 224.83C81.6098 224.13 80.6998 223.22 81.7598 222.45C82.5498 221.88 83.5098 221.97 84.3798 222.24C85.3298 222.53 86.1098 222.71 87.0898 222.84C88.1598 222.98 89.8498 223.3 90.4498 222.12C92.0898 218.87 84.7298 219.06 83.6498 219.09C82.2398 219.09 80.8298 219.2 79.4298 219.41L77.5198 219.5C76.6698 219.23 76.9498 218.96 76.7298 218.22C76.0298 215.96 73.1998 212.98 71.7698 211.48C71.2098 210.9 68.0198 208.38 68.2598 207.73C69.2198 207.58 69.8898 207.33 70.7998 207.03C71.6498 206.75 72.7598 206.84 73.3698 206.14C74.0898 205.31 74.1298 204.18 73.3198 203.45C72.8098 202.99 72.5198 203.11 72.0198 202.85C70.8498 202.24 68.6398 201.36 67.9198 200.23C67.3898 199.4 68.1698 199.05 68.8098 198.39C69.5798 197.59 70.2998 197.43 71.3998 197.88C72.3498 198.27 72.2598 198.91 73.2198 198.39C74.4498 197.72 75.4498 195.43 75.1198 194.08C74.7398 192.98 73.9698 192.28 72.8298 191.99C72.2998 191.76 71.7498 191.69 71.1998 191.8C69.1698 191.04 67.5798 188.13 66.3698 186.46C65.6798 185.59 65.0798 184.67 64.5498 183.71C64.5698 183.3 64.7698 183.13 65.1598 183.19C65.6598 182.93 66.8898 182.73 67.4798 182.72C68.6898 182.7 69.9498 183.1 71.1598 183.22C72.9998 183.41 76.2198 180.2 74.1498 178.57C74.9798 178.51 76.1898 178.78 76.9398 178.87C77.1698 178.9 78.8998 178.93 79.3198 179.12C79.6898 179.28 79.5898 179.49 79.8698 179.71C80.1098 179.9 80.4098 179.98 80.6798 180.18C81.0498 180.46 81.3598 180.96 81.7298 181.28C82.5798 181.98 83.5598 182.45 84.2798 183.31C84.7198 183.84 84.8998 184.24 85.5498 184.52C86.5798 184.96 87.9198 184.84 88.9298 184.46C89.7998 184.13 91.0298 183.37 90.8598 182.25C90.6898 181.13 88.4698 179.94 87.8598 179.44C86.9198 178.66 84.5998 176.91 85.1898 175.52C85.6898 174.36 87.0098 174.14 88.0098 174.57C88.8098 174.91 90.8398 176.05 91.2398 176.94C91.4098 177.31 91.2598 177.62 91.5998 177.85C92.5698 177.46 92.9998 176.27 93.0398 175.3C93.0698 174.72 92.5498 173.73 92.9398 173.22C93.3298 172.71 93.7998 173.06 94.2698 173.07C95.3098 173.09 96.3098 172.84 97.3298 172.77C98.4998 172.69 99.1898 172.98 100.18 173.65C100.82 174.09 101.33 174.82 101.92 175.22C102.81 175.83 104.38 175.91 104.52 174.62C104.62 173.66 104.09 173.14 103.66 172.33C103.2 171.48 103.55 170.56 103.66 169.6C103.8 168.28 104.04 167.83 104.64 166.75C105.09 165.94 105 165.98 106 165.88C107.21 165.76 108.46 165.16 109.65 165.16C111.98 165.15 114.37 166.47 116.67 166.78C117.91 166.95 118.24 166 118.54 164.9C119.56 164.69 120.67 164.68 121.71 164.47C123.52 164.12 123.95 164.89 125.58 165.78C126.49 166.28 127.1 166.76 128.16 166.6C129.81 166.36 131.73 165.36 133.14 164.44C134.06 163.84 134.02 163.61 134.08 162.68C134.14 162.22 134.2 161.75 134.27 161.29C134.38 160.93 134.28 160.66 133.98 160.47C133.74 160.34 133.63 160.15 133.67 159.88C133.74 159.42 133.81 158.97 133.87 158.51C133.98 157.72 133.86 157.1 133.8 156.32C133.74 155.54 133.83 154.77 133.51 154.07C133.25 153.5 132.73 153.13 132.43 152.56C131.86 151.5 131.11 150.54 129.93 151.17C129.04 151.65 124.85 153.64 124.28 152.34C123.71 151.04 125.9 149.64 126.93 150.12C127.29 150.8 126.36 151.42 125.92 151.73C124.23 152.91 122.54 154.09 120.85 155.27C119.94 156.05 118.93 156.64 117.82 157.03C117.28 157.28 116.72 157.47 116.15 157.6C115.71 157.83 115.3 158.34 115.01 158.72C114.36 159.56 114.47 159.75 113.44 159.6C112.34 159.43 111.2 159.06 111.49 157.76C111.86 156.08 114.1 155.11 114.19 153.38C114.25 152.24 113.67 152.48 114.7 151.5C115.48 150.76 116.09 150.02 117.2 149.72C118.31 149.42 119.59 149.33 120.71 149.41C122.18 149.5 122.61 149.86 123 148.21C122.58 147.81 122.06 147.6 121.45 147.56C120.35 147.1 119.24 146.69 118.11 146.32C115.68 145.48 112.97 144.81 110.39 144.75C110.45 145.35 110.17 146.83 109.81 147.32C109.4 147.86 108.2 148.12 107.62 148.39C106.56 148.88 105.72 149.36 105.19 150.39C105.77 151.15 106.64 151.85 107.33 152.46C107.8 152.88 109.65 153.8 108.98 154.73C108.23 155.78 105.37 155.34 104.4 155.42C103.81 155.47 98.2298 156.01 98.5198 158.03C98.5798 158.47 99.0998 158.79 99.1998 159.19C99.4298 160.07 99.2898 161.46 99.2198 162.34C99.1198 163.61 98.8898 164.19 97.5398 164.46C97.0798 164.55 96.6398 164.31 96.1798 164.38C95.7198 164.45 95.5798 164.67 95.2198 164.92C94.2798 165.58 93.2098 166.09 92.2198 166.69C91.7798 166.96 90.7698 167.35 90.7298 167.96C89.3798 168.05 87.8998 167.61 86.5798 167.49C85.1598 167.36 83.7798 167.64 82.3998 167.61C81.0898 167.58 81.3598 167.39 80.6798 165.85C80.3898 165.19 80.0998 164.53 79.7598 163.88C78.8598 163.9 77.9498 164.13 77.0498 164.24C74.7098 164.52 72.3298 164.82 70.0598 165.49L67.4098 166.41C66.7398 166.47 66.4198 166.72 66.4398 167.18C65.7898 167.56 67.0298 167.53 65.2598 167.61C62.7498 167.72 60.1498 167.52 58.0598 165.98C57.2098 165.35 57.2198 165 57.2898 164.05C57.3898 162.83 57.0098 161.67 56.6998 160.51C57.4298 160.04 57.9498 160.22 58.5398 159.44C58.8098 159.08 59.8398 157.77 59.8198 157.31C57.8798 156.04 57.9898 154.88 58.2298 152.79C58.3698 151.61 58.4598 150.45 59.8398 150.43C60.6698 150.42 62.1298 150.55 62.6998 150.99C63.6498 151.71 65.0998 152.98 65.8798 151.34C66.5198 149.99 65.4798 148.56 64.2798 147.94C62.4798 147.01 60.0598 147.04 58.7398 145.36C58.2998 144.8 57.9898 144.15 57.5498 143.6C57.1898 143.15 56.1298 142.54 56.3998 141.91C57.1898 141.92 58.3698 141.46 58.6498 140.64C59.0598 139.44 57.5598 138.97 56.7698 138.75C54.8098 138.22 52.2798 137.91 50.2398 138.01C49.8498 137.56 50.0198 135.86 50.0098 135.48C49.9898 134.33 49.8198 133.63 50.8498 132.92C51.7998 132.27 53.0898 131.6 54.1498 131.2C54.5498 131.05 55.0598 131.17 55.3898 130.95C54.9098 127.35 49.4798 126.49 46.7898 126.19C45.7698 125.95 44.7498 125.92 43.7298 126.11C42.9898 126.09 42.2898 126.23 41.6198 126.54C41.2998 126.57 41.0198 126.6 40.7198 126.44C40.4198 124.97 40.2998 123.1 40.4698 121.62C40.6098 120.47 40.7898 120.55 41.9298 120.57C42.7298 120.57 43.5098 120.48 44.1698 119.99C45.0398 119.34 45.8298 118.11 46.6598 117.41C47.7798 116.46 49.0698 115.87 50.5698 116.12C51.7798 116.32 51.9098 116.86 52.2898 117.82C52.9698 119.57 55.1898 120.22 56.7098 121.07C56.6198 120.27 57.0498 119.49 56.8798 118.73C56.5998 117.48 54.5198 117.17 53.4598 116.94C51.8698 116.6 50.1898 116.5 48.5698 116.33C47.0498 116.17 45.7898 116.46 45.0098 115.09C44.6498 114.46 44.4698 113.73 44.0998 113.13C43.5898 112.29 43.0298 112.48 41.9798 112.36C40.6898 112.21 38.5798 111.59 37.3998 112.33C37.3298 112.68 37.1198 112.9 36.7698 112.98C36.4098 113.21 36.0198 113.36 35.5898 113.46C34.8098 113.72 33.4198 114.44 32.5898 114.23C32.0898 114.1 31.6598 113.55 31.2898 113.23C30.3698 112.42 29.4498 111.63 28.5398 110.81C27.3898 109.77 26.1998 107.89 24.5298 108.49C23.0698 109.02 20.4798 110.15 19.6198 111.41C18.9598 112.38 18.9798 112.7 20.0598 113.41C21.6798 114.48 23.4898 114.97 25.2298 115.75C26.5598 116.35 29.5098 117.96 28.9098 119.8C28.4298 121.24 26.4098 121.88 25.0998 122.2C23.6398 122.55 22.2798 121.99 20.7898 122.07C19.6098 122.14 18.8398 122.36 18.8198 123.61C18.7998 125.55 20.8398 126.58 21.9998 127.88C21.5998 129.06 19.8598 129.78 18.8298 130.21C17.1798 130.9 16.1598 129.69 14.5598 129.83C14.3698 131.98 15.5698 134.23 15.8998 136.32C16.0698 137.35 15.8298 137.5 17.0498 138.1C19.0898 139.12 21.4598 139.07 23.6398 139.47C25.2598 139.77 26.4798 141.21 26.8098 142.85C27.1398 144.49 26.5398 145.98 25.8598 147.41C25.4198 148.28 25.0398 149.17 24.7198 150.09C24.7898 150.49 24.7298 150.84 24.5398 151.16C24.0998 151.63 22.9298 151.27 22.3598 151.69C21.7898 152.11 21.7898 152.44 21.7998 153.14C21.8098 154.09 22.0098 154.4 22.8298 154.82C24.1498 155.49 26.4898 155.63 27.8998 155.94C28.8498 156.14 30.1398 156.24 30.2198 157.6C30.3298 159.5 26.6998 160 25.5498 160.69C25.6198 161.57 26.0098 162.45 26.1898 163.33C26.4798 164.7 26.7098 165.62 27.7498 166.61C29.5498 168.33 32.6898 170.3 35.3298 170.08C36.2198 170.01 36.9698 169.58 37.7698 169.29C39.2498 168.74 41.5298 168.56 43.0898 169.25C43.6598 169.5 44.5998 170.88 44.6698 171.51C44.7398 172.14 44.3998 172.49 44.6998 173.14C45.0598 173.91 45.8198 174.33 46.5398 174.6C48.2398 175.24 50.1598 174.55 51.8398 174.88C52.6898 175.05 53.1998 175.87 53.6898 176.53C54.8798 178.14 54.6898 180.45 54.4198 182.33C54.2498 183.51 53.8398 183.16 53.1998 184.1C52.0498 185.79 54.4198 186.46 55.1298 187.39C55.8398 188.32 56.0798 189.62 54.8798 190.15C54.0498 190.52 53.2598 190.58 52.4998 191.06C51.0898 191.96 52.3298 193.72 52.8398 194.83C53.4898 196.24 52.9598 197.63 51.8698 198.73C51.3898 199.21 51.2298 199.16 50.6298 199.42C49.6498 199.84 50.2198 199.61 49.7798 200.28C49.2898 201.03 48.2798 201.54 47.7398 202.25C47.2398 202.91 47.2998 203.2 47.2598 203.94C47.2298 204.38 47.2398 205.03 47.0198 205.45C46.7598 205.93 46.2098 206 46.2198 206.62C44.7498 206.86 43.2598 206.12 41.7598 206.36C40.7298 206.52 39.9198 206.66 39.4498 207.7C38.9798 208.74 38.8298 210.17 39.3098 211.22C39.7898 212.27 40.7698 213.26 41.9198 213.38C43.5398 213.55 45.2798 213.03 46.4998 211.94C46.9698 211.52 47.2098 210.95 47.7298 210.59C48.9898 209.74 51.3198 210.41 52.6498 210.63C53.4998 210.77 54.2598 211.22 55.1198 211.24C56.2598 211.28 57.3398 210.88 58.4998 210.96C59.3598 211.02 61.0398 210.94 61.7898 211.39C62.5398 211.84 62.4298 212.88 62.6798 213.62C63.1298 214.98 64.2098 215.82 64.4198 217.23C64.5798 218.31 63.9898 219.09 63.8898 220.19C63.8498 220.65 63.7098 220.99 63.9298 221.44C64.1698 221.91 64.7698 221.96 64.9998 222.41C65.2298 222.86 64.8898 224.56 64.7098 225.08C64.4598 225.79 64.1498 226.21 64.0998 227.04C64.0698 227.61 64.0798 228.19 64.3398 228.69C64.5598 229.1 64.7898 229.13 65.0298 229.46C65.7398 230.46 66.4698 232.21 66.5498 233.41C66.6298 234.61 65.8398 235.21 65.5398 236.3C65.1798 237.61 65.4998 238.19 66.0998 239.24C66.3398 239.65 66.4898 239.87 66.8398 240.13C67.4298 240.57 68.8498 240.63 69.3298 241.21C70.5498 242.68 65.9898 243.9 65.2198 244.6C64.2998 245.45 64.9998 246.19 65.7398 246.85C66.1598 247.23 66.4498 247.77 66.9298 248.09C67.6798 248.6 68.6298 248.09 69.2398 247.3C69.6998 246.71 69.5698 245.45 70.2298 245.19C70.5998 245.04 71.6198 245.15 71.1098 246.69V246.62Z" fill="#67C457"/>
<path d="M123.24 130.41C123.24 130.41 124.45 132.34 124.57 132.57C125.11 133.3 125.54 134.08 125.87 134.93C125.99 135.62 126.17 136.29 126.43 136.94C126.85 137.55 128.43 138.22 129.17 137.88C129.91 137.54 129.56 137.09 129.2 136.34C128.64 135.15 127.43 134 127.57 132.61C127.66 131.64 128.01 130.98 128.95 130.7C130.04 130.38 131.69 130.48 132.74 130.89C133.14 131.04 133.23 131.45 133.85 131.24C134.32 131.08 134.38 130.57 134.8 130.39C135.37 130.14 136.44 130.57 137.04 130.61C137.89 130.67 138.72 130.47 139.57 130.52C141.02 130.61 142.33 130.84 143.79 130.75C144.83 130.69 145.5 131.08 146.5 130.53C147.3 130.09 148.45 128.98 148.15 127.93C145.97 127.02 143.46 127 141.12 126.99C140 126.95 138.89 127.01 137.77 127.16C137.16 127.39 136.6 127.35 136.1 127.04C136.51 125.3 135.46 123.25 134.58 121.8C134.21 121.19 133.56 119.62 132.91 119.27C132.05 118.81 130.03 119.81 129.25 120.2C128.38 120.65 126.42 121.43 126.21 122.5C125.73 122.42 125.73 122.68 125.41 122.87C124.63 123.34 123.93 123.7 123.05 123.99C121.69 124.43 122.07 123.83 120.88 123.2C119.69 122.57 117.19 122.39 115.92 122.79C114.48 123.24 111.74 124.77 111.86 126.62C111.93 127.61 112.38 127.29 113.26 127.45C114.32 127.64 115.23 128.14 116.33 128.19C116.96 128.22 117.88 127.69 118.16 128.33C118.3 128.65 117.18 129.99 116.94 130.28C116.57 130.74 116.18 130.93 115.71 131.25C116.58 131.63 117.82 131.55 118.76 131.67C119.41 131.75 119.97 131.88 120.59 131.63C121.07 131.43 121.31 131.07 121.88 131C122.23 130.96 122.98 131 123.31 131.12C123.76 131.3 123.82 131.42 123.91 131.95C124.09 132.96 123.84 134.07 123.2 130.41H123.24Z" fill="#67C457"/>
<path d="M73.0596 154.83C73.0496 154.99 72.9096 155.44 72.9696 155.64C73.0596 155.93 73.2996 156.03 73.4696 156.26C73.8196 156.72 74.4696 157.54 75.1996 157.13C76.0496 156.65 74.8596 155.09 74.5296 154.67C73.8596 153.84 73.0396 153.14 72.2496 152.42C72.1096 152.29 71.6796 152.03 71.5896 151.85C71.3996 151.47 71.7296 150.17 71.8496 149.78C72.0796 149.01 72.2596 148.41 72.2396 147.58C72.2396 146.84 72.0796 146.07 71.2396 146.09C70.6496 146.1 69.8396 146.4 69.4296 146.79C69.0596 147.14 69.0896 147.23 69.0296 147.73C68.9396 148.51 68.6996 149.39 68.7996 150.16C68.8596 150.61 68.8996 150.9 68.8396 151.37C68.6996 152.42 68.4696 152.88 69.5596 153.38C70.0096 153.59 71.1596 153.97 70.7596 154.68C70.5896 154.99 70.2996 154.93 69.9796 155C69.1796 155.17 68.3296 155.57 67.6296 155.99C66.9896 156.37 66.3696 157 66.9696 157.69C68.1696 159.11 70.6396 159.13 71.1996 157.17C72.2096 157.2 72.5096 155.98 73.3996 155.78" fill="#67C457"/>
<path d="M102.4 210.79H102.21C101.96 211.32 101.96 212.46 102 212.97C102.06 213.85 102.22 214.75 102.4 215.61C102.54 216.26 102.66 216.23 103.29 216.12C104.59 215.9 106.39 215.29 107.41 214.52C107.8 214.23 108.29 213.95 108.4 213.45C108.47 213.13 108.45 212.61 108.48 212.27C108.55 211.48 108.14 210.57 108.75 209.99C109.26 209.52 110.48 209.22 111.18 209.37C111.8 209.5 112.37 209.86 113 210C113.27 210.06 114.04 210.23 114.28 209.97C114.62 209.6 114.53 208.26 114.27 207.97L112.98 207.29L111.24 206.77C110.76 206.64 109.42 206.55 109.08 205.98C108.76 205.45 109.11 204.85 109.65 204.65C110.19 204.45 110.97 204.47 111.55 204.46C113.28 204.42 115.09 204.42 116.8 204.14C117.49 204.03 118.08 203.98 118.46 203.44C118.89 202.83 118.92 201.84 118.81 201.11C118.75 200.7 118.59 200.6 118.91 200.22C119.29 199.77 120.48 199.66 121 199.55C121.85 199.36 122.72 199.11 123.58 198.97C124.32 198.85 124.94 198.99 125.69 198.97C126.76 198.94 127.21 198.39 127.63 197.5C128.9 197.55 130.2 198.22 131.47 198.11C131.92 198.07 132.22 197.84 132.58 197.54L133.63 196.5C134.58 195.66 135.08 194.62 135.14 193.38L134.03 192.54C132.85 192.26 131.67 192.02 130.47 191.85C129.19 191.64 127.89 191.48 126.61 191.26C126.49 190.63 126.65 190.03 127.04 189.54C128.51 187.66 130.55 186.64 131 184.09C131.14 183.32 131.33 182.25 130.4 181.9L128.95 181.78L126.1 181.87C125.63 181.9 122.14 181.98 121.43 182.91C121.48 183.21 121.72 183.42 121.92 183.62C122.6 184.32 123.58 184.8 123.99 185.74C124.52 186.92 124.1 188.44 123.06 189.13C122.14 189.74 121.28 190.43 120.46 191.17C120.15 191.45 119.31 192.49 118.89 192.49C118.17 192.49 117.29 191.65 116.7 191.28C115.21 190.35 113.64 189.59 111.95 189.1C112.28 191.18 114.16 193.12 113.38 195.36C112.91 196.7 110.98 197.09 109.79 197.46C109.23 197.64 107.68 198.23 107.09 197.66C107.11 197.3 107.05 196.95 106.9 196.62C106.61 196.2 106.23 195.9 105.74 195.73C104.73 195.6 104.84 197.27 104.8 197.91C104.71 199.12 104.32 199.72 103.43 200.56C102.98 200.99 102.27 201.76 101.64 201.16C101.41 200.76 101.15 200.37 100.86 200.01C100.29 199.29 99.7896 198.53 99.3496 197.73C98.9096 196.46 99.8196 196.32 100.17 195.27C100.26 195.01 100.46 194.2 100.44 193.91C100.29 193.36 99.9596 192.93 99.4296 192.64C98.6896 192 97.8596 191.51 96.9396 191.17C96.2496 190.91 95.1896 190.58 94.3996 190.62C93.3296 190.67 91.0196 192.08 91.1896 193.37C91.2496 193.84 91.5496 193.91 91.9196 194.14C92.6796 194.62 93.4496 195.13 93.9996 195.83C93.4796 196.51 92.8196 197.01 92.3296 197.72C92.0696 198.09 92.0096 198.29 91.5596 198.36C91.0596 198.44 90.5596 198.08 90.2296 198.58C89.9296 199.03 90.4296 199.77 90.7696 200.09C91.0996 200.31 91.4296 200.52 91.7696 200.72C91.9996 200.79 92.1296 200.94 92.1596 201.18C92.6596 201.65 93.1896 201.76 93.8696 201.89C94.5196 202.03 95.1796 202.14 95.8396 202.21L96.6896 202.36C97.2296 202.88 96.3696 202.49 97.5496 203.25C99.0596 204.22 100.81 204.5 102.54 204.76C102.98 204.82 104.14 204.78 104.45 205.12C104.92 205.64 103.92 205.73 103.63 205.91C103.34 206.09 103.2 206.45 102.9 206.62C102.46 206.87 102.11 206.77 101.62 206.7C101.02 206.62 100.4 206.6 99.8096 206.45C99.0996 206.26 98.6896 205.81 98.0496 205.48C96.7096 204.8 95.0596 204.75 93.5796 204.62C92.7896 204.55 92.0196 204.67 91.2596 204.9C90.2396 205.22 90.5496 205.37 89.9696 205.78C89.4696 206.14 88.2596 206.14 87.6996 206.22C85.8296 206.47 83.8996 206.74 82.0096 206.61C81.3696 206.57 81.1496 206.42 80.7996 207.04C80.3996 207.76 80.5596 208.8 80.8496 209.51C81.3296 210.69 82.8596 211.28 83.9496 211.75C85.0896 212.25 87.0096 212.65 87.8896 211.51C88.1996 211.11 88.2396 210.54 88.6696 210.22C89.3396 209.71 90.3796 209.84 91.1696 209.92C92.1196 210.01 93.0796 210.17 94.0296 210.28C94.7496 210.36 95.7896 210.27 96.4196 210.63C96.4496 211.4 95.9496 211.77 95.6096 212.38C95.4396 212.69 95.3296 213.09 95.2196 213.43C95.0996 213.83 94.9296 214.3 95.1996 214.67C95.5096 215.1 96.3396 215.09 96.7796 214.95C97.8796 214.61 98.4896 213.42 98.6396 212.37C98.7096 211.87 98.8596 211.84 99.2396 211.52C99.8096 211.05 100.02 210.54 100.33 209.89C100.78 209.86 101.3 210 101.7 210.15C102.22 210.35 102.34 210.86 102.4 210.79Z" fill="#8EDB7D"/>
<path d="M113.2 11.3001C113.34 10.9501 113.64 10.6601 113.83 10.3301C113.44 10.1801 113.05 10.0101 112.66 9.83008C112.93 10.3501 113.11 10.9201 113.19 11.3001H113.2Z" fill="#AD5828"/>
<path d="M102.67 1.26998C102.42 3.38998 102.17 5.51998 101.09 7.53998C101.06 7.63998 101.04 7.73998 101 7.82998C100.79 8.38998 100.44 8.89998 100.21 9.45998C99.4096 11.39 99.0996 13.64 98.4596 15.63C97.4796 18.67 96.3496 21.54 95.7696 24.71C95.5096 26.12 95.2696 27.52 95.1296 28.94C95.0496 29.68 95.0296 30.4 94.7796 31.11C93.9396 33.51 93.0396 35.84 92.6396 38.38C92.4496 39.6 92.3296 40.83 92.1996 42.05C92.1096 42.84 92.0996 43.64 91.8796 44.4C91.6396 45.23 91.2296 45.97 90.9996 46.81C90.7696 47.65 90.4396 48.47 90.2296 49.29C89.8496 50.79 89.5896 52.29 89.4096 53.83C89.1596 56 88.6996 58.25 89.1696 60.41C89.7796 60.69 90.4396 60.04 90.7996 59.67C91.6996 58.77 92.5296 57.78 93.2896 56.76C93.3196 57.29 93.1796 57.69 93.2696 58.22C93.4396 59.28 93.4596 60.09 93.3196 61.18C93.1896 62.23 93.1396 63.3 92.8796 64.33C92.7396 64.9 92.5196 65.47 92.4396 66.06C92.4096 66.32 92.4696 66.66 92.3896 66.9C92.1596 67.63 91.3696 68.39 90.9796 69.06C90.7196 69.51 90.6696 69.85 90.4996 70.3C90.3096 70.8 89.9896 71.24 89.8496 71.76C89.6896 72.32 89.6596 72.79 89.3796 73.33C88.8296 74.4 88.4796 74.86 88.6896 76.02C88.9996 77.67 88.8796 79.33 89.2996 80.98C89.6396 82.31 90.0396 83.44 90.0396 84.81C90.0396 86.63 90.3396 88.34 89.8896 90.15C89.5696 91.43 89.3796 92.72 88.9696 93.97C88.5696 95.18 88.7096 96.41 88.7296 97.64C88.7596 99.18 88.3396 100.41 88.0096 101.84C87.7496 102.96 87.7796 103.97 87.8596 105.07C87.9096 105.77 87.6896 106.31 87.8996 107C88.1296 107.76 88.6496 108.48 88.7896 109.25C88.8796 109.73 88.7596 110.32 88.8096 110.84C88.8696 111.5 88.9896 112.16 88.9396 112.82C88.7296 115.5 88.5996 118.6 87.6196 121.1C87.3096 121.9 86.7396 122.72 86.2996 123.44C85.7396 124.35 84.9696 124.93 84.2096 125.65C83.7996 126.04 83.4496 126.3 82.9896 126.62C82.5196 126.95 82.5096 127 82.4396 127.56C82.3196 128.51 82.1096 128.96 84.1696 129.58L83.9896 129.56C84.4596 129.62 84.9296 129.69 85.3996 129.73C86.8596 129.87 88.3296 128.89 89.4196 127.92C90.5496 126.91 90.5696 125.31 90.8596 123.94C91.2496 122.07 91.4596 120.31 91.4296 118.41C91.3896 115.97 91.7896 113.55 91.9796 111.13C92.0796 109.73 91.8296 108.56 91.4596 107.22C91.1496 106.11 91.1196 105.98 91.2496 104.97C91.5296 102.79 91.7696 100.6 92.0196 98.42C92.2496 96.42 92.5996 94.48 92.3296 92.44C92.1096 90.75 91.6496 89.2 91.9296 87.48C92.2196 85.73 92.7596 84.03 93.1596 82.29C93.6096 80.31 93.6996 78.38 93.9896 76.39C94.2596 74.58 94.9396 72.91 95.6196 71.23C96.4596 69.15 97.1096 67.05 97.3996 64.82C97.5896 63.3 97.5596 61.83 97.9596 60.33C98.5896 57.97 99.5896 55.75 100.06 53.35C100.35 51.89 100.46 50.49 100.4 49C100.38 48.47 100.4 47.95 100.32 47.42C100.25 47.04 100.04 46.63 100.09 46.24C100.25 45.03 102.79 44.68 103.51 43.66C103.13 45.41 103.26 47.23 103.03 48.99C102.88 50.11 102.29 51.01 101.91 52.05C101.31 53.73 100.96 55.9 100.95 57.71C100.95 58.48 101.85 59.58 102.74 59.44C103.5 59.32 103.98 57.6 104.19 57C104.7 55.57 104.98 53.97 104.54 52.51C103.98 50.67 104.14 48.54 104.25 46.62C104.37 44.59 105.28 42.84 105.48 40.86C105.57 40.02 106.32 38.55 105.98 37.78C105.01 35.61 100.58 39.33 99.6896 39.95C99.4896 38.09 101.89 37.23 102.42 35.58C102.66 34.83 102.58 34.01 102.76 33.24C103.06 31.95 103.86 30.86 104.19 29.57C104.45 28.55 104.63 27.53 104.5 26.48C104.42 25.85 104.31 25.71 104.59 25C105.01 23.92 105.74 22.96 106.31 21.95C107.36 20.07 108.12 17.77 108.13 15.6C108.13 14.63 108.02 13.92 108.31 12.98C108.68 11.79 109.28 9.39998 110.55 8.69998C107.51 6.89998 104.78 4.34998 102.63 1.22998L102.67 1.26998Z" fill="#AD5828"/>
<path d="M101.61 135.1C101.38 134.78 101.1 134.51 100.82 134.23C100.16 133.56 99.56 132.84 98.89 132.17C98.66 131.94 98.58 131.95 98.27 131.94C97.75 131.91 97.24 131.8 96.72 131.77C96.64 131.86 96.61 131.97 96.63 132.09C96.56 132.23 96.46 132.34 96.31 132.4C95.92 132.79 95.59 133.23 95.26 133.67C95.06 133.6 94.95 133.85 94.83 133.97C94.59 134.21 94.31 134.41 94.04 134.62C93.86 134.76 93.51 135.18 93.26 135.16C92.96 135.13 92.98 134.82 92.79 134.63C92.7 134.54 92.77 134.52 92.61 134.51C92.48 134.51 92.13 134.8 92.06 134.85C91.79 135.04 91.55 135.27 91.34 135.53C90.98 135.99 91 136.44 90.84 136.98C90.68 137.52 90.42 138.05 90.11 138.54C89.8 139.03 89.52 139.35 89.5 139.91C89.47 140.71 89.69 141.46 89.56 142.27C89.44 142.98 88.96 143.49 88.26 143.7C87.97 143.33 87.65 142.83 87.47 142.39C87.18 141.65 87.53 140.47 87.7 139.71C87.87 138.95 88.16 138.31 88.61 137.65C88.95 137.17 89.2 136.63 89.6 136.19C89.97 135.79 90.26 135.5 90.52 135.02C90.68 134.72 90.86 134.43 90.95 134.11C91.05 133.75 91.01 133.39 91.09 133.03C91.24 132.37 91.66 131.71 92.09 131.2C92.97 130.17 93.37 128.84 93.59 127.52C93.74 126.61 93.98 125.58 93.82 124.66C93.66 123.74 93.67 122.96 93.71 122.06C93.79 120.33 94.05 118.55 93.83 116.83C93.66 115.51 93.32 114.14 93.49 112.8C93.57 112.37 93.65 111.94 93.76 111.52C93.76 111.25 93.84 111 93.97 110.77C94.08 111.06 94.01 111.33 93.67 111.39C93.93 111.4 94.08 111.39 94.25 111.57C94.51 111.85 94.78 112.24 94.98 112.58C95.38 113.27 95.28 114.29 95.26 115.05C95.24 115.81 95.29 116.48 95.09 117.2C94.99 117.56 94.84 117.88 94.71 118.23C94.5 118.8 94.56 119.08 94.84 119.61C95.18 120.25 95.54 120.87 95.97 121.45C96.4 122.03 96.9 122.55 97.12 123.24C97.28 123.75 97.08 124.32 97.02 124.83C96.98 125.12 96.99 125.43 96.93 125.72C96.8 126.35 96.36 127.01 96.09 127.59C95.99 127.79 95.61 128.55 95.79 128.84C95.84 128.91 96 128.98 96.07 129.03C96.24 128.94 96.31 128.71 96.48 128.59C96.61 128.5 97.15 128.24 97.34 128.23L97.51 128.27C97.9 128.52 98.32 128.74 98.76 128.9C99.69 129.3 100.64 129.64 101.57 130.04C101.45 130.16 101.48 130.32 101.43 130.47C101.33 130.71 101.1 130.91 100.98 131.13C100.86 131.35 100.87 131.34 101.04 131.49C101.25 131.67 101.3 131.79 101.47 132.03C101.85 132.56 102.01 133.22 102.07 133.86C102.11 134.28 102.22 134.76 101.9 135.11C101.55 135.06 101.63 134.29 101.6 134.04C101.51 134.03 101.44 134.06 101.61 135.08V135.1Z" fill="#AD5828"/>
<path d="M104.04 130.05C100.88 126.96 102.62 125.61 104.11 122.07C105.49 118.79 106.34 115.37 106.31 111.8C106.24 102.92 104.16 94.4898 104.98 85.3698C105.81 76.1998 110.12 67.7798 111.27 58.5898C112.1 51.9498 111.43 44.0698 113.47 37.6898C115.31 31.9498 120.96 29.2098 122.98 23.5098C124.64 18.8298 125.21 15.1198 127.62 10.4898C127.64 10.4498 127.66 10.3998 127.68 10.3598C118.83 14.1098 108.53 9.79977 102.66 1.25977C102.38 3.66977 102.1 6.06977 100.61 8.33977C99.8696 6.69977 98.6696 5.55977 97.1996 4.77977C96.9096 12.0298 93.5496 18.0598 91.7696 24.9298C90.2196 30.9198 89.5596 36.8498 87.8096 42.8498C85.9796 49.0898 85.1596 56.5098 84.9496 62.9698C84.6496 72.5998 88.1196 81.2398 86.0796 91.0398C84.1896 100.1 84.2396 103.54 85.7996 113.2C86.7996 119.37 78.6596 127 76.3296 132.88" stroke="#231815" stroke-linecap="round" stroke-linejoin="round"/>
</g>
</g>
<defs>
<clipPath id="clip0_188_16864">
<rect width="174" height="270" fill="white"/>
</clipPath>
</defs>
</svg>
