<svg width="142" height="264" viewBox="0 0 142 264" fill="none" xmlns="http://www.w3.org/2000/svg">
<g clip-path="url(#clip0_188_16355)">
<mask id="mask0_188_16355" style="mask-type:luminance" maskUnits="userSpaceOnUse" x="0" y="0" width="142" height="264">
<path d="M142 0H0V264H142V0Z" fill="white"/>
</mask>
<g mask="url(#mask0_188_16355)">
<path opacity="0.5" d="M71.0002 263.07C95.4554 263.07 115.28 257.308 115.28 250.2C115.28 243.092 95.4554 237.33 71.0002 237.33C46.545 237.33 26.7202 243.092 26.7202 250.2C26.7202 257.308 46.545 263.07 71.0002 263.07Z" fill="#7A736E"/>
<path d="M60.42 8.63996C60.44 6.75996 58.55 6.77996 56.87 7.16996C53.43 7.95996 54.93 9.32996 53.7 11.26C52.84 12.62 51.26 14.72 49.98 16.06C46.65 19.54 43.71 21.39 44.02 26.85C44.23 30.55 43.97 33.46 43.97 37.22C42.73 37.57 38.41 37.61 37.82 39.09C36.58 42.22 41.31 41.47 42.68 42.59C48.34 47.2 31.48 49.34 35.11 56.63C32.81 57.48 31.02 59.28 28.84 60.39C26.71 59.22 18.61 62.77 17.56 64.95C16.96 66.17 17.61 68.38 17.61 69.76C18.98 70.46 18.94 73.29 18.64 74.93C18.18 77.45 16.87 77.15 17.97 79.9C19.07 82.65 23.1 84.67 22.36 88.21C21.65 91.62 18.74 90.68 16.59 92.83C14.97 94.45 15.81 96.02 15.07 97.32C13.9 99.37 11.46 100.38 10.08 102.3C13.64 105.09 12.48 108.79 14.32 112.69C11.26 115.08 2.52999 115.63 1.55999 120.66C1.23999 122.31 2.68999 122.59 2.98999 124.14C3.35999 126.1 2.41999 128.31 3.50999 130.03C6.41999 134.63 16.34 134.6 20.61 137.94C20.28 135.88 21.47 133.91 23.13 132.73C24.28 137.99 35.05 140.34 38.68 136.69C40.29 135.08 39.34 131.56 40.77 130.32C43.06 128.34 49.69 130.22 52.24 130.21C52.4 128.34 52.13 126.44 51.82 124.59C56.19 126.16 63.11 131.83 67.25 130.51C75.97 127.71 67.52 119.52 70.84 115.08C72.24 113.2 76.35 112.83 78.54 114.05C81.48 115.7 79.57 117.01 80.48 120.42C82.07 126.36 90.03 127.31 95.47 129.78C93.29 130.06 92.64 132.81 92.92 134.72C97.53 135.97 104.07 135.17 108.73 134.59C112.66 127.42 120.67 133.52 125.91 136.97C126.96 137.66 128.37 137.03 128.57 135.79C129.44 130.33 130.23 124.99 130.18 119.38C132.38 119.45 135.55 117.5 137.18 116.37C141.51 113.37 140.8 113.66 139.72 110.36C138.84 107.68 137.36 107.4 137.98 104.21C138.6 100.97 140.24 98.53 137.4 95.04C134.43 91.4 134.45 94.11 131.7 93.88C128.95 93.65 125.14 91.33 126.57 87.65C127.49 85.28 131.4 85.29 132.45 82.92C136.32 74.22 124.02 73.95 119.47 73.12C117.62 77.53 115.64 77.33 112.79 72.93C111.77 71.35 110.99 68.28 109.07 67.9C106.84 67.46 104.4 70.58 104.41 72.43C97.29 72.88 97.23 67.08 104.11 66.82C106.09 62.89 100.75 59.61 98.03 57.85C102.54 55.18 107.42 52.9 107.01 46.88C106.68 42.02 103.15 37.71 98.71 37.36C93.7 36.96 95.83 40.63 92.58 42.72C89.33 44.81 85.37 41.62 85.56 38.33C85.8 34.23 88.01 34.18 86.35 29.88C84.38 24.75 85.06 27.44 86.97 22.99C88.6 19.2 87.19 16.6 84.97 13.66C83.77 12.07 83.6 12.82 82.49 10.55C80.89 7.25996 80.19 3.73996 77.55 0.959961C74.45 3.19996 71.59 4.66996 69.09 7.42996C68.4 6.52996 67.04 6.54996 65.7 7.16996C65.33 8.61996 65.27 10.16 65.26 11.64C63.05 11.68 61.22 9.99996 60.45 8.65996L60.42 8.63996Z" fill="#73D165" stroke="#231815" stroke-linecap="round" stroke-linejoin="round"/>
<path d="M83.5298 99.5601C83.5998 103.95 80.7198 109.09 79.5198 113.6C78.1798 118.65 72.2398 125.68 73.6498 130.65C75.8598 138.42 76.2298 141.23 75.5498 148.84C74.8098 157.07 78.4898 163.82 79.1698 171.74C79.6198 177.06 79.6598 183.22 78.7598 188.51C77.8998 193.6 77.9298 198.53 77.2298 203.58C76.3998 209.61 74.0698 215.06 74.7698 221.34C75.2698 225.83 77.2198 224.94 79.7798 228.08C82.8898 231.89 81.4998 237.04 81.7498 241.66C86.3798 241.62 91.9298 244.21 95.5498 246.85C89.8798 244.64 82.5498 248.09 76.0098 248.11C72.1498 248.12 72.5198 249.26 69.7298 251.05C66.0198 253.42 60.8298 252.95 56.2998 252.63C56.0298 250.27 56.2698 247.72 55.3698 245.39C53.2198 245.09 50.4998 247.32 48.4498 247.98C44.7898 249.17 38.6198 250.52 35.3198 252.64C37.1398 244.66 44.1298 237.7 46.3898 229.69C47.4298 226.02 47.8098 222.58 49.2198 218.87C50.7498 214.84 50.8598 211.75 51.7698 207.75C52.8698 202.88 57.2398 200.1 58.1998 195.21C59.2598 189.78 57.9598 183.39 57.9998 177.86C58.0598 170.21 60.7898 162.9 60.5798 155.3C60.3698 147.7 57.8598 141.04 56.9498 133.76C56.5898 130.83 56.9498 127.95 57.7698 125.13C58.6498 122.08 59.9498 120.81 57.0598 118.58C54.9398 116.94 53.5998 114.85 51.2298 113.48C49.5098 112.49 47.6698 111.84 46.3598 110.39" fill="#C1682D"/>
<path d="M83.5298 99.5601C83.5998 103.95 80.7198 109.09 79.5198 113.6C78.1798 118.65 72.2398 125.68 73.6498 130.65C75.8598 138.42 76.2298 141.23 75.5498 148.84C74.8098 157.07 78.4898 163.82 79.1698 171.74C79.6198 177.06 79.6598 183.22 78.7598 188.51C77.8998 193.6 77.9298 198.53 77.2298 203.58C76.3998 209.61 74.0698 215.06 74.7698 221.34C75.2698 225.83 77.2198 224.94 79.7798 228.08C82.8898 231.89 81.4998 237.04 81.7498 241.66C86.3798 241.62 91.9298 244.21 95.5498 246.85C89.8798 244.64 82.5498 248.09 76.0098 248.11C72.1498 248.12 72.5198 249.26 69.7298 251.05C66.0198 253.42 60.8298 252.95 56.2998 252.63C56.0298 250.27 56.2698 247.72 55.3698 245.39C53.2198 245.09 50.4998 247.32 48.4498 247.98C44.7898 249.17 38.6198 250.52 35.3198 252.64C37.1398 244.66 44.1298 237.7 46.3898 229.69C47.4298 226.02 47.8098 222.58 49.2198 218.87C50.7498 214.84 50.8598 211.75 51.7698 207.75C52.8698 202.88 57.2398 200.1 58.1998 195.21C59.2598 189.78 57.9598 183.39 57.9998 177.86C58.0598 170.21 60.7898 162.9 60.5798 155.3C60.3698 147.7 57.8598 141.04 56.9498 133.76C56.5898 130.83 56.9498 127.95 57.7698 125.13C58.6498 122.08 59.9498 120.81 57.0598 118.58C54.9398 116.94 53.5998 114.85 51.2298 113.48C49.5098 112.49 47.6698 111.84 46.3598 110.39" stroke="#231815" stroke-linecap="round" stroke-linejoin="round"/>
<path d="M73.7797 98.9199C73.5997 97.0499 72.2498 95.2299 70.1798 95.3199C69.2198 95.3599 68.1997 95.8199 67.4897 96.5399C67.1597 96.7999 66.8597 97.1199 66.6397 97.5299C66.0397 98.6199 65.3997 99.6799 65.1697 100.92C64.9397 102.18 64.9198 103.4 65.0098 104.67C65.1298 106.47 66.2897 107.96 68.1297 108.21C69.7197 108.42 71.6097 107.45 72.0297 105.79C72.1797 105.58 72.3298 105.36 72.3598 105.33C72.9698 104.54 73.3998 103.58 73.4298 102.56C73.4298 102.49 73.4298 102.19 73.4098 102.17C73.4398 101.94 73.5098 101.71 73.5498 101.49C73.7098 100.65 73.8597 99.7899 73.7797 98.9299V98.9199Z" fill="#C1682D"/>
<path d="M58.3198 111.1C61.2898 112.52 63.8898 114.5 64.6998 110.15C65.2598 107.14 64.1198 103.16 65.4498 100.41C65.3898 100.35 65.5098 100.47 65.4498 100.41" fill="#73D165"/>
<path d="M58.3198 111.1C61.2898 112.52 63.8898 114.5 64.6998 110.15C65.2598 107.14 64.1198 103.16 65.4498 100.41M65.4498 100.41C65.3898 100.35 65.5098 100.47 65.4498 100.41Z" stroke="#231815" stroke-linecap="round" stroke-linejoin="round"/>
<path d="M51.8001 106.94C51.7601 106.82 51.7201 106.69 51.6801 106.57C51.5601 106.05 51.3201 105.6 50.9601 105.21C50.6801 104.77 50.3001 104.43 49.8401 104.18C49.3801 103.89 48.8901 103.73 48.3501 103.71C47.8201 103.59 47.2901 103.61 46.7601 103.78L45.8001 104.18C45.2001 104.54 44.7201 105.01 44.3701 105.62C44.2401 105.94 44.1001 106.26 43.9701 106.58C43.7801 107.29 43.7801 108 43.9701 108.71C44.0101 108.83 44.0501 108.96 44.0901 109.08C44.2101 109.6 44.4501 110.05 44.8101 110.44C45.0901 110.88 45.4701 111.22 45.9301 111.47C46.3901 111.76 46.8801 111.92 47.4201 111.94C47.9501 112.06 48.4801 112.04 49.0101 111.87L49.9701 111.47C50.5701 111.11 51.0501 110.64 51.4001 110.04C51.5301 109.72 51.6701 109.4 51.8001 109.08C51.9901 108.37 51.9901 107.66 51.8001 106.95V106.94Z" fill="#73D165"/>
<path d="M63.0298 103.27C62.7898 102.85 62.5498 102.44 62.3098 102.02C61.8098 101.15 60.8898 100.45 59.9198 100.18C59.3898 100.01 58.8598 99.9901 58.3298 100.11C57.7998 100.13 57.2998 100.29 56.8398 100.58C55.9898 101.13 55.2298 101.95 54.9998 102.97C54.7598 104.02 54.8498 105.1 55.3998 106.05C55.6398 106.47 55.8798 106.88 56.1198 107.3C56.6198 108.17 57.5398 108.87 58.5098 109.14C59.0398 109.31 59.5698 109.33 60.0998 109.21C60.6298 109.19 61.1298 109.03 61.5898 108.74C62.4398 108.19 63.1998 107.37 63.4298 106.35C63.6698 105.3 63.5798 104.22 63.0298 103.27Z" fill="#73D165"/>
<path d="M44.4202 111.64C43.4102 115.35 47.8702 114.13 50.4902 113.87C52.2302 113.69 54.0802 113.69 55.6802 113.07C57.5502 112.35 59.2202 112.08 59.5802 110.17C59.9102 108.43 57.7402 104.91 58.8602 103.8" fill="#73D165"/>
<path d="M44.4202 111.64C43.4102 115.35 47.8702 114.13 50.4902 113.87C52.2302 113.69 54.0802 113.69 55.6802 113.07C57.5502 112.35 59.2202 112.08 59.5802 110.17C59.9102 108.43 57.7402 104.91 58.8602 103.8" stroke="#231815" stroke-linecap="round" stroke-linejoin="round"/>
<path d="M85.7499 97.2599C84.3999 95.6499 81.4699 95.7599 80.0899 97.2599C78.8299 98.6299 78.6799 100.33 79.4099 101.84C79.3599 101.97 79.3099 102.09 79.2799 102.18C78.9799 103.17 78.7699 104.14 78.7199 105.19C78.6199 107.28 80.6299 109.28 82.7199 109.19C84.9699 109.09 86.6199 107.43 86.7199 105.19C86.7199 105.26 86.7199 105.31 86.7199 105.36C86.7199 105.27 86.7399 105.18 86.7599 105.11C86.8299 104.84 86.9199 104.57 86.9999 104.31C87.2299 103.55 87.3799 102.8 87.4399 102.01C87.5599 100.18 86.9099 98.6399 85.7499 97.2599Z" fill="#73D165"/>
<path d="M86.7201 105.36C86.7001 105.58 86.7001 105.75 86.7201 105.36V105.36Z" fill="#73D165"/>
<path d="M73.2899 99.8799C73.5199 103.04 71.9799 106.67 71.6699 109.86C75.5299 110.14 77.4299 108.35 79.7099 105.76" fill="#73D165"/>
<path d="M73.2899 99.8799C73.5199 103.04 71.9799 106.67 71.6699 109.86C75.5299 110.14 77.4299 108.35 79.7099 105.76" stroke="#231815" stroke-linecap="round" stroke-linejoin="round"/>
<path d="M87.4501 101.41C86.1001 99.9899 83.9001 99.7398 82.3701 101.06C82.3201 101.1 82.2701 101.14 82.2201 101.18C82.2101 100.84 82.1601 100.51 82.0401 100.2C82.0601 99.7098 81.9501 99.2399 81.7101 98.7999C81.5101 98.3599 81.2301 97.9999 80.8501 97.7199C80.7301 97.5899 80.5901 97.4999 80.4501 97.3999C80.5801 95.2799 79.0201 92.9898 76.3101 93.4998C75.6701 93.6198 75.1701 93.8699 74.7501 94.1899C74.1601 93.5299 73.3701 93.0899 72.4701 93.1199C71.1001 93.1599 69.7001 93.1199 68.3701 93.4399C67.1901 93.7199 66.0301 94.1199 64.8701 94.4699C63.0101 95.0199 61.6101 96.6199 62.0001 98.6799C62.3301 100.44 64.3301 102.11 66.2101 101.55C68.1201 100.98 69.9001 100.37 71.8801 100.31C72.8101 100.28 73.6901 99.9998 74.3901 99.4898C74.5401 99.6698 74.7101 99.8398 74.9001 99.9898C74.8801 100.11 74.8501 100.23 74.8401 100.35C74.8401 100.41 74.8401 100.46 74.8401 100.52C74.8401 100.87 74.8601 101.24 74.9001 101.59C74.9501 101.98 75.1201 102.37 75.2501 102.74C75.2901 102.85 75.3301 102.95 75.3901 103.05C75.5901 103.49 75.8701 103.85 76.2501 104.13C76.5701 104.47 76.9601 104.71 77.4101 104.85C77.8601 105.03 78.3301 105.09 78.8001 105.02C78.8301 105.02 78.8501 105.02 78.8701 105.02C78.8601 105.1 78.8401 105.19 78.8401 105.26C78.7701 106.15 79.0901 107.26 79.7101 107.92C80.3401 108.58 81.1901 109.11 82.1301 109.15C83.1601 109.19 83.9501 108.86 84.7901 108.28C85.5801 107.73 86.3401 107.15 87.0701 106.52C88.5001 105.29 88.7601 102.84 87.4201 101.44L87.4501 101.41Z" fill="#73D165"/>
<path d="M64.0199 96.6799C63.4199 97.5199 61.4899 100.28 62.2899 101.25C63.7299 103 70.2399 100.58 71.6999 100.3C76.9699 99.2799 80.0999 98.7299 79.0499 104.73C78.0399 110.52 83.2499 109.19 86.9199 108.5" stroke="#231815" stroke-linecap="round" stroke-linejoin="round"/>
<path d="M72.8801 19.8401L73.0901 19.8601C72.2901 19.6101 71.8701 19.1001 70.9701 19.3701C69.7001 19.7501 69.7101 20.9801 69.8201 22.1301C69.9701 23.8401 70.8401 25.4301 71.1901 27.1001L71.4801 28.9601L71.4101 29.7901C71.7201 30.4301 72.8201 30.0501 73.1701 30.7901C73.5701 31.6301 72.5001 33.3201 72.2101 34.0901C71.8701 34.9901 71.6101 35.1301 70.6901 35.3301C69.9301 35.4901 69.5501 35.9001 68.7601 35.9401C67.9701 35.9801 67.0201 36.1401 66.4801 35.5601C66.0301 35.7801 65.5501 36.6901 65.3801 37.1001C65.0701 37.8401 65.2701 38.2701 65.8501 38.7901C66.4301 39.3101 67.2601 39.9701 66.4601 40.7001C65.8701 41.2401 65.0701 41.2601 64.3301 41.1301C63.5201 40.9801 62.8701 40.9101 62.0501 40.9001C61.1601 40.8901 59.7401 40.7901 59.3701 41.8201C58.3301 44.6501 64.3501 43.7801 65.2401 43.6501C66.4001 43.5101 67.5401 43.2901 68.6701 42.9801L70.2301 42.7201C70.9501 42.8601 70.7501 43.1101 71.0001 43.6901C71.7901 45.4801 74.4001 47.6501 75.7201 48.7401C76.2301 49.1601 79.0901 50.9201 78.9601 51.4801C78.1801 51.6901 77.6601 51.9601 76.9401 52.3001C76.2701 52.6101 75.3501 52.6401 74.9201 53.2801C74.4101 54.0301 74.4901 54.9601 75.2201 55.4801C75.6801 55.8101 75.9101 55.6801 76.3401 55.8501C77.3601 56.2401 79.2601 56.7501 79.9601 57.6001C80.4701 58.2301 79.8701 58.5901 79.4101 59.2001C78.8601 59.9301 78.2801 60.1301 77.3401 59.8701C76.5201 59.6401 76.5301 59.1101 75.8001 59.6201C74.8601 60.2801 74.2601 62.2601 74.6601 63.3301C75.0801 64.2001 75.7701 64.6901 76.7301 64.8201C77.1901 64.9601 77.6401 64.9601 78.0901 64.8201C79.8301 65.2501 81.4101 67.4801 82.5601 68.7401C83.2101 69.3901 83.7901 70.0801 84.3201 70.8201C84.3401 71.1601 84.1901 71.3201 83.8701 71.3101C83.4801 71.5701 82.5001 71.8501 82.0101 71.9201C81.0201 72.0501 79.9501 71.8501 78.9501 71.8601C77.4201 71.8801 75.0901 74.8201 76.9401 75.9601C76.2601 76.0901 75.2501 75.9901 74.6301 75.9801C74.4401 75.9801 73.0201 76.1201 72.6501 76.0001C72.3301 75.9001 72.3901 75.7201 72.1401 75.5701C71.9201 75.4401 71.6701 75.4001 71.4301 75.2601C71.1001 75.0701 70.8001 74.6801 70.4601 74.4601C69.7001 73.9601 68.8401 73.6801 68.1801 73.0401C67.7701 72.6501 67.5801 72.3301 67.0201 72.1701C66.1301 71.9101 65.0501 72.1301 64.2601 72.5401C63.5801 72.8901 62.6401 73.6401 62.8901 74.5401C63.1401 75.4401 65.0701 76.2101 65.6201 76.5601C66.4701 77.1101 68.5401 78.3201 68.1801 79.5101C67.8801 80.5101 66.8201 80.8101 65.9601 80.5601C65.2701 80.3601 63.5001 79.6201 63.0801 78.9301C62.9001 78.6401 63.0001 78.3701 62.7001 78.2201C61.9401 78.6401 61.7101 79.6501 61.7601 80.4501C61.7901 80.9301 62.3201 81.6901 62.0401 82.1401C61.7601 82.5901 61.3501 82.3501 60.9601 82.3901C60.1001 82.4701 59.3101 82.7701 58.4801 82.9301C57.5301 83.1101 56.9301 82.9301 56.0601 82.4801C55.4901 82.1801 55.0101 81.6301 54.4801 81.3601C53.6901 80.9501 52.4001 81.0301 52.4101 82.1001C52.4101 82.9001 52.9001 83.2801 53.3401 83.8901C53.8001 84.5401 53.6001 85.3301 53.6101 86.1301C53.6201 87.2301 53.4701 87.6201 53.0801 88.5601C52.7901 89.2701 52.8601 89.2201 52.0501 89.4001C51.0701 89.6201 50.1001 90.2301 49.1301 90.3401C47.2201 90.5701 45.1401 89.7201 43.2101 89.6801C42.1801 89.6601 42.0001 90.4701 41.8601 91.4001C41.0401 91.6701 40.1401 91.7901 39.3101 92.0501C37.8601 92.5101 37.4301 91.9201 36.0101 91.3501C35.2101 91.0301 34.6701 90.6901 33.8101 90.9201C32.4801 91.2801 31.0001 92.2801 29.9401 93.1701C29.2401 93.7501 29.3001 93.9401 29.3401 94.7001C29.3401 95.0901 29.3301 95.4701 29.3201 95.8601C29.2701 96.1701 29.3701 96.3801 29.6301 96.5001C29.8401 96.5801 29.9401 96.7301 29.9401 96.9501C29.9301 97.3301 29.9201 97.7101 29.9101 98.0901C29.9001 98.7401 30.0601 99.2501 30.1801 99.8801C30.3001 100.51 30.3001 101.16 30.6401 101.7C30.9101 102.15 31.3701 102.4 31.6701 102.83C32.2401 103.64 32.9501 104.36 33.8601 103.73C34.5401 103.25 37.7801 101.22 38.3801 102.23C38.9801 103.24 37.3201 104.6 36.4201 104.3C36.0601 103.77 36.7601 103.18 37.0901 102.89C38.3601 101.76 39.6301 100.63 40.9101 99.5001C41.5801 98.7701 42.3501 98.1901 43.2201 97.7601C43.6401 97.5001 44.0801 97.2901 44.5401 97.1301C44.8801 96.9001 45.1601 96.4501 45.3701 96.1001C45.8201 95.3401 45.7101 95.2001 46.5701 95.2301C47.4901 95.2601 48.4601 95.4601 48.3501 96.5501C48.2101 97.9601 46.4601 98.9701 46.5601 100.4C46.6201 101.34 47.0701 101.09 46.3201 101.99C45.7501 102.67 45.3201 103.34 44.4401 103.69C43.5601 104.04 42.5201 104.24 41.5901 104.29C40.3801 104.35 39.9901 104.1 39.8301 105.5C40.2201 105.78 40.6601 105.91 41.1701 105.89C42.1101 106.16 43.0701 106.39 44.0301 106.59C46.1101 107.04 48.3901 107.34 50.5101 107.14C50.4101 106.66 50.4901 105.41 50.7401 104.98C51.0201 104.5 51.9901 104.17 52.4401 103.89C53.2701 103.39 53.9001 102.91 54.2401 102.02C53.6901 101.45 52.9101 100.96 52.2901 100.53C51.8601 100.23 50.2601 99.6601 50.7201 98.8301C51.2401 97.9001 53.6201 97.9901 54.4101 97.8201C54.8901 97.7201 59.4101 96.7501 58.9801 95.1101C58.8901 94.7501 58.4301 94.5501 58.3101 94.2201C58.0401 93.5201 58.0201 92.3701 57.9901 91.6401C57.9501 90.5901 58.0801 90.0901 59.1701 89.7401C59.5401 89.6201 59.9201 89.7801 60.2901 89.6701C60.6601 89.5601 60.7601 89.3801 61.0301 89.1301C61.7401 88.5001 62.5701 87.9801 63.3201 87.3901C63.6601 87.1301 64.4501 86.7101 64.4201 86.2101C65.5201 86.0001 66.7701 86.2201 67.8701 86.1901C69.0401 86.1601 70.1501 85.8001 71.2901 85.6901C72.3601 85.5901 72.1601 85.7701 72.8701 86.9701C73.1701 87.4801 73.4801 88.0001 73.8101 88.4901C74.5501 88.3901 75.2701 88.1101 76.0001 87.9301C77.8901 87.4701 79.8201 87.0001 81.6101 86.2401L83.6901 85.2301C84.2301 85.1201 84.4701 84.8801 84.4101 84.5001C84.9001 84.1301 83.9001 84.2701 85.3301 84.0301C87.3801 83.7001 89.5301 83.6101 91.3901 84.6701C92.1501 85.1001 92.1801 85.3901 92.2101 86.1801C92.2501 87.1901 92.6601 88.1001 93.0301 89.0301C92.4801 89.4901 92.0301 89.3901 91.6301 90.0801C91.4401 90.4001 90.7201 91.5801 90.7801 91.9501C92.4901 92.8101 92.5101 93.7701 92.5201 95.5001C92.5201 96.4801 92.5601 97.4401 91.4301 97.5901C90.7501 97.6801 89.5401 97.7101 89.0301 97.4001C88.1801 96.9001 86.8701 96.0001 86.3901 97.4201C85.9901 98.5901 86.9901 99.6601 88.0301 100.05C89.6001 100.64 91.5801 100.38 92.8201 101.64C93.2301 102.06 93.5501 102.56 93.9701 102.97C94.3101 103.3 95.2401 103.71 95.0801 104.25C94.4301 104.32 93.5101 104.81 93.3601 105.51C93.1401 106.54 94.4201 106.78 95.0901 106.88C96.7501 107.13 98.8501 107.14 100.52 106.86C100.88 107.19 100.91 108.6 100.95 108.92C101.08 109.86 101.28 110.42 100.5 111.1C99.7901 111.73 98.7901 112.39 97.9601 112.83C97.6501 113 97.2201 112.94 96.9701 113.15C97.7101 116.06 102.25 116.24 104.48 116.22C105.34 116.32 106.18 116.24 107 115.99C107.61 115.93 108.17 115.75 108.69 115.44C108.95 115.38 109.18 115.33 109.44 115.44C109.82 116.62 110.11 118.14 110.11 119.36C110.11 120.31 109.95 120.26 109.01 120.36C108.35 120.43 107.72 120.59 107.23 121.05C106.58 121.67 106.05 122.75 105.44 123.4C104.62 124.28 103.61 124.89 102.36 124.83C101.35 124.78 101.19 124.35 100.79 123.6C100.07 122.23 98.1801 121.91 96.8501 121.36C97.0001 122.01 96.7301 122.69 96.9401 123.3C97.2901 124.29 99.0301 124.35 99.9201 124.44C101.26 124.57 102.64 124.49 103.99 124.47C105.26 124.45 106.25 124.09 107.03 125.14C107.38 125.62 107.61 126.2 107.97 126.66C108.47 127.3 108.91 127.09 109.78 127.09C110.85 127.09 112.64 127.4 113.54 126.68C113.56 126.38 113.71 126.19 114 126.09C114.28 125.87 114.58 125.7 114.92 125.59C115.53 125.31 116.6 124.58 117.3 124.67C117.72 124.73 118.13 125.14 118.46 125.37C119.29 125.94 120.12 126.51 120.95 127.09C121.99 127.83 123.15 129.26 124.46 128.61C125.6 128.04 127.62 126.86 128.2 125.75C128.65 124.89 128.6 124.63 127.65 124.15C126.22 123.43 124.69 123.2 123.18 122.73C122.03 122.37 119.46 121.33 119.78 119.76C120.03 118.53 121.63 117.81 122.67 117.43C123.84 117 125 117.33 126.22 117.12C127.18 116.95 127.79 116.7 127.68 115.67C127.51 114.08 125.74 113.42 124.66 112.47C124.88 111.46 126.23 110.71 127.04 110.25C128.33 109.52 129.28 110.42 130.58 110.15C130.53 108.37 129.33 106.64 128.86 104.96C128.63 104.13 128.8 103.99 127.75 103.61C125.98 102.97 124.04 103.24 122.21 103.12C120.86 103.03 119.71 101.97 119.28 100.65C118.85 99.3301 119.2 98.0601 119.62 96.8201C119.9 96.0701 120.12 95.3001 120.3 94.5101C120.2 94.1901 120.22 93.8901 120.34 93.6201C120.66 93.1901 121.65 93.3801 122.08 92.9801C122.51 92.5801 122.48 92.3101 122.4 91.7301C122.3 90.9501 122.11 90.7101 121.39 90.4501C120.24 90.0301 118.31 90.1301 117.12 90.0201C116.32 89.9401 115.25 89.9901 115.06 88.8801C114.79 87.3301 117.71 86.5801 118.59 85.9001C118.45 85.1901 118.04 84.5001 117.81 83.8001C117.44 82.7001 117.16 81.9701 116.22 81.2601C114.58 80.0201 111.81 78.7101 109.67 79.1401C108.95 79.2801 108.37 79.7001 107.75 80.0301C106.59 80.6201 104.74 80.9901 103.4 80.5701C102.91 80.4201 102.01 79.3801 101.88 78.8701C101.75 78.3601 102.01 78.0401 101.7 77.5401C101.33 76.9401 100.67 76.6701 100.05 76.5201C98.6001 76.1601 97.0901 76.9101 95.6801 76.8001C94.9701 76.7401 94.4701 76.1201 94.0101 75.6301C92.8801 74.4201 92.8201 72.5101 92.8501 70.9401C92.8701 69.9601 93.2501 70.2101 93.6801 69.3701C94.4601 67.8701 92.4501 67.5501 91.7801 66.8601C91.1101 66.1701 90.7901 65.1201 91.7201 64.5701C92.3601 64.1901 93.0101 64.0601 93.5801 63.5901C94.6501 62.7101 93.4601 61.3901 92.9401 60.5301C92.2701 59.4401 92.5701 58.2401 93.3601 57.2401C93.7001 56.8001 93.8401 56.8201 94.3101 56.5501C95.0801 56.1101 94.6301 56.3601 94.9201 55.7601C95.2501 55.1001 96.0201 54.5801 96.4001 53.9501C96.7501 53.3601 96.6701 53.1301 96.6401 52.5201C96.6201 52.1501 96.5501 51.6201 96.6901 51.2601C96.8601 50.8401 97.3001 50.7301 97.2301 50.2301C98.4101 49.8901 99.7101 50.3501 100.91 50.0101C101.74 49.7801 102.39 49.5901 102.67 48.6901C102.95 47.7901 102.94 46.6101 102.45 45.7901C101.96 44.9701 101.05 44.2601 100.1 44.2701C98.7501 44.2901 97.3801 44.8801 96.4801 45.8901C96.1301 46.2801 96.0001 46.7701 95.6001 47.1101C94.6501 47.9301 92.6701 47.6001 91.5601 47.5501C90.8501 47.5201 90.1801 47.2201 89.4701 47.2801C88.5301 47.3601 87.6801 47.7901 86.7301 47.8301C86.0201 47.8601 84.6501 48.0901 83.9901 47.7901C83.3301 47.4901 83.3201 46.6301 83.0501 46.0501C82.5501 44.9801 81.5801 44.3901 81.2801 43.2601C81.0501 42.3901 81.4501 41.7001 81.4301 40.7801C81.4301 40.4001 81.5001 40.1001 81.2701 39.7601C81.0301 39.4001 80.5301 39.4101 80.3001 39.0701C80.0701 38.7301 80.1801 37.2901 80.2801 36.8501C80.4201 36.2401 80.6301 35.8701 80.5901 35.1801C80.5601 34.7101 80.5001 34.2401 80.2301 33.8501C80.0101 33.5301 79.8201 33.5301 79.5901 33.2801C78.9101 32.5301 78.1501 31.1601 77.9601 30.1901C77.7701 29.2201 78.3701 28.6401 78.5101 27.7301C78.6801 26.6301 78.3701 26.1801 77.7701 25.3701C77.5301 25.0501 77.3901 24.8901 77.0801 24.7101C76.5501 24.4101 75.3901 24.4901 74.9401 24.0601C73.8001 22.9701 77.4201 21.5401 77.9801 20.8801C78.6501 20.0901 78.0001 19.5601 77.3401 19.0801C76.9601 18.8101 76.6701 18.3901 76.2501 18.1801C75.5901 17.8301 74.8601 18.3401 74.4301 19.0501C74.1101 19.5801 74.3401 20.6001 73.8201 20.8701C73.5301 21.0301 72.6901 21.0401 72.9601 19.7201L72.8801 19.8401Z" fill="#67C457"/>
<path d="M41.3002 120.13C41.3002 120.13 40.1302 118.66 40.0002 118.49C39.4902 117.95 39.0602 117.34 38.7102 116.68C38.5502 116.13 38.3302 115.6 38.0602 115.09C37.6602 114.63 36.3002 114.23 35.7202 114.58C35.1402 114.93 35.4802 115.26 35.8402 115.85C36.4202 116.77 37.5202 117.6 37.5402 118.75C37.5602 119.55 37.3302 120.13 36.5902 120.45C35.7302 120.82 34.3702 120.89 33.4702 120.66C33.1302 120.57 33.0202 120.25 32.5302 120.48C32.1602 120.66 32.1602 121.08 31.8302 121.27C31.3802 121.53 30.4702 121.28 29.9702 121.31C29.2702 121.34 28.6102 121.58 27.9002 121.62C26.7002 121.69 25.6102 121.62 24.4202 121.83C23.5702 121.98 22.9902 121.72 22.2202 122.27C21.6002 122.71 20.7702 123.73 21.1202 124.56C23.0002 125.09 25.0602 124.87 26.9702 124.65C27.8902 124.57 28.8002 124.42 29.7002 124.19C30.1802 123.94 30.6402 123.92 31.0802 124.13C30.9102 125.59 31.9702 127.18 32.8302 128.28C33.1902 128.75 33.8702 129.97 34.4402 130.2C35.1902 130.5 36.7502 129.48 37.3502 129.08C38.0202 128.63 39.5502 127.8 39.6202 126.91C40.0202 126.93 40.0002 126.71 40.2402 126.53C40.8402 126.07 41.3702 125.7 42.0602 125.39C43.1302 124.9 42.8802 125.43 43.9102 125.83C44.9402 126.23 47.0102 126.14 48.0102 125.69C49.1502 125.18 51.2502 123.67 50.9702 122.16C50.8202 121.36 50.4802 121.66 49.7402 121.62C48.8602 121.56 48.0602 121.24 47.1502 121.31C46.6302 121.35 45.9302 121.87 45.6402 121.37C45.5002 121.12 46.2902 119.92 46.4502 119.65C46.7102 119.24 47.0102 119.05 47.3702 118.74C46.6202 118.51 45.6102 118.7 44.8302 118.69C44.2902 118.69 43.8202 118.63 43.3302 118.9C42.9502 119.11 42.7902 119.43 42.3302 119.54C42.0402 119.61 41.4302 119.65 41.1402 119.58C40.7502 119.48 40.6902 119.38 40.5702 118.96C40.3302 118.15 40.4302 117.22 41.3002 120.15V120.13Z" fill="#67C457"/>
<path d="M80.1 95.28C80.1 95.14 80.17 94.76 80.1 94.61C80 94.38 79.79 94.32 79.63 94.15C79.3 93.81 78.69 93.19 78.13 93.6C77.48 94.07 78.6 95.24 78.92 95.55C79.55 96.17 80.29 96.66 81 97.17C81.12 97.26 81.5 97.44 81.59 97.57C81.78 97.86 81.63 98.96 81.58 99.29C81.46 99.95 81.38 100.45 81.47 101.13C81.55 101.73 81.75 102.35 82.44 102.25C82.92 102.18 83.56 101.86 83.85 101.5C84.12 101.18 84.09 101.11 84.09 100.69C84.09 100.05 84.2 99.3 84.04 98.67C83.95 98.31 83.89 98.07 83.89 97.68C83.9 96.8 84.05 96.41 83.1 96.1C82.71 95.97 81.73 95.77 81.99 95.15C82.1 94.88 82.34 94.9 82.6 94.81C83.24 94.59 83.89 94.19 84.43 93.77C84.91 93.4 85.36 92.82 84.81 92.31C83.69 91.26 81.67 91.48 81.39 93.14C80.56 93.21 80.43 94.24 79.72 94.49" fill="#67C457"/>
<path d="M60.01 15.2299C59.85 14.5099 57.91 14.5299 57.47 14.7799C56.5 15.3199 57.07 16.1499 57.41 16.8399C57.6 17.2299 58.16 18.0699 58 18.5099C57.85 18.9199 56.75 19.1799 56.33 19.2399C56.11 19.2799 55.86 19.2799 55.64 19.2599C55.33 19.2299 54.81 18.9799 54.5 19.0399C54.11 19.1199 53.62 19.7499 53.75 20.1699C53.92 20.6999 55.03 20.8299 55.07 21.3999C54.03 21.7399 52.94 21.8999 51.87 22.0699C51.68 22.0999 51.15 22.0799 50.98 22.1899C50.79 22.3099 50.74 22.5799 50.66 22.8099C50.54 23.1699 50.29 23.7099 50.6 24.0199C50.84 24.2599 51.68 24.1999 51.98 24.1999C52.67 24.2099 53.36 24.1399 54.05 24.1999C54.42 24.2299 54.82 24.2499 55.18 24.3799C55.48 24.4899 55.57 24.6299 55.81 24.7999C56.49 25.2699 57.7 24.2999 58.31 23.8899C58.57 23.7099 58.83 23.4899 59.03 23.2799C59.07 23.2299 59.08 23.1499 59.13 23.0999C59.52 22.7199 60.42 22.2799 60.2 21.5899C59.51 21.2099 58.54 21.4799 57.78 21.4199C57.86 20.7199 58.75 19.9499 59.44 19.9399C59.96 20.0399 60.48 20.1699 60.98 20.3399C62.02 20.6099 63.08 20.7399 64.15 20.7399C64.73 20.7499 65.44 20.8999 65.81 20.4499C66.01 20.2099 66.05 19.7599 66.08 19.4799C66.2 18.4399 65.19 18.5199 64.35 18.4999C63.75 18.4799 63.15 18.5199 62.55 18.5199C62.18 18.5199 61.68 18.6099 61.33 18.4899C61.2 17.9399 61.22 17.1399 61.61 16.7199C62.12 16.1699 62.62 16.1699 62.59 15.3099C62.58 14.8199 62.85 13.1299 62.42 12.8499C61.86 12.8799 61.51 13.8199 61.48 14.2699C61.46 14.4999 61.56 14.8299 61.51 15.0499C61.44 15.3399 61.35 15.2499 61.16 15.4499C61.03 15.5899 61.18 15.6799 60.96 15.7899C60.9 15.8199 60.42 15.8199 60.38 15.7899C60.07 15.6399 60.21 14.9699 60.03 15.2199L60.01 15.2299Z" fill="#8EDB7D"/>
<path d="M50.6699 52.23L50.8199 52.21C50.9699 51.76 50.8699 50.82 50.7899 50.41C50.6499 49.7 50.4399 48.97 50.2099 48.29C50.0299 47.77 49.9299 47.81 49.4299 47.96C48.3899 48.27 46.9699 48.94 46.1999 49.66C45.9099 49.93 45.5299 50.21 45.4899 50.63C45.4599 50.9 45.5299 51.33 45.5399 51.61C45.5599 52.27 45.9899 52.97 45.5399 53.5C45.1699 53.94 44.1999 54.3 43.6099 54.25C43.0799 54.2 42.5899 53.96 42.0599 53.91C41.8299 53.89 41.1899 53.82 41.0099 54.06C40.7699 54.4 40.9699 55.49 41.2099 55.7L42.3299 56.13L43.8099 56.39C44.2099 56.45 45.3199 56.39 45.6599 56.83C45.9699 57.23 45.7499 57.76 45.3199 57.98C44.8899 58.2 44.2599 58.25 43.7799 58.32C42.3699 58.52 40.8799 58.69 39.4999 59.08C38.9399 59.24 38.4699 59.33 38.2099 59.81C37.9199 60.35 37.9899 61.17 38.1499 61.75C38.2399 62.08 38.3799 62.15 38.1499 62.49C37.8899 62.9 36.9099 63.1 36.4999 63.24C35.8199 63.47 35.1299 63.77 34.4399 63.96C33.8399 64.13 33.3199 64.07 32.7099 64.17C31.8399 64.3 31.5199 64.79 31.2599 65.56C30.2099 65.64 29.0899 65.21 28.0499 65.43C27.6799 65.51 27.4599 65.72 27.1999 66.01L26.4399 66.96C25.7399 67.74 25.4299 68.64 25.4999 69.67L26.4999 70.25C27.4899 70.37 28.4899 70.45 29.4799 70.48C30.5499 70.53 31.6299 70.54 32.6999 70.59C32.8599 71.09 32.7799 71.6 32.5199 72.04C31.4999 73.72 29.9199 74.75 29.7999 76.89C29.7599 77.53 29.6999 78.43 30.5099 78.63L31.7099 78.59L34.0399 78.24C34.4199 78.17 37.2699 77.77 37.7699 76.94C37.6999 76.69 37.4799 76.55 37.2999 76.4C36.6699 75.89 35.8299 75.59 35.3999 74.86C34.8599 73.94 35.0499 72.66 35.8399 71.99C36.5399 71.4 37.1699 70.75 37.7799 70.07C38.0099 69.81 38.5899 68.87 38.9399 68.83C39.5299 68.76 40.3299 69.36 40.8499 69.61C42.1599 70.23 43.5199 70.7 44.9599 70.94C44.4899 69.27 42.7599 67.85 43.1899 65.95C43.4499 64.81 44.9899 64.31 45.9299 63.88C46.3699 63.68 47.5799 63.05 48.1299 63.45C48.1499 63.75 48.2299 64.03 48.3899 64.29C48.6699 64.61 49.0099 64.81 49.4199 64.91C50.2599 64.91 50.0099 63.56 49.9799 63.03C49.9399 62.03 50.1999 61.5 50.8499 60.72C51.1799 60.33 51.6799 59.62 52.2599 60.06C52.4899 60.37 52.7399 60.66 53.0099 60.93C53.5399 61.46 54.0299 62.04 54.4699 62.66C54.9499 63.66 54.2199 63.86 54.0399 64.76C53.9899 64.98 53.8999 65.66 53.9499 65.9C54.1199 66.34 54.4399 66.65 54.8999 66.85C55.5699 67.3 56.2999 67.62 57.0799 67.82C57.6699 67.96 58.5699 68.13 59.2199 68.03C60.0899 67.89 61.8499 66.5 61.5899 65.46C61.4899 65.08 61.2399 65.06 60.9199 64.9C60.2499 64.58 59.5699 64.24 59.0499 63.71C59.4099 63.1 59.8999 62.63 60.2399 62C60.4199 61.67 60.4499 61.51 60.8099 61.4C61.2199 61.29 61.6499 61.53 61.8799 61.09C62.0899 60.69 61.5999 60.13 61.2899 59.9C60.9999 59.75 60.7099 59.61 60.4099 59.48C60.2199 59.45 60.0999 59.33 60.0499 59.14C59.5999 58.8 59.1499 58.77 58.5799 58.72C58.0299 58.67 57.4799 58.64 56.9299 58.65L56.2199 58.61C55.7299 58.24 56.4699 58.47 55.4299 57.96C54.0999 57.31 52.6399 57.25 51.1899 57.2C50.8299 57.19 49.8799 57.34 49.5899 57.09C49.1499 56.71 49.9699 56.54 50.1899 56.37C50.4099 56.2 50.4899 55.89 50.7199 55.72C51.0499 55.47 51.3599 55.52 51.7599 55.53C52.2599 55.53 52.7699 55.49 53.2699 55.56C53.8699 55.65 54.2499 55.98 54.8099 56.19C55.9699 56.62 57.3299 56.5 58.5599 56.46C59.2199 56.44 59.8299 56.27 60.4299 56C61.2399 55.64 60.9699 55.55 61.4099 55.16C61.7899 54.82 62.7799 54.7 63.2299 54.58C64.7399 54.19 66.2899 53.79 67.8599 53.71C68.3899 53.69 68.5799 53.79 68.8099 53.24C69.0699 52.61 68.8299 51.78 68.5299 51.22C68.0199 50.3 66.7099 49.97 65.7699 49.68C64.7799 49.38 63.1699 49.24 62.5599 50.25C62.3499 50.61 62.3599 51.08 62.0499 51.38C61.5499 51.86 60.6799 51.85 60.0299 51.87C59.2399 51.89 58.4399 51.85 57.6499 51.85C57.0499 51.85 56.2099 52.03 55.6599 51.8C55.5599 51.17 55.9399 50.82 56.1599 50.28C56.2699 50.01 56.3199 49.67 56.3799 49.38C56.4399 49.04 56.5299 48.64 56.2799 48.36C55.9799 48.04 55.2999 48.13 54.9599 48.28C54.0899 48.67 53.6999 49.7 53.6899 50.57C53.6899 50.99 53.5599 51.03 53.2799 51.32C52.8599 51.76 52.7399 52.2 52.5399 52.76C52.1699 52.83 51.7299 52.76 51.3899 52.68C50.9399 52.56 50.7899 52.16 50.7499 52.22L50.6699 52.23Z" fill="#8EDB7D"/>
<path d="M22.8299 102.77L22.9399 102.94C22.7199 102.8 22.6899 102.36 22.6099 102.12C22.4199 101.61 22.1899 101.13 21.9099 100.67C21.6799 100.2 21.3899 99.7601 21.0699 99.3601C20.3199 99.0001 19.7599 99.9001 19.5099 100.55C19.3499 100.95 18.8499 102.11 19.2599 102.44C19.5899 102.52 19.9099 102.64 20.2199 102.79C20.4699 102.97 20.5499 103.21 20.4799 103.51C20.4899 104.44 20.5299 105.39 20.4699 106.32C20.4299 106.82 20.3399 107.24 20.0499 107.64C19.6199 108.25 19.1299 108.4 19.0199 109.21C18.9399 109.73 18.9199 110.37 19.0199 110.89C19.1399 111.5 19.2499 111.68 19.7799 111.79C20.8099 112.01 22.6799 112.16 23.5599 111.45C24.2799 110.87 24.2899 110.57 23.8499 110.01C23.1499 109.11 22.8899 106.61 24.4399 106.39C25.6899 106.22 27.0899 107.11 28.3399 106.77C28.2999 106.56 28.4499 106.52 28.4799 106.37C28.5699 105.89 28.5499 105.5 28.1499 105.17C27.7999 104.89 26.9899 104.51 26.5099 104.57C26.2099 104.61 26.0699 104.75 25.7799 104.79C24.6899 104.94 24.0999 103.94 22.8399 102.77H22.8299Z" fill="#8EDB7D"/>
<path d="M73.4001 117.04H73.5501C73.1601 117.04 72.7601 117.03 72.3701 117.04C71.1601 117.07 70.0501 118.01 69.2501 118.91C68.4501 119.81 68.5601 121.16 68.4601 122.31C68.3201 123.88 68.3101 125.35 68.5201 126.9C68.7901 128.9 68.6901 130.92 68.7701 132.92C68.8201 134.08 69.1401 135.02 69.5701 136.07C69.9301 136.95 69.9601 137.06 69.9601 137.9C69.9401 139.71 69.9601 141.53 69.9601 143.34C69.9601 145 69.8701 146.63 70.2801 148.27C70.6201 149.64 71.1501 150.86 71.0801 152.29C71.0101 153.72 70.7301 155.2 70.5701 156.66C70.3901 158.32 70.5001 159.91 70.4501 161.57C70.4101 163.08 70.0001 164.51 69.6101 165.96C69.1201 167.75 68.7901 169.53 68.7701 171.38C68.7601 172.64 68.9201 173.85 68.7401 175.11C68.4501 177.1 67.8501 179.02 67.6901 181.04C67.6001 182.27 67.6401 183.43 67.8301 184.64C67.9001 185.07 67.9301 185.5 68.0501 185.92C68.1401 186.23 68.3601 186.54 68.3501 186.86C68.3401 187.87 66.2901 188.4 65.7901 189.3C65.9301 187.83 65.6501 186.35 65.6701 184.88C65.6801 183.95 66.0801 183.15 66.2901 182.27C66.6201 180.84 66.7001 179.02 66.5301 177.54C66.4601 176.91 65.6101 176.09 64.9001 176.29C64.2901 176.46 64.0601 177.92 63.9401 178.43C63.6601 179.65 63.5801 180.99 64.0801 182.14C64.7201 183.6 64.7901 185.36 64.8801 186.94C64.9701 188.62 64.4001 190.14 64.4301 191.78C64.4401 192.48 63.9601 193.75 64.3201 194.35C65.3201 196.04 68.6001 192.56 69.2701 191.97C69.6101 193.48 67.7301 194.41 67.4501 195.81C67.3201 196.45 67.4701 197.11 67.4001 197.76C67.2801 198.85 66.7301 199.82 66.5801 200.91C66.4601 201.77 66.4101 202.63 66.6201 203.47C66.7401 203.98 66.8501 204.08 66.6901 204.69C66.4501 205.62 65.9401 206.48 65.5801 207.36C64.9001 209 64.5001 210.96 64.7001 212.74C64.7901 213.54 64.9501 214.11 64.8101 214.9C64.6101 216.01 64.3201 218.33 63.1001 218.79C62.1001 219.17 61.2501 217.53 60.9901 216.77C60.9001 217.08 60.6801 217.35 60.5601 217.64C60.2301 218.41 60.0501 219.25 59.7501 220.03C59.2001 221.51 58.5501 222.96 58.0101 224.44C57.1301 226.88 56.7901 229.43 56.0101 231.89C55.6601 232.98 55.3201 233.22 54.3601 233.88C52.9401 234.87 51.7301 236 50.5801 237.3C50.2101 237.72 49.6401 238.69 49.0701 238.85C48.9401 239.85 48.5901 240.75 48.5601 241.77C49.2601 242 51.2001 240.73 51.4401 240.6C51.3501 240.65 54.3801 238.59 54.8901 238.73C55.4001 238.87 55.6801 239.58 56.0601 239.98C56.7201 240.67 57.3901 241.31 58.1101 241.93C58.4901 242.26 59.2501 242.79 59.3801 243.36C59.5301 244.01 59.1701 245.09 59.0501 245.68C58.9201 246.32 58.3801 247.45 58.7901 248.02C59.7301 247.93 60.9401 247.9 61.7601 247.36C62.6701 246.76 62.7301 245.41 62.6001 244.41C62.4201 243.01 60.8201 240.81 62.3401 239.73C62.5601 239.57 63.6501 238.94 63.8901 239.02C64.0401 239.07 64.2101 239.49 64.3401 239.63C64.8601 240.2 65.6601 240.44 66.1601 241.03C66.4901 241.42 66.4801 241.78 66.6301 242.23C66.9201 243.09 67.9401 244.02 68.6001 244.64C68.9001 244.92 69.3301 245.22 69.7201 245.37C70.2601 245.58 70.9101 245.42 71.4701 245.5C72.4901 245.64 73.4001 246.18 74.4101 246.39C74.6701 246.45 76.2501 246.8 76.7001 246.61C76.9301 246.51 77.0701 246.25 77.2001 246.01C77.4101 245.58 77.7001 244.75 77.4901 244.27C77.3001 243.85 76.7601 243.71 76.4101 243.49C75.7701 243.09 75.2601 242.6 74.5201 242.37C74.0301 242.22 73.4501 242.28 72.9901 242.03C72.4101 241.71 71.9001 241.13 71.2901 240.79C70.8401 240.54 69.9901 240.25 69.7301 239.81C69.6201 239.62 69.6201 239.27 69.5301 239.04C69.1301 238.03 68.0101 237.31 67.8501 236.24C67.7801 235.78 67.9301 235.35 67.8401 234.88C67.7501 234.41 67.5701 233.95 67.6401 233.45C68.4001 232.97 70.4301 233.14 71.2201 233.62C71.7301 233.93 72.1901 234.38 72.7001 234.71C73.4701 235.21 74.3201 235.58 75.1601 235.93C75.6501 235.65 74.9701 234.39 74.8101 234.07C74.4201 233.31 73.9001 232.7 73.2701 232.13C72.9901 231.88 72.6601 231.69 72.4601 231.36C71.6801 230.07 72.1201 228.2 71.7601 226.79C71.6501 226.36 71.4501 225.9 71.2201 225.52C71.1001 225.33 70.8801 225.15 70.7801 224.99C70.5601 224.62 70.6601 224.1 70.6501 223.63C70.6401 222.51 70.8701 221.63 71.0601 220.54C71.1801 219.83 71.1501 219.12 71.3201 218.42C71.4401 217.94 71.6701 217.49 71.8101 217.01C72.2801 215.35 72.3201 213.47 72.6501 211.78C73.1601 209.19 73.8101 206.73 73.9801 204.08C74.0601 202.9 74.1201 201.73 74.1001 200.55C74.1001 199.93 74.0501 199.35 74.1801 198.74C74.6301 196.69 75.1501 194.69 75.2301 192.58C75.2701 191.56 75.2501 190.54 75.2401 189.53C75.2401 188.88 75.1701 188.22 75.2801 187.57C75.3901 186.86 75.6601 186.22 75.7701 185.51C75.8801 184.8 76.0701 184.1 76.1601 183.4C76.3301 182.14 76.4001 180.88 76.3901 179.6C76.3901 177.8 76.5501 175.91 75.9501 174.18C75.4201 174.01 74.9501 174.61 74.6801 174.94C74.0301 175.77 73.4401 176.66 72.9201 177.57C72.8501 177.14 72.9201 176.8 72.8001 176.37C72.5501 175.51 72.4701 174.85 72.4701 173.95C72.4701 173.05 72.4201 172.2 72.5201 171.33C72.5801 170.85 72.7101 170.36 72.7101 169.87C72.7101 169.66 72.6301 169.38 72.6701 169.17C72.7901 168.55 73.3601 167.85 73.6201 167.26C73.7901 166.87 73.8001 166.58 73.9001 166.19C74.0101 165.76 74.2301 165.37 74.3001 164.93C74.3801 164.46 74.3601 164.06 74.5401 163.59C74.8901 162.66 75.1301 162.25 74.8401 161.32C74.4301 160 74.3701 158.62 73.8601 157.32C73.4501 156.26 73.0201 155.38 72.8901 154.25C72.7201 152.76 72.3101 151.39 72.5001 149.86C72.6401 148.78 72.6701 147.7 72.8901 146.64C73.1101 145.58 72.8701 144.61 72.7301 143.61C72.5601 142.35 72.7901 141.3 72.9201 140.1C73.0201 139.16 72.9001 138.33 72.7301 137.44C72.6201 136.87 72.7501 136.41 72.5101 135.86C72.2401 135.26 71.7501 134.72 71.5601 134.1C71.4401 133.71 71.4801 133.22 71.3901 132.8C71.2701 132.26 71.1101 131.74 71.0901 131.19C71.0001 128.97 70.8101 126.42 71.3801 124.27C71.5601 123.59 71.9401 122.86 72.2401 122.23C72.6101 121.43 73.1901 120.88 73.7401 120.22C74.0401 119.86 74.3001 119.62 74.6501 119.31C75.0001 119 75.0001 118.95 75.0101 118.49C75.0101 117.7 75.1501 117.31 73.4001 117V117.04Z" fill="#AD5828"/>
<path d="M58.5898 114.2C58.8098 114.44 59.0698 114.64 59.3198 114.84C59.9298 115.32 60.4898 115.86 61.0998 116.34C61.3098 116.51 61.3798 116.49 61.6298 116.47C62.0598 116.44 62.4898 116.49 62.9198 116.47C62.9698 116.39 62.9898 116.3 62.9698 116.2C63.0098 116.08 63.0898 115.98 63.1998 115.91C63.4798 115.55 63.7098 115.16 63.9398 114.77C64.1098 114.81 64.1798 114.59 64.2698 114.48C64.4498 114.26 64.6598 114.07 64.8598 113.87C64.9898 113.74 65.2398 113.36 65.4498 113.35C65.6898 113.35 65.7098 113.6 65.8898 113.74C65.9798 113.81 65.9198 113.83 66.0498 113.82C66.1598 113.82 66.4098 113.54 66.4698 113.49C66.6798 113.31 66.8498 113.1 66.9898 112.86C67.2398 112.45 67.1798 112.08 67.2598 111.62C67.3398 111.16 67.4998 110.71 67.7098 110.27C67.9198 109.83 68.1098 109.55 68.0798 109.08C68.0198 108.42 67.7698 107.83 67.7998 107.15C67.8298 106.56 68.1798 106.09 68.7298 105.85C68.9998 106.12 69.3198 106.5 69.4998 106.85C69.8098 107.43 69.6298 108.43 69.5698 109.07C69.5098 109.71 69.3298 110.26 69.0198 110.84C68.7898 111.27 68.6298 111.73 68.3498 112.13C68.0798 112.49 67.8798 112.76 67.7098 113.18C67.6098 113.44 67.4898 113.69 67.4398 113.97C67.3898 114.27 67.4598 114.56 67.4298 114.87C67.3698 115.42 67.0898 116.01 66.7898 116.47C66.1698 117.4 65.9598 118.53 65.9198 119.63C65.8898 120.39 65.7898 121.26 65.9998 122C66.2098 122.74 66.2898 123.38 66.3398 124.12C66.4398 125.55 66.3998 127.03 66.7398 128.42C66.9998 129.49 67.4098 130.58 67.3998 131.69C67.3798 132.05 67.3498 132.41 67.2998 132.77C67.3198 132.99 67.2898 133.2 67.1998 133.4C67.0798 133.18 67.1198 132.95 67.3898 132.86C67.1798 132.87 67.0598 132.91 66.8898 132.77C66.6498 132.56 66.3898 132.27 66.1898 132.01C65.7998 131.48 65.7798 130.63 65.7198 130.01C65.6598 129.39 65.5598 128.84 65.6498 128.23C65.6898 127.93 65.7898 127.65 65.8598 127.35C65.9798 126.86 65.8998 126.64 65.6198 126.23C65.2798 125.74 64.9298 125.26 64.5198 124.83C64.1098 124.4 63.6498 124.02 63.4098 123.47C63.2298 123.07 63.3298 122.58 63.3398 122.16C63.3398 121.92 63.3098 121.66 63.3298 121.42C63.3798 120.89 63.6698 120.31 63.8398 119.81C63.8998 119.64 64.1398 118.97 63.9598 118.76C63.9198 118.71 63.7698 118.66 63.7098 118.63C63.5798 118.72 63.5398 118.92 63.4198 119.03C63.3198 119.12 62.9098 119.38 62.7498 119.41L62.6098 119.39C62.2598 119.22 61.8998 119.09 61.5198 118.99C60.7198 118.75 59.9098 118.56 59.0998 118.33C59.1798 118.22 59.1398 118.09 59.1798 117.97C59.2398 117.77 59.4098 117.58 59.4898 117.38C59.5698 117.19 59.5598 117.2 59.3998 117.09C59.2098 116.96 59.1598 116.87 58.9998 116.69C58.6398 116.29 58.4498 115.77 58.3298 115.24C58.2598 114.9 58.1198 114.52 58.3498 114.2C58.6398 114.2 58.6498 114.84 58.6998 115.05C58.7698 115.05 58.8298 115.02 58.5898 114.2Z" fill="#AD5828"/>
</g>
</g>
<defs>
<clipPath id="clip0_188_16355">
<rect width="142" height="264" fill="white"/>
</clipPath>
</defs>
</svg>
