<svg width="21" height="22" viewBox="0 0 21 22" fill="none" xmlns="http://www.w3.org/2000/svg">
<path d="M10.7389 20.7376C16.1176 20.7376 20.4779 16.3774 20.4779 10.9987C20.4779 5.62003 16.1176 1.25977 10.7389 1.25977C5.36027 1.25977 1 5.62003 1 10.9987C1 16.3774 5.36027 20.7376 10.7389 20.7376Z" fill="#EC7FBC" stroke="white" stroke-miterlimit="10"/>
<path d="M6.49771 11.909C6.99979 11.909 7.4068 11.502 7.4068 10.9999C7.4068 10.4978 6.99979 10.0908 6.49771 10.0908C5.99564 10.0908 5.58862 10.4978 5.58862 10.9999C5.58862 11.502 5.99564 11.909 6.49771 11.909Z" fill="white"/>
<path d="M14.9826 10.6971C15.4847 10.6971 15.8917 10.2901 15.8917 9.788C15.8917 9.28592 15.4847 8.87891 14.9826 8.87891C14.4805 8.87891 14.0735 9.28592 14.0735 9.788C14.0735 10.2901 14.4805 10.6971 14.9826 10.6971Z" fill="white"/>
<path d="M13.1923 13.6505L10.4901 14.1729C10.0813 14.2519 9.81405 14.6473 9.89305 15.056L9.89379 15.0598C9.97279 15.4685 10.3682 15.7358 10.7769 15.6568L13.4791 15.1345C13.8879 15.0555 14.1552 14.6601 14.0762 14.2514L14.0754 14.2476C13.9964 13.8388 13.601 13.5715 13.1923 13.6505Z" fill="#F99DCD" stroke="white"/>
<mask id="path-5-inside-1_195_59" fill="white">
<path d="M15.8697 7.0606L12.8613 8.29834L13.1832 8.8926L16.1916 7.65486L15.8697 7.0606Z"/>
</mask>
<path d="M15.8697 7.0606L12.8613 8.29834L13.1832 8.8926L16.1916 7.65486L15.8697 7.0606Z" fill="#403B14"/>
<path d="M12.8613 8.29834L12.3851 7.41904L11.4603 7.79953L11.9365 8.67883L12.8613 8.29834ZM15.8697 7.0606L16.7945 6.68011L16.3182 5.80082L15.3934 6.1813L15.8697 7.0606ZM16.1916 7.65486L16.6679 8.53415L17.5926 8.15366L17.1164 7.27437L16.1916 7.65486ZM13.1832 8.8926L12.2584 9.27308L12.7347 10.1524L13.6595 9.77189L13.1832 8.8926ZM13.3376 9.17764L16.346 7.93989L15.3934 6.1813L12.3851 7.41904L13.3376 9.17764ZM14.9449 7.44109L15.2668 8.03534L17.1164 7.27437L16.7945 6.68011L14.9449 7.44109ZM15.7153 6.77556L12.7069 8.0133L13.6595 9.77189L16.6679 8.53415L15.7153 6.77556ZM14.108 8.51211L13.7861 7.91785L11.9365 8.67883L12.2584 9.27308L14.108 8.51211Z" fill="white" mask="url(#path-5-inside-1_195_59)"/>
<mask id="path-7-inside-2_195_59" fill="white">
<path d="M8.61903 8.87891H4.98267V9.48497H8.61903V8.87891Z"/>
</mask>
<path d="M8.61903 8.87891H4.98267V9.48497H8.61903V8.87891Z" fill="#403B14"/>
<path d="M4.98267 8.87891V7.87891H3.98267V8.87891H4.98267ZM8.61903 8.87891H9.61903V7.87891H8.61903V8.87891ZM8.61903 9.48497V10.485H9.61903V9.48497H8.61903ZM4.98267 9.48497H3.98267V10.485H4.98267V9.48497ZM4.98267 9.87891H8.61903V7.87891H4.98267V9.87891ZM7.61903 8.87891V9.48497H9.61903V8.87891H7.61903ZM8.61903 8.48497H4.98267V10.485H8.61903V8.48497ZM5.98267 9.48497V8.87891H3.98267V9.48497H5.98267Z" fill="white" mask="url(#path-7-inside-2_195_59)"/>
<path d="M13.0107 11.9199L9.87023 12.5269C9.32772 12.6318 8.95953 13.0872 9.04784 13.544C9.13615 14.0009 9.64753 14.2863 10.19 14.1814L13.3305 13.5744C13.873 13.4695 14.2412 13.0142 14.1529 12.5573C14.0646 12.1004 13.5532 11.815 13.0107 11.9199Z" fill="#F99DCD" stroke="white"/>
</svg>
