<svg width="64" height="96" viewBox="0 0 64 96" fill="none" xmlns="http://www.w3.org/2000/svg">
<g clip-path="url(#clip0_188_17813)">
<mask id="mask0_188_17813" style="mask-type:luminance" maskUnits="userSpaceOnUse" x="0" y="0" width="64" height="96">
<path d="M64 0H0V96H64V0Z" fill="white"/>
</mask>
<g mask="url(#mask0_188_17813)">
<path opacity="0.5" d="M32.0002 93.93C43.4767 93.93 52.7802 91.1452 52.7802 87.71C52.7802 84.2748 43.4767 81.49 32.0002 81.49C20.5237 81.49 11.2202 84.2748 11.2202 87.71C11.2202 91.1452 20.5237 93.93 32.0002 93.93Z" fill="#7A736E"/>
<path d="M32.0002 74.01C30.0402 74.01 27.0002 91.1 16.7602 86.16C6.52017 81.22 21.5802 50.61 18.4302 54.25C15.2802 57.89 8.49017 62.47 4.62017 62.11C2.63017 61.93 -1.38983 59.07 4.62017 48.3C11.5102 35.96 22.2402 32.22 22.2402 32.22H41.7702C41.7702 32.22 52.5102 35.95 59.3902 48.3C65.4002 59.08 61.3802 61.93 59.3902 62.11C55.5202 62.47 48.7302 57.88 45.5802 54.25C42.4202 50.62 57.4902 81.22 47.2502 86.16C37.0102 91.1 33.9702 74.01 32.0102 74.01" fill="#F4F4F4"/>
<path d="M32.0002 74.01C30.0402 74.01 27.0002 91.1 16.7602 86.16C6.52017 81.22 21.5802 50.61 18.4302 54.25C15.2802 57.89 8.49017 62.47 4.62017 62.11C2.63017 61.93 -1.38983 59.07 4.62017 48.3C11.5102 35.96 22.2402 32.22 22.2402 32.22H41.7702C41.7702 32.22 52.5102 35.95 59.3902 48.3C65.4002 59.08 61.3802 61.93 59.3902 62.11C55.5202 62.47 48.7302 57.88 45.5802 54.25C42.4202 50.62 57.4902 81.22 47.2502 86.16C37.0102 91.1 33.9702 74.01 32.0102 74.01" stroke="#231815" stroke-linecap="round" stroke-linejoin="round"/>
<path d="M32.0001 37.4501C41.77 37.4501 49.6901 29.53 49.6901 19.7601C49.6901 9.99015 41.77 2.07007 32.0001 2.07007C22.2301 2.07007 14.3101 9.99015 14.3101 19.7601C14.3101 29.53 22.2301 37.4501 32.0001 37.4501Z" fill="#F4F4F4" stroke="#231815" stroke-linecap="round" stroke-linejoin="round"/>
</g>
</g>
<defs>
<clipPath id="clip0_188_17813">
<rect width="64" height="96" fill="white"/>
</clipPath>
</defs>
</svg>
