<svg width="214" height="96" viewBox="0 0 214 96" fill="none" xmlns="http://www.w3.org/2000/svg">
<g clip-path="url(#clip0_206_498)">
<mask id="mask0_206_498" style="mask-type:luminance" maskUnits="userSpaceOnUse" x="0" y="0" width="214" height="96">
<path d="M214 0H0V96H214V0Z" fill="white"/>
</mask>
<g mask="url(#mask0_206_498)">
<path opacity="0.5" d="M185.61 94.93C197.087 94.93 206.39 92.1452 206.39 88.71C206.39 85.2748 197.087 82.49 185.61 82.49C174.134 82.49 164.83 85.2748 164.83 88.71C164.83 92.1452 174.134 94.93 185.61 94.93Z" fill="#7A736E"/>
<path d="M175.08 31C175.08 31 160.43 48.76 160.29 58.88C160.15 69 173.5 56.45 173.5 56.45" fill="#F4F4F4"/>
<path d="M175.08 31C175.08 31 160.43 48.76 160.29 58.88C160.15 69 173.5 56.45 173.5 56.45" stroke="#231815" stroke-linecap="round" stroke-linejoin="round"/>
<path d="M172.34 42.1299C168.97 58.1999 165.1 82.7299 171.65 87.3299C181.55 94.2899 183.45 72.6499 183.45 72.6499" fill="#F4F4F4"/>
<path d="M172.34 42.1299C168.97 58.1999 165.1 82.7299 171.65 87.3299C181.55 94.2899 183.45 72.6499 183.45 72.6499" stroke="#231815" stroke-linecap="round" stroke-linejoin="round"/>
<path d="M180.3 71.71C180.3 71.71 186.75 88.78 197 88.78C207.25 88.78 196.75 34.85 192.44 27.97" fill="#F4F4F4"/>
<path d="M180.3 71.71C180.3 71.71 186.75 88.78 197 88.78C207.25 88.78 196.75 34.85 192.44 27.97" stroke="#231815" stroke-linecap="round" stroke-linejoin="round"/>
<path d="M194.25 31C194.25 31 213.39 52.59 210.69 61.99C207.65 72.58 195.74 59.54 195.74 59.54" fill="#F4F4F4"/>
<path d="M194.25 31C194.25 31 213.39 52.59 210.69 61.99C207.65 72.58 195.74 59.54 195.74 59.54" stroke="#231815" stroke-linecap="round" stroke-linejoin="round"/>
<path d="M190.83 30.58C188.27 30.88 185.7 31.17 183.14 31.49C181.42 31.7 179.74 31.97 178.48 33.1C177.07 31.29 173.56 31.71 173.91 34.43C174.29 37.39 172.97 40.06 172.52 42.94C172.08 45.74 172.44 48.54 173.32 51.22C174.17 53.8 175.42 56.24 176.6 58.68C176.68 58.84 176.75 58.99 176.83 59.15C176.73 60.31 177.26 61.17 178.03 61.61C178.09 61.73 178.15 61.86 178.21 61.98C177.83 62.5 177.69 63.2 177.98 64.05C178.58 65.8 179.01 67.56 179.3 69.38C179.59 71.2 182.42 71.93 183.57 70.51C185.08 68.65 185.32 66.67 184.84 64.62C185.14 64.25 185.41 63.84 185.63 63.36C186.89 60.61 186.97 57.09 187.49 54.14C188.67 47.42 190.06 40.63 193.04 34.44C193.78 32.9 192.93 30.35 190.83 30.59V30.58Z" fill="#F4F4F4"/>
<path d="M185.37 36.4501C195.14 36.4501 203.06 28.53 203.06 18.7601C203.06 8.99015 195.14 1.07007 185.37 1.07007C175.6 1.07007 167.68 8.99015 167.68 18.7601C167.68 28.53 175.6 36.4501 185.37 36.4501Z" fill="#F4F4F4" stroke="#231815" stroke-linecap="round" stroke-linejoin="round"/>
<path opacity="0.5" d="M145.52 94.93C156.996 94.93 166.3 92.1452 166.3 88.71C166.3 85.2748 156.996 82.49 145.52 82.49C134.043 82.49 124.74 85.2748 124.74 88.71C124.74 92.1452 134.043 94.93 145.52 94.93Z" fill="#7A736E"/>
<path d="M134.99 31C134.99 31 120.34 48.76 120.2 58.88C120.06 69 133.41 56.45 133.41 56.45" fill="#F4F4F4"/>
<path d="M134.99 31C134.99 31 120.34 48.76 120.2 58.88C120.06 69 133.41 56.45 133.41 56.45" stroke="#231815" stroke-linecap="round" stroke-linejoin="round"/>
<path d="M132.25 42.1299C128.88 58.1999 125.01 82.7299 131.56 87.3299C141.46 94.2899 143.36 72.6499 143.36 72.6499" fill="#F4F4F4"/>
<path d="M132.25 42.1299C128.88 58.1999 125.01 82.7299 131.56 87.3299C141.46 94.2899 143.36 72.6499 143.36 72.6499" stroke="#231815" stroke-linecap="round" stroke-linejoin="round"/>
<path d="M140.21 71.71C140.21 71.71 146.66 88.78 156.91 88.78C167.16 88.78 156.66 34.85 152.35 27.97" fill="#F4F4F4"/>
<path d="M140.21 71.71C140.21 71.71 146.66 88.78 156.91 88.78C167.16 88.78 156.66 34.85 152.35 27.97" stroke="#231815" stroke-linecap="round" stroke-linejoin="round"/>
<path d="M154.15 31C154.15 31 173.29 52.59 170.59 61.99C167.55 72.58 155.64 59.54 155.64 59.54" fill="#F4F4F4"/>
<path d="M154.15 31C154.15 31 173.29 52.59 170.59 61.99C167.55 72.58 155.64 59.54 155.64 59.54" stroke="#231815" stroke-linecap="round" stroke-linejoin="round"/>
<path d="M150.73 30.58C148.17 30.88 145.6 31.17 143.04 31.49C141.32 31.7 139.64 31.97 138.38 33.1C136.97 31.29 133.46 31.71 133.81 34.43C134.19 37.39 132.87 40.06 132.42 42.94C131.98 45.74 132.34 48.54 133.22 51.22C134.07 53.8 135.32 56.24 136.5 58.68C136.58 58.84 136.65 58.99 136.73 59.15C136.63 60.31 137.16 61.17 137.93 61.61C137.99 61.73 138.05 61.86 138.11 61.98C137.73 62.5 137.59 63.2 137.88 64.05C138.48 65.8 138.91 67.56 139.2 69.38C139.49 71.2 142.32 71.93 143.47 70.51C144.98 68.65 145.22 66.67 144.74 64.62C145.04 64.25 145.31 63.84 145.53 63.36C146.79 60.61 146.87 57.09 147.39 54.14C148.57 47.42 149.96 40.63 152.94 34.44C153.68 32.9 152.83 30.35 150.73 30.59V30.58Z" fill="#F4F4F4"/>
<path d="M145.28 36.4501C155.05 36.4501 162.97 28.53 162.97 18.7601C162.97 8.99015 155.05 1.07007 145.28 1.07007C135.51 1.07007 127.59 8.99015 127.59 18.7601C127.59 28.53 135.51 36.4501 145.28 36.4501Z" fill="#F4F4F4" stroke="#231815" stroke-linecap="round" stroke-linejoin="round"/>
<path opacity="0.5" d="M105.43 94.93C116.906 94.93 126.21 92.1452 126.21 88.71C126.21 85.2748 116.906 82.49 105.43 82.49C93.9534 82.49 84.6499 85.2748 84.6499 88.71C84.6499 92.1452 93.9534 94.93 105.43 94.93Z" fill="#7A736E"/>
<path d="M94.9 31C94.9 31 80.25 48.76 80.11 58.88C79.97 69 93.32 56.45 93.32 56.45" fill="#F4F4F4"/>
<path d="M94.9 31C94.9 31 80.25 48.76 80.11 58.88C79.97 69 93.32 56.45 93.32 56.45" stroke="#231815" stroke-linecap="round" stroke-linejoin="round"/>
<path d="M92.1601 42.1299C88.7901 58.1999 84.9201 82.7299 91.4701 87.3299C101.37 94.2899 103.27 72.6499 103.27 72.6499" fill="#F4F4F4"/>
<path d="M92.1601 42.1299C88.7901 58.1999 84.9201 82.7299 91.4701 87.3299C101.37 94.2899 103.27 72.6499 103.27 72.6499" stroke="#231815" stroke-linecap="round" stroke-linejoin="round"/>
<path d="M100.11 71.71C100.11 71.71 106.56 88.78 116.81 88.78C127.06 88.78 116.56 34.85 112.25 27.97" fill="#F4F4F4"/>
<path d="M100.11 71.71C100.11 71.71 106.56 88.78 116.81 88.78C127.06 88.78 116.56 34.85 112.25 27.97" stroke="#231815" stroke-linecap="round" stroke-linejoin="round"/>
<path d="M114.06 31C114.06 31 133.2 52.59 130.5 61.99C127.46 72.58 115.55 59.54 115.55 59.54" fill="#F4F4F4"/>
<path d="M114.06 31C114.06 31 133.2 52.59 130.5 61.99C127.46 72.58 115.55 59.54 115.55 59.54" stroke="#231815" stroke-linecap="round" stroke-linejoin="round"/>
<path d="M110.64 30.58C108.08 30.88 105.51 31.17 102.95 31.49C101.23 31.7 99.5499 31.97 98.2899 33.1C96.8799 31.29 93.3699 31.71 93.7199 34.43C94.0999 37.39 92.7799 40.06 92.3299 42.94C91.8899 45.74 92.2499 48.54 93.1299 51.22C93.9799 53.8 95.2299 56.24 96.4099 58.68C96.4899 58.84 96.5599 58.99 96.6399 59.15C96.5399 60.31 97.0699 61.17 97.8399 61.61C97.8999 61.73 97.9599 61.86 98.0199 61.98C97.6399 62.5 97.4999 63.2 97.7899 64.05C98.3899 65.8 98.8199 67.56 99.1099 69.38C99.3999 71.2 102.23 71.93 103.38 70.51C104.89 68.65 105.13 66.67 104.65 64.62C104.95 64.25 105.22 63.84 105.44 63.36C106.7 60.61 106.78 57.09 107.3 54.14C108.48 47.42 109.87 40.63 112.85 34.44C113.59 32.9 112.74 30.35 110.64 30.59V30.58Z" fill="#F4F4F4"/>
<path d="M105.18 36.4501C114.95 36.4501 122.87 28.53 122.87 18.7601C122.87 8.99015 114.95 1.07007 105.18 1.07007C95.4098 1.07007 87.4897 8.99015 87.4897 18.7601C87.4897 28.53 95.4098 36.4501 105.18 36.4501Z" fill="#F4F4F4" stroke="#231815" stroke-linecap="round" stroke-linejoin="round"/>
</g>
</g>
<defs>
<clipPath id="clip0_206_498">
<rect width="214" height="96" fill="white"/>
</clipPath>
</defs>
</svg>
