<svg width="74" height="244" viewBox="0 0 74 244" fill="none" xmlns="http://www.w3.org/2000/svg">
<g clip-path="url(#clip0_188_17680)">
<mask id="mask0_188_17680" style="mask-type:luminance" maskUnits="userSpaceOnUse" x="0" y="0" width="74" height="244">
<path d="M74 0H0V244H74V0Z" fill="white"/>
</mask>
<g mask="url(#mask0_188_17680)">
<path opacity="0.5" d="M129.22 242.99H47.69L3.25 98.9202H84.78L129.22 242.99Z" fill="#7A736E"/>
<path d="M50.1098 174.27H46.5498V242.55H50.1098V174.27Z" fill="#F4F4F4" stroke="#231815" stroke-miterlimit="10"/>
<path d="M6.33979 33.8801H2.77979V102.16H6.33979V33.8801Z" fill="#F4F4F4" stroke="#231815" stroke-miterlimit="10"/>
<path d="M125.73 174.27H46.1499C46.1499 174.27 76.8399 125.86 82.2899 104.83C82.2899 104.83 110.55 159.34 125.72 174.27H125.73Z" fill="#4184F9" stroke="#231815" stroke-linejoin="round"/>
<path d="M82.2998 104.82C76.8398 125.85 46.1598 174.26 46.1598 174.26L2.77979 33.6501C2.77979 33.6501 28.9898 22.3701 46.2098 2.31006C46.2098 2.31006 46.2098 2.31006 46.2098 2.33006L57.2298 33.6601L82.2798 104.83L82.2998 104.82Z" fill="#4184F9" stroke="#231815" stroke-linejoin="round"/>
<path d="M125.73 174.27C110.55 159.34 82.2997 104.83 82.2997 104.83L57.2497 33.6601L46.2197 2.33008C46.7697 3.02008 64.5297 25.0101 82.3497 33.6601L125.73 174.27Z" fill="#4184F9" stroke="#231815" stroke-linejoin="round"/>
<path d="M125.73 174.27H46.1499V184.6H125.73V174.27Z" fill="#4184F9" stroke="#231815" stroke-linejoin="round"/>
<path d="M46.1498 184.59L2.77979 43.9801V33.6501L46.1498 174.27V184.59Z" fill="#4184F9" stroke="#231815" stroke-linejoin="round"/>
<path d="M38.8697 32.0801C39.2297 31.7201 39.5397 31.4401 39.7297 31.2801C40.4797 30.6901 40.7297 31.3701 41.0397 32.3701C41.3497 33.3701 41.5497 34.2201 40.7997 34.8601L40.0397 35.5301C40.2497 36.0101 40.4597 36.4801 40.6497 36.8501C41.1897 37.8701 41.2197 38.5701 40.4697 39.5201C39.6297 40.6001 39.1897 40.8301 38.5397 39.8401L38.3897 39.6201C38.0397 40.7501 37.4097 41.8201 36.4597 42.6901C34.4297 44.5501 32.3897 43.8001 31.5697 41.1501C30.7497 38.5001 31.5697 35.2801 33.5897 33.4001C34.4497 32.6101 35.2197 32.2501 35.9097 32.2601L35.8297 31.8001C35.6497 30.6201 36.1597 29.8101 37.0297 29.2401C37.8397 28.7301 38.1097 28.8201 38.4097 30.2601C38.5097 30.7901 38.6797 31.3901 38.8597 32.0601L38.8697 32.0801ZM28.5097 46.2501C28.9197 48.3601 30.1997 52.0001 31.2097 53.8301C31.7597 54.8101 31.4797 55.4401 30.7097 56.2601C29.7897 57.2401 29.2797 57.6801 28.7897 56.7901C27.5497 54.5401 25.9997 49.9401 25.4697 46.9401C25.1197 44.9001 25.8397 43.1201 27.1897 42.0201C27.3797 41.8701 28.3497 41.0001 28.9797 40.3101C29.6197 39.6301 30.1297 39.9901 30.4897 41.1401C30.8497 42.2901 30.9297 42.8901 30.1297 43.7001L28.8197 44.9301C28.5497 45.1801 28.3997 45.5801 28.5197 46.2401L28.5097 46.2501ZM35.9297 39.1001C36.7897 38.3101 37.1497 37.2301 36.9797 36.4201L36.8697 36.1401C36.5797 35.5201 35.8797 35.4601 35.0397 36.2401C34.1397 37.0701 33.7897 38.2101 34.0297 38.9901C34.2697 39.7701 35.0497 39.9101 35.9197 39.1001H35.9297ZM32.3097 52.1801C32.0097 51.1901 31.8097 50.4901 32.7997 49.5101L34.6997 47.7101L34.4197 46.7901C34.1497 45.9301 34.5397 45.4601 35.3797 44.6901C36.2197 43.9201 36.6597 43.6401 36.9297 44.5001L37.2097 45.4001L38.2797 44.4301L37.9997 43.5301C37.7297 42.6701 38.1197 42.1901 38.9697 41.4201C39.8197 40.6401 40.2597 40.3601 40.5297 41.2201L40.8197 42.1601L42.2297 40.9301C43.2797 40.0501 43.6697 40.5801 43.9797 41.5801C44.2897 42.5801 44.4097 43.5001 43.3597 44.3801C41.3997 46.0401 35.8397 51.0901 33.9697 52.9001C32.9797 53.8701 32.6397 53.1601 32.3297 52.1701L32.3097 52.1801Z" fill="black"/>
<path d="M42.2397 49.27C42.0997 48.43 42.4596 47.71 43.4196 46.98C44.5096 46.17 44.8797 46.31 45.0597 47.37C45.2997 48.81 45.8397 50.71 46.5197 52.31C47.0396 53.53 47.2796 54.78 46.1196 56.27C44.9396 57.78 43.3896 58.31 41.7796 58.14C41.7396 58.92 41.7396 59.87 41.8196 60.71C41.8996 61.64 41.5697 62.08 40.5397 62.64C39.5497 63.19 39.1196 63.05 39.0496 62.14C38.9296 60.77 39.0196 59.33 39.2296 58.23C39.2896 57.91 39.3597 57.66 39.4697 57.42C38.4497 56.9 37.4196 56.16 36.7096 55.34C36.2296 54.77 36.1097 54.04 36.8797 52.66C37.7297 51.13 38.3096 51.08 38.8496 51.73C40.0896 53.22 41.9597 54.34 43.3997 54.29C43.5197 54.28 43.6197 54.09 43.5597 53.93C43.0497 52.66 42.5097 50.87 42.2397 49.26V49.27ZM35.5296 64.63C34.8696 62.49 34.3897 61.73 33.9297 62.14C33.5497 62.48 33.3996 63.21 34.2596 66C35.1196 68.79 35.5697 69.15 35.9697 68.8C36.2997 68.5 36.3597 67.98 36.2197 67.27C36.0597 66.44 36.5596 65.89 37.4396 65.2C38.2696 64.55 38.5397 64.57 38.8597 65.72C39.4197 67.79 39.2396 70.55 37.1396 72.4C34.8496 74.43 33.2097 73.41 31.6497 68.34C30.0397 63.13 30.7497 60.35 32.8397 58.46C35.0197 56.49 36.7296 57.78 38.0496 62.39C38.3696 63.49 38.1496 64.16 37.1396 65.02C36.1297 65.86 35.8296 65.62 35.5296 64.63ZM39.7596 66.82C39.4496 65.83 39.2596 65.13 40.2596 64.16C42.1496 62.36 45.4497 59.41 47.4097 57.78C48.4597 56.91 48.8497 57.45 49.1597 58.45C49.4697 59.45 49.5897 60.37 48.5397 61.24L46.2796 63.18L46.6297 64.33C46.8997 65.19 46.4596 65.82 45.5996 66.58C44.7396 67.34 44.1997 67.59 43.9297 66.73L43.5797 65.59L41.4096 67.59C40.4096 68.55 40.0596 67.83 39.7596 66.84V66.82Z" fill="black"/>
<path d="M41.3698 78.06C41.6598 79.01 42.5198 79.16 45.2198 76.79C47.9298 74.41 48.3598 73.13 48.0598 72.18C47.8998 71.67 47.6298 71.39 46.9198 71.61C46.2698 71.81 46.0698 71.03 45.9998 69.89C45.8598 69.06 46.1498 68.13 46.8998 67.76C48.8298 66.77 50.3098 67.52 50.9698 69.64C51.9198 72.72 50.3498 76.56 46.2498 80.14C42.1798 83.7 39.4598 83.64 38.5198 80.59C37.5798 77.54 39.1098 73.75 43.1698 70.15C44.6298 68.86 45.2598 68.78 45.5598 70.16C45.8198 71.81 45.4798 72.4 44.2098 73.52C41.5098 75.9 41.0798 77.13 41.3698 78.06ZM38.9898 91.5C38.6898 90.52 38.4898 89.82 39.4798 88.88C42.9098 85.65 49.3498 80.04 52.9698 77.13C54.0298 76.28 54.4198 76.82 54.7298 77.82C55.0398 78.82 55.1598 79.74 54.0998 80.58C50.4798 83.48 44.0698 89.04 40.6298 92.26C39.6298 93.19 39.2898 92.48 38.9898 91.49V91.5Z" fill="black"/>
<path d="M48.7995 95.9902C48.5995 95.3602 48.5195 94.8902 48.7995 94.3602C48.2795 93.5802 47.8395 92.6802 47.6695 91.8102C47.3495 90.1202 48.0395 89.0002 49.3495 87.6902C50.4695 86.5602 52.2795 84.9402 54.5395 83.1502C55.3995 82.4802 55.8495 82.7102 56.2095 83.7802C56.6095 84.9602 56.4695 85.6302 55.6095 86.3002L54.5995 87.1002L55.0695 88.6202L56.0695 87.8602C57.1395 87.0602 57.3795 87.4502 57.6695 88.3902C57.9595 89.3302 57.8995 90.1902 56.8295 91.0102L55.3195 92.1802L55.6995 93.4002L57.8495 91.6402C58.9095 90.8002 59.1995 91.0102 59.5395 92.1002C59.8495 93.1002 59.8895 93.7702 58.8295 94.6102C56.8495 96.1802 52.0895 100.23 50.1895 101.96C49.1795 102.89 48.9095 102.41 48.6095 101.42C48.2795 100.34 48.1795 99.9702 49.1895 99.0402C50.0795 98.2302 51.5795 96.9102 53.1395 95.5702L52.7595 94.3502C52.0895 94.9502 51.3595 95.6202 50.5395 96.3902C49.5295 97.3402 49.0795 96.9302 48.7895 96.0002L48.7995 95.9902ZM44.9795 99.6402C45.3895 101.74 46.6695 105.39 47.6795 107.23C48.2295 108.22 47.9495 108.83 47.1695 109.61C46.2295 110.54 45.7195 110.96 45.2195 110.07C43.9795 107.8 42.4195 103.2 41.8995 100.21C41.5495 98.1802 42.2795 96.4502 43.6495 95.4102C43.8495 95.2602 44.9795 94.2902 45.6295 93.6602C46.4395 92.8702 46.9595 93.2502 47.3195 94.4002C47.6795 95.5502 47.7595 96.1502 46.7795 97.0502C46.4195 97.3802 45.4895 98.1802 45.2895 98.3602C45.0195 98.5902 44.8595 98.9902 44.9795 99.6402ZM50.8395 91.0002C50.9095 91.2202 51.0795 91.5102 51.2995 91.8302L52.7395 90.5502L52.2695 89.0102L51.3595 89.8202C50.9395 90.2302 50.7095 90.5702 50.8495 91.0002H50.8395ZM49.3095 105.64C48.9795 104.56 48.8495 104.1 49.8595 103.17C51.7595 101.44 57.0295 96.9502 59.0095 95.3902C60.0695 94.5602 60.3895 94.8602 60.7295 95.9502C61.0395 96.9502 61.0495 97.5302 59.9895 98.3602C58.0095 99.9202 52.7595 104.36 50.8595 106.09C49.8495 107.02 49.6095 106.63 49.3095 105.64Z" fill="black"/>
<path d="M54.2097 125C54.6697 125.9 54.3597 126.67 53.4297 127.51C52.7197 128.14 52.1597 128.56 51.7297 127.8C50.8997 126.34 50.3397 124.59 49.4297 120.14C48.8897 117.55 48.2497 115.52 47.2097 113.41C46.7197 112.42 46.9997 111.55 47.9397 110.76C48.6597 110.15 49.2397 109.74 49.7497 110.67C50.2697 111.62 50.9397 113.16 51.6497 115.92C51.9397 117.04 52.3097 118.84 52.5897 119.96C53.1397 122.22 53.5097 123.61 54.2097 125.01V125ZM64.5497 113.75C65.0597 114.74 64.6997 115.44 63.8697 116.2C62.9597 117.03 62.5497 117.05 62.1497 116.21C61.4197 114.7 60.7097 112.67 60.3597 110.6C60.0197 108.57 59.4497 106.57 58.7897 105.11C58.2897 103.97 58.7397 103.3 59.5597 102.62C60.4897 101.84 60.8997 101.98 61.2097 102.7C62.0097 104.61 62.5197 106.34 62.9097 108.66C63.2397 110.61 63.9997 112.65 64.5597 113.74L64.5497 113.75ZM55.5097 111.79C55.9597 114.1 57.1797 117.52 58.1997 119.38C58.7097 120.3 58.5497 120.9 57.7597 121.7C56.8997 122.58 56.4797 122.76 56.0297 121.94C54.7797 119.65 53.3097 115.36 52.7297 111.95C52.4497 110.33 52.8697 108.85 54.2597 107.82C54.7897 107.42 56.4997 105.98 57.3297 105.21C58.1597 104.44 58.4797 104.97 58.8797 106.11C59.2997 107.34 59.2197 107.74 58.5497 108.44C59.1297 111.05 60.0597 113.94 61.1397 116.25C61.5797 117.21 61.4797 117.81 60.7697 118.51C59.8897 119.38 59.4197 119.63 59.0297 118.75C57.8797 116.22 56.8397 113.05 56.2597 110.43L55.7997 110.77C55.5097 110.96 55.4297 111.27 55.5297 111.8L55.5097 111.79Z" fill="black"/>
<path d="M30.6196 123.91L37.1896 145.21" stroke="#231815" stroke-linejoin="round"/>
</g>
</g>
<defs>
<clipPath id="clip0_188_17680">
<rect width="74" height="244" fill="white"/>
</clipPath>
</defs>
</svg>
