<svg width="350" height="570" viewBox="0 0 350 570" fill="none" preserveAspectRatio="none" xmlns="http://www.w3.org/2000/svg">
<g clip-path="url(#clip0_187_534)">
<path d="M350 0H0V570H350V0Z" fill="#AEED94"/>
<path d="M-4.80976 71.6201C-6.45976 71.9201 -5.78976 69.0701 -5.80976 68.1601C-5.88976 64.8201 -5.34976 61.5901 -4.65976 58.3401C-4.35976 56.9301 -4.23976 54.2601 -3.16976 53.2001C-3.40976 54.8701 -2.71976 57.2001 -2.41976 58.7301L-1.64976 62.4101C-1.45976 63.7201 -1.07976 64.9701 -0.519763 66.1501C1.62024 67.3101 3.16024 61.1701 2.97024 59.8401C2.95024 60.6801 2.97024 61.5301 2.95024 62.3701C2.94024 62.8301 2.81024 63.4401 2.95024 63.9001C4.89024 63.9401 6.68024 62.6801 8.21024 61.6101C7.99024 62.2201 8.48024 63.4201 9.07024 63.7101C10.3002 64.3201 11.1602 62.9801 11.6302 62.0201C11.1302 61.9601 11.2302 63.7301 11.7102 63.9901C12.6402 64.5001 14.0702 62.2701 14.2402 61.9901C15.6602 59.6201 15.7602 56.0901 15.8602 53.4401C15.9202 51.8401 15.7402 50.1401 16.2502 48.5901C16.2102 51.4701 15.7902 54.6101 16.3602 57.4501C16.8302 59.7601 17.5802 62.5601 19.2302 64.3101C20.3802 65.5301 21.2402 64.3801 22.1102 63.3501C22.0102 63.9101 22.0302 64.6201 22.5802 64.8701C23.5102 65.3001 27.3502 63.5901 27.2002 62.5301C26.6302 63.6801 26.3702 65.2101 26.6202 66.5001C27.2602 66.4701 27.5802 66.4101 27.5802 67.1201C27.5802 67.9101 27.2802 67.6801 26.6602 68.0801C25.7802 68.6601 25.6902 68.8601 24.4802 69.0001C20.4602 69.4701 16.2702 68.9901 12.2202 69.0501C9.08024 69.1001 5.96024 69.3501 2.82024 69.3701C1.56024 69.3001 0.320237 69.4101 -0.899763 69.7101C-1.46976 69.9401 -2.05976 70.0601 -2.66976 70.0601C-3.91976 70.1001 -5.18976 70.0401 -4.81976 71.6601L-4.80976 71.6201Z" fill="#95DD73"/>
<path d="M97.9298 29.2699V29.4999C97.7198 29.1199 98.0598 28.4699 98.1798 28.1499C98.6498 26.8599 99.3298 25.7499 100.17 24.6799C101.13 24.5299 101.36 27.2299 102.68 27.3799C104.67 27.6099 105.42 23.3499 106.65 22.2199C106.78 23.0599 106.55 23.8999 106.7 24.7299C108.13 25.0999 110.47 24.4399 111.23 23.1299C112.57 20.7999 112.2 17.5499 112.19 14.9799C112.14 16.9799 112.36 18.6199 112.85 20.6199L113.81 24.2099C113.94 25.3499 114.39 26.2899 115.16 27.0499C115.82 27.3599 117.24 26.9699 117.77 26.6199C118.85 25.9099 119.47 24.5299 120.32 23.5799C120.19 24.2299 120.33 24.8799 120.99 25.0999C121.75 25.3499 122.4 24.9699 123 24.5599C124.27 23.7099 125.41 22.6899 126.69 21.8499C126.47 22.5699 125.92 25.2199 127.06 25.5699C127.42 25.2599 127.6 24.8399 127.61 24.3099C128.21 22.9499 128.78 21.5699 129.31 20.1799C129.99 18.5099 130.63 16.8199 131.23 15.1199C131.21 14.3599 131.46 13.8699 131.98 13.6599C131.44 17.5499 132.53 21.5499 132.57 25.4399C132.58 26.3699 132.68 27.4899 131.79 28.0099C131.38 28.2499 130.58 28.2299 130.14 28.2799C128.83 28.4199 127.82 28.8799 126.56 29.2499C124 30.0099 121.26 30.2399 118.62 30.5299C116.21 30.7899 113.78 31.0299 111.36 31.1799C109.24 31.3099 107.09 31.2199 104.97 31.2199C102.85 31.2199 100.92 31.2199 97.9198 29.2799L97.9298 29.2699Z" fill="#95DD73"/>
<path d="M294.72 176.44V176.67C294.51 176.29 294.85 175.64 294.97 175.32C295.44 174.03 296.12 172.92 296.96 171.85C297.92 171.7 298.15 174.4 299.47 174.55C301.46 174.78 302.21 170.52 303.44 169.39C303.57 170.23 303.34 171.07 303.49 171.9C304.92 172.27 307.26 171.61 308.02 170.3C309.36 167.97 308.99 164.72 308.98 162.15C308.93 164.15 309.15 165.79 309.64 167.79L310.6 171.38C310.73 172.52 311.18 173.46 311.95 174.22C312.61 174.53 314.03 174.14 314.56 173.79C315.64 173.08 316.26 171.7 317.11 170.75C316.98 171.4 317.12 172.05 317.78 172.27C318.54 172.52 319.19 172.14 319.79 171.73C321.06 170.88 322.2 169.86 323.48 169.02C323.26 169.74 322.71 172.39 323.85 172.74C324.21 172.43 324.39 172.01 324.4 171.48C325 170.12 325.57 168.74 326.1 167.35C326.78 165.68 327.42 163.99 328.02 162.29C328 161.53 328.25 161.04 328.77 160.83C328.23 164.72 329.32 168.72 329.36 172.61C329.37 173.54 329.47 174.66 328.58 175.18C328.17 175.42 327.37 175.4 326.93 175.45C325.62 175.59 324.61 176.05 323.35 176.42C320.79 177.18 318.05 177.41 315.41 177.7C313 177.96 310.57 178.2 308.15 178.35C306.03 178.48 303.88 178.39 301.76 178.39C299.64 178.39 297.71 178.39 294.71 176.45L294.72 176.44Z" fill="#95DD73"/>
<path d="M97.9298 277.53V277.76C97.7198 277.38 98.0598 276.73 98.1798 276.41C98.6498 275.12 99.3298 274.01 100.17 272.94C101.13 272.79 101.36 275.49 102.68 275.64C104.67 275.87 105.42 271.61 106.65 270.48C106.78 271.32 106.55 272.16 106.7 272.99C108.13 273.36 110.47 272.7 111.23 271.39C112.57 269.06 112.2 265.81 112.19 263.24C112.14 265.24 112.36 266.88 112.85 268.88L113.81 272.47C113.94 273.61 114.39 274.55 115.16 275.31C115.82 275.62 117.24 275.23 117.77 274.88C118.85 274.17 119.47 272.79 120.32 271.84C120.19 272.49 120.33 273.14 120.99 273.36C121.75 273.61 122.4 273.23 123 272.82C124.27 271.97 125.41 270.95 126.69 270.11C126.47 270.83 125.92 273.48 127.06 273.83C127.42 273.52 127.6 273.1 127.61 272.57C128.21 271.21 128.78 269.83 129.31 268.44C129.99 266.77 130.63 265.08 131.23 263.38C131.21 262.62 131.46 262.13 131.98 261.92C131.44 265.81 132.53 269.81 132.57 273.7C132.58 274.63 132.68 275.75 131.79 276.27C131.38 276.51 130.58 276.49 130.14 276.54C128.83 276.68 127.82 277.14 126.56 277.51C124 278.27 121.26 278.5 118.62 278.79C116.21 279.05 113.78 279.29 111.36 279.44C109.24 279.57 107.09 279.48 104.97 279.48C102.85 279.48 100.92 279.48 97.9198 277.54L97.9298 277.53Z" fill="#95DD73"/>
<path d="M181.18 86.0999C181.25 86.2599 181.54 86.7299 181.38 86.9599C181.09 87.3599 180.75 86.8299 180.61 86.6299C179.71 85.2599 179.55 81.9899 179.58 80.6599C179.63 78.6699 179.77 77.0999 181.23 75.6099C181.77 75.9699 181.59 76.8499 181.79 77.4299C182.25 78.7899 182.98 80.1899 183.68 81.4399C184.58 83.0299 184.89 81.2599 185.85 80.7599C186.74 81.0699 186.55 82.6599 187.65 82.8499C188.2 82.9399 188.81 82.6999 189.22 82.3499C189.49 82.1199 189.81 81.3099 190.14 81.2799C190.16 81.4199 190.18 81.5599 190.2 81.6999C190.93 81.9499 191.83 79.9999 191.96 79.7799C192.71 78.5199 193.66 76.9099 193.92 75.4299C194.07 77.7399 194.7 79.9799 194.98 82.2699C195 82.4399 195.1 83.0999 195.05 83.3099C194.9 83.9399 194.34 83.9399 193.76 84.1899C192.16 84.8899 190.68 85.8599 188.9 86.0799C186.81 86.3299 184.65 86.0799 182.59 85.7299C181.37 85.5199 180.21 85.2499 181.17 86.1099L181.18 86.0999Z" fill="#95DD73"/>
<path d="M-3.30977 250.61C-3.23977 250.77 -2.94977 251.24 -3.10977 251.47C-3.39977 251.87 -3.73977 251.34 -3.87977 251.14C-4.77977 249.77 -4.93977 246.5 -4.90977 245.17C-4.85977 243.18 -4.71977 241.61 -3.25977 240.12C-2.71977 240.48 -2.89977 241.36 -2.69977 241.94C-2.23977 243.3 -1.50977 244.7 -0.809766 245.95C0.0902338 247.54 0.400234 245.77 1.36023 245.27C2.25023 245.58 2.06023 247.17 3.16023 247.36C3.71023 247.45 4.32023 247.21 4.73023 246.86C5.00023 246.63 5.32023 245.82 5.65023 245.79C5.67023 245.93 5.69023 246.07 5.71023 246.21C6.44023 246.46 7.34023 244.51 7.47023 244.29C8.22023 243.03 9.17023 241.42 9.43023 239.94C9.58023 242.25 10.2102 244.49 10.4902 246.78C10.5102 246.95 10.6102 247.61 10.5602 247.82C10.4102 248.45 9.85023 248.45 9.27023 248.7C7.67023 249.4 6.19023 250.37 4.41023 250.59C2.32023 250.84 0.160234 250.59 -1.89977 250.24C-3.11977 250.03 -4.27977 249.76 -3.31977 250.62L-3.30977 250.61Z" fill="#95DD73"/>
<path d="M326.4 20.38C326.47 20.54 326.76 21.01 326.6 21.24C326.31 21.64 325.97 21.11 325.83 20.91C324.93 19.54 324.77 16.27 324.8 14.94C324.85 12.95 324.99 11.38 326.45 9.88996C326.99 10.25 326.81 11.13 327.01 11.71C327.47 13.07 328.2 14.47 328.9 15.72C329.8 17.31 330.11 15.54 331.07 15.04C331.96 15.35 331.77 16.94 332.87 17.13C333.42 17.22 334.03 16.98 334.44 16.63C334.71 16.4 335.03 15.59 335.36 15.56C335.38 15.7 335.4 15.84 335.42 15.98C336.15 16.23 337.05 14.28 337.18 14.06C337.93 12.8 338.88 11.19 339.14 9.70996C339.29 12.02 339.92 14.26 340.2 16.55C340.22 16.72 340.32 17.38 340.27 17.59C340.12 18.22 339.56 18.22 338.98 18.47C337.38 19.17 335.9 20.14 334.12 20.36C332.03 20.61 329.87 20.36 327.81 20.01C326.59 19.8 325.43 19.53 326.39 20.39L326.4 20.38Z" fill="#95DD73"/>
<path d="M133.04 343.79C133.11 343.95 133.4 344.42 133.24 344.65C132.95 345.05 132.61 344.52 132.47 344.32C131.57 342.95 131.41 339.68 131.44 338.35C131.49 336.36 131.63 334.79 133.09 333.3C133.63 333.66 133.45 334.54 133.65 335.12C134.11 336.48 134.84 337.88 135.54 339.13C136.44 340.72 136.75 338.95 137.71 338.45C138.6 338.76 138.41 340.35 139.51 340.54C140.06 340.63 140.67 340.39 141.08 340.04C141.35 339.81 141.67 339 142 338.97C142.02 339.11 142.04 339.25 142.06 339.39C142.79 339.64 143.69 337.69 143.82 337.47C144.57 336.21 145.52 334.6 145.78 333.12C145.93 335.43 146.56 337.67 146.84 339.96C146.86 340.13 146.96 340.79 146.91 341C146.76 341.63 146.2 341.63 145.62 341.88C144.02 342.58 142.54 343.55 140.76 343.77C138.67 344.02 136.51 343.77 134.45 343.42C133.23 343.21 132.07 342.94 133.03 343.8L133.04 343.79Z" fill="#95DD73"/>
<path d="M250.64 304.29C250.71 304.45 251 304.92 250.84 305.15C250.55 305.55 250.21 305.02 250.07 304.82C249.17 303.45 249.01 300.18 249.04 298.85C249.09 296.86 249.23 295.29 250.69 293.8C251.23 294.16 251.05 295.04 251.25 295.62C251.71 296.98 252.44 298.38 253.14 299.63C254.04 301.22 254.35 299.45 255.31 298.95C256.2 299.26 256.01 300.85 257.11 301.04C257.66 301.13 258.27 300.89 258.68 300.54C258.95 300.31 259.27 299.5 259.6 299.47C259.62 299.61 259.64 299.75 259.66 299.89C260.39 300.14 261.29 298.19 261.42 297.97C262.17 296.71 263.12 295.1 263.38 293.62C263.53 295.93 264.16 298.17 264.44 300.46C264.46 300.63 264.56 301.29 264.51 301.5C264.36 302.13 263.8 302.13 263.22 302.38C261.62 303.08 260.14 304.05 258.36 304.27C256.27 304.52 254.11 304.27 252.05 303.92C250.83 303.71 249.67 303.44 250.63 304.3L250.64 304.29Z" fill="#95DD73"/>
<path d="M240.9 562.37C240.97 562.53 241.26 563 241.1 563.23C240.81 563.63 240.47 563.1 240.33 562.9C239.43 561.53 239.27 558.26 239.3 556.93C239.35 554.94 239.49 553.37 240.95 551.88C241.49 552.24 241.31 553.12 241.51 553.7C241.97 555.06 242.7 556.46 243.4 557.71C244.3 559.3 244.61 557.53 245.57 557.03C246.46 557.34 246.27 558.93 247.37 559.12C247.92 559.21 248.53 558.97 248.94 558.62C249.21 558.39 249.53 557.58 249.86 557.55C249.88 557.69 249.9 557.83 249.92 557.97C250.65 558.22 251.55 556.27 251.68 556.05C252.43 554.79 253.38 553.18 253.64 551.7C253.79 554.01 254.42 556.25 254.7 558.54C254.72 558.71 254.82 559.37 254.77 559.58C254.62 560.21 254.06 560.21 253.48 560.46C251.88 561.16 250.4 562.13 248.62 562.35C246.53 562.6 244.37 562.35 242.31 562C241.09 561.79 239.93 561.52 240.89 562.38L240.9 562.37Z" fill="#95DD73"/>
<path d="M56.0098 128.67L56.3198 128.88C56.5598 127.83 56.5398 126.68 56.7498 125.62C56.8998 124.83 57.0598 122.46 57.8398 122.15C58.0198 123.16 58.9098 124.65 59.9698 124.87C61.0298 125.09 63.1098 123.17 63.7998 123.89C63.6798 124.21 63.6498 124.53 63.7298 124.85C65.0598 123.03 65.2498 120.37 65.6198 118.21C66.0798 115.55 66.1798 112.52 67.4998 110.13C67.6098 110.54 67.5198 110.94 67.5198 111.35C67.5098 113.33 67.7998 115.3 68.1198 117.25C68.3898 118.89 68.7798 120.46 69.4498 121.98C69.7598 122.67 70.0898 123.38 70.2598 124.13C72.2898 124.12 73.8398 120.16 74.8498 118.73C74.9798 119.42 74.4698 120.91 75.0298 121.35C75.8698 122.01 78.1498 120.06 78.7698 120.93C78.5498 121.51 78.6898 121.97 79.2398 122.14C80.0698 122.39 81.4598 120.78 81.9398 120.22C82.3998 120.42 82.3398 121.06 82.7498 121.33C83.8298 122.05 85.1898 119.08 85.6198 118.4C85.7398 119.72 85.5898 121.13 85.6198 122.47C85.6198 122.71 85.7698 123.39 85.5698 123.62C85.3998 123.81 83.5598 123.86 83.3598 123.9C76.6098 125.25 69.6698 127.29 62.7498 127.17C60.6398 127.13 58.5198 127.15 56.0298 128.68L56.0098 128.67Z" fill="#95DD73"/>
<path d="M241.04 40.99L241.35 41.2C241.59 40.15 241.57 38.9999 241.78 37.9399C241.93 37.1499 242.09 34.78 242.87 34.47C243.05 35.48 243.94 36.9699 245 37.1899C246.06 37.4099 248.14 35.4899 248.83 36.2099C248.71 36.5299 248.68 36.8499 248.76 37.1699C250.09 35.3499 250.28 32.69 250.65 30.53C251.11 27.87 251.21 24.84 252.53 22.45C252.64 22.86 252.55 23.26 252.55 23.67C252.54 25.65 252.83 27.62 253.15 29.57C253.42 31.21 253.81 32.7799 254.48 34.2999C254.79 34.9899 255.12 35.7 255.29 36.45C257.32 36.44 258.87 32.4799 259.88 31.0499C260.01 31.7399 259.5 33.2299 260.06 33.6699C260.9 34.3299 263.18 32.38 263.8 33.25C263.58 33.83 263.72 34.2899 264.27 34.4599C265.1 34.7099 266.49 33.1 266.97 32.54C267.43 32.74 267.37 33.38 267.78 33.65C268.86 34.37 270.22 31.4 270.65 30.7199C270.77 32.0399 270.62 33.45 270.65 34.79C270.65 35.03 270.8 35.7099 270.6 35.9399C270.43 36.1299 268.59 36.18 268.39 36.22C261.64 37.57 254.7 39.61 247.78 39.49C245.67 39.45 243.55 39.4699 241.06 41L241.04 40.99Z" fill="#95DD73"/>
<path d="M8.33984 403.08L8.64984 403.29C8.88984 402.24 8.86984 401.09 9.07984 400.03C9.22984 399.24 9.38984 396.87 10.1698 396.56C10.3498 397.57 11.2398 399.06 12.2998 399.28C13.3598 399.5 15.4398 397.58 16.1298 398.3C16.0098 398.62 15.9798 398.94 16.0598 399.26C17.3898 397.44 17.5798 394.78 17.9498 392.62C18.4098 389.96 18.5098 386.93 19.8298 384.54C19.9398 384.95 19.8498 385.35 19.8498 385.76C19.8398 387.74 20.1298 389.71 20.4498 391.66C20.7198 393.3 21.1098 394.87 21.7798 396.39C22.0898 397.08 22.4198 397.79 22.5898 398.54C24.6198 398.53 26.1698 394.57 27.1798 393.14C27.3098 393.83 26.7998 395.32 27.3598 395.76C28.1998 396.42 30.4798 394.47 31.0998 395.34C30.8798 395.92 31.0198 396.38 31.5698 396.55C32.3998 396.8 33.7898 395.19 34.2698 394.63C34.7298 394.83 34.6698 395.47 35.0798 395.74C36.1598 396.46 37.5198 393.49 37.9498 392.81C38.0698 394.13 37.9198 395.54 37.9498 396.88C37.9498 397.12 38.0998 397.8 37.8998 398.03C37.7298 398.22 35.8898 398.27 35.6898 398.31C28.9398 399.66 21.9998 401.7 15.0798 401.58C12.9698 401.54 10.8498 401.56 8.35984 403.09L8.33984 403.08Z" fill="#95DD73"/>
<path d="M107.04 563.16L107.35 563.37C107.59 562.32 107.57 561.17 107.78 560.11C107.93 559.32 108.09 556.95 108.87 556.64C109.05 557.65 109.94 559.14 111 559.36C112.06 559.58 114.14 557.66 114.83 558.38C114.71 558.7 114.68 559.02 114.76 559.34C116.09 557.52 116.28 554.86 116.65 552.7C117.11 550.04 117.21 547.01 118.53 544.62C118.64 545.03 118.55 545.43 118.55 545.84C118.54 547.82 118.83 549.79 119.15 551.74C119.42 553.38 119.81 554.95 120.48 556.47C120.79 557.16 121.12 557.87 121.29 558.62C123.32 558.61 124.87 554.65 125.88 553.22C126.01 553.91 125.5 555.4 126.06 555.84C126.9 556.5 129.18 554.55 129.8 555.42C129.58 556 129.72 556.46 130.27 556.63C131.1 556.88 132.49 555.27 132.97 554.71C133.43 554.91 133.37 555.55 133.78 555.82C134.86 556.54 136.22 553.57 136.65 552.89C136.77 554.21 136.62 555.62 136.65 556.96C136.65 557.2 136.8 557.88 136.6 558.11C136.43 558.3 134.59 558.35 134.39 558.39C127.64 559.74 120.7 561.78 113.78 561.66C111.67 561.62 109.55 561.64 107.06 563.17L107.04 563.16Z" fill="#95DD73"/>
<path d="M127.75 166.68C127.85 165.96 127.55 165.2 127.48 164.51C127.26 162.34 127.91 160.35 128.06 158.22C128.39 159.74 128.94 161.25 129.48 162.71C130.09 164.31 130.83 165.85 131.71 167.32C131.76 167.65 131.91 167.88 132.16 168.02C132.63 168.23 133.45 167.24 133.76 166.97C134.35 166.5 134.9 165.97 135.4 165.4C135.57 165.01 135.82 164.71 136.15 164.48C136.58 164.85 136.19 165.96 136.68 166.02C137.57 163.76 137.64 160.76 137.55 158.41C137.43 155.22 137.31 152.04 137.43 148.85C137.47 147.63 137.85 146.29 137.73 145.08C137.22 150.12 139.84 155.2 140.86 160.07C141.12 161.29 141.61 162.05 142.85 161.22C143.51 160.78 144.52 157.93 145.06 158C145.21 158.65 145.37 161.3 146.05 161.61C147.1 162.09 148.34 159.85 149.04 159.34C149.45 159.84 149.7 160.42 150.4 160.6C151.2 160.8 151.48 160.39 152 159.67C153 158.29 153.56 156.7 154.78 155.46C155.25 155.74 155.61 157.42 155.76 157.91C155.96 158.56 155.96 159.24 156.14 159.88C156.21 160.12 156.43 160.23 156.45 160.59C156.5 161.88 155.37 162.59 154.28 162.53C152.67 162.43 150.4 162 149.09 163.13C148.42 163.71 148.32 163.94 147.51 164.19C146.83 164.4 146.14 164.36 145.44 164.52C144.47 164.73 144.37 164.85 143.38 164.39C143.11 164.26 141.49 163.1 141.11 163.48C140.48 164.11 141.26 165.79 141.28 166.61C141.34 168.35 140.74 168.27 139.07 168.28C137.4 168.29 135.63 168.58 133.9 168.63C132.01 168.69 130.23 168.4 127.76 166.68H127.75Z" fill="#95DD73"/>
<path d="M268.76 414.02C268.86 413.3 268.56 412.54 268.49 411.85C268.27 409.68 268.92 407.69 269.07 405.56C269.4 407.08 269.95 408.59 270.49 410.05C271.1 411.65 271.84 413.19 272.72 414.66C272.77 414.99 272.92 415.22 273.17 415.36C273.64 415.57 274.46 414.58 274.77 414.31C275.36 413.84 275.91 413.31 276.41 412.74C276.58 412.35 276.83 412.05 277.16 411.82C277.59 412.19 277.2 413.3 277.69 413.36C278.58 411.1 278.65 408.1 278.56 405.75C278.44 402.56 278.32 399.38 278.44 396.19C278.48 394.97 278.86 393.63 278.74 392.42C278.23 397.46 280.85 402.54 281.87 407.41C282.13 408.63 282.62 409.39 283.86 408.56C284.52 408.12 285.53 405.27 286.07 405.34C286.22 405.99 286.38 408.64 287.06 408.95C288.11 409.43 289.35 407.19 290.05 406.68C290.46 407.18 290.71 407.76 291.41 407.94C292.21 408.14 292.49 407.73 293.01 407.01C294.01 405.63 294.57 404.04 295.79 402.8C296.26 403.08 296.62 404.76 296.77 405.25C296.97 405.9 296.97 406.58 297.15 407.22C297.22 407.46 297.44 407.57 297.46 407.93C297.51 409.22 296.38 409.93 295.29 409.87C293.68 409.77 291.41 409.34 290.1 410.47C289.43 411.05 289.33 411.28 288.52 411.53C287.84 411.74 287.15 411.7 286.45 411.86C285.48 412.07 285.38 412.19 284.39 411.73C284.12 411.6 282.5 410.44 282.12 410.82C281.49 411.45 282.27 413.13 282.29 413.95C282.35 415.69 281.75 415.61 280.08 415.62C278.41 415.63 276.64 415.92 274.91 415.97C273.02 416.03 271.24 415.74 268.77 414.02H268.76Z" fill="#95DD73"/>
<path d="M3.16023 528.1C3.26023 527.38 2.96023 526.62 2.89023 525.93C2.67023 523.76 3.32023 521.77 3.47023 519.64C3.80023 521.16 4.35023 522.67 4.89023 524.13C5.50023 525.73 6.24023 527.27 7.12023 528.74C7.17023 529.07 7.32023 529.3 7.57023 529.44C8.04023 529.65 8.86023 528.66 9.17023 528.39C9.76023 527.92 10.3102 527.39 10.8102 526.82C10.9802 526.43 11.2302 526.13 11.5602 525.9C11.9902 526.27 11.6002 527.38 12.0902 527.44C12.9802 525.18 13.0502 522.18 12.9602 519.83C12.8402 516.64 12.7202 513.46 12.8402 510.27C12.8802 509.05 13.2602 507.71 13.1402 506.5C12.6302 511.54 15.2502 516.62 16.2702 521.49C16.5302 522.71 17.0202 523.47 18.2602 522.64C18.9202 522.2 19.9302 519.35 20.4702 519.42C20.6202 520.07 20.7802 522.72 21.4602 523.03C22.5102 523.51 23.7502 521.27 24.4502 520.76C24.8602 521.26 25.1102 521.84 25.8102 522.02C26.6102 522.22 26.8902 521.81 27.4102 521.09C28.4102 519.71 28.9702 518.12 30.1902 516.88C30.6602 517.16 31.0202 518.84 31.1702 519.33C31.3702 519.98 31.3702 520.66 31.5502 521.3C31.6202 521.54 31.8402 521.65 31.8602 522.01C31.9102 523.3 30.7802 524.01 29.6902 523.95C28.0802 523.85 25.8102 523.42 24.5002 524.55C23.8302 525.13 23.7302 525.36 22.9202 525.61C22.2402 525.82 21.5502 525.78 20.8502 525.94C19.8802 526.15 19.7802 526.27 18.7902 525.81C18.5202 525.68 16.9002 524.52 16.5202 524.9C15.8902 525.53 16.6702 527.21 16.6902 528.03C16.7502 529.77 16.1502 529.69 14.4802 529.7C12.8102 529.71 11.0402 530 9.31023 530.05C7.42023 530.11 5.64023 529.82 3.17023 528.1H3.16023Z" fill="#95DD73"/>
<path d="M324.5 461.6C324.6 460.88 324.3 460.12 324.23 459.43C324.01 457.26 324.66 455.27 324.81 453.14C325.14 454.66 325.69 456.17 326.23 457.63C326.84 459.23 327.58 460.77 328.46 462.24C328.51 462.57 328.66 462.8 328.91 462.94C329.38 463.15 330.2 462.16 330.51 461.89C331.1 461.42 331.65 460.89 332.15 460.32C332.32 459.93 332.57 459.63 332.9 459.4C333.33 459.77 332.94 460.88 333.43 460.94C334.32 458.68 334.39 455.68 334.3 453.33C334.18 450.14 334.06 446.96 334.18 443.77C334.22 442.55 334.6 441.21 334.48 440C333.97 445.04 336.59 450.12 337.61 454.99C337.87 456.21 338.36 456.97 339.6 456.14C340.26 455.7 341.27 452.85 341.81 452.92C341.96 453.57 342.12 456.22 342.8 456.53C343.85 457.01 345.09 454.77 345.79 454.26C346.2 454.76 346.45 455.34 347.15 455.52C347.95 455.72 348.23 455.31 348.75 454.59C349.75 453.21 350.31 451.62 351.53 450.38C352 450.66 352.36 452.34 352.51 452.83C352.71 453.48 352.71 454.16 352.89 454.8C352.96 455.04 353.18 455.15 353.2 455.51C353.25 456.8 352.12 457.51 351.03 457.45C349.42 457.35 347.15 456.92 345.84 458.05C345.17 458.63 345.07 458.86 344.26 459.11C343.58 459.32 342.89 459.28 342.19 459.44C341.22 459.65 341.12 459.77 340.13 459.31C339.86 459.18 338.24 458.02 337.86 458.4C337.23 459.03 338.01 460.71 338.03 461.53C338.09 463.27 337.49 463.19 335.82 463.2C334.15 463.21 332.38 463.5 330.65 463.55C328.76 463.61 326.98 463.32 324.51 461.6H324.5Z" fill="#95DD73"/>
</g>
<defs>
<clipPath id="clip0_187_534">
<rect width="350" height="570" fill="white"/>
</clipPath>
</defs>
</svg>
