<svg width="59" height="59" viewBox="0 0 59 59" fill="none" xmlns="http://www.w3.org/2000/svg">
<circle cx="29.5" cy="29.5" r="26.5" stroke="white" stroke-width="6"/>
<path d="M17.1138 34.244C15.1378 34.244 13.9418 32.528 13.9418 29.772C13.9418 27.016 15.1378 25.3 17.1138 25.3H24.9658L24.7578 18.696C24.6018 15.368 26.7858 14.536 29.3858 14.536C31.9858 14.536 33.9098 14.848 34.1178 18.176C34.2218 20.256 34.3258 22.7 34.3258 25.3H41.5018C43.5298 25.3 44.7258 27.016 44.7258 29.772C44.7258 32.528 43.5298 34.244 41.5018 34.244H34.2738L34.0658 41.784C33.9618 45.112 31.9858 45.424 29.3858 45.424C26.7858 45.424 24.4978 44.592 24.7058 41.264C24.8098 38.976 24.9138 36.636 24.9658 34.244H17.1138Z" fill="white"/>
</svg>
