<svg width="58" height="59" viewBox="0 0 58 59" fill="none" xmlns="http://www.w3.org/2000/svg">
<path d="M28.5 56C43.1355 56 55 44.1355 55 29.5C55 14.8645 43.1355 3 28.5 3C13.8645 3 2 14.8645 2 29.5C2 44.1355 13.8645 56 28.5 56Z" stroke="white" stroke-width="6"/>
<path d="M33.1792 43.57L28.0092 36.09L22.8392 43.57C21.4092 45.66 19.0992 45.88 16.4592 44.175C14.0942 42.58 13.1042 40.71 14.4242 39.06L22.2892 29.16L14.9192 20.195C13.2142 18.16 14.3142 16.07 16.8992 14.31C19.2092 12.825 21.5742 13.1 23.0042 15.245L28.0092 22.78L32.9042 15.245C34.2792 13.1 36.6992 12.77 39.0092 14.31C41.5392 15.96 42.5842 18.05 40.9892 20.14L33.8392 29.655L41.5942 39.06C42.9142 40.655 41.8692 42.525 39.5592 44.175C37.0292 45.825 34.6092 45.66 33.1792 43.57Z" fill="white"/>
</svg>
