<svg width="272" height="65" viewBox="0 0 272 65" fill="none" xmlns="http://www.w3.org/2000/svg">
<path d="M270.6 63.81L270.08 64.15L269.36 64.46L268.64 64.16L267.92 63.88L267.21 64.21L266.49 64.38L265.77 63.57L265.05 63.98L264.33 63.77L263.62 64.07L262.9 64.13L262.18 63.77L261.46 64.16L260.74 64.15L260.02 63.73L259.3 64.15L258.59 64.17L257.87 63.53L257.15 63.94L256.43 63.91L255.71 63.73L254.99 64.45L254.27 64.36L253.55 63.87L252.83 64.02L252.11 63.65L251.39 64.15L250.67 64.46L249.95 64.45L249.23 63.87L248.51 63.62L247.79 64.24L247.07 64.12L246.35 64.36L245.63 64.46L244.91 64.01L244.19 64.3L243.48 64.48L242.76 63.73L242.04 64.22L241.32 64.35L240.6 64.14L239.88 64.04L239.16 64.32L238.44 63.79L237.73 64.13L237.01 63.93L236.29 63.65L235.57 63.84L234.85 64.09L234.13 64.12L233.42 63.65L232.7 64.17L231.98 64.26L231.26 63.52L230.54 63.88L229.83 64.21L229.11 63.58L228.39 63.6L227.67 63.71H226.95L226.24 64.43L225.52 64.15L224.8 64.07L224.08 63.94L223.37 63.56L222.65 63.9L221.93 64.25L221.21 64.17L220.49 64.41L219.78 64.14L219.06 64.05L218.34 63.89L217.62 64.48L216.9 63.79L216.19 64.25L215.47 64.36L214.75 63.91L214.03 63.95L213.31 63.85L212.59 63.92L211.87 63.87L211.16 63.5L210.44 63.79L209.72 63.8L209 63.99L208.28 63.78L207.56 63.86L206.84 63.64L206.12 64.46L205.4 63.84L204.68 64.44L203.97 63.6L203.25 63.97L202.53 64.31L201.81 63.59L201.09 64.3L200.37 64.05L199.65 64.49L198.92 64.42L198.2 64.34L197.48 64.13L196.76 63.52L196.04 64.06L195.32 63.77L194.6 63.87L193.88 64.4L193.17 64.25L192.45 64.18L191.73 63.89L191.01 63.67L190.29 63.82L189.57 63.73L188.85 63.67L188.13 64.37L187.41 64.11L186.69 64.01L185.97 63.68L185.26 64.41L184.54 63.6L183.82 63.83L183.1 64.4L182.38 63.66L181.66 63.78L180.94 63.81L180.22 64.46L179.51 64L178.79 63.57L178.07 64.14L177.35 64.48L176.63 63.78L175.91 64.25L175.2 64.07L174.48 63.79L173.76 63.65L173.05 64.26L172.33 63.65L171.61 63.73L170.9 64.44L170.18 63.88L169.46 64.35L168.74 63.61L168.03 63.99L167.31 64.04L166.59 63.86L165.87 63.98L165.15 63.55L164.43 64.29L163.71 63.97L162.99 63.56L162.27 63.69L161.55 64.29L160.83 63.57L160.11 64.15L159.39 64.38L158.67 63.76L157.95 63.85L157.23 64.02L156.51 64.14L155.79 64.18L155.07 63.73L154.36 64.13L153.64 63.86L152.92 64.36L152.2 64.43L151.48 63.67L150.77 64.34L150.05 64.03L149.33 64.47L148.62 64.17L147.9 63.99L147.18 63.62L146.46 63.75L145.75 63.76L145.03 63.86L144.32 64.37L143.6 64.21L142.88 63.92L142.17 64.37L141.45 63.9L140.74 63.62L140.02 63.98L139.3 63.93L138.59 63.54L137.87 63.94L137.16 64.14L136.44 63.85L135.72 64.3L135.01 63.97L134.29 63.93L133.58 63.66L132.86 64L132.14 63.57L131.43 63.98L130.71 64.33L129.99 64.29L129.28 64.25L128.56 64.21L127.84 64.41L127.13 64.2L126.41 64.43L125.69 63.91L124.98 63.67L124.26 63.87L123.54 64.04L122.82 64.22L122.1 64.23L121.39 64.1L120.67 63.94L119.95 64.27L119.23 63.72L118.51 64.45L117.79 63.71L117.07 64.48L116.35 64.49L115.63 64.35L114.91 64.31L114.18 64.43L113.46 64.46L112.74 64.26L112.02 64.23L111.3 63.62L110.58 63.57L109.85 64.01L109.13 64.47L108.41 63.63L107.69 64.34L106.97 64.48L106.25 64.16L105.53 64.01L104.82 63.74L104.1 63.95L103.38 64.05L102.66 64.37L101.94 63.64L101.22 63.91L100.5 63.67L99.78 63.99L99.06 64.11L98.35 63.93L97.63 64.48H96.91L96.19 64L95.47 64.32L94.75 63.73L94.03 63.72L93.31 63.75L92.59 64.15L91.88 64.31L91.16 63.76L90.44 64.13L89.72 64.38L89 64.46L88.27 63.7L87.55 63.87L86.83 63.6L86.11 63.53L85.39 64.36L84.67 63.57L83.94 64.29L83.22 63.56L82.5 63.84L81.78 64.22L81.05 63.93L80.33 64.1L79.61 63.61L78.89 63.56L78.17 63.95L77.45 63.85L76.73 64.25L76.01 63.53L75.29 63.93L74.57 63.58L73.85 63.63L73.13 64.15L72.41 63.81L71.69 63.99L70.97 63.55L70.24 64.11L69.52 63.74L68.8 63.87L68.08 63.52L67.36 64.31H66.64L65.91 64.28L65.19 63.91L64.47 63.6L63.74 63.58L63.02 64.1L62.3 64.08L61.58 64.21L60.85 63.97L60.13 63.63L59.41 63.61L58.69 63.77L57.97 64.14L57.25 63.65L56.53 64.33L55.8 63.66L55.08 64.1L54.36 63.59L53.64 64.32L52.91 63.54L52.19 63.62L51.47 64.23L50.74 64.5L50.02 63.65L49.3 64.14L48.58 63.55L47.85 63.96L47.14 64.03L46.42 64.37L45.7 64.18L44.98 63.73L44.26 63.96L43.54 63.61L42.81 64.08L42.09 64.15L41.37 63.85L40.64 64.15L39.92 63.84L39.2 64.37L38.48 64L37.76 63.67L37.04 64.34L36.32 64.37L35.6 64.36L34.88 64.03H34.16L33.44 63.9L32.72 63.69L32 64.36L31.27 63.67L30.55 63.69L29.82 64.24L29.1 63.91L28.37 63.72L27.65 64.48L26.93 64.5L26.21 64.42L25.48 64.28L24.76 64.08L24.04 63.98L23.31 63.66L22.59 63.74L21.86 64.11L21.14 63.61L20.41 63.75L19.69 64.03L18.97 64.49L18.24 63.72L17.51 63.91L16.79 63.67L16.06 64.49L15.34 64.22L14.61 64.47L13.89 64.43L13.17 64.37L12.45 63.98L11.72 64.42L11 63.89L10.27 64.36L9.55 63.91L8.82 63.66L8.09 63.67L7.36 63.99L6.64 63.75L5.91 64.1L5.18 63.63H4.45L3.72 64.22L2.99 63.67L2.26 63.81L1.53 64.24L0.470001 64.33L1.14 63.28L0.489998 62.57L0.790001 61.85L0.5 61.14L0.699997 60.43V59.71L0.650002 59L0.449997 58.28L0.900002 57.57L0.980003 56.86L0.489998 56.14L1.14 55.43L0.459999 54.71L0.360001 54L0.809998 53.29L1.14 52.57L1.23 51.85L0.68 51.14L0.410004 50.42L0.660004 49.71L0.980003 48.99L0.870003 48.28L0.769997 47.57L0.57 46.86L0.879997 46.15L0.980003 45.44L1.1 44.72L0.900002 44.01L0.970001 43.3L1.24 42.58L0.910004 41.86L0.769997 41.15L0.989998 40.43L0.870003 39.72L0.360001 39L1.21 38.29L0.860001 37.58L0.779999 36.87L0.309998 36.15L0.889999 35.44L1.28 34.73L1.04 34.02L0.410004 33.3L1.15 32.59L0.629997 31.88L1.13 31.16L1.04 30.44L0.370003 29.73L0.68 29.01L0.889999 28.29L0.480003 27.58L1.1 26.86L1.22 26.15V25.43L1.04 24.72L0.949997 24L0.309998 23.28L0.400002 22.57L0.760002 21.85L0.690002 21.13L1.1 20.41L1.08 19.7L1.17 18.98L0.580002 18.26L0.839996 17.55L0.860001 16.83L0.739998 16.11L1.21 15.39L0.339996 14.67L0.489998 13.96L0.739998 13.25L1.2 12.53L1.19 11.81L0.519997 11.09L0.860001 10.38L0.75 9.65997L1.08 8.94L0.589996 8.21997L0.43 7.5L0.410004 6.78003L0.68 6.06L1.07 5.34003L0.650002 4.62L0.32 3.90002L1.24 3.17999L1.28 2.45001L0.529999 1.72998L0.900002 1.10999L1.51 0.669983L2.23 1.20001L2.95 1.31L3.66 1.02002L4.38 0.950012L5.1 0.719971L5.82 0.75L6.54 1.34998L7.25 0.630005L7.97 1.06L8.69 0.799988L9.41 1.08002L10.13 1.27002L10.85 0.73999L11.56 1.47998L12.28 1.35999L13 0.609985L13.72 0.590027L14.44 1.19L15.16 0.75L15.88 1.29999L16.6 1.08002L17.32 1.33002L18.04 1.35999L18.76 0.960022L19.48 0.679993L20.2 1.46997L20.92 1.14001L21.64 0.679993L22.36 0.549988L23.08 1.15997L23.8 0.539978L24.52 0.590027L25.24 1.29999L25.95 0.650024L26.67 0.820007L27.39 1.48999L28.11 1L28.83 1.32001L29.55 1.03998L30.27 1.28998L30.99 1.17999L31.71 1.15997L32.42 1.21997L33.14 1.22998L33.86 1.02002L34.58 1.25L35.3 0.669983L36.02 1.46997L36.73 1.47998L37.45 1.46997L38.17 0.820007L38.89 1.28003L39.61 0.530029L40.33 1.32001L41.04 0.650024L41.76 1.25L42.48 1.27002L43.2 1.21997L43.92 1.20001L44.63 0.700012L45.35 1.15002L46.07 1.09998L46.79 1.03003L47.5 0.950012L48.22 0.900024L48.94 0.640015L49.66 1.09998L50.38 1.35999L51.09 0.570007L51.81 1L52.53 1.19L53.25 0.950012L53.97 1.22998L54.68 1.39001L55.4 1.15997L56.12 0.52002L56.84 0.690002L57.56 1.28003L58.28 1.07001L58.99 0.940002L59.71 0.789978L60.43 0.72998L61.15 0.700012L61.87 0.72998L62.59 0.710022L63.31 1.45001L64.03 1.31L64.75 1.46997L65.46 0.73999L66.18 1.15997L66.9 1.27002L67.62 1.13L68.34 1.03003L69.06 0.98999L69.78 1.31L70.5 0.97998L71.22 0.76001L71.94 1.28003L72.66 1.15002L73.38 1.09998L74.1 1.10999L74.82 0.549988L75.54 1.12L76.26 1.14001L76.98 0.780029L77.7 1.17999L78.42 0.659973L79.14 1.34003L79.86 1.09003L80.58 1.40997L81.3 1.21997L82.02 0.559998L82.74 0.619995L83.46 1.14001L84.18 1.40002L84.9 1.23999L85.61 1.40002L86.33 1.38L87.05 1.14001L87.77 0.950012L88.49 1.48999L89.21 0.640015L89.93 1.33002L90.65 0.719971L91.36 1.15997L92.08 1.09003L92.8 1.04999L93.52 0.539978L94.24 1.33002L94.96 0.890015L95.68 0.700012L96.39 1.35999L97.11 0.52002L97.82 0.570007L98.54 1.09998L99.26 0.960022L99.97 1.08002L100.69 0.599976L101.41 0.960022H102.13L102.84 0.809998L103.56 1.32001L104.28 0.76001L105 1.47998L105.72 0.789978L106.44 1.20001L107.16 1.41998L107.88 1.47998L108.6 0.609985L109.32 0.659973L110.04 0.890015L110.76 0.599976L111.48 0.650024L112.2 1.40997L112.92 0.859985L113.64 1.28998L114.36 0.719971L115.08 0.5L115.8 0.859985L116.51 1.04999L117.23 0.799988L117.95 1.17999L118.67 0.97998L119.39 0.849976L120.1 0.909973L120.82 0.5L121.54 1.37L122.26 1.13L122.97 1.12L123.69 1.03998L124.41 0.780029L125.12 0.77002L125.84 0.619995L126.56 0.539978L127.27 1.29999L127.99 1.41998L128.7 0.840027L129.42 0.780029L130.14 0.700012L130.85 1.23999L131.57 0.570007L132.28 0.640015L133 1.28998L133.72 0.929993L134.43 1.06L135.15 0.52002L135.86 0.809998L136.58 0.77002L137.3 1.10999L138.01 1.19L138.73 1.34003L139.44 0.559998L140.16 1.04999L140.88 1.16998L141.59 0.679993L142.31 1.40002L143.03 0.609985L143.74 0.640015L144.46 1.15002L145.18 0.950012L145.89 0.599976L146.61 1.23999L147.33 1.28003L148.05 1.23999L148.77 0.559998L149.48 1.46002L150.2 1.41998L150.92 0.710022L151.64 1.03003L152.36 1.08002L153.08 0.659973L153.8 1.38L154.52 0.710022L155.24 0.530029L155.96 1.03998L156.68 1.03003L157.4 1.28003L158.13 1.39001L158.85 0.590027L159.57 1.17999L160.29 0.960022L161.01 0.950012L161.73 1.06L162.45 0.679993L163.17 0.719971L163.89 1.21997L164.61 0.940002L165.33 0.929993L166.05 1.16998L166.77 1.12L167.49 0.599976L168.21 1.32001L168.93 0.940002L169.65 1.28003L170.37 1.10999L171.09 0.929993L171.8 0.840027L172.52 1.28003L173.24 0.679993L173.96 1.27002L174.68 1.33002L175.4 0.630005L176.12 1.20001L176.84 0.869995L177.55 0.700012L178.27 1.40002L178.99 0.809998L179.71 0.599976L180.43 0.590027L181.15 0.77002L181.87 1.07001L182.59 0.630005L183.31 1.09998L184.03 1.41998L184.76 0.549988L185.48 0.630005L186.2 1.13L186.92 1.06L187.64 1.39001L188.37 1.45001L189.09 1.35999L189.81 0.919983L190.53 0.900024L191.25 0.72998L191.98 1.28998L192.7 0.590027L193.42 1.40002L194.14 0.51001L194.86 0.909973L195.58 1.08002L196.3 0.590027L197.02 0.619995L197.74 1.42999L198.46 1.33002L199.18 0.659973L199.9 0.76001L200.62 1.40002L201.34 1.14001L202.06 1.22998L202.79 0.929993L203.51 1L204.23 0.76001L204.95 0.619995L205.67 1.32001L206.4 0.590027L207.12 1.09003L207.84 1.31L208.57 1.21997L209.29 1.34998L210.01 0.73999L210.73 1.13L211.45 1.07001L212.18 1.15997L212.9 0.849976L213.62 1.15002L214.34 1.26001L215.06 1.5L215.78 0.929993L216.51 0.719971L217.23 0.710022L217.95 1.45001L218.67 0.76001L219.4 0.640015L220.12 0.859985L220.84 0.76001L221.57 1.40997L222.29 0.869995L223.01 1.21002L223.73 0.929993L224.45 1.48999L225.17 0.890015L225.89 0.909973L226.61 1.21997L227.33 0.799988L228.05 1.03998L228.77 0.559998L229.5 0.700012L230.22 1.28003L230.94 0.809998L231.67 0.849976L232.39 1.13L233.11 0.679993L233.83 0.700012L234.55 0.969971L235.27 0.799988L235.99 0.580017L236.71 1.44L237.43 0.599976L238.15 1.15002L238.87 1.42999L239.59 1.13L240.31 1.40002L241.04 1.33002L241.76 1.08002L242.49 1.27002L243.21 0.700012L243.94 1.44L244.66 1.45001L245.38 1.13L246.1 1.46002L246.83 0.590027L247.55 1.04999L248.27 1.39001L249 0.98999L249.73 0.690002L250.45 0.679993L251.17 0.630005L251.9 0.73999L252.62 0.940002L253.35 1.17999L254.07 1.5L254.8 0.539978L255.53 0.97998L256.25 0.599976L256.98 1.15002L257.7 1.46002L258.42 0.679993L259.14 0.630005L259.86 0.830017L260.59 1.01001L261.32 0.539978H262.04L262.77 1.14001L263.5 0.51001L264.22 0.669983L264.95 0.609985L265.68 0.919983L266.41 1.44L267.14 1.32001L267.86 1.34998L268.59 1.20001L269.33 0.849976L270.06 0.919983L270.63 1.16998L270.55 1.71997L270.53 2.42999L271.23 3.15002L271.27 3.85999L270.66 4.57001L270.45 5.28998L270.77 6L271.01 6.71997L271.02 7.42999L270.94 8.14001L270.69 8.85999L271.18 9.57001L270.83 10.29L270.87 11L270.33 11.72L270.45 12.43V13.15L270.43 13.86L271.12 14.58L270.74 15.29L271.04 16.01L270.73 16.72L271.01 17.43L270.98 18.14L270.82 18.85L270.84 19.57L270.81 20.28L270.4 20.99L270.49 21.7L270.99 22.42L271.12 23.14L270.46 23.85L270.82 24.57L270.42 25.28L271.08 26L270.98 26.71L271.02 27.42L270.83 28.14L270.92 28.85L270.83 29.56L270.78 30.27L270.79 30.98L270.36 31.7L270.65 32.41L270.68 33.12L270.97 33.84L270.79 34.56L270.88 35.27L270.82 35.99L270.67 36.71L270.49 37.42L270.66 38.14L270.37 38.85L270.58 39.57L270.57 40.28L270.83 41L271 41.72L271.06 42.43L271.09 43.15L270.63 43.87V44.59L270.93 45.3L270.97 46.02L270.35 46.74L270.73 47.45L271.2 48.17L271.05 48.89L270.44 49.61L270.53 50.33L270.54 51.04L271.14 51.75L270.37 52.47L271.23 53.19L271.05 53.91L271.18 54.62L270.82 55.34L270.76 56.06L271.04 56.78L270.42 57.5V58.22L271.1 58.94L270.46 59.66L270.92 60.38L270.54 61.1L270.72 61.82L270.63 62.55L271.05 63.31L270.6 63.81Z" fill="#EC7FBC"/>
<path d="M112.76 31.33V33C112.76 33.63 112.41 33.91 111.72 33.91H95.04C94.38 33.91 94.03 33.56 94.03 32.87V31.33C94.03 30.67 94.38 30.32 95.07 30.32H99.73V27.11C99.73 26.39 100.11 26.04 100.9 26.04H102.69C103.45 26.04 103.79 26.39 103.79 27.05V30.32H111.72C112.41 30.33 112.76 30.67 112.76 31.33ZM112.73 20.54C112.73 23.85 112.26 26.49 111.28 28.44C111 29.01 110.49 29.32 109.74 29.32H107.98C107.6 29.32 107.35 29.19 107.19 29C107.03 28.78 107.06 28.46 107.28 27.99C108 26.45 108.45 25.03 108.54 23.74C108.6 23.33 108.41 23.11 108 23.11H94.9C94.33 23.11 94.05 22.83 94.05 22.23V20.34C94.05 19.74 94.33 19.46 94.9 19.46H111.9C112.44 19.46 112.73 19.81 112.73 20.54ZM107.94 35.24C109.14 35.46 110.08 35.78 110.81 36.22C111.53 36.66 112.04 37.2 112.32 37.83C112.57 38.46 112.73 39.21 112.73 40.07C112.73 40.92 112.6 41.68 112.32 42.34C112.04 42.97 111.56 43.51 110.84 43.95C110.15 44.36 109.2 44.67 107.98 44.89C106.78 45.11 105.24 45.21 103.35 45.21C101.62 45.21 100.17 45.12 99.01 44.89C97.81 44.67 96.87 44.35 96.14 43.95C95.39 43.51 94.88 42.97 94.54 42.34C94.22 41.68 94.07 40.92 94.07 40.07C94.07 39.22 94.2 38.46 94.48 37.83C94.76 37.2 95.27 36.66 95.96 36.22C96.68 35.78 97.63 35.46 98.82 35.24C99.99 35.02 101.53 34.92 103.35 34.92C105.2 34.92 106.72 35.02 107.94 35.24ZM107.53 41.59C108.35 41.24 108.76 40.74 108.76 40.05C108.76 39.73 108.67 39.42 108.48 39.17C108.32 38.92 108.04 38.7 107.6 38.54C107.19 38.38 106.66 38.26 105.93 38.19C105.24 38.1 104.39 38.03 103.35 38.03C102.28 38.03 101.43 38.09 100.74 38.19C100.05 38.25 99.51 38.38 99.1 38.54C98.69 38.7 98.41 38.92 98.25 39.17C98.09 39.42 98.03 39.74 98.03 40.05C98.03 40.4 98.12 40.71 98.28 40.96C98.47 41.21 98.78 41.43 99.19 41.59C99.6 41.75 100.17 41.87 100.83 41.94C101.52 42.03 102.34 42.07 103.35 42.07C105.3 42.07 106.72 41.91 107.53 41.59Z" fill="white"/>
<path d="M129.6 44.9H127.14C126.67 44.9 126.42 44.62 126.42 43.99V40.28H124.34V43.99C124.34 44.62 124.09 44.9 123.58 44.9H121.12C120.65 44.9 120.43 44.62 120.43 43.99V40.28H116.87C116.08 40.28 115.67 39.93 115.67 39.21V37.42C115.67 36.73 116.08 36.35 116.83 36.35H133.95C134.7 36.35 135.11 36.73 135.11 37.52V39.13C135.11 39.92 134.7 40.29 133.91 40.29H130.32V44C130.35 44.62 130.1 44.9 129.6 44.9ZM134.66 30.77C134.38 31.78 133.9 32.6 133.18 33.26C132.46 33.92 131.45 34.43 130.19 34.77C128.93 35.09 127.32 35.24 125.37 35.24C123.45 35.24 121.84 35.08 120.58 34.77C119.35 34.42 118.34 33.92 117.62 33.26C116.9 32.6 116.39 31.78 116.14 30.77C115.86 29.76 115.7 28.6 115.7 27.24C115.7 25.88 115.86 24.72 116.2 23.71C116.51 22.7 117.05 21.88 117.8 21.19C118.59 20.53 119.59 20.02 120.85 19.71C122.11 19.36 123.65 19.21 125.54 19.21C127.3 19.21 128.78 19.37 130.01 19.71C131.24 20.02 132.21 20.53 132.97 21.19C133.69 21.88 134.23 22.7 134.58 23.71C134.93 24.72 135.08 25.88 135.08 27.24C135.08 28.6 134.95 29.76 134.66 30.77ZM127.99 31.33C128.68 31.17 129.28 30.92 129.72 30.57C130.16 30.22 130.48 29.81 130.66 29.28C130.85 28.78 130.97 28.15 130.97 27.45C130.97 26.69 130.88 26.03 130.69 25.47C130.5 24.9 130.22 24.43 129.81 24.05C129.37 23.67 128.83 23.39 128.14 23.2C127.45 23.01 126.57 22.92 125.56 22.92C124.49 22.92 123.58 23.01 122.85 23.2C122.13 23.39 121.53 23.67 121.09 24.05C120.62 24.43 120.3 24.9 120.11 25.47C119.92 26.04 119.83 26.7 119.83 27.45C119.83 28.14 119.92 28.77 120.11 29.28C120.3 29.82 120.58 30.22 121.02 30.57C121.43 30.92 122 31.17 122.72 31.33C123.41 31.52 124.29 31.61 125.33 31.61C126.38 31.62 127.27 31.52 127.99 31.33Z" fill="white"/>
<path d="M141.08 44.37C140.29 43.99 139.66 43.43 139.22 42.7C138.75 41.95 138.43 41 138.24 39.9C138.05 38.77 137.96 37.48 137.96 36C137.96 34.68 137.99 33.54 138.02 32.57C138.08 31.63 138.18 30.78 138.27 30.08C138.4 29.36 138.52 28.79 138.71 28.32C138.87 27.85 139.09 27.5 139.34 27.19H138.65C138.11 27.19 137.83 26.94 137.83 26.4V24.2C137.83 23.66 138.08 23.41 138.55 23.41H149.66C149.94 23.41 150.16 23.44 150.32 23.5C150.45 23.59 150.51 23.75 150.51 23.97V26.24C150.51 26.52 150.45 26.74 150.32 26.93C150.19 27.12 150.01 27.18 149.75 27.18H148.93C149.15 27.49 149.31 27.84 149.47 28.31C149.63 28.78 149.75 29.35 149.82 30.04C149.91 30.73 149.98 31.58 150.01 32.53C150.07 33.51 150.07 34.61 150.07 35.9C150.07 37.38 150.01 38.7 149.85 39.83C149.69 40.96 149.38 41.91 148.94 42.63C148.5 43.38 147.87 43.95 147.08 44.33C146.29 44.71 145.25 44.9 144 44.9C142.84 44.9 141.87 44.71 141.08 44.37ZM139.69 21.73V20.19C139.69 19.69 139.97 19.43 140.54 19.43H147.43C148 19.43 148.25 19.68 148.25 20.19V21.73C148.25 22.3 148 22.58 147.43 22.58H140.5C139.98 22.58 139.69 22.3 139.69 21.73ZM142.28 29.41C141.97 30.92 141.78 33.09 141.78 35.99C141.78 37.85 141.97 39.23 142.32 40.15C142.67 41.06 143.3 41.54 144.18 41.54C145 41.54 145.57 41.07 145.88 40.15C146.19 39.23 146.35 37.85 146.35 35.99C146.35 33.13 146.16 30.92 145.85 29.44C145.53 27.93 144.94 27.17 144.09 27.17C143.22 27.18 142.62 27.93 142.28 29.41ZM158.11 27.4V29.35C158.11 30.07 157.76 30.42 157.07 30.42H155.84V43.92C155.84 44.58 155.46 44.9 154.77 44.9H152.79C152.1 44.9 151.75 44.58 151.75 43.92V20.34C151.75 19.74 152.06 19.46 152.73 19.46H154.81C155.5 19.46 155.85 19.78 155.85 20.37V26.45H157.05C157.73 26.45 158.11 26.77 158.11 27.4Z" fill="white"/>
<path d="M166.76 23.65H159.96C159.36 23.65 159.05 23.3 159.05 22.61V21.07C159.05 20.35 159.4 19.97 160.03 19.97H170.54C171.3 19.97 171.67 20.44 171.67 21.32C171.73 31.71 169.06 39.17 163.71 43.76C163.27 44.17 162.61 44.39 161.66 44.39H160.21C159.67 44.39 159.33 44.23 159.23 43.89C159.1 43.58 159.29 43.17 159.83 42.72C164.96 38.16 167.48 31.99 167.35 24.21C167.36 23.84 167.17 23.65 166.76 23.65ZM176.55 44.9H174.6C173.88 44.9 173.53 44.55 173.53 43.83V20.35C173.53 19.75 173.85 19.47 174.47 19.47H176.58C177.24 19.47 177.56 19.79 177.56 20.38V43.77C177.56 44.52 177.24 44.9 176.55 44.9Z" fill="white"/>
</svg>
