<svg width="106" height="140" viewBox="0 0 106 140" fill="none" xmlns="http://www.w3.org/2000/svg">
<g clip-path="url(#clip0_188_554)">
<mask id="mask0_188_554" style="mask-type:luminance" maskUnits="userSpaceOnUse" x="0" y="0" width="106" height="140">
<path d="M106 0H0V140H106V0Z" fill="white"/>
</mask>
<g mask="url(#mask0_188_554)">
<path opacity="0.5" d="M57.1701 137.86C74.186 137.86 87.9801 133.732 87.9801 128.64C87.9801 123.548 74.186 119.42 57.1701 119.42C40.1542 119.42 26.3601 123.548 26.3601 128.64C26.3601 133.732 40.1542 137.86 57.1701 137.86Z" fill="#7A736E"/>
<path d="M4.94001 47.5201L6.67001 46.5801C7.08001 46.3601 7.60001 46.5701 7.73001 47.0201L22.69 96.8001C22.78 97.0901 22.69 97.4001 22.45 97.5901C22.05 97.9101 21.45 97.7401 21.29 97.2501L4.60001 48.4001C4.48001 48.0601 4.63001 47.6901 4.95001 47.5101L4.94001 47.5201Z" fill="#775530" stroke="#231815" stroke-linecap="round" stroke-linejoin="round"/>
<path d="M57.1199 110.78C54.3799 110.78 50.1399 134.63 35.8499 127.73C21.5599 120.83 42.5799 78.1199 38.1799 83.1899C33.7799 88.2599 24.2999 94.6599 18.8999 94.1599C16.1199 93.8999 10.5099 89.9199 18.8999 74.8799C28.5099 57.6499 43.4999 52.4399 43.4999 52.4399H70.7499C70.7499 52.4399 85.7299 57.6499 95.3499 74.8799C103.74 89.9199 98.1299 93.8999 95.3499 94.1599C89.9499 94.6599 80.4799 88.2599 76.0699 83.1899C71.6599 78.1199 92.6899 120.83 78.3999 127.73C64.1099 134.63 59.8699 110.78 57.1299 110.78" fill="#F4F4F4"/>
<path d="M57.1199 110.78C54.3799 110.78 50.1399 134.63 35.8499 127.73C21.5599 120.83 42.5799 78.1199 38.1799 83.1899C33.7799 88.2599 24.2999 94.6599 18.8999 94.1599C16.1199 93.8999 10.5099 89.9199 18.8999 74.8799C28.5099 57.6499 43.4999 52.4399 43.4999 52.4399H70.7499C70.7499 52.4399 85.7299 57.6499 95.3499 74.8799C103.74 89.9199 98.1299 93.8999 95.3499 94.1599C89.9499 94.6599 80.4799 88.2599 76.0699 83.1899C71.6599 78.1199 92.6899 120.83 78.3999 127.73C64.1099 134.63 59.8699 110.78 57.1299 110.78" stroke="#231815" stroke-linecap="round" stroke-linejoin="round"/>
<path d="M57.1199 59.7496C70.7503 59.7496 81.7999 48.7 81.7999 35.0696C81.7999 21.4393 70.7503 10.3896 57.1199 10.3896C43.4896 10.3896 32.4399 21.4393 32.4399 35.0696C32.4399 48.7 43.4896 59.7496 57.1199 59.7496Z" fill="#F4F4F4" stroke="#231815" stroke-linecap="round" stroke-linejoin="round"/>
<path d="M15.88 77.95L13.58 84.51C13.46 84.84 13.55 85.21 13.8 85.46C18.04 87.75 20.97 90.74 22.79 94.35C23.06 94.62 23.47 94.69 23.82 94.53L29.19 92.01C29.75 91.75 29.89 91.01 29.47 90.56C26.75 85.02 22.82 80.63 17.4 77.63C16.93 77.13 16.1 77.3 15.87 77.95H15.88Z" fill="#B8D9F2" stroke="#231815" stroke-linecap="round" stroke-linejoin="round"/>
<path d="M82.91 88.1996C84.08 82.8096 88.74 78.9696 95.53 76.0596C96.13 75.4896 97.09 75.5796 97.57 76.2596L101.2 81.4196C101.6 81.9896 101.5 82.7596 100.98 83.2196C96.38 86.3496 92.34 89.7896 88.97 93.5996C88.48 94.0196 87.75 94.0396 87.25 93.6296L83.01 90.2396C82.37 89.7296 82.33 88.7796 82.92 88.2096L82.91 88.1996Z" fill="#B8D9F2" stroke="#231815" stroke-linecap="round" stroke-linejoin="round"/>
<path d="M78.39 127.73C64.1 134.63 59.86 110.78 57.12 110.78C54.38 110.78 50.14 134.63 35.85 127.73C27.48 123.69 31.22 107.38 34.87 95.57C40.65 94.77 65.72 91.69 79.63 96.43C83.19 108.16 86.55 123.79 78.39 127.73Z" fill="#353535" stroke="#231815" stroke-linecap="round" stroke-linejoin="round"/>
<path d="M65.01 99.9499L72.72 99.1099C72.72 99.1099 74.1 106.24 69.5 106.96C65.02 107.66 65.02 99.9499 65.02 99.9499H65.01Z" fill="#353535" stroke="#231815" stroke-linecap="round" stroke-linejoin="round"/>
<path d="M40.6601 99.3596L49.1001 99.9896C49.1001 99.9896 49.1601 107.92 44.0801 107.77C39.1301 107.63 40.6601 99.3496 40.6601 99.3496V99.3596Z" fill="#353535" stroke="#231815" stroke-linecap="round" stroke-linejoin="round"/>
<path d="M95.8099 75.7996C95.6899 75.8596 95.5799 75.9396 95.4799 76.0296C88.6999 78.9396 84.0299 82.7796 82.8599 88.1696C82.6499 88.3696 82.5299 88.6196 82.4699 88.8796C79.9399 87.0696 77.6299 85.0296 76.0099 83.1696C74.1199 80.9896 76.9099 87.5996 79.5799 96.3996C65.6599 91.6596 40.5999 94.7396 34.8199 95.5396C37.4099 87.1696 39.9499 81.0596 38.1299 83.1596C36.0299 85.5696 32.7899 88.2896 29.3799 90.4096C26.6599 84.9296 22.7599 80.5796 17.4099 77.6196C17.8399 76.7396 18.3199 75.8196 18.8599 74.8496C28.4699 57.6296 41.5899 53.1196 41.5899 53.1196C52.2099 57.5296 62.4799 57.5396 72.4299 53.2296C72.4299 53.2296 85.6899 57.6296 95.2999 74.8596C95.4799 75.1796 95.6499 75.4896 95.8099 75.7996Z" fill="#B8D9F2"/>
<path d="M95.8099 75.7996C95.6899 75.8596 95.5799 75.9396 95.4799 76.0296C88.6999 78.9396 84.0299 82.7796 82.8599 88.1696C82.6499 88.3696 82.5299 88.6196 82.4699 88.8796C79.9399 87.0696 77.6299 85.0296 76.0099 83.1696C74.1199 80.9896 76.9099 87.5996 79.5799 96.3996C65.6599 91.6596 40.5999 94.7396 34.8199 95.5396C37.4099 87.1696 39.9499 81.0596 38.1299 83.1596C36.0299 85.5696 32.7899 88.2896 29.3799 90.4096C26.6599 84.9296 22.7599 80.5796 17.4099 77.6196C17.8399 76.7396 18.3199 75.8196 18.8599 74.8496C28.4699 57.6296 41.5899 53.1196 41.5899 53.1196C52.2099 57.5296 62.4799 57.5396 72.4299 53.2296C72.4299 53.2296 85.6899 57.6296 95.2999 74.8596C95.4799 75.1796 95.6499 75.4896 95.8099 75.7996Z" stroke="#231815" stroke-linecap="round" stroke-linejoin="round"/>
<path d="M83.8899 24.4699C84.0899 22.6499 83.9199 20.4299 82.9299 17.8299C78.1999 5.42985 65.6799 0.929854 52.0299 2.40985C46.9299 2.96985 38.8599 8.72985 39.0799 11.3399C37.4999 10.6699 33.6499 10.5099 30.2899 16.2199C28.9099 18.5699 28.9499 21.1599 29.5299 23.4699C30.1899 26.3199 35.2999 47.4899 43.0299 50.6199C51.7499 48.9299 62.0699 48.8699 71.6599 50.6199C71.6599 50.6199 79.1099 43.1899 83.2199 27.1799C83.5099 26.4199 83.7399 25.5299 83.8599 24.5199C83.8599 24.4999 83.8699 24.4799 83.8699 24.4599L83.8899 24.4699Z" fill="#231815" stroke="#231815" stroke-miterlimit="10"/>
</g>
</g>
<defs>
<clipPath id="clip0_188_554">
<rect width="106" height="140" fill="white"/>
</clipPath>
</defs>
</svg>
