<svg width="106" height="140" viewBox="0 0 106 140" fill="none" xmlns="http://www.w3.org/2000/svg">
<g clip-path="url(#clip0_188_574)">
<mask id="mask0_188_574" style="mask-type:luminance" maskUnits="userSpaceOnUse" x="0" y="0" width="106" height="140">
<path d="M106 0H0V140H106V0Z" fill="white"/>
</mask>
<g mask="url(#mask0_188_574)">
<path opacity="0.5" d="M48.8801 137.86C65.896 137.86 79.6901 133.732 79.6901 128.64C79.6901 123.548 65.896 119.42 48.8801 119.42C31.8642 119.42 18.0701 123.548 18.0701 128.64C18.0701 133.732 31.8642 137.86 48.8801 137.86Z" fill="#7A736E"/>
<path d="M48.8802 110.55C51.6202 110.55 55.8602 134.4 70.1502 127.5C84.4402 120.6 63.4202 77.89 67.8202 82.96C72.2202 88.03 81.7002 94.43 87.1002 93.93C89.8802 93.67 95.4902 89.69 87.1002 74.65C77.4902 57.42 62.5002 52.21 62.5002 52.21H35.2502C35.2502 52.21 20.2702 57.42 10.6502 74.65C2.26016 89.69 7.87016 93.67 10.6502 93.93C16.0502 94.43 25.5202 88.03 29.9302 82.96C34.3302 77.89 13.3102 120.6 27.6002 127.5C41.8902 134.4 46.1302 110.55 48.8702 110.55" fill="#F4F4F4"/>
<path d="M48.8802 110.55C51.6202 110.55 55.8602 134.4 70.1502 127.5C84.4402 120.6 63.4202 77.89 67.8202 82.96C72.2202 88.03 81.7002 94.43 87.1002 93.93C89.8802 93.67 95.4902 89.69 87.1002 74.65C77.4902 57.42 62.5002 52.21 62.5002 52.21H35.2502C35.2502 52.21 20.2702 57.42 10.6502 74.65C2.26016 89.69 7.87016 93.67 10.6502 93.93C16.0502 94.43 25.5202 88.03 29.9302 82.96C34.3302 77.89 13.3102 120.6 27.6002 127.5C41.8902 134.4 46.1302 110.55 48.8702 110.55" stroke="#231815" stroke-linecap="round" stroke-linejoin="round"/>
<path d="M90.1201 77.95L92.4201 84.51C92.5401 84.84 92.4501 85.21 92.2001 85.46C87.9601 87.75 85.0301 90.74 83.2101 94.35C82.9401 94.62 82.5301 94.69 82.1801 94.53L76.8101 92.01C76.2501 91.75 76.1101 91.01 76.5301 90.56C79.2501 85.02 83.1801 80.63 88.6001 77.63C89.0701 77.13 89.9001 77.3 90.1301 77.95H90.1201Z" fill="#B8D9F2" stroke="#231815" stroke-linecap="round" stroke-linejoin="round"/>
<path d="M23.0901 88.1996C21.9201 82.8096 17.2601 78.9696 10.4701 76.0596C9.87007 75.4896 8.91007 75.5796 8.43007 76.2596L4.80007 81.4196C4.40007 81.9896 4.50007 82.7596 5.02007 83.2196C9.62007 86.3496 13.6601 89.7896 17.0301 93.5996C17.5201 94.0196 18.2501 94.0396 18.7501 93.6296L22.9901 90.2396C23.6301 89.7296 23.6701 88.7796 23.0801 88.2096L23.0901 88.1996Z" fill="#B8D9F2" stroke="#231815" stroke-linecap="round" stroke-linejoin="round"/>
<path d="M27.61 127.73C41.9 134.63 46.14 110.78 48.88 110.78C51.62 110.78 55.86 134.63 70.15 127.73C78.52 123.69 74.78 107.38 71.13 95.57C65.35 94.77 40.28 91.69 26.37 96.43C22.81 108.16 19.45 123.79 27.61 127.73Z" fill="#353535" stroke="#231815" stroke-linecap="round" stroke-linejoin="round"/>
<path d="M10.1902 75.7996C10.3102 75.8596 10.4202 75.9396 10.5202 76.0296C17.3002 78.9396 21.9702 82.7796 23.1402 88.1696C23.3502 88.3696 23.4702 88.6196 23.5302 88.8796C26.0602 87.0696 28.3702 85.0296 29.9902 83.1696C31.8802 80.9896 29.0902 87.5996 26.4202 96.3996C40.3402 91.6596 65.4002 94.7396 71.1802 95.5396C68.5902 87.1696 66.0502 81.0596 67.8702 83.1596C69.9702 85.5696 73.2202 88.2896 76.6202 90.4096C79.3402 84.9296 83.2402 80.5796 88.5902 77.6196C88.1602 76.7396 87.6802 75.8196 87.1402 74.8496C77.5302 57.6296 64.4102 53.1196 64.4102 53.1196C53.7902 57.5296 43.5202 57.5396 33.5702 53.2296C33.5702 53.2296 20.3102 57.6296 10.7002 74.8596C10.5202 75.1796 10.3502 75.4896 10.1902 75.7996Z" fill="#B8D9F2"/>
<path d="M10.1902 75.7996C10.3102 75.8596 10.4202 75.9396 10.5202 76.0296C17.3002 78.9396 21.9702 82.7796 23.1402 88.1696C23.3502 88.3696 23.4702 88.6196 23.5302 88.8796C26.0602 87.0696 28.3702 85.0296 29.9902 83.1696C31.8802 80.9896 29.0902 87.5996 26.4202 96.3996C40.3402 91.6596 65.4002 94.7396 71.1802 95.5396C68.5902 87.1696 66.0502 81.0596 67.8702 83.1596C69.9702 85.5696 73.2202 88.2896 76.6202 90.4096C79.3402 84.9296 83.2402 80.5796 88.5902 77.6196C88.1602 76.7396 87.6802 75.8196 87.1402 74.8496C77.5302 57.6296 64.4102 53.1196 64.4102 53.1196C53.7902 57.5296 43.5202 57.5396 33.5702 53.2296C33.5702 53.2296 20.3102 57.6296 10.7002 74.8596C10.5202 75.1796 10.3502 75.4896 10.1902 75.7996Z" stroke="#231815" stroke-linecap="round" stroke-linejoin="round"/>
<path d="M48.8801 59.75V93.86" stroke="#231815" stroke-linecap="round" stroke-linejoin="round"/>
<path d="M47.7601 67.0999L45.5601 82.9199L48.4801 88.0899L52.2001 82.8199L50.0401 66.1699H48.2701" fill="#364DD6"/>
<path d="M47.7601 67.0999L45.5601 82.9199L48.4801 88.0899L52.2001 82.8199L50.0401 66.1699H48.2701" stroke="#231815" stroke-linecap="round" stroke-linejoin="round"/>
<path d="M44.6501 65.2398C44.6501 65.2398 47.2601 69.0598 49.0201 69.0598C50.7801 69.0598 53.4101 64.0998 53.4101 64.0998L49.0201 61.0898L46.3401 61.6198L44.6501 65.2398Z" fill="#364DD6" stroke="#231815" stroke-linecap="round" stroke-linejoin="round"/>
<path d="M31.1201 54.2998C31.1201 54.2998 38.7001 66.6498 44.6501 67.8798L48.8801 62.0698L51.7401 67.8798C51.7401 67.8798 57.7501 66.3698 66.9201 54.2998" fill="#B8D9F2"/>
<path d="M31.1201 54.2998C31.1201 54.2998 38.7001 66.6498 44.6501 67.8798L48.8801 62.0698L51.7401 67.8798C51.7401 67.8798 57.7501 66.3698 66.9201 54.2998" stroke="#231815" stroke-linecap="round" stroke-linejoin="round"/>
<path d="M48.8801 62.0698V58.3198" stroke="#231815" stroke-linecap="round" stroke-linejoin="round"/>
<path d="M48.88 59.7496C62.5103 59.7496 73.5599 48.7 73.5599 35.0696C73.5599 21.4393 62.5103 10.3896 48.88 10.3896C35.2496 10.3896 24.2 21.4393 24.2 35.0696C24.2 48.7 35.2496 59.7496 48.88 59.7496Z" fill="#F4F4F4" stroke="#231815" stroke-linecap="round" stroke-linejoin="round"/>
<path d="M101.06 47.5196L99.3301 46.5796C98.9201 46.3596 98.4001 46.5696 98.2701 47.0196L83.3101 96.7996C83.2201 97.0896 83.3101 97.3996 83.5501 97.5896C83.9501 97.9096 84.5501 97.7396 84.7101 97.2496L101.4 48.4096C101.52 48.0696 101.37 47.6996 101.05 47.5196H101.06Z" fill="#775530" stroke="#231815" stroke-linecap="round" stroke-linejoin="round"/>
<path d="M32.83 97.48C32.83 97.48 33.45 100.96 27.24 104.35" stroke="#231815" stroke-linecap="round" stroke-linejoin="round"/>
<path d="M65.7901 97.0796C65.7901 97.0796 65.3701 102.38 71.2101 103.63L65.7901 97.0796Z" fill="#353535"/>
<path d="M65.7901 97.0796C65.7901 97.0796 65.3701 102.38 71.2101 103.63" stroke="#231815" stroke-linecap="round" stroke-linejoin="round"/>
<path d="M29.8201 30.3296H44.8701C44.8701 30.3296 45.8501 42.0396 38.4101 42.0496C32.7801 42.0496 29.9001 40.7596 29.8201 30.3296Z" stroke="#231815" stroke-linecap="round" stroke-linejoin="round"/>
<path d="M53.16 30.3096H67.9C67.9 30.3096 68.95 41.7396 60.53 42.0796C52.11 42.4096 53.16 30.3096 53.16 30.3096Z" stroke="#231815" stroke-linecap="round" stroke-linejoin="round"/>
<path d="M44.6501 35.0098H53.4101" stroke="#231815" stroke-linecap="round" stroke-linejoin="round"/>
<path d="M29.82 33.7197L24.48 32.7197" stroke="#231815" stroke-linecap="round" stroke-linejoin="round"/>
<path d="M67.95 33.7197L73.56 32.1597" stroke="#231815" stroke-linecap="round" stroke-linejoin="round"/>
<path d="M46.3501 49.3396C46.3501 49.3396 50.7101 48.6996 52.5901 49.3396" stroke="#231815" stroke-linecap="round" stroke-linejoin="round"/>
<path d="M43.68 42.0796C43.68 42.0796 39.46 45.9396 38.72 47.7696L43.68 42.0796Z" fill="#F4F4F4"/>
<path d="M43.68 42.0796C43.68 42.0796 39.46 45.9396 38.72 47.7696" stroke="#231815" stroke-linecap="round" stroke-linejoin="round"/>
<path d="M53.97 42.0796C53.97 42.0796 58.29 45.3896 59.2 47.7696L53.97 42.0796Z" fill="#F4F4F4"/>
<path d="M53.97 42.0796C53.97 42.0796 58.29 45.3896 59.2 47.7696" stroke="#231815" stroke-linecap="round" stroke-linejoin="round"/>
<path d="M24.6601 30.3098C24.6601 30.3098 40.6101 10.0998 64.4601 15.9198C64.4601 15.9198 66.7001 13.9598 66.9201 11.3398C67.1401 8.71976 59.0701 2.95976 53.9701 2.40976C40.3201 0.919757 27.8101 5.42976 23.0901 17.8198C20.0301 25.8498 24.6601 30.2998 24.6601 30.2998V30.3098Z" fill="#231815" stroke="#231815" stroke-miterlimit="10"/>
<path d="M64.4601 15.9198C64.4601 15.9198 64.3101 12.4498 66.9201 11.3398C68.5001 10.6698 72.3501 10.5098 75.7101 16.2198C79.3501 22.4198 73.1101 30.3098 73.1101 30.3098C73.1101 30.3098 72.1301 20.9998 64.4601 15.9198Z" fill="#231815" stroke="#231815" stroke-miterlimit="10"/>
</g>
</g>
<defs>
<clipPath id="clip0_188_574">
<rect width="106" height="140" fill="white"/>
</clipPath>
</defs>
</svg>
