<svg width="272" height="65" viewBox="0 0 272 65" fill="none" xmlns="http://www.w3.org/2000/svg">
<path d="M270.69 64.08L270.28 64.74L269.56 64.13L268.85 64.46L268.13 64.35L267.41 64.17L266.69 64.73L265.98 64.67L265.26 64.18L264.54 64.54L263.82 63.97L263.1 64.24L262.38 64.42L261.67 64.48L260.95 64.39L260.23 64.62L259.51 64L258.79 64.37L258.07 63.9L257.35 64.65L256.63 64.4L255.91 64.16L255.2 64.86L254.48 64.85L253.76 64.26L253.04 63.98L252.32 64.5L251.6 64.55L250.88 63.92L250.16 64.71L249.44 64.84L248.72 64.06L248 64.82L247.28 64.87L246.56 64.06L245.84 64.76L245.12 64.71L244.4 64.06L243.68 63.91L242.96 64.31L242.24 64.44L241.53 64.24L240.81 64.75L240.09 64.72L239.37 64.38L238.65 64.11L237.93 63.99L237.21 64.73L236.5 64.33L235.78 63.97L235.06 64.47L234.34 64.11L233.62 64.75L232.9 64.22L232.19 64.51L231.47 64.23L230.75 64.36L230.03 64.83L229.31 64.3L228.6 64.7L227.88 64.86L227.16 64.04L226.44 64.18L225.73 64.36L225.01 64.83L224.29 64.72L223.57 64.62L222.85 64.3L222.14 64.57L221.42 64.31L220.7 64.38L219.98 64.37L219.26 63.91L218.55 64.14L217.83 64.74L217.11 64.8L216.39 64.81L215.67 64.83L214.95 64.16L214.24 64.3L213.52 64.69L212.8 64.65L212.08 64.32L211.36 64.38L210.64 64.42L209.92 64.55L209.21 63.93L208.49 64.22L207.77 64.83L207.05 64.61L206.33 64.26L205.61 64.82L204.89 64.68L204.17 64.83L203.45 64.69L202.73 64.67L202.01 63.92L201.29 63.89L200.57 64.32L199.85 63.93L199.13 64.37L198.41 64.76L197.69 63.94L196.97 64.08L196.25 64.34L195.53 64.84L194.81 64.32L194.09 64.14L193.37 64.56L192.65 64.62L191.93 64.2L191.21 64.48L190.49 64.86L189.77 64.29L189.06 63.93L188.34 64.2L187.62 63.94L186.9 64.51L186.18 64.13L185.46 64.21L184.74 64.76L184.02 64.71L183.3 64.22L182.59 63.93L181.87 64.81L181.15 64.05L180.43 64.36L179.71 64.78L178.99 64.72L178.27 64.53L177.56 64.63L176.84 64.25L176.12 64.71L175.4 64.26L174.69 64.82L173.97 63.94L173.25 64.14L172.54 64.51L171.82 64.77L171.1 64.18L170.39 64.65L169.67 64.46L168.95 64.78L168.23 64.73L167.51 64.28H166.8L166.08 64.71L165.36 64.07L164.64 63.97L163.92 64.46L163.2 64.52L162.48 64.82L161.76 64.88L161.04 64.05L160.31 63.92L159.59 63.89L158.88 64.84L158.16 64.72L157.44 64.57L156.72 64.79L156 64.48L155.28 64.31L154.56 64.89L153.84 64.69L153.13 64.34L152.41 64.71L151.69 64.62L150.97 64.72L150.26 64.36L149.54 64.81L148.82 64.32L148.1 64.15L147.39 64.25L146.67 64.4L145.95 64.01L145.24 64.77L144.52 64.06L143.81 64.58L143.09 63.95L142.37 64.3L141.66 64.37L140.94 64.84L140.23 63.93L139.51 63.97L138.79 64.57L138.08 64.07L137.36 64.02L136.65 64.3L135.93 64.52L135.21 64.88L134.5 64.13L133.78 64.05L133.07 64.15L132.35 64.44L131.63 64.35L130.92 64.41L130.2 64.18L129.48 64.05L128.77 64.37L128.05 64.49L127.33 64.72L126.62 63.98L125.9 64.05L125.18 64.04L124.46 64.68L123.75 64.49L123.03 64.38L122.31 64.61L121.59 63.94L120.87 64.66L120.15 64.85L119.43 63.95L118.71 64.11L117.99 64.07L117.27 64.57L116.55 64.88L115.83 64.87L115.11 64.75L114.39 64.07L113.67 64.55L112.95 64.76L112.22 64.61L111.5 64.24L110.78 64.22L110.06 64.28L109.34 64.65L108.62 64.17L107.9 64.39L107.18 64.3L106.46 64.23L105.74 64.5L105.02 64.59L104.3 64.57L103.58 64.75L102.86 63.98L102.15 64.64L101.43 64.44L100.71 64.82L99.99 64.81L99.27 64.54L98.55 64.33L97.83 64.51L97.11 64.55L96.4 64.88L95.68 64.35L94.96 64.63L94.24 64.09L93.52 64.02L92.8 64.48L92.08 64.61L91.36 64.55L90.64 64.83L89.92 64.63L89.2 64.01L88.48 64.5L87.76 64.23L87.04 64.13L86.32 64.21L85.59 64.43L84.87 64.37L84.15 63.92L83.43 64.24L82.7 64.85L81.98 64.65L81.26 63.96L80.54 64.39L79.82 64.04L79.1 64.52L78.38 64.15L77.66 64.51L76.93 64.61L76.21 64.12L75.49 64.3L74.77 64.67L74.05 64.05L73.33 64.72L72.61 64.39L71.89 64.03L71.17 64.52L70.45 64.16L69.73 64.76L69.01 64.67L68.29 64.83L67.56 64.09L66.84 64.33L66.12 64.23L65.4 63.94L64.67 64.29L63.95 64.59L63.23 63.92L62.51 64.09L61.78 64.87L61.06 64.43L60.34 64.1L59.62 64.67L58.9 64.57H58.17L57.45 64.71L56.73 64.05L56.01 64.03L55.29 64.62L54.57 64.73L53.84 64.49L53.12 64.22L52.4 64.57L51.67 64.2L50.95 64.28L50.23 63.91L49.5 64.69L48.78 64.81L48.06 64.32L47.34 64.35L46.62 64.71L45.9 64.53L45.19 64.18L44.46 64.07L43.74 64.25L43.02 64.43L42.3 63.99L41.57 63.9L40.85 64.2L40.13 64.11L39.41 64.04L38.68 64.22L37.96 64.37L37.24 64.88L36.52 64.6L35.8 64.55L35.08 64.73L34.36 64.06L33.64 64.73L32.92 64.29L32.2 64.8L31.48 64.65L30.76 64.58L30.03 63.96L29.31 64.52L28.58 64.71L27.86 64.08L27.13 64.63L26.41 64.87L25.69 64.54L24.97 64.33L24.24 63.92L23.52 64.01L22.8 64.27L22.07 64.79L21.34 64.28L20.62 63.91L19.9 64.81L19.17 64.46L18.45 64.81L17.72 64.18L16.99 64.65L16.27 64.06L15.54 64.49L14.82 64.42L14.1 64.64L13.38 64.69L12.65 64.05L11.93 64.44L11.2 64.3L10.48 64.73L9.75001 64.22L9.03001 64.8L8.30001 64.5L7.57001 64.43L6.84 64.75L6.11001 64.18L5.38 64.31L4.66001 64.18L3.93001 64.86L3.2 64.7L2.47001 64.8L1.73001 64.82L0.94001 64.45L1.41001 63.67L0.850006 62.96L0.630005 62.24L1.35001 61.53L1.39001 60.81L0.770004 60.1L0.800011 59.39L1.29001 58.67L1.00001 57.96L1.47001 57.24L0.540009 56.53L0.820007 55.82L0.950005 55.1L0.880005 54.39L0.970009 53.67L0.570007 52.96L1.04001 52.24L0.560005 51.53L0.800011 50.81L0.880005 50.1L0.51001 49.38L0.87001 48.67L1.44001 47.96L1.08001 47.25L1.15001 46.53L0.720009 45.82L1.15001 45.11L1.01001 44.4L1.28001 43.68L1.14001 42.97L0.950005 42.25L1.48001 41.54L0.790009 40.82L0.890007 40.11L1.32001 39.39L0.970009 38.68L1.03001 37.97L1.28001 37.25L1.36001 36.54L1.30001 35.83L1.05001 35.12L0.540009 34.4L1.39001 33.69L1.30001 32.98L0.94001 32.26L0.750008 31.55L0.740005 30.83L1.49001 30.12L0.630005 29.4L0.810005 28.68L0.62001 27.97L0.76001 27.25L0.920006 26.54L1.40001 25.82L0.880005 25.11L0.800011 24.39L1.33001 23.67L1.42001 22.96L0.590004 22.24L0.680008 21.52L1.21001 20.8L0.850006 20.09L1.11001 19.37L1.00001 18.65L0.900009 17.93L0.540009 17.22L0.750008 16.5L1.11001 15.78L1.40001 15.06L0.810005 14.35L0.560005 13.64L0.980011 12.92L1.18001 12.2L1.50001 11.48L1.37001 10.77L0.880005 10.05L0.800011 9.33002L1.2 8.60999L0.740005 7.89001L0.800011 7.16998L0.740005 6.45001L1.37001 5.72998L0.780006 5.01001L0.550011 4.28998L1.26001 3.56L1.17001 2.84003L0.540009 2.10999L0.670006 1.06L1.72001 1.15002L2.44001 1.84003L3.15001 1.46002L3.87001 1.59003L4.59 1.62L5.31001 1.41998L6.02 0.97998L6.74001 1.40002L7.46001 1.81L8.18001 0.960022L8.90001 1.52002L9.62001 1.51001L10.33 1.71997L11.05 1.42999L11.77 1.34003L12.49 1.83002L13.21 0.950012L13.93 1.73999L14.65 1.46002L15.37 1.76001L16.09 1.59003L16.8 1.39001L17.52 1.66998L18.24 1.28998L18.96 1.14001L19.68 1.64001L20.4 1.39001L21.12 1.62L21.84 1.16998L22.56 1.21997L23.28 1.65997L24 1.13L24.72 1.15997L25.44 0.950012L26.16 1.60999L26.88 1.85999L27.6 1.34003L28.32 1.34998L29.04 1.88L29.76 1.17999L30.47 1.81L31.19 1.62L31.91 1.10999L32.63 0.960022L33.35 0.919983L34.07 1L34.79 1.07001L35.5 1.88L36.22 1.09003L36.94 0.97998L37.66 1.56L38.38 1.15002L39.1 1.04999L39.81 1.31L40.53 1.67999L41.25 1.29999L41.97 1.78998L42.69 1.31L43.4 1.52002L44.12 1.35999L44.84 0.98999L45.56 1.40002L46.27 1.88L46.99 0.98999L47.71 1.45001L48.43 1.35999L49.15 1.15997L49.86 0.98999L50.58 1.20001L51.3 1.26001L52.02 0.919983L52.74 1.70001L53.45 1.67999L54.17 1.60999L54.89 1.31L55.61 1.65002L56.33 0.909973L57.05 1.51001L57.76 1.85999L58.48 1.08002L59.2 1.84003L59.92 1.53998L60.64 1.84003L61.36 1.66998L62.08 0.950012L62.79 1.08002L63.51 1.65002L64.23 1.08002L64.95 1.13L65.67 1.72998L66.39 1.46997L67.11 1.56L67.83 1.06L68.55 1.71002L69.27 1.63L69.99 1.39001L70.71 1.03998L71.43 1.75L72.15 0.940002L72.87 1.31L73.59 1.48999L74.31 1.38L75.03 1.40997L75.75 1.67999L76.47 1.15997L77.19 1.10999L77.91 1.58002H78.63L79.35 1.06L80.07 1.56L80.79 1.03998L81.51 1.65997L82.23 1.41998L82.94 1.85999L83.66 1.15997L84.38 1.75L85.1 1.47998L85.82 1.39001L86.54 1.67999L87.26 1.16998L87.98 1.58002L88.7 1.28003L89.41 1.26001L90.13 1.84998L90.85 1.16998L91.57 1.70001L92.29 1.53998L93.01 0.969971L93.73 1.29999L94.44 1.28003L95.16 1.87L95.88 1.38L96.6 1.34998L97.31 1.87L98.03 1.22998L98.75 1.52002L99.46 1.34003L100.18 1.76001L100.9 1.47998L101.61 1L102.33 1.60999L103.05 1.67999L103.77 1.53003L104.49 1.62L105.2 1.34998L105.92 1.82001L106.64 1.5L107.36 1.06L108.08 1.71997L108.8 0.919983L109.52 1.46997L110.24 1.85999L110.96 0.900024L111.69 1.87L112.41 1L113.12 1.06L113.84 0.969971L114.56 0.900024L115.28 1.81L116 1.03998L116.72 0.940002L117.44 1.57001L118.16 0.940002L118.87 0.960022L119.59 1.76001L120.31 0.890015L121.03 1.88L121.74 1.38L122.46 1.63L123.18 1.67999H123.9L124.61 1.34003L125.33 1.59998L126.05 1.40002L126.76 1.84998L127.48 1.64001L128.19 1.53003L128.91 1.78003L129.63 0.900024L130.34 1.46997L131.06 1.56L131.77 1.28003L132.49 1.32001L133.21 1.15997L133.92 1.17999L134.64 1.84003L135.35 0.909973L136.07 1.26001L136.79 0.950012L137.5 1.82001L138.22 1.26001L138.93 1.67999L139.65 1.03003L140.37 1.71997L141.08 1.28003L141.8 1.03998L142.52 1.52002L143.23 1.57001L143.95 1.44L144.67 1.09998L145.38 1.82001L146.1 1.46002L146.82 0.929993L147.54 1.28003L148.25 0.950012L148.97 1.20001L149.69 1.09998L150.41 1.14001L151.13 1.19L151.85 1.56L152.57 1.53003L153.29 1.09003L154.01 1.72998L154.73 1.09998L155.45 1.08002L156.17 1.78003L156.89 1.85999L157.61 1L158.33 1.27002L159.05 1.71997L159.78 1.42999L160.5 0.919983L161.22 1.29999L161.94 1.64001L162.66 0.969971L163.38 1.27002L164.1 1.07001L164.82 1.83002L165.54 1.32001L166.26 0.97998L166.98 1.59998L167.7 1.28003L168.42 1L169.14 1.15002L169.85 1.07001L170.57 1.69L171.29 1.40997L172.01 1.53003L172.73 0.98999L173.45 1.26001L174.17 0.909973L174.89 1.46002L175.6 1.62L176.32 1.21997L177.04 1.84003L177.76 0.929993L178.48 1.26001L179.2 1.15002L179.92 1.72998L180.64 1.65002L181.36 1.48999L182.08 0.940002L182.8 1.58002L183.52 1.65002L184.24 0.919983L184.96 1.42999L185.68 1.51001L186.41 1.26001L187.13 1.59998L187.85 1.76001L188.57 1.65002L189.3 1.19L190.02 1.62L190.74 1.20001L191.46 1.65002L192.18 1.26001L192.9 1.04999L193.62 1.70001L194.34 1.58002L195.07 1.83002L195.79 1.81L196.51 1.83002L197.23 1.59998L197.95 1.23999L198.67 1.51001L199.39 1.40997L200.11 1.29999L200.83 1.33002L201.55 0.900024L202.27 1.42999L202.99 0.919983L203.71 1.53998L204.44 1.04999L205.16 1.62L205.88 1.41998H206.6L207.33 1.71997L208.05 1.25L208.77 1.72998L209.49 1.20001L210.22 1.27002L210.94 1.46002L211.66 1.87L212.38 1.21002L213.1 1.37L213.83 1.88L214.55 1.56L215.27 1.78998L215.99 0.900024L216.71 1.60999L217.43 1.88L218.16 1.46997L218.88 1.45001L219.6 1.44L220.33 1.53003L221.05 1.13L221.77 1.64001L222.5 1.40002L223.22 1.39001L223.94 1.79999L224.66 1.69L225.38 1.51001L226.1 0.900024L226.81 1.89001L227.54 1.53003L228.26 1.71997L228.98 1.82001L229.7 1.59998L230.43 1.89001L231.15 1.03003L231.87 1.07001L232.59 1.03998L233.32 1.54999L234.04 1.79999L234.76 1.17999L235.48 1.04999L236.2 1.31L236.92 1.06L237.64 1.88L238.36 1.19L239.08 1.73999L239.8 0.97998L240.52 1.60999L241.24 1.83002L241.97 1.40002L242.69 1.37L243.42 1.28998L244.14 1.84003L244.87 1.53003L245.59 1.17999L246.31 1.23999L247.03 1.81L247.76 1.85999L248.48 0.960022L249.2 1.48999L249.93 1.39001L250.66 1.59998L251.38 1.35999L252.1 1.46997L252.83 1.53003L253.55 1.19L254.28 1.41998L255.01 1.31L255.73 1.21997L256.46 1.02002L257.18 1.87L257.9 1.62L258.62 1.65997L259.35 1.5L260.07 1.17999L260.8 1.09998L261.52 1.40002L262.25 1.79999L262.97 1.57001L263.7 1.88L264.43 1.23999L265.16 1.71997L265.89 1.63L266.62 1.84998L267.34 1.53003L268.07 1.79999L268.8 0.919983L269.53 1.79999L270.27 1.82001L271.07 1.31L271.28 2.09998L270.54 2.82001L271.17 3.53003L271.35 4.25L271.45 4.96002L271.46 5.67999L270.85 6.39001L271.37 7.09998L270.59 7.82001L270.81 8.53003L270.75 9.25L271.05 9.96002L271.43 10.67L271.33 11.39L271.4 12.1L270.82 12.82L270.96 13.53L271.35 14.25L270.58 14.97L271 15.68L271.04 16.4L270.71 17.11L271.41 17.82L271.29 18.53L271.44 19.24L270.89 19.95L270.55 20.67L271.22 21.38L271.34 22.09L270.52 22.81L271.15 23.52L271 24.24L271.41 24.96L270.9 25.67L271.39 26.38L270.69 27.1L271.35 27.81L270.81 28.52L271.49 29.24L271.06 29.95L271.16 30.66L271.06 31.37L270.71 32.09L271.12 32.8L270.8 33.51L271.15 34.23L271.48 34.94L270.61 35.66L270.71 36.38L271.49 37.1L271.1 37.81L271.46 38.53L270.87 39.24L270.58 39.96L271.06 40.67L270.6 41.39L270.63 42.1L270.53 42.82L270.51 43.54L270.95 44.26L271.2 44.97L271.28 45.69L270.93 46.41L271.17 47.12L271.06 47.84L271.14 48.56L270.57 49.28L270.84 50L270.93 50.71L270.73 51.43L270.53 52.14L270.71 52.86L270.86 53.57L271.02 54.29L271.21 55.01L270.72 55.73L270.88 56.45L270.66 57.17L271.07 57.89L271.44 58.61L270.84 59.33L271.22 60.05L271.23 60.77L271.48 61.49L270.88 62.21L271.47 62.94L270.87 63.63L270.69 64.08Z" fill="#EC7FBC"/>
<path d="M114.56 27.69V29.77C114.56 30.46 114.25 30.81 113.58 30.81H112.26V44.25C112.26 44.94 111.88 45.29 111.19 45.29H109.18C108.52 45.29 108.17 44.97 108.17 44.35V43.59C103.17 44.35 99.04 44.76 95.83 44.76C95.01 44.76 94.6 44.35 94.6 43.53V21.4C94.6 20.71 94.98 20.36 95.67 20.36H105.18C105.84 20.36 106.19 20.67 106.19 21.34V23C106.19 23.66 105.84 23.98 105.12 23.98H98.51V41.1C101.88 41.07 105.09 40.69 108.17 39.9V20.76C108.17 20.16 108.48 19.85 109.11 19.85H111.19C111.91 19.85 112.26 20.17 112.26 20.76V26.84H113.61C114.24 26.84 114.56 27.12 114.56 27.69Z" fill="white"/>
<path d="M122.2 22.88C126.67 22.25 128.9 26.78 128.9 36.45V44.07C128.9 44.7 128.52 45.02 127.83 45.02H125.94C125.22 45.02 124.87 44.7 124.87 44.07V36.26C124.87 29.52 123.8 26.6 121.66 27.45C121.06 32.99 120.78 38.5 120.81 44.04C120.81 44.7 120.43 45.02 119.74 45.02H117.79C117.1 45.02 116.72 44.67 116.72 43.98C116.66 35.1 117.22 27.61 118.42 21.44C118.61 20.75 119.02 20.37 119.65 20.37H121.51C122.3 20.37 122.61 20.75 122.45 21.44L122.2 22.88ZM133.72 45.29H131.83C131.14 45.29 130.76 44.91 130.76 44.22V20.89C130.82 20.2 131.17 19.85 131.86 19.85H133.81C134.47 19.85 134.82 20.2 134.82 20.86V44.19C134.83 44.91 134.45 45.29 133.72 45.29Z" fill="white"/>
<path d="M140.83 44.75C140.04 44.37 139.41 43.81 138.97 43.08C138.5 42.33 138.18 41.38 137.99 40.28C137.8 39.15 137.71 37.86 137.71 36.38C137.71 35.06 137.74 33.92 137.77 32.95C137.83 32.01 137.93 31.16 138.02 30.46C138.15 29.74 138.27 29.17 138.46 28.7C138.62 28.23 138.84 27.88 139.09 27.57H138.4C137.86 27.57 137.58 27.32 137.58 26.78V24.58C137.58 24.04 137.83 23.79 138.3 23.79H149.41C149.69 23.79 149.91 23.82 150.07 23.88C150.2 23.97 150.26 24.13 150.26 24.35V26.62C150.26 26.9 150.2 27.12 150.07 27.31C149.94 27.5 149.76 27.56 149.5 27.56H148.68C148.9 27.87 149.06 28.22 149.22 28.69C149.38 29.16 149.5 29.73 149.57 30.42C149.66 31.11 149.73 31.96 149.76 32.91C149.82 33.89 149.82 34.99 149.82 36.28C149.82 37.76 149.76 39.08 149.6 40.21C149.44 41.34 149.13 42.29 148.69 43.01C148.25 43.76 147.62 44.33 146.83 44.71C146.04 45.09 145 45.28 143.75 45.28C142.59 45.29 141.62 45.1 140.83 44.75ZM139.45 22.12V20.58C139.45 20.08 139.73 19.82 140.3 19.82H147.19C147.76 19.82 148.01 20.07 148.01 20.58V22.12C148.01 22.69 147.76 22.97 147.19 22.97H140.26C139.73 22.97 139.45 22.69 139.45 22.12ZM142.03 29.8C141.72 31.31 141.53 33.48 141.53 36.38C141.53 38.24 141.72 39.62 142.07 40.54C142.42 41.45 143.05 41.93 143.93 41.93C144.75 41.93 145.32 41.46 145.63 40.54C145.94 39.62 146.1 38.24 146.1 36.38C146.1 33.52 145.91 31.31 145.6 29.83C145.28 28.32 144.69 27.56 143.84 27.56C142.97 27.57 142.38 28.32 142.03 29.8ZM157.86 27.79V29.74C157.86 30.46 157.51 30.81 156.82 30.81H155.59V44.31C155.59 44.97 155.21 45.29 154.52 45.29H152.54C151.85 45.29 151.5 44.97 151.5 44.31V20.73C151.5 20.13 151.81 19.85 152.48 19.85H154.56C155.25 19.85 155.6 20.17 155.6 20.76V26.84H156.8C157.48 26.84 157.86 27.16 157.86 27.79Z" fill="white"/>
<path d="M166.51 24.04H159.71C159.11 24.04 158.8 23.69 158.8 23V21.46C158.8 20.74 159.15 20.36 159.78 20.36H170.29C171.05 20.36 171.42 20.83 171.42 21.71C171.48 32.1 168.81 39.56 163.46 44.15C163.02 44.56 162.36 44.78 161.41 44.78H159.96C159.42 44.78 159.08 44.62 158.98 44.28C158.85 43.97 159.04 43.56 159.58 43.11C164.71 38.55 167.23 32.38 167.1 24.6C167.11 24.23 166.92 24.04 166.51 24.04ZM176.3 45.29H174.35C173.63 45.29 173.28 44.94 173.28 44.22V20.74C173.28 20.14 173.6 19.86 174.22 19.86H176.33C176.99 19.86 177.31 20.18 177.31 20.77V44.16C177.31 44.91 177 45.29 176.3 45.29Z" fill="white"/>
</svg>
