<svg width="340" height="60" viewBox="0 0 340 60" fill="none" xmlns="http://www.w3.org/2000/svg">
<path d="M311.81 59.49H30.57C15.1 59.49 2.55 46.95 2.55 31.47C2.55 16 15.09 3.45001 30.57 3.45001H311.81C327.28 3.45001 339.83 15.99 339.83 31.47C339.83 46.94 327.29 59.49 311.81 59.49Z" fill="#D770A1"/>
<path d="M309.75 56.36H28.51C13.04 56.36 0.489998 43.82 0.489998 28.34C0.489998 12.87 13.03 0.320007 28.51 0.320007H309.75C325.22 0.320007 337.77 12.86 337.77 28.34C337.77 43.82 325.22 56.36 309.75 56.36Z" fill="#FCC8D6"/>
<path d="M129.8 46.21C128.2 46.21 126.82 46.21 126.71 44C126.4 37.19 126.4 24.78 126.71 17.97C126.81 15.88 128.01 15.45 129.8 15.45C130.79 15.45 131.79 15.53 132.37 16.15C132.75 16.55 132.92 17.12 132.88 17.9C132.57 24.68 132.57 37.04 132.88 43.83C132.92 44.59 132.75 45.15 132.38 45.54C131.79 46.16 130.78 46.21 129.8 46.21ZM115.1 42.13C114.34 42.13 113.66 42.1 113.06 42.04C110.42 41.78 108.8 40.72 107.94 38.73C107.19 36.94 107.34 33.98 107.83 31.76C106.7 31.22 106.59 30.19 106.78 28.82C107.03 27.35 107.46 26.6 109.13 26.6C109.52 26.6 110.01 26.64 110.61 26.72C111.76 26.87 113.14 26.95 114.59 26.95C115.65 26.95 116.71 26.91 117.68 26.82C117.98 24.96 117.97 23.88 117.66 23.5C117.55 23.37 117.39 23.31 117.11 23.31C116.98 23.31 116.83 23.32 116.68 23.34C115.96 23.4 115.08 23.43 114.21 23.43C113.13 23.43 111.08 23.38 109.54 23.02C107.87 22.62 107.32 21.66 107.65 19.72C107.88 18.34 108.3 17.41 109.64 17.41C109.89 17.41 110.17 17.44 110.49 17.5C111.59 17.7 113.04 17.81 114.58 17.81C115.53 17.81 116.48 17.77 117.32 17.68C117.91 17.62 118.42 17.59 118.87 17.59C120.43 17.59 121.49 17.96 122.21 18.76C123.38 20.06 123.71 22.55 123.28 26.84C123.61 27.21 123.82 27.75 123.95 28.52C124.22 30.25 123.95 31.34 121.74 31.79C119.69 32.2 117.18 32.42 114.47 32.42C114.18 32.42 113.89 32.42 113.6 32.41L113.42 33.43C113.23 34.59 113.3 35.32 113.65 35.75C113.97 36.14 114.56 36.33 115.56 36.36C115.71 36.37 115.87 36.37 116.04 36.37C117.82 36.37 120.46 36.07 121.84 35.51C122.29 35.33 122.67 35.25 123.02 35.25C124.18 35.25 124.68 36.25 124.96 37C125.45 38.32 125.78 39.94 124.04 40.73C122.08 41.66 118.06 42.13 115.1 42.13Z" fill="#FFF5AE"/>
<path d="M129.8 15.66C131.44 15.66 132.77 15.91 132.67 17.88C132.36 24.68 132.36 37.03 132.67 43.83C132.76 45.81 131.43 45.99 129.8 45.99C128.16 45.99 127.02 45.96 126.93 43.98C126.62 37.18 126.62 24.77 126.93 17.97C127.01 16 128.16 15.66 129.8 15.66ZM109.64 17.64C109.88 17.64 110.15 17.67 110.45 17.73C111.6 17.94 113.09 18.04 114.58 18.04C115.53 18.04 116.48 18 117.34 17.91C117.89 17.85 118.4 17.82 118.87 17.82C122.28 17.82 123.81 19.55 123.05 26.93C123.39 27.27 123.61 27.8 123.73 28.57C124.01 30.33 123.64 31.2 121.69 31.6C119.55 32.03 116.98 32.23 114.46 32.23C114.11 32.23 113.76 32.23 113.41 32.22L113.19 33.42C112.79 35.83 113.5 36.54 115.54 36.6C115.69 36.61 115.85 36.61 116.02 36.61C117.75 36.61 120.44 36.33 121.9 35.74C122.32 35.57 122.69 35.49 123 35.49C123.85 35.49 124.36 36.07 124.74 37.1C125.39 38.86 125.23 39.97 123.94 40.56C122.09 41.41 118.17 41.91 115.08 41.91C114.35 41.91 113.66 41.88 113.06 41.82C110.28 41.54 108.86 40.37 108.12 38.64C107.38 36.88 107.53 33.88 108.06 31.63C106.98 31.2 106.76 30.36 106.98 28.85C107.22 27.41 107.6 26.82 109.12 26.82C109.52 26.82 109.99 26.86 110.57 26.94C111.75 27.1 113.16 27.17 114.58 27.17C115.69 27.17 116.81 27.12 117.86 27.03C118.44 23.56 117.94 23.11 117.1 23.11C116.96 23.11 116.81 23.12 116.66 23.14C115.98 23.2 115.12 23.23 114.21 23.23C112.62 23.23 110.86 23.12 109.59 22.83C108.05 22.46 107.55 21.63 107.86 19.77C108.11 18.23 108.59 17.64 109.64 17.64ZM129.8 15.23C128.15 15.23 126.61 15.56 126.5 17.96C126.19 24.78 126.19 37.19 126.5 44.01C126.61 46.43 128.23 46.43 129.8 46.43C130.83 46.43 131.89 46.37 132.54 45.69C132.95 45.26 133.14 44.65 133.1 43.82C132.79 37.04 132.79 24.69 133.1 17.91C133.14 17.07 132.95 16.45 132.53 16C131.88 15.32 130.83 15.23 129.8 15.23ZM109.64 17.21C108.06 17.21 107.65 18.4 107.44 19.7C107.1 21.76 107.71 22.82 109.49 23.24C111.05 23.6 113.12 23.65 114.21 23.65C115.09 23.65 115.97 23.62 116.7 23.56C116.85 23.55 116.99 23.54 117.11 23.54C117.37 23.54 117.45 23.59 117.5 23.65C117.68 23.87 117.83 24.56 117.5 26.63C116.58 26.7 115.58 26.74 114.59 26.74C113.14 26.74 111.77 26.66 110.63 26.51C110.02 26.43 109.53 26.39 109.13 26.39C107.32 26.39 106.83 27.23 106.57 28.78C106.39 30.01 106.41 31.22 107.58 31.87C107.11 34.1 106.99 37.02 107.74 38.81C108.62 40.86 110.35 41.98 113.03 42.25C113.63 42.31 114.33 42.34 115.09 42.34C118.07 42.34 122.13 41.86 124.13 40.95C126.05 40.08 125.64 38.25 125.16 36.95C124.86 36.14 124.31 35.06 123.02 35.06C122.64 35.06 122.23 35.15 121.76 35.34C120.4 35.89 117.8 36.18 116.04 36.18C115.87 36.18 115.72 36.18 115.57 36.17C114.65 36.14 114.09 35.97 113.81 35.64C113.5 35.26 113.44 34.58 113.62 33.49L113.77 32.65C114 32.65 114.23 32.65 114.47 32.65C117.19 32.65 119.72 32.43 121.78 32.01C124.14 31.52 124.43 30.25 124.16 28.5C124.04 27.73 123.83 27.18 123.5 26.78C123.93 22.48 123.58 19.96 122.37 18.62C121.61 17.78 120.5 17.38 118.87 17.38C118.41 17.38 117.89 17.41 117.29 17.47C116.46 17.55 115.52 17.59 114.57 17.59C113.05 17.59 111.61 17.48 110.52 17.29C110.2 17.24 109.9 17.21 109.64 17.21Z" fill="#E24782"/>
<path d="M143.33 42.75C142.55 42.75 141.84 42.37 141.17 41.6C140.39 40.72 140.05 39.86 140.19 39.12C140.3 38.54 140.7 38.06 141.35 37.72C145.36 35.67 149.27 32.26 150.66 29.62C151.18 28.65 151.72 28.23 152.46 28.23C152.95 28.23 153.53 28.41 154.38 28.83C155.46 29.35 156.06 29.89 156.25 30.53C156.41 31.08 156.28 31.7 155.83 32.43L155.76 32.54C157.12 32.77 159.02 32.91 160.95 32.91C161.82 32.91 162.67 32.88 163.46 32.83C163.51 32.83 163.57 32.82 163.62 32.82C164.08 32.82 164.46 32.97 164.73 33.28C165.2 33.8 165.36 34.73 165.23 36.13C165.07 37.85 164.34 38.55 162.64 38.61C162.07 38.63 161.47 38.65 160.87 38.65C158.1 38.65 155.38 38.39 153.77 37.97C152.96 37.77 152.39 37.42 152.07 36.94C149.91 39.01 147.34 40.93 144.98 42.25C144.4 42.58 143.85 42.75 143.33 42.75ZM137.96 31.04C137.01 31.04 136.39 30.41 136.01 29.06C135.41 26.95 136.41 26.18 137.35 25.9C139.81 25.14 142.2 24.64 146.55 23.84L146.26 22.51C145.09 22.68 144.03 22.76 143.1 22.76C139.27 22.76 137.18 21.34 136.51 18.28C136.19 16.82 136.41 15.5 137.15 14.35C138.48 12.31 141.55 10.81 146.25 9.89001C146.61 9.82001 146.91 9.78 147.18 9.78C148.48 9.78 148.9 10.66 149.16 12.08C149.53 14.06 148.99 14.54 147.31 14.91C145.61 15.28 144.41 15.65 143.66 16.02C143.01 16.34 142.72 16.66 142.78 16.97C142.81 17.12 142.9 17.5 144.17 17.5C145.06 17.5 146.34 17.31 148.07 16.93C150.04 16.5 151.41 16.06 152.15 15.64C152.89 15.21 152.83 14.91 152.8 14.8C152.74 14.54 152.57 14.29 151.68 14.29C151.53 14.29 151.36 14.3 151.18 14.31C151.12 14.31 151.06 14.32 151 14.32C149.6 14.32 149.43 13.07 149.24 11.74C149.12 10.81 149.19 10.24 149.5 9.84C149.78 9.47 150.26 9.26 151 9.16C151.52 9.09 152.04 9.06 152.54 9.06C156.08 9.06 158.45 10.62 159.05 13.33C159.82 16.84 157.63 19.38 152.34 21.1L152.7 22.73C157.45 21.82 159.62 21.13 161.13 20.59C161.53 20.45 161.88 20.38 162.2 20.38C163.22 20.38 163.88 21.08 164.29 22.58C164.68 24.06 164.2 25.09 162.89 25.55C160.53 26.42 157.66 27.06 150.62 28.31C144.22 29.46 141.69 30.01 138.86 30.89C138.53 30.99 138.23 31.04 137.96 31.04Z" fill="#FFF5AE"/>
<path d="M152.56 9.28C155.41 9.28 158.2 10.39 158.86 13.38C159.57 16.63 157.73 19.18 152.11 20.96L152.55 22.98C157.08 22.12 159.43 21.44 161.22 20.79C161.59 20.66 161.92 20.59 162.22 20.59C163.12 20.59 163.72 21.21 164.1 22.63C164.48 24.06 164 24.93 162.83 25.35C160.42 26.23 157.45 26.88 150.59 28.1C144.17 29.25 141.66 29.8 138.8 30.69C138.49 30.79 138.21 30.84 137.96 30.84C137.11 30.84 136.57 30.27 136.22 29.01C135.79 27.5 136.15 26.49 137.41 26.12C139.9 25.35 142.3 24.86 146.8 24.03L146.42 22.28C145.17 22.47 144.07 22.56 143.09 22.56C139.1 22.56 137.32 21.03 136.71 18.25C135.83 14.24 139.12 11.53 146.29 10.11C146.63 10.04 146.92 10.01 147.18 10.01C148.25 10.01 148.67 10.64 148.95 12.13C149.29 13.98 148.86 14.36 147.27 14.71C143.84 15.46 142.4 16.2 142.58 17.02C142.67 17.42 143.05 17.72 144.18 17.72C145.02 17.72 146.27 17.56 148.13 17.15C152.51 16.19 153.17 15.4 153.03 14.76C152.92 14.25 152.46 14.09 151.7 14.09C151.54 14.09 151.37 14.1 151.18 14.11C151.12 14.11 151.07 14.12 151.01 14.12C149.89 14.12 149.68 13.27 149.47 11.73C149.27 10.23 149.58 9.59001 151.04 9.39001C151.54 9.31001 152.05 9.28 152.56 9.28ZM152.46 28.43C152.94 28.43 153.53 28.64 154.29 29.01C156.12 29.89 156.55 30.82 155.65 32.31L155.41 32.68C156.83 32.96 158.9 33.11 160.96 33.11C161.82 33.11 162.67 33.08 163.48 33.03C163.53 33.03 163.58 33.02 163.62 33.02C164.8 33.02 165.2 34.13 165.01 36.09C164.86 37.73 164.21 38.32 162.62 38.38C162.04 38.4 161.45 38.42 160.86 38.42C158.12 38.42 155.41 38.16 153.82 37.75C152.94 37.53 152.37 37.14 152.12 36.58C150.03 38.61 147.42 40.63 144.88 42.05C144.3 42.37 143.79 42.53 143.31 42.53C142.56 42.53 141.92 42.15 141.31 41.45C139.98 39.94 140.05 38.61 141.43 37.89C145.38 35.87 149.39 32.45 150.83 29.7C151.32 28.82 151.8 28.43 152.46 28.43ZM152.56 8.85001C152.04 8.85001 151.52 8.89001 150.99 8.95001C150.19 9.06001 149.67 9.29999 149.35 9.70999C149.13 9.99999 149.03 10.36 149 10.72C148.67 9.99 148.14 9.56 147.18 9.56C146.9 9.56 146.58 9.60001 146.21 9.67001C141.45 10.61 138.34 12.14 136.97 14.23C136.19 15.42 135.96 16.8 136.3 18.32C137 21.49 139.16 22.97 143.1 22.97C143.99 22.97 144.99 22.89 146.09 22.74L146.29 23.66C142.07 24.44 139.72 24.93 137.28 25.68C136.44 25.93 135.12 26.7 135.8 29.1C135.95 29.63 136.4 31.24 137.95 31.24C138.24 31.24 138.56 31.19 138.92 31.07C141.75 30.2 144.27 29.64 150.66 28.5C150.88 28.46 151.1 28.42 151.32 28.38C150.94 28.68 150.68 29.1 150.47 29.48C149.1 32.09 145.22 35.46 141.25 37.49C140.53 37.86 140.09 38.4 139.97 39.05C139.82 39.86 140.18 40.78 141 41.71C141.72 42.53 142.48 42.93 143.32 42.93C143.88 42.93 144.46 42.76 145.1 42.4C147.41 41.11 149.92 39.24 152.05 37.22C152.41 37.64 152.97 37.95 153.72 38.14C155.35 38.56 158.09 38.83 160.87 38.83C161.47 38.83 162.07 38.82 162.65 38.79C164.46 38.72 165.27 37.95 165.44 36.11C165.58 34.65 165.4 33.66 164.89 33.1C164.57 32.75 164.15 32.57 163.62 32.57C163.56 32.57 163.51 32.57 163.45 32.58C162.67 32.63 161.83 32.66 160.96 32.66C159.19 32.66 157.43 32.54 156.11 32.34C156.51 31.62 156.62 31 156.45 30.44C156.24 29.74 155.61 29.16 154.47 28.6C153.91 28.32 153.46 28.14 153.07 28.05C158.41 27.07 160.88 26.48 162.97 25.72C164.37 25.22 164.92 24.07 164.5 22.49C164.23 21.48 163.69 20.13 162.21 20.13C161.87 20.13 161.5 20.2 161.07 20.35C159.59 20.89 157.46 21.55 152.87 22.45L152.6 21.22C157.87 19.47 160.05 16.86 159.26 13.26C158.67 10.51 156.16 8.85001 152.56 8.85001ZM144.18 17.29C143.68 17.29 143.06 17.23 143 16.93C142.97 16.8 143.04 16.08 147.37 15.13C148.59 14.86 149.3 14.51 149.46 13.55C149.72 14.14 150.17 14.55 151.03 14.55C151.09 14.55 151.16 14.55 151.22 14.54C151.41 14.53 151.56 14.52 151.71 14.52C152.55 14.52 152.59 14.74 152.62 14.86C152.66 15.04 152.47 15.24 152.07 15.47C151.34 15.88 149.99 16.31 148.05 16.74C146.34 17.1 145.04 17.29 144.18 17.29Z" fill="#E24782"/>
<path d="M177.24 46.05C176.28 46.05 175.29 46.03 174.3 45.98C171.81 45.87 170.67 45 170.49 43.09C170.3 40.92 170.29 38.55 170.46 36.04C170.56 34.66 171.5 34.38 173.09 34.35C173.19 34.35 173.29 34.35 173.39 34.35C174.49 34.35 175.21 34.55 175.59 34.96C175.83 35.22 175.93 35.55 175.9 35.96C175.86 36.5 175.83 37.15 175.82 37.82C176.02 36.95 176.6 36.55 177.64 36.55H184.62L184.66 36.09C184.79 34.75 185.65 34.52 187.4 34.52C188.58 34.52 189.27 34.7 189.65 35.11C189.91 35.39 190.02 35.79 189.98 36.32C189.89 37.76 189.77 41.2 189.98 43.85C190.02 44.41 189.89 44.86 189.58 45.19C189.16 45.65 188.42 45.87 187.34 45.87C186.47 45.87 185.83 45.81 185.36 45.49C182.69 45.87 180.03 46.05 177.24 46.05ZM175.83 39.48C175.84 40.04 175.87 40.54 175.9 40.91C175.95 41.42 176.09 41.68 176.76 41.68C179.48 41.68 182.08 41.54 184.49 41.26L184.47 40.7H177.63C176.58 40.7 176.02 40.35 175.83 39.48ZM186.89 33.91C185.51 33.91 184.21 33.91 184.12 31.92C183.98 28.63 183.98 23.47 184.12 20.18C184.21 18.19 185.51 17.91 186.89 17.91C187.78 17.91 188.67 17.99 189.2 18.54C189.54 18.9 189.7 19.42 189.66 20.12C189.52 23.44 189.52 28.45 189.66 31.77C189.69 32.46 189.55 32.96 189.21 33.31C188.68 33.86 187.77 33.91 186.89 33.91ZM173.82 33.55C169.23 33.55 166.26 30.77 166.26 26.46C166.26 26.14 166.32 25.38 166.37 25.07C166.53 24.21 167.08 23.8 168.06 23.8C168.36 23.8 168.7 23.84 169.09 23.91C171.1 24.26 171.44 24.89 171.44 26.16C171.44 27.02 172.2 28.28 173.84 28.28C175.39 28.28 176.24 27.47 176.24 25.99C176.24 23.93 174.79 23.62 173.92 23.62C173.34 23.62 172.77 23.81 172.46 24C172.17 24.18 171.89 24.26 171.55 24.26C171 24.26 170.29 24.03 169.16 23.6C168.49 23.34 168 22.82 167.84 22.21C167.69 21.61 167.87 20.95 168.36 20.37C169.55 18.98 171.33 18.31 173.81 18.31C178.49 18.31 181.4 21.23 181.4 25.93C181.41 30.63 178.5 33.55 173.82 33.55Z" fill="#E24782"/>
<path d="M186.89 18.12C188.35 18.12 189.53 18.34 189.45 20.1C189.31 23.4 189.31 28.46 189.45 31.77C189.53 33.53 188.35 33.7 186.89 33.7C185.43 33.7 184.41 33.67 184.33 31.91C184.19 28.61 184.19 23.49 184.33 20.19C184.41 18.42 185.43 18.12 186.89 18.12ZM173.82 18.53C178.72 18.53 181.19 21.67 181.19 25.93C181.19 30.19 178.71 33.33 173.82 33.33C168.95 33.33 166.47 30.19 166.47 26.45C166.47 26.15 166.53 25.4 166.58 25.1C166.72 24.32 167.22 24 168.06 24C168.35 24 168.68 24.04 169.06 24.11C170.96 24.44 171.23 24.99 171.23 26.15C171.23 27.17 172.11 28.49 173.84 28.49C175.46 28.49 176.45 27.61 176.45 25.99C176.45 24.17 175.35 23.4 173.92 23.4C173.31 23.4 172.71 23.59 172.35 23.81C172.1 23.96 171.86 24.04 171.55 24.04C171.04 24.04 170.37 23.83 169.24 23.4C168.11 22.96 167.51 21.72 168.52 20.51C169.69 19.16 171.4 18.53 173.82 18.53ZM173.4 34.57C175.03 34.57 175.77 35.01 175.69 35.95C175.58 37.44 175.58 39.8 175.69 40.93C175.75 41.54 175.97 41.89 176.76 41.89C178.88 41.89 181.68 41.81 184.71 41.45L184.68 40.49H177.64C176.46 40.49 175.96 40.08 175.96 38.62C175.96 37.3 176.46 36.78 177.64 36.78H184.82L184.88 36.12C184.99 35.02 185.6 34.74 187.41 34.74C189.28 34.74 189.86 35.21 189.78 36.31C189.67 38.07 189.59 41.4 189.78 43.88C189.89 45.26 188.82 45.67 187.36 45.67C186.53 45.67 185.87 45.62 185.43 45.28C182.67 45.67 179.96 45.84 177.24 45.84C176.27 45.84 175.29 45.82 174.31 45.77C171.89 45.66 170.87 44.86 170.71 43.07C170.52 40.87 170.52 38.48 170.68 36.05C170.76 34.92 171.4 34.59 173.1 34.56C173.21 34.57 173.3 34.57 173.4 34.57ZM186.89 17.69C185.47 17.69 184.01 17.98 183.9 20.16C183.76 23.46 183.76 28.62 183.9 31.92C184 34.12 185.54 34.12 186.89 34.12C187.82 34.12 188.78 34.07 189.37 33.45C189.75 33.05 189.91 32.5 189.88 31.75C189.74 28.44 189.74 23.44 189.88 20.12C189.92 19.36 189.74 18.79 189.36 18.39C188.77 17.77 187.82 17.69 186.89 17.69ZM173.82 18.1C171.28 18.1 169.44 18.8 168.21 20.23C167.67 20.87 167.48 21.59 167.65 22.26C167.79 22.82 168.19 23.31 168.74 23.63C168.49 23.6 168.27 23.58 168.07 23.58C166.98 23.58 166.34 24.07 166.17 25.03C166.11 25.36 166.05 26.12 166.05 26.46C166.05 30.1 168.45 33.77 173.83 33.77C178.64 33.77 181.63 30.77 181.63 25.94C181.62 21.1 178.63 18.1 173.82 18.1ZM171.56 24.47C171.93 24.47 172.26 24.38 172.58 24.17C172.86 24 173.38 23.82 173.92 23.82C174.88 23.82 176.02 24.19 176.02 25.98C176.02 27.7 174.83 28.06 173.83 28.06C172.34 28.06 171.64 26.92 171.64 26.15C171.64 25.35 171.47 24.81 171.04 24.42C171.24 24.46 171.41 24.47 171.56 24.47ZM173.4 34.14C173.3 34.14 173.2 34.14 173.09 34.14C171.42 34.17 170.37 34.49 170.25 36.02C170.08 38.54 170.09 40.93 170.28 43.1C170.47 45.15 171.67 46.07 174.29 46.19C175.28 46.23 176.27 46.26 177.24 46.26C180.01 46.26 182.66 46.08 185.33 45.72C185.83 46.02 186.49 46.09 187.36 46.09C188.51 46.09 189.29 45.84 189.76 45.34C190.11 44.96 190.26 44.46 190.21 43.84C190 41.2 190.12 37.77 190.21 36.33C190.25 35.74 190.13 35.3 189.82 34.97C189.4 34.51 188.66 34.31 187.41 34.31C185.89 34.31 184.62 34.44 184.45 36.07L184.43 36.34H177.64C176.93 36.34 176.41 36.51 176.06 36.88C176.07 36.56 176.09 36.25 176.11 35.98C176.15 35.51 176.03 35.12 175.75 34.82C175.33 34.36 174.58 34.14 173.4 34.14ZM176.76 41.46C176.22 41.46 176.15 41.3 176.11 40.89C176.1 40.76 176.09 40.6 176.08 40.43C176.42 40.76 176.93 40.91 177.64 40.91H184.27V41.06C181.93 41.33 179.4 41.46 176.76 41.46Z" fill="#FFF5AE"/>
<path d="M213.28 45.9C211.9 45.9 210.6 45.9 210.51 43.91C210.23 37.84 210.23 26.79 210.51 20.72C210.6 18.73 211.9 18.45 213.28 18.45C214.17 18.45 215.06 18.53 215.59 19.08C215.93 19.44 216.09 19.96 216.05 20.66C215.78 26.7 215.78 37.71 216.05 43.75C216.08 44.44 215.94 44.94 215.6 45.29C215.06 45.86 214.16 45.9 213.28 45.9ZM200.15 42.08C195.92 42.08 193.08 39.22 193.08 34.96C193.08 30.72 195.92 27.87 200.15 27.87C204.38 27.87 207.22 30.72 207.22 34.96C207.22 39.22 204.38 42.08 200.15 42.08ZM200.15 32.64C198.87 32.64 197.94 33.61 197.94 34.96C197.94 36.32 198.87 37.3 200.15 37.3C201.45 37.3 202.36 36.34 202.36 34.96C202.36 33.59 201.45 32.64 200.15 32.64ZM199.26 27.63C197.24 27.63 195.26 27.49 193.7 27.25C192.92 27.12 192.42 26.86 192.11 26.42C191.74 25.9 191.67 25.12 191.88 23.97C192.09 22.78 192.59 22.36 193.77 22.36C194.16 22.36 194.63 22.4 195.09 22.45C195.76 22.53 196.55 22.56 197.34 22.58C197.29 21.78 197.28 21.16 197.33 20.58C197.43 19.09 198.69 19.09 200.02 19.09C201.05 19.09 201.94 19.13 202.39 19.62C202.62 19.87 202.72 20.22 202.68 20.67L202.58 22.45C203.31 22.38 204.1 22.3 204.76 22.17C205.26 22.08 205.77 22 206.2 22C207.25 22 207.81 22.48 208.06 23.6C208.46 25.4 208.29 26.41 206.25 26.94C204.49 27.38 202.01 27.63 199.26 27.63Z" fill="#E24782"/>
<path d="M213.28 18.67C214.74 18.67 215.92 18.89 215.84 20.65C215.56 26.7 215.56 37.71 215.84 43.76C215.92 45.52 214.74 45.69 213.28 45.69C211.82 45.69 210.8 45.66 210.72 43.9C210.44 37.85 210.44 26.79 210.72 20.73C210.8 18.97 211.82 18.67 213.28 18.67ZM200.01 19.3C201.47 19.3 202.57 19.38 202.46 20.65L202.35 22.69C203.23 22.61 204.08 22.53 204.8 22.39C205.34 22.3 205.81 22.23 206.2 22.23C207.07 22.23 207.61 22.56 207.85 23.66C208.26 25.5 208.02 26.27 206.2 26.74C204.32 27.21 201.76 27.42 199.26 27.42C197.25 27.42 195.28 27.28 193.74 27.04C192.2 26.79 191.73 25.97 192.09 24.01C192.29 22.87 192.75 22.57 193.76 22.57C194.12 22.57 194.55 22.61 195.06 22.66C195.78 22.74 196.63 22.77 197.56 22.8C197.5 22.06 197.48 21.31 197.53 20.6C197.62 19.36 198.55 19.3 200.01 19.3ZM200.15 28.08C204.55 28.08 207 31.16 207 34.96C207 38.78 204.55 41.87 200.15 41.87C195.78 41.87 193.3 38.79 193.3 34.96C193.3 31.16 195.78 28.08 200.15 28.08ZM200.15 37.52C201.55 37.52 202.57 36.47 202.57 34.96C202.57 33.47 201.55 32.43 200.15 32.43C198.77 32.43 197.73 33.48 197.73 34.96C197.73 36.47 198.78 37.52 200.15 37.52ZM213.28 18.24C211.86 18.24 210.39 18.53 210.29 20.71C210.01 26.78 210.01 37.84 210.29 43.92C210.39 46.12 211.93 46.12 213.28 46.12C214.21 46.12 215.17 46.07 215.76 45.45C216.14 45.05 216.3 44.5 216.27 43.75C216 37.71 216 26.71 216.27 20.68C216.31 19.92 216.13 19.35 215.75 18.95C215.16 18.32 214.21 18.24 213.28 18.24ZM200.01 18.87C198.7 18.87 197.22 18.87 197.11 20.56C197.07 21.09 197.07 21.65 197.11 22.35C196.4 22.33 195.7 22.3 195.11 22.23C194.53 22.17 194.12 22.14 193.76 22.14C192.48 22.14 191.89 22.64 191.66 23.93C191.44 25.15 191.52 25.96 191.93 26.54C192.27 27.02 192.84 27.32 193.67 27.45C195 27.66 196.63 27.79 198.34 27.83C195.01 28.54 192.87 31.22 192.87 34.95C192.87 39.34 195.8 42.28 200.15 42.28C204.5 42.28 207.43 39.33 207.43 34.95C207.43 31.11 205.17 28.38 201.67 27.77C203.46 27.67 205.06 27.45 206.31 27.14C208.51 26.57 208.7 25.44 208.27 23.55C208 22.33 207.36 21.79 206.2 21.79C205.78 21.79 205.3 21.86 204.72 21.96C204.14 22.07 203.45 22.15 202.8 22.21L202.88 20.67C202.92 20.18 202.81 19.77 202.53 19.47C202.03 18.92 201.09 18.87 200.01 18.87ZM200.15 37.09C198.98 37.09 198.16 36.21 198.16 34.96C198.16 33.74 199 32.86 200.15 32.86C201.32 32.86 202.14 33.72 202.14 34.96C202.14 36.21 201.32 37.09 200.15 37.09Z" fill="#FFF5AE"/>
<path d="M239.69 45.9C238.31 45.9 237.01 45.9 236.92 43.91C236.64 37.84 236.64 26.79 236.92 20.72C237.01 18.73 238.31 18.45 239.69 18.45C240.58 18.45 241.47 18.53 242 19.08C242.34 19.44 242.5 19.96 242.46 20.66C242.19 26.7 242.19 37.71 242.46 43.75C242.49 44.44 242.35 44.94 242.01 45.29C241.48 45.86 240.57 45.9 239.69 45.9ZM228.39 42.27C228.1 42.27 227.77 42.24 227.38 42.19C226.26 42.03 225.52 41.64 225.19 41.03C224.91 40.51 224.94 39.87 225.26 39.17C226.78 35.91 228 29.42 228.07 26.63C228.07 26.34 228.02 26.3 227.73 26.3C227.69 26.3 227.65 26.3 227.61 26.3C226.71 26.36 225.87 26.39 225.06 26.39C223.36 26.39 221.79 26.25 220.26 25.96C218.31 25.6 218.23 24.28 218.44 22.91C218.6 21.81 218.99 20.69 220.6 20.69C220.81 20.69 221.05 20.71 221.3 20.75C222.67 20.95 224.26 21.06 225.9 21.06C227.01 21.06 228.13 21.01 229.23 20.92C229.63 20.89 230 20.87 230.33 20.87C231.6 20.87 232.44 21.13 232.98 21.67C233.59 22.3 233.82 23.31 233.76 25.13C233.66 28.4 232.44 36.78 230.77 40.67C230.29 41.81 229.62 42.27 228.39 42.27Z" fill="#E24782"/>
<path d="M239.69 18.67C241.15 18.67 242.33 18.89 242.25 20.65C241.97 26.7 241.97 37.71 242.25 43.76C242.33 45.52 241.15 45.69 239.69 45.69C238.23 45.69 237.21 45.66 237.13 43.9C236.85 37.85 236.85 26.79 237.13 20.73C237.21 18.97 238.23 18.67 239.69 18.67ZM220.62 20.9C220.82 20.9 221.04 20.92 221.29 20.96C222.66 21.16 224.24 21.27 225.92 21.27C227.01 21.27 228.14 21.22 229.27 21.13C229.66 21.1 230.02 21.08 230.35 21.08C233.06 21.08 233.66 22.22 233.56 25.12C233.45 28.56 232.18 36.87 230.59 40.58C230.17 41.58 229.62 42.06 228.4 42.06C228.11 42.06 227.79 42.03 227.43 41.98C225.26 41.68 224.9 40.49 225.48 39.26C226.99 36.01 228.23 29.55 228.31 26.63C228.31 26.21 228.15 26.08 227.75 26.08C227.71 26.08 227.67 26.08 227.62 26.08C226.73 26.14 225.89 26.17 225.09 26.17C223.37 26.17 221.83 26.03 220.33 25.75C218.68 25.45 218.46 24.43 218.68 22.94C218.86 21.65 219.32 20.9 220.62 20.9ZM239.69 18.24C238.27 18.24 236.8 18.53 236.7 20.71C236.42 26.78 236.42 37.84 236.7 43.92C236.8 46.12 238.34 46.12 239.69 46.12C240.62 46.12 241.58 46.07 242.17 45.45C242.55 45.05 242.71 44.5 242.68 43.75C242.41 37.71 242.41 26.71 242.68 20.68C242.72 19.92 242.54 19.35 242.16 18.95C241.57 18.32 240.63 18.24 239.69 18.24ZM220.62 20.47C218.83 20.47 218.41 21.75 218.25 22.87C218.05 24.2 218.1 25.77 220.25 26.16C221.79 26.45 223.37 26.59 225.08 26.59C225.89 26.59 226.73 26.56 227.64 26.5C227.67 26.5 227.71 26.5 227.74 26.5C227.8 26.5 227.84 26.5 227.86 26.51C227.86 26.53 227.87 26.57 227.87 26.63C227.79 29.39 226.58 35.84 225.08 39.08C224.72 39.85 224.7 40.56 225.01 41.14C225.38 41.82 226.17 42.25 227.36 42.41C227.75 42.47 228.09 42.49 228.39 42.49C229.7 42.49 230.45 41.98 230.97 40.75C232.65 36.84 233.87 28.42 233.98 25.13C234.04 23.25 233.8 22.2 233.14 21.52C232.57 20.93 231.68 20.65 230.34 20.65C230 20.65 229.63 20.67 229.22 20.7C228.13 20.79 227.01 20.84 225.91 20.84C224.28 20.84 222.7 20.73 221.34 20.54C221.08 20.49 220.84 20.47 220.62 20.47Z" fill="#FFF5AE"/>
<path d="M165.55 17.05C165.36 17.05 165.2 16.95 165.11 16.78L164.11 14.86C164.02 14.68 163.83 14.57 163.62 14.57L161.44 14.62C161.22 14.62 161.05 14.5 160.97 14.31C160.89 14.12 160.93 13.91 161.07 13.77L162.59 12.22C162.74 12.07 162.78 11.85 162.72 11.66L162.01 9.60999C161.96 9.45999 161.98 9.29 162.07 9.16C162.16 9.03 162.32 8.95001 162.48 8.95001C162.56 8.95001 162.63 8.97 162.7 9L164.64 9.95999C164.72 9.99999 164.8 10.02 164.88 10.02C165 10.02 165.12 9.98 165.21 9.91L166.94 8.60001C167.03 8.53001 167.13 8.5 167.24 8.5C167.39 8.5 167.53 8.55999 167.62 8.67999C167.72 8.78999 167.76 8.92999 167.73 9.07999L167.41 11.22C167.38 11.43 167.47 11.63 167.64 11.75L169.42 12.99C169.59 13.11 169.67 13.31 169.62 13.51C169.57 13.71 169.42 13.86 169.22 13.89L167.08 14.25C166.87 14.28 166.71 14.43 166.65 14.63L166.02 16.7C165.96 16.91 165.77 17.05 165.55 17.05Z" fill="white"/>
<path d="M167.24 8.66C167.43 8.66 167.6 8.83001 167.57 9.04001L167.25 11.18C167.21 11.45 167.33 11.71 167.55 11.87L169.33 13.11C169.58 13.28 169.49 13.66 169.19 13.71L167.05 14.07C166.78 14.11 166.57 14.31 166.49 14.57L165.86 16.64C165.81 16.8 165.68 16.88 165.54 16.88C165.42 16.88 165.31 16.82 165.24 16.7L164.24 14.78C164.12 14.54 163.87 14.4 163.61 14.4H163.6L161.43 14.44H161.42C161.13 14.44 160.97 14.08 161.18 13.87L162.7 12.32C162.89 12.13 162.95 11.84 162.86 11.59L162.15 9.54001C162.07 9.31001 162.25 9.09 162.46 9.09C162.51 9.09 162.56 9.1 162.61 9.13L164.55 10.09C164.65 10.14 164.76 10.16 164.87 10.16C165.02 10.16 165.17 10.11 165.3 10.02L167.03 8.70999C167.1 8.67999 167.17 8.66 167.24 8.66ZM167.24 8.32999C167.1 8.32999 166.96 8.38 166.84 8.47L165.11 9.78C165.04 9.83 164.96 9.85999 164.88 9.85999C164.82 9.85999 164.76 9.85001 164.71 9.82001L162.77 8.85999C162.68 8.80999 162.58 8.79001 162.47 8.79001C162.26 8.79001 162.05 8.90001 161.93 9.07001C161.8 9.25001 161.77 9.47001 161.85 9.67001L162.56 11.72C162.61 11.86 162.57 12.01 162.47 12.11L160.95 13.66C160.76 13.85 160.71 14.14 160.81 14.38C160.91 14.63 161.15 14.79 161.42 14.79L163.6 14.74C163.75 14.74 163.88 14.82 163.95 14.95L164.95 16.87C165.06 17.09 165.29 17.23 165.54 17.23C165.84 17.23 166.09 17.04 166.18 16.76L166.81 14.69C166.85 14.55 166.97 14.45 167.11 14.42L169.25 14.06C169.52 14.01 169.73 13.81 169.79 13.55C169.85 13.29 169.74 13.01 169.52 12.86L167.74 11.62C167.62 11.54 167.56 11.39 167.58 11.25L167.9 9.10999C167.93 8.91999 167.87 8.72999 167.75 8.57999C167.62 8.40999 167.43 8.32999 167.24 8.32999Z" fill="#E24782"/>
<path d="M105.04 44.2C104.92 44.2 104.81 44.15 104.73 44.07L103.99 43.29C103.89 43.18 103.74 43.12 103.59 43.12C103.54 43.12 103.48 43.13 103.43 43.14L102.4 43.46C102.36 43.47 102.31 43.48 102.27 43.48C102.12 43.48 101.98 43.4 101.9 43.27C101.82 43.14 101.82 42.98 101.89 42.85L102.4 41.91C102.5 41.73 102.49 41.51 102.37 41.33L101.75 40.45C101.66 40.32 101.64 40.15 101.72 40.01C101.79 39.87 101.94 39.78 102.1 39.78C102.13 39.78 102.15 39.78 102.18 39.79L103.23 39.99C103.26 40 103.3 40 103.33 40C103.5 40 103.66 39.92 103.77 39.78L104.41 38.92C104.49 38.81 104.62 38.75 104.75 38.75C104.97 38.75 105.15 38.91 105.18 39.12L105.32 40.18C105.35 40.39 105.49 40.56 105.69 40.63L106.71 40.98C106.88 41.04 106.99 41.19 107 41.36C107.01 41.53 106.91 41.7 106.76 41.77L105.79 42.23C105.6 42.32 105.48 42.51 105.48 42.72L105.46 43.79C105.47 44.01 105.28 44.2 105.04 44.2Z" fill="white"/>
<path d="M104.78 38.89C104.9 38.89 105.03 38.98 105.04 39.12L105.18 40.18C105.22 40.45 105.4 40.67 105.66 40.76L106.68 41.11C106.9 41.19 106.92 41.5 106.71 41.6L105.74 42.06C105.5 42.18 105.34 42.42 105.33 42.69L105.31 43.76C105.31 43.92 105.18 44.02 105.04 44.02C104.97 44.02 104.9 43.99 104.85 43.94L104.11 43.16C103.97 43.02 103.79 42.94 103.59 42.94C103.52 42.94 103.45 42.95 103.38 42.97L102.35 43.29C102.32 43.3 102.3 43.3 102.27 43.3C102.08 43.3 101.94 43.09 102.04 42.91L102.55 41.97C102.68 41.73 102.66 41.44 102.51 41.22L101.89 40.34C101.76 40.16 101.9 39.92 102.1 39.92C102.12 39.92 102.13 39.92 102.15 39.92L103.21 40.12C103.25 40.13 103.3 40.13 103.34 40.13C103.56 40.13 103.77 40.03 103.91 39.85L104.55 38.99C104.62 38.93 104.7 38.89 104.78 38.89ZM104.78 38.56C104.59 38.56 104.42 38.65 104.31 38.8L103.67 39.66C103.6 39.76 103.48 39.81 103.36 39.81C103.34 39.81 103.31 39.81 103.29 39.8L102.23 39.6C102.19 39.59 102.15 39.59 102.12 39.59C101.9 39.59 101.7 39.71 101.59 39.91C101.49 40.11 101.5 40.34 101.63 40.52L102.25 41.4C102.33 41.52 102.34 41.67 102.27 41.8L101.76 42.74C101.66 42.93 101.66 43.15 101.77 43.33C101.88 43.51 102.07 43.62 102.28 43.62C102.34 43.62 102.4 43.61 102.46 43.59L103.49 43.27C103.53 43.26 103.56 43.25 103.6 43.25C103.7 43.25 103.81 43.29 103.88 43.37L104.62 44.15C104.73 44.27 104.89 44.34 105.05 44.34C105.38 44.34 105.64 44.08 105.65 43.75L105.67 42.68C105.67 42.53 105.76 42.4 105.89 42.34L106.86 41.88C107.08 41.78 107.21 41.55 107.2 41.31C107.19 41.07 107.03 40.86 106.8 40.78L105.78 40.43C105.64 40.38 105.54 40.26 105.53 40.12L105.39 39.06C105.33 38.78 105.08 38.56 104.78 38.56Z" fill="#E24782"/>
<path d="M100.1 38.4C99.91 38.4 99.75 38.3 99.66 38.13L98.66 36.21C98.57 36.03 98.38 35.92 98.17 35.92L95.99 35.97C95.77 35.97 95.6 35.85 95.52 35.66C95.44 35.47 95.48 35.26 95.62 35.12L97.14 33.57C97.29 33.42 97.33 33.2 97.27 33.01L96.56 30.96C96.51 30.81 96.53 30.64 96.62 30.51C96.71 30.38 96.87 30.3 97.03 30.3C97.11 30.3 97.18 30.32 97.25 30.35L99.19 31.31C99.27 31.35 99.35 31.37 99.43 31.37C99.55 31.37 99.67 31.33 99.76 31.26L101.49 29.95C101.58 29.88 101.68 29.85 101.79 29.85C101.94 29.85 102.08 29.91 102.17 30.03C102.27 30.14 102.31 30.28 102.28 30.43L101.96 32.57C101.93 32.78 102.02 32.98 102.19 33.1L103.97 34.34C104.14 34.46 104.22 34.66 104.17 34.86C104.12 35.06 103.97 35.21 103.77 35.24L101.63 35.6C101.42 35.63 101.26 35.78 101.2 35.98L100.57 38.05C100.51 38.25 100.32 38.4 100.1 38.4Z" fill="white"/>
<path d="M101.79 30.01C101.98 30.01 102.15 30.18 102.12 30.39L101.8 32.53C101.76 32.8 101.88 33.06 102.1 33.22L103.88 34.46C104.13 34.63 104.04 35.01 103.74 35.06L101.6 35.42C101.33 35.46 101.12 35.66 101.04 35.92L100.41 37.99C100.36 38.15 100.23 38.23 100.09 38.23C99.97 38.23 99.86 38.17 99.79 38.05L98.79 36.13C98.67 35.89 98.42 35.75 98.16 35.75H98.15L95.98 35.79H95.97C95.68 35.79 95.52 35.43 95.73 35.22L97.25 33.67C97.44 33.48 97.5 33.19 97.41 32.94L96.7 30.89C96.62 30.66 96.8 30.44 97.01 30.44C97.06 30.44 97.11 30.45 97.16 30.48L99.1 31.44C99.2 31.49 99.31 31.51 99.42 31.51C99.57 31.51 99.72 31.46 99.85 31.37L101.58 30.06C101.65 30.03 101.72 30.01 101.79 30.01ZM101.79 29.68C101.65 29.68 101.51 29.73 101.39 29.82L99.66 31.13C99.59 31.18 99.51 31.21 99.43 31.21C99.37 31.21 99.31 31.2 99.26 31.17L97.32 30.21C97.23 30.16 97.13 30.14 97.02 30.14C96.81 30.14 96.6 30.25 96.48 30.42C96.35 30.6 96.32 30.82 96.4 31.02L97.11 33.07C97.16 33.21 97.12 33.36 97.02 33.46L95.5 35.01C95.31 35.2 95.26 35.49 95.36 35.73C95.46 35.98 95.7 36.14 95.97 36.14L98.15 36.09C98.3 36.09 98.43 36.17 98.5 36.3L99.5 38.22C99.61 38.44 99.84 38.58 100.09 38.58C100.39 38.58 100.64 38.39 100.73 38.11L101.36 36.04C101.4 35.9 101.52 35.8 101.66 35.77L103.8 35.41C104.07 35.36 104.28 35.16 104.34 34.9C104.4 34.64 104.29 34.36 104.07 34.21L102.29 32.97C102.17 32.89 102.11 32.74 102.13 32.6L102.45 30.46C102.48 30.27 102.42 30.08 102.3 29.93C102.17 29.76 101.98 29.68 101.79 29.68Z" fill="#E24782"/>
</svg>
