<svg width="22" height="26" viewBox="0 0 22 26" fill="none" xmlns="http://www.w3.org/2000/svg">
<path d="M1.50008 7.14432L1.08405 7.42167L1.1255 7.48385L1.18332 7.53119L1.50008 7.14432ZM6.33172 5.6152C6.59173 5.7082 6.8779 5.57282 6.9709 5.31281C7.06391 5.0528 6.92852 4.76663 6.66851 4.67362L6.33172 5.6152ZM4.25942 8.75741L1.81683 6.75746L1.18332 7.53119L3.6259 9.53114L4.25942 8.75741ZM1.9161 6.86698C1.70991 6.55769 1.6514 6.31274 1.6552 6.13138C1.65894 5.95237 1.72404 5.79261 1.84167 5.64975C2.09192 5.34583 2.56501 5.14453 3 5.14453V4.14453C2.31669 4.14453 1.53983 4.44313 1.06969 5.01411C0.827123 5.3087 0.664423 5.68013 0.655417 6.11046C0.646459 6.53844 0.790244 6.98096 1.08405 7.42167L1.9161 6.86698ZM3 5.14453C3.62032 5.14453 3.95044 5.10308 4.42918 5.14276C4.87535 5.17975 5.42674 5.2915 6.33172 5.6152L6.66851 4.67362C5.70968 4.33066 5.07016 4.19247 4.5118 4.14618C3.98601 4.10259 3.49798 4.14453 3 4.14453V5.14453Z" fill="white"/>
<path d="M10.3622 5.84115L11 3C10.6486 1.46018 8.70549 1.27676 8.00002 2.14446C7.29455 3.01216 7.15845 3.27767 6.49996 5.14438" stroke="white" stroke-linecap="round"/>
<path d="M10.9987 24.7376C16.3774 24.7376 20.7376 20.3774 20.7376 14.9987C20.7376 9.62003 16.3774 5.25977 10.9987 5.25977C5.62003 5.25977 1.25977 9.62003 1.25977 14.9987C1.25977 20.3774 5.62003 24.7376 10.9987 24.7376Z" fill="#EC7FBC" stroke="white" stroke-miterlimit="10"/>
<path d="M6.75748 15.909C7.25956 15.909 7.66657 15.502 7.66657 14.9999C7.66657 14.4978 7.25956 14.0908 6.75748 14.0908C6.2554 14.0908 5.84839 14.4978 5.84839 14.9999C5.84839 15.502 6.2554 15.909 6.75748 15.909Z" fill="white"/>
<path d="M15.2423 14.6971C15.7444 14.6971 16.1514 14.2901 16.1514 13.788C16.1514 13.2859 15.7444 12.8789 15.2423 12.8789C14.7403 12.8789 14.3333 13.2859 14.3333 13.788C14.3333 14.2901 14.7403 14.6971 15.2423 14.6971Z" fill="white"/>
<path d="M13.4521 17.6505L10.7498 18.1729C10.3411 18.2519 10.0738 18.6473 10.1528 19.056L10.1536 19.0598C10.2326 19.4685 10.6279 19.7358 11.0367 19.6568L13.7389 19.1345C14.1476 19.0555 14.4149 18.6601 14.3359 18.2514L14.3352 18.2476C14.2562 17.8388 13.8608 17.5715 13.4521 17.6505Z" fill="#F99DCD" stroke="white"/>
<mask id="path-7-inside-1_242_3" fill="white">
<path d="M16.1295 11.0606L13.1211 12.2983L13.443 12.8926L16.4513 11.6549L16.1295 11.0606Z"/>
</mask>
<path d="M16.1295 11.0606L13.1211 12.2983L13.443 12.8926L16.4513 11.6549L16.1295 11.0606Z" fill="#403B14"/>
<path d="M13.1211 12.2983L12.6448 11.419L11.72 11.7995L12.1963 12.6788L13.1211 12.2983ZM16.1295 11.0606L17.0542 10.6801L16.578 9.80082L15.6532 10.1813L16.1295 11.0606ZM16.4513 11.6549L16.9276 12.5342L17.8524 12.1537L17.3761 11.2744L16.4513 11.6549ZM13.443 12.8926L12.5182 13.2731L12.9945 14.1524L13.9193 13.7719L13.443 12.8926ZM13.5974 13.1776L16.6057 11.9399L15.6532 10.1813L12.6448 11.419L13.5974 13.1776ZM15.2047 11.4411L15.5266 12.0353L17.3761 11.2744L17.0542 10.6801L15.2047 11.4411ZM15.9751 10.7756L12.9667 12.0133L13.9193 13.7719L16.9276 12.5342L15.9751 10.7756ZM14.3678 12.5121L14.0459 11.9179L12.1963 12.6788L12.5182 13.2731L14.3678 12.5121Z" fill="white" mask="url(#path-7-inside-1_242_3)"/>
<mask id="path-9-inside-2_242_3" fill="white">
<path d="M8.8788 12.8789H5.24243V13.485H8.8788V12.8789Z"/>
</mask>
<path d="M8.8788 12.8789H5.24243V13.485H8.8788V12.8789Z" fill="#403B14"/>
<path d="M5.24243 12.8789V11.8789H4.24243V12.8789H5.24243ZM8.8788 12.8789H9.8788V11.8789H8.8788V12.8789ZM8.8788 13.485V14.485H9.8788V13.485H8.8788ZM5.24243 13.485H4.24243V14.485H5.24243V13.485ZM5.24243 13.8789H8.8788V11.8789H5.24243V13.8789ZM7.8788 12.8789V13.485H9.8788V12.8789H7.8788ZM8.8788 12.485H5.24243V14.485H8.8788V12.485ZM6.24243 13.485V12.8789H4.24243V13.485H6.24243Z" fill="white" mask="url(#path-9-inside-2_242_3)"/>
<path d="M13.2704 15.9199L10.13 16.5269C9.58749 16.6318 9.2193 17.0872 9.30761 17.544C9.39592 18.0009 9.90729 18.2863 10.4498 18.1814L13.5903 17.5744C14.1328 17.4695 14.501 17.0142 14.4126 16.5573C14.3243 16.1004 13.813 15.815 13.2704 15.9199Z" fill="#F99DCD" stroke="white"/>
</svg>
