<svg width="64" height="98" viewBox="0 0 64 98" fill="none" xmlns="http://www.w3.org/2000/svg">
<g clip-path="url(#clip0_188_1384)">
<mask id="mask0_188_1384" style="mask-type:luminance" maskUnits="userSpaceOnUse" x="0" y="0" width="64" height="98">
<path d="M64 0.0698242H0V97.9999H64V0.0698242Z" fill="white"/>
</mask>
<g mask="url(#mask0_188_1384)">
<path d="M49.1801 62.4653C51.8601 64.8236 57.3601 64.4139 60.0001 61.8158C63.9901 57.9086 62.7201 47.8457 54.2301 37.9128C46.7301 49.1648 45.2801 59.0278 49.1701 62.4653H49.1801Z" fill="#FAE260" stroke="#5E3424"/>
<path d="M15.0698 75.8557C13.5198 76.6751 11.1598 78.244 10.2498 80.8821C9.98985 81.6216 9.57985 82.8407 10.2098 83.4803C10.7198 83.9999 11.7798 84.0099 12.8298 83.5202C12.8498 83.7301 12.9898 84.8393 13.8498 85.3789C14.8798 86.0185 16.5998 85.6387 17.6598 84.1898C18.3698 85.3689 19.3498 86.0284 20.0498 85.8286C20.8498 85.5988 21.0598 84.3197 21.1898 83.5502C21.3698 82.471 21.5098 80.2426 19.9198 77.3347L26.0398 63.8643L20.8798 61.5659C18.9298 66.3325 16.9898 71.0991 15.0498 75.8657L15.0698 75.8557Z" fill="#ED7A14" stroke="#5E3424"/>
<path d="M38.1899 86.3881C38.3899 86.7179 38.8299 87.4374 39.5899 87.5973C40.9999 87.887 42.3199 86.0284 42.3999 85.8985C43.3499 86.7279 44.6599 86.9877 45.7899 86.568C47.1999 86.0484 47.6899 84.7193 47.7599 84.5294C49.3799 84.8392 50.7299 84.5294 51.2199 83.72C51.5999 83.0805 51.3599 82.301 51.2199 81.8913C50.1899 78.7835 45.5099 76.5052 44.1499 75.8856L41.9899 63.2546L36.4099 64.184C37.0699 68.341 37.7399 72.498 38.4099 76.6551C38.0399 77.9142 36.4899 83.5801 38.1799 86.3881H38.1899Z" fill="#ED7A14" stroke="#5E3424"/>
<path d="M14.8 61.3361C12.12 63.6944 6.60996 63.2547 3.97996 60.6566C-4.31538e-05 56.7394 1.29996 46.6766 9.82996 36.7637C17.29 48.0456 18.71 57.9086 14.81 61.3361H14.8Z" fill="#FAE260" stroke="#5E3424"/>
<path d="M10.29 34.855C9.14 36.164 7.8 38.0027 6.77 40.381C2.83 49.5445 5.63 62.1555 14.2 69.2104C26.11 78.9934 46.75 76.0855 54.6 64.5238C59.29 57.6287 60.26 46.3967 55.95 40.6308C55.21 39.6415 53.77 38.2226 52.8 35.6144C51.6 32.4167 52.47 28.6894 51.74 25.3018C50.09 15.8785 40.92 8.81357 30.97 9.1833C24.33 9.29322 17.95 12.6608 14.33 17.967C12.25 20.9549 11.04 24.6323 10.94 28.3496C10.87 30.5181 10.97 32.7864 10.28 34.855H10.29Z" fill="#FAE260" stroke="#5E3424"/>
<path d="M18.0298 35.2048H44.2298C47.7898 35.2048 50.6698 38.0928 50.6698 41.6402V75.1863H11.5898V41.6402C11.5898 38.0828 14.4798 35.2048 18.0298 35.2048Z" fill="#F4F4F4" stroke="#231815" stroke-linecap="round" stroke-linejoin="round"/>
<path d="M35.3199 75.1963H26.9299V96.2013H35.3199V75.1963Z" fill="#F4F4F4" stroke="#231815" stroke-linecap="round" stroke-linejoin="round"/>
<path d="M50.6798 93.7329H11.5898V96.6308H50.6798V93.7329Z" fill="#F4F4F4" stroke="#231815" stroke-linecap="round" stroke-linejoin="round"/>
<path d="M31.4399 9.68301C31.4399 9.68301 41.9399 -2.83804 45.8499 1.35896C49.7599 5.55596 50.5699 17.3475 48.0599 19.7059C45.5499 22.0642 38.8799 20.7951 35.7799 19.0563C34.6999 18.4468 31.3299 15.7587 31.4399 14.6894C31.5499 13.6202 31.4399 9.67302 31.4399 9.67302V9.68301Z" fill="#FF88E9"/>
<mask id="mask1_188_1384" style="mask-type:luminance" maskUnits="userSpaceOnUse" x="31" y="0" width="19" height="21">
<path d="M31.4399 9.68301C31.4399 9.68301 41.9399 -2.83804 45.8499 1.35896C49.7599 5.55596 50.5699 17.3475 48.0599 19.7059C45.5499 22.0642 38.8799 20.7951 35.7799 19.0563C34.6999 18.4468 31.3299 15.7587 31.4399 14.6894C31.5499 13.6202 31.4399 9.67302 31.4399 9.67302V9.68301Z" fill="white"/>
</mask>
<g mask="url(#mask1_188_1384)">
<path d="M41.73 4.6866C42.6744 4.6866 43.44 3.92156 43.44 2.97782C43.44 2.03409 42.6744 1.26904 41.73 1.26904C40.7856 1.26904 40.02 2.03409 40.02 2.97782C40.02 3.92156 40.7856 4.6866 41.73 4.6866Z" fill="white"/>
<path d="M37.0899 11.4617C38.0343 11.4617 38.7999 10.6967 38.7999 9.75297C38.7999 8.80924 38.0343 8.04419 37.0899 8.04419C36.1455 8.04419 35.3799 8.80924 35.3799 9.75297C35.3799 10.6967 36.1455 11.4617 37.0899 11.4617Z" fill="white"/>
<path d="M47.7801 12.461C48.7245 12.461 49.4901 11.696 49.4901 10.7522C49.4901 9.8085 48.7245 9.04346 47.7801 9.04346C46.8357 9.04346 46.0701 9.8085 46.0701 10.7522C46.0701 11.696 46.8357 12.461 47.7801 12.461Z" fill="white"/>
<path d="M44.0201 20.0655C44.9645 20.0655 45.7301 19.3005 45.7301 18.3567C45.7301 17.413 44.9645 16.6479 44.0201 16.6479C43.0757 16.6479 42.3101 17.413 42.3101 18.3567C42.3101 19.3005 43.0757 20.0655 44.0201 20.0655Z" fill="white"/>
<path d="M33.96 18.9864C34.9044 18.9864 35.67 18.2214 35.67 17.2776C35.67 16.3339 34.9044 15.5688 33.96 15.5688C33.0156 15.5688 32.25 16.3339 32.25 17.2776C32.25 18.2214 33.0156 18.9864 33.96 18.9864Z" fill="white"/>
</g>
<path d="M31.4399 9.68301C31.4399 9.68301 41.9399 -2.83804 45.8499 1.35896C49.7599 5.55596 50.5699 17.3475 48.0599 19.7059C45.5499 22.0642 38.8799 20.7951 35.7799 19.0563C34.6999 18.4468 31.3299 15.7587 31.4399 14.6894C31.5499 13.6202 31.4399 9.67302 31.4399 9.67302V9.68301Z" stroke="#5E3424" stroke-linecap="round"/>
<path d="M25.9299 9.91297C25.9299 9.91297 15.5299 1.76878 12.3599 3.12781C8.49988 4.78663 6.04988 18.7866 10.5899 22.3641C15.1299 25.9415 26.8199 15.439 26.8199 15.439L25.9299 9.91297Z" fill="#FF88E9"/>
<mask id="mask2_188_1384" style="mask-type:luminance" maskUnits="userSpaceOnUse" x="8" y="2" width="19" height="22">
<path d="M25.9299 9.91297C25.9299 9.91297 15.5299 1.76878 12.3599 3.12781C8.49988 4.78663 6.04988 18.7866 10.5899 22.3641C15.1299 25.9415 26.8199 15.439 26.8199 15.439L25.9299 9.91297Z" fill="white"/>
</mask>
<g mask="url(#mask2_188_1384)">
<path d="M10.44 7.68465C11.3844 7.68465 12.15 6.9196 12.15 5.97587C12.15 5.03214 11.3844 4.26709 10.44 4.26709C9.49557 4.26709 8.72998 5.03214 8.72998 5.97587C8.72998 6.9196 9.49557 7.68465 10.44 7.68465Z" fill="white"/>
<path d="M18.3999 10.9923C19.3443 10.9923 20.1099 10.2272 20.1099 9.28349C20.1099 8.33975 19.3443 7.57471 18.3999 7.57471C17.4555 7.57471 16.6899 8.33975 16.6899 9.28349C16.6899 10.2272 17.4555 10.9923 18.3999 10.9923Z" fill="white"/>
<path d="M11.5501 17.1478C12.4945 17.1478 13.2601 16.3827 13.2601 15.439C13.2601 14.4953 12.4945 13.7302 11.5501 13.7302C10.6057 13.7302 9.84009 14.4953 9.84009 15.439C9.84009 16.3827 10.6057 17.1478 11.5501 17.1478Z" fill="white"/>
<path d="M18.1099 21.3648C19.0543 21.3648 19.8199 20.5998 19.8199 19.656C19.8199 18.7123 19.0543 17.9473 18.1099 17.9473C17.1655 17.9473 16.3999 18.7123 16.3999 19.656C16.3999 20.5998 17.1655 21.3648 18.1099 21.3648Z" fill="white"/>
<path d="M24.0799 15.619C25.0243 15.619 25.7899 14.8539 25.7899 13.9102C25.7899 12.9665 25.0243 12.2014 24.0799 12.2014C23.1355 12.2014 22.3699 12.9665 22.3699 13.9102C22.3699 14.8539 23.1355 15.619 24.0799 15.619Z" fill="white"/>
</g>
<path d="M25.9299 9.91297C25.9299 9.91297 15.5299 1.76878 12.3599 3.12781C8.49988 4.78663 6.04988 18.7866 10.5899 22.3641C15.1299 25.9415 26.8199 15.439 26.8199 15.439L25.9299 9.91297Z" stroke="#5E3424" stroke-linecap="round"/>
<path d="M20.21 10.1526C20.21 10.1526 23.37 10.1926 24.08 11.3426L20.21 10.1526Z" fill="#FF88E9"/>
<path d="M20.21 10.1526C20.21 10.1526 23.37 10.1926 24.08 11.3426" stroke="#5E3424" stroke-linecap="round"/>
<path d="M20.49 14.3104C20.49 14.3104 23.47 14.7904 25.03 13.4204L20.49 14.3104Z" fill="#FF88E9"/>
<path d="M20.49 14.3104C20.49 14.3104 23.47 14.7904 25.03 13.4204" stroke="#5E3424" stroke-linecap="round"/>
<path d="M31.7998 10.7528C31.7998 10.7528 34.1098 9.75279 35.3698 10.1528L31.7998 10.7528Z" fill="#FF88E9"/>
<path d="M31.7998 10.7528C31.7998 10.7528 34.1098 9.75279 35.3698 10.1528" stroke="#5E3424" stroke-linecap="round"/>
<path d="M32.2498 13.0405C32.2498 13.0405 33.5498 15.0591 34.9998 14.9092L32.2498 13.0405Z" fill="#FF88E9"/>
<path d="M32.2498 13.0405C32.2498 13.0405 33.5498 15.0591 34.9998 14.9092" stroke="#5E3424" stroke-linecap="round"/>
<path d="M30.6298 17.1577C28.7698 17.1776 27.3898 17.5274 25.7698 16.9278C25.4798 16.7979 25.2198 16.618 24.9998 16.3982C24.7798 16.1784 24.5998 15.9185 24.4698 15.6288C23.9398 13.7301 23.9398 11.6616 24.4698 9.84289C24.5998 9.55309 24.7798 9.29328 24.9998 9.07344C25.2198 8.85359 25.4798 8.67372 25.7698 8.54382C27.7298 7.8643 29.4598 7.8643 31.5598 8.54382C31.8498 8.67372 32.1098 8.85359 32.3298 9.07344C32.5498 9.29328 32.7298 9.55309 32.8598 9.84289C33.5998 11.6616 33.5998 13.7301 32.8598 15.6288C32.7298 15.9185 32.5498 16.1784 32.3298 16.3982C32.1098 16.618 31.8498 16.7979 31.5598 16.9278C31.2698 17.0577 30.9598 17.1377 30.6298 17.1577Z" fill="#FF88E9"/>
<mask id="mask3_188_1384" style="mask-type:luminance" maskUnits="userSpaceOnUse" x="24" y="8" width="10" height="10">
<path d="M30.6298 17.1577C28.7698 17.1776 27.3898 17.5274 25.7698 16.9278C25.4798 16.7979 25.2198 16.618 24.9998 16.3982C24.7798 16.1784 24.5998 15.9185 24.4698 15.6288C23.9398 13.7301 23.9398 11.6616 24.4698 9.84289C24.5998 9.55309 24.7798 9.29328 24.9998 9.07344C25.2198 8.85359 25.4798 8.67372 25.7698 8.54382C27.7298 7.8643 29.4598 7.8643 31.5598 8.54382C31.8498 8.67372 32.1098 8.85359 32.3298 9.07344C32.5498 9.29328 32.7298 9.55309 32.8598 9.84289C33.5998 11.6616 33.5998 13.7301 32.8598 15.6288C32.7298 15.9185 32.5498 16.1784 32.3298 16.3982C32.1098 16.618 31.8498 16.7979 31.5598 16.9278C31.2698 17.0577 30.9598 17.1377 30.6298 17.1577Z" fill="white"/>
</mask>
<g mask="url(#mask3_188_1384)">
<path d="M27.7598 11.002C28.7042 11.002 29.4698 10.237 29.4698 9.29325C29.4698 8.34952 28.7042 7.58447 27.7598 7.58447C26.8154 7.58447 26.0498 8.34952 26.0498 9.29325C26.0498 10.237 26.8154 11.002 27.7598 11.002Z" fill="white"/>
<path d="M30.4598 18.9864C31.4042 18.9864 32.1698 18.2214 32.1698 17.2776C32.1698 16.3339 31.4042 15.5688 30.4598 15.5688C29.5153 15.5688 28.7498 16.3339 28.7498 17.2776C28.7498 18.2214 29.5153 18.9864 30.4598 18.9864Z" fill="white"/>
</g>
<path d="M30.6298 17.1577C28.7698 17.1776 27.3898 17.5274 25.7698 16.9278C25.4798 16.7979 25.2198 16.618 24.9998 16.3982C24.7798 16.1784 24.5998 15.9185 24.4698 15.6288C23.9398 13.7301 23.9398 11.6616 24.4698 9.84289C24.5998 9.55309 24.7798 9.29328 24.9998 9.07344C25.2198 8.85359 25.4798 8.67372 25.7698 8.54382C27.7298 7.8643 29.4598 7.8643 31.5598 8.54382C31.8498 8.67372 32.1098 8.85359 32.3298 9.07344C32.5498 9.29328 32.7298 9.55309 32.8598 9.84289C33.5998 11.6616 33.5998 13.7301 32.8598 15.6288C32.7298 15.9185 32.5498 16.1784 32.3298 16.3982C32.1098 16.618 31.8498 16.7979 31.5598 16.9278C31.2698 17.0577 30.9598 17.1377 30.6298 17.1577Z" stroke="#5E3424" stroke-linecap="round"/>
</g>
</g>
<defs>
<clipPath id="clip0_188_1384">
<rect width="64" height="98" fill="white"/>
</clipPath>
</defs>
</svg>
