<svg width="268" height="104" viewBox="0 0 268 104" preserveAspectRatio='none' fill="none" xmlns="http://www.w3.org/2000/svg">
<g clip-path="url(#clip0_188_17644)">
<mask id="mask0_188_17644" style="mask-type:luminance" maskUnits="userSpaceOnUse" x="0" y="0" width="268" height="104">
<path d="M268 0H0V104H268V0Z" fill="white"/>
</mask>
<g mask="url(#mask0_188_17644)">
<path d="M14.9999 73.8999H12.4399V101.08H14.9999V73.8999Z" fill="#F4F4F4" stroke="#231815" stroke-miterlimit="10"/>
<path d="M25.0997 76.95H-44.2403L-44.2603 73.5H25.0797L25.0997 76.95Z" fill="#F4F4F4" stroke="#231815" stroke-miterlimit="10"/>
<path d="M37.6899 73.8999H35.1299V101.08H37.6899V73.8999Z" fill="#F4F4F4" stroke="#231815" stroke-miterlimit="10"/>
<path d="M84.29 73.8999H81.73V101.08H84.29V73.8999Z" fill="#F4F4F4" stroke="#231815" stroke-miterlimit="10"/>
<path d="M94.3898 76.95H25.0498L25.0298 73.5H94.3698L94.3898 76.95Z" fill="#F4F4F4" stroke="#231815" stroke-miterlimit="10"/>
<path d="M63.7398 2.91992H-13.5402C-13.5402 2.91992 -27.8802 24.3099 -52.1802 39.4799H102.39C78.0798 24.3099 63.7398 2.91992 63.7398 2.91992Z" fill="#4184F9" stroke="#231815" stroke-linejoin="round"/>
<path d="M26.3798 39.49H23.8198V101.08H26.3798V39.49Z" fill="#F4F4F4" stroke="#231815" stroke-miterlimit="10"/>
<path d="M102.39 39.49H99.8301V101.08H102.39V39.49Z" fill="#F4F4F4" stroke="#231815" stroke-miterlimit="10"/>
<path d="M102.39 39.49H-52.1802V44.8H102.39V39.49Z" fill="#4184F9" stroke="#231815" stroke-linejoin="round"/>
<path d="M132.2 73.8999H129.64V101.08H132.2V73.8999Z" fill="#F4F4F4" stroke="#231815" stroke-miterlimit="10"/>
<path d="M178.8 73.8999H176.24V101.08H178.8V73.8999Z" fill="#F4F4F4" stroke="#231815" stroke-miterlimit="10"/>
<path d="M188.9 76.95H119.56L119.54 73.5H188.88L188.9 76.95Z" fill="#F4F4F4" stroke="#231815" stroke-miterlimit="10"/>
<path d="M201.49 73.8999H198.93V101.08H201.49V73.8999Z" fill="#F4F4F4" stroke="#231815" stroke-miterlimit="10"/>
<path d="M248.09 73.8999H245.53V101.08H248.09V73.8999Z" fill="#F4F4F4" stroke="#231815" stroke-miterlimit="10"/>
<path d="M258.19 76.95H188.85L188.83 73.5H258.17L258.19 76.95Z" fill="#F4F4F4" stroke="#231815" stroke-miterlimit="10"/>
<path d="M227.54 2.91992H150.26C150.26 2.91992 135.92 24.3099 111.62 39.4799H266.19C241.89 24.2999 227.55 2.91992 227.55 2.91992H227.54Z" fill="#4184F9" stroke="#231815" stroke-linejoin="round"/>
<path d="M114.17 39.49H111.61V101.08H114.17V39.49Z" fill="#F4F4F4" stroke="#231815" stroke-miterlimit="10"/>
<path d="M190.18 39.49H187.62V101.08H190.18V39.49Z" fill="#F4F4F4" stroke="#231815" stroke-miterlimit="10"/>
<path d="M266.19 39.49H263.63V101.08H266.19V39.49Z" fill="#F4F4F4" stroke="#231815" stroke-miterlimit="10"/>
<path d="M266.18 39.49H111.61V44.8H266.18V39.49Z" fill="#4184F9" stroke="#231815" stroke-linejoin="round"/>
</g>
</g>
<defs>
<clipPath id="clip0_188_17644">
<rect width="268" height="104" fill="white"/>
</clipPath>
</defs>
</svg>
