<svg width="452" height="666" viewBox="0 0 452 666" fill="none" xmlns="http://www.w3.org/2000/svg">
<path opacity="0.22" d="M398.29 665.7H53.71C24.59 665.7 0.97998 642.09 0.97998 612.97V52.73C0.97998 23.61 24.59 0 53.71 0H398.29C427.41 0 451.02 23.61 451.02 52.73V612.97C451.02 642.09 427.41 665.7 398.29 665.7Z" fill="white"/>
<path d="M58.44 53.26L56.89 55.29C54.88 54.31 53.53 52.5 52.78 50.27C52.01 52.65 50.6 54.6 48.55 55.62L46.96 53.55C50.05 52.15 51.46 48.65 51.48 45.25V42.56H54.04V45.25C54.07 48.64 55.43 51.96 58.44 53.26ZM56.41 46.83H59.99V41.13H62.47V59.27H59.99V48.86H56.41V46.83Z" fill="white"/>
<path d="M64.78 48.34H81.3V50.29H74.26V51.51H79.26V56.11H69.18V57.21H79.76V59.12H66.69V54.36H76.78V53.38H66.69V51.51H71.73V50.29H64.77V48.34H64.78ZM79.59 44.39C79.59 46.4 77.19 47.5 73.04 47.48C68.85 47.5 66.43 46.4 66.45 44.39C66.43 42.42 68.85 41.32 73.04 41.3C77.19 41.32 79.59 42.42 79.59 44.39ZM73.04 45.65C75.7 45.63 76.99 45.28 76.99 44.39C76.99 43.6 75.71 43.19 73.04 43.17C70.38 43.19 69.09 43.6 69.09 44.39C69.09 45.29 70.38 45.63 73.04 45.65Z" fill="white"/>
<path d="M82.88 43.25H89.63V45.28H85.4V53.01C87.15 52.99 88.69 52.89 90.44 52.56L90.64 54.63C88.42 55.06 86.51 55.12 84.13 55.12H82.87V43.25H82.88ZM97.97 59.24H95.57V50.17H93.86V58.35H91.5V41.47H93.86V48.14H95.57V41.14H97.97V59.24Z" fill="white"/>
<path d="M110.66 44.76H99.9199V42.77H104.03V41.06H106.55V42.77H110.66V44.76ZM105.29 45.37C107.91 45.37 109.74 46.71 109.77 48.71C109.75 50.68 107.92 52.03 105.29 52C102.67 52.02 100.82 50.68 100.82 48.71C100.82 46.71 102.67 45.37 105.29 45.37ZM102.12 53.26H114.28V59.24H111.72V55.29H102.12V53.26ZM105.29 50.09C106.51 50.09 107.32 49.62 107.32 48.71C107.32 47.77 106.51 47.27 105.29 47.25C104.09 47.27 103.28 47.78 103.3 48.71C103.28 49.62 104.09 50.09 105.29 50.09ZM111.72 41.14H114.28V45.86H116.72V47.93H114.28V52.49H111.72V41.14Z" fill="white"/>
<path d="M117.49 54.97H120.99V49.27H123.55V54.97H125.54V49.27H128.02V54.97H134V57.04H117.48V54.97H117.49ZM132.5 44.48C132.48 46.7 132.48 49.18 131.81 52.82L129.33 52.62C129.92 49.3 129.94 46.88 129.94 44.77H119.12V42.74H132.5V44.48Z" fill="white"/>
<path d="M156.25 51.88H139.73V49.85H146.69V48.43H141.85V41.55H144.33V43.18H151.61V41.55H154.13V48.43H149.25V49.85H156.25V51.88ZM141.65 53.02H154.26V59.04H141.65V53.02ZM151.78 57V55.01H144.17V57H151.78ZM151.62 46.43V45.05H144.34V46.43H151.62Z" fill="white"/>
<path d="M178.5 52.08H171.46V53.63H176.46V59.2H173.94V55.66H163.81V53.63H168.94V52.08H161.98V50.05H178.5V52.08ZM168.76 44.76H163.57V42.81H168.94V41.18H171.46V42.81H176.87V44.76H171.66C171.95 46.08 173.8 47.24 177.72 47.53L176.95 49.4C173.63 49.18 171.34 48.22 170.2 46.76C169.06 48.22 166.76 49.18 163.45 49.4L162.68 47.53C166.6 47.24 168.45 46.08 168.76 44.76Z" fill="white"/>
<path d="M182.85 46.02V45.04H179.88V43.01H188.02V45.04H185.29V46.02C185.27 49.01 186.23 52.04 188.87 53.55L187.36 55.42C185.73 54.46 184.7 52.86 184.09 50.92C183.46 53.01 182.38 54.8 180.73 55.82L179.18 53.95C181.85 52.33 182.85 49.07 182.85 46.02ZM186.76 47.36H189.12V41.46H191.48V58.38H189.12V49.39H186.76V47.36ZM195.18 59.24H192.78V41.14H195.18V59.24Z" fill="white"/>
<path d="M201.23 42.44C203.39 42.44 204.89 44.47 205.18 47.85H206.64V41.42H209.04V58.38H206.64V49.88H205.18C204.96 53.42 203.45 55.55 201.23 55.53C198.83 55.55 197.28 53.05 197.28 48.98C197.29 44.94 198.83 42.44 201.23 42.44ZM201.23 53.14C202.27 53.14 202.88 51.78 202.86 48.99C202.88 46.22 202.27 44.84 201.23 44.84C200.21 44.84 199.6 46.22 199.6 48.99C199.61 51.78 200.22 53.14 201.23 53.14ZM212.79 59.24H210.39V41.14H212.79V59.24Z" fill="white"/>
<path d="M294.86 42.44C297.58 42.44 299.6 44.92 299.62 48.87C299.6 52.84 297.59 55.34 294.86 55.34C292.09 55.34 290.06 52.84 290.06 48.87C290.06 44.92 292.09 42.44 294.86 42.44ZM294.86 53.02C296.22 53.02 297.16 51.58 297.18 48.87C297.16 46.19 296.22 44.72 294.86 44.72C293.46 44.72 292.5 46.18 292.5 48.87C292.5 51.57 293.45 53.02 294.86 53.02ZM304.66 59.28H302.1V41.14H304.66V59.28Z" fill="white"/>
<path d="M322.07 44.92H318.45C318.49 46.71 319.79 48.52 322.68 49.23L321.54 51.18C319.47 50.65 318.02 49.53 317.21 48.09C316.4 49.68 314.95 50.94 312.84 51.51L311.66 49.52C314.53 48.79 315.89 46.88 315.93 44.92H312.27V42.93H315.93V41.1H318.49V42.93H322.07V44.92ZM318.77 54.24H314.17V52.25H326.33V54.24H321.73C322.2 55.58 323.99 56.86 327.14 57.25L326.2 59.2C323.31 58.81 321.28 57.65 320.24 56.11C319.18 57.66 317.17 58.77 314.28 59.16L313.39 57.25C316.55 56.84 318.32 55.6 318.77 54.24ZM323.57 41.14H326.13V45.21H328.57V47.33H326.13V51.48H323.57V41.14Z" fill="white"/>
<path d="M338.99 48.87C338.97 52.84 336.98 55.34 334.23 55.34C331.44 55.34 329.45 52.84 329.47 48.87C329.45 44.92 331.44 42.44 334.23 42.44C336.97 42.44 338.96 44.92 338.99 48.87ZM334.23 53.02C335.63 53.02 336.55 51.58 336.55 48.87C336.55 46.19 335.63 44.72 334.23 44.72C332.85 44.72 331.89 46.18 331.91 48.87C331.89 51.57 332.84 53.02 334.23 53.02ZM341.06 41.14H343.62V47.97H346.26V50.09H343.62V59.24H341.06V41.14Z" fill="white"/>
<path d="M353.42 44.11H347.76V42.12H356.22C356.24 46.92 353.27 49.95 347.76 51.19L346.82 49.16C351.06 48.26 353.14 46.33 353.42 44.11ZM349.4 51.68H351.92V53.43H358.71V51.68H361.27V59.04H349.4V51.68ZM358.71 57V55.37H351.92V57H358.71ZM361.27 45.08H363.71V47.15H361.27V50.97H358.71V41.13H361.27V45.08Z" fill="white"/>
<path d="M365.46 42.89H367.98V52.61C370.42 52.57 373.04 52.35 375.71 51.84L375.99 53.91C372.84 54.58 369.85 54.78 367.04 54.76H365.45V42.89H365.46ZM379.7 59.24H377.18V41.14H379.7V59.24Z" fill="white"/>
<path d="M382.79 42.85H391.25V44.88H385.31V52.81C387.93 52.77 390.09 52.65 392.47 52.24L392.75 54.36C389.96 54.83 387.5 54.91 384.29 54.89H382.78V42.85H382.79ZM396.33 47.89H398.97V49.92H396.33V59.28H393.77V41.14H396.33V47.89Z" fill="white"/>
<path d="M402.23 54.28C403.1 54.26 403.88 55.01 403.9 55.91C403.88 56.85 403.11 57.6 402.23 57.58C401.29 57.6 400.52 56.85 400.56 55.91C400.52 55.01 401.29 54.26 402.23 54.28ZM403.49 53.1H400.93L400.69 43.01H403.74L403.49 53.1Z" fill="white"/>
<path d="M89.5499 115.97H98.3399V118H92.1199V126.01C95.3299 126.01 97.3499 125.93 99.6099 125.52L99.8499 127.59C97.3499 128.08 95.0299 128.16 91.1399 128.16H89.5499V115.97ZM103.58 132.49H101.02V114.35H103.58V132.49Z" fill="white"/>
<path d="M117.58 126.59L116.2 128.58C114.08 127.69 112.6 125.87 111.79 123.7C110.98 126.08 109.47 128.05 107.34 129.03L105.92 127.04C108.91 125.72 110.46 122.36 110.48 119.31V118.17H106.62V116.1H116.83V118.17H113.05V119.31C113.04 122.22 114.54 125.35 117.58 126.59ZM118.59 114.35H121.15V132.45H118.59V114.35Z" fill="white"/>
<path d="M132.83 117.36H126.97V118.46H132.3V120.37H126.97V121.59C129.63 121.59 131.4 121.53 133.48 121.22L133.68 123.21C131.28 123.56 129.23 123.58 125.87 123.58H124.45V115.36H132.83V117.36ZM126.81 127.53H136.33V126.55H126.81V124.6H138.85V129.36H129.37V130.38H139.38V132.33H126.81V127.53ZM133.35 118.21H136.32V114.35H138.84V123.95H136.32V120.21H133.35V118.21Z" fill="white"/>
<path d="M156.94 126.59L155.52 128.58C153.51 127.66 152.08 125.81 151.29 123.66C150.48 126.04 148.99 128.05 146.9 129.03L145.44 127.04C148.45 125.64 149.98 122.28 150 119.31V118.17H146.18V116.1H156.19V118.17H152.53V119.31C152.51 122.06 153.97 125.23 156.94 126.59ZM157.55 114.35H160.11V121.27H162.75V123.39H160.11V132.46H157.55V114.35Z" fill="white"/>
<path d="M174.31 122.97L172.97 124.96C171 124.29 169.66 122.99 168.86 121.34C168.07 123.15 166.62 124.57 164.55 125.29L163.13 123.3C166.2 122.34 167.54 119.9 167.56 117.44V115.49H170.08V117.48C170.08 119.78 171.38 122.04 174.31 122.97ZM166.01 126.31H168.61V130.09H178.41V132.12H166V126.31H166.01ZM175.21 114.39H177.77V119.6H180.21V121.76H177.77V127.62H175.21V114.39Z" fill="white"/>
<path d="M183.09 134.81H180.97L181.95 129.16H184.8L183.09 134.81Z" fill="white"/>
<path d="M200.48 120.9H203.63V114.35H206.11V132.49H203.63V122.93H200.5C200.24 126.39 198.36 128.54 195.86 128.54C193.09 128.54 191.14 126.04 191.14 122.07C191.14 118.12 193.09 115.64 195.86 115.64C198.29 115.65 200.12 117.64 200.48 120.9ZM195.86 126.23C197.22 126.23 198.12 124.79 198.14 122.08C198.12 119.4 197.22 117.93 195.86 117.93C194.5 117.93 193.56 119.39 193.58 122.08C193.57 124.78 194.5 126.23 195.86 126.23Z" fill="white"/>
<path d="M209.12 115.04H217.09V120.45H211.64V122.08C214.32 122.06 215.91 122 217.82 121.67L217.98 123.7C215.86 124.07 214.01 124.13 210.5 124.11H209.16V118.58H214.57V117.07H209.12V115.04ZM211.52 125.17H214.04V126.76H221.16V125.17H223.68V132.25H211.52V125.17ZM221.16 130.21V128.7H214.04V130.21H221.16ZM223.69 124.48H221.17V122H218.16V119.97H221.17V118.42H218.16V116.39H221.17V114.4H223.69V124.48Z" fill="white"/>
<path d="M231.39 118.54H226.77V116.51H233.89C233.89 118.24 233.71 119.87 233.28 121.35H235.44V114.8H237.84V131.64H235.44V123.34H232.51C231.47 125.41 229.8 127.2 227.22 128.67L225.8 126.92C229.46 124.74 231.04 122.1 231.39 118.54ZM241.66 132.45H239.3V114.35H241.66V132.45Z" fill="white"/>
<path d="M248.25 128.18H264.81V130.3H248.25V128.18ZM263.01 124.44H250.11V115.94H252.63V122.37H263V124.44H263.01Z" fill="white"/>
<path d="M268.87 118.29H266.35V116.22H271.31C271.29 121.08 270.64 124.97 267.53 128.42L265.58 127C267.85 124.42 268.66 121.83 268.87 118.29ZM280.95 132.45H278.43V125.7H274.85C274.32 127.06 273.59 128.39 272.61 129.61L270.58 128.31C272.88 125.3 273.67 122.27 273.83 118.3H271.84V116.23H276.23C276.23 117.13 276.21 117.98 276.17 118.83H278.43V114.36H280.95V132.45ZM278.43 123.7V120.85H275.99C275.89 121.83 275.73 122.78 275.48 123.7H278.43Z" fill="white"/>
<path d="M294.94 126.59L293.56 128.58C291.44 127.69 289.96 125.87 289.15 123.7C288.34 126.08 286.83 128.05 284.7 129.03L283.28 127.04C286.27 125.72 287.82 122.36 287.84 119.31V118.17H283.98V116.1H294.19V118.17H290.41V119.31C290.4 122.22 291.91 125.35 294.94 126.59ZM295.96 114.35H298.52V132.45H295.96V114.35Z" fill="white"/>
<path d="M305.19 116.71V115.04H307.75V116.71C307.73 119.15 308.95 121.63 311.86 122.65L310.4 124.64C308.51 123.93 307.23 122.57 306.45 120.84C305.66 122.67 304.29 124.11 302.26 124.89L300.84 122.9C303.87 121.81 305.17 119.31 305.19 116.71ZM305.31 125.9V125.41H307.79V125.9C307.77 127.38 308.38 128.91 309.86 129.95C311.32 128.85 311.94 127.27 311.98 125.9V125.41H314.46V125.9C314.46 127.79 315.44 129.58 317.92 130.33L316.62 132.2C314.91 131.61 313.79 130.49 313.16 129.09C312.55 130.47 311.49 131.71 309.87 132.36C308.2 131.75 307.14 130.55 306.53 129.13C305.9 130.49 304.8 131.59 303.15 132.2L301.93 130.33C304.29 129.54 305.31 127.71 305.31 125.9ZM316.21 124.76H313.69V121.59H310.68V119.6H313.69V118.22H310.68V116.19H313.69V114.36H316.21V124.76Z" fill="white"/>
<path d="M319.1 116.1H321.62V125.9C323.94 125.86 326.4 125.66 329.02 125.13L329.3 127.25C326.27 127.84 323.34 128 320.68 127.98H319.09V116.1H319.1ZM335.37 123.3H332.81V132.41H330.25V114.35H332.81V121.23H335.37V123.3Z" fill="white"/>
<path d="M352.65 130.33H336.1V128.26H339.8V123.83C338.4 122.98 337.56 121.69 337.56 120.09C337.56 117.2 340.43 115.25 344.35 115.25C348.26 115.25 351.14 117.2 351.14 120.09C351.14 121.68 350.31 122.96 348.94 123.79V128.26H352.64V130.33H352.65ZM344.35 122.97C346.89 122.97 348.64 121.87 348.66 120.08C348.64 118.29 346.89 117.23 344.35 117.23C341.75 117.23 340.06 118.29 340.04 120.08C340.06 121.87 341.75 122.97 344.35 122.97ZM346.39 128.26V124.74C345.76 124.86 345.07 124.92 344.36 124.92C343.65 124.92 342.96 124.86 342.33 124.74V128.26H346.39Z" fill="white"/>
<path d="M358.71 122.12C359.56 121.57 360.21 120.96 360.21 120.05C360.21 119.03 359.44 118.4 358.46 118.38C357.54 118.4 356.69 119.01 356.63 120.17H353.82C353.88 117.38 355.96 116.04 358.5 116.06C361.27 116.04 363.22 117.48 363.22 119.92C363.22 121.57 362.39 122.6 361.06 123.38C359.96 124.05 359.45 124.7 359.43 126.11V126.31H356.83V126.11C356.84 123.62 357.51 122.87 358.71 122.12ZM358.22 127.49C359.1 127.47 359.87 128.22 359.89 129.12C359.87 130.06 359.1 130.81 358.22 130.79C357.28 130.81 356.51 130.06 356.55 129.12C356.51 128.22 357.29 127.47 358.22 127.49Z" fill="white"/>
<path d="M61.51 140.05C64.24 140.05 66.25 142.53 66.27 146.48C66.25 150.45 64.24 152.95 61.51 152.95C58.74 152.95 56.71 150.45 56.71 146.48C56.71 142.53 58.74 140.05 61.51 140.05ZM61.51 150.63C62.87 150.63 63.81 149.19 63.83 146.48C63.81 143.8 62.87 142.33 61.51 142.33C60.11 142.33 59.15 143.79 59.15 146.48C59.15 149.18 60.11 150.63 61.51 150.63ZM71.31 156.89H68.75V138.75H71.31V156.89Z" fill="white"/>
<path d="M89 152.13H86.48V145.62H83.14V149.28H74.52V139.96H77.08V142.73H80.62V139.96H83.14V143.58H86.48V138.78H89V152.13ZM76.96 150.79H79.52V154.49H89.36V156.52H76.95V150.79H76.96ZM80.62 147.29V144.69H77.08V147.29H80.62Z" fill="white"/>
<path d="M112.51 149.69H105.47V151.24H110.47V156.81H107.95V153.27H97.82V151.24H102.95V149.69H96V147.66H112.52V149.69H112.51ZM102.77 142.37H97.58V140.42H102.95V138.79H105.47V140.42H110.88V142.37H105.67C105.96 143.69 107.81 144.85 111.73 145.14L110.96 147.01C107.64 146.79 105.35 145.83 104.21 144.37C103.07 145.83 100.77 146.79 97.46 147.01L96.69 145.14C100.61 144.85 102.46 143.69 102.77 142.37Z" fill="white"/>
<path d="M116.86 143.63V142.65H113.89V140.62H122.03V142.65H119.3V143.63C119.28 146.62 120.24 149.65 122.88 151.16L121.37 153.03C119.74 152.07 118.71 150.47 118.1 148.53C117.47 150.62 116.39 152.41 114.74 153.43L113.19 151.56C115.86 149.94 116.86 146.68 116.86 143.63ZM120.77 144.97H123.13V139.07H125.49V156H123.13V147.01H120.77V144.97ZM129.19 156.85H126.79V138.75H129.19V156.85Z" fill="white"/>
<path d="M135.24 140.05C137.4 140.05 138.9 142.08 139.19 145.46H140.65V139.03H143.05V156H140.65V147.5H139.19C138.97 151.04 137.46 153.17 135.24 153.15C132.84 153.17 131.29 150.67 131.29 146.6C131.3 142.55 132.84 140.05 135.24 140.05ZM135.24 150.75C136.28 150.75 136.89 149.39 136.87 146.6C136.89 143.83 136.28 142.45 135.24 142.45C134.22 142.45 133.61 143.83 133.61 146.6C133.62 149.39 134.23 150.75 135.24 150.75ZM146.8 156.85H144.4V138.75H146.8V156.85Z" fill="white"/>
<path d="M159.93 150.87L158.38 152.9C156.37 151.92 155.02 150.11 154.27 147.88C153.5 150.26 152.09 152.21 150.04 153.23L148.45 151.16C151.54 149.76 152.95 146.26 152.97 142.86V140.17H155.53V142.86C155.56 146.25 156.92 149.57 159.93 150.87ZM157.9 144.44H161.48V138.74H163.96V156.88H161.48V146.47H157.9V144.44Z" fill="white"/>
<path d="M182.63 145.91L182.75 147.7C181.37 147.94 179.92 148.09 178.52 148.21V150.31H176.2V151.45H183.64V149.95H186.12V156.66H173.67V149.95H176V148.34C174.31 148.4 172.71 148.4 171.28 148.4L170.99 146.41C174.35 146.4 178.76 146.4 182.63 145.91ZM175.79 139.97V139.24H178.39V139.97C178.39 141.5 179.71 142.94 182.54 143.47L181.44 145.38C179.37 144.97 177.92 144 177.13 142.72C176.34 144.12 174.87 145.2 172.74 145.67L171.6 143.76C174.49 143.16 175.79 141.62 175.79 139.97ZM183.65 154.65V153.39H176.21V154.65H183.65ZM183.6 138.79H186.12V149.2H183.6V138.79Z" fill="white"/>
<path d="M188.52 152.58H194.42V146.36H196.94V152.58H205.04V154.65H188.52V152.58ZM203.41 142.04C203.41 144.3 203.41 146.84 202.72 150.71L200.16 150.43C200.83 147.03 200.87 144.51 200.89 142.38H190.23V140.35H203.41V142.04Z" fill="white"/>
<path d="M214.06 143.22V142.65H211.01V140.66H219.31V142.65H216.54V143.22C216.52 146.39 217.48 149.38 220.2 150.83L218.74 152.74C217.07 151.85 215.99 150.34 215.36 148.49C214.75 150.63 213.67 152.38 211.94 153.39L210.39 151.44C213.15 149.9 214.06 146.7 214.06 143.22ZM226.55 156.85H224.11V147.78H222.6V156H220.2V139.04H222.6V145.75H224.11V138.75H226.55V156.85Z" fill="white"/>
<path d="M237.98 152.54H229.23V140.42H237.98V152.54ZM235.54 150.55V142.37H231.76V150.55H235.54ZM240.91 138.75H243.47V156.89H240.91V138.75Z" fill="white"/>
<path d="M251.16 139.68C253.97 139.7 256.08 141.49 256.08 144.03C256.08 146.57 253.96 148.36 251.16 148.34C248.31 148.36 246.2 146.57 246.2 144.03C246.2 141.49 248.31 139.71 251.16 139.68ZM254.57 154.31C256.06 153.27 256.73 151.73 256.73 150.38V149.73H259.21V150.38C259.21 152.25 260.21 154 262.63 154.73L261.37 156.56C259.66 155.99 258.52 154.89 257.91 153.51C257.3 154.89 256.26 156.09 254.66 156.72C252.95 156.11 251.89 154.95 251.3 153.55C250.65 154.91 249.53 155.99 247.86 156.56L246.64 154.73C249 153.92 250.02 152.13 250.02 150.38V149.73H252.5V150.38C252.5 151.83 253.11 153.33 254.57 154.31ZM251.16 146.27C252.56 146.27 253.58 145.42 253.56 144.03C253.58 142.65 252.56 141.81 251.16 141.83C249.7 141.81 248.66 142.64 248.68 144.03C248.65 145.42 249.69 146.27 251.16 146.27ZM258.52 138.79H261.04V149H258.52V138.79Z" fill="white"/>
<path d="M268.87 142.94H264.25V140.91H271.37C271.37 142.64 271.19 144.27 270.76 145.75H272.92V139.2H275.32V156.04H272.92V147.74H269.99C268.95 149.81 267.28 151.6 264.7 153.07L263.28 151.32C266.94 149.14 268.52 146.5 268.87 142.94ZM279.14 156.85H276.78V138.75H279.14V156.85Z" fill="white"/>
<path d="M297.36 150.79L295.86 152.82C293.78 151.88 292.34 150.09 291.53 147.86C290.72 150.3 289.23 152.27 287.03 153.27L285.48 151.15C288.65 149.83 290.18 146.37 290.2 142.85V140.16H292.76V142.85C292.76 146.19 294.27 149.51 297.36 150.79ZM298.29 138.75H300.85V156.89H298.29V138.75Z" fill="white"/>
<path d="M313.59 141.84H309.97C309.99 143.96 311.25 146.13 314.2 147.09L312.9 149.04C310.91 148.39 309.52 147.11 308.73 145.48C307.94 147.25 306.49 148.67 304.4 149.37L303.06 147.38C306.03 146.42 307.39 144.11 307.41 141.85H303.75V139.82H313.59V141.84ZM305.49 150.46H317.65V156.85H315.09V152.46H305.49V150.46ZM315.09 138.75H317.65V143.14H320.09V145.26H317.65V149.69H315.09V138.75Z" fill="white"/>
<path d="M329.61 143.55H320.82V141.52H324V139.28H326.48V141.52H329.61V143.55ZM325.26 144.36C327.58 144.36 329.23 146.13 329.25 148.63C329.23 151.17 327.58 152.94 325.26 152.94C322.96 152.94 321.27 151.17 321.27 148.63C321.27 146.13 322.96 144.36 325.26 144.36ZM325.26 150.79C326.28 150.81 326.99 150.02 327.01 148.63C326.99 147.29 326.28 146.45 325.26 146.47C324.22 146.45 323.49 147.28 323.51 148.63C323.49 150.02 324.22 150.81 325.26 150.79ZM330.26 139.12H332.62V146.12H334.08V138.76H336.52V156.86H334.08V148.15H332.62V156.08H330.26V139.12Z" fill="white"/>
<path d="M354.99 154.74H338.43V152.71H345.43V149.33H340.18V139.93H342.74V142.74H350.63V139.93H353.15V149.33H347.9V152.71H354.98V154.74H354.99ZM350.64 147.33V144.73H342.75V147.33H350.64Z" fill="white"/>
<path d="M365.12 150.87L363.74 152.82C362.17 151.88 361.18 150.32 360.59 148.45C359.96 150.5 358.86 152.21 357.23 153.23L355.68 151.36C358.35 149.69 359.34 146.5 359.34 143.43V140.34H361.82V143.31C361.8 146.25 362.62 149.26 365.12 150.87ZM363.21 144.85H365.53V139.03H367.89V156H365.53V146.93H363.21V144.85ZM369.27 138.75H371.67V156.85H369.27V138.75Z" fill="white"/>
<path d="M390.13 154.74H373.57V152.67H377.27V148.24C375.87 147.39 375.03 146.1 375.03 144.5C375.03 141.61 377.9 139.66 381.82 139.66C385.73 139.66 388.61 141.61 388.61 144.5C388.61 146.09 387.78 147.37 386.41 148.2V152.67H390.11V154.74H390.13ZM381.83 147.37C384.37 147.37 386.12 146.27 386.14 144.48C386.12 142.69 384.37 141.63 381.83 141.63C379.23 141.63 377.54 142.69 377.52 144.48C377.54 146.27 379.23 147.37 381.83 147.37ZM383.87 152.66V149.14C383.24 149.26 382.55 149.32 381.84 149.32C381.13 149.32 380.44 149.26 379.81 149.14V152.66H383.87Z" fill="white"/>
<path d="M391.84 153.52C391.8 152.63 392.57 151.87 393.51 151.89C394.38 151.87 395.16 152.62 395.18 153.52C395.16 154.46 394.39 155.21 393.51 155.19C392.57 155.2 391.79 154.45 391.84 153.52Z" fill="white"/>
<path d="M98.25 238.23H107.89V240.71H101.22V244.21H107.4V246.65H101.22V250.15H107.93V252.63H98.25V238.23Z" fill="white"/>
<path d="M116.35 252.63H113.05L109.27 241.85H112.4L114.64 249.58H114.76L117.04 241.85H120.13L116.35 252.63Z" fill="white"/>
<path d="M120.75 247.3C120.77 243.96 122.82 241.71 126 241.69C128.81 241.71 131.04 243.5 131.04 247.18V247.99H123.68C123.68 249.62 124.64 250.63 126.16 250.63C127.16 250.63 127.87 250.18 128.15 249.57H130.96C130.53 251.54 128.76 252.82 126.12 252.82C122.78 252.83 120.77 250.7 120.75 247.3ZM128.27 246.16C128.25 244.84 127.33 243.9 126.03 243.88C124.65 243.9 123.71 244.92 123.67 246.16H128.27Z" fill="white"/>
<path d="M135.79 252.63H132.86V241.85H135.67V243.72H135.79C136.28 242.48 137.44 241.71 139.04 241.69C141.28 241.71 142.76 243.24 142.74 245.76V252.64H139.81V246.29C139.81 244.95 139.1 244.15 137.86 244.13C136.64 244.15 135.81 244.96 135.79 246.37V252.63Z" fill="white"/>
<path d="M150.72 244.05H148.69V249.34C148.69 250.17 149.12 250.4 149.71 250.4C150.02 250.42 150.52 250.38 150.89 250.36V252.68C150.56 252.72 150.04 252.78 149.34 252.8C147.18 252.78 145.74 251.82 145.76 249.71V244.06H144.26V241.86H145.76V239.26H148.69V241.86H150.72V244.05Z" fill="white"/>
<path d="M158.73 252.63H155.76V241.08H155.64L152.35 243.15V240.51L155.93 238.23H158.74V252.63H158.73Z" fill="white"/>
<path d="M161.37 251.13C161.33 250.23 162.1 249.48 163.04 249.5C163.91 249.48 164.69 250.23 164.71 251.13C164.69 252.07 163.92 252.82 163.04 252.8C162.11 252.81 161.33 252.06 161.37 251.13Z" fill="white"/>
<path d="M177.64 240.26H171.46V238.27H180.21C180.23 243.74 178.3 248.32 171.83 251.37L170.53 249.34C175.18 247.12 177.24 244.27 177.64 240.26ZM185.66 254.46H183.1V236.36H185.66V254.46Z" fill="white"/>
<path d="M188.01 245.8H194.97V243.28H197.49V245.8H204.53V247.83H188.01V245.8ZM203.02 239.17H198.02C198.33 240.67 200.2 242.22 203.76 242.59L202.82 244.58C199.44 244.19 197.19 242.79 196.25 240.9C195.29 242.77 193.06 244.19 189.68 244.58L188.74 242.59C192.32 242.22 194.17 240.68 194.48 239.17H189.52V237.14H203.03V239.17H203.02ZM190.01 248.93H192.57V252.1H202.62V254.13H190.01V248.93Z" fill="white"/>
<path d="M213.68 239.9H217.5V237.5H220.02V246.21H211.19V237.5H213.67V239.9H213.68ZM217.91 247.95V247.66H220.55V247.95C220.55 249.96 222.42 251.9 226.29 252.42L225.39 254.37C222.42 253.94 220.31 252.7 219.23 250.95C218.15 252.7 216.06 253.94 213.11 254.37L212.17 252.42C216.04 251.9 217.93 249.97 217.91 247.95ZM217.5 244.25V241.85H213.68V244.25H217.5ZM222.87 236.36H225.39V248.6H222.87V236.36Z" fill="white"/>
<path d="M230.15 238.48V237.42H232.55V238.48C232.53 240.05 232.75 241.9 233.79 243.32C234.81 241.92 234.99 240.07 234.99 238.48V237.42H237.39V238.48C237.37 240.7 237.94 243.06 240.07 244.34L238.65 246.13C237.43 245.42 236.66 244.26 236.21 242.92C235.76 244.32 235.01 245.56 233.77 246.34C232.51 245.55 231.76 244.27 231.33 242.86C230.86 244.22 230.09 245.4 228.85 246.13L227.51 244.34C229.6 243.05 230.15 240.59 230.15 238.48ZM230.8 247.51H243.41V254.22H230.8V247.51ZM240.89 252.22V249.49H233.28V252.22H240.89ZM243.41 246.69H240.85V241.97H238.77V239.94H240.85V236.36H243.41V246.69Z" fill="white"/>
<path d="M254.76 249.32V247.77C252.79 247.4 251.51 246.16 251.51 244.5C251.51 242.47 253.36 241.1 256.02 241.08C258.69 241.1 260.56 242.46 260.58 244.5C260.56 246.19 259.26 247.41 257.29 247.77V249.21C258.79 249.15 260.32 249.03 261.76 248.84L261.92 250.71C257.99 251.38 253.72 251.42 250.49 251.4L250.16 249.37C251.54 249.36 253.11 249.36 254.76 249.32ZM250.53 238.39H254.76V236.44H257.32V238.39H261.51V240.38H250.53V238.39ZM256.02 245.96C257.28 245.96 258.14 245.45 258.14 244.5C258.14 243.56 257.29 243.04 256.02 243.04C254.78 243.04 253.9 243.57 253.9 244.5C253.9 245.45 254.78 245.96 256.02 245.96ZM265.29 254.46H262.77V236.36H265.29V254.46Z" fill="white"/>
<path d="M279.2 243.84L279.32 245.67C277.9 245.91 276.43 246.08 274.97 246.18V249.62H272.41V252.1H283.39V254.13H269.88V248.72H272.4V246.34C270.79 246.4 269.25 246.4 267.88 246.4L267.55 244.41C270.9 244.37 275.38 244.35 279.2 243.84ZM273.46 237.01C276.1 237.01 277.98 238.33 277.98 240.26C277.98 242.19 276.11 243.43 273.46 243.43C270.78 243.43 268.92 242.19 268.9 240.26C268.93 238.33 270.78 237.01 273.46 237.01ZM273.46 241.61C274.68 241.61 275.56 241.14 275.58 240.27C275.56 239.35 274.68 238.87 273.46 238.89C272.18 238.87 271.3 239.36 271.3 240.27C271.31 241.14 272.18 241.61 273.46 241.61ZM282.98 250.07H280.42V248.61H276.96V246.9H280.42V236.4H282.98V250.07Z" fill="white"/>
<path d="M290.55 237.66C293.27 237.66 295.29 240.14 295.31 244.09C295.29 248.06 293.28 250.56 290.55 250.56C287.78 250.56 285.75 248.06 285.75 244.09C285.75 240.14 287.78 237.66 290.55 237.66ZM290.55 248.24C291.91 248.24 292.85 246.8 292.87 244.09C292.85 241.41 291.91 239.94 290.55 239.94C289.15 239.94 288.19 241.4 288.19 244.09C288.19 246.79 289.14 248.24 290.55 248.24ZM300.35 254.5H297.79V236.36H300.35V254.5Z" fill="white"/>
<path d="M314.42 248.4L312.92 250.43C310.84 249.49 309.4 247.7 308.59 245.47C307.78 247.91 306.29 249.88 304.09 250.88L302.54 248.76C305.71 247.44 307.24 243.98 307.26 240.46V237.77H309.82V240.46C309.82 243.8 311.33 247.12 314.42 248.4ZM315.36 236.36H317.92V254.5H315.36V236.36Z" fill="white"/>
<path d="M321.09 237.91H329.47V244.91H323.65V248.2C326.29 248.18 328.45 248.04 330.85 247.63L331.05 249.66C328.3 250.17 325.82 250.29 322.63 250.27H321.13V242.91H326.95V239.94H321.09V237.91ZM334.63 243.19H337.27V245.31H334.63V254.5H332.11V236.36H334.63V243.19Z" fill="white"/>
<path d="M347.28 239.21H350.66V236.4H353.18V249.54H350.66V245.15H347.28V246.66H338.7V237.87H347.28V239.21ZM341.14 248.32H343.7V252.1H353.54V254.13H341.13V248.32H341.14ZM344.8 244.7V239.86H341.22V244.7H344.8ZM350.66 243.11V241.28H347.28V243.11H350.66Z" fill="white"/>
<path d="M102.32 272.88H98.4599V278.86H95.8999V272.88H92.1999V278.86H89.5999V272.88H85.8199V270.85H102.34V272.88H102.32ZM94.0299 261.37C97.8899 261.39 100.62 262.98 100.62 265.48C100.62 267.9 97.8899 269.45 94.0299 269.47C90.1499 269.45 87.4599 267.9 87.4799 265.48C87.4599 262.98 90.1399 261.39 94.0299 261.37ZM94.0299 267.47C96.4699 267.45 97.9999 266.74 98.0199 265.48C97.9999 264.14 96.4699 263.4 94.0299 263.4C91.5899 263.4 90.0599 264.13 90.0799 265.48C90.0599 266.74 91.5799 267.45 94.0299 267.47Z" fill="white"/>
<path d="M119.89 273.54H116.11V278.87H113.55V273.54H109.77V278.87H107.25V273.54H103.39V271.46H119.91V273.54H119.89ZM105.45 261.49H117.94V263.48H107.93V264.82H117.57V266.77H107.93V268.19H118.14V270.18H105.45V261.49Z" fill="white"/>
<path d="M137.5 276.67H120.94V274.64H137.5V276.67ZM122.7 261.94H125.26V264.91H133.15V261.94H135.67V271.58H122.7V261.94ZM133.15 269.59V266.91H125.26V269.59H133.15Z" fill="white"/>
<path d="M152.43 273.09L151.01 274.96C149.38 274.13 148.3 272.66 147.67 270.89C147.04 272.82 145.96 274.43 144.33 275.36L142.87 273.49C145.45 272 146.45 269.06 146.45 266.25V265.92H143.44V263.84H146.45V261.4H148.81V263.84H151.78V265.92H148.85V266.25C148.85 268.96 149.81 271.75 152.43 273.09ZM152.63 261.05H155.03V267.76H156.54V260.76H158.98V278.86H156.54V269.79H155.03V278.01H152.63V261.05Z" fill="white"/>
<path d="M164.3 267.41C166.54 267.37 168.84 267.23 171.3 266.78L171.63 268.81C168.66 269.36 165.96 269.5 163.29 269.5H161.79V261.53H164.31V267.41H164.3ZM163.98 270.61H176.02V275.53H166.54V276.63H176.47V278.66H164.02V273.62H173.46V272.6H163.98V270.61ZM169.02 263.33H173.5V260.77H176.02V269.96H173.5V265.36H169.02V263.33Z" fill="white"/>
<path d="M197.58 263.45C197.58 265.16 197.58 267.01 197.11 269.55H199.53V271.58H192.45V278.86H189.93V271.58H183.01V269.55H194.56C195.01 267.21 195.05 265.42 195.05 263.85H184.92V261.86H197.57V263.45H197.58Z" fill="white"/>
<path d="M217.1 271.54H200.58V269.55H207.54V267.92H202.58V261.49H215.15V263.48H205.14V265.88H215.31V267.91H210.1V269.54H217.1V271.54ZM202.41 272.8H215.1V278.9H212.62V274.79H202.41V272.8Z" fill="white"/>
<path d="M227.39 270.97H218.68V262.26H227.39V270.97ZM220.75 272.68H223.31V276.5H233.15V278.53H220.74V272.68H220.75ZM224.86 268.98V264.3H221.2V268.98H224.86ZM229.95 260.8H232.51V266.01H234.95V268.09H232.51V273.99H229.95V260.8Z" fill="white"/>
<path d="M249.14 265.56H240.35V263.53H243.52V261.29H246V263.53H249.13V265.56H249.14ZM244.79 266.38C247.11 266.38 248.76 268.15 248.78 270.65C248.76 273.19 247.11 274.96 244.79 274.96C242.49 274.96 240.8 273.19 240.8 270.65C240.8 268.15 242.49 266.38 244.79 266.38ZM244.79 272.8C245.81 272.82 246.52 272.03 246.54 270.64C246.52 269.3 245.81 268.46 244.79 268.48C243.75 268.46 243.02 269.29 243.04 270.64C243.02 272.03 243.75 272.82 244.79 272.8ZM249.79 261.13H252.15V268.13H253.61V260.77H256.05V278.87H253.61V270.16H252.15V278.09H249.79V261.13Z" fill="white"/>
<path d="M272.69 270.89H267.44V274.75H274.52V276.78H257.96V274.75H264.96V270.89H259.92V262.06H272.57V264.05H262.48V268.85H272.69V270.89Z" fill="white"/>
<path d="M290.34 263.89H288.88V268.12C289.59 268.06 290.3 268 291 267.92L291.16 269.79C287.58 270.38 283.41 270.46 280.38 270.44L280.14 268.36H282.09V263.89H280.63V261.9H290.35V263.89H290.34ZM282.7 271.5H285.22V273.09H292.01V271.5H294.57V278.66H282.7V271.5ZM286.44 268.27V263.9H284.53V268.33C285.16 268.33 285.79 268.31 286.44 268.27ZM292.01 276.63V275.04H285.22V276.63H292.01ZM292.01 260.76H294.57V264.66H297.01V266.78H294.57V270.85H292.01V260.76Z" fill="white"/>
<path d="M297.83 270.08H303.97V267.8H306.49V270.08H314.26V272.07H297.83V270.08ZM312.39 263.2C312.39 264.97 312.39 266.74 311.86 269.14L309.38 268.94C309.54 268.15 309.66 267.41 309.73 266.74L299.5 267.15L299.17 265.07L309.85 264.85C309.87 264.38 309.87 263.93 309.87 263.49H299.7V261.5H312.39V263.2ZM299.74 273.17H302.3V276.55H312.71V278.58H299.73V273.17H299.74Z" fill="white"/>
<path d="M320.68 262.06C323.4 262.06 325.42 264.54 325.44 268.49C325.42 272.46 323.41 274.96 320.68 274.96C317.91 274.96 315.88 272.46 315.88 268.49C315.88 264.55 317.92 262.06 320.68 262.06ZM320.68 272.64C322.04 272.64 322.98 271.2 323 268.49C322.98 265.81 322.04 264.34 320.68 264.34C319.28 264.34 318.32 265.8 318.32 268.49C318.32 271.2 319.28 272.64 320.68 272.64ZM330.49 278.91H327.93V260.77H330.49V278.91Z" fill="white"/>
<path d="M337.97 268.53C338.82 267.98 339.47 267.37 339.47 266.45C339.47 265.43 338.7 264.8 337.72 264.78C336.8 264.8 335.95 265.41 335.89 266.57H333.08C333.14 263.78 335.22 262.44 337.76 262.46C340.53 262.44 342.48 263.88 342.48 266.32C342.48 267.97 341.65 269.01 340.32 269.78C339.22 270.45 338.71 271.1 338.69 272.51V272.71H336.09V272.51C336.1 270.04 336.77 269.28 337.97 268.53ZM337.48 273.9C338.36 273.88 339.13 274.63 339.15 275.53C339.13 276.47 338.36 277.22 337.48 277.2C336.54 277.22 335.77 276.47 335.81 275.53C335.77 274.63 336.54 273.88 337.48 273.9Z" fill="white"/>
<path d="M348.91 268.53C349.76 267.98 350.41 267.37 350.41 266.45C350.41 265.43 349.64 264.8 348.66 264.78C347.74 264.8 346.89 265.41 346.83 266.57H344.02C344.08 263.78 346.16 262.44 348.7 262.46C351.47 262.44 353.42 263.88 353.42 266.32C353.42 267.97 352.59 269.01 351.26 269.78C350.16 270.45 349.65 271.1 349.63 272.51V272.71H347.03V272.51C347.04 270.04 347.71 269.28 348.91 268.53ZM348.42 273.9C349.3 273.88 350.07 274.63 350.09 275.53C350.07 276.47 349.3 277.22 348.42 277.2C347.48 277.22 346.71 276.47 346.75 275.53C346.71 274.63 347.49 273.88 348.42 273.9Z" fill="white"/>
<path d="M357.41 273.9C358.28 273.88 359.06 274.63 359.08 275.53C359.06 276.47 358.29 277.22 357.41 277.2C356.47 277.22 355.7 276.47 355.74 275.53C355.7 274.63 356.47 273.88 357.41 273.9ZM358.67 272.72H356.11L355.87 262.63H358.92L358.67 272.72Z" fill="white"/>
<path d="M363.63 273.9C364.5 273.88 365.28 274.63 365.3 275.53C365.28 276.47 364.51 277.22 363.63 277.2C362.69 277.22 361.92 276.47 361.96 275.53C361.92 274.63 362.69 273.88 363.63 273.9ZM364.89 272.72H362.33L362.09 262.63H365.14L364.89 272.72Z" fill="white"/>
<path d="M67.73 335.84H77.37V338.32H70.7V341.82H76.88V344.26H70.7V347.76H77.41V350.24H67.73V335.84Z" fill="white"/>
<path d="M85.83 350.24H82.53L78.75 339.46H81.88L84.12 347.19H84.24L86.52 339.46H89.61L85.83 350.24Z" fill="white"/>
<path d="M90.22 344.91C90.24 341.57 92.29 339.32 95.47 339.3C98.28 339.32 100.51 341.11 100.51 344.79V345.6H93.15C93.15 347.23 94.11 348.24 95.63 348.24C96.63 348.24 97.34 347.79 97.62 347.18H100.43C100 349.15 98.23 350.43 95.59 350.43C92.26 350.45 90.24 348.31 90.22 344.91ZM97.75 343.77C97.73 342.45 96.81 341.51 95.51 341.49C94.13 341.51 93.19 342.53 93.15 343.77H97.75Z" fill="white"/>
<path d="M105.27 350.24H102.34V339.46H105.15V341.33H105.27C105.76 340.09 106.92 339.32 108.52 339.3C110.76 339.32 112.24 340.85 112.22 343.37V350.25H109.29V343.9C109.29 342.56 108.58 341.76 107.34 341.74C106.12 341.76 105.29 342.57 105.27 343.98V350.24Z" fill="white"/>
<path d="M120.2 341.66H118.17V346.95C118.17 347.78 118.6 348.01 119.19 348.01C119.5 348.03 120 347.99 120.37 347.97V350.29C120.04 350.33 119.52 350.39 118.82 350.41C116.66 350.39 115.22 349.43 115.24 347.32V341.67H113.74V339.47H115.24V336.87H118.17V339.47H120.2V341.66Z" fill="white"/>
<path d="M122.03 348.09L127.16 343.33C128.52 342.05 129.23 341.26 129.23 340.12C129.23 338.84 128.27 338.04 126.95 338.04C125.61 338.04 124.71 338.89 124.71 340.28H121.86C121.86 337.47 123.95 335.66 126.99 335.68C130.06 335.66 132.12 337.41 132.12 339.91C132.12 341.56 131.33 342.9 128.34 345.57L126.18 347.69V347.81H132.32V350.25H122.03V348.09Z" fill="white"/>
<path d="M134.51 348.74C134.47 347.84 135.24 347.09 136.18 347.11C137.05 347.09 137.83 347.84 137.85 348.74C137.83 349.68 137.06 350.43 136.18 350.41C135.24 350.42 134.47 349.67 134.51 348.74Z" fill="white"/>
<path d="M144.68 335.6H153.47V337.63H147.25V345.64C150.46 345.64 152.48 345.56 154.74 345.15L154.98 347.22C152.48 347.71 150.16 347.79 146.27 347.79H144.68V335.6ZM158.71 352.11H156.15V333.97H158.71V352.11Z" fill="white"/>
<path d="M172.7 346.21L171.32 348.2C169.2 347.31 167.72 345.49 166.91 343.32C166.1 345.7 164.59 347.67 162.46 348.65L161.04 346.66C164.03 345.34 165.58 341.98 165.6 338.93V337.79H161.74V335.72H171.95V337.79H168.17V338.93C168.17 341.84 169.67 344.97 172.7 346.21ZM173.72 333.97H176.28V352.07H173.72V333.97Z" fill="white"/>
<path d="M187.95 336.98H182.09V338.08H187.42V339.99H182.09V341.21C184.75 341.21 186.52 341.15 188.6 340.84L188.8 342.83C186.4 343.18 184.35 343.2 180.99 343.2H179.57V334.98H187.95V336.98ZM181.93 347.15H191.45V346.17H181.93V344.22H193.97V348.98H184.49V350H194.5V351.95H181.93V347.15ZM188.48 337.83H191.45V333.96H193.97V343.56H191.45V339.82H188.48V337.83Z" fill="white"/>
<path d="M215.57 336.25C215.55 337.67 215.55 339.22 215.12 341.29H217.52V343.32H200.96V341.29H212.55C212.96 339.52 213 338.12 213 336.86H203V334.83H215.57V336.25ZM202.92 345.28H215.49V351.87H202.92V345.28ZM212.97 349.83V347.23H205.4V349.83H212.97Z" fill="white"/>
<path d="M235.05 344.14H231.35V346.32C232.45 346.87 233.04 347.7 233.06 348.78C233.04 350.92 230.68 352.1 226.75 352.12C222.8 352.1 220.42 350.92 220.44 348.78C220.42 347.68 221.07 346.83 222.23 346.26V344.14H218.53V342.11H235.05V344.14ZM226.79 334.25C230.78 334.27 233.34 335.59 233.34 337.79C233.34 339.93 230.78 341.23 226.79 341.21C222.76 341.23 220.18 339.93 220.2 337.79C220.18 335.6 222.77 334.28 226.79 334.25ZM226.79 339.3C229.27 339.3 230.74 338.79 230.74 337.8C230.74 336.76 229.28 336.25 226.79 336.25C224.25 336.25 222.8 336.76 222.84 337.8C222.81 338.79 224.25 339.3 226.79 339.3ZM226.75 350.16C229.21 350.16 230.51 349.71 230.53 348.78C230.51 347.84 229.21 347.4 226.75 347.4C224.25 347.4 222.99 347.85 223.01 348.78C222.99 349.71 224.25 350.16 226.75 350.16ZM226.75 345.48C227.5 345.48 228.19 345.52 228.82 345.6V344.14H224.75V345.58C225.37 345.52 226.04 345.48 226.75 345.48Z" fill="white"/>
<path d="M240.22 335.27C242.38 335.27 243.88 337.3 244.17 340.68H245.63V334.25H248.03V351.21H245.63V342.71H244.17C243.95 346.25 242.44 348.38 240.22 348.36C237.82 348.38 236.27 345.88 236.27 341.81C236.27 337.77 237.82 335.27 240.22 335.27ZM240.22 345.97C241.26 345.97 241.87 344.61 241.85 341.82C241.87 339.05 241.26 337.67 240.22 337.67C239.2 337.67 238.59 339.05 238.59 341.82C238.59 344.61 239.2 345.97 240.22 345.97ZM251.77 352.07H249.37V333.97H251.77V352.07Z" fill="white"/>
<path d="M258.88 336.09H265.63V338.12H261.4V345.85C263.15 345.83 264.69 345.73 266.44 345.4L266.64 347.47C264.42 347.9 262.51 347.96 260.13 347.96H258.87V336.09H258.88ZM273.98 352.07H271.58V343H269.87V351.18H267.51V334.3H269.87V340.97H271.58V333.97H273.98V352.07Z" fill="white"/>
<path d="M284.67 338.77H275.88V336.74H279.05V334.5H281.53V336.74H284.66V338.77H284.67ZM280.32 339.58C282.64 339.58 284.29 341.35 284.31 343.85C284.29 346.39 282.64 348.16 280.32 348.16C278.02 348.16 276.33 346.39 276.33 343.85C276.33 341.35 278.02 339.58 280.32 339.58ZM280.32 346.01C281.34 346.03 282.05 345.24 282.07 343.85C282.05 342.51 281.34 341.67 280.32 341.69C279.28 341.67 278.55 342.5 278.57 343.85C278.55 345.24 279.28 346.03 280.32 346.01ZM285.32 334.34H287.68V341.34H289.14V333.98H291.58V352.08H289.14V343.37H287.68V351.3H285.32V334.34Z" fill="white"/>
<path d="M312.77 336.04C312.75 337.4 312.75 338.99 312.38 340.92H314.72V342.91H307.64V345.15C310.85 345.39 312.79 346.63 312.81 348.57C312.79 350.81 310.37 352.07 306.42 352.07C302.43 352.07 299.99 350.81 299.99 348.57C299.99 346.64 301.92 345.4 305.16 345.15V342.91H298.16V340.92H309.81C310.16 339.21 310.22 337.89 310.2 336.65H300.2V334.62H312.77V336.04ZM306.43 350.04C308.91 350.06 310.25 349.59 310.25 348.58C310.25 347.6 308.91 347.14 306.43 347.12C303.89 347.14 302.55 347.61 302.56 348.58C302.54 349.59 303.89 350.06 306.43 350.04Z" fill="white"/>
<path d="M330.34 336.25C330.32 337.67 330.32 339.22 329.89 341.29H332.29V343.32H315.73V341.29H327.32C327.73 339.52 327.77 338.12 327.77 336.86H317.76V334.83H330.33V336.25H330.34ZM317.69 345.28H330.26V351.87H317.69V345.28ZM327.74 349.83V347.23H320.17V349.83H327.74Z" fill="white"/>
<path d="M333.23 336.7H337.3V334.26H339.86V336.7H343.85V338.73H333.23V336.7ZM338.6 339.75C341.22 339.73 343.2 341.52 343.2 344.06C343.2 346.56 341.23 348.35 338.6 348.33C335.92 348.35 333.94 346.56 333.96 344.06C333.94 341.52 335.91 339.73 338.6 339.75ZM338.6 346.26C339.84 346.28 340.76 345.45 340.76 344.06C340.76 342.66 339.84 341.8 338.6 341.78C337.3 341.8 336.38 342.66 336.4 344.06C336.38 345.44 337.3 346.28 338.6 346.26ZM347.59 341.09H350.23V343.17H347.59V352.08H345.07V333.98H347.59V341.09Z" fill="white"/>
<path d="M362.51 346.01L361.01 348.04C358.93 347.1 357.49 345.31 356.68 343.08C355.87 345.52 354.38 347.49 352.18 348.49L350.63 346.37C353.8 345.05 355.33 341.59 355.35 338.07V335.38H357.91V338.07C357.92 341.42 359.42 344.73 362.51 346.01ZM363.45 333.97H366.01V352.11H363.45V333.97Z" fill="white"/>
<path d="M377.81 336.82H381.19V334.01H383.71V347.15H381.19V342.76H377.81V344.27H369.23V335.48H377.81V336.82ZM371.66 345.93H374.22V349.71H384.06V351.74H371.65V345.93H371.66ZM375.32 342.31V337.47H371.74V342.31H375.32ZM381.18 340.72V338.89H377.8V340.72H381.18Z" fill="white"/>
<path d="M123.98 360H132.77V362.03H126.55V370.04C129.76 370.04 131.78 369.96 134.04 369.55L134.28 371.62C131.78 372.11 129.46 372.19 125.57 372.19H123.98V360ZM138.01 376.52H135.45V358.38H138.01V376.52Z" fill="white"/>
<path d="M152 370.62L150.62 372.61C148.5 371.72 147.02 369.9 146.21 367.73C145.4 370.11 143.89 372.08 141.76 373.06L140.34 371.07C143.33 369.75 144.88 366.39 144.9 363.34V362.2H141.04V360.13H151.25V362.2H147.47V363.34C147.47 366.24 148.97 369.38 152 370.62ZM153.02 358.37H155.58V376.47H153.02V358.37Z" fill="white"/>
<path d="M167.25 361.38H161.39V362.48H166.72V364.39H161.39V365.61C164.05 365.61 165.82 365.55 167.9 365.24L168.1 367.23C165.7 367.58 163.65 367.6 160.29 367.6H158.87V359.38H167.25V361.38ZM161.23 371.55H170.75V370.57H161.23V368.62H173.27V373.38H163.79V374.4H173.8V376.35H161.23V371.55ZM167.78 362.24H170.75V358.37H173.27V367.97H170.75V364.23H167.78V362.24Z" fill="white"/>
<path d="M194.87 360.65C194.85 362.07 194.85 363.62 194.42 365.69H196.82V367.72H180.26V365.69H191.85C192.26 363.92 192.3 362.52 192.3 361.26H182.3V359.23H194.87V360.65ZM182.22 369.68H194.79V376.27H182.22V369.68ZM192.27 374.24V371.64H184.7V374.24H192.27Z" fill="white"/>
<path d="M214.35 368.54H210.65V370.72C211.75 371.27 212.34 372.1 212.36 373.18C212.34 375.32 209.98 376.5 206.05 376.52C202.1 376.5 199.72 375.32 199.74 373.18C199.72 372.08 200.37 371.23 201.53 370.66V368.54H197.83V366.51H214.35V368.54ZM206.09 358.66C210.08 358.68 212.64 360 212.64 362.2C212.64 364.34 210.08 365.64 206.09 365.62C202.06 365.64 199.48 364.34 199.5 362.2C199.48 360 202.07 358.68 206.09 358.66ZM206.09 363.7C208.57 363.7 210.04 363.19 210.04 362.2C210.04 361.16 208.58 360.65 206.09 360.65C203.55 360.65 202.1 361.16 202.14 362.2C202.11 363.19 203.55 363.7 206.09 363.7ZM206.05 374.56C208.51 374.56 209.81 374.11 209.83 373.18C209.81 372.24 208.51 371.8 206.05 371.8C203.55 371.8 202.29 372.25 202.31 373.18C202.29 374.12 203.55 374.56 206.05 374.56ZM206.05 369.88C206.8 369.88 207.49 369.92 208.12 370V368.54H204.05V369.98C204.67 369.93 205.34 369.88 206.05 369.88Z" fill="white"/>
<path d="M225.17 359.55C227.94 359.55 230.09 361.46 230.09 364.15C230.09 366.81 227.93 368.75 225.17 368.75C222.4 368.75 220.21 366.82 220.21 364.15C220.21 361.46 222.4 359.55 225.17 359.55ZM225.17 366.55C226.57 366.53 227.63 365.63 227.65 364.15C227.63 362.64 226.57 361.77 225.17 361.75C223.81 361.77 222.69 362.64 222.69 364.15C222.69 365.63 223.81 366.53 225.17 366.55ZM222.69 370.17H225.25V374.12H235.09V376.15H222.68V370.17H222.69ZM234.44 363.58H236.88V365.7H234.44V371.56H231.88V358.42H234.44V363.58Z" fill="white"/>
<path d="M241.92 361.91V361.67H238.26V359.64H248.06V361.67H244.48V361.95C244.48 364.05 245.76 366.28 248.63 367.24L247.37 369.23C245.38 368.56 243.99 367.26 243.22 365.63C242.43 367.44 240.98 368.88 238.87 369.6L237.57 367.52C240.54 366.61 241.9 364.25 241.92 361.91ZM240.91 370.45H243.43V374.11H253.31V376.14H240.9V370.45H240.91ZM252.91 371.59H250.39V365.12H247.42V363.09H250.39V358.41H252.91V371.59Z" fill="white"/>
<path d="M255.22 372.2H258.72V366.5H261.28V372.2H263.27V366.5H265.75V372.2H271.73V374.27H255.21V372.2H255.22ZM270.23 361.71C270.21 363.93 270.21 366.41 269.54 370.05L267.06 369.85C267.65 366.53 267.67 364.11 267.67 362H256.85V359.97H270.23V361.71Z" fill="white"/>
<path d="M289.31 368.83H285.32V370.54H287.27V376.48H284.75V372.53H274.62V370.54H276.7V368.83H272.79V366.84H289.31V368.83ZM281.05 358.74C285.02 358.74 287.6 360.1 287.6 362.32C287.6 364.52 285.02 365.88 281.05 365.9C277.04 365.88 274.44 364.52 274.46 362.32C274.44 360.1 277.04 358.74 281.05 358.74ZM281.05 363.91C283.53 363.93 285 363.38 285 362.32C285 361.26 283.54 360.71 281.05 360.73C278.51 360.71 277.06 361.26 277.1 362.32C277.06 363.38 278.51 363.93 281.05 363.91ZM282.8 370.54V368.83H279.26V370.54H282.8Z" fill="white"/>
<path d="M295.57 359.47H298.09V361.75H301.79V359.47H304.35V368.05H295.56V359.47H295.57ZM297.56 369.76H309.48V371.75H300.08V374.23H309.8V376.22H297.55V369.76H297.56ZM301.79 366.06V363.7H298.09V366.06H301.79ZM309.4 362.52H311.84V364.6H309.4V368.95H306.84V358.37H309.4V362.52Z" fill="white"/>
<path d="M312.61 372.2H318.51V365.98H321.03V372.2H329.13V374.27H312.61V372.2ZM327.5 361.67C327.5 363.93 327.5 366.47 326.81 370.33L324.25 370.05C324.92 366.65 324.96 364.13 324.98 362H314.32V359.97H327.5V361.67Z" fill="white"/>
<path d="M88.9 385.91H85.24V383.88H95.04V385.91H91.46C91.5 388 92.8 390.14 95.61 391.08L94.35 393.07C92.38 392.42 90.99 391.12 90.2 389.49C89.41 391.34 87.98 392.81 85.85 393.56L84.51 391.53C87.48 390.54 88.84 388.19 88.9 385.91ZM93.7 393.92C97.56 393.94 99.92 395.22 99.92 397.42C99.92 399.62 97.56 400.9 93.7 400.92C89.84 400.9 87.48 399.62 87.48 397.42C87.48 395.22 89.84 393.94 93.7 393.92ZM93.7 398.97C96.1 398.97 97.4 398.46 97.4 397.42C97.4 396.38 96.1 395.85 93.7 395.87C91.3 395.85 90 396.38 90 397.42C90 398.46 91.3 398.97 93.7 398.97ZM99.88 393.51H97.36V389.24H94.51V387.21H97.36V382.78H99.88V393.51Z" fill="white"/>
<path d="M106.39 392.74V391.72C104.44 391.43 103.22 390.46 103.22 389.08C103.22 387.41 104.97 386.4 107.65 386.4C110.31 386.4 112.06 387.42 112.08 389.08C112.06 390.46 110.84 391.44 108.91 391.72V392.64C110.39 392.58 111.88 392.46 113.26 392.29L113.46 394C109.64 394.69 105.45 394.73 102.27 394.73L101.98 392.78C103.32 392.78 104.82 392.78 106.39 392.74ZM102.48 384.12H106.39V382.66H108.91V384.12H112.82V385.99H102.49V384.12H102.48ZM104.31 395.83H116.64V400.87H114.12V397.78H104.32V395.83H104.31ZM107.65 390.14C108.91 390.14 109.64 389.75 109.64 389.08C109.64 388.39 108.91 388.08 107.65 388.06C106.37 388.08 105.64 388.39 105.66 389.08C105.64 389.75 106.37 390.14 107.65 390.14ZM116.64 387.98H118.96V390.06H116.64V395.1H114.12V382.81H116.64V387.98Z" fill="white"/>
<path d="M120.18 385.54H124.29V383.02H126.85V385.54H130.96V387.53H120.18V385.54ZM125.59 388.55C128.27 388.53 130.25 390.32 130.27 392.86C130.25 395.36 128.28 397.15 125.59 397.13C122.9 397.15 120.93 395.36 120.95 392.86C120.93 390.32 122.9 388.53 125.59 388.55ZM125.59 395.06C126.91 395.08 127.83 394.25 127.83 392.86C127.83 391.46 126.91 390.6 125.59 390.58C124.29 390.6 123.35 391.46 123.35 392.86C123.35 394.25 124.28 395.08 125.59 395.06ZM134.9 400.88H132.34V382.78H134.9V400.88Z" fill="white"/>
<path d="M142.91 384.24H145.47V388.63H149.33V384.24H151.85V396.69H142.9V384.24H142.91ZM149.34 394.61V390.58H145.48V394.61H149.34ZM157.15 400.92H154.59V382.78H157.15V400.92Z" fill="white"/>
<path d="M159.58 396.73H176.14V398.76H159.58V396.73ZM174.35 394.12H161.54V384.11H174.19V386.19H164.14V388.1H173.78V390.09H164.14V392.12H174.35V394.12Z" fill="white"/>
<path d="M177.15 396.73H183.05V392.38H185.57V396.73H193.67V398.8H177.15V396.73ZM192 385.91C192 388.09 192.02 390.65 191.19 394.58L188.71 394.29C188.99 392.93 189.2 391.73 189.3 390.63L178.82 391.2L178.45 389.04L189.45 388.65C189.49 387.82 189.49 387.04 189.51 386.35H179.06V384.32H192V385.91Z" fill="white"/>
<path d="M199.97 383.96C202.74 383.96 204.89 385.87 204.89 388.52C204.89 391.23 202.73 393.12 199.97 393.12C197.18 393.12 195.01 391.23 195.01 388.52C195.01 385.87 197.19 383.96 199.97 383.96ZM199.97 390.91C201.33 390.89 202.39 390.03 202.37 388.51C202.39 387.05 201.33 386.17 199.97 386.15C198.55 386.17 197.47 387.04 197.49 388.51C197.47 390.04 198.55 390.89 199.97 390.91ZM197.73 394.49H200.29V398.52H210.34V400.55H197.73V394.49ZM209.86 395.79H207.34V382.81H209.86V395.79Z" fill="white"/>
<path d="M216.4 384.08C218.56 384.08 220.06 386.11 220.35 389.49H221.81V383.06H224.21V400.02H221.81V391.52H220.35C220.13 395.06 218.62 397.19 216.4 397.17C214 397.19 212.45 394.69 212.45 390.62C212.46 386.58 214 384.08 216.4 384.08ZM216.4 394.78C217.44 394.78 218.05 393.42 218.03 390.63C218.05 387.86 217.44 386.48 216.4 386.48C215.38 386.48 214.77 387.86 214.77 390.63C214.78 393.41 215.39 394.78 216.4 394.78ZM227.96 400.88H225.56V382.78H227.96V400.88Z" fill="white"/>
<path d="M235.07 384.89H241.82V386.92H237.59V394.65C239.34 394.63 240.88 394.53 242.63 394.2L242.83 396.27C240.61 396.7 238.7 396.76 236.32 396.76H235.06V384.89H235.07ZM250.16 400.88H247.76V391.81H246.05V399.99H243.69V383.1H246.05V389.77H247.76V382.77H250.16V400.88Z" fill="white"/>
<path d="M260.86 387.58H252.07V385.55H255.24V383.31H257.72V385.55H260.85V387.58H260.86ZM256.5 388.39C258.82 388.39 260.47 390.16 260.49 392.66C260.47 395.2 258.82 396.97 256.5 396.97C254.2 396.97 252.51 395.2 252.51 392.66C252.52 390.16 254.21 388.39 256.5 388.39ZM256.5 394.82C257.52 394.84 258.23 394.05 258.25 392.66C258.23 391.32 257.52 390.48 256.5 390.5C255.46 390.48 254.73 391.31 254.75 392.66C254.73 394.04 255.47 394.84 256.5 394.82ZM261.51 383.14H263.87V390.14H265.33V382.78H267.77V400.88H265.33V392.17H263.87V400.1H261.51V383.14Z" fill="white"/>
<path d="M279.69 384.08C282.41 384.08 284.43 386.56 284.45 390.51C284.43 394.48 282.42 396.98 279.69 396.98C276.92 396.98 274.89 394.48 274.89 390.51C274.89 386.56 276.92 384.08 279.69 384.08ZM279.69 394.65C281.05 394.65 281.99 393.21 282.01 390.5C281.99 387.82 281.05 386.35 279.69 386.35C278.29 386.35 277.33 387.81 277.33 390.5C277.33 393.21 278.28 394.65 279.69 394.65ZM289.49 400.92H286.93V382.78H289.49V400.92Z" fill="white"/>
<path d="M300.67 387.58H291.88V385.55H295.05V383.31H297.53V385.55H300.66V387.58H300.67ZM296.32 388.39C298.64 388.39 300.29 390.16 300.31 392.66C300.29 395.2 298.64 396.97 296.32 396.97C294.02 396.97 292.33 395.2 292.33 392.66C292.33 390.16 294.02 388.39 296.32 388.39ZM296.32 394.82C297.34 394.84 298.05 394.05 298.07 392.66C298.05 391.32 297.34 390.48 296.32 390.5C295.28 390.48 294.55 391.31 294.57 392.66C294.55 394.04 295.28 394.84 296.32 394.82ZM301.32 383.14H303.68V390.14H305.14V382.78H307.58V400.88H305.14V392.17H303.68V400.1H301.32V383.14Z" fill="white"/>
<path d="M318.24 387.58H309.45V385.55H312.62V383.31H315.1V385.55H318.23V387.58H318.24ZM313.89 388.39C316.21 388.39 317.86 390.16 317.88 392.66C317.86 395.2 316.21 396.97 313.89 396.97C311.59 396.97 309.9 395.2 309.9 392.66C309.9 390.16 311.59 388.39 313.89 388.39ZM313.89 394.82C314.91 394.84 315.62 394.05 315.64 392.66C315.62 391.32 314.91 390.48 313.89 390.5C312.85 390.48 312.12 391.31 312.14 392.66C312.12 394.04 312.85 394.84 313.89 394.82ZM318.89 383.14H321.25V390.14H322.71V382.78H325.15V400.88H322.71V392.17H321.25V400.1H318.89V383.14Z" fill="white"/>
<path d="M343.62 398.76H327.06V396.73H334.06V393.35H328.81V383.95H331.37V386.76H339.26V383.95H341.78V393.35H336.53V396.73H343.61V398.76H343.62ZM339.27 391.36V388.76H331.38V391.36H339.27Z" fill="white"/>
<path d="M355.74 395.02L354.32 397.01C352.31 396.09 350.88 394.24 350.09 392.09C349.28 394.47 347.79 396.48 345.7 397.46L344.24 395.47C347.25 394.07 348.78 390.71 348.8 387.74V386.6H344.98V384.53H354.99V386.6H351.33V387.74C351.31 390.48 352.77 393.66 355.74 395.02ZM356.35 382.77H358.91V389.69H361.55V391.81H358.91V400.88H356.35V382.77Z" fill="white"/>
<path d="M364.81 395.91C365.68 395.89 366.46 396.64 366.48 397.54C366.46 398.48 365.69 399.23 364.81 399.21C363.87 399.23 363.1 398.48 363.14 397.54C363.1 396.65 363.87 395.89 364.81 395.91ZM366.07 394.73H363.51L363.27 384.64H366.32L366.07 394.73Z" fill="white"/>
<path d="M49.9399 457.85H59.5799V460.33H52.9099V463.83H59.0899V466.27H52.9099V469.77H59.6199V472.25H49.9399V457.85Z" fill="white"/>
<path d="M68.04 472.25H64.74L60.96 461.47H64.09L66.33 469.2H66.45L68.73 461.47H71.82L68.04 472.25Z" fill="white"/>
<path d="M72.4299 466.93C72.4499 463.59 74.4999 461.34 77.6799 461.32C80.4899 461.34 82.7199 463.13 82.7199 466.81V467.62H75.3599C75.3599 469.25 76.3199 470.26 77.8399 470.26C78.8399 470.26 79.5499 469.81 79.8299 469.2H82.6399C82.2099 471.17 80.4399 472.45 77.7999 472.45C74.4599 472.46 72.4499 470.32 72.4299 466.93ZM79.9499 465.79C79.9299 464.47 79.0099 463.53 77.7099 463.51C76.3299 463.53 75.3899 464.55 75.3499 465.79H79.9499Z" fill="white"/>
<path d="M87.4799 472.25H84.5499V461.47H87.3599V463.34H87.4799C87.9699 462.1 89.1299 461.33 90.7299 461.31C92.9699 461.33 94.4499 462.86 94.4299 465.38V472.26H91.4999V465.91C91.4999 464.57 90.7899 463.77 89.5499 463.75C88.3299 463.77 87.4999 464.58 87.4799 465.99V472.25Z" fill="white"/>
<path d="M102.4 463.67H100.37V468.96C100.37 469.79 100.8 470.02 101.39 470.02C101.7 470.04 102.2 470 102.57 469.98V472.3C102.24 472.34 101.72 472.4 101.02 472.42C98.8599 472.4 97.4199 471.44 97.4399 469.33V463.68H95.9399V461.48H97.4399V458.88H100.37V461.48H102.4V463.67Z" fill="white"/>
<path d="M104.07 468.23H107.08C107.14 469.27 108.18 469.98 109.56 469.98C111 469.98 112.02 469.19 112 468.03C112.02 466.87 110.98 466.04 109.27 466.04H107.97V463.84H109.27C110.71 463.82 111.69 463.05 111.67 461.89C111.69 460.81 110.86 460.06 109.6 460.06C108.32 460.06 107.26 460.77 107.24 461.89H104.35C104.41 459.41 106.65 457.68 109.6 457.7C112.59 457.68 114.58 459.47 114.56 461.73C114.58 463.36 113.46 464.5 111.83 464.78V464.9C113.97 465.14 115.13 466.43 115.13 468.24C115.13 470.7 112.79 472.47 109.56 472.47C106.39 472.46 104.13 470.71 104.07 468.23Z" fill="white"/>
<path d="M116.88 470.75C116.84 469.85 117.61 469.1 118.55 469.12C119.42 469.1 120.2 469.85 120.22 470.75C120.2 471.69 119.43 472.44 118.55 472.42C117.61 472.44 116.84 471.69 116.88 470.75Z" fill="white"/>
<path d="M125.99 457.94H129.9V455.99H132.42V457.94H136.04V459.93H125.99V457.94ZM131.12 460.54C133.6 460.56 135.39 462.02 135.39 464.12C135.39 466.19 133.6 467.66 131.12 467.66C128.68 467.66 126.87 466.2 126.89 464.12C126.87 462.02 128.68 460.56 131.12 460.54ZM129.16 468.63H131.72V471.72H141.56V473.75H129.15V468.63H129.16ZM131.12 465.71C132.22 465.71 133.01 465.16 133.03 464.12C133.01 463.1 132.22 462.53 131.12 462.53C130.02 462.53 129.25 463.1 129.25 464.12C129.25 465.16 130.02 465.71 131.12 465.71ZM141.21 469.81H138.69V466.39H136.21V464.36H138.69V462.57H136.21V460.54H138.69V456.02H141.21V469.81Z" fill="white"/>
<path d="M153.81 459.24H150.19C150.21 461.33 151.47 463.39 154.38 464.24L153.16 466.23C151.17 465.62 149.78 464.4 148.97 462.85C148.18 464.66 146.71 466.1 144.54 466.8L143.28 464.81C146.25 463.87 147.61 461.54 147.63 459.24H143.97V457.21H153.81V459.24ZM151.94 467.09C155.7 467.07 158.04 468.37 158.04 470.59C158.04 472.79 155.7 474.09 151.94 474.09C148.12 474.09 145.74 472.79 145.76 470.59C145.74 468.37 148.12 467.07 151.94 467.09ZM151.94 472.09C154.28 472.11 155.54 471.6 155.52 470.59C155.54 469.55 154.28 469.06 151.94 469.04C149.58 469.06 148.28 469.55 148.28 470.59C148.28 471.6 149.58 472.11 151.94 472.09ZM155.32 455.98H157.88V460.21H160.32V462.24H157.88V466.71H155.32V455.98Z" fill="white"/>
<path d="M165.2 457.28C167.36 457.28 168.86 459.31 169.15 462.69H170.61V456.26H173.01V473.22H170.61V464.72H169.15C168.93 468.26 167.42 470.39 165.2 470.37C162.8 470.39 161.25 467.89 161.25 463.82C161.25 459.79 162.8 457.28 165.2 457.28ZM165.2 467.98C166.24 467.98 166.85 466.62 166.83 463.83C166.85 461.06 166.24 459.68 165.2 459.68C164.18 459.68 163.57 461.06 163.57 463.83C163.57 466.62 164.18 467.98 165.2 467.98ZM176.75 474.09H174.35V455.99H176.75V474.09Z" fill="white"/>
<path d="M189.89 468.11L188.34 470.14C186.33 469.16 184.98 467.35 184.23 465.12C183.46 467.5 182.05 469.45 180 470.47L178.41 468.4C181.5 467 182.91 463.5 182.93 460.1V457.41H185.49V460.1C185.51 463.49 186.88 466.8 189.89 468.11ZM187.85 461.68H191.43V455.99H193.91V474.13H191.43V463.72H187.85V461.68Z" fill="white"/>
<path d="M215.51 458.22C215.49 459.54 215.49 461.07 215.14 463.02H217.46V465.05H210.42V467.65H215.5V474.08H212.94V469.65H202.57V467.66H207.86V465.06H200.9V463.03H212.58C212.91 461.32 212.97 460 212.95 458.8H202.94V456.81H215.51V458.22Z" fill="white"/>
<path d="M228.24 466.15H219.41V457.44H228.24V466.15ZM221.49 467.7H224.05V471.65H234.1V473.68H221.49V467.7ZM225.72 464.16V459.48H221.9V464.16H225.72ZM231.09 456.02H233.61V468.88H231.09V456.02Z" fill="white"/>
<path d="M252.56 467.25H236.04V465.26H252.56V467.25ZM244.3 456.55C248.25 456.55 250.85 457.95 250.85 460.25C250.85 462.57 248.25 463.99 244.3 463.99C240.31 463.99 237.69 462.57 237.71 460.25C237.69 457.96 240.32 456.55 244.3 456.55ZM238.04 468.47H240.6V471.72H250.65V473.75H238.04V468.47ZM244.3 461.92C246.78 461.94 248.25 461.37 248.25 460.25C248.25 459.15 246.79 458.56 244.3 458.54C241.78 458.56 240.31 459.15 240.35 460.25C240.32 461.37 241.78 461.94 244.3 461.92Z" fill="white"/>
<path d="M253.53 457.85H256.7V456.14H259.22V457.85H262.39V459.84H253.52V457.85H253.53ZM257.97 460.46C260.29 460.44 261.94 461.7 261.96 463.59C261.94 465.46 260.29 466.72 257.97 466.72C255.73 466.72 254.09 465.46 254.06 463.59C254.08 461.7 255.73 460.44 257.97 460.46ZM257.97 464.93C258.99 464.93 259.66 464.42 259.64 463.59C259.66 462.76 258.99 462.25 257.97 462.25C257.01 462.25 256.34 462.76 256.34 463.59C256.34 464.42 257.01 464.93 257.97 464.93ZM262.97 467.5C266.88 467.52 269.24 468.72 269.24 470.79C269.24 472.89 266.88 474.09 262.97 474.09C259.09 474.09 256.71 472.89 256.71 470.79C256.71 468.72 259.09 467.52 262.97 467.5ZM262.97 472.17C265.43 472.17 266.69 471.72 266.71 470.79C266.69 469.85 265.43 469.41 262.97 469.41C260.53 469.41 259.25 469.86 259.27 470.79C259.25 471.73 260.53 472.17 262.97 472.17ZM269.16 467.33H266.76V462.53H265.3V466.76H262.94V456.35H265.3V460.5H266.76V455.99H269.16V467.33Z" fill="white"/>
<path d="M281.21 460.17H276.63V458.14H283.71C283.71 459.06 283.65 459.93 283.55 460.78H285.38V456.43H287.78V473.27H285.38V467.33H282.82V465.25H285.38V462.81H283.14C282.29 465.8 280.46 468.3 277.08 470.29L275.62 468.54C279.28 466.38 280.87 463.73 281.21 460.17ZM291.52 474.09H289.16V455.99H291.52V474.09Z" fill="white"/>
<path d="M297.66 468.57V465.42H300.18V468.47C301.58 468.41 302.97 468.29 304.29 468.1L304.45 469.93C300.67 470.64 296.6 470.62 293.55 470.62L293.22 468.59C294.55 468.59 296.08 468.59 297.66 468.57ZM303.85 459.52H300.21C300.35 461.37 301.67 463.14 304.38 463.91L303.16 465.86C301.15 465.29 299.74 464.11 298.95 462.59C298.16 464.28 296.71 465.58 294.62 466.19L293.32 464.24C296.13 463.41 297.45 461.51 297.61 459.52H293.97V457.44H303.86V459.52H303.85ZM305.27 455.98H307.79V463.14H310.27V465.26H307.79V474.09H305.27V455.98Z" fill="white"/>
<path d="M315.88 468.43C315.88 466.78 316.94 465.77 318.52 464.67C317.75 463.69 317.14 462.64 317.14 461.35C317.14 459.28 318.69 457.69 321.05 457.69C323.35 457.69 324.77 459.24 324.79 461.07C324.77 462.41 324.08 463.51 322.88 464.36L322 464.99L324.42 467.76C324.81 467.05 325.03 466.21 325.03 465.26H327.47C327.47 467.21 326.96 468.72 326.17 469.78L328.33 472.26H325.24L324.36 471.28C323.32 472.11 321.96 472.46 320.68 472.46C317.71 472.46 315.88 470.71 315.88 468.43ZM320.85 470.1C321.5 470.1 322.19 469.9 322.8 469.51L320.03 466.42L319.95 466.48C319.12 467.09 318.75 467.72 318.73 468.27C318.75 469.31 319.56 470.1 320.85 470.1ZM320.58 463.31L321.33 462.82C322.06 462.35 322.41 461.84 322.39 461.23C322.41 460.64 321.92 460.05 321.05 460.05C320.24 460.05 319.67 460.68 319.67 461.39C319.67 462 320.05 462.61 320.58 463.31Z" fill="white"/>
<path d="M337.85 458.75V457H340.45V458.75C340.45 461.15 341.73 463.49 344.72 464.45L343.42 466.44C341.37 465.77 339.96 464.41 339.17 462.68C338.36 464.53 336.91 466.04 334.8 466.77L333.5 464.78C336.5 463.73 337.83 461.21 337.85 458.75ZM336.54 467.94H339.1V471.72H349.15V473.75H336.54V467.94ZM348.67 469.2H346.15V456.02H348.67V469.2Z" fill="white"/>
<path d="M367.62 467.25H360.83V470.18H358.31V467.25H351.11V465.26H367.63V467.25H367.62ZM353.01 468.76H355.53V471.73H365.78V473.76H353.01V468.76ZM353.22 456.59H355.7V458.46H362.98V456.59H365.5V463.99H353.21V456.59H353.22ZM362.98 462V460.33H355.7V462H362.98Z" fill="white"/>
<path d="M385.19 466.36H368.67V464.33H385.19V466.36ZM375.08 458.87H370.18V456.84H383.69V458.87H378.75C379.16 460.13 381.01 461.37 384.47 461.68L383.62 463.67C380.18 463.34 377.88 462.04 376.93 460.29C375.97 462.04 373.7 463.34 370.28 463.67L369.43 461.68C372.8 461.37 374.67 460.15 375.08 458.87ZM376.89 467.37C380.82 467.39 383.18 468.61 383.2 470.75C383.18 472.89 380.82 474.09 376.89 474.09C372.94 474.09 370.56 472.89 370.58 470.75C370.57 468.61 372.94 467.39 376.89 467.37ZM376.89 472.09C379.35 472.11 380.65 471.68 380.67 470.75C380.65 469.79 379.35 469.37 376.89 469.37C374.39 469.37 373.13 469.8 373.15 470.75C373.13 471.69 374.39 472.11 376.89 472.09Z" fill="white"/>
<path d="M395.48 466.19H386.77V457.48H395.48V466.19ZM388.85 467.9H391.41V471.72H401.25V473.75H388.84V467.9H388.85ZM392.96 464.2V459.52H389.3V464.2H392.96ZM398.04 456.02H400.6V461.23H403.04V463.31H400.6V469.21H398.04V456.02Z" fill="white"/>
<path d="M86.77 481.32C89.58 481.34 91.69 483.13 91.69 485.67C91.69 488.21 89.57 490 86.77 489.98C83.92 490 81.81 488.21 81.81 485.67C81.8 483.13 83.92 481.34 86.77 481.32ZM90.18 495.95C91.66 494.91 92.34 493.37 92.34 492.02V491.37H94.82V492.02C94.82 493.89 95.82 495.64 98.24 496.37L96.98 498.2C95.27 497.63 94.13 496.53 93.52 495.15C92.91 496.53 91.87 497.73 90.27 498.36C88.56 497.75 87.5 496.59 86.91 495.19C86.26 496.55 85.14 497.63 83.47 498.2L82.25 496.37C84.61 495.56 85.63 493.77 85.63 492.02V491.37H88.11V492.02C88.11 493.46 88.72 494.97 90.18 495.95ZM86.77 487.91C88.17 487.91 89.19 487.06 89.17 485.67C89.19 484.29 88.17 483.45 86.77 483.47C85.31 483.45 84.27 484.28 84.29 485.67C84.26 487.06 85.3 487.91 86.77 487.91ZM94.13 480.43H96.65V490.64H94.13V480.43Z" fill="white"/>
<path d="M99.09 494.22H115.65V496.29H99.09V494.22ZM114.14 486.53C114.14 489.68 111.15 491.74 107.35 491.74C103.53 491.74 100.56 489.69 100.56 486.53C100.56 483.4 103.53 481.34 107.35 481.32C111.15 481.34 114.14 483.4 114.14 486.53ZM107.35 489.66C109.83 489.66 111.64 488.5 111.66 486.53C111.64 484.6 109.83 483.38 107.35 483.4C104.83 483.38 103 484.6 103 486.53C102.99 488.5 104.82 489.66 107.35 489.66Z" fill="white"/>
<path d="M126.01 483.23H129.39V480.42H131.91V493.56H129.39V489.17H126.01V490.68H117.43V481.89H126.01V483.23ZM119.87 492.34H122.43V496.12H132.27V498.15H119.86V492.34H119.87ZM123.53 488.72V483.88H119.95V488.72H123.53ZM129.39 487.14V485.31H126.01V487.14H129.39Z" fill="white"/>
<path d="M143.22 483.15V481.4H145.82V483.15C145.82 485.55 147.1 487.89 150.09 488.85L148.79 490.84C146.74 490.17 145.33 488.81 144.54 487.08C143.73 488.93 142.28 490.44 140.17 491.17L138.87 489.18C141.87 488.13 143.2 485.61 143.22 483.15ZM141.91 492.34H144.47V496.12H154.52V498.15H141.91V492.34ZM154.04 493.61H151.52V480.43H154.04V493.61Z" fill="white"/>
<path d="M170.83 482.62C170.83 484.12 170.83 486.22 170.36 489.21H172.98V491.24H169.03V498.48H166.51V491.24H162.77V498.48H160.21V491.24H156.47V489.21H167.78C168.27 486.77 168.35 484.9 168.35 483.47H158.46V481.4H170.83V482.62Z" fill="white"/>
<path d="M180.9 484.33H174.9V482.26H183.48C183.46 487.67 181.36 492.35 175.3 495.32L173.84 493.41C178.13 491.25 180.41 488.36 180.9 484.33ZM188.32 487.34H190.88V489.41H188.32V498.44H185.76V480.38H188.32V487.34Z" fill="white"/>
<path d="M196.86 481.16C199.67 481.16 201.78 482.91 201.78 485.43C201.78 487.91 199.66 489.68 196.86 489.7C194.01 489.68 191.9 487.91 191.9 485.43C191.9 482.91 194.01 481.16 196.86 481.16ZM196.86 487.59C198.26 487.61 199.28 486.8 199.26 485.43C199.28 484.09 198.26 483.27 196.86 483.27C195.4 483.27 194.36 484.08 194.38 485.43C194.36 486.79 195.4 487.61 196.86 487.59ZM194.66 490.92H197.14V492.59H204.22V490.92H206.74V498.28H194.66V490.92ZM204.22 496.25V494.58H197.14V496.25H204.22ZM206.75 490.11H204.23V480.39H206.75V490.11Z" fill="white"/>
<path d="M223.91 490.51H218.66V494.37H225.74V496.4H209.18V494.37H216.18V490.51H211.14V481.68H223.79V483.67H213.7V488.47H223.91V490.51Z" fill="white"/>
<path d="M232 481.85H234.52V486.24H238.3V481.85H240.82V494.3H232V481.85ZM238.3 492.22V488.19H234.52V492.22H238.3ZM245.71 487.18H248.35V489.3H245.71V498.49H243.15V480.39H245.71V487.18Z" fill="white"/>
<path d="M265.56 496.45H249V494.37H256V491.64H250.92V485.58H261.13V483.59H250.88V481.56H263.65V487.58H253.44V489.61H264.06V491.64H258.49V494.37H265.57V496.45H265.56Z" fill="white"/>
<path d="M278.1 484.33H272.1V482.26H280.68C280.66 487.67 278.56 492.35 272.5 495.32L271.04 493.41C275.33 491.25 277.61 488.36 278.1 484.33ZM285.53 487.34H288.09V489.41H285.53V498.44H282.97V480.38H285.53V487.34Z" fill="white"/>
<path d="M288.82 488.52H305.34V490.55H288.82V488.52ZM297.03 491.74C300.96 491.72 303.32 492.94 303.34 495.07C303.32 497.23 300.96 498.43 297.03 498.41C293.08 498.43 290.7 497.23 290.72 495.07C290.71 492.93 293.09 491.71 297.03 491.74ZM303.46 486.98H290.93V480.67H293.45V484.94H303.46V486.98ZM297.03 496.49C299.49 496.49 300.79 496 300.81 495.07C300.79 494.11 299.49 493.69 297.03 493.69C294.53 493.69 293.27 494.12 293.29 495.07C293.27 496.01 294.53 496.49 297.03 496.49Z" fill="white"/>
<path d="M306.3 483.11H310.37V480.67H312.93V483.11H316.92V485.14H306.3V483.11ZM311.67 486.16C314.29 486.14 316.27 487.93 316.27 490.47C316.27 492.97 314.3 494.76 311.67 494.74C308.99 494.76 307.01 492.97 307.03 490.47C307.02 487.93 308.99 486.14 311.67 486.16ZM311.67 492.67C312.91 492.69 313.83 491.86 313.83 490.47C313.83 489.07 312.91 488.21 311.67 488.19C310.37 488.21 309.45 489.06 309.47 490.47C309.46 491.86 310.37 492.69 311.67 492.67ZM320.67 487.5H323.31V489.58H320.67V498.49H318.15V480.39H320.67V487.5Z" fill="white"/>
<path d="M324.69 482.09H333.15V484.12H327.21V492.05C329.83 492.01 331.99 491.89 334.37 491.48L334.65 493.6C331.86 494.07 329.4 494.15 326.19 494.13H324.68V482.09H324.69ZM338.23 487.14H340.87V489.17H338.23V498.53H335.67V480.39H338.23V487.14Z" fill="white"/>
<path d="M356.09 483.07C356.09 484.78 356.09 486.63 355.62 489.17H358.04V491.2H350.96V498.48H348.44V491.2H341.52V489.17H353.07C353.52 486.83 353.56 485.04 353.56 483.47H343.43V481.48H356.08V483.07H356.09Z" fill="white"/>
<path d="M361.7 493.52C362.57 493.5 363.35 494.25 363.37 495.15C363.35 496.09 362.58 496.84 361.7 496.82C360.76 496.84 359.99 496.09 360.03 495.15C359.99 494.26 360.76 493.5 361.7 493.52ZM362.96 492.34H360.4L360.16 482.25H363.21L362.96 492.34Z" fill="white"/>
<path d="M367.92 493.52C368.79 493.5 369.57 494.25 369.59 495.15C369.57 496.09 368.8 496.84 367.92 496.82C366.98 496.84 366.21 496.09 366.25 495.15C366.21 494.26 366.99 493.5 367.92 493.52ZM369.18 492.34H366.62L366.38 482.25H369.43L369.18 492.34Z" fill="white"/>
<path d="M182.73 588.94H175.69V590.49H180.69V596.06H178.17V592.52H168.04V590.49H173.17V588.94H166.21V586.91H182.73V588.94ZM172.99 581.62H167.8V579.67H173.17V578.04H175.69V579.67H181.1V581.62H175.89C176.18 582.94 178.03 584.1 181.95 584.39L181.18 586.26C177.86 586.04 175.57 585.08 174.43 583.62C173.29 585.08 170.99 586.04 167.68 586.26L166.91 584.39C170.83 584.1 172.68 582.94 172.99 581.62Z" fill="white"/>
<path d="M187.08 582.88V581.9H184.11V579.87H192.25V581.9H189.52V582.88C189.5 585.87 190.46 588.9 193.1 590.41L191.59 592.28C189.96 591.32 188.93 589.72 188.32 587.78C187.69 589.87 186.61 591.66 184.96 592.68L183.41 590.81C186.08 589.18 187.08 585.93 187.08 582.88ZM190.98 584.22H193.34V578.32H195.7V595.24H193.34V586.25H190.98V584.22ZM199.41 596.1H197.01V578H199.41V596.1Z" fill="white"/>
<path d="M213.23 581.9H207.05V579.91H215.8C215.82 585.38 213.89 589.96 207.42 593.01L206.12 590.98C210.77 588.76 212.82 585.91 213.23 581.9ZM221.25 596.1H218.69V578H221.25V596.1Z" fill="white"/>
<path d="M230.23 581.45H224.29V579.38H233.04C233.02 584.26 229.97 587.68 224.54 589.22L223.48 587.19C227.53 586.07 229.8 584 230.23 581.45ZM226.2 589.63H228.76V593.74H238.56V595.77H226.2V589.63ZM237.96 583.08H240.4V585.15H237.96V590.97H235.4V578H237.96V583.08Z" fill="white"/>
<path d="M262.36 588.57H245.84V586.54H252.88V584.99H247.84V578.81H260.41V580.8H250.36V583H260.49V584.99H255.36V586.54H262.36V588.57ZM254.07 589.47C258 589.47 260.36 590.65 260.38 592.8C260.36 594.92 258 596.12 254.07 596.14C250.12 596.12 247.74 594.92 247.76 592.8C247.74 590.65 250.12 589.47 254.07 589.47ZM254.07 594.19C256.53 594.19 257.83 593.74 257.85 592.81C257.83 591.87 256.53 591.39 254.07 591.39C251.57 591.39 250.31 591.88 250.33 592.81C250.3 593.74 251.56 594.19 254.07 594.19Z" fill="white"/>
<path d="M268.5 579.18C271.27 579.18 273.42 581.09 273.42 583.78C273.42 586.44 271.26 588.38 268.5 588.38C265.73 588.38 263.54 586.45 263.54 583.78C263.54 581.09 265.74 579.18 268.5 579.18ZM268.5 586.17C269.9 586.15 270.96 585.25 270.98 583.77C270.96 582.26 269.9 581.39 268.5 581.37C267.14 581.39 266.02 582.26 266.02 583.77C266.02 585.26 267.14 586.15 268.5 586.17ZM266.02 589.79H268.58V593.74H278.42V595.77H266.01V589.79H266.02ZM277.78 583.2H280.22V585.32H277.78V591.18H275.22V578.04H277.78V583.2Z" fill="white"/>
<path d="M283.1 598.46H280.98L281.96 592.8H284.81L283.1 598.46Z" fill="white"/>
<path d="M53.7 614.52L52.15 616.55C50.14 615.57 48.79 613.76 48.04 611.53C47.27 613.91 45.86 615.86 43.81 616.88L42.22 614.81C45.31 613.41 46.72 609.91 46.74 606.51V603.82H49.3V606.51C49.33 609.9 50.69 613.22 53.7 614.52ZM51.67 608.09H55.25V602.39H57.73V620.53H55.25V610.12H51.67V608.09Z" fill="white"/>
<path d="M60.0399 609.6H76.5599V611.55H69.5199V612.77H74.5199V617.37H64.4399V618.47H75.0199V620.38H61.9599V615.62H72.0499V614.64H61.9599V612.77H66.9999V611.55H60.0399V609.6ZM74.8499 605.65C74.8499 607.66 72.4499 608.76 68.2999 608.74C64.1099 608.76 61.6899 607.66 61.7099 605.65C61.6899 603.68 64.1099 602.58 68.2999 602.56C72.4499 602.58 74.8499 603.68 74.8499 605.65ZM68.2999 606.91C70.9599 606.89 72.2499 606.54 72.2499 605.65C72.2499 604.86 70.9699 604.45 68.2999 604.43C65.6399 604.45 64.3499 604.86 64.3499 605.65C64.3599 606.55 65.6399 606.89 68.2999 606.91Z" fill="white"/>
<path d="M78.14 604.51H84.89V606.54H80.66V614.27C82.41 614.25 83.95 614.15 85.7 613.82L85.9 615.89C83.68 616.32 81.77 616.38 79.39 616.38H78.13V604.51H78.14ZM93.23 620.5H90.83V611.43H89.12V619.61H86.76V602.73H89.12V609.4H90.83V602.4H93.23V620.5Z" fill="white"/>
<path d="M105.92 606.02H95.1799V604.03H99.2899V602.32H101.81V604.03H105.92V606.02ZM100.55 606.63C103.17 606.63 105 607.97 105.03 609.97C105.01 611.94 103.18 613.29 100.55 613.26C97.9299 613.28 96.0799 611.94 96.0799 609.97C96.0799 607.97 97.9299 606.63 100.55 606.63ZM97.3799 614.52H109.54V620.5H106.98V616.55H97.3799V614.52ZM100.55 611.35C101.77 611.35 102.58 610.88 102.58 609.97C102.58 609.03 101.77 608.53 100.55 608.51C99.3499 608.53 98.5399 609.04 98.5599 609.97C98.5399 610.88 99.3499 611.35 100.55 611.35ZM106.98 602.4H109.54V607.12H111.98V609.19H109.54V613.75H106.98V602.4Z" fill="white"/>
<path d="M112.75 616.23H116.25V610.53H118.81V616.23H120.8V610.53H123.28V616.23H129.26V618.3H112.74V616.23H112.75ZM127.76 605.73C127.74 607.95 127.74 610.43 127.07 614.07L124.59 613.87C125.18 610.55 125.2 608.13 125.2 606.02H114.38V603.99H127.76V605.73Z" fill="white"/>
<path d="M151.52 613.14H135V611.11H141.96V609.69H137.12V602.81H139.6V604.44H146.88V602.81H149.4V609.69H144.52V611.11H151.52V613.14ZM136.91 614.28H149.52V620.3H136.91V614.28ZM147.04 618.26V616.27H139.43V618.26H147.04ZM146.88 607.69V606.31H139.6V607.69H146.88Z" fill="white"/>
<path d="M173.76 613.34H166.72V614.89H171.72V620.46H169.2V616.92H159.07V614.89H164.2V613.34H157.24V611.31H173.76V613.34ZM164.02 606.02H158.83V604.07H164.2V602.44H166.72V604.07H172.13V606.02H166.92C167.21 607.34 169.06 608.5 172.98 608.79L172.21 610.66C168.89 610.44 166.6 609.48 165.46 608.02C164.32 609.48 162.02 610.44 158.71 610.66L157.94 608.79C161.86 608.5 163.72 607.34 164.02 606.02Z" fill="white"/>
<path d="M178.11 607.28V606.3H175.14V604.27H183.28V606.3H180.55V607.28C180.53 610.27 181.49 613.3 184.13 614.81L182.62 616.68C180.99 615.72 179.96 614.12 179.35 612.18C178.72 614.27 177.64 616.06 175.99 617.08L174.44 615.21C177.12 613.58 178.11 610.33 178.11 607.28ZM182.02 608.62H184.38V602.72H186.74V619.64H184.38V610.65H182.02V608.62ZM190.44 620.5H188.04V602.4H190.44V620.5Z" fill="white"/>
<path d="M197.1 604.35H201.01V602.4H203.53V604.35H207.15V606.34H197.1V604.35ZM202.23 606.95C204.71 606.97 206.5 608.43 206.5 610.53C206.5 612.6 204.71 614.07 202.23 614.07C199.79 614.07 197.98 612.61 198 610.53C197.98 608.44 199.79 606.97 202.23 606.95ZM200.28 615.05H202.84V618.14H212.68V620.17H200.27V615.05H200.28ZM202.23 612.12C203.33 612.12 204.12 611.57 204.14 610.53C204.12 609.51 203.33 608.94 202.23 608.94C201.13 608.94 200.36 609.51 200.36 610.53C200.36 611.57 201.13 612.12 202.23 612.12ZM212.32 616.23H209.8V612.81H207.32V610.78H209.8V608.99H207.32V606.96H209.8V602.44H212.32V616.23Z" fill="white"/>
<path d="M224.93 605.65H221.31C221.33 607.74 222.59 609.8 225.5 610.65L224.28 612.64C222.29 612.03 220.9 610.81 220.09 609.26C219.3 611.07 217.83 612.51 215.66 613.21L214.4 611.22C217.37 610.28 218.73 607.95 218.75 605.65H215.09V603.62H224.93V605.65ZM223.05 613.5C226.81 613.48 229.15 614.78 229.15 617C229.15 619.2 226.81 620.5 223.05 620.5C219.23 620.5 216.85 619.2 216.87 617C216.85 614.79 219.23 613.48 223.05 613.5ZM223.05 618.51C225.39 618.53 226.65 618.02 226.63 617.01C226.65 615.97 225.39 615.48 223.05 615.46C220.69 615.48 219.39 615.97 219.39 617.01C219.39 618.02 220.69 618.53 223.05 618.51ZM226.43 602.4H228.99V606.63H231.43V608.66H228.99V613.13H226.43V602.4Z" fill="white"/>
<path d="M240.3 605.94H244.12V603.54H246.64V612.25H237.81V603.54H240.29V605.94H240.3ZM244.53 613.99V613.7H247.17V613.99C247.17 616 249.04 617.94 252.91 618.46L252.02 620.41C249.05 619.98 246.94 618.74 245.86 616.99C244.78 618.74 242.69 619.98 239.74 620.41L238.8 618.46C242.66 617.94 244.55 616.01 244.53 613.99ZM244.12 610.29V607.89H240.3V610.29H244.12ZM249.49 602.4H252.01V614.65H249.49V602.4Z" fill="white"/>
<path d="M256.77 604.51V603.45H259.17V604.51C259.15 606.08 259.37 607.93 260.41 609.35C261.43 607.95 261.61 606.1 261.61 604.51V603.45H264.01V604.51C263.99 606.73 264.56 609.09 266.69 610.37L265.27 612.16C264.05 611.45 263.28 610.29 262.83 608.95C262.38 610.35 261.63 611.59 260.39 612.37C259.13 611.58 258.38 610.3 257.95 608.89C257.48 610.25 256.71 611.43 255.47 612.16L254.13 610.37C256.22 609.09 256.77 606.63 256.77 604.51ZM257.42 613.54H270.03V620.25H257.42V613.54ZM267.51 618.26V615.53H259.9V618.26H267.51ZM270.03 612.73H267.47V608.01H265.39V605.98H267.47V602.4H270.03V612.73Z" fill="white"/>
<path d="M293.21 614.85H286.17V620.51H283.65V614.85H276.69V612.86H293.21V614.85ZM278.61 603.13H281.13V605.21H288.74V603.13H291.26V611.1H278.61V603.13ZM288.74 609.07V607.2H281.13V609.07H288.74Z" fill="white"/>
<path d="M294.27 616.19H310.83V618.26H294.27V616.19ZM310.21 610.98L309.11 613.1C305.96 612.47 303.62 610.7 302.44 608.38C301.26 610.68 298.9 612.45 295.77 613.1L294.67 610.98C298.72 610.27 301.06 607.42 301.1 604.8V603.5H303.78V604.8C303.79 607.46 306.12 610.29 310.21 610.98Z" fill="white"/>
<path d="M315.95 603.7C318.11 603.7 319.61 605.73 319.9 609.11H321.36V602.68H323.76V619.64H321.36V611.14H319.9C319.68 614.68 318.17 616.81 315.95 616.79C313.55 616.81 312 614.31 312 610.24C312 606.2 313.54 603.7 315.95 603.7ZM315.95 614.4C316.99 614.4 317.6 613.04 317.58 610.25C317.6 607.48 316.99 606.1 315.95 606.1C314.93 606.1 314.32 607.48 314.32 610.25C314.32 613.04 314.93 614.4 315.95 614.4ZM327.5 620.5H325.1V602.4H327.5V620.5Z" fill="white"/>
<path d="M340.63 614.52L339.08 616.55C337.07 615.57 335.72 613.76 334.97 611.53C334.2 613.91 332.79 615.86 330.74 616.88L329.15 614.81C332.24 613.41 333.65 609.91 333.66 606.51V603.82H336.22V606.51C336.26 609.9 337.62 613.22 340.63 614.52ZM338.6 608.09H342.18V602.39H344.66V620.53H342.18V610.12H338.6V608.09Z" fill="white"/>
<path d="M360.89 612.61H352.18V603.9H360.89V612.61ZM354.26 614.32H356.82V618.14H366.66V620.17H354.25V614.32H354.26ZM358.37 610.62V605.94H354.71V610.62H358.37ZM363.45 602.44H366.01V607.65H368.45V609.73H366.01V615.63H363.45V602.44Z" fill="white"/>
<path d="M369.79 604.15H372.31V613.95C374.63 613.91 377.09 613.71 379.71 613.18L379.99 615.3C376.96 615.89 374.03 616.05 371.37 616.03H369.78V604.15H369.79ZM386.06 611.35H383.5V620.46H380.94V602.4H383.5V609.28H386.06V611.35Z" fill="white"/>
<path d="M403.35 618.38H386.79V616.31H390.49V611.88C389.09 611.03 388.25 609.74 388.25 608.14C388.25 605.25 391.12 603.3 395.04 603.3C398.95 603.3 401.83 605.25 401.83 608.14C401.83 609.73 401 611.01 399.63 611.84V616.31H403.33V618.38H403.35ZM395.05 611.02C397.59 611.02 399.34 609.92 399.36 608.13C399.34 606.34 397.59 605.28 395.05 605.28C392.45 605.28 390.76 606.34 390.74 608.13C390.76 609.92 392.45 611.02 395.05 611.02ZM397.08 616.31V612.79C396.45 612.91 395.76 612.97 395.05 612.97C394.34 612.97 393.65 612.91 393.02 612.79V616.31H397.08Z" fill="white"/>
<path d="M406.97 615.54C407.84 615.52 408.62 616.27 408.64 617.17C408.62 618.11 407.85 618.86 406.97 618.84C406.03 618.86 405.26 618.11 405.3 617.17C405.26 616.27 406.03 615.52 406.97 615.54ZM408.23 614.36H405.67L405.43 604.27H408.48L408.23 614.36Z" fill="white"/>
<path d="M226.63 48.58H226.3C224.77 48.58 223.89 47.34 224.33 45.82L225.44 41.95H228.53L226.63 48.58Z" fill="#D1350F"/>
<path d="M236.16 41.96H234.28L232.38 48.59H234.26C235.48 48.59 235.87 49.51 235.35 51.35C234.82 53.19 233.9 54.11 232.68 54.11C231.46 54.11 231.07 53.19 231.59 51.35L235.07 39.2C235.51 37.67 234.63 36.44 233.1 36.44H229.23L224.95 51.35C223.16 57.61 225.57 60.74 230.76 60.74C235.95 60.74 240.16 57.61 241.96 51.35C243.76 45.09 241.35 41.96 236.16 41.96Z" fill="#FF8200"/>
<path d="M241.97 51.35C243.76 45.09 241.35 41.96 236.16 41.96H234.28L232.38 48.59H234.26C235.48 48.59 235.87 49.51 235.35 51.35" fill="url(#paint0_linear_17_518)"/>
<path d="M282.36 51.99H267.34L265.92 58.14C265.78 58.76 266.25 59.35 266.88 59.35H282.19L283.55 53.49C283.73 52.72 283.14 51.99 282.36 51.99ZM278.99 56.52H270.16L270.56 54.81H279.39L278.99 56.52Z" fill="#282828"/>
<path d="M260.78 53.52H263.1L265.74 42.14C265.91 41.4 265.32 40.66 264.54 40.66H262.22L259.58 52.04C259.41 52.78 260.01 53.52 260.78 53.52Z" fill="#282828"/>
<path d="M248.06 50.88H258.32L260.35 42.15C260.52 41.41 259.93 40.67 259.15 40.67H256.83L256.1 43.8H252.02L252.4 42.16C252.57 41.42 251.98 40.68 251.2 40.68H248.88L246.85 49.41C246.69 50.14 247.28 50.88 248.06 50.88ZM251.37 46.62H255.45L255.12 48.04H251.04L251.37 46.62Z" fill="#282828"/>
<path d="M284.64 40.67H282.32L281.58 43.84H279.51L279.19 45.18C279.01 45.92 279.61 46.67 280.39 46.67H280.93L280.3 49.39C280.13 50.13 280.73 50.87 281.5 50.87H283.82L285.84 42.15C286.01 41.41 285.41 40.67 284.64 40.67Z" fill="#282828"/>
<path d="M269.76 48.28C270.11 50.35 271.71 50.8 271.71 50.8C273.26 50.51 274.67 49.43 275.21 48.49C275.86 50.69 278.86 50.91 278.86 50.91L279.62 47.63C277.81 47.44 277.67 45.46 278.58 41.9C278.74 41.27 278.27 40.66 277.63 40.66H275.24C275 42.03 273.66 46.12 272.73 46.58C272.4 45.9 272.86 43.38 273.18 41.86C273.31 41.25 272.84 40.67 272.21 40.67H269.93C269.53 43.46 267.69 47.26 265.89 47.15C265.89 47.15 265.17 50.27 265.05 50.77C266.4 50.77 268.97 49.66 269.76 48.28Z" fill="#282828"/>
<path d="M262.84 59.35C262.84 59.35 258.01 59.26 255.18 56.46C253.33 57.91 250.45 58.83 247.71 59.05C247.14 59.1 246.65 58.64 246.64 58.07L246.6 55.76C250.05 55.71 253.51 54.3 254.18 51.8L256.71 52.24C257.32 52.35 257.66 53 257.41 53.57C257.37 53.66 257.31 53.78 257.28 53.85C258.77 55.17 260.42 55.76 262.49 56.03C263.07 56.11 263.46 56.67 263.33 57.24L262.84 59.35Z" fill="#282828"/>
<defs>
<linearGradient id="paint0_linear_17_518" x1="238.927" y1="49.6592" x2="235.884" y2="44.4919" gradientUnits="userSpaceOnUse">
<stop stop-color="#FF8200"/>
<stop offset="1" stop-color="#D1350F"/>
</linearGradient>
</defs>
</svg>
