<svg width="340" height="60" viewBox="0 0 340 60" fill="none" xmlns="http://www.w3.org/2000/svg">
<path d="M311.81 59.72H30.57C15.1 59.72 2.55 47.18 2.55 31.7C2.55 16.23 15.09 3.67999 30.57 3.67999H311.81C327.28 3.67999 339.83 16.22 339.83 31.7C339.83 47.18 327.29 59.72 311.81 59.72Z" fill="#D770A1"/>
<path d="M309.75 56.59H28.51C13.04 56.59 0.489998 44.05 0.489998 28.57C0.489998 13.1 13.03 0.549988 28.51 0.549988H309.75C325.22 0.549988 337.77 13.09 337.77 28.57C337.77 44.05 325.22 56.59 309.75 56.59Z" fill="#FCC8D6"/>
<path d="M229.54 28.7H229.21C227.68 28.7 226.8 27.46 227.24 25.94L228.35 22.07H231.44L229.54 28.7Z" fill="#D1350F"/>
<path d="M239.06 22.07H237.18L235.28 28.7H237.16C238.38 28.7 238.77 29.62 238.25 31.46C237.72 33.3 236.8 34.22 235.58 34.22C234.36 34.22 233.97 33.3 234.49 31.46L237.97 19.31C238.41 17.78 237.53 16.55 236 16.55H232.13L227.85 31.46C226.06 37.72 228.47 40.85 233.66 40.85C238.85 40.85 243.06 37.72 244.86 31.46C246.67 25.2 244.25 22.07 239.06 22.07Z" fill="#FF8200"/>
<path d="M244.87 31.46C246.66 25.2 244.25 22.07 239.06 22.07H237.18L235.28 28.7H237.16C238.38 28.7 238.77 29.62 238.25 31.46" fill="url(#paint0_linear_6_11062)"/>
<path d="M285.26 32.11H270.24L268.82 38.26C268.68 38.88 269.15 39.47 269.78 39.47H285.09L286.45 33.61C286.63 32.84 286.05 32.11 285.26 32.11ZM281.89 36.64H273.06L273.46 34.93H282.29L281.89 36.64Z" fill="#282828"/>
<path d="M263.68 33.64H266L268.64 22.26C268.81 21.52 268.22 20.78 267.44 20.78H265.12L262.48 32.16C262.32 32.9 262.91 33.64 263.68 33.64Z" fill="#282828"/>
<path d="M250.96 30.99H261.22L263.25 22.26C263.42 21.52 262.83 20.78 262.05 20.78H259.73L259 23.91H254.92L255.3 22.27C255.47 21.53 254.88 20.79 254.1 20.79H251.78L249.75 29.52C249.59 30.25 250.19 30.99 250.96 30.99ZM254.27 26.74H258.35L258.02 28.16H253.94L254.27 26.74Z" fill="#282828"/>
<path d="M287.54 20.78H285.22L284.48 23.95H282.41L282.09 25.29C281.91 26.03 282.51 26.78 283.29 26.78H283.83L283.2 29.5C283.03 30.24 283.63 30.98 284.4 30.98H286.72L288.74 22.26C288.91 21.52 288.32 20.78 287.54 20.78Z" fill="#282828"/>
<path d="M272.67 28.39C273.02 30.46 274.62 30.91 274.62 30.91C276.17 30.62 277.58 29.54 278.12 28.6C278.77 30.8 281.77 31.02 281.77 31.02L282.53 27.74C280.72 27.55 280.58 25.57 281.49 22.01C281.65 21.38 281.18 20.77 280.54 20.77H278.15C277.91 22.14 276.57 26.23 275.64 26.69C275.31 26.01 275.77 23.49 276.09 21.97C276.22 21.36 275.75 20.78 275.12 20.78H272.84C272.44 23.57 270.6 27.37 268.8 27.26C268.8 27.26 268.08 30.38 267.96 30.88C269.3 30.89 271.87 29.78 272.67 28.39Z" fill="#282828"/>
<path d="M265.74 39.47C265.74 39.47 260.91 39.38 258.08 36.58C256.23 38.03 253.35 38.95 250.61 39.17C250.04 39.22 249.55 38.76 249.54 38.19L249.5 35.88C252.95 35.83 256.41 34.42 257.08 31.92L259.61 32.36C260.22 32.47 260.56 33.12 260.31 33.69C260.27 33.78 260.21 33.9 260.18 33.97C261.67 35.29 263.32 35.88 265.39 36.15C265.97 36.23 266.36 36.79 266.23 37.36L265.74 39.47Z" fill="#282828"/>
<path d="M208.44 31.45L205.71 35.91C205.09 36.79 204.4 36.87 203.34 36.13C202.35 35.45 202.13 34.76 202.64 34.1L206.28 28.63L202.88 23.6C202.26 22.68 202.46 21.91 203.52 21.17C204.44 20.53 205.13 20.65 205.69 21.57L208.42 26.05L211.11 21.55C211.65 20.64 212.34 20.5 213.28 21.17C214.31 21.89 214.51 22.66 213.94 23.56L210.62 28.85L214.2 34.1C214.7 34.76 214.48 35.41 213.5 36.13C212.5 36.85 211.73 36.77 211.13 35.91L208.44 31.45Z" fill="black"/>
<path d="M53.52 36.55L51.65 36.27L50.98 36.03L50.81 35.88V34.88L51.33 32.03L51.48 31.68H52.42L53.49 31.74L55.19 32.29L55.95 32.4L56.67 32.31L57.39 32.16L57.48 31.92L57.39 31.53L57.13 31.14L55.61 31.05L52.91 30.18L51.69 29.53L51.15 28.9L50.91 27.79L51.02 26.24L51.17 25.48L51.61 24.37L52.46 23.26L53.05 22.82L54.03 22.32L55.25 21.93H57.14L59.62 22.3L60.67 22.74L60.87 22.94L61.67 23.22L61.84 23.37V23.89L61.17 25.61L60.95 26.79L60.75 26.99L59.88 26.92L59.03 26.57L57.31 26.03H56.63L56.37 26.29L56.2 27.2L56.46 27.46L57.05 27.7L58.88 28L59.97 28.26L61.04 28.95L61.54 29.71L61.93 30.47L62.15 31.28V33.3L61.95 34.19L61.65 34.78L61.35 35.11L60.11 35.91L58.87 36.39L57.45 36.74H55.21L54.49 36.61L53.52 36.55Z" fill="black"/>
<path d="M65.59 36.64H63.8L63.58 36.55L63.43 36.18V35.53L63.89 28.83V22.67L64.02 22.39L64.85 22.19H66.79L67.31 22.26L70.38 22.35L70.73 22.92L71.67 24.73L72.15 25.45L73.76 28.52L73.85 28.58V25.36L74.02 22.51L74.11 22.27L74.41 22.18L75.13 22.27H76.68L78.1 22.12H79.28L79.45 22.29V22.49L79.32 22.69L79.04 25.93L78.82 27.17L78.73 31.83L78.32 36.08L78.15 36.17H77.58L76.69 36.32L74.06 36.39L73.25 36.59L72.99 36.74H72.64L72.47 36.56L70.6 33.08L69.6 30.62L68.99 28.59L68.55 36.82L68.44 36.95H66.83L65.59 36.64Z" fill="black"/>
<path d="M83.93 35.85L83.26 35.33L82.19 34.04L81.3 32.67L81.08 32.06L80.75 28.21L80.92 24.38L81.29 22.4V22.12L81.49 21.92L85.02 21.74L85.82 21.89L86.28 22.11L86.41 22.33L85.8 26.25L85.71 27.66V30.62L85.82 31.62L85.99 31.97L86.29 32.27L86.59 32.38H87.64L88.18 32.23L88.55 31.86L88.7 31.36L88.96 29.09L88.81 22.34L88.98 22.14H89.48L92.94 22.53L93.14 22.64L93.99 22.75L94.1 24.69V26.76L93.66 30.85L93.31 32.16L93.09 32.7L92.5 33.85L91.59 35.16L90.85 35.9L90.26 36.29L89.08 36.7H87.12L86.27 36.57L83.93 35.85Z" fill="black"/>
<path d="M95.43 32.3V23.46L95.52 22.89L95.58 21.78L106.49 21.71L106.56 23.95L106.47 26.52L106.14 26.59L100.98 26.72L101.11 29.03L101.41 28.96H103.3L103.69 29.13L103.73 29.46V32.42L103.51 32.64L103.29 32.71L102.46 32.82L101.09 32.86V33.3L101.44 35.43L101.68 36.32V36.8L101.48 37L98.76 37.09L98.32 37.16L96.6 37.2L96.36 37.24H95.88L95.75 37.11L95.43 32.3Z" fill="black"/>
<path d="M107.98 36.64V36.36L107.87 35.25V31.07L108.41 21.97L108.52 21.84L109.85 21.69L117.17 21.75L117.5 21.82L118.09 21.86L118.24 23.45V26.19L118.09 26.34L112.6 26.14L112.54 28.04L113.5 27.93H115.96L116.22 28.08L116.35 28.34V29.95L116.24 31.5L116.11 31.96L115.87 32.07L113.39 31.96L112.78 31.85L112.63 33.26L118.03 33.39L118.27 33.52L118.38 33.95L118.47 36.46L118.51 36.55V36.68L118.44 36.96H111.04L108.1 36.76L107.98 36.64Z" fill="black"/>
<path d="M121.62 36.55L119.75 36.27L119.08 36.03L118.91 35.88V34.88L119.43 32.03L119.58 31.68H120.52L121.59 31.74L123.29 32.29L124.05 32.4L124.77 32.31L125.49 32.16L125.58 31.92L125.49 31.53L125.23 31.14L123.71 31.05L121.01 30.18L119.79 29.53L119.25 28.9L119.01 27.79L119.12 26.24L119.27 25.48L119.71 24.37L120.56 23.26L121.15 22.82L122.13 22.32L123.35 21.93H125.24L127.72 22.3L128.77 22.74L128.97 22.94L129.77 23.22L129.94 23.37V23.89L129.27 25.61L129.05 26.79L128.85 26.99L127.98 26.92L127.13 26.57L125.41 26.03H124.73L124.47 26.29L124.3 27.2L124.56 27.46L125.15 27.7L126.98 28L128.07 28.26L129.14 28.95L129.64 29.71L130.03 30.47L130.25 31.28V33.3L130.05 34.19L129.75 34.78L129.45 35.11L128.21 35.91L126.97 36.39L125.55 36.74H123.31L122.59 36.61L121.62 36.55Z" fill="black"/>
<path d="M134.6 36.09L134.49 33.26L134.62 29.76L134.79 28.15V26.84H133.4L132.09 27.04L131.18 26.97L131.09 26.51L131.24 22.61L131.33 22.24L131.48 22.07L132.35 21.92L135.79 22.12L143.15 21.95L144.78 22.1L144.98 22.21L145.07 22.43L145 22.58L144.91 27.15L144.78 27.39H142.71L141.27 27.48L140.6 27.39L140.06 27.26L140.04 36.23L139.91 36.47L139.71 36.56H138.95L138.69 36.49H136.16L135.35 36.62H134.85L134.7 36.55L134.6 36.09Z" fill="black"/>
<path d="M145.3 36.96L145.28 34.06L145.87 26.29L146.22 23.81L146.44 22.9L146.59 21.94L150.86 22.11L151.19 22.26V23.59L150.17 36.85L150.06 37.05H146.03L145.3 36.96Z" fill="black"/>
<path d="M156.32 37.12L156.38 36.97L154.94 31.94L154.05 29.57L153.68 28.09L151.81 22.43V21.93L152.31 21.78L153.31 21.71L156.45 21.75L157.02 21.93L157.26 22.17L157.46 22.67L158.46 26.72L158.66 27.87L158.86 28.63L159.06 29.61L159.13 29.68L160.74 26.26L162.2 22.47L162.44 22.27H167.77L167.9 22.51L162.5 34.59L161.3 36.83L161.19 37.16L160.73 37.22H158.66L157.77 37.33H156.53L156.33 37.22V37.12H156.32Z" fill="black"/>
<path d="M173.91 36.77L173.69 36.64L173.6 36.42L173.45 32.72H170.6L169.47 36.31L169.43 36.77H164.42L164.25 36.57L164.34 36.42L164.47 36.27L169.74 21.79L173.22 21.72L175.2 21.81L179.03 36.31L178.99 36.9L173.91 36.77ZM171.96 28.93L172.16 28.89L173.16 28.82L172.83 26.58L172.44 25.27L171.24 28.93H171.96Z" fill="black"/>
<path d="M181.41 36.83L180.23 36.79L179.97 36.66L179.9 35.88V28.63L180.29 21.93L180.4 21.73L181.68 21.93H183.01L184.47 21.78L185.43 21.93L185.65 22.15L185.43 23.7V31.3L189.76 31.41L189.96 31.5L190.03 31.7L190.12 36.36L189.92 36.58L189.18 36.78L187.79 36.85L185.46 36.78L185.05 36.69L182.94 36.99L181.81 36.9L181.41 36.83Z" fill="black"/>
<path d="M53.52 36.55L51.65 36.27L50.98 36.03L50.81 35.88V34.88L51.33 32.03L51.48 31.68H52.42L53.49 31.74L55.19 32.29L55.95 32.4L56.67 32.31L57.39 32.16L57.48 31.92L57.39 31.53L57.13 31.14L55.61 31.05L52.91 30.18L51.69 29.53L51.15 28.9L50.91 27.79L51.02 26.24L51.17 25.48L51.61 24.37L52.46 23.26L53.05 22.82L54.03 22.32L55.25 21.93H57.14L59.62 22.3L60.67 22.74L60.87 22.94L61.67 23.22L61.84 23.37V23.89L61.17 25.61L60.95 26.79L60.75 26.99L59.88 26.92L59.03 26.57L57.31 26.03H56.63L56.37 26.29L56.2 27.2L56.46 27.46L57.05 27.7L58.88 28L59.97 28.26L61.04 28.95L61.54 29.71L61.93 30.47L62.15 31.28V33.3L61.95 34.19L61.65 34.78L61.35 35.11L60.11 35.91L58.87 36.39L57.45 36.74H55.21L54.49 36.61L53.52 36.55Z" fill="#D770A1"/>
<path d="M65.59 36.64H63.8L63.58 36.55L63.43 36.18V35.53L63.89 28.83V22.67L64.02 22.39L64.85 22.19H66.79L67.31 22.26L70.38 22.35L70.73 22.92L71.67 24.73L72.15 25.45L73.76 28.52L73.85 28.58V25.36L74.02 22.51L74.11 22.27L74.41 22.18L75.13 22.27H76.68L78.1 22.12H79.28L79.45 22.29V22.49L79.32 22.69L79.04 25.93L78.82 27.17L78.73 31.83L78.32 36.08L78.15 36.17H77.58L76.69 36.32L74.06 36.39L73.25 36.59L72.99 36.74H72.64L72.47 36.56L70.6 33.08L69.6 30.62L68.99 28.59L68.55 36.82L68.44 36.95H66.83L65.59 36.64Z" fill="#D770A1"/>
<path d="M83.93 35.85L83.26 35.33L82.19 34.04L81.3 32.67L81.08 32.06L80.75 28.21L80.92 24.38L81.29 22.4V22.12L81.49 21.92L85.02 21.74L85.82 21.89L86.28 22.11L86.41 22.33L85.8 26.25L85.71 27.66V30.62L85.82 31.62L85.99 31.97L86.29 32.27L86.59 32.38H87.64L88.18 32.23L88.55 31.86L88.7 31.36L88.96 29.09L88.81 22.34L88.98 22.14H89.48L92.94 22.53L93.14 22.64L93.99 22.75L94.1 24.69V26.76L93.66 30.85L93.31 32.16L93.09 32.7L92.5 33.85L91.59 35.16L90.85 35.9L90.26 36.29L89.08 36.7H87.12L86.27 36.57L83.93 35.85Z" fill="#D770A1"/>
<path d="M95.43 32.3V23.46L95.52 22.89L95.58 21.78L106.49 21.71L106.56 23.95L106.47 26.52L106.14 26.59L100.98 26.72L101.11 29.03L101.41 28.96H103.3L103.69 29.13L103.73 29.46V32.42L103.51 32.64L103.29 32.71L102.46 32.82L101.09 32.86V33.3L101.44 35.43L101.68 36.32V36.8L101.48 37L98.76 37.09L98.32 37.16L96.6 37.2L96.36 37.24H95.88L95.75 37.11L95.43 32.3Z" fill="#D770A1"/>
<path d="M107.98 36.64V36.36L107.87 35.25V31.07L108.41 21.97L108.52 21.84L109.85 21.69L117.17 21.75L117.5 21.82L118.09 21.86L118.24 23.45V26.19L118.09 26.34L112.6 26.14L112.54 28.04L113.5 27.93H115.96L116.22 28.08L116.35 28.34V29.95L116.24 31.5L116.11 31.96L115.87 32.07L113.39 31.96L112.78 31.85L112.63 33.26L118.03 33.39L118.27 33.52L118.38 33.95L118.47 36.46L118.51 36.55V36.68L118.44 36.96H111.04L108.1 36.76L107.98 36.64Z" fill="#D770A1"/>
<path d="M121.62 36.55L119.75 36.27L119.08 36.03L118.91 35.88V34.88L119.43 32.03L119.58 31.68H120.52L121.59 31.74L123.29 32.29L124.05 32.4L124.77 32.31L125.49 32.16L125.58 31.92L125.49 31.53L125.23 31.14L123.71 31.05L121.01 30.18L119.79 29.53L119.25 28.9L119.01 27.79L119.12 26.24L119.27 25.48L119.71 24.37L120.56 23.26L121.15 22.82L122.13 22.32L123.35 21.93H125.24L127.72 22.3L128.77 22.74L128.97 22.94L129.77 23.22L129.94 23.37V23.89L129.27 25.61L129.05 26.79L128.85 26.99L127.98 26.92L127.13 26.57L125.41 26.03H124.73L124.47 26.29L124.3 27.2L124.56 27.46L125.15 27.7L126.98 28L128.07 28.26L129.14 28.95L129.64 29.71L130.03 30.47L130.25 31.28V33.3L130.05 34.19L129.75 34.78L129.45 35.11L128.21 35.91L126.97 36.39L125.55 36.74H123.31L122.59 36.61L121.62 36.55Z" fill="#D770A1"/>
<path d="M134.6 36.09L134.49 33.26L134.62 29.76L134.79 28.15V26.84H133.4L132.09 27.04L131.18 26.97L131.09 26.51L131.24 22.61L131.33 22.24L131.48 22.07L132.35 21.92L135.79 22.12L143.15 21.95L144.78 22.1L144.98 22.21L145.07 22.43L145 22.58L144.91 27.15L144.78 27.39H142.71L141.27 27.48L140.6 27.39L140.06 27.26L140.04 36.23L139.91 36.47L139.71 36.56H138.95L138.69 36.49H136.16L135.35 36.62H134.85L134.7 36.55L134.6 36.09Z" fill="#D770A1"/>
<path d="M145.3 36.96L145.28 34.06L145.87 26.29L146.22 23.81L146.44 22.9L146.59 21.94L150.86 22.11L151.19 22.26V23.59L150.17 36.85L150.06 37.05H146.03L145.3 36.96Z" fill="#D770A1"/>
<path d="M156.32 37.12L156.38 36.97L154.94 31.94L154.05 29.57L153.68 28.09L151.81 22.43V21.93L152.31 21.78L153.31 21.71L156.45 21.75L157.02 21.93L157.26 22.17L157.46 22.67L158.46 26.72L158.66 27.87L158.86 28.63L159.06 29.61L159.13 29.68L160.74 26.26L162.2 22.47L162.44 22.27H167.77L167.9 22.51L162.5 34.59L161.3 36.83L161.19 37.16L160.73 37.22H158.66L157.77 37.33H156.53L156.33 37.22V37.12H156.32Z" fill="#D770A1"/>
<path d="M173.91 36.77L173.69 36.64L173.6 36.42L173.45 32.72H170.6L169.47 36.31L169.43 36.77H164.42L164.25 36.57L164.34 36.42L164.47 36.27L169.74 21.79L173.22 21.72L175.2 21.81L179.03 36.31L178.99 36.9L173.91 36.77ZM171.96 28.93L172.16 28.89L173.16 28.82L172.83 26.58L172.44 25.27L171.24 28.93H171.96Z" fill="#D770A1"/>
<path d="M181.41 36.83L180.23 36.79L179.97 36.66L179.9 35.88V28.63L180.29 21.93L180.4 21.73L181.68 21.93H183.01L184.47 21.78L185.43 21.93L185.65 22.15L185.43 23.7V31.3L189.76 31.41L189.96 31.5L190.03 31.7L190.12 36.36L189.92 36.58L189.18 36.78L187.79 36.85L185.46 36.78L185.05 36.69L182.94 36.99L181.81 36.9L181.41 36.83Z" fill="#D770A1"/>
<path d="M51.95 35.43L50.08 35.15L49.41 34.91L49.24 34.76V33.76L49.76 30.91L49.91 30.56H50.85L51.92 30.62L53.62 31.17L54.38 31.28L55.1 31.19L55.82 31.04L55.91 30.8L55.82 30.41L55.56 30.02L54.04 29.93L51.34 29.06L50.12 28.41L49.58 27.78L49.34 26.67L49.45 25.12L49.6 24.36L50.04 23.25L50.89 22.14L51.48 21.7L52.46 21.2L53.68 20.81H55.57L58.05 21.18L59.1 21.62L59.3 21.82L60.1 22.1L60.27 22.25V22.77L59.6 24.49L59.38 25.67L59.18 25.87L58.31 25.8L57.46 25.45L55.74 24.91H55.06L54.8 25.17L54.63 26.08L54.89 26.34L55.48 26.58L57.31 26.88L58.4 27.14L59.47 27.83L59.97 28.59L60.36 29.35L60.58 30.16V32.18L60.38 33.07L60.08 33.66L59.78 33.99L58.54 34.79L57.3 35.27L55.88 35.62H53.64L52.92 35.49L51.95 35.43Z" fill="black"/>
<path d="M64.02 35.52H62.23L62.01 35.43L61.86 35.06V34.41L62.32 27.71V21.55L62.45 21.27L63.28 21.07H65.22L65.74 21.14L68.81 21.23L69.16 21.8L70.1 23.61L70.58 24.33L72.19 27.4L72.28 27.46V24.24L72.45 21.39L72.54 21.15L72.84 21.06L73.56 21.15H75.11L76.53 21H77.71L77.88 21.17V21.37L77.75 21.57L77.47 24.81L77.25 26.05L77.16 30.71L76.75 34.96L76.58 35.05H76L75.11 35.2L72.48 35.27L71.67 35.47L71.41 35.62H71.06L70.89 35.44L69.02 31.96L68.02 29.5L67.41 27.47L66.97 35.7L66.86 35.83H65.25L64.02 35.52Z" fill="black"/>
<path d="M82.36 34.73L81.69 34.21L80.62 32.92L79.73 31.55L79.51 30.94L79.18 27.09L79.35 23.26L79.72 21.28V21L79.92 20.8L83.45 20.62L84.25 20.77L84.71 20.99L84.84 21.21L84.23 25.13L84.14 26.54V29.5L84.25 30.5L84.42 30.85L84.72 31.15L85.02 31.26H86.07L86.61 31.11L86.98 30.74L87.13 30.24L87.39 27.97L87.24 21.22L87.41 21.02H87.91L91.37 21.41L91.57 21.52L92.42 21.63L92.53 23.57V25.64L92.09 29.73L91.74 31.04L91.52 31.58L90.93 32.73L90.02 34.04L89.28 34.78L88.69 35.17L87.51 35.58H85.55L84.7 35.45L82.36 34.73Z" fill="black"/>
<path d="M93.87 31.18V22.34L93.96 21.77L94.02 20.66L104.93 20.59L105 22.83L104.91 25.4L104.58 25.47L99.42 25.6L99.55 27.91L99.85 27.84H101.74L102.13 28.01L102.17 28.34V31.3L101.95 31.52L101.73 31.59L100.9 31.7L99.53 31.74V32.18L99.88 34.31L100.12 35.2V35.68L99.92 35.88L97.2 35.97L96.76 36.04L95.04 36.08L94.8 36.12H94.32L94.19 35.99L93.87 31.18Z" fill="black"/>
<path d="M106.41 35.52V35.24L106.3 34.13V29.95L106.84 20.85L106.95 20.72L108.28 20.57L115.6 20.63L115.93 20.7L116.52 20.74L116.67 22.33V25.07L116.52 25.22L111.03 25.02L110.97 26.92L111.93 26.81H114.39L114.65 26.96L114.78 27.22V28.83L114.67 30.38L114.54 30.84L114.3 30.95L111.82 30.84L111.21 30.73L111.06 32.14L116.46 32.27L116.7 32.4L116.81 32.83L116.9 35.34L116.94 35.43V35.56L116.87 35.84H109.47L106.53 35.64L106.41 35.52Z" fill="black"/>
<path d="M120.05 35.43L118.18 35.15L117.51 34.91L117.34 34.76V33.76L117.86 30.91L118.01 30.56H118.95L120.02 30.62L121.72 31.17L122.48 31.28L123.2 31.19L123.92 31.04L124.01 30.8L123.92 30.41L123.66 30.02L122.14 29.93L119.44 29.06L118.22 28.41L117.68 27.78L117.44 26.67L117.55 25.12L117.7 24.36L118.14 23.25L118.99 22.14L119.58 21.7L120.56 21.2L121.78 20.81H123.67L126.15 21.18L127.2 21.62L127.4 21.82L128.2 22.1L128.37 22.25V22.77L127.7 24.49L127.48 25.67L127.28 25.87L126.41 25.8L125.56 25.45L123.84 24.91H123.16L122.9 25.17L122.73 26.08L122.99 26.34L123.58 26.58L125.41 26.88L126.5 27.14L127.57 27.83L128.07 28.59L128.46 29.35L128.68 30.16V32.18L128.48 33.07L128.18 33.66L127.88 33.99L126.64 34.79L125.4 35.27L123.98 35.62H121.74L121.02 35.49L120.05 35.43Z" fill="black"/>
<path d="M133.03 34.97L132.92 32.14L133.05 28.64L133.22 27.03V25.72H131.83L130.52 25.92L129.61 25.85L129.52 25.39L129.67 21.49L129.76 21.12L129.91 20.95L130.78 20.8L134.22 21L141.58 20.83L143.21 20.98L143.41 21.09L143.5 21.31L143.43 21.46L143.34 26.03L143.21 26.27H141.14L139.7 26.36L139.03 26.27L138.49 26.14L138.47 35.11L138.34 35.35L138.14 35.44H137.38L137.12 35.37H134.59L133.78 35.5H133.28L133.13 35.43L133.03 34.97Z" fill="black"/>
<path d="M143.73 35.84L143.71 32.94L144.3 25.17L144.65 22.69L144.87 21.78L145.02 20.82L149.29 20.99L149.62 21.14V22.47L148.6 35.73L148.49 35.93H144.46L143.73 35.84Z" fill="black"/>
<path d="M154.75 35.99L154.81 35.84L153.37 30.81L152.48 28.44L152.11 26.96L150.24 21.3V20.8L150.74 20.65L151.74 20.58L154.88 20.62L155.45 20.8L155.69 21.04L155.89 21.54L156.89 25.59L157.09 26.74L157.29 27.5L157.49 28.48L157.56 28.55L159.17 25.13L160.63 21.34L160.87 21.14H166.2L166.33 21.38L160.93 33.46L159.73 35.7L159.62 36.03L159.16 36.09H157.09L156.2 36.2H154.96L154.76 36.09V35.99H154.75Z" fill="black"/>
<path d="M172.35 35.65L172.13 35.52L172.04 35.3L171.89 31.6H169.04L167.91 35.19L167.87 35.65H162.86L162.69 35.45L162.78 35.3L162.91 35.15L168.18 20.67L171.66 20.6L173.64 20.69L177.47 35.19L177.43 35.78L172.35 35.65ZM170.39 27.81L170.59 27.77L171.59 27.7L171.26 25.46L170.87 24.15L169.67 27.81H170.39Z" fill="black"/>
<path d="M179.85 35.71L178.67 35.67L178.41 35.54L178.34 34.76V27.51L178.73 20.81L178.84 20.61L180.12 20.81H181.45L182.91 20.66L183.87 20.81L184.09 21.03L183.87 22.58V30.18L188.2 30.29L188.4 30.38L188.47 30.58L188.56 35.24L188.36 35.46L187.62 35.66L186.23 35.73L183.9 35.66L183.49 35.57L181.38 35.87L180.25 35.78L179.85 35.71Z" fill="black"/>
<path d="M51.95 35.43L50.08 35.15L49.41 34.91L49.24 34.76V33.76L49.76 30.91L49.91 30.56H50.85L51.92 30.62L53.62 31.17L54.38 31.28L55.1 31.19L55.82 31.04L55.91 30.8L55.82 30.41L55.56 30.02L54.04 29.93L51.34 29.06L50.12 28.41L49.58 27.78L49.34 26.67L49.45 25.12L49.6 24.36L50.04 23.25L50.89 22.14L51.48 21.7L52.46 21.2L53.68 20.81H55.57L58.05 21.18L59.1 21.62L59.3 21.82L60.1 22.1L60.27 22.25V22.77L59.6 24.49L59.38 25.67L59.18 25.87L58.31 25.8L57.46 25.45L55.74 24.91H55.06L54.8 25.17L54.63 26.08L54.89 26.34L55.48 26.58L57.31 26.88L58.4 27.14L59.47 27.83L59.97 28.59L60.36 29.35L60.58 30.16V32.18L60.38 33.07L60.08 33.66L59.78 33.99L58.54 34.79L57.3 35.27L55.88 35.62H53.64L52.92 35.49L51.95 35.43Z" fill="white"/>
<path d="M64.02 35.52H62.23L62.01 35.43L61.86 35.06V34.41L62.32 27.71V21.55L62.45 21.27L63.28 21.07H65.22L65.74 21.14L68.81 21.23L69.16 21.8L70.1 23.61L70.58 24.33L72.19 27.4L72.28 27.46V24.24L72.45 21.39L72.54 21.15L72.84 21.06L73.56 21.15H75.11L76.53 21H77.71L77.88 21.17V21.37L77.75 21.57L77.47 24.81L77.25 26.05L77.16 30.71L76.75 34.96L76.58 35.05H76L75.11 35.2L72.48 35.27L71.67 35.47L71.41 35.62H71.06L70.89 35.44L69.02 31.96L68.02 29.5L67.41 27.47L66.97 35.7L66.86 35.83H65.25L64.02 35.52Z" fill="white"/>
<path d="M82.36 34.73L81.69 34.21L80.62 32.92L79.73 31.55L79.51 30.94L79.18 27.09L79.35 23.26L79.72 21.28V21L79.92 20.8L83.45 20.62L84.25 20.77L84.71 20.99L84.84 21.21L84.23 25.13L84.14 26.54V29.5L84.25 30.5L84.42 30.85L84.72 31.15L85.02 31.26H86.07L86.61 31.11L86.98 30.74L87.13 30.24L87.39 27.97L87.24 21.22L87.41 21.02H87.91L91.37 21.41L91.57 21.52L92.42 21.63L92.53 23.57V25.64L92.09 29.73L91.74 31.04L91.52 31.58L90.93 32.73L90.02 34.04L89.28 34.78L88.69 35.17L87.51 35.58H85.55L84.7 35.45L82.36 34.73Z" fill="white"/>
<path d="M93.87 31.18V22.34L93.96 21.77L94.02 20.66L104.93 20.59L105 22.83L104.91 25.4L104.58 25.47L99.42 25.6L99.55 27.91L99.85 27.84H101.74L102.13 28.01L102.17 28.34V31.3L101.95 31.52L101.73 31.59L100.9 31.7L99.53 31.74V32.18L99.88 34.31L100.12 35.2V35.68L99.92 35.88L97.2 35.97L96.76 36.04L95.04 36.08L94.8 36.12H94.32L94.19 35.99L93.87 31.18Z" fill="white"/>
<path d="M106.41 35.52V35.24L106.3 34.13V29.95L106.84 20.85L106.95 20.72L108.28 20.57L115.6 20.63L115.93 20.7L116.52 20.74L116.67 22.33V25.07L116.52 25.22L111.03 25.02L110.97 26.92L111.93 26.81H114.39L114.65 26.96L114.78 27.22V28.83L114.67 30.38L114.54 30.84L114.3 30.95L111.82 30.84L111.21 30.73L111.06 32.14L116.46 32.27L116.7 32.4L116.81 32.83L116.9 35.34L116.94 35.43V35.56L116.87 35.84H109.47L106.53 35.64L106.41 35.52Z" fill="white"/>
<path d="M120.05 35.43L118.18 35.15L117.51 34.91L117.34 34.76V33.76L117.86 30.91L118.01 30.56H118.95L120.02 30.62L121.72 31.17L122.48 31.28L123.2 31.19L123.92 31.04L124.01 30.8L123.92 30.41L123.66 30.02L122.14 29.93L119.44 29.06L118.22 28.41L117.68 27.78L117.44 26.67L117.55 25.12L117.7 24.36L118.14 23.25L118.99 22.14L119.58 21.7L120.56 21.2L121.78 20.81H123.67L126.15 21.18L127.2 21.62L127.4 21.82L128.2 22.1L128.37 22.25V22.77L127.7 24.49L127.48 25.67L127.28 25.87L126.41 25.8L125.56 25.45L123.84 24.91H123.16L122.9 25.17L122.73 26.08L122.99 26.34L123.58 26.58L125.41 26.88L126.5 27.14L127.57 27.83L128.07 28.59L128.46 29.35L128.68 30.16V32.18L128.48 33.07L128.18 33.66L127.88 33.99L126.64 34.79L125.4 35.27L123.98 35.62H121.74L121.02 35.49L120.05 35.43Z" fill="white"/>
<path d="M133.03 34.97L132.92 32.14L133.05 28.64L133.22 27.03V25.72H131.83L130.52 25.92L129.61 25.85L129.52 25.39L129.67 21.49L129.76 21.12L129.91 20.95L130.78 20.8L134.22 21L141.58 20.83L143.21 20.98L143.41 21.09L143.5 21.31L143.43 21.46L143.34 26.03L143.21 26.27H141.14L139.7 26.36L139.03 26.27L138.49 26.14L138.47 35.11L138.34 35.35L138.14 35.44H137.38L137.12 35.37H134.59L133.78 35.5H133.28L133.13 35.43L133.03 34.97Z" fill="white"/>
<path d="M143.73 35.84L143.71 32.94L144.3 25.17L144.65 22.69L144.87 21.78L145.02 20.82L149.29 20.99L149.62 21.14V22.47L148.6 35.73L148.49 35.93H144.46L143.73 35.84Z" fill="white"/>
<path d="M154.75 35.99L154.81 35.84L153.37 30.81L152.48 28.44L152.11 26.96L150.24 21.3V20.8L150.74 20.65L151.74 20.58L154.88 20.62L155.45 20.8L155.69 21.04L155.89 21.54L156.89 25.59L157.09 26.74L157.29 27.5L157.49 28.48L157.56 28.55L159.17 25.13L160.63 21.34L160.87 21.14H166.2L166.33 21.38L160.93 33.46L159.73 35.7L159.62 36.03L159.16 36.09H157.09L156.2 36.2H154.96L154.76 36.09V35.99H154.75Z" fill="white"/>
<path d="M172.35 35.65L172.13 35.52L172.04 35.3L171.89 31.6H169.04L167.91 35.19L167.87 35.65H162.86L162.69 35.45L162.78 35.3L162.91 35.15L168.18 20.67L171.66 20.6L173.64 20.69L177.47 35.19L177.43 35.78L172.35 35.65ZM170.39 27.81L170.59 27.77L171.59 27.7L171.26 25.46L170.87 24.15L169.67 27.81H170.39Z" fill="white"/>
<path d="M179.85 35.71L178.67 35.67L178.41 35.54L178.34 34.76V27.51L178.73 20.81L178.84 20.61L180.12 20.81H181.45L182.91 20.66L183.87 20.81L184.09 21.03L183.87 22.58V30.18L188.2 30.29L188.4 30.38L188.47 30.58L188.56 35.24L188.36 35.46L187.62 35.66L186.23 35.73L183.9 35.66L183.49 35.57L181.38 35.87L180.25 35.78L179.85 35.71Z" fill="white"/>
<path d="M55.54 20.8L58.02 21.17L59.07 21.61L59.27 21.81L60.07 22.09L60.24 22.24V22.76L59.57 24.48L59.35 25.66L59.15 25.86L58.28 25.79L57.43 25.44L55.71 24.9H55.03L54.77 25.16L54.6 26.07L54.86 26.33L55.45 26.57L57.28 26.87L58.37 27.13L59.44 27.82L59.94 28.58L60.33 29.34L60.55 30.15V32.17L60.35 33.06L60.05 33.65L59.75 33.98L58.51 34.78L57.27 35.26L55.85 35.61H53.61L52.89 35.48L51.95 35.41L50.08 35.13L49.41 34.89L49.24 34.74V33.74L49.76 30.89L49.91 30.54H50.85L51.92 30.6L53.62 31.15L54.38 31.26L55.1 31.17L55.82 31.02L55.91 30.78L55.82 30.39L55.56 30L54.04 29.91L51.34 29.04L50.12 28.39L49.58 27.76L49.34 26.65L49.45 25.1L49.6 24.34L50.04 23.23L50.89 22.12L51.48 21.68L52.46 21.18L53.68 20.79H55.54M55.56 20.55H55.54H53.65H53.61L53.57 20.56L52.35 20.95L51.33 21.47L50.71 21.93L50.68 21.95L50.66 21.98L49.81 23.09L49.79 23.12L49.78 23.15L49.34 24.26L49.18 25.06L49.07 26.64V26.68L49.08 26.71L49.32 27.82L49.33 27.88L49.37 27.93L49.91 28.56L49.94 28.6L49.98 28.62L51.2 29.27L53.94 30.16L53.97 30.17H54L55.4 30.25L55.57 30.5L55.63 30.78L55.62 30.82L55.04 30.94L54.38 31.02L53.65 30.92L51.99 30.38L51.96 30.37H51.93L50.86 30.31H49.91H49.75L49.68 30.46L49.53 30.81L49.52 30.84L49.51 30.87L48.99 33.72V34.77V34.88L49.08 34.95L49.25 35.1L49.29 35.13L49.33 35.15L50 35.39L51.92 35.69L52.88 35.76L53.57 35.89H55.86H55.89L55.92 35.88L57.34 35.53L58.61 35.04L58.63 35.03L58.65 35.02L59.89 34.22L59.92 34.2L59.94 34.18L60.24 33.85L60.26 33.82L60.28 33.79L60.58 33.2L60.6 33.17L60.61 33.14L60.81 32.25L60.82 32.22V32.19V30.17V30.14L60.81 30.11L60.59 29.3L60.58 29.27L60.57 29.25L60.18 28.49L59.67 27.7L59.64 27.66L59.6 27.63L58.53 26.94L58.49 26.92L58.45 26.91L57.36 26.65L55.54 26.35L55.02 26.14L54.89 26.01L55.03 25.3L55.16 25.17H55.69L57.37 25.7L58.2 26.04L58.24 26.05H58.28L59.15 26.12L59.26 26.13L59.34 26.05L59.54 25.85L59.59 25.8L59.6 25.72L59.82 24.54L60.48 22.87L60.5 22.83V22.78V22.26V22.15L60.41 22.08L60.24 21.93L60.2 21.9L60.15 21.88L59.4 21.62L59.24 21.46L59.2 21.42L59.15 21.4L58.1 20.96L58.07 20.95H58.04L55.56 20.58V20.55Z" fill="#D770A1"/>
<path d="M77.69 20.97L77.86 21.14V21.34L77.73 21.54L77.45 24.78L77.23 26.02L77.14 30.68L76.73 34.93L76.56 35.02H76L75.11 35.17L72.48 35.24L71.67 35.44L71.41 35.59H71.06L70.89 35.41L69.02 31.93L68.02 29.47L67.41 27.44L66.97 35.67L66.86 35.8H65.25L64.03 35.52H62.24L62.02 35.43L61.87 35.06V34.41L62.33 27.71V21.55L62.46 21.27L63.29 21.07H65.23L65.75 21.14L68.82 21.23L69.17 21.8L70.11 23.61L70.59 24.33L72.2 27.4L72.29 27.46V24.24L72.46 21.39L72.55 21.15L72.85 21.06L73.57 21.15H75.12L76.54 21H77.69M77.8 20.72H77.7H76.52L75.08 20.87H73.56L72.87 20.78L72.82 20.77L72.77 20.78L72.47 20.87L72.35 20.9L72.31 21.02L72.22 21.26L72.21 21.29V21.33L72.04 24.18V26.5L70.81 24.16L70.32 23.42L69.4 21.64L69.04 21.06L68.97 20.95H68.84L65.77 20.86L65.27 20.8H63.3H63.27L63.24 20.81L62.41 21.01L62.29 21.04L62.24 21.15L62.11 21.43L62.09 21.48V21.54V27.7L61.63 34.39V35.06V35.11L61.65 35.16L61.8 35.53L61.84 35.63L61.94 35.67L62.16 35.76L62.2 35.78H62.25H64.01L65.2 36.06L65.23 36.07H65.26H66.87H66.99L67.06 35.98L67.17 35.85L67.22 35.79V35.71L67.58 28.91L67.78 29.56L68.79 32.04L70.67 35.55L70.69 35.58L70.72 35.61L70.89 35.79L70.96 35.86H71.06H71.41H71.48L71.54 35.83L71.77 35.7L72.51 35.52L75.12 35.46L76.05 35.3H76.57H76.63L76.68 35.27L76.85 35.18L76.97 35.12L76.98 34.98L77.39 30.73L77.48 26.05L77.69 24.85L77.97 21.65L78.07 21.51L78.11 21.45V21.37V21.17V21.07L78.04 21L77.87 20.83L77.8 20.72Z" fill="#D770A1"/>
<path d="M83.45 20.62L84.25 20.77L84.71 20.99L84.84 21.21L84.23 25.13L84.14 26.54V29.5L84.25 30.5L84.42 30.85L84.72 31.15L85.02 31.26H86.07L86.61 31.11L86.98 30.74L87.13 30.24L87.39 27.97L87.24 21.22L87.41 21.02H87.91L91.37 21.41L91.57 21.52L92.42 21.63L92.53 23.57V25.64L92.09 29.73L91.74 31.04L91.52 31.58L90.93 32.73L90.02 34.04L89.28 34.78L88.69 35.17L87.51 35.58H85.55L84.7 35.45L82.33 34.71L81.66 34.19L80.59 32.9L79.7 31.53L79.48 30.92L79.15 27.07L79.32 23.24L79.69 21.26V20.98L79.89 20.78L83.45 20.62ZM83.47 20.37H83.44L79.91 20.55H79.81L79.74 20.62L79.54 20.82L79.47 20.89V20.99V21.27L79.1 23.2L78.92 27.07L79.25 30.96V30.99L79.26 31.02L79.48 31.63L79.49 31.66L79.51 31.68L80.4 33.05L81.48 34.36L81.5 34.38L81.52 34.4L82.19 34.92L82.23 34.95L82.27 34.96L84.64 35.7L85.53 35.84H87.53H87.57L87.61 35.83L88.79 35.42L88.82 35.41L88.85 35.39L89.44 35L90.22 34.23L91.16 32.89L91.77 31.71L92 31.14L92.36 29.81L92.8 25.68V23.59L92.69 21.64L92.68 21.43L92.47 21.4L91.67 21.3L91.52 21.21L91.48 21.19L91.43 21.18L87.97 20.79H87.44H87.33L87.26 20.87L87.09 21.07L87.02 21.14V21.24L87.17 27.99L86.91 30.22L86.79 30.62L86.51 30.9L86.06 31.03H85.09L84.88 30.96L84.64 30.72L84.5 30.45L84.4 29.49V26.56L84.49 25.16L85.1 21.26L85.11 21.17L85.06 21.09L84.93 20.87L84.89 20.81L84.82 20.78L84.36 20.56L84.33 20.55L84.3 20.54L83.5 20.39L83.47 20.37Z" fill="#D770A1"/>
<path d="M104.93 20.6L105 22.84L104.91 25.41L104.58 25.48L99.42 25.61L99.55 27.92L99.85 27.85H101.74L102.13 28.02L102.17 28.35V31.31L101.95 31.53L101.73 31.6L100.9 31.71L99.53 31.75V32.19L99.88 34.32L100.12 35.21V35.69L99.92 35.89L97.2 35.98L96.76 36.05L95.04 36.09L94.8 36.13H94.32L94.19 36L93.84 31.19V22.35L93.93 21.78L93.99 20.67L104.93 20.6ZM105.17 20.35H104.93L94.02 20.42H93.79L93.78 20.65L93.72 21.76L93.63 22.3V31.18L93.98 36.01L93.99 36.1L94.06 36.17L94.19 36.3L94.26 36.37H94.36H94.84L95.12 36.32L96.8 36.28L97.27 36.21L99.96 36.13H100.06L100.13 36.06L100.33 35.86L100.4 35.79V35.69V35.21V35.18L100.39 35.15L100.15 34.26L99.81 32.15V32L100.94 31.96L101.79 31.85L102.05 31.78L102.11 31.76L102.15 31.72L102.37 31.5L102.44 31.43V31.33V28.37L102.39 28.01L102.37 27.87L102.24 27.81L101.85 27.64L101.8 27.62H101.75H99.86H99.83L99.8 27.63H99.78L99.68 25.87L104.58 25.75L104.95 25.68L105.14 25.64L105.15 25.44L105.24 22.87L105.17 20.61V20.35Z" fill="#D770A1"/>
<path d="M108.29 20.56L115.61 20.62L115.94 20.69L116.53 20.73L116.68 22.32V25.06L116.53 25.21L111.04 25.01L110.98 26.91L111.94 26.8H114.4L114.66 26.95L114.79 27.21V28.82L114.68 30.37L114.55 30.83L114.31 30.94L111.83 30.83L111.22 30.72L111.07 32.13L116.47 32.26L116.71 32.39L116.82 32.82L116.91 35.33L116.95 35.42V35.55L116.88 35.83H109.48L106.54 35.63L106.43 35.5V35.22L106.32 34.11V29.93L106.86 20.83L106.97 20.7L108.29 20.56ZM108.27 20.31H108.25L106.92 20.46L106.82 20.47L106.76 20.55L106.65 20.68L106.6 20.74V20.82L106.06 29.92V34.12L106.17 35.25V35.51V35.6L106.23 35.67L106.34 35.8L106.41 35.88L106.52 35.89L109.46 36.09H116.88H117.08L117.12 35.9L117.19 35.62L117.2 35.59V35.56V35.43V35.37L117.17 35.32L117.15 35.28L117.06 32.83V32.8L117.05 32.77L116.94 32.34L116.91 32.23L116.81 32.18L116.57 32.05L116.52 32.02H116.46L111.33 31.9L111.42 31.02L111.77 31.08L114.28 31.19H114.34L114.39 31.16L114.63 31.05L114.73 31L114.76 30.89L114.89 30.43L114.9 30.41V30.38L115.01 28.83V27.2V27.14L114.98 27.09L114.85 26.83L114.82 26.76L114.76 26.72L114.5 26.57L114.44 26.54H114.37H111.91L111.21 26.62L111.26 25.26L116.5 25.45H116.61L116.69 25.37L116.84 25.22L116.91 25.15V25.05V22.31L116.76 20.7L116.74 20.49L116.53 20.47L115.94 20.43L115.64 20.37L108.28 20.3L108.27 20.31Z" fill="#D770A1"/>
<path d="M123.64 20.8L126.12 21.17L127.17 21.61L127.37 21.81L128.17 22.09L128.34 22.24V22.76L127.67 24.48L127.45 25.66L127.25 25.86L126.38 25.79L125.53 25.44L123.81 24.9H123.13L122.87 25.16L122.7 26.07L122.96 26.33L123.55 26.57L125.38 26.87L126.47 27.13L127.54 27.82L128.04 28.58L128.43 29.34L128.65 30.15V32.17L128.45 33.06L128.15 33.65L127.85 33.98L126.61 34.78L125.37 35.26L123.95 35.61H121.71L120.99 35.48L120.05 35.41L118.18 35.13L117.51 34.89L117.34 34.74V33.74L117.86 30.89L118.01 30.54H118.95L120.02 30.6L121.72 31.15L122.48 31.26L123.2 31.17L123.92 31.02L124.01 30.78L123.92 30.39L123.66 30L122.14 29.91L119.44 29.04L118.22 28.39L117.68 27.76L117.44 26.65L117.55 25.1L117.7 24.34L118.14 23.23L118.99 22.12L119.58 21.68L120.56 21.18L121.78 20.79H123.64M123.66 20.55H123.64H121.75H121.71L121.67 20.56L120.45 20.95L119.43 21.47L118.81 21.93L118.78 21.95L118.76 21.98L117.91 23.09L117.89 23.12L117.88 23.15L117.44 24.26L117.28 25.06L117.17 26.64V26.68L117.18 26.71L117.42 27.82L117.43 27.88L117.47 27.93L118.01 28.56L118.04 28.6L118.08 28.62L119.3 29.27L122.04 30.16L122.07 30.17H122.1L123.5 30.25L123.67 30.5L123.73 30.78L123.72 30.82L123.14 30.94L122.48 31.02L121.75 30.92L120.09 30.38L120.06 30.37H120.03L118.96 30.31H118.01H117.85L117.78 30.46L117.63 30.81L117.62 30.84L117.61 30.87L117.09 33.72V34.77V34.88L117.18 34.95L117.35 35.1L117.39 35.13L117.43 35.15L118.1 35.39L120.02 35.69L120.98 35.76L121.67 35.89H123.96H123.99L124.02 35.88L125.44 35.53L126.71 35.04L126.73 35.03L126.75 35.02L127.99 34.22L128.02 34.2L128.04 34.18L128.34 33.85L128.36 33.82L128.38 33.79L128.68 33.2L128.7 33.17L128.71 33.14L128.91 32.25L128.92 32.22V32.19V30.17V30.14L128.91 30.11L128.69 29.3L128.68 29.27L128.67 29.25L128.28 28.49L127.77 27.7L127.74 27.66L127.7 27.63L126.63 26.94L126.59 26.92L126.55 26.91L125.46 26.65L123.64 26.35L123.12 26.14L122.99 26.01L123.13 25.3L123.26 25.17H123.79L125.47 25.7L126.3 26.04L126.34 26.05H126.38L127.25 26.12L127.36 26.13L127.44 26.05L127.64 25.85L127.69 25.8L127.7 25.72L127.92 24.54L128.58 22.87L128.6 22.83V22.78V22.26V22.15L128.51 22.08L128.34 21.93L128.3 21.9L128.25 21.88L127.5 21.62L127.34 21.46L127.3 21.42L127.25 21.4L126.2 20.96L126.17 20.95H126.14L123.66 20.58V20.55Z" fill="#D770A1"/>
<path d="M130.79 20.8L134.23 21L141.59 20.83L143.22 20.98L143.42 21.09L143.51 21.31L143.44 21.46L143.35 26.03L143.22 26.27H141.15L139.71 26.36L139.04 26.27L138.5 26.14L138.48 35.11L138.35 35.35L138.15 35.44H137.39L137.13 35.37H134.6L133.79 35.5H133.29L133.14 35.43L133.03 34.97L132.92 32.14L133.05 28.64L133.22 27.03V25.72H131.83L130.52 25.92L129.61 25.85L129.52 25.39L129.67 21.49L129.76 21.12L129.91 20.95L130.79 20.8ZM130.78 20.55H130.75L129.88 20.7L129.79 20.72L129.73 20.79L129.58 20.96L129.54 21.01L129.53 21.07L129.44 21.44L129.28 25.38V25.41L129.29 25.44L129.38 25.9L129.42 26.09L129.61 26.1L130.52 26.17H130.55H130.58L131.89 25.97H133V27.03L132.83 28.61L132.7 32.13L132.81 34.98L132.92 35.49L132.95 35.61L133.07 35.66L133.22 35.73L133.27 35.75H133.32H133.82L134.67 35.62H137.12L137.35 35.68L137.38 35.69H137.41H138.17H138.22L138.27 35.67L138.47 35.58L138.55 35.55L138.59 35.47L138.72 35.23L138.75 35.17V35.11L138.77 26.46L139.01 26.52L139.71 26.61L141.19 26.52H143.24H143.39L143.46 26.39L143.59 26.15L143.62 26.1V26.04L143.71 21.52L143.76 21.41L143.8 21.31L143.76 21.21L143.67 20.99L143.64 20.91L143.56 20.87L143.36 20.76L143.31 20.73H143.26L141.63 20.58L134.24 20.75L130.82 20.56L130.78 20.55Z" fill="#D770A1"/>
<path d="M145.01 20.82L149.28 20.99L149.61 21.14V22.47L148.59 35.73L148.48 35.93H144.45L143.73 35.84L143.71 32.94L144.3 25.17L144.65 22.69L144.87 21.78L145.01 20.82ZM144.8 20.56L144.77 20.78L144.62 21.74L144.41 22.64L144.06 25.14L143.47 32.93L143.49 35.85V36.07L143.71 36.1L144.43 36.19H148.49H148.64L148.71 36.06L148.82 35.86L148.85 35.81V35.76L149.87 22.5V21.15V20.99L149.73 20.92L149.4 20.77L149.35 20.75H149.3L145.03 20.58L144.8 20.56Z" fill="#D770A1"/>
<path d="M151.75 20.58L154.89 20.62L155.46 20.8L155.7 21.04L155.9 21.54L156.9 25.59L157.1 26.74L157.3 27.5L157.5 28.48L157.57 28.55L159.18 25.13L160.64 21.34L160.88 21.14H166.21L166.34 21.38L160.94 33.46L159.74 35.7L159.63 36.03L159.17 36.09H157.1L156.21 36.2H154.97L154.77 36.09V35.98L154.83 35.83L153.39 30.8L152.5 28.43L152.13 26.95L150.26 21.29V20.79L150.76 20.64L151.75 20.58ZM151.74 20.33L150.73 20.4H150.7L150.67 20.41L150.17 20.56L149.99 20.61V20.8V21.3V21.34L150 21.38L151.87 27.04L152.24 28.5L153.14 30.9L154.55 35.83L154.52 35.9L154.5 35.95V36V36.11V36.26L154.63 36.33L154.83 36.44L154.89 36.47H154.96H156.2L157.12 36.36H159.16L159.65 36.29L159.8 36.27L159.85 36.12L159.96 35.79L161.14 33.59L166.55 21.49L166.6 21.38L166.54 21.27L166.41 21.03L166.34 20.9H166.19H160.86H160.77L160.7 20.96L160.46 21.16L160.41 21.2L160.39 21.26L158.93 25.05L157.61 27.84L157.53 27.46L157.33 26.68L157.14 25.55L156.13 21.48L155.92 20.95L155.9 20.9L155.86 20.86L155.62 20.62L155.58 20.58L155.52 20.56L154.95 20.38L154.92 20.37H154.88L151.74 20.33Z" fill="#D770A1"/>
<path d="M171.65 20.6L173.63 20.69L177.46 35.19L177.42 35.78L172.35 35.65L172.13 35.52L172.04 35.3L171.89 31.6H169.04L167.91 35.19L167.87 35.65H162.86L162.69 35.45L162.78 35.3L162.91 35.15L168.18 20.67L171.65 20.6ZM169.67 27.81H170.39L170.59 27.77L171.59 27.7L171.26 25.46L170.87 24.15L169.67 27.81ZM171.66 20.35L168.17 20.42H168L167.94 20.58L162.69 35.02L162.59 35.14L162.48 35.33L162.39 35.49L162.51 35.62L162.68 35.81L162.75 35.89H162.86H167.87H168.1L168.12 35.66L168.16 35.23L169.23 31.84H171.66L171.8 35.3V35.34L171.82 35.38L171.91 35.6L171.94 35.68L172.01 35.72L172.23 35.85L172.29 35.88H172.36L177.43 36.01L177.67 36.02L177.69 35.78L177.73 35.19V35.15L177.72 35.11L173.89 20.61L173.84 20.43L173.66 20.42L171.66 20.35ZM170.02 27.56L170.86 24.99L171.02 25.53L171.3 27.47L170.57 27.52L170.36 27.56H170.02Z" fill="#D770A1"/>
<path d="M178.85 20.6L180.13 20.8H181.46L182.92 20.65L183.88 20.8L184.1 21.02L183.88 22.57V30.17L188.21 30.28L188.41 30.37L188.48 30.57L188.57 35.23L188.37 35.45L187.63 35.65L186.24 35.72L183.91 35.65L183.5 35.56L181.39 35.86L180.26 35.77L179.87 35.73L178.69 35.69L178.43 35.56L178.36 34.78V27.53L178.75 20.83L178.85 20.6ZM178.71 20.33L178.63 20.48L178.52 20.68L178.49 20.73V20.79L178.1 27.49V34.76L178.17 35.56L178.18 35.7L178.31 35.76L178.57 35.89L178.62 35.91H178.67L179.85 35.95L180.22 35.99L181.36 36.08H181.39H181.42L183.49 35.78L183.86 35.86L186.23 35.93L187.64 35.86H187.67L187.7 35.85L188.44 35.65L188.51 35.63L188.56 35.57L188.76 35.35L188.83 35.28V35.18L188.74 30.52V30.48L188.73 30.44L188.66 30.24L188.63 30.14L188.53 30.1L188.33 30.01L188.28 29.99H188.23L184.14 29.89V22.53L184.35 21.02L184.37 20.9L184.28 20.81L184.06 20.59L184 20.53L183.92 20.52L182.96 20.37L182.93 20.36H182.9L181.44 20.51H180.14L178.89 20.32L178.71 20.33Z" fill="#D770A1"/>
<defs>
<linearGradient id="paint0_linear_6_11062" x1="241.831" y1="29.776" x2="238.787" y2="24.6087" gradientUnits="userSpaceOnUse">
<stop stop-color="#FF8200"/>
<stop offset="1" stop-color="#D1350F"/>
</linearGradient>
</defs>
</svg>
