<svg width="52" height="96" viewBox="0 0 52 96" fill="none" xmlns="http://www.w3.org/2000/svg">
<g clip-path="url(#clip0_188_17835)">
<mask id="mask0_188_17835" style="mask-type:luminance" maskUnits="userSpaceOnUse" x="0" y="0" width="52" height="96">
<path d="M52 0H0V96H52V0Z" fill="white"/>
</mask>
<g mask="url(#mask0_188_17835)">
<path opacity="0.5" d="M26.0002 94.93C37.4767 94.93 46.7802 92.1452 46.7802 88.71C46.7802 85.2748 37.4767 82.49 26.0002 82.49C14.5237 82.49 5.22021 85.2748 5.22021 88.71C5.22021 92.1452 14.5237 94.93 26.0002 94.93Z" fill="#7A736E"/>
<path d="M15.47 31C15.47 31 0.810039 48.75 0.670039 58.88C0.530039 69 13.88 56.45 13.88 56.45" fill="#F4F4F4"/>
<path d="M15.47 31C15.47 31 0.810039 48.75 0.670039 58.88C0.530039 69 13.88 56.45 13.88 56.45" stroke="#231815" stroke-linecap="round" stroke-linejoin="round"/>
<path d="M12.7299 42.1299C9.35989 58.1999 5.48989 82.7299 12.0399 87.3299C21.9399 94.2899 23.8399 72.6499 23.8399 72.6499" fill="#F4F4F4"/>
<path d="M12.7299 42.1299C9.35989 58.1999 5.48989 82.7299 12.0399 87.3299C21.9399 94.2899 23.8399 72.6499 23.8399 72.6499" stroke="#231815" stroke-linecap="round" stroke-linejoin="round"/>
<path d="M20.6802 71.71C20.6802 71.71 27.1302 88.78 37.3802 88.78C47.6302 88.78 37.1302 34.85 32.8202 27.97" fill="#F4F4F4"/>
<path d="M20.6802 71.71C20.6802 71.71 27.1302 88.78 37.3802 88.78C47.6302 88.78 37.1302 34.85 32.8202 27.97" stroke="#231815" stroke-linecap="round" stroke-linejoin="round"/>
<path d="M34.6299 31C34.6299 31 53.7699 52.59 51.0699 61.99C48.0299 72.58 36.1199 59.54 36.1199 59.54" fill="#F4F4F4"/>
<path d="M34.6299 31C34.6299 31 53.7699 52.59 51.0699 61.99C48.0299 72.58 36.1199 59.54 36.1199 59.54" stroke="#231815" stroke-linecap="round" stroke-linejoin="round"/>
<path d="M31.2102 30.58C28.6502 30.88 26.0802 31.17 23.5202 31.49C21.8002 31.7 20.1202 31.97 18.8602 33.1C17.4502 31.29 13.9402 31.71 14.2902 34.43C14.6702 37.39 13.3502 40.06 12.9002 42.94C12.4602 45.74 12.8202 48.54 13.7002 51.22C14.5502 53.8 15.8002 56.24 16.9802 58.68C17.0602 58.84 17.1302 58.99 17.2102 59.15C17.1102 60.31 17.6402 61.17 18.4102 61.61C18.4702 61.73 18.5302 61.86 18.5902 61.98C18.2102 62.5 18.0702 63.2 18.3602 64.05C18.9602 65.8 19.3902 67.56 19.6802 69.38C19.9702 71.2 22.8002 71.93 23.9502 70.51C25.4602 68.65 25.7002 66.67 25.2202 64.62C25.5202 64.25 25.7902 63.84 26.0102 63.36C27.2702 60.61 27.3502 57.09 27.8702 54.14C29.0502 47.42 30.4402 40.63 33.4202 34.44C34.1602 32.9 33.3102 30.35 31.2102 30.59V30.58Z" fill="#F4F4F4"/>
<path d="M25.7501 36.4501C35.52 36.4501 43.4401 28.53 43.4401 18.7601C43.4401 8.99015 35.52 1.07007 25.7501 1.07007C15.9801 1.07007 8.06006 8.99015 8.06006 18.7601C8.06006 28.53 15.9801 36.4501 25.7501 36.4501Z" fill="#F4F4F4" stroke="#231815" stroke-linecap="round" stroke-linejoin="round"/>
</g>
</g>
<defs>
<clipPath id="clip0_188_17835">
<rect width="52" height="96" fill="white"/>
</clipPath>
</defs>
</svg>
