<svg width="491" height="318" viewBox="0 0 491 318" fill="none" xmlns="http://www.w3.org/2000/svg">
<path d="M404.76 193.48L406.49 184.82L397.73 183.74L395.2 179.11C396.65 177.68 397.96 176.12 399.14 174.43L406.49 177.71L414.94 147.55L389.84 145.41L395.42 120.25L389.5 117.43C385.74 115.64 381.46 114.32 376.79 113.52C374.56 113.14 372.29 112.94 370.03 112.94C368.08 112.94 366.15 113.09 364.25 113.37L378.36 97.63L341.07 89.25L342.12 95.97L311.78 95.76L310.16 92.22L293.19 93.13L292.85 92.31L300.46 85.84L291.92 80.66L294.27 70.95L284.32 71.78L280.51 62.55L272.94 69.07C270.52 67.58 267.17 64.51 264.44 64.07C263.92 65.54 263.67 67.16 263.32 68.69C263.32 65.39 261.61 62.14 258.89 60.27C256.17 58.4 252.52 57.97 249.45 59.16C247.3 55.34 242.36 54.32 238.02 53.76C208.86 49.97 178.36 48.03 149.02 50.94C145.17 51.32 141.34 51.85 137.54 52.59C122.8 55.46 108.86 61.41 94.91 66.98C90.64 68.68 85.39 70.72 82.95 74.91C80.36 79.35 80.84 85.5 83.72 89.68C84.46 90.75 85.35 91.72 86.01 92.84C88.47 97.01 89.54 101.7 95.47 101.7C96.75 101.7 97.76 101.42 98.19 101.29L98.52 101.2L98.89 101.07C99.11 100.99 99.41 100.87 99.73 100.74C95.7 105.55 92.64 111 90.79 116.86C89.63 120.53 89.12 124.27 89.23 127.89L89.24 128.08C89.24 128.12 89.24 128.16 89.24 128.2L89.67 142.37L97.93 201.39L103.68 202.53C104.81 202.75 109.07 203.41 109.77 203.48C112.44 203.77 115.1 203.92 117.69 203.92C127.3 203.92 136.67 202.26 144.76 199.18L149.29 249.08L160.05 243.76C168.63 239.51 177.58 236.07 186.73 233.47L198.44 273.5L207.47 252.43C209.33 248.09 211.71 244 214.53 240.27C213.73 244.72 212.87 249.15 211.94 253.55L209.89 263.22L250.54 264.35L249.96 240.54L268.8 266.13L276.65 248.84L322.24 253.84C322.21 254.72 322.16 255.6 322.11 256.48L321.38 268.2L381.36 250.6L381.81 215.69L383.57 215.28L390.2 221.11L395.52 214.06L404.35 214.26L403.89 205.44L410.78 199.92L404.76 193.48ZM262.13 73.55L261.86 73.57C262.03 73.27 262.19 72.97 262.34 72.66L262.13 73.55Z" fill="#EE8AA8"/>
<path d="M65.94 58.62C50.86 54.08 34.41 40.85 23.26 30.55C11.16 19.37 2.52996 9.14 2.43996 9.03L1.76996 8.23L0.829956 50.99L1.03996 51.11C1.31996 51.26 29.9 67 61.61 72.03L62 72.1L62.07 71.71C62.73 67.86 64.49 61.98 66.17 59.2L66.44 58.76L65.94 58.62Z" fill="#D770A1"/>
<path d="M480.11 -16.27L419.58 -17.52L419.8 -17C419.88 -16.83 427.22 0.779993 419.76 26.97L419.53 27.78L420.28 27.4C420.62 27.23 454.42 10.08 482.14 9.22L482.53 9.21L480.11 -16.27Z" fill="#D770A1"/>
<path d="M93.5599 221.82C76.7499 218.71 66.9499 211.05 66.8599 210.97L66.6699 211.2L66.2999 211.18C66.2899 211.26 65.0499 218.79 60.9499 226.89C57.1999 234.29 50.2199 243.7 38.2099 246.56C32.6499 240.53 31.9299 231.76 31.9299 231.67L31.8899 231.09L31.3999 231.4C31.3099 231.45 22.7599 236.74 13.6899 236.87L12.9099 236.88L13.4399 237.45C18.7999 242.29 24.3099 247.09 30.8399 250.21C42.0499 255.76 55.6799 255.56 66.7999 249.81C77.1399 244.61 84.4699 235.34 91.2199 226.19C92.0899 224.92 92.9399 223.64 93.7899 222.36L94.0799 221.92L93.5599 221.82Z" fill="#D770A1"/>
<path d="M310.47 74.96C310.47 74.96 311.5 79.84 312.73 87.44C312.73 87.44 325.42 74.82 326.66 65.69C326.65 65.69 320.13 70.81 310.47 74.96Z" fill="#D770A1"/>
<path d="M444.533 270.049L434.084 281.939L438.147 285.51L448.597 273.62L444.533 270.049Z" fill="#D770A1"/>
<path d="M233.17 289.31L224.85 301.01L241.58 305.71L233.17 289.31Z" fill="#D770A1"/>
<path d="M406.61 269.16L402.55 267.02L399.55 270.5L398.69 265.99L394.1 265.81L397.09 262.33L394.37 258.63L398.96 258.8L400.15 254.36L402.88 258.05L407.09 256.22L405.91 260.66L409.97 262.8L405.76 264.65L406.61 269.16Z" fill="#D770A1"/>
<path d="M455.9 116.28C455.9 123.53 461.79 129.42 469.04 129.42C476.29 129.42 482.18 123.53 482.18 116.28C482.18 109.03 476.29 103.14 469.04 103.14C461.79 103.14 455.9 109.04 455.9 116.28Z" fill="#D770A1"/>
<path d="M420.8 86.31L416.1 62.08L390.59 96.05L394.38 103.63L420.8 86.31Z" fill="#D770A1"/>
<path d="M482.39 54.3C482.39 50.64 479.42 47.67 475.76 47.67C472.1 47.67 469.13 50.64 469.13 54.3C469.13 57.96 472.1 60.93 475.76 60.93C479.42 60.93 482.39 57.96 482.39 54.3Z" fill="#D770A1"/>
<path d="M60.23 181.13L61.14 177.22L57.25 178.21L55.91 174.43L53.18 177.36L50.01 174.91L49.29 178.85L45.29 178.5L46.82 182.21L43.27 184.07L46.56 186.36L44.58 189.85L48.59 190L48.81 194L52.26 191.96L54.62 195.21L56.42 191.63L60.15 193.09L59.73 189.1L63.66 188.31L61.15 185.19L64.03 182.4L60.23 181.13Z" fill="#D770A1"/>
<path d="M204.07 43.18L204.39 50.32L208.49 44.47L214.27 48.66L212.25 41.81L219.13 39.91L212.52 37.22L215.32 30.65L209.09 34.14L205.7 27.86L204.55 34.9L197.52 33.63L202.32 38.93L196.94 43.63L204.07 43.18Z" fill="#D770A1"/>
<path d="M41.1424 103.104L20.1499 107.313L21.7089 115.089L42.7014 110.88L41.1424 103.104Z" fill="#D770A1"/>
<path d="M51.49 -11.2L68.54 5.39L77.03 -5.83L60.87 -18.28L51.49 -11.2Z" fill="#D770A1"/>
<path d="M155.51 280.3L148.86 283.61L150 285.9C150.48 286.86 150.94 287.84 150.87 288.41C150.81 288.96 150.31 289.63 149.59 290.11C148.92 290.57 148.02 290.94 147.06 291.34C145.41 292.02 143.71 292.73 142.14 294.1C139.35 296.45 138.02 300.38 138.75 304.08C139.33 307.47 141.45 309.64 143.65 311.49L145.61 313.14L150.39 307.45L148.43 305.8C147.31 304.86 146.25 303.85 146.07 302.78L146.06 302.71C145.83 301.57 146.19 300.41 146.96 299.75L146.99 299.72C147.67 299.12 148.75 298.67 149.9 298.2C151.16 297.68 152.47 297.14 153.76 296.25C156.3 294.52 157.94 291.97 158.24 289.26C158.55 286.68 157.66 284.63 156.64 282.58L155.51 280.3Z" fill="#D770A1"/>
<path d="M276.868 271L269.697 273.427L273.937 285.959L281.108 283.533L276.868 271Z" fill="#D770A1"/>
<path d="M420.97 159.53C423.16 167.11 430.19 172.41 438.09 172.41C439.75 172.41 441.41 172.17 443.02 171.71C447.58 170.39 451.37 167.37 453.67 163.21C455.97 159.04 456.52 154.23 455.2 149.67L454.69 147.91L446.95 150.14L447.46 151.9C448.18 154.4 447.88 157.03 446.62 159.32C445.36 161.6 443.29 163.26 440.79 163.98C439.91 164.23 439 164.36 438.09 164.36C433.76 164.36 429.91 161.46 428.71 157.3L428.2 155.54L420.46 157.77L420.97 159.53Z" fill="#D770A1"/>
<path d="M80.5299 146.05C79.7499 145.86 78.9399 145.76 78.1399 145.76C73.5599 145.76 69.5899 148.87 68.4799 153.32L67.7699 156.17L75.3499 158.05L76.0599 155.2C76.2999 154.24 77.1499 153.57 78.1399 153.57C78.3099 153.57 78.4799 153.59 78.6499 153.63C79.7999 153.91 80.4999 155.08 80.2099 156.22L79.4999 159.07L87.0799 160.95L87.7899 158.1C88.8499 153.82 86.9199 149.29 83.1099 147.09C82.2999 146.62 81.4399 146.28 80.5299 146.05Z" fill="#D770A1"/>
<path d="M102.9 34.15C97.7299 34.15 93.5299 38.35 93.5299 43.52C93.5299 48.69 97.7299 52.89 102.9 52.89C108.07 52.89 112.27 48.69 112.27 43.52C112.27 38.35 108.07 34.15 102.9 34.15Z" fill="#D770A1"/>
<path d="M384.192 51.8854L373.61 57.9954L379.72 68.5779L390.302 62.4679L384.192 51.8854Z" fill="#D770A1"/>
<path d="M42.27 145.71C45.2081 145.71 47.59 143.328 47.59 140.39C47.59 137.452 45.2081 135.07 42.27 135.07C39.3318 135.07 36.95 137.452 36.95 140.39C36.95 143.328 39.3318 145.71 42.27 145.71Z" fill="#D770A1"/>
<path d="M266.52 47.17C270.204 47.17 273.19 44.1837 273.19 40.5C273.19 36.8163 270.204 33.83 266.52 33.83C262.836 33.83 259.85 36.8163 259.85 40.5C259.85 44.1837 262.836 47.17 266.52 47.17Z" fill="#D770A1"/>
<path d="M340.222 276.344L334.347 287.615L345.619 293.489L351.493 282.218L340.222 276.344Z" fill="#D770A1"/>
<path d="M74.49 265.39C69.45 265.39 65.35 269.49 65.35 274.53C65.35 279.57 69.45 283.67 74.49 283.67C79.53 283.67 83.63 279.57 83.63 274.53C83.63 269.49 79.53 265.39 74.49 265.39Z" fill="#D770A1"/>
<path d="M151.83 1.37C155.79 1.37 159.59 -0.500003 161.98 -3.62C162.7 -4.57 163.29 -5.61 163.73 -6.72C164.11 -7.68 164.37 -8.69 164.5 -9.71C165.26 -15.53 161.98 -21.1 156.51 -23.24L152.97 -24.62L149.3 -15.25L152.84 -13.86C154 -13.41 154.69 -12.23 154.53 -11C154.5 -10.79 154.45 -10.57 154.37 -10.37C153.97 -9.35 152.96 -8.66 151.86 -8.66C151.53 -8.66 151.2 -8.72 150.89 -8.85L147.35 -10.23L143.68 -0.860003L147.22 0.529999C148.69 1.08 150.24 1.37 151.83 1.37Z" fill="#D770A1"/>
<path d="M443.35 198.62C443.35 201.28 445.52 203.45 448.18 203.45C450.84 203.45 453.01 201.28 453.01 198.62C453.01 195.96 450.84 193.79 448.18 193.79C445.52 193.78 443.35 195.95 443.35 198.62Z" fill="#D770A1"/>
<path d="M272.52 305.62C269.27 305.62 266.63 308.26 266.63 311.51C266.63 314.76 269.27 317.4 272.52 317.4C275.77 317.4 278.41 314.76 278.41 311.51C278.41 308.26 275.77 305.62 272.52 305.62Z" fill="#D770A1"/>
<path d="M435.608 70.2695L434.716 77.485L451.132 79.5128L452.024 72.2973L435.608 70.2695Z" fill="#D770A1"/>
<path d="M197.61 284.02L203.42 283.37L199.46 279.07L203.49 274.84L197.69 274.09L198.06 268.26L193.14 271.41L189.68 266.7L187.93 272.28L182.25 270.91L184.51 276.3L179.27 278.9L184.46 281.58L182.12 286.94L187.82 285.66L189.47 291.27L193.02 286.62L197.88 289.86L197.61 284.02Z" fill="#D770A1"/>
<path d="M427.12 100.34L426.32 104.72L422.13 106.21L424.67 109.87L422.77 113.89L427.14 114.68L428.64 118.87L432.29 116.34L436.31 118.24L437.1 113.86L441.29 112.37L438.76 108.71L440.66 104.69L436.29 103.9L434.79 99.71L431.14 102.24L427.12 100.34Z" fill="#D770A1"/>
<path d="M67.87 95.2957L62.8298 108.164L75.6976 113.204L80.7378 100.336L67.87 95.2957Z" fill="#D770A1"/>
<path d="M349.528 24.4165L332.209 30.5683L335.907 40.9807L353.227 34.8289L349.528 24.4165Z" fill="#D770A1"/>
<path d="M125.966 226.031L118.096 239.662L126.159 244.317L134.029 230.686L125.966 226.031Z" fill="#D770A1"/>
<path d="M469.04 101.7C462 101.7 456.27 107.43 456.27 114.47C456.27 121.51 462 127.24 469.04 127.24C476.08 127.24 481.81 121.51 481.81 114.47C481.81 107.43 476.08 101.7 469.04 101.7Z" fill="#F3B2CE"/>
<path d="M391.02 94.28L394.53 101.29L420.4 84.33L415.9 61.15L391.02 94.28Z" fill="#DDE46E"/>
<path d="M482.02 52.49C482.02 49.04 479.21 46.23 475.76 46.23C472.31 46.23 469.5 49.04 469.5 52.49C469.5 55.94 472.31 58.75 475.76 58.75C479.21 58.76 482.02 55.95 482.02 52.49Z" fill="#F3B2CE"/>
<path d="M59.78 179.56L60.64 175.92L57.01 176.84L55.76 173.31L53.21 176.05L50.25 173.76L49.58 177.44L45.85 177.11L47.28 180.57L43.97 182.31L47.04 184.45L45.19 187.7L48.93 187.84L49.14 191.57L52.36 189.67L54.55 192.7L56.23 189.36L59.71 190.72L59.32 187L62.99 186.27L60.64 183.35L63.33 180.75L59.78 179.56Z" fill="#FAEDED"/>
<path d="M212.04 35.61L214.56 29.69L208.95 32.84L205.89 27.17L204.85 33.52L198.52 32.38L202.84 37.15L197.99 41.39L204.42 40.99L204.71 47.42L208.4 42.15L213.61 45.93L211.79 39.75L218 38.04L212.04 35.61Z" fill="#F3B2CE"/>
<path d="M65.47 56.05C36.13 47.22 1.78 6.34 1.78 6.34L0.869995 47.81C0.869995 47.81 29.3 63.61 61.31 68.7C62 64.66 63.79 58.81 65.47 56.05Z" fill="#F3B2CE"/>
<path d="M40.8492 101.731L20.5725 105.797L21.988 112.857L42.2648 108.791L40.8492 101.731Z" fill="#F3B2CE"/>
<path d="M52.11 -13.36L68.61 2.7L76.86 -7.97L60.77 -19.91L52.11 -13.36Z" fill="#E96085"/>
<path d="M155.34 278.99L149.34 281.98L150.32 283.94C150.84 284.99 151.3 285.98 151.22 286.65C151.15 287.31 150.6 288.06 149.79 288.61C149.09 289.09 148.17 289.47 147.2 289.87C145.58 290.54 143.91 291.24 142.38 292.57C139.69 294.84 138.41 298.63 139.12 302.21C139.68 305.48 141.75 307.6 143.89 309.4L145.57 310.81L149.88 305.68L148.2 304.27C147.03 303.29 145.92 302.21 145.72 301.04L145.71 300.98C145.46 299.71 145.86 298.41 146.73 297.67L146.76 297.64C147.49 297 148.6 296.54 149.77 296.05C151.01 295.53 152.3 295 153.57 294.14C156.02 292.47 157.6 290.02 157.89 287.41C158.19 284.93 157.32 282.93 156.33 280.94L155.34 278.99Z" fill="#FAEDED"/>
<path d="M276.619 269.666L270.149 271.854L274.154 283.696L280.624 281.507L276.619 269.666Z" fill="#F3B2CE"/>
<path d="M454.84 147.96L454.43 146.55L447.4 148.58L447.81 149.99C448.56 152.58 448.25 155.32 446.94 157.69C445.63 160.06 443.48 161.78 440.89 162.53C439.97 162.79 439.03 162.93 438.09 162.93C433.6 162.93 429.6 159.92 428.36 155.61L427.95 154.2L420.92 156.23L421.33 157.64C423.47 165.07 430.37 170.25 438.1 170.25C439.73 170.25 441.35 170.02 442.93 169.57C447.4 168.28 451.1 165.32 453.36 161.24C455.6 157.14 456.13 152.43 454.84 147.96Z" fill="#F3B2CE"/>
<path d="M82.93 145.6C82.15 145.15 81.32 144.82 80.45 144.6C79.69 144.41 78.92 144.32 78.15 144.32C73.74 144.32 69.91 147.31 68.85 151.6L68.23 154.1L75.1 155.8L75.72 153.3C76 152.18 77 151.39 78.15 151.39C78.35 151.39 78.55 151.41 78.75 151.46C80.09 151.79 80.91 153.16 80.58 154.5L79.96 157L86.83 158.7L87.45 156.2C88.46 152.08 86.6 147.72 82.93 145.6Z" fill="#F3B2CE"/>
<path d="M102.9 32.7C97.9 32.7 93.83 36.77 93.83 41.77C93.83 46.77 97.9 50.84 102.9 50.84C107.9 50.84 111.97 46.77 111.97 41.77C111.97 36.77 107.91 32.7 102.9 32.7Z" fill="#FAEDED"/>
<path d="M384.054 50.5769L374.112 56.3169L379.852 66.2586L389.794 60.5186L384.054 50.5769Z" fill="#FAEDED"/>
<path d="M42.2699 143.54C45.0038 143.54 47.2199 141.324 47.2199 138.59C47.2199 135.856 45.0038 133.64 42.2699 133.64C39.5361 133.64 37.3199 135.856 37.3199 138.59C37.3199 141.324 39.5361 143.54 42.2699 143.54Z" fill="#E96085"/>
<path d="M266.52 45C270.005 45 272.83 42.1749 272.83 38.69C272.83 35.2051 270.005 32.38 266.52 32.38C263.035 32.38 260.21 35.2051 260.21 38.69C260.21 42.1749 263.035 45 266.52 45Z" fill="#FFF593"/>
<path d="M340.383 275.028L334.845 285.652L345.469 291.189L351.006 280.565L340.383 275.028Z" fill="#DDE46E"/>
<path d="M74.49 263.95C69.65 263.95 65.72 267.89 65.72 272.72C65.72 277.56 69.66 281.49 74.49 281.49C79.33 281.49 83.26 277.55 83.26 272.72C83.27 267.89 79.33 263.95 74.49 263.95Z" fill="#FFF593"/>
<path d="M448.19 201.28C450.65 201.28 452.66 199.28 452.66 196.81C452.66 194.35 450.66 192.34 448.19 192.34C445.73 192.34 443.72 194.34 443.72 196.81C443.72 199.27 445.72 201.28 448.19 201.28Z" fill="white"/>
<path d="M272.52 304.18C269.48 304.18 267 306.66 267 309.7C267 312.74 269.48 315.22 272.52 315.22C275.56 315.22 278.04 312.74 278.04 309.7C278.04 306.66 275.56 304.18 272.52 304.18Z" fill="white"/>
<path d="M435.925 68.8736L435.123 75.3645L450.814 77.3028L451.616 70.8119L435.925 68.8736Z" fill="white"/>
<path d="M197.31 272.6L197.65 267.15L193.05 270.1L189.81 265.7L188.18 270.91L182.87 269.63L184.98 274.67L180.08 277.1L184.93 279.61L182.74 284.62L188.08 283.42L189.62 288.66L192.93 284.32L197.48 287.34L197.23 281.88L202.66 281.28L198.96 277.26L202.73 273.3L197.31 272.6Z" fill="#E96085"/>
<path d="M440.13 103.16L436.01 102.41L434.61 98.48L431.17 100.86L427.39 99.07L426.65 103.18L422.71 104.59L425.09 108.03L423.3 111.81L427.41 112.55L428.82 116.49L432.26 114.11L436.04 115.9L436.78 111.78L440.72 110.38L438.34 106.94L440.13 103.16Z" fill="#E96085"/>
<path d="M68.0769 93.9656L63.303 106.154L75.4911 110.928L80.265 98.7395L68.0769 93.9656Z" fill="#DDE46E"/>
<path d="M349.313 23.0795L332.682 28.9869L336.132 38.7021L352.764 32.7946L349.313 23.0795Z" fill="#E96085"/>
<path d="M126.1 224.73L118.595 237.729L126.025 242.019L133.53 229.02L126.1 224.73Z" fill="#F3B2CE"/>
<path d="M108.26 262.73L112.14 275.63L120.66 265.41L108.26 262.73Z" fill="#D770A1"/>
<path d="M108.96 260.96L112.35 272.2L119.77 263.29L108.96 260.96Z" fill="#FAEDED"/>
<path d="M425.45 227.84C428.35 229.56 430.69 232.5 432.41 236.59C438.09 250.15 448.4 257.93 460.7 257.93C465.58 257.93 470.58 256.64 475.15 254.19L475.21 254.16L490.67 239.26L489.61 239.2C489.32 239.18 460.35 237.53 456.07 226.66C454.85 223.57 451.86 221.6 447.42 220.97C446.4 220.75 445.1 220.64 443.55 220.64C433.63 220.64 416.08 225.02 414.09 225.52C407.56 226.9 406.05 233.21 405.83 233.37L405.73 234.21L423.76 230.6C423.74 230.61 423.55 228.51 425.45 227.84Z" fill="#D770A1"/>
<path d="M455.62 224.57C454.65 223.41 453.67 222.27 452.52 221.3C448.62 218 442.68 218.67 437.91 219.17C432.94 219.7 428.01 220.61 423.11 221.64C420.12 222.27 417.14 222.94 414.17 223.69C420.65 222.05 426.86 224.44 430.49 229.98C431.97 232.24 433.08 234.71 434.35 237.1C436.81 241.73 439.94 246.09 444.07 249.33C452.95 256.29 465.12 256.75 474.92 251.51L489.56 237.39C489.12 237.82 485.7 237.12 485.02 237.06C483.36 236.9 481.7 236.71 480.05 236.46C477.13 236.02 474.28 235.33 471.41 234.71C466.12 233.56 461.19 230.77 457.51 226.79C456.87 226.07 456.25 225.32 455.62 224.57Z" fill="#FFF593"/>
<path d="M425.26 225.02C421.68 223.03 417.86 222.8 414.18 223.7C407.71 225.27 406.08 231.48 406.08 231.48L423.22 227.91C423.42 226.27 424.18 225.58 425.26 225.02Z" fill="#E96085"/>
<path d="M407.11 266.79L403.05 264.65L400.05 268.13L399.19 263.62L394.6 263.45L397.59 259.96L394.87 256.27L399.46 256.43L400.65 252L403.38 255.69L407.59 253.85L406.41 258.29L410.47 260.44L406.26 262.28L407.11 266.79Z" fill="#F3B2CE"/>
<path d="M233.17 286.6L224.85 298.3L241.58 303L233.17 286.6Z" fill="#FFF593"/>
<path d="M444.532 267.379L434.083 279.269L438.146 282.84L448.596 270.95L444.532 267.379Z" fill="white"/>
<path d="M310.47 71.52C310.47 71.52 312.04 77.05 312.73 84C312.73 84 325.42 71.38 326.66 62.25C326.65 62.25 317.76 68.66 310.47 71.52Z" fill="#F3B2CE"/>
<path d="M418.66 -18.5C418.66 -18.5 426.23 -0.919998 418.63 25.72C418.63 25.72 452.52 8.37 480.64 7.5L478.29 -17.27L418.66 -18.5Z" fill="#E96085"/>
<path d="M38.5699 244.25C38.5699 244.25 41.8799 251.24 59.7299 250.17C62.7599 249.35 65.6799 248.17 68.3999 246.61C78.8699 240.6 84.0099 234.21 93.8799 219.22C76.8299 216.15 66.9699 208.42 66.9699 208.41C66.9499 208.42 62.2699 238.65 38.5699 244.25Z" fill="#E96085"/>
<path d="M31.99 229.03C31.99 229.03 23.4 234.46 14.13 234.63C18.6 239.46 23.34 244.21 29 247.03C38.64 251.68 49.81 252.86 59.73 250.18C43.92 249.95 38.57 244.26 38.57 244.26C32.7 238.07 31.99 229.03 31.99 229.03Z" fill="#DDE46E"/>
<path d="M104.98 83.83C104.43 82.89 103.44 82.16 101.98 81.59L101.94 81.58L101.9 81.57C101.55 81.51 101.21 81.47 100.88 81.47C100.28 81.47 99.71 81.57 99.2 81.78C98.8 81.89 98.41 82.06 98.03 82.22C97.43 82.48 96.85 82.72 96.26 82.74H96.22C96.2 82.74 96.15 82.74 96.08 82.67C95.93 82.5 95.85 82.16 95.86 81.96C95.95 81.78 96.24 81.6 96.59 81.52L97.07 81.41C97.47 81.31 97.93 81.2 98.27 81.13C98.37 81.11 98.49 81.09 98.61 81.07C99.29 80.96 100.23 80.81 100.65 80.11L100.67 80.08L100.68 80.05C100.81 79.72 100.66 79.34 100.5 78.89L100.48 78.83C100.28 78.34 100.24 78.05 100.17 77.62C100.15 77.51 100.13 77.38 100.11 77.23C100.07 77.06 100.05 76.91 100.03 76.76C99.96 76.28 99.9 75.79 99.31 75.41L99.28 75.39C99.15 75.32 99.01 75.29 98.84 75.29C98.69 75.29 98.53 75.31 98.39 75.34L98.35 75.35C98.09 75.38 97.84 75.39 97.61 75.4C97.27 75.42 96.93 75.43 96.54 75.51C95.97 75.61 95.49 75.83 95.03 76.03C94.77 76.14 94.51 76.26 94.21 76.37C94.11 76.41 94.02 76.45 93.93 76.48C93.55 76.63 93.25 76.75 92.85 77.01C92.68 77.13 92.48 77.23 92.28 77.35C91.78 77.63 91.27 77.92 90.91 78.37C90.09 79.28 89.31 80.3 89.07 81.56V81.58V81.6C89.06 81.76 89.03 81.92 89.01 82.08C88.95 82.49 88.89 82.92 88.96 83.34C89.06 84.38 89.41 85.39 90.07 86.59C90.36 87.2 90.76 87.68 91.41 88.21L91.43 88.23L91.46 88.25C91.91 88.51 92.44 88.63 93.09 88.63C93.52 88.63 93.96 88.58 94.38 88.53L94.52 88.51L94.54 88.5C94.78 88.44 95.16 88.36 95.58 88.26C96.3 88.1 97.12 87.91 97.63 87.77C97.81 87.71 98.05 87.58 98.33 87.43C98.59 87.29 99.03 87.05 99.15 87.03C99.28 87.03 99.48 87.17 99.55 87.31C99.53 87.38 99.35 87.53 99.27 87.61C99.22 87.65 99.17 87.69 99.14 87.72C98.77 88.04 98.42 88.26 98.07 88.4C97.66 88.56 97.24 88.66 96.79 88.76C96.1 88.92 95.39 89.08 94.74 89.5C94.64 89.56 94.52 89.62 94.39 89.69C94.01 89.88 93.53 90.12 93.36 90.64L93.34 90.71V90.79C93.37 91.29 93.59 91.84 93.81 92.36C93.92 92.64 94.03 92.9 94.1 93.13L94.11 93.16C94.21 93.41 94.28 93.6 94.34 93.77C94.55 94.34 94.65 94.62 95.13 95.29C95.26 95.47 95.51 95.69 95.98 95.69C96.26 95.69 96.54 95.61 96.74 95.55C96.79 95.54 96.89 95.51 96.89 95.51L96.91 95.5C97.33 95.35 98.55 94.84 98.96 94.67L99.04 94.63C99.37 94.44 99.82 94.25 100.22 94.08C100.5 93.96 100.76 93.85 100.97 93.74L100.99 93.73L101.01 93.72C101.21 93.59 101.48 93.44 101.77 93.27C102.36 92.93 102.96 92.58 103.35 92.25C104.24 91.4 105.13 90.48 105.66 89.5L105.67 89.47C105.73 89.33 105.81 89.18 105.89 89.02C106.09 88.63 106.32 88.2 106.39 87.75C106.6 86.43 105.88 85.24 105.23 84.2C105.13 84.09 105.05 83.96 104.98 83.83Z" fill="#D770A1"/>
<path d="M123.23 81.4C123.12 80.98 123.01 80.51 122.89 80.02C122.52 78.47 122.09 76.72 121.66 75.59C121.53 75.17 121.38 74.73 121.23 74.29C121.01 73.64 120.77 72.96 120.6 72.35C120.57 72.16 120.54 71.99 120.51 71.83C120.44 71.38 120.37 71 120.22 70.49C120.14 70.14 120.04 69.78 119.94 69.43C119.78 68.87 119.62 68.29 119.56 67.81C119.52 67.26 119.15 67.06 118.82 67.06C118.64 67.06 118.44 67.11 118.17 67.22C117.68 67.38 117.26 67.58 116.86 67.78C116.47 67.97 116.1 68.15 115.67 68.29C115.36 68.4 114.93 68.55 114.71 68.62C114.35 68.7 113.76 68.83 113.53 69.26C113.45 69.41 113.38 69.65 113.5 69.97C113.58 70.24 113.66 70.54 113.76 70.87C113.99 71.69 114.25 72.62 114.46 73.17C114.56 73.48 114.7 73.87 114.85 74.26C114.87 74.33 114.9 74.39 114.92 74.46L114.33 73.92C113.98 73.6 113.66 73.29 113.37 73.03L113.36 73.02L113.13 72.84C112.71 72.51 112.24 72.14 111.88 71.77C111.77 71.67 111.64 71.55 111.51 71.43C111.3 71.24 111.11 71.05 111.01 70.97L110.98 70.95C110.93 70.91 110.88 70.87 110.83 70.82C110.65 70.65 110.39 70.43 110.05 70.43C109.99 70.43 109.93 70.44 109.87 70.45L109.84 70.46C108.84 70.8 107.14 71.32 105.99 71.66L105.97 71.67L105.95 71.68C105.73 71.77 105.51 71.84 105.3 71.91C104.74 72.09 104.16 72.28 103.67 72.79C103.44 73.03 103.37 73.36 103.48 73.67C103.6 74.01 103.91 74.89 104.27 75.88C104.84 77.46 105.61 79.63 105.68 79.89C105.91 80.73 106.3 82.12 106.67 83.41C107.05 84.76 107.39 85.99 107.5 86.39C107.62 86.8 107.9 87.75 108.65 87.75C108.69 87.75 108.72 87.75 108.77 87.74C108.98 87.71 109.29 87.59 109.79 87.41C110.08 87.3 110.38 87.2 110.54 87.15L110.57 87.14C110.66 87.13 110.76 87.12 110.85 87.11C111.47 87.04 112.17 86.95 112.79 86.66C112.87 86.62 112.96 86.6 113.04 86.57C113.33 86.48 113.72 86.35 113.82 85.92L113.84 85.82L113.82 85.72C113.7 85.22 112.94 82.69 112.28 80.46C112.19 80.15 112.1 79.84 112.01 79.54C112.3 79.9 112.61 80.27 112.97 80.65C113.71 81.53 114.38 82.13 115.15 82.83C115.37 83.03 115.6 83.23 115.84 83.45C115.97 83.57 116.11 83.69 116.24 83.81C116.5 84.05 116.74 84.27 116.96 84.45C117.1 84.57 117.28 84.64 117.47 84.64C117.87 84.64 118.24 84.37 118.49 84.15C119.01 83.77 119.64 83.54 120.31 83.31C120.85 83.12 121.41 82.92 121.95 82.61C122.13 82.5 122.32 82.41 122.51 82.33C122.69 82.25 122.86 82.17 123.01 82.07C123.22 81.92 123.32 81.72 123.29 81.45V81.42L123.23 81.4Z" fill="#D770A1"/>
<path d="M137.91 69.12C137.8 68.35 137.68 67.56 137.59 66.94V66.92V66.9C137.53 66.68 137.48 66.45 137.42 66.23C137.21 65.38 136.99 64.51 136.68 63.6C136.64 63.47 136.6 63.36 136.57 63.25C136.47 62.92 136.4 62.69 136.22 62.56C136.07 62.43 135.88 62.42 135.76 62.42C135.66 62.42 135.55 62.43 135.44 62.44C135.35 62.45 135.26 62.46 135.15 62.46H135.11C135.05 62.46 135 62.46 134.95 62.46C134.9 62.46 134.84 62.46 134.79 62.46C134.71 62.46 134.63 62.46 134.53 62.47C133.9 62.56 131.71 62.86 131.16 62.94C130.15 63.09 129.98 63.54 130.01 63.88V63.92L130.02 63.95C130.13 64.34 130.7 66.37 131.2 68.17C131.49 69.21 131.76 70.16 131.9 70.64C131.99 70.92 132.03 71.23 132.07 71.55C132.09 71.71 132.11 71.87 132.13 72.01C132.15 72.18 132.18 72.36 132.2 72.55C132.26 72.93 132.32 73.36 132.28 73.61C132.23 74.1 131.77 74.37 130.76 74.53C130.74 74.53 130.71 74.53 130.69 74.53C130.18 74.53 129.9 73.78 129.81 73.46C129.26 71.59 128.87 69.99 128.63 68.6C128.57 67.98 128.49 67.18 128.41 66.41C128.36 65.92 128.32 65.44 128.27 65.02C128.25 64.9 128.25 64.8 128.24 64.72C128.23 64.51 128.21 64.27 127.99 64.03L127.98 64.02L127.96 64.01C127.72 63.8 127.33 63.7 126.8 63.7C126.51 63.7 126.21 63.73 125.93 63.8C125.72 63.86 125.11 64.05 124.46 64.25L123.29 64.61C123.18 64.65 123.07 64.68 122.97 64.71C122.56 64.82 121.88 65.01 121.99 65.83C122.03 66.28 122.13 67.67 122.15 68.05V68.08V68.1C122.26 68.68 122.45 69.59 122.64 70.46C122.79 71.14 122.92 71.77 123 72.18V72.2L123.01 72.22C123.2 72.8 123.45 73.52 123.7 74.23C123.88 74.73 124.05 75.22 124.2 75.65C124.44 76.6 125.1 77.23 125.74 77.78C126.19 78.21 126.38 78.34 126.79 78.64L126.84 78.68C127.47 79.14 127.92 79.48 128.67 79.74L128.76 79.77H128.8C129.55 79.84 130.51 79.91 131.34 79.91C131.62 79.91 131.87 79.9 132.07 79.88C132.6 79.84 133.05 79.72 133.52 79.59C133.75 79.53 133.99 79.46 134.23 79.41C134.71 79.32 135.02 79.1 135.33 78.89C135.43 78.82 135.53 78.75 135.65 78.68C136.69 77.97 137.24 76.69 137.6 75.66C138.23 73.93 138.39 72.33 138.12 70.61C138.06 70.15 137.99 69.64 137.91 69.12Z" fill="#D770A1"/>
<path d="M152.26 62.54L152.23 62.1C152.18 61.6 152.05 60.73 151.96 60.1L151.87 59.47L151.69 59.37C151.58 59.31 151.46 59.3 151.36 59.3C151.19 59.3 150.95 59.33 150.62 59.38C150.29 59.42 149.88 59.48 149.39 59.52C148.5 59.64 146.96 59.81 145.33 59.98C141.41 60.4 140.15 60.55 139.87 60.69L139.66 60.8V61.04C139.63 62.65 139.95 65.44 140.28 68.39C140.42 69.63 140.57 70.92 140.68 72.09L140.69 72.14C140.78 72.61 140.9 73.27 141.02 73.97C141.22 75.07 141.44 76.32 141.6 77.1L141.62 77.19L141.68 77.26C141.79 77.4 141.99 77.56 142.35 77.56C142.53 77.56 142.71 77.52 142.87 77.48C142.94 77.46 143.01 77.45 143.08 77.44C143.72 77.37 144.31 77.27 144.94 77.16C145.37 77.09 145.81 77.01 146.29 76.94C146.29 76.94 147.37 76.79 147.59 76.76C147.65 76.75 147.7 76.74 147.75 76.74C147.98 76.71 148.3 76.67 148.47 76.27L148.48 76.24C148.64 75.74 148.44 75.25 148.28 74.85C148.21 74.68 148.15 74.53 148.11 74.38L147.8 73.26C147.76 73.05 147.7 72.89 147.66 72.74C147.6 72.57 147.57 72.45 147.56 72.35C147.65 72.33 147.78 72.32 147.86 72.31C148 72.3 148.15 72.28 148.29 72.25C148.63 72.2 148.87 72.15 149.3 72.04C149.64 71.94 150.02 71.78 150.17 71.36L150.19 71.3V71.24C150.21 70.92 150.16 70.6 150.12 70.28C150.1 70.1 150.07 69.91 150.06 69.71C150.04 69.53 150.02 69.33 150 69.13C149.96 68.75 149.92 68.36 149.88 68.09C149.87 67.95 149.81 67.81 149.7 67.67L149.68 67.64L149.65 67.62C149.41 67.39 149.14 67.28 148.81 67.28C148.64 67.28 148.49 67.31 148.32 67.33C148.16 67.36 147.99 67.39 147.8 67.39H147.78L147.22 67.45C147.14 67.45 147.06 67.47 147 67.48C146.98 67.36 146.95 67.22 146.93 67.08C146.87 66.76 146.78 66.26 146.74 65.93C147.39 65.83 148.72 65.66 149.75 65.53C150.66 65.41 151.44 65.31 151.68 65.27C152.37 65.15 152.44 64.74 152.41 64.52C152.38 64.14 152.3 63.14 152.26 62.54Z" fill="#D770A1"/>
<path d="M166.52 73.85L166.37 72.37C166.35 72.25 166.34 72.12 166.33 72.01C166.29 71.54 166.23 70.9 165.52 70.67L165.46 70.65H165.39C164.96 70.66 163.6 70.72 162.27 70.78C161.44 70.82 160.65 70.85 160.2 70.87C160.2 70.69 160.2 70.41 160.22 70.24C160.23 70.24 160.25 70.24 160.26 70.24C160.33 70.25 160.4 70.25 160.46 70.25C160.54 70.25 160.62 70.25 160.7 70.25C160.9 70.25 161.1 70.24 161.31 70.24C161.47 70.24 161.63 70.23 161.8 70.23H161.82H161.84C161.9 70.22 161.97 70.22 162.06 70.22C162.14 70.22 162.22 70.22 162.3 70.22C162.39 70.22 162.48 70.23 162.57 70.23C162.95 70.23 163.37 70.18 163.61 69.84C163.85 69.49 163.85 69.13 163.85 68.63C163.85 68.52 163.85 68.4 163.85 68.26C163.86 67.63 163.83 66.67 163.72 65.88V65.86L163.71 65.84C163.59 65.37 163.19 65.06 162.71 65.06C162.35 65.08 160.89 65.16 160.17 65.24C160.06 65.25 159.95 65.27 159.83 65.3C159.78 65.31 159.73 65.32 159.69 65.33V65.27C159.69 65.1 159.68 64.91 159.67 64.72C159.66 64.54 159.65 64.36 159.65 64.2C160.1 64.18 160.95 64.16 161.79 64.13C162.53 64.11 163.3 64.08 163.93 64.06C164.05 64.05 164.19 64.05 164.33 64.05C164.85 64.05 165.45 64.04 165.52 63.54C165.6 63.14 165.54 62.58 165.49 62C165.46 61.67 165.43 61.34 165.42 61.03C165.37 60.37 165.26 59.47 165.07 58.91L165.05 58.85L165.01 58.8C164.8 58.52 164.49 58.51 164.3 58.5C164.27 58.5 164.24 58.5 164.19 58.49C164.06 58.48 163.96 58.48 163.89 58.47C163.8 58.46 163.74 58.46 163.68 58.46H163.63C162.6 58.54 161.45 58.6 160.32 58.65C158.12 58.75 156.04 58.85 154.78 59.14C154.39 59.25 154.13 59.42 154.13 59.85C154.13 59.87 154.13 59.88 154.13 59.9V59.91C154.13 59.91 154.13 60.31 154.13 60.4C154.16 61.89 154.16 63.3 154.16 64.66C154.17 68.55 154.17 71.91 154.74 75.19L154.75 75.23L154.79 75.32C154.86 75.48 155.02 75.67 155.36 75.7C155.5 75.71 155.76 75.71 156.2 75.71H157.62H157.94C158.73 75.7 165.19 75.27 166.11 75.17L166.28 75.15L166.39 75.02C166.63 74.73 166.57 74.38 166.53 74.09C166.54 74.02 166.52 73.94 166.52 73.85Z" fill="#D770A1"/>
<path d="M180.6 68.93C180.58 67.96 180.13 66.97 179.24 65.89L179.22 65.86L179.19 65.84C178.51 65.28 177.75 64.93 177 64.83C176.64 64.74 176.27 64.7 175.91 64.66C175.34 64.6 174.8 64.54 174.32 64.3C174.3 64.29 174.28 64.28 174.27 64.22C174.23 64.06 174.3 63.77 174.39 63.61C174.46 63.57 174.57 63.54 174.71 63.54C174.83 63.54 174.97 63.56 175.09 63.59L175.51 63.71C175.86 63.81 176.26 63.92 176.55 64.01C176.64 64.04 176.73 64.07 176.83 64.11C177.21 64.25 177.68 64.42 178.14 64.42C178.41 64.42 178.65 64.36 178.85 64.25L178.88 64.23L178.91 64.21C179.16 64 179.22 63.63 179.28 63.21L179.29 63.16C179.35 62.7 179.44 62.47 179.57 62.11C179.61 62.01 179.64 61.91 179.69 61.78C179.73 61.63 179.78 61.5 179.83 61.39C179.99 60.98 180.15 60.56 179.85 60L179.83 59.97C179.67 59.72 179.39 59.62 179.14 59.53L179.11 59.52C178.89 59.43 178.7 59.34 178.52 59.25C178.25 59.12 177.98 58.98 177.65 58.87C177.16 58.7 176.7 58.66 176.26 58.62C176.02 58.6 175.76 58.57 175.48 58.53L175.22 58.5C174.95 58.47 174.72 58.44 174.44 58.44C174.35 58.44 174.26 58.44 174.16 58.45C173.98 58.46 173.79 58.47 173.58 58.47C173.07 58.47 172.55 58.47 172.07 58.67C171.05 59.02 170 59.47 169.27 60.35L169.26 60.37L169.25 60.39C169.17 60.51 169.08 60.62 169 60.73C168.78 61.03 168.55 61.33 168.42 61.69C168.05 62.54 167.88 63.47 167.87 64.68C167.83 65.28 167.93 65.83 168.21 66.52L168.22 66.55L168.24 66.58C168.72 67.39 169.61 67.75 170.39 68.07L170.51 68.12L170.53 68.13C170.74 68.19 171.07 68.28 171.43 68.39C172.05 68.57 172.76 68.78 173.21 68.9C173.38 68.93 173.62 68.94 173.9 68.94C174.13 68.94 174.55 68.95 174.69 68.99C174.77 69.04 174.84 69.19 174.84 69.3C174.78 69.34 174.62 69.37 174.53 69.39C174.47 69.4 174.42 69.41 174.38 69.42C174.1 69.48 173.86 69.51 173.63 69.51C173.51 69.51 173.4 69.5 173.29 69.49C172.91 69.44 172.55 69.33 172.16 69.22C171.62 69.06 171.07 68.9 170.46 68.9C170.39 68.9 170.32 68.9 170.25 68.91C170.21 68.91 170.18 68.91 170.14 68.91C170.07 68.91 169.99 68.91 169.91 68.9C169.82 68.9 169.73 68.89 169.64 68.89C169.35 68.89 168.98 68.93 168.68 69.2L168.62 69.25L168.59 69.32C168.39 69.73 168.33 70.24 168.27 70.74C168.24 71 168.21 71.24 168.16 71.46L168.15 71.49C168.12 71.72 168.09 71.9 168.06 72.06C167.97 72.59 167.93 72.86 168.01 73.59C168.08 74.27 168.81 74.44 169.17 74.53C169.21 74.54 169.3 74.56 169.3 74.56H169.32C169.71 74.62 170.87 74.75 171.26 74.8H171.31H171.37C171.7 74.8 172.12 74.84 172.48 74.88C172.75 74.91 173 74.94 173.21 74.94H173.23H173.25C173.46 74.93 173.73 74.92 174.02 74.92C174.62 74.91 175.24 74.9 175.69 74.81C176.74 74.54 177.82 74.21 178.66 73.68L178.69 73.66C178.8 73.58 178.92 73.5 179.05 73.41C179.37 73.2 179.74 72.95 179.99 72.63C180.73 71.69 180.68 70.46 180.64 69.37C180.61 69.2 180.61 69.06 180.6 68.93Z" fill="#D770A1"/>
<path d="M196.87 61.75C196.89 61.17 196.9 60.61 196.92 60.14C196.92 60.03 196.93 59.92 196.94 59.81C196.97 59.44 197.04 58.68 196.07 58.58C195.86 58.56 195.64 58.54 195.43 58.51C195.08 58.47 194.72 58.42 194.37 58.42C194.3 58.42 194.23 58.42 194.18 58.43C193.2 58.43 191.52 58.45 190.02 58.47C188.63 58.48 187.39 58.5 186.98 58.5H186.89C186.15 58.45 185.12 58.38 184.23 58.31C184.23 58.31 183.58 58.26 183.52 58.26C183.42 58.25 183.35 58.25 183.28 58.25C183.18 58.25 183.08 58.26 182.93 58.28L182.81 58.3C182.53 58.34 182.18 58.4 181.96 58.63C181.77 58.83 181.67 59.09 181.63 59.44C181.61 59.86 181.49 61.92 181.45 62.78C181.45 62.91 181.44 63.02 181.43 63.1C181.41 63.32 181.39 63.53 181.5 63.88L181.51 63.9L181.52 63.92C181.71 64.34 182.14 64.37 182.39 64.39H182.43C182.59 64.41 182.71 64.41 182.81 64.41C183 64.41 183.16 64.39 183.42 64.35C183.85 64.27 184.26 64.24 184.75 64.24C184.93 64.24 185.11 64.24 185.3 64.25C185.3 64.28 185.3 64.3 185.3 64.32C185.29 64.42 185.29 64.51 185.29 64.61C185.29 65.14 185.23 65.61 185.17 66.11C185.13 66.38 185.1 66.66 185.07 66.98C185.06 67.14 185.04 67.54 185.01 68.03C184.96 68.89 184.9 70.03 184.88 70.63V70.66C184.89 70.87 184.89 71.21 184.9 71.6C184.91 72.31 184.93 73.18 184.96 73.65V73.67L184.97 73.72C185 73.98 185.16 74.58 186 74.58C186.22 74.58 186.45 74.54 186.67 74.5C186.85 74.47 187.02 74.44 187.14 74.44C187.17 74.44 187.19 74.44 187.21 74.44H187.24H187.27C187.83 74.45 188.97 74.46 189.53 74.48C189.57 74.48 189.61 74.49 189.66 74.5C189.84 74.53 190.09 74.56 190.34 74.56C191.13 74.56 191.39 74.19 191.47 73.88L191.48 73.84V73.79C191.49 73.45 191.54 70.58 191.58 68.05C191.6 66.73 191.62 65.52 191.64 64.88C191.78 64.91 191.93 64.94 192.08 64.96C192.31 64.99 192.56 65 192.84 65C193.12 65 193.39 64.99 193.66 64.97C193.93 64.96 194.2 64.94 194.47 64.94C194.62 64.94 194.77 64.94 194.92 64.95H194.95H194.98C195 64.95 195.03 64.95 195.06 64.95C195.15 64.95 195.24 64.96 195.35 64.96C195.48 64.97 195.61 64.98 195.74 64.98C196.49 64.98 196.69 64.64 196.73 64.33C196.82 63.67 196.85 62.69 196.87 61.75Z" fill="#D770A1"/>
<path d="M204.24 59.17C204.02 59.04 203.8 59.03 203.63 59.02C203.58 59.02 203.53 59.01 203.47 59.01L199.66 58.67C199.62 58.67 199.58 58.66 199.55 58.66C199.32 58.66 199.13 58.79 199.04 59.04C198.99 59.21 198.94 59.42 198.91 59.61C198.88 59.74 198.86 59.86 198.83 59.95C198.8 60.09 198.75 60.24 198.7 60.4C198.63 60.62 198.57 60.85 198.52 61.07C198.09 63.05 197.87 64.89 197.56 67.44C197.46 68.29 197.34 69.21 197.21 70.24C197.06 71.35 197 71.81 196.97 73.01L196.92 74.32C196.92 74.39 196.92 74.45 196.91 74.5C196.9 74.67 196.88 74.92 197.11 75.09L197.13 75.1L197.23 75.16L197.28 75.17C197.95 75.35 199.14 75.39 200.29 75.42C200.94 75.44 201.55 75.46 202 75.5C202.04 75.5 202.07 75.51 202.11 75.51C202.47 75.51 202.72 75.31 202.81 74.95L202.82 74.93L203.4 70.33C203.9 66.41 204.53 61.38 204.57 61.07C204.58 60.88 204.6 60.58 204.61 60.37C204.65 60.09 204.73 59.38 204.24 59.17Z" fill="#D770A1"/>
<path d="M223.14 61.54C223.2 61.35 223.15 61.13 223.02 60.95C222.9 60.79 222.74 60.7 222.55 60.69L217.4 60.24C217.33 60.23 217.27 60.22 217.21 60.22C216.59 60.22 216.35 60.75 216.27 60.94C216.06 61.37 215.82 61.86 215.57 62.36C215.21 63.1 214.84 63.85 214.55 64.44C214.4 64.7 213.65 65.99 213.11 66.92C213.02 66.3 212.94 65.7 212.9 65.05C212.76 64.01 212.58 62.89 212.41 61.8C212.34 61.37 212.27 60.94 212.2 60.51C212.14 60.25 212.04 59.99 211.92 59.77C211.62 59.31 211.03 59.16 210.79 59.11H210.77L209.97 59.03C209.23 58.95 208.21 58.85 207.67 58.8H207.65H207.59C207.49 58.8 207.38 58.79 207.25 58.79C207.1 58.78 206.93 58.77 206.77 58.77C206.43 58.77 205.95 58.81 205.68 59.15C205.5 59.37 205.45 59.67 205.53 60.03C205.69 60.72 205.86 61.44 206.04 62.16C206.51 64.13 207 66.17 207.2 67.58V67.61L207.21 67.64C207.86 69.8 208.2 71.6 208.72 74.32L208.82 74.85C208.84 74.97 208.86 75.07 208.88 75.15C208.92 75.34 208.94 75.41 208.91 75.55L208.9 75.61L208.92 75.72C209.01 76.25 209.62 76.3 209.92 76.32H209.95C210.29 76.37 210.6 76.38 210.83 76.38C210.95 76.38 211.06 76.38 211.18 76.38C211.29 76.38 211.4 76.38 211.51 76.38C211.73 76.38 211.91 76.39 212.08 76.4C212.52 76.44 213.36 76.51 213.72 76.54C213.78 76.55 213.85 76.55 213.91 76.55C214.37 76.55 214.77 76.29 214.94 75.89C215.14 75.57 215.32 75.3 215.49 75.05C216.11 74.11 216.55 73.43 217.46 71.73L223.11 61.58L223.14 61.54Z" fill="#D770A1"/>
<path d="M233.75 75.85C233.62 74.91 233.47 73.79 233.29 72.39C233.05 70.63 232.8 68.71 232.57 67.02C232.09 63.38 231.95 62.38 231.92 62.25L231.86 62.01L231.62 61.96C230.33 61.66 228.67 61.49 227.21 61.34C226.82 61.3 226.46 61.26 226.11 61.22C226.07 61.22 226.04 61.21 226.02 61.21C225.96 61.2 225.91 61.2 225.87 61.2C225.83 61.2 225.78 61.2 225.73 61.21L225.58 61.24L225.49 61.36C225.44 61.42 225.39 61.51 225.09 62.1C224.95 62.38 224.77 62.73 224.55 63.15C223.84 64.52 222.86 66.41 221.88 68.32C220.04 71.89 218.13 75.59 217.83 76.07L217.79 76.14L217.78 76.22C217.77 76.3 217.74 76.53 217.89 76.73C218.05 76.94 218.29 76.96 218.52 76.99L218.6 77C219.03 77.06 219.82 77.15 220.65 77.26C221.61 77.38 222.63 77.51 223.24 77.59C223.29 77.6 223.33 77.61 223.38 77.61C223.8 77.61 223.91 77.17 223.96 76.96C223.97 76.92 223.98 76.88 223.99 76.85C224.13 76.54 224.5 75.73 224.86 74.97C225.09 74.48 225.31 74 225.46 73.68C225.48 73.65 225.5 73.61 225.51 73.58C225.86 73.62 226.53 73.71 227.11 73.78C227.38 73.82 227.64 73.85 227.83 73.87C227.82 74.02 227.8 74.2 227.79 74.38C227.77 74.66 227.74 74.98 227.71 75.31C227.68 75.66 227.65 76 227.62 76.3C227.58 76.8 227.54 77.17 227.54 77.31C227.52 77.61 227.7 77.89 227.88 78.05L227.9 78.06L228 78.14L228.07 78.16C228.44 78.27 229.91 78.48 231.8 78.76C232.53 78.87 233.17 78.96 233.37 79L233.41 79.01H233.45C233.61 79 233.75 78.93 233.84 78.8C233.98 78.6 234.05 78.07 234.04 77.9C233.94 77.27 233.85 76.62 233.75 75.85ZM227.97 66.93C228.02 67.38 228.02 67.86 228.02 68.32C228.02 68.53 228.02 68.75 228.03 68.97C228.01 68.97 227.99 68.97 227.97 68.97C227.78 68.96 227.59 68.94 227.41 68.94C227.33 68.94 227.26 68.94 227.19 68.95C227.15 68.94 227.09 68.94 227.03 68.93C227.26 68.42 227.65 67.6 227.97 66.93Z" fill="#D770A1"/>
<path d="M247.1 74.89L247 74.86C246.28 74.63 245.36 74.47 244.47 74.31C243.9 74.21 243.37 74.11 242.93 74.01C242.89 74 242.85 73.99 242.81 73.98L242.96 73.08C243.16 72 243.33 70.97 243.49 69.96C243.79 68.1 244.05 66.49 244.4 65.49C244.51 65.21 244.61 64.88 244.47 64.58C244.35 64.3 244.08 64.16 243.89 64.09C243.34 63.83 242.74 63.79 242.17 63.76C241.87 63.74 241.59 63.73 241.33 63.68C241.23 63.66 241.11 63.64 240.99 63.62C240.69 63.57 240.36 63.52 240.09 63.44C240.05 63.43 239.93 63.39 239.83 63.35C239.46 63.21 239.15 63.11 238.9 63.11C238.79 63.11 238.7 63.13 238.62 63.17C238.4 63.27 238.32 63.46 238.29 63.53L238.28 63.56L238.27 63.59C238.2 63.88 237.81 65.57 237.43 67.19C237.2 68.17 236.98 69.13 236.84 69.75C236.63 70.61 236.26 72.84 235.9 75C235.72 76.08 235.54 77.15 235.38 78.03V78.05C235.38 78.05 235.37 78.14 235.37 78.19C235.33 78.55 235.24 79.31 235.87 79.49C236.07 79.57 236.36 79.62 236.63 79.68C236.79 79.71 236.94 79.74 237.07 79.78L237.11 79.79C237.4 79.87 238.13 80.06 238.51 80.15L238.55 80.16C238.97 80.22 239.42 80.23 239.84 80.23C240.09 80.23 240.33 80.23 240.57 80.25H240.59H240.65C240.86 80.25 240.98 80.29 241.15 80.35C241.3 80.4 241.47 80.46 241.7 80.49C241.94 80.54 242.21 80.59 242.49 80.65C243.19 80.8 243.92 80.95 244.49 80.99C244.81 81.03 245.08 81.07 245.36 81.07C245.65 81.07 245.93 81.03 246.21 80.94C246.44 80.86 246.59 80.73 246.68 80.54L246.69 80.52L246.7 80.5C246.74 80.38 246.77 80.22 246.8 79.98C246.82 79.85 246.84 79.69 246.87 79.51C246.87 79.51 247.41 75.95 247.42 75.91C247.47 75.63 247.52 75.32 247.18 74.98L247.1 74.89Z" fill="#D770A1"/>
<path d="M256.83 68.67C256.31 68.18 255.6 67.89 254.83 67.84C254.76 67.84 254.69 67.83 254.62 67.83C253.22 67.83 252.25 68.84 252.14 70.4C252.04 71.89 252.8 73.46 254.45 73.57C254.51 73.57 254.56 73.58 254.62 73.58C256.12 73.58 257.52 72.22 257.63 70.68C257.67 69.91 257.39 69.2 256.83 68.67Z" fill="#D770A1"/>
<path d="M253.02 76.69C252.94 76.68 252.86 76.68 252.78 76.68C251.29 76.68 250.26 77.63 250.17 79.1C250.07 80.66 251.05 82.02 252.57 82.41C252.76 82.46 252.96 82.48 253.15 82.48C254.58 82.48 255.42 81.11 255.51 79.75C255.62 78.11 254.55 76.8 253.02 76.69Z" fill="#D770A1"/>
<path d="M297.45 225.16C297.49 215.27 298.55 208.42 301.42 199.27C304.06 190.86 307.66 182.74 312.12 175.13L312.98 173.67L284.84 173.94L282.35 243.59L325.82 248.36L319.29 214.46L297.45 225.16Z" fill="#D770A1"/>
<path d="M267.8 196.2L242.88 208.6L245.52 174.34L232.42 175.88L225.23 140.13L247.61 158.52L264.15 140.62L239.66 131.75C242.21 131.09 244.51 130.18 245.48 129.69C250.41 127.21 253.88 124.47 256.09 121.3C258.76 117.47 259.57 112.97 258.5 107.91C257.17 101.61 253.69 96.77 248.17 93.53C243.62 90.86 237.63 89.32 230.86 89.1C230.05 89.07 229.22 89.06 228.4 89.06C225.09 89.06 221.8 89.29 218.6 89.73C216.23 90.06 213.83 90.87 213.73 90.91L213.11 91.12L213.08 91.77C212.43 104.63 211.77 117.63 211.11 130.39C210.28 146.38 209.43 162.6 208.58 178.58L208.53 179.45L228.68 182.6C228.25 194.27 227.34 206.04 225.97 217.58C224.43 230.61 222.26 243.73 219.53 256.57L219.29 257.7H219.31V257.72L243.54 258.39V258.37H243.56L242.73 223.99L267.81 253.3L277.33 232.34L248.26 218L281.89 210.02L281.88 210.01L281.93 210L267.8 196.2ZM227.47 108.29C228.01 108.22 228.86 108.15 229.81 108.15C232.2 108.15 235.26 108.62 236.27 110.83C236.82 112.04 236.78 113.25 236.15 114.24C235.06 115.94 232.39 116.87 228.63 116.87C227.96 116.87 227.25 116.84 226.5 116.78L227.47 108.29Z" fill="#D770A1"/>
<path d="M351.59 108.38C351.76 111.04 351.76 113.75 351.58 116.41L351.4 119.18L364.57 104.49L350.76 101.39L350.98 102.78C351.27 104.64 351.48 106.52 351.59 108.38Z" fill="#D770A1"/>
<path d="M200.23 253.52L201.28 251.06C203.39 246.15 206.08 241.52 209.28 237.32C210.82 235.29 212.51 233.33 214.28 231.5L216.72 228.97L194.8 234.99L200.23 253.52Z" fill="#D770A1"/>
<path d="M175.17 199.02L175.18 199.35L199.46 202.18L199.27 200.93C198.3 194.68 196.92 188.44 195.15 182.37C193.27 175.94 190.93 169.58 188.18 163.45C191.95 162.74 198.27 161.03 201.78 157.18C204.61 154.08 205.62 150.86 205.95 149.81C206.85 146.95 207.1 142.86 206.59 139.14C206.26 136.68 205.84 133.62 203.62 130.79C202.95 129.93 201.37 128.27 198.34 126.76C195.31 125.24 191.3 124.51 186.1 124.51C181.62 124.51 176.89 125.05 172.72 125.53L172.18 125.59C168.42 126.02 166.05 126.64 162.76 127.5L160.3 128.14L160.52 128.57C160.65 128.84 173.96 154.76 175.17 199.02ZM184.14 139.84C184.24 139.84 184.34 139.84 184.44 139.84C186.32 139.84 187.85 140.36 188.75 141.31C189.24 141.83 189.5 142.44 189.46 143.02C189.37 144.59 186.98 146.9 183.11 148.16L181.24 140.37C182.25 139.97 183.14 139.87 184.14 139.84Z" fill="#D770A1"/>
<path d="M165.31 171.88C166.88 166.38 166.5 160.63 164.25 155.7C160.26 146.96 151.74 144.05 143.5 141.23C138.9 139.66 134.15 138.03 130.21 135.42C126.96 133.26 125 130.27 124.98 127.4C124.96 125.14 126.06 123.2 126.98 121.97C128.61 119.8 130.92 117.83 133.48 116.43C137.13 114.43 141.63 113.38 146.47 113.38C147.44 113.38 148.43 113.42 149.41 113.51C150.29 113.59 152.49 113.81 153.91 114.19L155.43 114.6L150.25 88.27L149.43 88.28C146.72 88.31 142.99 88.66 142.55 88.71C138.04 89.21 133.67 90.13 129.57 91.43C114.18 96.31 102.47 107.21 98.2499 120.57C95.9999 127.69 96.8299 135.06 100.47 140.27C102.65 143.39 105.91 145.99 110.15 147.99C114.26 149.93 118.83 151.01 123.24 152.05C129.01 153.42 134.97 154.83 139.9 158.17C143.26 160.45 144.59 163.89 143.46 167.39C142.64 169.95 140.55 172.24 137.74 173.68C135.34 174.9 132.41 175.55 129.02 175.6C128.77 175.6 128.52 175.61 128.26 175.61C122.81 175.61 117.7 174.68 113.48 172.93C111.17 171.97 108.88 170.75 106.68 169.3C105.96 168.82 103.22 166.91 102.43 166.13L100.36 164.1L104.93 196.79L105.61 196.93C106.56 197.12 110.65 197.74 111.07 197.79C113.48 198.05 115.88 198.19 118.2 198.19C129.29 198.19 139.96 195.79 148.24 191.43C156.85 186.85 163.07 179.74 165.31 171.88Z" fill="#D770A1"/>
<path d="M219.56 222.15L219.62 221.86C219.63 221.81 220.69 216.56 220.83 210.75L220.84 210.35L220.44 210.36C217.13 210.47 213.82 210.52 210.62 210.52C171.58 210.52 153.49 202.51 153.31 202.43L152.71 202.16L156.09 239.36L157.34 238.74C168.91 233.02 181.11 228.67 193.6 225.84C200.55 224.26 207.68 223.13 214.78 222.48L219.56 222.15Z" fill="#D770A1"/>
<path d="M263.63 163.95L263.04 167.13L282.88 167.39L284.4 110.26L265.85 104.85L266.21 108.75C266.96 116.95 267.21 125.28 266.95 133.51C266.61 143.69 265.5 153.94 263.63 163.95Z" fill="#D770A1"/>
<path d="M265.8 93.21L264.57 98.3L269.79 97.87L271.78 102.7L275.74 99.29L280.2 102.03L281.4 96.94L286.61 96.54L284.59 91.71L288.57 88.32L284.1 85.61L285.33 80.52L280.12 80.96L278.12 76.12L274.16 79.53L269.71 76.79L268.51 81.89L263.29 82.29L265.31 87.11L261.33 90.5L265.8 93.21Z" fill="#D770A1"/>
<path d="M377.57 153.1L373.9 159.13L379.74 160.61C379.01 162.05 377.51 164.29 374.77 165.66C373.3 166.39 371.71 166.76 370.04 166.76C367.84 166.76 366 166.11 365.11 165.73C361.17 164.04 359.38 160.68 358.79 159.31C358.12 157.76 357.16 154.62 358.25 151.03C359.27 147.65 361.58 145.73 362.45 145C365.87 142.15 369.96 141.55 372.79 141.55C374.14 141.55 375.48 141.68 376.78 141.94C379.07 142.39 380.9 143.04 382.25 143.86L383.4 144.57L387.57 125.79L386.88 125.46C383.72 123.96 380.08 122.84 376.07 122.16C374.24 121.85 372.38 121.69 370.54 121.69C362.79 121.69 355.37 124.45 349.64 129.45C347.52 131.3 345.69 133.43 344.17 135.79C344.6 125.68 344.06 115.5 342.56 105.52L342.44 104.71L321.48 104.57L321.82 105.79C323.79 112.95 324.88 120.32 325.06 127.71C325.17 132.15 324.94 136.64 324.39 141.08L306.12 101.23L289.41 102.13L288.07 155.93L305.55 160.48L307.47 134.62L320.4 175.86L337.21 175.93L337.42 175.25C338.69 171.08 339.81 166.79 340.74 162.47C342.2 167.15 344.71 171.3 347.89 174.29C351.48 177.66 355.44 180.03 360.27 181.68L315.73 193.25L316.29 194.32C321.49 204.31 325.28 214.95 327.57 225.97C329.78 236.63 330.56 247.56 329.88 258.43L329.79 259.8L374.66 246.63L374.93 225.28L348.18 232.21L347.51 227.82L363.65 224.91L360.73 214.18L345.62 218.27L343.21 207.39L368.92 202.69L367.28 183.47C367.73 183.55 368.16 183.63 368.57 183.69L368.62 183.7H368.67C368.67 183.7 368.93 183.72 369.41 183.72C372.74 183.72 389.62 182.89 396.52 166.54L402.25 169.1L406.05 155.51L377.57 153.1Z" fill="#D770A1"/>
<path d="M383.2 204.79L378.78 204.61L378.68 200.18L376.07 196.61L379.47 193.78L380.64 189.51L384.97 190.41L389.04 188.66L391.04 192.6L394.94 194.69L393.11 198.71L393.91 203.06L389.62 204.14L386.71 207.48L383.2 204.79Z" fill="#D770A1"/>
<path d="M172.09 114.68L166.68 114.03L165.15 108.8L161.79 104.52L164.39 99.74L165.05 94.34L170.27 92.8L174.55 89.44L179.33 92.05L184.74 92.7L186.27 97.92L189.63 102.21L187.03 106.99L186.37 112.39L181.15 113.93L176.87 117.29L172.09 114.68Z" fill="#D770A1"/>
<path d="M282.74 240.44L285.21 171.51L312.31 171.25L311.8 172.13C307.32 179.77 303.71 187.92 301.06 196.35C298.14 205.66 297.07 212.66 297.07 222.97L319 212.21L325.34 245.11L282.74 240.44Z" fill="white"/>
<path d="M281.18 206.96L267.73 193.85L242.45 206.43L245.11 171.96L229.27 173.82L229.26 174.32C228.93 187.79 227.97 201.41 226.38 214.79C224.83 227.84 222.67 240.97 219.94 253.82L219.8 254.5L243.2 255.15L242.35 220.08L267.74 249.76L276.88 229.64L247.22 215.01L281.18 206.96Z" fill="white"/>
<path d="M351.68 113.51C351.87 110.63 351.87 107.7 351.69 104.82C351.56 102.8 351.34 100.77 351.03 98.77L350.89 97.87L364.46 100.92L351.57 115.3L351.68 113.51Z" fill="white"/>
<path d="M195.29 232.45L215.48 226.9L214.01 228.42C212.22 230.27 210.53 232.24 208.98 234.28C205.76 238.51 203.05 243.17 200.94 248.11L200.31 249.59L195.29 232.45Z" fill="white"/>
<path d="M160.85 125.6L161.61 125.4C162.04 125.29 162.45 125.18 162.85 125.08C166.12 124.22 168.49 123.6 172.22 123.18L172.76 123.12C176.92 122.64 181.64 122.11 186.09 122.11C191.23 122.11 195.18 122.83 198.16 124.32C201.12 125.8 202.65 127.41 203.31 128.24C205.47 130.99 205.88 134 206.21 136.41C206.71 140.08 206.46 144.1 205.58 146.91C205.25 147.95 204.26 151.1 201.49 154.14C197.86 158.11 191.06 159.77 187.62 160.38C190.45 166.62 192.86 173.12 194.77 179.69C196.53 185.74 197.92 191.97 198.88 198.2L199 198.95L175.55 196.21C174.33 151.35 160.85 125.6 160.85 125.6ZM182.84 145.84C187.12 144.55 189.75 142.03 189.85 140.23C189.89 139.54 189.6 138.83 189.03 138.23C188.06 137.2 186.43 136.64 184.44 136.64C184.34 136.64 184.23 136.64 184.13 136.64C182.99 136.67 181.97 136.81 180.8 137.33L182.84 145.84Z" fill="white"/>
<path d="M330.26 255.66C330.94 244.75 330.16 233.79 327.94 223.09C325.65 212.04 321.84 201.36 316.63 191.34L316.3 190.7L366.65 177.63L368.53 199.59L342.77 204.3L345.35 215.96L360.48 211.86L363.19 221.81L347.09 224.71L347.88 229.89L374.55 222.98L374.29 243.55L330.22 256.49L330.26 255.66Z" fill="white"/>
<path d="M118.19 194.95C115.88 194.95 113.5 194.82 111.1 194.56C110.68 194.51 106.62 193.9 105.67 193.71L105.25 193.63L100.87 162.33L102.13 163.57C102.95 164.37 105.68 166.29 106.43 166.78C108.65 168.24 110.96 169.48 113.29 170.45C118.16 172.48 123.69 173.24 128.98 173.16C132.05 173.11 135.16 172.58 137.87 171.2C140.58 169.82 142.87 167.52 143.78 164.69C145.01 160.86 143.35 157.26 140.07 155.03C131.32 149.09 119.73 149.27 110.27 144.82C106.53 143.06 103.07 140.56 100.74 137.23C96.8499 131.66 96.5399 124.29 98.5699 117.86C103.03 103.74 115.43 93.48 129.64 88.97C133.83 87.64 138.17 86.75 142.55 86.27C142.98 86.22 146.71 85.87 149.39 85.84L149.89 85.83L154.89 111.25L153.96 111C152.51 110.61 150.29 110.39 149.4 110.31C143.92 109.83 138.09 110.64 133.26 113.28C130.74 114.66 128.34 116.66 126.63 118.93C125.39 120.58 124.53 122.55 124.55 124.59C124.58 128 127.05 130.99 129.96 132.92C141.05 140.28 157.75 139.64 163.87 153.05C166.13 158.01 166.4 163.74 164.91 168.97C162.53 177.3 155.89 184.1 148.02 188.24C139.16 192.92 128.28 194.95 118.19 194.95Z" fill="white"/>
<path d="M172.2 111.23L166.97 110.59L165.48 105.53L162.22 101.38L164.75 96.76L165.38 91.52L170.44 90.03L174.59 86.78L179.22 89.3L184.45 89.94L185.94 94.99L189.2 99.14L186.67 103.77L186.04 109.01L180.98 110.5L176.83 113.75L172.2 111.23Z" fill="white"/>
<path d="M208.95 176.31L208.98 175.79C209.83 159.81 210.68 143.6 211.51 127.59C212.17 114.78 212.83 101.79 213.48 88.97L213.5 88.58L213.87 88.45C213.97 88.42 216.35 87.61 218.67 87.29C221.85 86.85 225.13 86.62 228.42 86.62C229.23 86.62 230.05 86.63 230.86 86.66C237.57 86.89 243.49 88.4 247.99 91.04C253.42 94.23 256.83 98.98 258.14 105.17C259.19 110.12 258.4 114.52 255.79 118.26C253.61 121.38 250.19 124.08 245.32 126.53C244.13 127.13 241.21 128.24 238.34 128.85L263.49 137.96L247.58 155.17L224.65 136.33L233.45 180.12L208.95 176.31ZM226.08 114.32C226.97 114.4 227.83 114.45 228.63 114.45C232.52 114.45 235.31 113.45 236.47 111.65C237.18 110.55 237.23 109.21 236.62 107.88C235.52 105.48 232.31 104.97 229.81 104.97C228.65 104.97 227.65 105.08 227.12 105.16L226.08 114.32Z" fill="white"/>
<path d="M320.68 172.68L307.24 129.8L305.21 157.2L288.46 152.84L289.78 99.69L305.87 98.83L324.58 139.65C325.26 134.77 325.54 129.82 325.43 124.91C325.25 117.49 324.16 110.09 322.18 102.9L321.98 102.16L342.1 102.3L342.17 102.79C343.9 114.27 344.35 125.95 343.52 137.53C342.68 149.32 340.5 161.03 337.04 172.34L336.91 172.75L320.68 172.68Z" fill="white"/>
<path d="M153.14 199.97C153.14 199.97 173.95 209.43 220.44 207.93C220.3 213.77 219.24 218.97 219.24 218.97L214.74 219.28C207.61 219.93 200.46 221.07 193.5 222.65C180.98 225.49 168.75 229.85 157.15 235.58L156.4 235.95L153.14 199.97Z" fill="white"/>
<path d="M263.49 163.95L264 161.22C265.88 151.19 266.99 140.92 267.32 130.71C267.58 122.47 267.33 114.12 266.58 105.9L266.27 102.56L283.99 107.73L282.49 164.19L263.49 163.95Z" fill="white"/>
<path d="M270.03 94.66L265.07 95.07L266.24 90.23L261.98 87.64L265.78 84.42L263.85 79.82L268.82 79.44L269.96 74.59L274.2 77.2L277.97 73.95L279.87 78.56L284.83 78.14L283.66 82.98L287.92 85.57L284.13 88.8L286.05 93.39L281.09 93.77L279.95 98.62L275.7 96.01L271.93 99.26L270.03 94.66Z" fill="white"/>
<path d="M369.43 180.55C368.97 180.55 368.72 180.54 368.71 180.54H368.68H368.65C359.81 179.11 353.49 176.24 348.15 171.22C342.92 166.3 339.74 158.49 339.66 150.33C339.65 149.33 339.69 148.29 339.77 147.26C340.43 139.3 344.02 132.09 349.89 126.96C355.54 122.02 362.88 119.29 370.54 119.29C372.36 119.29 374.2 119.45 376 119.76C379.98 120.44 383.58 121.54 386.71 123.03L387.13 123.23L383.15 141.19L382.46 140.76C381.08 139.91 379.2 139.25 376.87 138.79C375.55 138.53 374.18 138.4 372.8 138.4C369.91 138.4 365.72 139.01 362.21 141.94C361.32 142.68 358.95 144.66 357.89 148.15C356.77 151.86 357.76 155.09 358.44 156.69C359.05 158.1 360.9 161.56 364.96 163.31C365.88 163.71 367.77 164.37 370.04 164.37C371.78 164.37 373.43 163.99 374.95 163.23C378.05 161.68 379.61 159.08 380.29 157.58L374.5 156.11L377.78 150.72L405.58 153.09L402.02 165.8L396.34 163.26C389.63 179.71 372.77 180.55 369.43 180.55Z" fill="white"/>
<path d="M386.66 204.14L383.33 201.59L379.13 201.42L379.05 197.22L376.57 193.83L379.79 191.15L380.9 187.1L385.01 187.95L388.86 186.29L390.76 190.03L394.47 192.01L392.72 195.83L393.49 199.95L389.41 200.97L386.66 204.14Z" fill="white"/>
<path d="M98.78 91.74C98.33 91.93 97.16 92.42 96.76 92.56C96.41 92.65 95.75 92.9 95.45 92.49C94.86 91.67 94.89 91.5 94.48 90.44C94.27 89.73 93.78 88.87 93.74 88.19C93.9 87.69 94.53 87.54 94.95 87.26C95.94 86.62 97.12 86.63 98.21 86.2C98.64 86.03 99.04 85.76 99.39 85.45C99.63 85.23 100 84.99 99.94 84.64C99.83 84.33 99.46 84.04 99.12 84.05C98.74 84.1 97.85 84.7 97.5 84.81C96.73 85.02 95.08 85.37 94.44 85.53C93.49 85.65 92.48 85.79 91.65 85.32C91.11 84.89 90.71 84.45 90.42 83.85C89.88 82.87 89.46 81.87 89.35 80.74C89.26 80.19 89.41 79.64 89.46 79.07C89.68 77.91 90.43 76.94 91.21 76.07C91.65 75.5 92.46 75.19 93.06 74.79C93.51 74.5 93.82 74.4 94.35 74.18C95.17 73.89 95.78 73.49 96.6 73.34C97.22 73.21 97.73 73.26 98.39 73.18C98.65 73.14 98.91 73.09 99.09 73.18C99.66 73.55 99.55 74.03 99.71 74.75C99.82 75.4 99.83 75.74 100.1 76.41C100.24 76.79 100.38 77.14 100.3 77.33C99.91 77.98 98.81 78.03 98.19 78.16C97.69 78.27 96.94 78.45 96.49 78.56C96.09 78.66 95.59 78.9 95.46 79.31C95.41 79.74 95.65 80.64 96.26 80.59C97.34 80.56 98.3 79.89 99.32 79.61C100.11 79.29 100.99 79.26 101.83 79.41C102.9 79.83 104.02 80.45 104.63 81.48C105.28 82.56 106.19 83.82 105.98 85.16C105.9 85.71 105.51 86.28 105.29 86.78C104.78 87.73 103.89 88.64 103.06 89.43C102.54 89.88 101.4 90.46 100.78 90.85C100.28 91.1 99.42 91.41 98.83 91.75L98.78 91.74Z" fill="#F6F295"/>
<path d="M110.43 84.16C109.99 84.28 109.02 84.69 108.69 84.74C108.21 84.8 107.98 84.06 107.87 83.68C107.66 82.92 106.53 78.91 106.05 77.19C105.94 76.77 104.17 71.87 103.85 70.94C103.79 70.78 103.82 70.61 103.95 70.47C104.54 69.87 105.28 69.79 106.1 69.46C107.31 69.1 108.98 68.58 109.96 68.25C110.27 68.18 110.5 68.51 110.74 68.68C110.89 68.81 111.31 69.22 111.6 69.48C112.02 69.91 112.63 70.37 113.09 70.74C113.6 71.2 114.24 71.8 114.89 72.41C115.16 72.63 115.51 73.04 115.72 73.13C115.73 73.13 115.74 73.12 115.74 73.1C115.6 72.53 115.09 71.25 114.83 70.46C114.55 69.69 114.15 68.2 113.88 67.26C113.64 66.67 114.4 66.52 114.81 66.43C115.03 66.36 115.47 66.21 115.81 66.09C116.7 65.81 117.38 65.32 118.32 65.03C118.75 64.85 119.14 64.78 119.17 65.27C119.28 66.14 119.64 67.13 119.84 68.02C120.05 68.73 120.09 69.17 120.22 69.88C120.5 70.91 120.95 72.07 121.29 73.15C121.87 74.64 122.42 77.22 122.86 78.93C122.87 79.04 122.85 79.1 122.76 79.17C122.52 79.33 122.09 79.46 121.71 79.7C120.6 80.33 119.24 80.51 118.23 81.26C117.97 81.48 117.5 81.84 117.2 81.58C116.88 81.31 116.48 80.94 116.09 80.59C114.98 79.57 114.17 78.93 113.25 77.82C112.29 76.83 111.66 75.86 110.97 74.97C111.04 75.27 113.2 82.42 113.41 83.26C113.34 83.54 112.97 83.57 112.62 83.72C111.96 84.03 111.17 84.09 110.49 84.18L110.43 84.16Z" fill="#F6F295"/>
<path d="M128.8 76.76C128.12 76.53 127.7 76.22 127.09 75.77C126.65 75.45 126.48 75.34 126.03 74.91C125.34 74.32 124.8 73.77 124.6 72.96C124.25 71.93 123.72 70.5 123.41 69.53C123.23 68.61 122.75 66.49 122.56 65.46C122.54 65.08 122.43 63.66 122.4 63.23C122.32 62.62 122.85 62.63 123.44 62.43C124.37 62.14 125.72 61.72 126.06 61.62C126.53 61.52 127.39 61.48 127.72 61.76C127.9 61.95 127.83 62.11 127.89 62.53C127.99 63.57 128.13 65.08 128.24 66.1C128.5 67.63 128.91 69.28 129.43 71.03C129.62 71.67 130.03 72.47 130.82 72.38C131.58 72.26 132.62 72.01 132.7 71.09C132.76 70.68 132.6 69.96 132.54 69.41C132.46 68.89 132.44 68.4 132.29 67.95C131.94 66.69 130.58 61.9 130.42 61.28C130.39 60.93 130.94 60.81 131.23 60.77C131.77 60.69 133.96 60.39 134.59 60.3C134.78 60.28 134.92 60.3 135.12 60.3C135.41 60.31 135.82 60.19 135.96 60.31C136.08 60.4 136.15 60.76 136.29 61.18C136.68 62.31 136.93 63.41 137.19 64.45C137.35 65.48 137.56 67 137.73 68.09C137.99 69.74 137.84 71.27 137.23 72.94C136.86 74.01 136.34 75.15 135.43 75.76C135 76.02 134.7 76.33 134.17 76.43C133.4 76.6 132.8 76.84 132.05 76.9C131.13 76.98 129.61 76.85 128.85 76.79L128.8 76.76Z" fill="#F6F295"/>
<path d="M141.08 69.47C140.7 65.63 140.02 60.74 140.06 58.47C140.48 58.26 147.16 57.65 149.45 57.34C150.6 57.24 151.36 57.06 151.5 57.14C151.58 57.71 151.77 58.94 151.83 59.56C151.85 59.88 151.97 61.46 152.01 61.96C152.04 62.19 151.79 62.25 151.61 62.28C151.04 62.38 146.86 62.88 146.32 63.01C146.3 63.28 146.6 64.77 146.66 65.23C146.67 65.25 146.69 65.29 146.7 65.31C146.8 65.41 146.98 65.29 147.26 65.28C147.4 65.26 147.61 65.24 147.83 65.22C148.52 65.21 148.95 64.91 149.4 65.33C149.45 65.4 149.49 65.48 149.5 65.56C149.56 65.98 149.62 66.65 149.68 67.18C149.71 67.68 149.83 68.18 149.81 68.64C149.72 68.87 149.51 68.98 149.2 69.07C148.81 69.17 148.57 69.23 148.23 69.27C147.87 69.35 147.35 69.31 147.18 69.51C147.09 69.94 147.29 70.21 147.41 70.76C147.51 71.13 147.63 71.55 147.73 71.91C147.85 72.42 148.28 73.01 148.1 73.54C148 73.78 147.85 73.74 147.52 73.8C147.12 73.85 146.64 73.92 146.23 73.98C145.06 74.15 144.1 74.35 143.03 74.47C142.73 74.5 142.21 74.72 141.99 74.44C141.73 73.19 141.31 70.71 141.08 69.49V69.47Z" fill="#F6F295"/>
<path d="M155.16 72.53C154.4 68.13 154.66 63.49 154.55 57.8C154.55 57.64 154.55 57.48 154.55 57.33C154.56 57.13 154.48 57.05 154.91 56.93C156.75 56.52 160.7 56.5 163.67 56.27C163.78 56.27 163.9 56.29 164.19 56.3C164.37 56.32 164.59 56.29 164.71 56.44C164.89 56.98 165 57.88 165.04 58.47C165.05 59.25 165.25 60.33 165.14 60.89C165.11 61.12 164.37 61.03 163.91 61.07C162.34 61.13 159.63 61.19 159.32 61.22C159.29 61.23 159.28 61.25 159.27 61.29C159.25 61.68 159.3 62.23 159.3 62.68C159.31 62.9 159.3 63.06 159.37 63.12C159.58 63.23 159.99 63.06 160.22 63.05C160.87 62.98 162.25 62.9 162.74 62.87C163.02 62.87 163.26 63.07 163.33 63.35C163.43 64.04 163.47 64.96 163.46 65.67C163.45 66.36 163.5 66.72 163.29 67.03C163.05 67.37 162.27 67.18 161.79 67.25C161.3 67.26 160.88 67.28 160.47 67.27C160.28 67.27 160.05 67.19 159.9 67.31C159.75 67.45 159.79 68.41 159.79 68.61C159.8 68.65 159.81 68.7 159.86 68.7C160.41 68.69 164.6 68.49 165.39 68.47C165.97 68.65 165.86 69.22 165.96 69.85C166.01 70.34 166.07 70.96 166.11 71.31C166.13 71.64 166.27 71.97 166.09 72.19C165.23 72.28 158.74 72.72 157.95 72.72C157.27 72.71 155.78 72.73 155.39 72.71C155.28 72.7 155.21 72.66 155.16 72.56V72.53Z" fill="#F6F295"/>
<path d="M171.29 71.76C170.87 71.71 169.76 71.59 169.39 71.53C169.08 71.45 168.46 71.36 168.42 70.91C168.32 70.02 168.41 69.91 168.55 68.91C168.69 68.27 168.68 67.4 168.94 66.86C169.28 66.55 169.83 66.7 170.27 66.67C171.31 66.6 172.21 67.12 173.23 67.25C173.63 67.31 174.05 67.27 174.46 67.18C174.74 67.11 175.13 67.09 175.23 66.79C175.28 66.51 175.12 66.12 174.85 65.99C174.54 65.86 173.59 65.94 173.28 65.88C172.6 65.71 171.18 65.27 170.62 65.12C169.84 64.8 169 64.48 168.57 63.76C168.34 63.2 168.22 62.69 168.26 62.1C168.27 61.11 168.37 60.16 168.78 59.24C168.95 58.78 169.3 58.42 169.58 58C170.25 57.2 171.24 56.78 172.22 56.44C172.8 56.19 173.56 56.3 174.19 56.25C174.66 56.22 174.94 56.28 175.44 56.33C176.19 56.46 176.83 56.41 177.53 56.65C178.06 56.82 178.43 57.07 178.97 57.29C179.18 57.37 179.41 57.44 179.51 57.59C179.79 58.12 179.5 58.44 179.32 59.06C179.13 59.61 178.99 59.88 178.91 60.51C178.86 60.86 178.81 61.19 178.67 61.3C178.09 61.63 177.22 61.2 176.69 61.03C176.25 60.9 175.6 60.72 175.21 60.61C174.86 60.51 174.37 60.49 174.1 60.74C173.88 61.05 173.68 61.84 174.17 62.07C175.01 62.51 176.04 62.41 176.94 62.63C177.69 62.72 178.38 63.07 178.95 63.55C179.59 64.33 180.19 65.29 180.21 66.34C180.24 67.45 180.41 68.81 179.67 69.75C179.37 70.14 178.83 70.41 178.45 70.7C177.65 71.21 176.58 71.53 175.6 71.78C175 71.9 173.88 71.86 173.24 71.9C172.75 71.88 171.95 71.75 171.35 71.75L171.29 71.76Z" fill="#F6F295"/>
<path d="M185.38 71.06C185.34 70.36 185.32 68.67 185.3 68.09C185.34 67.14 185.47 64.9 185.49 64.44C185.57 63.56 185.72 62.88 185.71 62.03C185.68 61.76 185.85 61.26 185.47 61.29C184.71 61.26 184.1 61.26 183.37 61.39C182.98 61.44 182.86 61.46 182.49 61.42C182.26 61.4 182.01 61.39 181.91 61.18C181.78 60.78 181.87 60.66 181.87 60.2C181.91 59.36 182.03 57.3 182.05 56.88C182.07 56.68 182.12 56.48 182.27 56.32C182.41 56.17 182.77 56.14 183.01 56.1C183.31 56.05 183.33 56.08 183.72 56.1C184.71 56.17 186 56.27 186.88 56.33C187.24 56.34 192.18 56.28 194.2 56.27C194.79 56.24 195.41 56.37 196.05 56.42C196.77 56.49 196.52 57.01 196.53 57.58C196.48 58.74 196.45 60.65 196.37 61.76C196.31 62.19 195.4 61.97 194.98 62.01C194 61.94 193.08 62.13 192.15 62.01C191.82 61.97 191.44 61.85 191.31 61.85C191.22 61.85 191.27 61.98 191.25 62.17C191.22 63.77 191.1 70.69 191.09 71.23C190.94 71.79 189.97 71.58 189.57 71.53C189.01 71.52 187.85 71.5 187.28 71.49C186.7 71.4 185.48 72.02 185.38 71.12V71.06Z" fill="#F6F295"/>
<path d="M197.36 72.18C197.29 72.13 197.33 71.99 197.33 71.74C197.35 71.37 197.37 70.85 197.38 70.45C197.41 69.27 197.47 68.81 197.61 67.71C198.13 63.66 198.35 61.2 198.91 58.57C198.98 58.22 199.12 57.81 199.21 57.46C199.27 57.25 199.33 56.83 199.41 56.57C199.45 56.47 199.49 56.47 199.6 56.48C200.18 56.53 202.44 56.73 203.41 56.82C203.65 56.85 203.85 56.83 204.05 56.95C204.25 57.02 204.24 57.46 204.21 57.74C204.2 57.97 204.19 58.27 204.17 58.46C204.11 58.92 202.53 71.39 202.42 72.28C202.38 72.42 202.3 72.56 202.04 72.53C200.74 72.41 198.37 72.46 197.37 72.2L197.36 72.18Z" fill="#F6F295"/>
<path d="M209.61 73.31C209.66 73 209.58 72.87 209.52 72.47C208.94 69.4 208.6 67.52 207.9 65.2C207.63 63.26 206.83 60.23 206.22 57.61C205.99 56.58 207.29 56.89 207.92 56.87C208.71 56.95 210.5 57.13 210.99 57.18C211.29 57.24 211.68 57.38 211.86 57.66C211.96 57.84 212.04 58.07 212.08 58.26C212.3 59.68 212.58 61.32 212.78 62.77C212.84 63.73 212.99 64.62 213.12 65.58C213.15 65.71 213.18 65.71 213.25 65.61C213.58 65.05 214.97 62.68 215.18 62.31C215.68 61.3 216.39 59.85 216.91 58.79C217.07 58.43 217.24 58.25 217.62 58.31C218.6 58.4 222.11 58.7 222.79 58.76C222.96 58.76 223.06 58.98 223.02 59.09C222.7 59.67 219.22 65.92 217.39 69.21C216.24 71.37 215.85 71.85 214.86 73.38C214.74 73.72 214.39 73.87 214.05 73.81C213.71 73.78 212.84 73.71 212.4 73.67C211.68 73.6 211.03 73.71 210.29 73.6C210.07 73.58 209.64 73.57 209.6 73.33L209.61 73.31Z" fill="#F6F295"/>
<path d="M228.4 75.44C228.3 75.35 228.18 75.17 228.19 75.02C228.2 74.79 228.28 73.91 228.36 73.02C228.43 72.18 228.51 71.39 228.5 71.25C228.48 71.17 228.42 71.19 228.32 71.17C227.8 71.11 225.95 70.87 225.62 70.83C225.44 70.82 225.45 71 225.36 71.16C224.99 71.97 224.11 73.84 223.88 74.36C223.81 74.52 223.78 74.96 223.59 74.87C222.46 74.72 219.83 74.4 218.91 74.28C218.57 74.24 218.39 74.25 218.43 73.96C218.89 73.21 223.11 64.96 225.16 61.02C225.69 60.01 226.01 59.36 226.06 59.3C226.14 59.28 226.2 59.3 226.33 59.32C227.9 59.5 230.18 59.68 231.79 60.05C231.84 60.24 232.55 65.72 233.15 70.14C233.49 72.68 233.7 74.27 233.89 75.63C233.9 75.74 233.82 76.16 233.76 76.25C233.74 76.28 233.72 76.29 233.69 76.29C233.09 76.18 229.01 75.63 228.43 75.46L228.4 75.44ZM227.47 67.05C227.78 67.02 228.24 67.08 228.55 67.09C228.75 67.1 228.7 67.11 228.71 66.97C228.66 66.07 228.75 65.11 228.59 64.22C228.52 63.81 228.44 63.3 228.43 63.29C228.43 63.27 226.75 66.81 226.69 66.94C226.83 66.99 227.28 67.02 227.43 67.04L227.47 67.05Z" fill="#F6F295"/>
<path d="M237.17 77.06C236.84 76.97 236.26 76.89 236 76.78C235.64 76.69 235.76 76.08 235.79 75.78C236.25 73.16 236.94 68.8 237.24 67.52C237.62 65.88 238.55 61.83 238.67 61.36C238.69 61.3 238.72 61.24 238.79 61.21C239.02 61.1 239.79 61.46 240.01 61.51C240.38 61.61 240.9 61.68 241.27 61.75C242.11 61.89 243.01 61.78 243.75 62.13C244.19 62.3 244.24 62.52 244.04 63.02C243.47 64.62 243.16 67.55 242.57 70.68C242.47 71.26 242.4 71.7 242.37 71.87C242.3 72.04 242.57 72 242.83 72.07C244.02 72.35 245.75 72.56 246.89 72.92C247.12 73.15 247.05 73.29 246.99 73.66C246.83 74.7 246.63 76.06 246.47 77.11C246.39 77.57 246.37 77.89 246.32 78.02C246.28 78.1 246.22 78.16 246.07 78.22C245.55 78.38 245.1 78.33 244.55 78.25C243.75 78.18 242.62 77.91 241.78 77.75C241.28 77.67 241.12 77.49 240.6 77.5C239.96 77.46 239.25 77.51 238.61 77.42C238.24 77.33 237.51 77.15 237.23 77.06H237.17Z" fill="#F6F295"/>
<path d="M257.22 68.34C257.13 69.7 255.84 70.95 254.48 70.86C253.12 70.77 252.46 69.48 252.55 68.12C252.64 66.76 253.45 65.85 254.81 65.94C256.17 66.03 257.31 66.98 257.22 68.34Z" fill="#F6F295"/>
<path d="M255.1 77.42C255.01 78.78 254.09 80.08 252.67 79.71C251.35 79.37 250.48 78.18 250.57 76.82C250.66 75.46 251.64 74.69 253 74.78C254.36 74.88 255.19 76.06 255.1 77.42Z" fill="#F6F295"/>
</svg>
