<?xml version="1.0" encoding="utf-8"?>
<!-- Generator: Adobe Illustrator 29.4.0, SVG Export Plug-In . SVG Version: 9.03 Build 0)  -->
<svg version="1.1" id="레이어_1" xmlns="http://www.w3.org/2000/svg" xmlns:xlink="http://www.w3.org/1999/xlink" x="0px"
	 y="0px" width="500px" height="1000px" viewBox="0 0 500 1000" enable-background="new 0 0 500 1000" xml:space="preserve">
<g>
	<polygon fill="#EC7FBC" points="388.48,845.03 388.08,845.69 387.36,845.09 386.64,845.42 385.92,845.3 385.21,845.12 
		384.49,845.68 383.77,845.62 383.05,845.13 382.33,845.49 381.62,844.92 380.9,845.19 380.18,845.37 379.46,845.43 378.74,845.34 
		378.02,845.57 377.3,844.95 376.59,845.32 375.87,844.85 375.15,845.6 374.43,845.36 373.71,845.11 372.99,845.81 372.27,845.81 
		371.55,845.21 370.83,844.93 370.11,845.45 369.39,845.5 368.67,844.87 367.95,845.66 367.23,845.79 366.51,845.01 365.79,845.77 
		365.07,845.83 364.35,845.02 363.63,845.71 362.91,845.67 362.19,845.02 361.48,844.86 360.76,845.26 360.04,845.39 359.32,845.19 
		358.6,845.7 357.88,845.67 357.16,845.33 356.44,845.06 355.73,844.94 355.01,845.68 354.29,845.28 353.57,844.92 352.85,845.42 
		352.13,845.06 351.42,845.7 350.7,845.17 349.98,845.46 349.26,845.18 348.54,845.31 347.83,845.78 347.11,845.26 346.39,845.65 
		345.67,845.81 344.95,845 344.24,845.13 343.52,845.31 342.8,845.78 342.08,845.67 341.37,845.57 340.65,845.25 339.93,845.52 
		339.21,845.27 338.49,845.33 337.78,845.33 337.06,844.86 336.34,845.09 335.62,845.69 334.9,845.75 334.19,845.76 333.47,845.78 
		332.75,845.11 332.03,845.25 331.31,845.64 330.59,845.6 329.87,845.27 329.16,845.33 328.44,845.37 327.72,845.5 327,844.88 
		326.28,845.18 325.56,845.78 324.84,845.56 324.12,845.21 323.4,845.77 322.68,845.63 321.97,845.78 321.25,845.64 320.53,845.62 
		319.81,844.87 319.09,844.84 318.37,845.28 317.65,844.88 316.92,845.32 316.2,845.71 315.48,844.89 314.76,845.03 314.04,845.3 
		313.32,845.79 312.6,845.27 311.88,845.1 311.17,845.51 310.45,845.57 309.73,845.15 309.01,845.44 308.29,845.81 307.57,845.24 
		306.85,844.88 306.13,845.15 305.41,844.89 304.69,845.46 303.97,845.08 303.26,845.16 302.54,845.72 301.82,845.66 301.1,845.17 
		300.38,844.88 299.66,845.76 298.94,845 298.22,845.31 297.51,845.73 296.79,845.67 296.07,845.48 295.35,845.58 294.63,845.2 
		293.91,845.66 293.2,845.21 292.48,845.77 291.76,844.89 291.05,845.09 290.33,845.46 289.61,845.73 288.9,845.14 288.18,845.6 
		287.46,845.41 286.74,845.73 286.03,845.69 285.31,845.23 284.59,845.23 283.87,845.66 283.15,845.02 282.43,844.92 281.71,845.41 
		280.99,845.47 280.27,845.77 279.55,845.83 278.83,845 278.11,844.87 277.39,844.84 276.67,845.79 275.95,845.67 275.23,845.52 
		274.51,845.74 273.79,845.44 273.07,845.26 272.36,845.84 271.64,845.64 270.92,845.29 270.2,845.66 269.48,845.57 268.77,845.67 
		268.05,845.31 267.33,845.77 266.62,845.27 265.9,845.1 265.18,845.2 264.46,845.35 263.75,844.96 263.03,845.73 262.32,845.01 
		261.6,845.54 260.88,844.9 260.17,845.25 259.45,845.32 258.74,845.79 258.02,844.88 257.3,844.92 256.59,845.52 255.87,845.02 
		255.16,844.97 254.44,845.25 253.72,845.47 253.01,845.83 252.29,845.08 251.58,845 250.86,845.1 250.14,845.39 249.43,845.3 
		248.71,845.36 247.99,845.13 247.28,845 246.56,845.32 245.84,845.44 245.13,845.67 244.41,844.93 243.69,845 242.98,844.99 
		242.26,845.63 241.54,845.44 240.82,845.33 240.1,845.56 239.39,844.89 238.67,845.61 237.95,845.81 237.23,844.9 236.51,845.06 
		235.79,845.02 235.07,845.52 234.35,845.83 233.63,845.82 232.91,845.7 232.18,845.02 231.46,845.5 230.74,845.72 230.02,845.56 
		229.3,845.19 228.58,845.17 227.85,845.23 227.13,845.6 226.41,845.12 225.69,845.34 224.97,845.25 224.25,845.18 223.53,845.45 
		222.82,845.54 222.1,845.53 221.38,845.7 220.66,844.93 219.94,845.59 219.22,845.39 218.5,845.77 217.78,845.76 217.06,845.49 
		216.35,845.28 215.63,845.46 214.91,845.5 214.19,845.83 213.47,845.3 212.75,845.58 212.03,845.04 211.31,844.97 210.59,845.43 
		209.88,845.56 209.16,845.5 208.44,845.78 207.72,845.58 207,844.96 206.27,845.45 205.55,845.18 204.83,845.08 204.11,845.16 
		203.39,845.38 202.67,845.32 201.94,844.87 201.22,845.19 200.5,845.8 199.78,845.6 199.05,844.92 198.33,845.34 197.61,844.99 
		196.89,845.47 196.17,845.1 195.45,845.46 194.73,845.56 194.01,845.08 193.29,845.25 192.57,845.62 191.85,845 191.13,845.68 
		190.41,845.34 189.69,844.98 188.97,845.48 188.24,845.11 187.52,845.71 186.8,845.63 186.08,845.78 185.36,845.04 184.64,845.28 
		183.91,845.18 183.19,844.9 182.47,845.24 181.74,845.54 181.02,844.87 180.3,845.04 179.58,845.82 178.85,845.38 178.13,845.06 
		177.41,845.62 176.69,845.53 175.97,845.52 175.25,845.66 174.53,845 173.8,844.98 173.08,845.57 172.36,845.68 171.64,845.44 
		170.91,845.17 170.19,845.52 169.47,845.15 168.74,845.23 168.02,844.86 167.3,845.64 166.58,845.76 165.85,845.27 165.14,845.31 
		164.42,845.66 163.7,845.48 162.98,845.13 162.26,845.02 161.54,845.2 160.81,845.38 160.09,844.94 159.37,844.85 158.64,845.16 
		157.92,845.06 157.2,844.99 156.48,845.17 155.76,845.32 155.04,845.83 154.32,845.55 153.6,845.5 152.88,845.68 152.16,845.01 
		151.44,845.68 150.72,845.24 150,845.75 149.27,845.6 148.55,845.54 147.82,844.91 147.1,845.47 146.37,845.66 145.65,845.03 
		144.93,845.58 144.21,845.82 143.48,845.49 142.76,845.28 142.04,844.87 141.31,844.96 140.59,845.22 139.86,845.75 139.14,845.23 
		138.41,844.86 137.69,845.77 136.97,845.41 136.24,845.76 135.51,845.13 134.79,845.6 134.06,845.01 133.34,845.45 132.61,845.37 
		131.89,845.59 131.17,845.65 130.45,845 129.72,845.39 129,845.25 128.27,845.68 127.55,845.18 126.82,845.75 126.09,845.45 
		125.36,845.38 124.64,845.71 123.91,845.13 123.18,845.26 122.45,845.13 121.72,845.81 120.99,845.65 120.26,845.76 119.53,845.77 
		118.73,845.4 119.2,844.62 118.64,843.91 118.42,843.19 119.14,842.48 119.19,841.77 118.56,841.05 118.59,840.34 119.08,839.62 
		118.79,838.91 119.27,838.2 118.34,837.48 118.61,836.77 118.74,836.05 118.67,835.34 118.76,834.62 118.36,833.91 118.84,833.19 
		118.36,832.48 118.59,831.76 118.67,831.05 118.3,830.33 118.66,829.62 119.23,828.91 118.88,828.2 118.94,827.49 118.52,826.77 
		118.94,826.06 118.81,825.35 119.08,824.64 118.93,823.92 118.74,823.2 119.27,822.49 118.59,821.77 118.68,821.06 119.11,820.34 
		118.77,819.63 118.82,818.92 119.07,818.21 119.15,817.49 119.09,816.78 118.84,816.07 118.34,815.36 119.19,814.64 119.09,813.93 
		118.74,813.22 118.55,812.5 118.53,811.78 119.29,811.07 118.42,810.35 118.6,809.63 118.41,808.92 118.55,808.2 118.72,807.49 
		119.19,806.77 118.67,806.06 118.6,805.34 119.12,804.62 119.21,803.91 118.38,803.19 118.47,802.47 119.01,801.75 118.65,801.04 
		118.91,800.32 118.79,799.6 118.69,798.89 118.33,798.17 118.55,797.45 118.9,796.73 119.19,796.01 118.61,795.3 118.35,794.59 
		118.77,793.87 118.97,793.15 119.29,792.43 119.17,791.72 118.68,791 118.6,790.28 118.99,789.56 118.53,788.84 118.6,788.12 
		118.53,787.4 119.17,786.68 118.57,785.96 118.35,785.24 119.05,784.52 118.96,783.79 118.34,783.07 118.46,782.01 119.51,782.1 
		120.23,782.79 120.95,782.41 121.66,782.54 122.38,782.57 123.1,782.38 123.82,781.93 124.54,782.35 125.25,782.76 125.97,781.91 
		126.69,782.47 127.41,782.46 128.13,782.67 128.85,782.38 129.56,782.3 130.28,782.78 131,781.9 131.72,782.69 132.44,782.41 
		133.16,782.71 133.88,782.54 134.6,782.34 135.32,782.63 136.04,782.24 136.76,782.09 137.48,782.59 138.2,782.34 138.92,782.57 
		139.64,782.12 140.36,782.17 141.08,782.61 141.8,782.08 142.52,782.12 143.24,781.9 143.95,782.56 144.67,782.81 145.39,782.29 
		146.11,782.3 146.83,782.83 147.55,782.13 148.27,782.76 148.99,782.57 149.71,782.07 150.42,781.91 151.14,781.87 151.86,781.95 
		152.58,782.02 153.3,782.83 154.02,782.04 154.73,781.93 155.45,782.51 156.17,782.1 156.89,782 157.61,782.26 158.33,782.63 
		159.04,782.25 159.76,782.74 160.48,782.27 161.2,782.47 161.92,782.31 162.63,781.94 163.35,782.36 164.07,782.83 164.79,781.94 
		165.5,782.4 166.22,782.31 166.94,782.11 167.66,781.94 168.38,782.15 169.09,782.22 169.81,781.88 170.53,782.65 171.25,782.63 
		171.97,782.56 172.68,782.26 173.4,782.6 174.12,781.86 174.84,782.47 175.56,782.81 176.28,782.03 176.99,782.79 177.71,782.5 
		178.43,782.79 179.15,782.62 179.87,781.9 180.59,782.03 181.31,782.6 182.03,782.03 182.75,782.08 183.46,782.68 184.18,782.42 
		184.9,782.51 185.62,782.01 186.34,782.66 187.06,782.58 187.78,782.34 188.5,781.99 189.22,782.7 189.94,781.89 190.66,782.26 
		191.38,782.45 192.1,782.33 192.82,782.36 193.54,782.63 194.26,782.12 194.98,782.06 195.7,782.53 196.42,782.53 197.14,782.01 
		197.86,782.51 198.58,781.99 199.3,782.61 200.02,782.37 200.74,782.81 201.46,782.11 202.18,782.7 202.9,782.43 203.61,782.34 
		204.33,782.63 205.05,782.12 205.77,782.54 206.49,782.24 207.21,782.21 207.93,782.8 208.65,782.12 209.36,782.65 210.08,782.49 
		210.8,781.92 211.52,782.25 212.24,782.23 212.96,782.82 213.68,782.33 214.39,782.3 215.11,782.82 215.82,782.18 216.54,782.47 
		217.26,782.29 217.97,782.71 218.69,782.43 219.41,781.95 220.13,782.56 220.84,782.63 221.56,782.49 222.28,782.57 223,782.3 
		223.72,782.77 224.44,782.45 225.16,782.01 225.88,782.67 226.6,781.87 227.32,782.43 228.04,782.82 228.76,781.85 229.48,782.82 
		230.2,781.95 230.92,782.01 231.64,781.92 232.36,781.85 233.08,782.76 233.8,781.99 234.51,781.89 235.23,782.52 235.95,781.89 
		236.67,781.91 237.39,782.71 238.1,781.85 238.82,782.83 239.54,782.33 240.26,782.58 240.97,782.63 241.69,782.63 242.41,782.29 
		243.12,782.55 243.84,782.35 244.56,782.8 245.27,782.59 245.99,782.48 246.7,782.73 247.42,781.85 248.14,782.42 248.85,782.51 
		249.57,782.24 250.28,782.27 251,782.11 251.72,782.13 252.43,782.79 253.15,781.86 253.86,782.21 254.58,781.9 255.3,782.77 
		256.01,782.21 256.73,782.63 257.44,781.98 258.16,782.67 258.88,782.23 259.59,782 260.31,782.47 261.03,782.52 261.74,782.39 
		262.46,782.06 263.18,782.77 263.89,782.41 264.61,781.88 265.33,782.23 266.05,781.9 266.77,782.15 267.48,782.06 268.2,782.09 
		268.92,782.15 269.64,782.51 270.36,782.48 271.08,782.04 271.8,782.68 272.52,782.05 273.24,782.04 273.96,782.73 274.68,782.81 
		275.4,781.96 276.13,782.22 276.85,782.67 277.57,782.38 278.29,781.87 279.01,782.25 279.73,782.59 280.45,781.92 281.17,782.22 
		281.89,782.02 282.61,782.79 283.33,782.27 284.05,781.93 284.77,782.55 285.49,782.23 286.21,781.95 286.93,782.1 287.65,782.02 
		288.37,782.65 289.09,782.37 289.8,782.49 290.52,781.94 291.24,782.21 291.96,781.86 292.68,782.41 293.4,782.57 294.12,782.17 
		294.84,782.79 295.55,781.89 296.27,782.21 296.99,782.1 297.71,782.68 298.43,782.6 299.15,782.44 299.87,781.89 300.59,782.53 
		301.31,782.6 302.03,781.87 302.76,782.38 303.48,782.46 304.2,782.22 304.92,782.55 305.64,782.71 306.37,782.6 307.09,782.14 
		307.81,782.57 308.53,782.15 309.25,782.6 309.98,782.21 310.7,782 311.42,782.65 312.14,782.53 312.86,782.78 313.58,782.76 
		314.3,782.78 315.02,782.55 315.74,782.19 316.46,782.46 317.18,782.36 317.9,782.25 318.62,782.28 319.34,781.86 320.06,782.38 
		320.79,781.87 321.51,782.49 322.23,782 322.95,782.57 323.67,782.38 324.4,782.37 325.12,782.68 325.84,782.2 326.57,782.68 
		327.29,782.15 328.01,782.22 328.73,782.41 329.45,782.82 330.18,782.16 330.9,782.32 331.62,782.83 332.34,782.51 333.06,782.74 
		333.78,781.85 334.51,782.57 335.23,782.83 335.95,782.43 336.67,782.4 337.4,782.39 338.12,782.48 338.84,782.08 339.57,782.59 
		340.29,782.36 341.01,782.34 341.73,782.75 342.45,782.64 343.17,782.46 343.89,781.85 344.61,782.84 345.33,782.48 346.05,782.67 
		346.77,782.77 347.5,782.55 348.22,782.84 348.94,781.98 349.67,782.02 350.39,781.99 351.11,782.51 351.83,782.76 352.55,782.13 
		353.27,782 353.99,782.26 354.71,782.01 355.43,782.83 356.15,782.14 356.87,782.69 357.59,781.94 358.31,782.56 359.04,782.78 
		359.76,782.35 360.49,782.32 361.21,782.24 361.94,782.79 362.66,782.48 363.38,782.13 364.1,782.19 364.83,782.76 365.55,782.81 
		366.27,781.91 367,782.44 367.73,782.35 368.45,782.55 369.17,782.32 369.9,782.42 370.62,782.48 371.35,782.15 372.07,782.37 
		372.8,782.27 373.53,782.17 374.25,781.97 374.98,782.82 375.7,782.57 376.42,782.61 377.14,782.45 377.86,782.13 378.59,782.05 
		379.32,782.35 380.04,782.75 380.77,782.52 381.5,782.84 382.22,782.19 382.95,782.67 383.68,782.58 384.41,782.8 385.14,782.48 
		385.86,782.75 386.59,781.88 387.33,782.75 388.06,782.77 388.87,782.26 389.07,783.06 388.33,783.77 388.96,784.49 389.15,785.2 
		389.24,785.91 389.25,786.63 388.64,787.34 389.16,788.06 388.39,788.77 388.61,789.48 388.54,790.2 388.84,790.91 389.22,791.63 
		389.12,792.34 389.2,793.05 388.61,793.77 388.76,794.49 389.14,795.2 388.37,795.92 388.79,796.63 388.84,797.35 388.5,798.06 
		389.2,798.77 389.08,799.48 389.24,800.19 388.69,800.9 388.34,801.62 389.02,802.33 389.13,803.04 388.31,803.76 388.94,804.48 
		388.8,805.19 389.2,805.91 388.7,806.62 389.19,807.34 388.48,808.05 389.15,808.76 388.6,809.47 389.28,810.19 388.85,810.9 
		388.95,811.61 388.86,812.32 388.5,813.04 388.91,813.75 388.59,814.46 388.94,815.18 389.27,815.9 388.4,816.61 388.5,817.33 
		389.29,818.05 388.89,818.76 389.26,819.48 388.66,820.19 388.38,820.91 388.85,821.62 388.39,822.34 388.42,823.06 388.32,823.77 
		388.3,824.49 388.75,825.21 389,825.93 389.07,826.64 388.73,827.36 388.97,828.08 388.85,828.79 388.94,829.51 388.37,830.23 
		388.64,830.95 388.73,831.67 388.53,832.38 388.32,833.09 388.5,833.81 388.65,834.53 388.81,835.25 389,835.96 388.52,836.68 
		388.68,837.4 388.45,838.12 388.87,838.84 389.23,839.56 388.63,840.28 389.01,841 389.02,841.72 389.28,842.44 388.68,843.16 
		389.26,843.89 388.66,844.58 	"/>
</g>
<g>
	<path fill="#FFFFFF" d="M204.51,816.42h-6.45v2.64c0,0.72-0.38,1.07-1.17,1.07h-1.67c-0.79,0-1.2-0.35-1.2-1.07v-2.64h-6.33
		c-0.76,0-1.1-0.38-1.1-1.13v-1.42c0-0.79,0.31-1.17,0.94-1.17h16.94c0.69,0,1.04,0.35,1.04,1.04v1.57
		C205.52,816.04,205.17,816.42,204.51,816.42z M190.66,819.06v3.43h13.66c0.66,0,0.98,0.31,0.98,0.91v1.7
		c0,0.76-0.32,1.13-0.94,1.13H187.8c-0.76,0-1.17-0.32-1.17-0.94v-6.14c0-0.63,0.38-0.98,1.1-0.98h1.76
		C190.22,818.18,190.6,818.5,190.66,819.06z M202.12,811.19h2.46c0.47,0,0.72-0.25,0.72-0.79c-0.22-5.76-3.37-8.56-9.48-8.37
		l0.09-0.6c0.06-0.41-0.16-0.63-0.66-0.63h-2.83c-0.6,0-0.91,0.25-0.91,0.79c-0.28,3.34-1.76,6.23-4.41,8.72
		c-0.28,0.25-0.38,0.47-0.25,0.63c0.09,0.19,0.25,0.25,0.5,0.25h2.74c0.57,0,1.01-0.13,1.32-0.41c1.64-1.86,2.74-3.65,3.34-5.45
		c4.63-0.25,6.8,1.38,6.52,4.91C201.21,810.88,201.49,811.19,202.12,811.19z"/>
	<path fill="#FFFFFF" d="M211.78,816.76c-0.88-0.35-1.57-0.88-2.08-1.57c-0.5-0.69-0.85-1.57-1.07-2.61
		c-0.19-1.04-0.31-2.27-0.31-3.65c0-1.39,0.13-2.55,0.35-3.56c0.22-1.04,0.6-1.86,1.1-2.55c0.54-0.69,1.23-1.2,2.11-1.51
		c0.85-0.35,1.92-0.5,3.21-0.5c1.35,0,2.46,0.16,3.34,0.5c0.85,0.31,1.57,0.82,2.08,1.51c0.54,0.69,0.91,1.51,1.13,2.55
		c0.19,1.01,0.31,2.17,0.31,3.56c0,1.35-0.13,2.58-0.31,3.62c-0.22,1.04-0.6,1.92-1.13,2.61c-0.5,0.72-1.23,1.26-2.08,1.61
		c-0.88,0.35-1.98,0.5-3.34,0.5C213.76,817.27,212.66,817.11,211.78,816.76z M227.42,801.69v23.61c0,0.63-0.28,0.94-0.88,0.94h-2.2
		c-0.63,0-0.94-0.28-0.94-0.91v-3.24h-7.08v3.4c0,0.54-0.25,0.79-0.75,0.76h-2.71c-0.47,0-0.69-0.22-0.69-0.72v-3.43h-2.9
		c-0.6,0-0.91-0.25-0.91-0.82v-1.98c0-0.54,0.31-0.82,0.98-0.85h14.07v-16.72c0-0.6,0.31-0.91,0.98-0.91h2.11
		C227.11,800.8,227.42,801.09,227.42,801.69z M212.82,805.31c-0.41,0.79-0.63,1.98-0.63,3.62c0,1.7,0.19,2.96,0.6,3.81
		c0.38,0.85,1.17,1.29,2.36,1.29c1.13,0,1.92-0.44,2.36-1.29c0.41-0.88,0.63-2.14,0.63-3.81c0-1.61-0.22-2.8-0.63-3.62
		c-0.44-0.82-1.23-1.23-2.36-1.23C214.01,804.08,213.26,804.49,212.82,805.31z"/>
	<path fill="#FFFFFF" d="M237.24,824.73v-1.45c0-0.72,0.38-1.07,1.07-1.07h5.92v-2.49h-5.79c-0.79,0-1.2-0.38-1.2-1.13v-16.62
		c0-0.6,0.35-0.91,1.01-0.91h1.89c0.66,0,1.01,0.31,1.01,0.94v2.83h10.61V802c0-0.63,0.31-0.94,0.91-0.94h1.95
		c0.66,0,1.01,0.31,1.01,0.91v16.62c0,0.75-0.41,1.13-1.26,1.13h-5.82v2.49h6.14c0.63,0,0.94,0.28,0.94,0.85v1.7
		c0,0.63-0.28,0.94-0.85,0.94h-16.46C237.62,825.71,237.24,825.39,237.24,824.73z M241.14,808.36v7.93h10.61v-7.93H241.14z"/>
	<path fill="#FFFFFF" d="M276.08,826.24h-1.67c-0.82,0-1.23-0.41-1.23-1.17v-1.26c-4.75,1.26-9.19,1.89-13.28,1.89
		c-0.85,0-1.29-0.38-1.29-1.2v-15.87c0-0.66,0.35-1.01,1.01-1.01h7.4v-2.61h-7.3c-0.72,0-1.1-0.35-1.1-1.07v-1.64
		c0-0.66,0.31-1.01,0.98-1.01h10.23c0.82,0,1.23,0.35,1.23,1.01v7.55c0,0.91-0.5,1.35-1.48,1.35h-7.11v10.61
		c3.34,0,6.93-0.66,10.73-1.98v-2.55h-4.82c-0.75,0-1.16-0.31-1.16-0.91v-1.79c0-0.76,0.31-1.1,0.94-1.1h5.04v-11.68
		c0-0.69,0.41-1.04,1.2-1.04h1.73c0.79,0,1.17,0.35,1.17,1.01v23.26C277.27,825.83,276.86,826.21,276.08,826.24z"/>
	<path fill="#FFFFFF" d="M287.18,804.99h-6.17c-0.6,0-0.91-0.35-0.91-1.04v-1.54c0-0.72,0.35-1.1,0.98-1.1h9.88
		c0.72,0,1.1,0.47,1.1,1.35c0.06,10.39-2.33,17.85-7.18,22.44c-0.44,0.41-1.1,0.63-2.05,0.63h-1.45c-0.54,0-0.88-0.16-0.98-0.5
		c-0.13-0.31,0.06-0.72,0.6-1.17c4.63-4.56,6.86-10.73,6.77-18.51C287.78,805.18,287.59,804.99,287.18,804.99z M300.28,808.77v1.92
		c0,0.72-0.35,1.07-1.01,1.07h-1.29v13.35c0,0.76-0.35,1.13-1.01,1.13h-1.98c-0.69,0-1.07-0.35-1.07-1.07v-23.48
		c0-0.6,0.32-0.88,0.95-0.88H297c0.66,0,0.98,0.32,0.98,0.91v6.08h1.23C299.93,807.79,300.28,808.11,300.28,808.77z"/>
	<path fill="#FFFFFF" d="M310.19,804.99h-6.8c-0.6,0-0.91-0.35-0.91-1.04v-1.54c0-0.72,0.35-1.1,0.98-1.1h10.51
		c0.76,0,1.13,0.47,1.13,1.35c0.06,10.39-2.61,17.85-7.96,22.44c-0.44,0.41-1.1,0.63-2.05,0.63h-1.45c-0.54,0-0.88-0.16-0.98-0.5
		c-0.13-0.31,0.06-0.72,0.6-1.17c5.13-4.56,7.65-10.73,7.52-18.51C310.79,805.18,310.6,804.99,310.19,804.99z M319.98,826.24h-1.95
		c-0.72,0-1.07-0.35-1.07-1.07v-23.48c0-0.6,0.32-0.88,0.94-0.88h2.11c0.66,0,0.98,0.32,0.98,0.91v23.39
		C320.99,825.86,320.67,826.24,319.98,826.24z"/>
</g>
<g>
	<polygon fill="#EC7FBC" points="388.6,934.81 388.08,935.15 387.36,935.46 386.64,935.16 385.92,934.88 385.21,935.21 
		384.49,935.38 383.77,934.57 383.05,934.98 382.33,934.77 381.62,935.07 380.9,935.13 380.18,934.77 379.46,935.16 378.74,935.15 
		378.02,934.73 377.3,935.15 376.59,935.17 375.87,934.53 375.15,934.94 374.43,934.91 373.71,934.73 372.99,935.45 372.27,935.36 
		371.55,934.87 370.83,935.02 370.11,934.65 369.39,935.15 368.67,935.46 367.95,935.45 367.23,934.87 366.51,934.62 365.79,935.24 
		365.07,935.12 364.35,935.36 363.63,935.46 362.91,935.01 362.19,935.3 361.48,935.48 360.76,934.73 360.04,935.22 359.32,935.35 
		358.6,935.14 357.88,935.04 357.16,935.32 356.44,934.79 355.73,935.13 355.01,934.93 354.29,934.65 353.57,934.84 352.85,935.09 
		352.13,935.12 351.42,934.65 350.7,935.17 349.98,935.26 349.26,934.52 348.54,934.88 347.83,935.21 347.11,934.58 346.39,934.6 
		345.67,934.71 344.95,934.71 344.24,935.43 343.52,935.15 342.8,935.07 342.08,934.94 341.37,934.56 340.65,934.9 339.93,935.25 
		339.21,935.17 338.49,935.41 337.78,935.14 337.06,935.05 336.34,934.89 335.62,935.48 334.9,934.79 334.19,935.25 333.47,935.36 
		332.75,934.91 332.03,934.95 331.31,934.85 330.59,934.92 329.87,934.87 329.16,934.5 328.44,934.79 327.72,934.8 327,934.99 
		326.28,934.78 325.56,934.86 324.84,934.64 324.12,935.46 323.4,934.84 322.68,935.44 321.97,934.6 321.25,934.97 320.53,935.31 
		319.81,934.59 319.09,935.3 318.37,935.05 317.65,935.49 316.92,935.42 316.2,935.34 315.48,935.13 314.76,934.52 314.04,935.06 
		313.32,934.77 312.6,934.87 311.88,935.4 311.17,935.25 310.45,935.18 309.73,934.89 309.01,934.67 308.29,934.82 307.57,934.73 
		306.85,934.67 306.13,935.37 305.41,935.11 304.69,935.01 303.97,934.68 303.26,935.41 302.54,934.6 301.82,934.83 301.1,935.4 
		300.38,934.66 299.66,934.78 298.94,934.81 298.22,935.46 297.51,935 296.79,934.57 296.07,935.14 295.35,935.48 294.63,934.78 
		293.91,935.25 293.2,935.07 292.48,934.79 291.76,934.65 291.05,935.26 290.33,934.65 289.61,934.73 288.9,935.44 288.18,934.88 
		287.46,935.35 286.74,934.61 286.03,934.99 285.31,935.04 284.59,934.86 283.87,934.98 283.15,934.55 282.43,935.29 281.71,934.97 
		280.99,934.56 280.27,934.69 279.55,935.29 278.83,934.57 278.11,935.15 277.39,935.38 276.67,934.76 275.95,934.85 275.23,935.02 
		274.51,935.14 273.79,935.18 273.07,934.73 272.36,935.13 271.64,934.86 270.92,935.36 270.2,935.43 269.48,934.67 268.77,935.34 
		268.05,935.03 267.33,935.47 266.62,935.17 265.9,934.99 265.18,934.62 264.46,934.75 263.75,934.76 263.03,934.86 262.32,935.37 
		261.6,935.21 260.88,934.92 260.17,935.37 259.45,934.9 258.74,934.62 258.02,934.98 257.3,934.93 256.59,934.54 255.87,934.94 
		255.16,935.14 254.44,934.85 253.72,935.3 253.01,934.97 252.29,934.93 251.58,934.66 250.86,935 250.14,934.57 249.43,934.98 
		248.71,935.33 247.99,935.29 247.28,935.25 246.56,935.21 245.84,935.41 245.13,935.2 244.41,935.43 243.69,934.91 242.98,934.67 
		242.26,934.87 241.54,935.04 240.82,935.22 240.1,935.23 239.39,935.1 238.67,934.94 237.95,935.27 237.23,934.72 236.51,935.45 
		235.79,934.71 235.07,935.48 234.35,935.49 233.63,935.35 232.91,935.31 232.18,935.43 231.46,935.46 230.74,935.26 230.02,935.23 
		229.3,934.62 228.58,934.57 227.85,935.01 227.13,935.47 226.41,934.63 225.69,935.34 224.97,935.48 224.25,935.16 223.53,935.01 
		222.82,934.74 222.1,934.95 221.38,935.05 220.66,935.37 219.94,934.64 219.22,934.91 218.5,934.67 217.78,934.99 217.06,935.11 
		216.35,934.93 215.63,935.48 214.91,935.48 214.19,935 213.47,935.32 212.75,934.73 212.03,934.72 211.31,934.75 210.59,935.15 
		209.88,935.31 209.16,934.76 208.44,935.13 207.72,935.38 207,935.46 206.27,934.7 205.55,934.87 204.83,934.6 204.11,934.53 
		203.39,935.36 202.67,934.57 201.94,935.29 201.22,934.56 200.5,934.84 199.78,935.22 199.05,934.93 198.33,935.1 197.61,934.61 
		196.89,934.56 196.17,934.95 195.45,934.85 194.73,935.25 194.01,934.53 193.29,934.93 192.57,934.58 191.85,934.63 191.13,935.15 
		190.41,934.81 189.69,934.99 188.97,934.55 188.24,935.11 187.52,934.74 186.8,934.87 186.08,934.52 185.36,935.31 184.64,935.31 
		183.91,935.28 183.19,934.91 182.47,934.6 181.74,934.58 181.02,935.1 180.3,935.08 179.58,935.21 178.85,934.97 178.13,934.63 
		177.41,934.61 176.69,934.77 175.97,935.14 175.25,934.65 174.53,935.33 173.8,934.66 173.08,935.1 172.36,934.59 171.64,935.32 
		170.91,934.54 170.19,934.62 169.47,935.23 168.74,935.5 168.02,934.65 167.3,935.14 166.58,934.55 165.85,934.96 165.14,935.03 
		164.42,935.37 163.7,935.18 162.98,934.73 162.26,934.96 161.54,934.61 160.81,935.08 160.09,935.15 159.37,934.85 158.64,935.15 
		157.92,934.84 157.2,935.37 156.48,935 155.76,934.67 155.04,935.34 154.32,935.37 153.6,935.36 152.88,935.03 152.16,935.03 
		151.44,934.9 150.72,934.69 150,935.36 149.27,934.67 148.55,934.69 147.82,935.24 147.1,934.91 146.37,934.72 145.65,935.48 
		144.93,935.5 144.21,935.42 143.48,935.28 142.76,935.08 142.04,934.98 141.31,934.66 140.59,934.74 139.86,935.11 139.14,934.61 
		138.41,934.75 137.69,935.03 136.97,935.49 136.24,934.72 135.51,934.91 134.79,934.67 134.06,935.49 133.34,935.22 132.61,935.47 
		131.89,935.43 131.17,935.37 130.45,934.98 129.72,935.42 129,934.89 128.27,935.36 127.55,934.91 126.82,934.66 126.09,934.67 
		125.36,934.99 124.64,934.75 123.91,935.1 123.18,934.63 122.45,934.63 121.72,935.22 120.99,934.67 120.26,934.81 119.53,935.24 
		118.47,935.33 119.14,934.28 118.49,933.57 118.79,932.85 118.5,932.14 118.7,931.43 118.7,930.71 118.65,930 118.45,929.28 
		118.9,928.57 118.98,927.86 118.49,927.14 119.14,926.43 118.46,925.71 118.36,925 118.81,924.29 119.14,923.57 119.23,922.85 
		118.68,922.14 118.41,921.42 118.66,920.71 118.98,919.99 118.87,919.28 118.77,918.57 118.57,917.86 118.88,917.15 118.98,916.44 
		119.1,915.72 118.9,915.01 118.97,914.3 119.24,913.58 118.91,912.86 118.77,912.15 118.99,911.43 118.87,910.72 118.36,910 
		119.21,909.29 118.86,908.58 118.78,907.87 118.31,907.15 118.89,906.44 119.28,905.73 119.04,905.02 118.41,904.3 119.15,903.59 
		118.63,902.88 119.13,902.16 119.04,901.44 118.37,900.73 118.68,900.01 118.89,899.29 118.48,898.58 119.1,897.86 119.22,897.15 
		119.22,896.43 119.04,895.72 118.95,895 118.31,894.28 118.4,893.57 118.76,892.85 118.69,892.13 119.1,891.41 119.08,890.7 
		119.17,889.98 118.58,889.26 118.84,888.55 118.86,887.83 118.74,887.11 119.21,886.39 118.34,885.67 118.49,884.96 118.74,884.25 
		119.2,883.53 119.19,882.81 118.52,882.09 118.86,881.38 118.75,880.66 119.08,879.94 118.59,879.22 118.43,878.5 118.41,877.78 
		118.68,877.06 119.07,876.34 118.65,875.62 118.32,874.9 119.24,874.18 119.28,873.45 118.53,872.73 118.9,872.11 119.51,871.67 
		120.23,872.2 120.95,872.31 121.66,872.02 122.38,871.95 123.1,871.72 123.82,871.75 124.54,872.35 125.25,871.63 125.97,872.06 
		126.69,871.8 127.41,872.08 128.13,872.27 128.85,871.74 129.56,872.48 130.28,872.36 131,871.61 131.72,871.59 132.44,872.19 
		133.16,871.75 133.88,872.3 134.6,872.08 135.32,872.33 136.04,872.36 136.76,871.96 137.48,871.68 138.2,872.47 138.92,872.14 
		139.64,871.68 140.36,871.55 141.08,872.16 141.8,871.54 142.52,871.59 143.24,872.3 143.95,871.65 144.67,871.82 145.39,872.49 
		146.11,872 146.83,872.32 147.55,872.04 148.27,872.29 148.99,872.18 149.71,872.16 150.42,872.22 151.14,872.23 151.86,872.02 
		152.58,872.25 153.3,871.67 154.02,872.47 154.73,872.48 155.45,872.47 156.17,871.82 156.89,872.28 157.61,871.53 158.33,872.32 
		159.04,871.65 159.76,872.25 160.48,872.27 161.2,872.22 161.92,872.2 162.63,871.7 163.35,872.15 164.07,872.1 164.79,872.03 
		165.5,871.95 166.22,871.9 166.94,871.64 167.66,872.1 168.38,872.36 169.09,871.57 169.81,872 170.53,872.19 171.25,871.95 
		171.97,872.23 172.68,872.39 173.4,872.16 174.12,871.52 174.84,871.69 175.56,872.28 176.28,872.07 176.99,871.94 177.71,871.79 
		178.43,871.73 179.15,871.7 179.87,871.73 180.59,871.71 181.31,872.45 182.03,872.31 182.75,872.47 183.46,871.74 184.18,872.16 
		184.9,872.27 185.62,872.13 186.34,872.03 187.06,871.99 187.78,872.31 188.5,871.98 189.22,871.76 189.94,872.28 190.66,872.15 
		191.38,872.1 192.1,872.11 192.82,871.55 193.54,872.12 194.26,872.14 194.98,871.78 195.7,872.18 196.42,871.66 197.14,872.34 
		197.86,872.09 198.58,872.41 199.3,872.22 200.02,871.56 200.74,871.62 201.46,872.14 202.18,872.4 202.9,872.24 203.61,872.4 
		204.33,872.38 205.05,872.14 205.77,871.95 206.49,872.49 207.21,871.64 207.93,872.33 208.65,871.72 209.36,872.16 210.08,872.09 
		210.8,872.05 211.52,871.54 212.24,872.33 212.96,871.89 213.68,871.7 214.39,872.36 215.11,871.52 215.82,871.57 216.54,872.1 
		217.26,871.96 217.97,872.08 218.69,871.6 219.41,871.96 220.13,871.96 220.84,871.81 221.56,872.32 222.28,871.76 223,872.48 
		223.72,871.79 224.44,872.2 225.16,872.42 225.88,872.48 226.6,871.61 227.32,871.66 228.04,871.89 228.76,871.6 229.48,871.65 
		230.2,872.41 230.92,871.86 231.64,872.29 232.36,871.72 233.08,871.5 233.8,871.86 234.51,872.05 235.23,871.8 235.95,872.18 
		236.67,871.98 237.39,871.85 238.1,871.91 238.82,871.5 239.54,872.37 240.26,872.13 240.97,872.12 241.69,872.04 242.41,871.78 
		243.12,871.77 243.84,871.62 244.56,871.54 245.27,872.3 245.99,872.42 246.7,871.84 247.42,871.78 248.14,871.7 248.85,872.24 
		249.57,871.57 250.28,871.64 251,872.29 251.72,871.93 252.43,872.06 253.15,871.52 253.86,871.81 254.58,871.77 255.3,872.11 
		256.01,872.19 256.73,872.34 257.44,871.56 258.16,872.05 258.88,872.17 259.59,871.68 260.31,872.4 261.03,871.61 261.74,871.64 
		262.46,872.15 263.18,871.95 263.89,871.6 264.61,872.24 265.33,872.28 266.05,872.24 266.77,871.56 267.48,872.46 268.2,872.42 
		268.92,871.71 269.64,872.03 270.36,872.08 271.08,871.66 271.8,872.38 272.52,871.71 273.24,871.53 273.96,872.04 274.68,872.03 
		275.4,872.28 276.13,872.39 276.85,871.59 277.57,872.18 278.29,871.96 279.01,871.95 279.73,872.06 280.45,871.68 281.17,871.72 
		281.89,872.22 282.61,871.94 283.33,871.93 284.05,872.17 284.77,872.12 285.49,871.6 286.21,872.32 286.93,871.94 287.65,872.28 
		288.37,872.11 289.09,871.93 289.8,871.84 290.52,872.28 291.24,871.68 291.96,872.27 292.68,872.33 293.4,871.63 294.12,872.2 
		294.84,871.87 295.55,871.7 296.27,872.4 296.99,871.81 297.71,871.6 298.43,871.59 299.15,871.77 299.87,872.07 300.59,871.63 
		301.31,872.1 302.03,872.42 302.76,871.55 303.48,871.63 304.2,872.13 304.92,872.06 305.64,872.39 306.37,872.45 307.09,872.36 
		307.81,871.92 308.53,871.9 309.25,871.73 309.98,872.29 310.7,871.59 311.42,872.4 312.14,871.51 312.86,871.91 313.58,872.08 
		314.3,871.59 315.02,871.62 315.74,872.43 316.46,872.33 317.18,871.66 317.9,871.76 318.62,872.4 319.34,872.14 320.06,872.23 
		320.79,871.93 321.51,872 322.23,871.76 322.95,871.62 323.67,872.32 324.4,871.59 325.12,872.09 325.84,872.31 326.57,872.22 
		327.29,872.35 328.01,871.74 328.73,872.13 329.45,872.07 330.18,872.16 330.9,871.85 331.62,872.15 332.34,872.26 333.06,872.5 
		333.78,871.93 334.51,871.72 335.23,871.71 335.95,872.45 336.67,871.76 337.4,871.64 338.12,871.86 338.84,871.76 339.57,872.41 
		340.29,871.87 341.01,872.21 341.73,871.93 342.45,872.49 343.17,871.89 343.89,871.91 344.61,872.22 345.33,871.8 346.05,872.04 
		346.77,871.56 347.5,871.7 348.22,872.28 348.94,871.81 349.67,871.85 350.39,872.13 351.11,871.68 351.83,871.7 352.55,871.97 
		353.27,871.8 353.99,871.58 354.71,872.44 355.43,871.6 356.15,872.15 356.87,872.43 357.59,872.13 358.31,872.4 359.04,872.33 
		359.76,872.08 360.49,872.27 361.21,871.7 361.94,872.44 362.66,872.45 363.38,872.13 364.1,872.46 364.83,871.59 365.55,872.05 
		366.27,872.39 367,871.99 367.73,871.69 368.45,871.68 369.17,871.63 369.9,871.74 370.62,871.94 371.35,872.18 372.07,872.5 
		372.8,871.54 373.53,871.98 374.25,871.6 374.98,872.15 375.7,872.46 376.42,871.68 377.14,871.63 377.86,871.83 378.59,872.01 
		379.32,871.54 380.04,871.54 380.77,872.14 381.5,871.51 382.22,871.67 382.95,871.61 383.68,871.92 384.41,872.44 385.14,872.32 
		385.86,872.35 386.59,872.2 387.33,871.85 388.06,871.92 388.63,872.17 388.55,872.72 388.53,873.43 389.23,874.15 389.27,874.86 
		388.66,875.57 388.45,876.29 388.77,877 389.01,877.72 389.02,878.43 388.94,879.14 388.69,879.86 389.18,880.57 388.83,881.29 
		388.87,882 388.33,882.72 388.45,883.43 388.45,884.15 388.43,884.86 389.12,885.58 388.74,886.29 389.04,887.01 388.73,887.72 
		389.01,888.43 388.98,889.14 388.82,889.85 388.84,890.57 388.81,891.28 388.4,891.99 388.49,892.7 388.99,893.42 389.12,894.14 
		388.46,894.85 388.82,895.57 388.42,896.28 389.08,897 388.98,897.71 389.02,898.42 388.83,899.14 388.92,899.85 388.83,900.56 
		388.78,901.27 388.79,901.98 388.36,902.7 388.65,903.41 388.68,904.12 388.97,904.84 388.79,905.56 388.88,906.27 388.82,906.99 
		388.67,907.71 388.49,908.42 388.66,909.14 388.37,909.85 388.58,910.57 388.57,911.28 388.83,912 389,912.72 389.06,913.43 
		389.09,914.15 388.63,914.87 388.63,915.59 388.93,916.3 388.97,917.02 388.35,917.74 388.73,918.45 389.2,919.17 389.05,919.89 
		388.44,920.61 388.53,921.33 388.54,922.04 389.14,922.75 388.37,923.47 389.23,924.19 389.05,924.91 389.18,925.62 388.82,926.34 
		388.76,927.06 389.04,927.78 388.42,928.5 388.42,929.22 389.1,929.94 388.46,930.66 388.92,931.38 388.54,932.1 388.72,932.82 
		388.63,933.55 389.05,934.31 	"/>
</g>
<g>
	<path fill="#FFFFFF" d="M230.76,902.33V904c0,0.63-0.35,0.91-1.04,0.91h-16.68c-0.66,0-1.01-0.35-1.01-1.04v-1.54
		c0-0.66,0.35-1.01,1.04-1.01h4.66v-3.21c0-0.72,0.38-1.07,1.17-1.07h1.79c0.76,0,1.1,0.35,1.1,1.01v3.27h7.93
		C230.41,901.33,230.76,901.67,230.76,902.33z M230.73,891.54c0,3.31-0.47,5.95-1.45,7.9c-0.28,0.57-0.79,0.88-1.54,0.88h-1.76
		c-0.38,0-0.63-0.13-0.79-0.32c-0.16-0.22-0.13-0.54,0.09-1.01c0.72-1.54,1.17-2.96,1.26-4.25c0.06-0.41-0.13-0.63-0.54-0.63h-13.1
		c-0.57,0-0.85-0.28-0.85-0.88v-1.89c0-0.6,0.28-0.88,0.85-0.88h17C230.44,890.46,230.73,890.81,230.73,891.54z M225.94,906.24
		c1.2,0.22,2.14,0.54,2.87,0.98c0.72,0.44,1.23,0.98,1.51,1.61c0.25,0.63,0.41,1.38,0.41,2.24c0,0.85-0.13,1.61-0.41,2.27
		c-0.28,0.63-0.76,1.17-1.48,1.61c-0.69,0.41-1.64,0.72-2.86,0.94c-1.2,0.22-2.74,0.32-4.63,0.32c-1.73,0-3.18-0.09-4.34-0.32
		c-1.2-0.22-2.14-0.54-2.87-0.94c-0.75-0.44-1.26-0.98-1.6-1.61c-0.32-0.66-0.47-1.42-0.47-2.27c0-0.85,0.13-1.61,0.41-2.24
		s0.79-1.17,1.48-1.61c0.72-0.44,1.67-0.76,2.86-0.98c1.17-0.22,2.71-0.32,4.53-0.32C223.2,905.92,224.72,906.02,225.94,906.24z
		 M225.53,912.59c0.82-0.35,1.23-0.85,1.23-1.54c0-0.32-0.09-0.63-0.28-0.88c-0.16-0.25-0.44-0.47-0.88-0.63
		c-0.41-0.16-0.94-0.28-1.67-0.35c-0.69-0.09-1.54-0.16-2.58-0.16c-1.07,0-1.92,0.06-2.61,0.16c-0.69,0.06-1.23,0.19-1.64,0.35
		c-0.41,0.16-0.69,0.38-0.85,0.63s-0.22,0.57-0.22,0.88c0,0.35,0.09,0.66,0.25,0.91c0.19,0.25,0.5,0.47,0.91,0.63
		s0.98,0.28,1.64,0.35c0.69,0.09,1.51,0.13,2.52,0.13C223.3,913.07,224.72,912.91,225.53,912.59z"/>
	<path fill="#FFFFFF" d="M247.6,915.9h-2.46c-0.47,0-0.72-0.28-0.72-0.91v-3.71h-2.08v3.71c0,0.63-0.25,0.91-0.76,0.91h-2.46
		c-0.47,0-0.69-0.28-0.69-0.91v-3.71h-3.56c-0.79,0-1.2-0.35-1.2-1.07v-1.79c0-0.69,0.41-1.07,1.16-1.07h17.12
		c0.75,0,1.16,0.38,1.16,1.17v1.61c0,0.79-0.41,1.16-1.2,1.16h-3.59v3.71C248.35,915.62,248.1,915.9,247.6,915.9z M252.66,901.77
		c-0.28,1.01-0.76,1.83-1.48,2.49c-0.72,0.66-1.73,1.17-2.99,1.51c-1.26,0.32-2.87,0.47-4.82,0.47c-1.92,0-3.53-0.16-4.79-0.47
		c-1.23-0.35-2.24-0.85-2.96-1.51s-1.23-1.48-1.48-2.49c-0.28-1.01-0.44-2.17-0.44-3.53s0.16-2.52,0.5-3.53
		c0.31-1.01,0.85-1.83,1.6-2.52c0.79-0.66,1.79-1.17,3.05-1.48c1.26-0.35,2.8-0.5,4.69-0.5c1.76,0,3.24,0.16,4.47,0.5
		c1.23,0.31,2.2,0.82,2.96,1.48c0.72,0.69,1.26,1.51,1.61,2.52c0.35,1.01,0.5,2.17,0.5,3.53S252.95,900.76,252.66,901.77z
		 M245.99,902.33c0.69-0.16,1.29-0.41,1.73-0.76s0.76-0.76,0.94-1.29c0.19-0.5,0.31-1.13,0.31-1.83c0-0.76-0.09-1.42-0.28-1.98
		c-0.19-0.57-0.47-1.04-0.88-1.42c-0.44-0.38-0.98-0.66-1.67-0.85c-0.69-0.19-1.57-0.28-2.58-0.28c-1.07,0-1.98,0.09-2.71,0.28
		c-0.72,0.19-1.32,0.47-1.76,0.85c-0.47,0.38-0.79,0.85-0.98,1.42c-0.19,0.57-0.28,1.23-0.28,1.98c0,0.69,0.09,1.32,0.28,1.83
		c0.19,0.54,0.47,0.94,0.91,1.29c0.41,0.35,0.98,0.6,1.7,0.76c0.69,0.19,1.57,0.28,2.61,0.28
		C244.38,902.62,245.27,902.52,245.99,902.33z"/>
	<path fill="#FFFFFF" d="M259.08,915.37c-0.79-0.38-1.42-0.94-1.86-1.67c-0.47-0.75-0.79-1.7-0.98-2.8
		c-0.19-1.13-0.28-2.42-0.28-3.9c0-1.32,0.03-2.46,0.06-3.43c0.06-0.94,0.16-1.79,0.25-2.49c0.13-0.72,0.25-1.29,0.44-1.76
		c0.16-0.47,0.38-0.82,0.63-1.13h-0.69c-0.54,0-0.82-0.25-0.82-0.79v-2.2c0-0.54,0.25-0.79,0.72-0.79h11.11
		c0.28,0,0.5,0.03,0.66,0.09c0.13,0.09,0.19,0.25,0.19,0.47v2.27c0,0.28-0.06,0.5-0.19,0.69c-0.13,0.19-0.31,0.25-0.57,0.25h-0.82
		c0.22,0.31,0.38,0.66,0.54,1.13c0.16,0.47,0.28,1.04,0.35,1.73c0.09,0.69,0.16,1.54,0.19,2.49c0.06,0.98,0.06,2.08,0.06,3.37
		c0,1.48-0.06,2.8-0.22,3.93c-0.16,1.13-0.47,2.08-0.91,2.8c-0.44,0.75-1.07,1.32-1.86,1.7c-0.79,0.38-1.83,0.57-3.08,0.57
		C260.84,915.9,259.87,915.71,259.08,915.37z M257.69,892.73v-1.54c0-0.5,0.28-0.76,0.85-0.76h6.89c0.57,0,0.82,0.25,0.82,0.76v1.54
		c0,0.57-0.25,0.85-0.82,0.85h-6.93C257.98,893.58,257.69,893.3,257.69,892.73z M260.28,900.41c-0.31,1.51-0.5,3.68-0.5,6.58
		c0,1.86,0.19,3.24,0.54,4.16c0.35,0.91,0.98,1.39,1.86,1.39c0.82,0,1.39-0.47,1.7-1.39s0.47-2.3,0.47-4.16
		c0-2.86-0.19-5.07-0.5-6.55c-0.32-1.51-0.91-2.27-1.76-2.27C261.22,898.18,260.62,898.93,260.28,900.41z M276.11,898.4v1.95
		c0,0.72-0.35,1.07-1.04,1.07h-1.23v13.5c0,0.66-0.38,0.98-1.07,0.98h-1.98c-0.69,0-1.04-0.32-1.04-0.98v-23.58
		c0-0.6,0.31-0.88,0.98-0.88h2.08c0.69,0,1.04,0.32,1.04,0.91v6.08h1.2C275.73,897.45,276.11,897.77,276.11,898.4z"/>
	<path fill="#FFFFFF" d="M284.76,894.65h-6.8c-0.6,0-0.91-0.35-0.91-1.04v-1.54c0-0.72,0.35-1.1,0.98-1.1h10.51
		c0.76,0,1.13,0.47,1.13,1.35c0.06,10.39-2.61,17.85-7.96,22.44c-0.44,0.41-1.1,0.63-2.05,0.63h-1.45c-0.54,0-0.88-0.16-0.98-0.5
		c-0.13-0.31,0.06-0.72,0.6-1.17c5.13-4.56,7.65-10.73,7.52-18.51C285.36,894.84,285.17,894.65,284.76,894.65z M294.55,915.9h-1.95
		c-0.72,0-1.07-0.35-1.07-1.07v-23.48c0-0.6,0.32-0.88,0.94-0.88h2.11c0.66,0,0.98,0.32,0.98,0.91v23.39
		C295.56,915.52,295.24,915.9,294.55,915.9z"/>
</g>
<g>
	<path d="M186.24,711.85v31.52h1.87c1.2,0,1.78,0.58,1.78,1.73v2.59c0,1.06-0.58,1.63-1.68,1.63h-10.62c-1.01,0-1.49-0.53-1.49-1.54
		V745c0-1.06,0.43-1.63,1.35-1.63h2.74v-23.74h-2.93c-1.54,0-1.97-0.58-1.35-1.68l3.7-6.53c0.38-0.67,1.01-1.01,1.83-1.01h3.36
		C185.76,710.41,186.24,710.89,186.24,711.85z"/>
	<path d="M194.65,726.41v-14.94c0-0.91,0.53-1.39,1.54-1.39h3.12c1.06,0,1.59,0.48,1.59,1.44v2.4h16.67v-2.4
		c0-0.96,0.48-1.44,1.54-1.44h3.17c1.01,0,1.49,0.48,1.49,1.39v14.8c0,1.15-0.62,1.73-1.87,1.73h-25.75
		C195.18,727.99,194.65,727.46,194.65,726.41z M194.65,733.95v-2.74c0-0.91,0.43-1.34,1.3-1.34h26.48c0.91,0,1.35,0.43,1.35,1.34
		v2.59c0,1.01-0.53,1.54-1.59,1.54h-9.56v3.41c0,0.87-0.43,1.3-1.2,1.3h-4.28c-0.77,0-1.15-0.38-1.15-1.2v-3.51h-9.95
		C195.13,735.34,194.7,734.86,194.65,733.95z M223.77,744.91v2.45c0,1.06-0.43,1.58-1.39,1.58h-26.09c-1.1,0-1.63-0.48-1.63-1.49
		v-8.6c0-0.96,0.48-1.39,1.39-1.39h3.41c0.91,0,1.39,0.43,1.39,1.35v4.66h21.53C223.33,743.46,223.77,743.95,223.77,744.91z
		 M200.85,719.44v3.03h16.72v-3.03H200.85z"/>
	<path d="M246.11,730.64v-2.02c0-0.82,0.58-1.25,1.78-1.25c4.85,0.19,7.35-1.2,7.45-4.23c0.05-4.66-1.78-6.97-5.38-6.92
		c-0.96,0-1.73,0.14-2.4,0.48c-0.67,0.34-1.2,0.77-1.59,1.25c-0.43,0.53-0.72,1.11-0.91,1.73c-0.14,0.67-0.24,1.25-0.24,1.83
		c0,0.91-0.38,1.39-1.2,1.49l-3.32,0.14c-1.01,0-1.49-0.53-1.49-1.54c-0.1-2.79,0.77-5.38,2.59-7.69c1.87-2.31,4.76-3.46,8.7-3.46
		c7.59,0.05,11.44,3.7,11.53,11c-0.19,4.66-1.63,7.4-4.32,8.22c2.69,1.01,4.18,3.65,4.42,7.93c0,7.74-3.84,11.63-11.53,11.68
		c-7.59,0-11.39-3.75-11.34-11.2c0-1.01,0.48-1.54,1.49-1.54l3.32,0.14c0.77,0.1,1.2,0.62,1.2,1.49c0,3.8,1.78,5.72,5.24,5.72
		c4.08-0.05,6.01-2.45,5.67-7.26c-0.34-2.88-3.12-4.42-8.31-4.61C246.64,731.98,246.16,731.55,246.11,730.64z"/>
	<path d="M277.88,749.28c-7.88-0.05-11.82-3.27-11.82-9.61c0.05-4.56,1.39-7.88,4.08-9.85c-2.45-2.64-3.65-5.33-3.6-8.07
		c0-7.5,3.8-11.29,11.34-11.34c7.5,0,11.29,3.8,11.34,11.34c0,3.22-1.15,5.91-3.51,8.07c2.64,1.83,3.99,5.04,3.99,9.66
		C289.7,746.01,285.76,749.28,277.88,749.28z M271.97,720.98c0,4.32,1.97,6.49,5.96,6.49c3.94,0,5.91-2.16,5.96-6.49
		c0-3.56-2.02-5.33-6.01-5.33C273.94,715.64,271.97,717.42,271.97,720.98z M271.97,738.71c0,3.89,1.97,5.77,5.91,5.72
		c3.94,0,5.96-1.92,5.96-5.72c0-4.56-1.97-6.82-5.91-6.77C273.99,731.98,271.97,734.24,271.97,738.71z"/>
	<path d="M323,712.86v2.64c0,1.01-0.48,1.54-1.49,1.54h-13.5l-0.05,1.54c9.85,0.43,14.85,6.97,14.94,19.65
		c0,0.91-0.43,1.39-1.35,1.39h-3.75c-0.96,0-1.44-0.48-1.44-1.39c-0.19-8.94-3.27-13.65-9.18-14.17
		c-1.06,5.57-3.03,10.33-5.77,14.37c-0.62,0.82-1.44,1.2-2.55,1.2h-3.99c-0.43,0-0.77-0.14-0.91-0.48
		c-0.14-0.34-0.05-0.67,0.29-1.06c4.66-5.81,7.06-12.83,7.26-21.05h-6.01c-0.91,0-1.39-0.48-1.39-1.49v-2.64
		c0-0.91,0.48-1.39,1.39-1.39h9.66v-1.35c0.14-0.82,0.62-1.2,1.44-1.2h3.99c0.77,0,1.11,0.38,0.96,1.2v1.35h10.04
		C322.52,711.51,323,711.94,323,712.86z M307,733.9h3.27c0.91,0,1.39,0.48,1.39,1.49v6.87h9.75c1.1,0,1.63,0.53,1.63,1.54v2.88
		c0,0.91-0.48,1.39-1.39,1.44h-25.95c-1.06,0-1.59-0.58-1.59-1.63v-2.55c0-1.1,0.58-1.68,1.68-1.68h9.71v-6.77
		C305.46,734.43,305.99,733.9,307,733.9z"/>
</g>
</svg>
