<svg width="250" height="161" viewBox="0 0 250 161" fill="none" xmlns="http://www.w3.org/2000/svg">
<path d="M125 159.93C193.273 159.93 248.62 124.35 248.62 80.46C248.62 36.5699 193.273 0.990005 125 0.990005C56.7266 0.990005 1.38 36.5699 1.38 80.46C1.38 124.35 56.7266 159.93 125 159.93Z" fill="white" stroke="black" stroke-width="2" stroke-miterlimit="10"/>
<path d="M83.6601 58.77C82.9501 58.83 82.1601 58.9 81.3201 59C80.4701 59.1 79.6001 59.21 78.6901 59.35C77.7901 59.48 76.8801 59.62 75.9701 59.77C75.0601 59.92 74.1801 60.07 73.3201 60.23C72.4601 60.39 71.6601 60.55 70.9101 60.71C70.1601 60.87 69.5001 61.02 68.9201 61.16C68.5801 61.24 68.2701 61.27 67.9901 61.23C67.7101 61.19 67.4601 61.12 67.2401 61C67.0201 60.88 66.8401 60.74 66.6801 60.57C66.5301 60.4 66.4001 60.23 66.3001 60.07C66.1701 59.83 66.1601 59.64 66.2701 59.48C66.3801 59.33 66.6001 59.26 66.9501 59.29C67.3401 59.3 67.8401 59.29 68.4401 59.26C69.0401 59.22 69.7101 59.17 70.4401 59.08C71.1701 59 71.9401 58.9 72.7601 58.8C73.5801 58.7 74.4001 58.58 75.2101 58.45C76.0201 58.32 76.8101 58.2 77.5601 58.07C78.3201 57.94 79.0101 57.82 79.6401 57.71C80.3101 57.58 81.0101 57.43 81.7301 57.25C82.4501 57.07 83.1101 56.96 83.7001 56.93C84.5101 56.9 84.9201 57.18 84.9201 57.75C84.9201 58.02 84.8201 58.24 84.6001 58.43C84.4101 58.63 84.0901 58.74 83.6601 58.77ZM69.8401 49.41C69.8401 49.19 69.8301 49.04 69.8001 48.97C69.7701 48.9 69.7001 48.83 69.5701 48.76C69.4201 48.68 69.2801 48.59 69.1601 48.49C69.0401 48.39 68.9801 48.25 68.9801 48.07C68.9801 47.87 69.0601 47.72 69.2201 47.6C69.3801 47.48 69.6401 47.42 70.0101 47.42C70.4601 47.42 70.8201 47.47 71.0801 47.58C71.3401 47.69 71.5501 47.82 71.6901 47.99C71.8301 48.16 71.9201 48.35 71.9601 48.58C72.0001 48.81 72.0201 49.04 72.0201 49.27V53.06C72.0201 53.28 72.0701 53.46 72.1701 53.6C72.2701 53.73 72.4001 53.84 72.5701 53.91C72.7401 53.98 72.9301 54.03 73.1601 54.05C73.3901 54.07 73.6301 54.08 73.9001 54.08C74.4601 54.08 75.0201 54.04 75.5901 53.94C76.1601 53.85 76.7101 53.73 77.2401 53.58C77.7701 53.43 78.2701 53.26 78.7401 53.06C79.2101 52.86 79.6301 52.66 79.9901 52.45C80.3501 52.24 80.6801 52.12 80.9701 52.1C81.2601 52.08 81.4601 52.21 81.5901 52.49C81.7301 52.78 81.6801 53.1 81.4501 53.43C81.2201 53.76 80.9101 54.02 80.5101 54.2C79.9901 54.44 79.4001 54.65 78.7401 54.83C78.0801 55.01 77.4201 55.16 76.7501 55.28C76.0801 55.4 75.4401 55.49 74.8301 55.55C74.2101 55.61 73.6901 55.63 73.2701 55.6C72.7801 55.59 72.3201 55.54 71.9001 55.46C71.4801 55.38 71.1101 55.25 70.8101 55.06C70.5001 54.87 70.2601 54.62 70.0801 54.29C69.9001 53.97 69.8201 53.54 69.8201 53.01V49.41H69.8401Z" fill="black"/>
<path d="M88.2201 50.69C88.2201 50.54 88.2101 50.41 88.1801 50.32C88.1501 50.23 88.1101 50.15 88.0501 50.09C87.9901 50.03 87.9201 49.98 87.8401 49.94C87.7601 49.9 87.6601 49.86 87.5501 49.8C87.3701 49.72 87.2201 49.62 87.1101 49.53C87.0001 49.44 86.9401 49.29 86.9401 49.11C86.9401 48.91 87.0201 48.76 87.1801 48.64C87.3401 48.52 87.6001 48.46 87.9701 48.46C88.5201 48.46 88.9801 48.52 89.3601 48.63C90.6101 48.59 91.8601 48.43 93.1001 48.15C93.3501 48.09 93.5901 48.03 93.8001 47.96C94.0101 47.89 94.2301 47.82 94.4301 47.76C94.6301 47.7 94.8401 47.64 95.0501 47.6C95.2601 47.56 95.4901 47.53 95.7401 47.52C96.0601 47.51 96.3401 47.58 96.5701 47.75C96.8001 47.92 96.9201 48.18 96.9201 48.55C96.9201 48.77 96.8201 48.93 96.6201 49.01C96.4201 49.09 96.0701 49.16 95.5801 49.22C94.7401 49.3 93.9001 49.4 93.0801 49.51C92.2501 49.62 91.3901 49.74 90.4901 49.87C90.5001 49.93 90.5101 50 90.5101 50.1V52.69C90.9701 52.62 91.4101 52.55 91.8201 52.48C92.2301 52.41 92.5901 52.34 92.8801 52.27C93.3001 52.17 93.7201 52.05 94.1501 51.91C94.5801 51.77 95.0401 51.69 95.5301 51.66C95.8501 51.65 96.1601 51.73 96.4701 51.9C96.7701 52.08 96.9301 52.35 96.9401 52.71C96.9401 52.93 96.8401 53.1 96.6401 53.19C96.4401 53.29 96.0901 53.37 95.6001 53.44C94.7601 53.55 93.9201 53.66 93.0801 53.78C92.2401 53.89 91.3801 54.01 90.5101 54.14V56.1C90.5101 56.55 90.6101 56.86 90.8201 57.05C91.0201 57.23 91.3301 57.32 91.7301 57.32C92.5401 57.32 93.4001 57.14 94.3101 56.79C95.2101 56.44 96.0401 55.99 96.8001 55.44C97.1201 55.2 97.4401 55.06 97.7701 55.02C98.0901 54.98 98.3101 55.1 98.4201 55.38C98.4901 55.53 98.5101 55.69 98.4701 55.84C98.4301 55.99 98.3601 56.15 98.2601 56.29C98.1601 56.44 98.0201 56.57 97.8601 56.7C97.7001 56.83 97.5301 56.94 97.3701 57.04C96.3501 57.6 95.2701 58.05 94.1401 58.38C93.0101 58.71 91.9601 58.87 90.9701 58.87C90.0601 58.87 89.3701 58.66 88.9101 58.25C88.4501 57.84 88.2201 57.1 88.2201 56.05V50.69ZM100.04 45.96C100.04 45.72 100.03 45.54 100 45.41C99.9701 45.28 99.9001 45.19 99.7701 45.12C99.6201 45.04 99.4801 44.94 99.3601 44.84C99.2401 44.74 99.1801 44.59 99.1801 44.41C99.1801 44.21 99.2601 44.06 99.4201 43.94C99.5801 43.82 99.8401 43.76 100.21 43.76C100.67 43.76 101.03 43.82 101.29 43.93C101.55 44.04 101.75 44.19 101.88 44.38C102.01 44.57 102.1 44.79 102.13 45.04C102.16 45.29 102.18 45.55 102.18 45.82V59.97C102.18 60.25 102.16 60.56 102.12 60.9C102.08 61.24 102 61.56 101.9 61.87C101.79 62.18 101.66 62.43 101.5 62.64C101.34 62.84 101.15 62.94 100.92 62.94C100.71 62.94 100.55 62.89 100.44 62.78C100.33 62.67 100.24 62.55 100.18 62.4C100.12 62.25 100.08 62.09 100.06 61.92C100.05 61.74 100.04 61.59 100.04 61.47V45.96Z" fill="black"/>
<path d="M107.57 50.75C107.57 50.6 107.56 50.47 107.53 50.38C107.5 50.29 107.46 50.21 107.4 50.15C107.34 50.09 107.27 50.04 107.19 50C107.11 49.97 107.01 49.92 106.9 49.86C106.72 49.78 106.57 49.68 106.46 49.59C106.35 49.49 106.29 49.35 106.29 49.17C106.29 48.97 106.37 48.82 106.53 48.7C106.69 48.58 106.95 48.52 107.32 48.52C107.81 48.52 108.22 48.56 108.55 48.64C108.88 48.72 109.14 48.83 109.34 48.98C109.54 49.13 109.67 49.3 109.75 49.5C109.83 49.7 109.87 49.92 109.87 50.17V55.47C109.87 55.92 109.97 56.23 110.17 56.42C110.37 56.6 110.68 56.69 111.09 56.69C111.9 56.69 112.76 56.51 113.67 56.16C114.57 55.81 115.4 55.36 116.16 54.81C116.48 54.57 116.81 54.43 117.13 54.39C117.45 54.35 117.67 54.47 117.78 54.75C117.85 54.9 117.87 55.06 117.83 55.21C117.79 55.36 117.73 55.52 117.62 55.66C117.51 55.81 117.38 55.94 117.22 56.07C117.06 56.2 116.89 56.31 116.73 56.41C115.71 56.97 114.63 57.42 113.5 57.75C112.37 58.08 111.32 58.24 110.33 58.24C109.42 58.24 108.73 58.03 108.27 57.62C107.81 57.21 107.58 56.47 107.58 55.42V50.75H107.57ZM118.65 45.96C118.65 45.72 118.64 45.54 118.61 45.41C118.58 45.28 118.51 45.19 118.38 45.12C118.23 45.04 118.09 44.94 117.97 44.84C117.85 44.74 117.79 44.59 117.79 44.41C117.79 44.21 117.87 44.06 118.03 43.94C118.19 43.82 118.45 43.76 118.82 43.76C119.28 43.76 119.64 43.82 119.9 43.93C120.16 44.04 120.36 44.19 120.49 44.38C120.62 44.57 120.71 44.79 120.74 45.04C120.77 45.29 120.79 45.55 120.79 45.82V51.1C120.94 51.06 121.09 51.02 121.23 50.97C121.37 50.93 121.52 50.87 121.67 50.8C122.17 50.6 122.61 50.51 122.97 50.52C123.33 50.53 123.74 50.64 124.19 50.87C124.36 50.95 124.48 51.07 124.57 51.21C124.65 51.35 124.7 51.48 124.7 51.61C124.7 51.76 124.65 51.89 124.55 52C124.45 52.11 124.25 52.17 123.94 52.2C123.58 52.23 123.12 52.28 122.56 52.36C122.01 52.44 121.41 52.53 120.78 52.64V59.98C120.78 60.26 120.76 60.57 120.72 60.91C120.68 61.25 120.6 61.57 120.5 61.88C120.4 62.19 120.26 62.44 120.1 62.65C119.94 62.85 119.75 62.95 119.52 62.95C119.31 62.95 119.15 62.9 119.04 62.79C118.93 62.69 118.84 62.56 118.78 62.41C118.72 62.26 118.68 62.1 118.66 61.93C118.65 61.75 118.64 61.6 118.64 61.48V45.96H118.65Z" fill="black"/>
<path d="M142.96 55.17C141.98 55.24 140.89 55.36 139.7 55.52C138.51 55.68 137.3 55.86 136.06 56.06V60.73C136.06 61.01 136.04 61.32 135.99 61.66C135.94 62 135.86 62.32 135.76 62.63C135.65 62.94 135.52 63.19 135.35 63.4C135.18 63.6 134.98 63.71 134.76 63.71C134.56 63.71 134.4 63.66 134.28 63.55C134.15 63.44 134.06 63.32 134 63.17C133.94 63.02 133.89 62.86 133.87 62.69C133.85 62.51 133.84 62.36 133.84 62.24V56.44C132.75 56.64 131.72 56.83 130.75 57.03C129.78 57.23 128.94 57.42 128.23 57.6C127.89 57.68 127.58 57.71 127.3 57.67C127.02 57.63 126.77 57.56 126.55 57.44C126.33 57.32 126.15 57.18 125.99 57.01C125.84 56.84 125.71 56.67 125.61 56.51C125.48 56.27 125.47 56.08 125.58 55.92C125.69 55.77 125.91 55.7 126.26 55.73C126.65 55.74 127.15 55.73 127.75 55.7C128.35 55.67 129.02 55.61 129.75 55.52C130.48 55.44 131.25 55.34 132.07 55.24C132.89 55.13 133.71 55.02 134.52 54.89C135.33 54.76 136.12 54.64 136.88 54.51C137.64 54.38 138.33 54.26 138.96 54.15C139.63 54.02 140.33 53.87 141.05 53.69C141.77 53.51 142.43 53.4 143.02 53.37C143.83 53.34 144.24 53.62 144.24 54.19C144.24 54.46 144.13 54.68 143.92 54.87C143.72 55.03 143.39 55.14 142.96 55.17ZM138.9 52.75C138.68 52.75 138.5 52.69 138.38 52.57C138.26 52.45 138.17 52.31 138.12 52.14C137.66 52.34 137.16 52.51 136.63 52.67C136.1 52.82 135.57 52.95 135.05 53.06C134.53 53.16 134.05 53.24 133.61 53.29C133.17 53.34 132.81 53.36 132.55 53.34C132.06 53.33 131.61 53.28 131.2 53.2C130.79 53.12 130.44 52.99 130.15 52.8C129.86 52.61 129.62 52.35 129.46 52.02C129.29 51.69 129.21 51.26 129.21 50.73V48.14C129.21 47.92 129.2 47.77 129.17 47.7C129.14 47.63 129.06 47.56 128.94 47.49C128.79 47.41 128.65 47.32 128.53 47.22C128.41 47.12 128.35 46.98 128.35 46.8C128.35 46.6 128.43 46.45 128.59 46.33C128.75 46.21 129.01 46.15 129.38 46.15C129.91 46.15 130.33 46.23 130.64 46.38C131.13 46.35 131.67 46.3 132.27 46.23C132.87 46.16 133.46 46.08 134.05 46C134.64 45.92 135.19 45.83 135.71 45.74C136.23 45.65 136.65 45.57 136.97 45.5C137.4 45.39 137.79 45.27 138.13 45.13C138.47 45 138.82 44.92 139.2 44.91C139.63 44.9 139.98 44.98 140.22 45.16C140.46 45.34 140.6 45.62 140.61 45.98C140.61 46.26 140.46 46.46 140.17 46.57V50C140.17 50.32 140.15 50.65 140.11 50.98C140.07 51.31 139.99 51.6 139.89 51.86C139.79 52.12 139.65 52.33 139.49 52.5C139.32 52.67 139.12 52.75 138.9 52.75ZM138.02 46.82C137.53 46.88 137 46.94 136.44 47.01C135.88 47.08 135.31 47.16 134.74 47.24C134.16 47.32 133.59 47.42 133.03 47.51C132.46 47.61 131.92 47.71 131.4 47.8V48V50.78C131.4 51 131.44 51.18 131.53 51.32C131.61 51.45 131.73 51.56 131.89 51.64C132.04 51.72 132.23 51.77 132.45 51.79C132.67 51.81 132.91 51.82 133.18 51.82C133.52 51.82 133.89 51.79 134.3 51.72C134.71 51.65 135.14 51.56 135.57 51.45C136 51.34 136.43 51.21 136.85 51.06C137.27 50.91 137.66 50.76 138.03 50.61V46.82H138.02Z" fill="black"/>
<path d="M146.07 53.72C146.07 53.01 146.2 52.33 146.47 51.7C146.74 51.07 147.1 50.52 147.56 50.05C148.02 49.58 148.57 49.21 149.21 48.95C149.85 48.68 150.55 48.55 151.3 48.55C152.31 48.55 153.16 48.83 153.84 49.38C154.53 49.93 154.95 50.73 155.1 51.77C155.32 51.74 155.55 51.71 155.78 51.68C156.01 51.65 156.25 51.61 156.51 51.56V47.48C156.51 47.03 156.4 46.75 156.17 46.64C156.02 46.56 155.88 46.46 155.76 46.36C155.64 46.26 155.58 46.11 155.58 45.93C155.58 45.73 155.66 45.58 155.82 45.46C155.98 45.34 156.24 45.28 156.61 45.28C157.07 45.28 157.43 45.34 157.68 45.45C157.93 45.56 158.12 45.71 158.25 45.9C158.38 46.09 158.45 46.31 158.48 46.56C158.51 46.81 158.52 47.07 158.52 47.34V59.14C158.52 59.42 158.5 59.73 158.47 60.07C158.44 60.41 158.37 60.73 158.27 61.04C158.17 61.35 158.05 61.6 157.89 61.81C157.74 62.01 157.55 62.11 157.32 62.11C157.11 62.11 156.95 62.06 156.85 61.95C156.74 61.85 156.66 61.72 156.61 61.57C156.55 61.42 156.52 61.26 156.52 61.09C156.51 60.91 156.51 60.76 156.51 60.64V53.15C156.43 53.18 156.34 53.2 156.26 53.22C156.18 53.24 156.09 53.27 156.01 53.29C155.69 53.4 155.39 53.44 155.13 53.39C155.05 54.02 154.86 54.61 154.57 55.16C154.28 55.71 153.91 56.18 153.45 56.58C152.99 56.98 152.47 57.29 151.88 57.52C151.29 57.75 150.66 57.86 149.99 57.86C148.81 57.86 147.86 57.5 147.14 56.79C146.43 56.05 146.07 55.04 146.07 53.72ZM153.01 52.86C153.01 51.89 152.8 51.18 152.39 50.74C151.98 50.29 151.41 50.11 150.7 50.19C149.96 50.27 149.37 50.6 148.94 51.18C148.51 51.76 148.3 52.54 148.3 53.54C148.3 54.51 148.51 55.21 148.92 55.63C149.33 56.06 149.9 56.22 150.61 56.12C151.35 56.02 151.94 55.7 152.37 55.16C152.8 54.62 153.01 53.85 153.01 52.86ZM159.99 45.96C159.99 45.72 159.97 45.54 159.94 45.41C159.9 45.28 159.82 45.19 159.7 45.12C159.55 45.04 159.4 44.94 159.27 44.84C159.14 44.74 159.07 44.59 159.07 44.41C159.07 44.21 159.15 44.06 159.31 43.94C159.47 43.82 159.73 43.76 160.1 43.76C160.56 43.76 160.92 43.82 161.17 43.93C161.42 44.04 161.61 44.19 161.74 44.38C161.87 44.57 161.94 44.79 161.97 45.04C162 45.29 162.01 45.55 162.01 45.82V59.97C162.01 60.25 161.99 60.56 161.96 60.9C161.92 61.24 161.86 61.56 161.76 61.87C161.66 62.18 161.54 62.43 161.38 62.64C161.23 62.84 161.04 62.94 160.81 62.94C160.6 62.94 160.44 62.89 160.34 62.78C160.24 62.67 160.15 62.55 160.1 62.4C160.04 62.25 160.01 62.09 160.01 61.92C160.01 61.75 160 61.59 160 61.47V45.96H159.99Z" fill="black"/>
<path d="M172.95 50.25C172.78 50.66 172.59 51.08 172.38 51.51C172.17 51.95 171.93 52.39 171.67 52.84C172.1 53.22 172.52 53.57 172.91 53.9C173.3 54.23 173.68 54.52 174.04 54.77C174.35 54.99 174.62 55.18 174.85 55.32C175.08 55.46 175.29 55.58 175.48 55.69C175.67 55.8 175.84 55.9 176 56.02C176.16 56.14 176.31 56.27 176.46 56.44C176.66 56.68 176.74 56.93 176.71 57.2C176.68 57.47 176.55 57.7 176.31 57.91C176.11 58.08 175.87 58.17 175.57 58.18C175.28 58.19 174.95 58.01 174.58 57.63C174.13 57.15 173.58 56.62 172.92 56.03C172.26 55.44 171.55 54.83 170.8 54.2C170.13 55.2 169.38 56.16 168.55 57.1C167.72 58.04 166.87 58.91 165.98 59.71C165.88 59.79 165.75 59.86 165.58 59.92C165.41 59.98 165.28 59.96 165.18 59.86C165.07 59.75 165.05 59.61 165.12 59.45C165.19 59.29 165.3 59.13 165.46 58.98C166.01 58.36 166.54 57.68 167.06 56.92C167.58 56.16 168.06 55.38 168.51 54.58C168.96 53.77 169.36 52.96 169.73 52.15C170.09 51.34 170.4 50.57 170.63 49.84C170.71 49.59 170.77 49.36 170.79 49.16C170.81 48.96 170.75 48.76 170.59 48.56C170.51 48.45 170.43 48.34 170.36 48.22C170.29 48.1 170.3 47.95 170.38 47.76C170.45 47.61 170.59 47.51 170.79 47.47C170.99 47.43 171.26 47.48 171.58 47.64C172.17 47.91 172.61 48.25 172.89 48.66C173.18 49.05 173.2 49.59 172.95 50.25ZM179.32 52.25C179.14 52.29 178.97 52.33 178.83 52.38C178.68 52.42 178.55 52.46 178.44 52.51C178.2 52.61 177.96 52.7 177.73 52.77C177.5 52.84 177.25 52.9 177 52.92C176.75 52.94 176.5 52.92 176.24 52.87C175.98 52.81 175.72 52.69 175.45 52.51C175.11 52.29 174.95 52.06 174.95 51.84C174.95 51.56 175.13 51.39 175.5 51.34C175.99 51.27 176.58 51.19 177.26 51.09C177.94 50.99 178.63 50.89 179.33 50.77V45.98C179.33 45.74 179.32 45.56 179.29 45.43C179.26 45.3 179.19 45.21 179.06 45.14C178.91 45.06 178.77 44.96 178.65 44.86C178.53 44.76 178.47 44.61 178.47 44.43C178.47 44.23 178.55 44.08 178.71 43.96C178.87 43.84 179.13 43.78 179.5 43.78C179.96 43.78 180.32 43.84 180.58 43.95C180.84 44.06 181.04 44.21 181.17 44.4C181.3 44.59 181.39 44.81 181.42 45.06C181.45 45.31 181.47 45.57 181.47 45.84V59.99C181.47 60.27 181.45 60.58 181.41 60.92C181.37 61.26 181.29 61.58 181.19 61.89C181.08 62.2 180.95 62.45 180.79 62.66C180.63 62.86 180.44 62.96 180.21 62.96C180 62.96 179.84 62.91 179.73 62.8C179.62 62.7 179.53 62.57 179.47 62.42C179.41 62.27 179.37 62.11 179.35 61.94C179.34 61.76 179.33 61.61 179.33 61.49V52.25H179.32Z" fill="black"/>
<path d="M55.7701 79.82C55.7701 79.62 55.7 79.48 55.55 79.4C55.4 79.32 55.2501 79.24 55.1001 79.17C54.9001 79.1 54.75 79.01 54.65 78.91C54.55 78.8 54.4901 78.66 54.4901 78.48C54.4901 78.28 54.57 78.13 54.73 78.01C54.89 77.89 55.1501 77.83 55.5201 77.83C55.6601 77.83 55.79 77.83 55.92 77.84C56.05 77.85 56.17 77.86 56.28 77.87C56.63 77.84 57.03 77.8 57.47 77.74C57.91 77.68 58.37 77.62 58.84 77.54C59.31 77.46 59.77 77.39 60.23 77.32C60.69 77.25 61.1001 77.18 61.4601 77.11V74.17C61.0101 74.23 60.61 74.28 60.26 74.34C59.91 74.4 59.57 74.46 59.23 74.54C58.89 74.62 58.55 74.7 58.2 74.8C57.85 74.9 57.44 75.01 56.98 75.14C56.76 75.21 56.51 75.22 56.25 75.18C55.99 75.14 55.75 75.06 55.51 74.95C55.28 74.84 55.08 74.7 54.91 74.53C54.74 74.36 54.64 74.18 54.59 73.98C54.55 73.78 54.57 73.62 54.66 73.5C54.75 73.37 54.95 73.31 55.26 73.31C56.17 73.31 57.04 73.25 57.87 73.13C58.7 73.01 59.59 72.87 60.56 72.7C60.83 72.66 61.06 72.61 61.26 72.54C61.46 72.48 61.6601 72.42 61.8501 72.36C62.0401 72.3 62.23 72.25 62.43 72.2C62.63 72.15 62.84 72.12 63.08 72.11C63.42 72.08 63.66 72.13 63.81 72.27C63.96 72.4 64.0201 72.65 63.9901 73.02C63.9801 73.17 63.94 73.32 63.87 73.45C63.8 73.58 63.71 73.7 63.59 73.8L63.44 76.98C63.62 77.02 63.7701 77.09 63.8801 77.19C63.9901 77.29 64.05 77.43 64.05 77.61C64.05 77.79 63.95 77.97 63.75 78.14C63.55 78.31 63.2001 78.42 62.7101 78.48C61.8701 78.58 61.08 78.69 60.33 78.81C59.59 78.93 58.8201 79.05 58.0201 79.18C58.0501 79.32 58.06 79.43 58.06 79.5V81.58C58.06 82.45 58.47 82.86 59.28 82.82C60.28 82.78 61.1701 82.59 61.9601 82.24C62.7501 81.9 63.53 81.44 64.28 80.86C64.6 80.61 64.93 80.48 65.26 80.47C65.59 80.46 65.81 80.6 65.92 80.88C65.99 81.03 66.01 81.19 65.97 81.33C65.93 81.48 65.87 81.62 65.76 81.77C65.66 81.92 65.52 82.06 65.36 82.19C65.2 82.32 65.03 82.44 64.87 82.54C63.85 83.13 62.77 83.58 61.65 83.89C60.53 84.2 59.48 84.35 58.5 84.35C57.59 84.35 56.91 84.14 56.45 83.73C55.99 83.32 55.7701 82.58 55.7701 81.53V79.82ZM67.44 71.19C67.44 70.95 67.43 70.77 67.4 70.64C67.37 70.51 67.3 70.42 67.17 70.35C67.02 70.27 66.88 70.17 66.76 70.07C66.64 69.97 66.58 69.82 66.58 69.64C66.58 69.44 66.6601 69.29 66.8201 69.17C66.9801 69.05 67.24 68.99 67.61 68.99C68.07 68.99 68.43 69.05 68.69 69.16C68.95 69.27 69.15 69.42 69.28 69.61C69.41 69.8 69.5 70.02 69.53 70.27C69.56 70.52 69.58 70.78 69.58 71.05V85.2C69.58 85.48 69.5601 85.79 69.5201 86.13C69.4801 86.47 69.4 86.79 69.3 87.1C69.19 87.41 69.06 87.66 68.9 87.87C68.74 88.07 68.5501 88.17 68.3201 88.17C68.1101 88.17 67.95 88.12 67.84 88.01C67.73 87.9 67.64 87.78 67.58 87.63C67.52 87.48 67.4801 87.32 67.4601 87.15C67.4501 86.97 67.44 86.82 67.44 86.7V71.19Z" fill="black"/>
<path d="M81.83 76.41C81.83 76.8 81.91 77.07 82.08 77.2C82.25 77.33 82.52 77.37 82.9 77.29C83.46 77.19 84.02 77.03 84.58 76.8C85.14 76.57 85.7 76.29 86.26 75.97V71.2C86.26 70.96 86.25 70.78 86.22 70.65C86.19 70.52 86.12 70.43 85.99 70.36C85.84 70.28 85.7 70.18 85.58 70.08C85.46 69.98 85.4 69.83 85.4 69.65C85.4 69.45 85.48 69.3 85.64 69.18C85.8 69.06 86.06 69 86.43 69C86.89 69 87.25 69.06 87.51 69.17C87.77 69.28 87.97 69.43 88.1 69.62C88.23 69.81 88.32 70.03 88.35 70.28C88.38 70.53 88.4 70.79 88.4 71.06V73.56C88.51 73.52 88.62 73.48 88.74 73.43C88.85 73.39 88.96 73.35 89.08 73.3C89.58 73.1 90.02 73.01 90.38 73.02C90.74 73.03 91.15 73.14 91.6 73.37C91.77 73.45 91.89 73.57 91.98 73.71C92.06 73.85 92.11 73.98 92.11 74.11C92.11 74.26 92.06 74.39 91.96 74.5C91.86 74.61 91.66 74.67 91.35 74.7C91.01 74.73 90.59 74.78 90.07 74.85C89.55 74.92 89 75.01 88.41 75.12V76.17C88.41 76.45 88.39 76.76 88.35 77.1C88.31 77.44 88.23 77.76 88.13 78.07C88.02 78.38 87.89 78.63 87.73 78.84C87.57 79.04 87.38 79.15 87.15 79.15C86.94 79.15 86.78 79.1 86.67 78.99C86.56 78.88 86.47 78.76 86.41 78.61C86.35 78.46 86.31 78.3 86.29 78.13C86.28 77.95 86.27 77.8 86.27 77.68V77.6C85.78 77.91 85.29 78.18 84.79 78.41C84.29 78.64 83.76 78.83 83.2 78.99C82.51 79.19 81.89 79.25 81.32 79.17C80.75 79.09 80.33 78.8 80.05 78.28C79.78 78.49 79.49 78.69 79.18 78.88C78.86 79.07 78.54 79.23 78.21 79.37C77.88 79.51 77.55 79.62 77.23 79.71C76.91 79.79 76.61 79.84 76.33 79.84C76.04 79.84 75.76 79.8 75.5 79.72C75.24 79.64 75.01 79.52 74.81 79.34C74.61 79.16 74.45 78.92 74.34 78.61C74.23 78.3 74.17 77.92 74.17 77.45V74.3C74.17 74.05 74.11 73.87 73.99 73.75C73.87 73.64 73.71 73.53 73.5 73.43C73.32 73.35 73.17 73.26 73.06 73.18C72.95 73.1 72.89 72.96 72.89 72.78C72.89 72.39 73.23 72.19 73.92 72.19C74.24 72.19 74.53 72.21 74.77 72.24C75.02 72.28 75.22 72.33 75.39 72.4C75.45 72.39 75.49 72.37 75.54 72.36C75.58 72.35 75.62 72.33 75.67 72.32C76.15 72.18 76.56 72.04 76.91 71.9C77.26 71.76 77.6 71.68 77.92 71.67C78.05 71.67 78.17 71.68 78.29 71.7C78.41 71.72 78.51 71.77 78.59 71.84C78.74 71.64 79.05 71.55 79.52 71.55C80.12 71.55 80.59 71.61 80.93 71.74C81.36 71.67 81.69 71.6 81.92 71.53C82.4 71.39 82.81 71.25 83.16 71.11C83.51 70.97 83.85 70.89 84.17 70.88C84.49 70.87 84.76 70.94 84.96 71.1C85.16 71.26 85.27 71.52 85.27 71.89C85.27 72.1 85.18 72.27 85 72.41C84.82 72.54 84.47 72.64 83.97 72.69C83.61 72.73 83.25 72.77 82.91 72.82C82.57 72.86 82.21 72.91 81.85 72.97C81.85 73.01 81.85 73.05 81.86 73.09C81.87 73.13 81.87 73.16 81.87 73.21V76.41H81.83ZM76.25 77.02C76.25 77.15 76.26 77.27 76.28 77.4C76.3 77.53 76.35 77.63 76.42 77.73C76.49 77.83 76.6 77.88 76.75 77.92C76.9 77.96 77.09 77.95 77.33 77.91C78.12 77.78 78.92 77.41 79.75 76.8V76.74V73.52C79.75 73.32 79.68 73.18 79.53 73.1C79.38 73.02 79.23 72.94 79.08 72.87C79.04 72.87 79 72.86 78.97 72.83C78.93 73 78.81 73.13 78.62 73.24C78.43 73.35 78.12 73.42 77.68 73.46C77.44 73.49 77.2 73.52 76.97 73.55C76.73 73.59 76.49 73.62 76.26 73.64V73.81V77.02H76.25ZM77.81 86.21C77.81 85.99 77.76 85.82 77.65 85.73C77.54 85.63 77.37 85.55 77.11 85.48C76.72 85.38 76.52 85.16 76.52 84.83C76.52 84.63 76.58 84.48 76.71 84.37C76.84 84.26 77.08 84.2 77.45 84.2C78.02 84.2 78.48 84.25 78.82 84.35C79.3 84.34 79.84 84.29 80.45 84.22C81.06 84.15 81.68 84.07 82.32 83.97C82.96 83.87 83.59 83.77 84.22 83.68C84.85 83.59 85.43 83.5 85.97 83.43V81.77C84.69 81.92 83.45 82.11 82.23 82.34C81.01 82.56 79.87 82.82 78.82 83.1C78.34 83.23 77.92 83.16 77.56 82.91C77.2 82.66 76.96 82.33 76.85 81.92C76.78 81.68 76.79 81.51 76.87 81.39C76.95 81.28 77.19 81.23 77.58 81.24C78.67 81.27 79.83 81.2 81.04 81.03C82.25 80.86 83.45 80.66 84.63 80.42C85.12 80.32 85.6 80.21 86.06 80.07C86.52 79.94 86.97 79.86 87.41 79.83C88.15 79.79 88.5 80.05 88.46 80.61C88.43 80.92 88.32 81.16 88.12 81.35L87.97 83.31C88.36 83.42 88.56 83.67 88.56 84.07C88.56 84.29 88.46 84.46 88.26 84.55C88.06 84.65 87.71 84.73 87.22 84.78C86.03 84.89 84.84 85.03 83.66 85.2C82.47 85.37 81.26 85.54 80.01 85.7V86.5C80.01 86.96 80.15 87.24 80.43 87.34C80.71 87.44 81.16 87.49 81.78 87.49C82.34 87.49 82.91 87.44 83.48 87.35C84.05 87.26 84.61 87.13 85.15 86.97C85.69 86.81 86.2 86.63 86.67 86.42C87.15 86.22 87.57 86.01 87.93 85.8C88.29 85.59 88.62 85.47 88.91 85.45C89.2 85.43 89.4 85.56 89.53 85.84C89.67 86.13 89.62 86.45 89.39 86.78C89.16 87.11 88.85 87.37 88.45 87.55C87.93 87.79 87.34 88 86.67 88.18C86 88.36 85.33 88.52 84.66 88.65C83.99 88.78 83.34 88.88 82.71 88.94C82.09 89 81.56 89.03 81.14 89.01C80.61 89 80.13 88.95 79.72 88.88C79.31 88.81 78.96 88.7 78.68 88.55C78.4 88.4 78.18 88.2 78.03 87.94C77.88 87.68 77.8 87.34 77.8 86.92V86.21H77.81Z" fill="black"/>
<path d="M94.89 79.82C94.89 79.62 94.82 79.48 94.67 79.4C94.52 79.32 94.37 79.24 94.22 79.17C94.02 79.1 93.8701 79.01 93.7701 78.91C93.6701 78.8 93.61 78.66 93.61 78.48C93.61 78.28 93.6901 78.13 93.8501 78.01C94.0101 77.89 94.27 77.83 94.64 77.83C94.78 77.83 94.91 77.83 95.04 77.84C95.17 77.85 95.29 77.86 95.4 77.87C95.75 77.84 96.15 77.8 96.59 77.74C97.03 77.68 97.4901 77.62 97.9601 77.54C98.4301 77.46 98.8901 77.39 99.3501 77.32C99.8101 77.25 100.22 77.18 100.58 77.11V74.17C100.13 74.23 99.7301 74.28 99.3801 74.34C99.0301 74.4 98.6901 74.46 98.3501 74.54C98.0101 74.62 97.6701 74.7 97.3201 74.8C96.9701 74.9 96.5601 75.01 96.1001 75.14C95.8801 75.21 95.63 75.22 95.37 75.18C95.11 75.14 94.8701 75.06 94.6301 74.95C94.4001 74.84 94.2 74.7 94.03 74.53C93.86 74.36 93.7601 74.18 93.7101 73.98C93.6701 73.78 93.69 73.62 93.78 73.5C93.87 73.37 94.0701 73.31 94.3801 73.31C95.2901 73.31 96.1601 73.25 96.9901 73.13C97.8201 73.01 98.71 72.87 99.68 72.7C99.95 72.66 100.18 72.61 100.38 72.54C100.58 72.47 100.78 72.42 100.97 72.36C101.16 72.3 101.35 72.25 101.55 72.2C101.75 72.15 101.96 72.12 102.2 72.11C102.54 72.08 102.78 72.13 102.93 72.27C103.08 72.4 103.14 72.65 103.11 73.02C103.1 73.17 103.06 73.32 102.99 73.45C102.92 73.58 102.83 73.7 102.71 73.8L102.56 76.98C102.74 77.02 102.89 77.09 103 77.19C103.11 77.29 103.17 77.43 103.17 77.61C103.17 77.79 103.07 77.97 102.86 78.14C102.66 78.31 102.31 78.42 101.82 78.48C100.98 78.58 100.19 78.69 99.44 78.81C98.7 78.93 97.9301 79.05 97.1301 79.18C97.1601 79.32 97.17 79.43 97.17 79.5V81.58C97.17 82.45 97.58 82.86 98.39 82.82C99.39 82.78 100.28 82.59 101.07 82.24C101.86 81.9 102.64 81.44 103.39 80.86C103.71 80.61 104.04 80.48 104.37 80.47C104.7 80.46 104.92 80.6 105.03 80.88C105.1 81.03 105.12 81.19 105.08 81.33C105.04 81.48 104.97 81.62 104.87 81.77C104.77 81.92 104.63 82.06 104.47 82.19C104.31 82.32 104.14 82.44 103.98 82.54C102.96 83.13 101.88 83.58 100.76 83.89C99.64 84.2 98.59 84.35 97.61 84.35C96.7 84.35 96.01 84.14 95.56 83.73C95.1 83.32 94.8801 82.58 94.8801 81.53V79.82H94.89ZM105.82 71.19C105.82 70.95 105.81 70.77 105.78 70.64C105.75 70.51 105.68 70.42 105.55 70.35C105.4 70.27 105.26 70.17 105.14 70.07C105.02 69.97 104.96 69.82 104.96 69.64C104.96 69.44 105.04 69.29 105.2 69.17C105.36 69.05 105.62 68.99 105.99 68.99C106.45 68.99 106.81 69.05 107.07 69.16C107.33 69.27 107.53 69.42 107.66 69.61C107.79 69.8 107.88 70.02 107.91 70.27C107.94 70.52 107.96 70.78 107.96 71.05V76.33C108.11 76.29 108.26 76.25 108.4 76.2C108.54 76.16 108.69 76.1 108.84 76.03C109.34 75.83 109.78 75.74 110.14 75.75C110.5 75.76 110.91 75.87 111.36 76.1C111.53 76.18 111.65 76.3 111.74 76.44C111.82 76.58 111.87 76.71 111.87 76.84C111.87 76.99 111.82 77.12 111.72 77.23C111.62 77.34 111.42 77.4 111.11 77.43C110.75 77.46 110.29 77.51 109.73 77.59C109.18 77.67 108.58 77.76 107.95 77.87V85.21C107.95 85.49 107.93 85.8 107.89 86.14C107.85 86.48 107.77 86.8 107.67 87.11C107.57 87.42 107.43 87.67 107.27 87.88C107.11 88.08 106.92 88.18 106.69 88.18C106.48 88.18 106.32 88.13 106.21 88.02C106.1 87.92 106.01 87.79 105.95 87.64C105.89 87.49 105.85 87.33 105.83 87.16C105.82 86.98 105.81 86.83 105.81 86.71V71.19H105.82Z" fill="black"/>
<path d="M130.13 79.31C129.42 79.37 128.63 79.44 127.79 79.54C126.94 79.64 126.07 79.75 125.16 79.87C124.26 79.99 123.35 80.12 122.44 80.26C121.53 80.4 120.65 80.55 119.79 80.7C118.93 80.85 118.13 81.01 117.38 81.16C116.63 81.31 115.97 81.46 115.39 81.6C115.05 81.68 114.74 81.71 114.46 81.67C114.18 81.63 113.93 81.56 113.71 81.44C113.49 81.32 113.31 81.18 113.15 81.01C112.99 80.84 112.87 80.67 112.77 80.51C112.64 80.27 112.63 80.08 112.74 79.92C112.85 79.77 113.07 79.7 113.42 79.73C113.81 79.74 114.31 79.73 114.91 79.7C115.51 79.67 116.18 79.61 116.91 79.54C117.64 79.47 118.41 79.39 119.23 79.29C120.05 79.19 120.87 79.08 121.68 78.96C122.49 78.84 123.28 78.72 124.03 78.6C124.79 78.48 125.48 78.37 126.11 78.25C126.78 78.12 127.48 77.97 128.2 77.79C128.92 77.61 129.58 77.5 130.17 77.47C130.98 77.44 131.39 77.72 131.39 78.29C131.39 78.56 131.28 78.78 131.08 78.97C130.89 79.18 130.57 79.28 130.13 79.31ZM116.86 75.8C116.86 75.58 116.81 75.41 116.7 75.32C116.59 75.23 116.42 75.14 116.16 75.07C115.77 74.97 115.57 74.75 115.57 74.42C115.57 74.22 115.63 74.07 115.76 73.96C115.89 73.85 116.13 73.79 116.5 73.79C116.93 73.79 117.29 73.82 117.55 73.87C118.01 73.87 118.55 73.84 119.16 73.79C119.77 73.74 120.4 73.66 121.06 73.58C121.72 73.5 122.37 73.4 123.02 73.31C123.66 73.21 124.26 73.12 124.81 73.04V71.59C123.58 71.74 122.38 71.93 121.22 72.15C120.06 72.37 118.97 72.62 117.93 72.9C117.45 73.03 117.03 72.96 116.67 72.71C116.31 72.46 116.07 72.13 115.95 71.72C115.88 71.48 115.89 71.31 115.97 71.19C116.05 71.08 116.29 71.03 116.69 71.04C117.78 71.07 118.93 70.99 120.14 70.82C121.35 70.64 122.54 70.44 123.71 70.2C124.2 70.1 124.64 69.99 125.04 69.86C125.43 69.73 125.85 69.66 126.28 69.63C127.02 69.59 127.37 69.85 127.33 70.41C127.3 70.73 127.18 70.98 126.95 71.17L126.83 72.85C127.21 72.93 127.4 73.18 127.4 73.59C127.4 73.81 127.3 73.98 127.09 74.07C126.88 74.16 126.54 74.25 126.05 74.3C124.86 74.41 123.7 74.55 122.57 74.72C121.44 74.89 120.27 75.06 119.05 75.25V75.57C119.05 76.03 119.19 76.31 119.47 76.41C119.75 76.51 120.2 76.56 120.82 76.56C121.38 76.56 121.94 76.51 122.5 76.42C123.06 76.33 123.6 76.21 124.13 76.06C124.66 75.91 125.15 75.74 125.62 75.54C126.09 75.34 126.51 75.14 126.87 74.93C127.24 74.72 127.56 74.6 127.85 74.58C128.14 74.56 128.34 74.69 128.47 74.97C128.61 75.26 128.56 75.58 128.33 75.91C128.1 76.24 127.79 76.5 127.39 76.68C126.87 76.92 126.28 77.13 125.63 77.3C124.98 77.48 124.32 77.63 123.65 77.75C122.98 77.88 122.35 77.97 121.74 78.02C121.13 78.08 120.62 78.1 120.19 78.08C119.66 78.07 119.18 78.02 118.77 77.95C118.36 77.88 118.01 77.77 117.73 77.62C117.45 77.47 117.23 77.27 117.08 77.01C116.93 76.75 116.85 76.41 116.85 75.99V75.8H116.86ZM117.28 86.95C117.28 86.73 117.23 86.56 117.12 86.47C117.01 86.37 116.84 86.29 116.58 86.22C116.19 86.12 115.99 85.9 115.99 85.57C115.99 85.37 116.05 85.22 116.18 85.11C116.31 85 116.55 84.94 116.92 84.94C117.35 84.94 117.71 84.97 117.97 85.02C118.43 85.02 118.97 84.99 119.58 84.94C120.19 84.89 120.82 84.81 121.48 84.73C122.14 84.65 122.79 84.55 123.44 84.46C124.09 84.36 124.68 84.27 125.23 84.19V82.74C124 82.89 122.8 83.08 121.64 83.3C120.48 83.52 119.39 83.77 118.35 84.05C117.87 84.18 117.45 84.11 117.09 83.86C116.73 83.61 116.49 83.28 116.38 82.87C116.31 82.63 116.32 82.46 116.4 82.34C116.48 82.23 116.72 82.18 117.11 82.19C118.2 82.22 119.35 82.14 120.56 81.97C121.77 81.79 122.96 81.59 124.14 81.35C124.63 81.25 125.07 81.14 125.46 81.01C125.85 80.88 126.27 80.81 126.7 80.78C127.44 80.74 127.79 81 127.75 81.56C127.72 81.88 127.6 82.13 127.37 82.32L127.24 84C127.62 84.08 127.81 84.33 127.81 84.74C127.81 84.96 127.71 85.13 127.51 85.22C127.31 85.31 126.96 85.4 126.47 85.45C125.28 85.56 124.12 85.7 122.99 85.87C121.86 86.04 120.69 86.21 119.47 86.37V86.39V86.81C119.47 87.27 119.61 87.55 119.89 87.65C120.17 87.75 120.62 87.8 121.24 87.8C121.8 87.8 122.36 87.75 122.92 87.66C123.48 87.57 124.02 87.45 124.55 87.3C125.08 87.15 125.57 86.98 126.04 86.78C126.51 86.58 126.93 86.38 127.29 86.17C127.65 85.96 127.98 85.84 128.27 85.82C128.56 85.8 128.76 85.93 128.89 86.21C129.03 86.5 128.98 86.82 128.75 87.15C128.52 87.48 128.21 87.74 127.81 87.92C127.29 88.16 126.71 88.36 126.05 88.54C125.4 88.72 124.74 88.87 124.07 88.99C123.4 89.12 122.77 89.21 122.16 89.26C121.55 89.32 121.04 89.34 120.61 89.32C120.08 89.31 119.6 89.26 119.19 89.19C118.78 89.12 118.43 89.01 118.15 88.86C117.87 88.71 117.65 88.51 117.5 88.25C117.35 87.99 117.27 87.65 117.27 87.23V86.95H117.28Z" fill="black"/>
<path d="M148.66 75.78C148.66 76.52 148.51 77.2 148.22 77.82C147.93 78.44 147.53 78.97 147.03 79.43C146.53 79.89 145.96 80.24 145.31 80.49C144.66 80.74 143.98 80.87 143.26 80.87C142.68 80.87 142.15 80.78 141.65 80.61C141.15 80.44 140.72 80.18 140.36 79.84C140 79.5 139.71 79.09 139.51 78.59C139.31 78.09 139.21 77.52 139.21 76.88C139.21 76.14 139.36 75.45 139.65 74.83C139.94 74.21 140.34 73.67 140.84 73.22C141.34 72.77 141.91 72.42 142.56 72.17C143.21 71.92 143.9 71.79 144.63 71.79C145.21 71.79 145.74 71.88 146.23 72.05C146.72 72.23 147.15 72.48 147.51 72.82C147.87 73.16 148.16 73.57 148.36 74.07C148.56 74.56 148.66 75.13 148.66 75.78ZM143.97 73.51C143.59 73.55 143.24 73.66 142.93 73.85C142.62 74.04 142.34 74.26 142.12 74.54C141.9 74.82 141.72 75.14 141.6 75.51C141.48 75.87 141.42 76.27 141.42 76.69C141.42 77.5 141.64 78.14 142.09 78.61C142.54 79.08 143.13 79.27 143.88 79.19C144.26 79.15 144.61 79.04 144.92 78.85C145.24 78.67 145.5 78.43 145.73 78.15C145.95 77.86 146.13 77.54 146.24 77.17C146.35 76.8 146.42 76.42 146.42 76.01C146.42 75.18 146.2 74.54 145.75 74.08C145.31 73.61 144.71 73.42 143.97 73.51ZM142.98 84.59C142.98 84.37 142.97 84.22 142.94 84.15C142.91 84.08 142.83 84.01 142.71 83.94C142.56 83.86 142.42 83.77 142.3 83.67C142.18 83.57 142.12 83.43 142.12 83.25C142.12 83.05 142.2 82.9 142.36 82.78C142.52 82.66 142.78 82.6 143.15 82.6C143.6 82.6 143.96 82.65 144.22 82.76C144.48 82.87 144.69 83 144.83 83.17C144.97 83.34 145.06 83.53 145.1 83.76C145.14 83.99 145.16 84.22 145.16 84.45V86.11C145.16 86.33 145.2 86.51 145.29 86.65C145.37 86.78 145.49 86.89 145.65 86.97C145.8 87.05 145.99 87.1 146.21 87.12C146.43 87.14 146.67 87.15 146.94 87.15C147.5 87.15 148.06 87.1 148.61 87.01C149.16 86.92 149.7 86.79 150.22 86.63C150.74 86.47 151.22 86.29 151.68 86.08C152.14 85.88 152.55 85.67 152.91 85.46C153.27 85.25 153.6 85.13 153.89 85.11C154.18 85.09 154.38 85.22 154.51 85.5C154.65 85.79 154.6 86.11 154.37 86.44C154.14 86.77 153.83 87.03 153.43 87.21C152.91 87.45 152.33 87.66 151.68 87.85C151.03 88.04 150.39 88.2 149.73 88.32C149.08 88.45 148.45 88.54 147.85 88.61C147.25 88.68 146.73 88.7 146.31 88.67C145.82 88.66 145.37 88.61 144.96 88.53C144.55 88.45 144.2 88.32 143.91 88.13C143.62 87.94 143.38 87.68 143.22 87.35C143.05 87.02 142.97 86.59 142.97 86.06V84.59H142.98ZM151.25 71.19C151.25 70.95 151.24 70.77 151.21 70.64C151.18 70.51 151.1 70.42 150.98 70.35C150.83 70.27 150.69 70.17 150.57 70.07C150.45 69.97 150.39 69.82 150.39 69.64C150.39 69.44 150.47 69.29 150.63 69.17C150.79 69.05 151.05 68.99 151.42 68.99C151.88 68.99 152.24 69.05 152.5 69.16C152.76 69.27 152.96 69.42 153.09 69.61C153.22 69.8 153.31 70.02 153.34 70.27C153.37 70.52 153.39 70.78 153.39 71.05V74.86C153.54 74.82 153.69 74.78 153.83 74.73C153.97 74.69 154.12 74.63 154.27 74.56C154.77 74.36 155.21 74.27 155.57 74.28C155.93 74.29 156.34 74.4 156.79 74.63C156.96 74.71 157.08 74.83 157.17 74.97C157.25 75.11 157.3 75.24 157.3 75.37C157.3 75.52 157.25 75.65 157.15 75.76C157.05 75.86 156.85 75.93 156.54 75.96C156.18 75.99 155.72 76.04 155.16 76.12C154.61 76.2 154.01 76.29 153.38 76.4V80.65C153.38 80.93 153.36 81.24 153.32 81.58C153.28 81.92 153.2 82.24 153.1 82.55C153 82.86 152.86 83.11 152.7 83.32C152.54 83.53 152.35 83.62 152.12 83.62C151.91 83.62 151.75 83.57 151.64 83.46C151.53 83.36 151.44 83.23 151.38 83.08C151.32 82.93 151.28 82.77 151.26 82.6C151.24 82.43 151.24 82.27 151.24 82.15V71.19H151.25Z" fill="black"/>
<path d="M165.59 75.48C165.42 75.89 165.23 76.31 165.02 76.74C164.81 77.18 164.57 77.62 164.31 78.07C164.74 78.45 165.16 78.8 165.55 79.13C165.94 79.46 166.32 79.75 166.69 80C167 80.22 167.27 80.41 167.5 80.55C167.73 80.69 167.94 80.81 168.13 80.92C168.32 81.03 168.49 81.13 168.64 81.25C168.79 81.37 168.95 81.5 169.1 81.67C169.3 81.91 169.38 82.16 169.35 82.43C169.32 82.7 169.19 82.93 168.95 83.14C168.75 83.31 168.51 83.4 168.21 83.41C167.92 83.42 167.59 83.24 167.22 82.86C166.77 82.38 166.22 81.85 165.56 81.26C164.9 80.67 164.19 80.06 163.44 79.43C162.77 80.43 162.02 81.39 161.19 82.33C160.36 83.27 159.51 84.14 158.62 84.94C158.52 85.02 158.39 85.09 158.22 85.15C158.05 85.21 157.92 85.19 157.82 85.09C157.71 84.98 157.69 84.84 157.76 84.68C157.83 84.52 157.94 84.36 158.1 84.21C158.65 83.59 159.18 82.91 159.7 82.15C160.22 81.39 160.7 80.61 161.15 79.81C161.6 79 162.01 78.19 162.37 77.38C162.73 76.57 163.04 75.8 163.27 75.07C163.35 74.82 163.41 74.59 163.43 74.39C163.45 74.19 163.38 73.99 163.23 73.79C163.15 73.68 163.07 73.57 163 73.45C162.93 73.33 162.94 73.18 163.02 72.99C163.09 72.84 163.23 72.74 163.43 72.7C163.63 72.66 163.9 72.71 164.22 72.87C164.81 73.14 165.25 73.48 165.53 73.89C165.82 74.29 165.84 74.83 165.59 75.48ZM171.01 71.19C171.01 70.95 171 70.77 170.97 70.64C170.94 70.51 170.86 70.42 170.74 70.35C170.59 70.27 170.45 70.17 170.33 70.07C170.21 69.97 170.15 69.82 170.15 69.64C170.15 69.44 170.23 69.29 170.39 69.17C170.55 69.05 170.81 68.99 171.18 68.99C171.64 68.99 172 69.05 172.26 69.16C172.52 69.27 172.72 69.42 172.85 69.61C172.98 69.8 173.07 70.02 173.1 70.27C173.13 70.52 173.15 70.78 173.15 71.05V76.33C173.3 76.29 173.45 76.25 173.59 76.2C173.73 76.16 173.88 76.1 174.03 76.03C174.53 75.83 174.97 75.74 175.33 75.75C175.69 75.76 176.1 75.87 176.55 76.1C176.72 76.18 176.84 76.3 176.93 76.44C177.01 76.58 177.06 76.71 177.06 76.84C177.06 76.99 177.01 77.12 176.91 77.23C176.81 77.34 176.61 77.4 176.3 77.43C175.94 77.46 175.48 77.51 174.92 77.59C174.37 77.67 173.77 77.76 173.14 77.87V85.21C173.14 85.49 173.12 85.8 173.08 86.14C173.04 86.48 172.96 86.8 172.86 87.11C172.76 87.42 172.62 87.67 172.46 87.88C172.3 88.08 172.11 88.18 171.88 88.18C171.67 88.18 171.51 88.13 171.4 88.02C171.29 87.91 171.2 87.79 171.14 87.64C171.08 87.49 171.04 87.33 171.02 87.16C171 86.99 171 86.83 171 86.71V71.19H171.01Z" fill="black"/>
<path d="M185.77 75.48C185.6 75.89 185.41 76.31 185.2 76.74C184.99 77.18 184.75 77.62 184.49 78.07C184.92 78.45 185.34 78.8 185.73 79.13C186.12 79.46 186.5 79.75 186.86 80C187.17 80.22 187.44 80.41 187.67 80.55C187.9 80.69 188.11 80.81 188.3 80.92C188.49 81.03 188.66 81.13 188.82 81.25C188.98 81.37 189.13 81.5 189.28 81.67C189.48 81.91 189.56 82.16 189.53 82.43C189.5 82.7 189.37 82.93 189.13 83.14C188.93 83.31 188.69 83.4 188.39 83.41C188.1 83.42 187.77 83.24 187.4 82.86C186.95 82.38 186.4 81.85 185.74 81.26C185.08 80.67 184.37 80.06 183.62 79.43C182.95 80.43 182.2 81.39 181.37 82.33C180.54 83.27 179.69 84.14 178.8 84.94C178.7 85.02 178.57 85.09 178.4 85.15C178.23 85.21 178.1 85.19 178 85.09C177.89 84.98 177.87 84.84 177.94 84.68C178.01 84.52 178.12 84.36 178.28 84.21C178.83 83.59 179.36 82.91 179.88 82.15C180.4 81.39 180.88 80.61 181.33 79.81C181.78 79 182.18 78.19 182.55 77.38C182.91 76.57 183.22 75.8 183.45 75.07C183.53 74.82 183.59 74.59 183.61 74.39C183.63 74.19 183.57 73.99 183.41 73.79C183.33 73.68 183.25 73.57 183.18 73.45C183.11 73.33 183.12 73.18 183.2 72.99C183.27 72.84 183.41 72.74 183.61 72.7C183.81 72.66 184.08 72.71 184.4 72.87C184.99 73.14 185.43 73.48 185.71 73.89C186.01 74.29 186.03 74.83 185.77 75.48ZM192.15 77.48C191.97 77.52 191.8 77.56 191.66 77.61C191.51 77.65 191.38 77.69 191.27 77.74C191.03 77.84 190.79 77.93 190.56 78C190.33 78.07 190.08 78.13 189.83 78.15C189.58 78.17 189.33 78.15 189.07 78.1C188.81 78.04 188.55 77.92 188.28 77.74C187.94 77.52 187.78 77.29 187.78 77.07C187.78 76.79 187.96 76.62 188.33 76.57C188.82 76.5 189.41 76.42 190.09 76.32C190.77 76.22 191.46 76.12 192.16 76V71.21C192.16 70.97 192.15 70.79 192.12 70.66C192.09 70.53 192.02 70.44 191.89 70.37C191.74 70.29 191.6 70.19 191.48 70.09C191.36 69.99 191.3 69.84 191.3 69.66C191.3 69.46 191.38 69.31 191.54 69.19C191.7 69.07 191.96 69.01 192.33 69.01C192.79 69.01 193.15 69.07 193.41 69.18C193.67 69.29 193.87 69.44 194 69.63C194.13 69.82 194.22 70.04 194.25 70.29C194.28 70.54 194.3 70.8 194.3 71.07V85.22C194.3 85.5 194.28 85.81 194.24 86.15C194.2 86.49 194.12 86.81 194.02 87.12C193.91 87.43 193.78 87.68 193.62 87.89C193.46 88.09 193.27 88.19 193.04 88.19C192.83 88.19 192.67 88.14 192.56 88.03C192.45 87.93 192.36 87.8 192.3 87.65C192.24 87.5 192.2 87.34 192.18 87.17C192.17 86.99 192.16 86.84 192.16 86.72V77.48H192.15Z" fill="black"/>
<path d="M39.58 105.05C39.58 104.85 39.51 104.71 39.36 104.63C39.21 104.55 39.06 104.47 38.91 104.4C38.71 104.33 38.5601 104.24 38.4601 104.14C38.3601 104.03 38.3 103.89 38.3 103.71C38.3 103.51 38.38 103.36 38.54 103.24C38.7 103.12 38.96 103.06 39.33 103.06C39.47 103.06 39.6 103.06 39.73 103.07C39.86 103.08 39.98 103.09 40.09 103.1C40.44 103.07 40.84 103.03 41.28 102.97C41.72 102.91 42.18 102.85 42.65 102.77C43.12 102.69 43.58 102.62 44.04 102.55C44.5 102.48 44.9101 102.41 45.2701 102.34V99.4C44.8201 99.46 44.4201 99.51 44.0701 99.57C43.7201 99.63 43.38 99.69 43.04 99.77C42.7 99.85 42.36 99.93 42.01 100.03C41.66 100.13 41.25 100.24 40.79 100.37C40.57 100.44 40.32 100.45 40.06 100.41C39.8 100.37 39.5601 100.29 39.3201 100.18C39.0901 100.07 38.89 99.93 38.72 99.76C38.55 99.59 38.45 99.41 38.4 99.21C38.36 99.01 38.38 98.85 38.47 98.73C38.56 98.6 38.7601 98.54 39.0701 98.54C39.9801 98.54 40.85 98.48 41.68 98.36C42.51 98.24 43.4 98.1 44.37 97.93C44.64 97.89 44.8701 97.84 45.0701 97.77C45.2701 97.71 45.47 97.65 45.66 97.59C45.85 97.53 46.0401 97.48 46.2401 97.43C46.4401 97.38 46.65 97.35 46.89 97.34C47.23 97.31 47.47 97.36 47.62 97.5C47.77 97.63 47.83 97.88 47.8 98.25C47.79 98.4 47.75 98.55 47.68 98.68C47.61 98.81 47.52 98.93 47.4 99.03L47.25 102.21C47.43 102.25 47.58 102.32 47.69 102.42C47.8 102.52 47.86 102.66 47.86 102.84C47.86 103.02 47.76 103.2 47.56 103.37C47.36 103.54 47.0101 103.65 46.5201 103.71C45.6801 103.81 44.89 103.92 44.14 104.04C43.4 104.16 42.63 104.28 41.83 104.41C41.86 104.55 41.87 104.66 41.87 104.73V106.81C41.87 107.68 42.28 108.09 43.09 108.05C44.09 108.01 44.9801 107.82 45.7701 107.47C46.5601 107.13 47.34 106.67 48.09 106.09C48.41 105.84 48.7401 105.71 49.0701 105.7C49.4001 105.69 49.62 105.83 49.73 106.11C49.8 106.26 49.82 106.42 49.78 106.56C49.74 106.71 49.6801 106.85 49.5701 107C49.4701 107.15 49.33 107.29 49.17 107.42C49.01 107.55 48.84 107.67 48.68 107.77C47.66 108.36 46.5801 108.81 45.4601 109.12C44.3401 109.43 43.29 109.58 42.31 109.58C41.4 109.58 40.72 109.37 40.26 108.96C39.8 108.55 39.58 107.81 39.58 106.76V105.05ZM51.25 96.43C51.25 96.19 51.2401 96.01 51.2101 95.88C51.1801 95.75 51.11 95.66 50.98 95.59C50.83 95.51 50.6901 95.41 50.5701 95.31C50.4501 95.21 50.39 95.06 50.39 94.88C50.39 94.68 50.4701 94.53 50.6301 94.41C50.7901 94.29 51.05 94.23 51.42 94.23C51.88 94.23 52.24 94.29 52.5 94.4C52.76 94.51 52.96 94.66 53.09 94.85C53.22 95.04 53.31 95.26 53.34 95.51C53.37 95.76 53.39 96.02 53.39 96.29V110.44C53.39 110.72 53.37 111.03 53.33 111.37C53.29 111.71 53.21 112.03 53.11 112.34C53 112.65 52.8701 112.9 52.7101 113.11C52.5501 113.31 52.3601 113.41 52.1301 113.41C51.9201 113.41 51.76 113.36 51.65 113.25C51.54 113.14 51.45 113.02 51.39 112.87C51.33 112.72 51.2901 112.56 51.2701 112.39C51.2601 112.21 51.25 112.06 51.25 111.94V96.43Z" fill="black"/>
<path d="M67.4401 102.99C67.4401 103.72 67.2901 104.4 67.0001 105.04C66.7101 105.68 66.3101 106.24 65.8001 106.71C65.3001 107.19 64.7101 107.56 64.0401 107.83C63.3701 108.1 62.6801 108.24 61.9501 108.24C61.3201 108.24 60.7401 108.14 60.2301 107.95C59.7201 107.76 59.2601 107.48 58.8801 107.12C58.5001 106.76 58.2101 106.33 58.0001 105.82C57.7901 105.31 57.6801 104.74 57.6801 104.13C57.6801 103.39 57.8301 102.7 58.1301 102.08C58.4301 101.46 58.8401 100.92 59.3601 100.46C59.8801 100 60.4701 99.65 61.1401 99.39C61.8101 99.13 62.5101 99 63.2501 99C63.8701 99 64.4301 99.09 64.9401 99.27C65.4501 99.45 65.8901 99.72 66.2601 100.07C66.6301 100.42 66.9201 100.84 67.1201 101.33C67.3401 101.82 67.4401 102.37 67.4401 102.99ZM62.6101 100.72C62.2501 100.76 61.9001 100.86 61.5801 101.03C61.2601 101.19 60.9701 101.41 60.7301 101.67C60.4801 101.94 60.2901 102.26 60.1401 102.64C59.9901 103.02 59.9201 103.45 59.9201 103.94C59.9201 104.42 59.9901 104.82 60.1301 105.15C60.2701 105.48 60.4601 105.75 60.7001 105.95C60.9401 106.15 61.2201 106.29 61.5301 106.36C61.8501 106.43 62.1801 106.44 62.5301 106.4C62.8801 106.36 63.2201 106.26 63.5501 106.11C63.8801 105.96 64.1701 105.75 64.4101 105.48C64.6601 105.21 64.8501 104.89 65.0001 104.51C65.1501 104.13 65.2201 103.7 65.2201 103.21C65.2201 102.75 65.1501 102.35 65.0101 102.01C64.8701 101.67 64.6801 101.4 64.4401 101.2C64.2001 101 63.9201 100.86 63.6101 100.78C63.3001 100.7 62.9601 100.68 62.6101 100.72ZM69.8601 96.43C69.8601 96.19 69.8501 96.01 69.8201 95.88C69.7901 95.75 69.7201 95.66 69.5901 95.59C69.4401 95.51 69.3001 95.41 69.1801 95.31C69.0601 95.21 69.0001 95.06 69.0001 94.88C69.0001 94.68 69.0801 94.53 69.2401 94.41C69.4001 94.29 69.6601 94.23 70.0301 94.23C70.4901 94.23 70.8501 94.29 71.1101 94.4C71.3701 94.51 71.5701 94.66 71.7001 94.85C71.8301 95.04 71.9201 95.26 71.9501 95.51C71.9801 95.76 72.0001 96.02 72.0001 96.29V101.57C72.1501 101.53 72.3001 101.49 72.4401 101.44C72.5801 101.4 72.7301 101.34 72.8801 101.27C73.3801 101.07 73.8201 100.98 74.1801 100.99C74.5401 101 74.9501 101.11 75.4001 101.34C75.5701 101.42 75.6901 101.54 75.7801 101.68C75.8601 101.82 75.9101 101.95 75.9101 102.08C75.9101 102.23 75.8601 102.36 75.7601 102.47C75.6601 102.58 75.4601 102.64 75.1501 102.67C74.7901 102.7 74.3301 102.75 73.7701 102.83C73.2201 102.91 72.6201 103 71.9901 103.11V110.45C71.9901 110.73 71.9701 111.04 71.9301 111.38C71.8901 111.72 71.8101 112.04 71.7101 112.35C71.6101 112.66 71.4701 112.91 71.3101 113.12C71.1501 113.32 70.9601 113.42 70.7301 113.42C70.5201 113.42 70.3601 113.37 70.2501 113.26C70.1401 113.16 70.0501 113.03 69.9901 112.88C69.9301 112.73 69.8901 112.57 69.8701 112.4C69.8601 112.22 69.8501 112.07 69.8501 111.95V96.43H69.8601Z" fill="black"/>
<path d="M77.37 109.85C78.01 109.18 78.63 108.51 79.21 107.85C79.79 107.19 80.33 106.51 80.84 105.82C81.35 105.13 81.81 104.4 82.25 103.65C82.68 102.9 83.08 102.1 83.45 101.24C83.59 100.92 83.64 100.65 83.6 100.43C83.56 100.21 83.31 100.14 82.86 100.21C82.27 100.29 81.68 100.41 81.08 100.57C80.48 100.73 79.81 100.9 79.05 101.1C78.57 101.23 78.18 101.16 77.86 100.91C77.54 100.66 77.32 100.33 77.18 99.92C77.03 99.43 77.24 99.2 77.81 99.25C78.9 99.32 79.98 99.27 81.05 99.11C82.11 98.95 83.22 98.75 84.35 98.51C84.95 98.38 85.41 98.38 85.72 98.49C86.03 98.6 86.22 98.79 86.31 99.07C86.39 99.34 86.39 99.68 86.29 100.08C86.19 100.48 86.03 100.9 85.81 101.33C84.77 103.38 83.62 105.14 82.34 106.63C81.06 108.12 79.61 109.46 77.99 110.65C77.79 110.8 77.61 110.9 77.45 110.93C77.29 110.96 77.15 110.93 77.04 110.81C76.93 110.68 76.92 110.53 77.01 110.35C77.09 110.17 77.21 110 77.37 109.85ZM89.63 96.43C89.63 96.19 89.62 96.01 89.59 95.88C89.56 95.75 89.49 95.66 89.36 95.59C89.21 95.51 89.07 95.41 88.95 95.31C88.83 95.21 88.77 95.06 88.77 94.88C88.77 94.68 88.85 94.53 89.01 94.41C89.17 94.29 89.43 94.23 89.8 94.23C90.26 94.23 90.62 94.29 90.88 94.4C91.14 94.51 91.34 94.66 91.47 94.85C91.6 95.04 91.69 95.26 91.72 95.51C91.75 95.76 91.77 96.02 91.77 96.29V101.57C91.92 101.53 92.07 101.49 92.21 101.44C92.35 101.4 92.5 101.34 92.65 101.27C93.15 101.07 93.59 100.98 93.95 100.99C94.31 101 94.72 101.11 95.17 101.34C95.34 101.42 95.46 101.54 95.55 101.68C95.63 101.82 95.68 101.95 95.68 102.08C95.68 102.23 95.63 102.36 95.53 102.47C95.43 102.58 95.23 102.64 94.92 102.67C94.56 102.7 94.1 102.75 93.54 102.83C92.99 102.91 92.39 103 91.76 103.11V110.45C91.76 110.73 91.74 111.04 91.7 111.38C91.66 111.72 91.58 112.04 91.48 112.35C91.38 112.66 91.24 112.91 91.08 113.12C90.92 113.32 90.73 113.42 90.5 113.42C90.29 113.42 90.13 113.37 90.02 113.26C89.91 113.16 89.82 113.03 89.76 112.88C89.7 112.73 89.66 112.57 89.64 112.4C89.63 112.22 89.62 112.07 89.62 111.95V96.43H89.63Z" fill="black"/>
<path d="M115.28 108.37C114.55 108.64 113.69 108.93 112.7 109.25C111.71 109.57 110.71 109.88 109.7 110.19C108.69 110.49 107.73 110.77 106.82 111.01C105.91 111.26 105.16 111.43 104.57 111.53C104.28 111.57 103.99 111.56 103.71 111.51C103.43 111.45 103.17 111.37 102.94 111.25C102.71 111.13 102.51 110.99 102.35 110.84C102.19 110.69 102.08 110.53 102.02 110.38C101.92 110.13 101.95 109.94 102.11 109.8C102.27 109.66 102.51 109.6 102.84 109.6C103.23 109.61 103.65 109.6 104.1 109.57C104.55 109.54 104.95 109.5 105.32 109.45C105.59 109.42 105.91 109.38 106.29 109.31C106.67 109.25 107.1 109.17 107.57 109.07V107.6C106.66 107.56 105.94 107.32 105.4 106.9C104.86 106.48 104.6 105.9 104.6 105.19C104.6 104.77 104.7 104.37 104.89 103.99C105.09 103.61 105.36 103.27 105.72 102.98C106.08 102.69 106.51 102.44 107 102.23C107.49 102.02 108.05 101.89 108.67 101.82C109.27 101.74 109.83 101.74 110.33 101.82C110.83 101.9 111.26 102.05 111.61 102.26C111.96 102.47 112.23 102.74 112.43 103.08C112.63 103.42 112.72 103.79 112.72 104.22C112.72 104.95 112.45 105.59 111.91 106.13C111.37 106.68 110.64 107.08 109.73 107.33V108.57C110.66 108.35 111.59 108.11 112.55 107.85C113.5 107.6 114.4 107.34 115.24 107.07V96.43C115.24 96.19 115.23 96.01 115.2 95.88C115.17 95.75 115.1 95.66 114.97 95.59C114.82 95.51 114.68 95.41 114.56 95.31C114.44 95.21 114.38 95.06 114.38 94.88C114.38 94.68 114.46 94.53 114.62 94.41C114.78 94.29 115.04 94.23 115.41 94.23C115.87 94.23 116.23 94.29 116.49 94.4C116.75 94.51 116.95 94.66 117.08 94.85C117.21 95.04 117.3 95.26 117.33 95.51C117.36 95.76 117.38 96.02 117.38 96.29V101.57C117.53 101.53 117.68 101.49 117.82 101.44C117.96 101.4 118.11 101.34 118.26 101.27C118.76 101.07 119.2 100.98 119.56 100.99C119.92 101 120.33 101.11 120.78 101.34C120.95 101.42 121.07 101.54 121.16 101.68C121.24 101.82 121.29 101.95 121.29 102.08C121.29 102.23 121.24 102.36 121.14 102.47C121.04 102.58 120.84 102.64 120.53 102.67C120.17 102.7 119.71 102.75 119.15 102.83C118.6 102.91 118 103 117.37 103.11V110.45C117.37 110.73 117.35 111.04 117.31 111.38C117.27 111.72 117.19 112.04 117.09 112.35C116.99 112.66 116.85 112.91 116.69 113.12C116.53 113.32 116.34 113.42 116.11 113.42C115.9 113.42 115.74 113.37 115.63 113.26C115.52 113.16 115.43 113.03 115.37 112.88C115.31 112.73 115.27 112.57 115.25 112.4C115.24 112.22 115.23 112.07 115.23 111.95V108.37H115.28ZM113.39 100.38C112.65 100.45 111.89 100.54 111.11 100.65C110.33 100.76 109.56 100.88 108.8 101.02C108.04 101.15 107.29 101.3 106.57 101.45C105.85 101.6 105.18 101.77 104.56 101.93C104.08 102.06 103.67 101.99 103.33 101.74C102.99 101.49 102.74 101.16 102.58 100.75C102.38 100.26 102.56 100.04 103.11 100.08C103.53 100.12 104.03 100.12 104.6 100.07C105.17 100.02 105.79 99.95 106.45 99.86C107.11 99.77 107.79 99.66 108.49 99.54C109.19 99.42 109.87 99.3 110.53 99.17C111.1 99.06 111.62 98.94 112.07 98.81C112.52 98.68 113 98.61 113.52 98.58C113.81 98.57 114.05 98.62 114.21 98.75C114.38 98.88 114.45 99.09 114.42 99.38C114.41 99.62 114.31 99.84 114.15 100.03C113.98 100.24 113.73 100.36 113.39 100.38ZM111.18 97.15C111.15 97.54 111.05 97.84 110.88 98.04C110.7 98.24 110.43 98.37 110.07 98.43C109.79 98.47 109.53 98.51 109.3 98.55C109.07 98.59 108.84 98.62 108.62 98.65C108.4 98.69 108.17 98.73 107.95 98.78C107.73 98.83 107.47 98.89 107.19 98.96C106.84 99.04 106.52 98.99 106.24 98.79C105.96 98.59 105.74 98.36 105.59 98.08C105.42 97.77 105.39 97.56 105.49 97.46C105.59 97.36 105.82 97.3 106.18 97.28C106.89 97.25 107.53 97.21 108.08 97.14C108.63 97.08 109.18 96.97 109.71 96.81C109.85 96.78 109.99 96.75 110.14 96.72C110.29 96.68 110.45 96.65 110.63 96.63C110.87 96.6 111.02 96.64 111.09 96.73C111.17 96.82 111.2 96.96 111.18 97.15ZM106.75 104.86C106.75 105.27 106.93 105.57 107.3 105.77C107.66 105.97 108.13 106.04 108.71 105.97C109.26 105.9 109.71 105.72 110.08 105.43C110.44 105.14 110.63 104.8 110.63 104.39C110.63 103.97 110.45 103.66 110.08 103.48C109.72 103.29 109.26 103.23 108.71 103.3C108.13 103.37 107.67 103.54 107.3 103.82C106.93 104.1 106.75 104.44 106.75 104.86Z" fill="black"/>
<path d="M124.18 100.11C124.18 99.96 124.17 99.83 124.14 99.74C124.11 99.65 124.07 99.57 124.01 99.51C123.95 99.45 123.88 99.4 123.8 99.36C123.72 99.33 123.62 99.28 123.51 99.22C123.33 99.14 123.18 99.05 123.07 98.95C122.96 98.85 122.9 98.71 122.9 98.53C122.9 98.33 122.98 98.18 123.14 98.06C123.3 97.94 123.56 97.88 123.93 97.88C124.42 97.88 124.83 97.92 125.16 98C125.49 98.08 125.75 98.19 125.95 98.34C126.15 98.49 126.28 98.66 126.36 98.86C126.44 99.06 126.48 99.28 126.48 99.53V103.02C126.48 103.47 126.58 103.78 126.78 103.97C126.98 104.16 127.29 104.24 127.69 104.24C128.5 104.24 129.36 104.06 130.27 103.71C131.18 103.36 132 102.91 132.76 102.36C133.08 102.12 133.4 101.98 133.73 101.94C134.06 101.9 134.27 102.02 134.38 102.3C134.45 102.45 134.47 102.61 134.43 102.76C134.39 102.91 134.32 103.06 134.22 103.21C134.11 103.36 133.98 103.49 133.82 103.62C133.66 103.75 133.49 103.86 133.33 103.96C132.31 104.52 131.23 104.97 130.1 105.29C128.97 105.62 127.92 105.78 126.94 105.78C126.03 105.78 125.34 105.57 124.88 105.16C124.42 104.75 124.19 104.01 124.19 102.96V100.11H124.18ZM127.61 109.15C127.76 108.81 127.72 108.5 127.48 108.2C127.37 108.05 127.28 107.9 127.23 107.76C127.18 107.62 127.18 107.47 127.25 107.32C127.33 107.17 127.47 107.05 127.67 106.98C127.87 106.91 128.13 106.95 128.45 107.11C128.74 107.24 129.01 107.38 129.24 107.54C129.47 107.7 129.65 107.88 129.78 108.09C129.91 108.29 129.97 108.53 129.96 108.78C129.95 109.04 129.86 109.33 129.67 109.65C129.6 109.76 129.53 109.87 129.47 109.97C129.41 110.07 129.34 110.17 129.27 110.26C129.35 110.29 129.42 110.31 129.48 110.32C129.8 110.42 130.11 110.51 130.4 110.6C130.69 110.69 130.91 110.78 131.06 110.86C131.33 111.01 131.47 111.21 131.5 111.45C131.53 111.69 131.45 111.91 131.27 112.12C131.03 112.37 130.78 112.49 130.51 112.48C130.24 112.47 129.96 112.38 129.67 112.21C129.47 112.1 129.27 111.98 129.06 111.85C128.85 111.72 128.62 111.59 128.39 111.45C127.77 112.16 127.13 112.8 126.45 113.36C125.77 113.92 125.08 114.42 124.38 114.85C124.18 114.98 123.99 115.06 123.8 115.1C123.61 115.14 123.48 115.12 123.41 115.04C123.34 114.96 123.34 114.86 123.4 114.75C123.46 114.64 123.6 114.48 123.81 114.29C124.66 113.49 125.4 112.68 126.02 111.85C126.63 111.04 127.16 110.13 127.61 109.15ZM136.48 108.44C136.35 108.68 136.22 108.91 136.09 109.13C135.96 109.35 135.81 109.58 135.66 109.8C135.86 109.9 136.04 109.99 136.22 110.06C136.4 110.13 136.56 110.2 136.71 110.26C137.12 110.44 137.54 110.59 137.99 110.7C138.44 110.81 138.88 110.99 139.31 111.23C139.63 111.41 139.83 111.64 139.91 111.9C139.99 112.17 139.94 112.42 139.75 112.66C139.54 112.94 139.27 113.08 138.94 113.09C138.61 113.1 138.29 113.01 137.98 112.83C137.57 112.59 137.08 112.31 136.51 111.98C135.94 111.65 135.35 111.32 134.74 111C134.19 111.66 133.59 112.27 132.94 112.84C132.29 113.41 131.61 113.94 130.89 114.43C130.69 114.57 130.51 114.67 130.33 114.74C130.15 114.81 130.02 114.79 129.92 114.69C129.77 114.55 129.88 114.28 130.28 113.89C131.18 113.05 131.96 112.13 132.63 111.12C133.3 110.12 133.87 109.03 134.36 107.85C134.5 107.56 134.46 107.27 134.23 106.99C134.12 106.84 134.03 106.69 133.98 106.55C133.93 106.41 133.94 106.25 134.02 106.07C134.09 105.93 134.22 105.83 134.42 105.77C134.62 105.71 134.88 105.75 135.2 105.91C135.48 106.04 135.73 106.18 135.96 106.34C136.19 106.5 136.36 106.68 136.5 106.89C136.64 107.1 136.7 107.32 136.71 107.58C136.73 107.82 136.65 108.12 136.48 108.44ZM135.05 96.43C135.05 96.19 135.03 96.01 135.01 95.88C134.98 95.75 134.9 95.66 134.78 95.59C134.63 95.51 134.49 95.41 134.37 95.31C134.25 95.21 134.19 95.06 134.19 94.88C134.19 94.68 134.27 94.53 134.43 94.41C134.59 94.29 134.85 94.23 135.22 94.23C135.68 94.23 136.04 94.29 136.3 94.4C136.56 94.51 136.76 94.66 136.89 94.85C137.02 95.04 137.11 95.26 137.14 95.51C137.17 95.76 137.19 96.02 137.19 96.29V99.25C137.34 99.21 137.49 99.17 137.63 99.12C137.77 99.07 137.92 99.02 138.07 98.95C138.57 98.75 139.01 98.66 139.37 98.67C139.73 98.68 140.14 98.79 140.59 99.02C140.76 99.1 140.88 99.22 140.97 99.36C141.06 99.5 141.09 99.63 141.09 99.76C141.09 99.91 141.04 100.04 140.94 100.15C140.84 100.25 140.64 100.32 140.33 100.35C139.96 100.38 139.51 100.43 138.95 100.51C138.4 100.59 137.8 100.68 137.17 100.79V102.43C137.17 102.71 137.15 103.02 137.11 103.36C137.07 103.7 136.99 104.02 136.89 104.33C136.79 104.64 136.65 104.89 136.49 105.1C136.33 105.3 136.14 105.4 135.91 105.4C135.7 105.4 135.54 105.35 135.43 105.24C135.32 105.14 135.23 105.01 135.17 104.86C135.11 104.71 135.07 104.55 135.05 104.38C135.04 104.21 135.03 104.05 135.03 103.93V96.43H135.05Z" fill="black"/>
<path d="M143.74 101.16C143.74 101.01 143.73 100.88 143.7 100.79C143.67 100.7 143.63 100.62 143.57 100.56C143.51 100.5 143.44 100.45 143.36 100.41C143.28 100.37 143.18 100.33 143.07 100.27C142.89 100.19 142.74 100.09 142.63 100C142.52 99.91 142.46 99.76 142.46 99.58C142.46 99.38 142.54 99.23 142.7 99.11C142.86 98.99 143.12 98.93 143.49 98.93C144.04 98.93 144.5 98.99 144.88 99.1C146.13 99.06 147.38 98.9 148.62 98.62C148.87 98.56 149.11 98.5 149.33 98.43C149.55 98.36 149.76 98.29 149.96 98.23C150.16 98.17 150.37 98.11 150.58 98.07C150.79 98.03 151.02 98 151.27 97.99C151.59 97.98 151.87 98.05 152.1 98.22C152.33 98.39 152.45 98.65 152.45 99.02C152.45 99.24 152.35 99.4 152.15 99.48C151.95 99.56 151.6 99.63 151.11 99.69C150.27 99.77 149.44 99.87 148.61 99.98C147.78 100.09 146.92 100.21 146.02 100.34C146.03 100.4 146.04 100.47 146.04 100.57V106.35C146.04 106.8 146.14 107.11 146.35 107.3C146.55 107.48 146.86 107.57 147.26 107.57C148.07 107.57 148.93 107.4 149.84 107.04C150.75 106.68 151.58 106.24 152.33 105.69C152.65 105.45 152.97 105.31 153.3 105.27C153.62 105.23 153.84 105.35 153.95 105.63C154.02 105.78 154.04 105.94 154 106.09C153.96 106.24 153.89 106.39 153.79 106.54C153.68 106.69 153.55 106.82 153.39 106.95C153.23 107.08 153.06 107.19 152.9 107.29C151.88 107.85 150.8 108.3 149.67 108.63C148.54 108.96 147.49 109.12 146.5 109.12C145.59 109.12 144.9 108.91 144.44 108.5C143.98 108.09 143.75 107.35 143.75 106.3V101.16H143.74ZM154.82 96.43C154.82 96.19 154.81 96.01 154.78 95.88C154.75 95.75 154.67 95.66 154.55 95.59C154.4 95.51 154.26 95.41 154.14 95.31C154.02 95.21 153.96 95.06 153.96 94.88C153.96 94.68 154.04 94.53 154.2 94.41C154.36 94.29 154.62 94.23 154.99 94.23C155.45 94.23 155.81 94.29 156.07 94.4C156.33 94.51 156.53 94.66 156.66 94.85C156.79 95.04 156.88 95.26 156.91 95.51C156.94 95.76 156.96 96.02 156.96 96.29V101.57C157.11 101.53 157.26 101.49 157.4 101.44C157.54 101.4 157.69 101.34 157.84 101.27C158.34 101.07 158.78 100.98 159.14 100.99C159.5 101 159.91 101.11 160.36 101.34C160.53 101.42 160.65 101.54 160.74 101.68C160.82 101.82 160.87 101.95 160.87 102.08C160.87 102.23 160.82 102.36 160.72 102.47C160.62 102.58 160.42 102.64 160.11 102.67C159.75 102.7 159.29 102.75 158.73 102.83C158.18 102.91 157.58 103 156.95 103.11V110.45C156.95 110.73 156.93 111.04 156.89 111.38C156.85 111.72 156.77 112.04 156.67 112.35C156.57 112.66 156.43 112.91 156.27 113.12C156.11 113.32 155.92 113.42 155.69 113.42C155.48 113.42 155.32 113.37 155.21 113.26C155.1 113.15 155.01 113.03 154.95 112.88C154.89 112.73 154.85 112.57 154.83 112.4C154.81 112.23 154.81 112.07 154.81 111.95V96.43H154.82Z" fill="black"/>
<path d="M164.07 105.05C164.07 104.85 164 104.71 163.85 104.63C163.7 104.55 163.55 104.47 163.4 104.4C163.2 104.33 163.05 104.24 162.95 104.14C162.84 104.03 162.79 103.89 162.79 103.71C162.79 103.51 162.87 103.36 163.03 103.24C163.19 103.12 163.45 103.06 163.82 103.06C163.96 103.06 164.09 103.06 164.22 103.07C164.35 103.08 164.47 103.09 164.58 103.1C164.93 103.07 165.33 103.03 165.77 102.97C166.21 102.91 166.67 102.85 167.14 102.77C167.61 102.69 168.07 102.62 168.53 102.55C168.99 102.48 169.4 102.41 169.76 102.34V99.4C169.31 99.46 168.91 99.51 168.56 99.57C168.21 99.63 167.87 99.69 167.53 99.77C167.19 99.85 166.85 99.93 166.5 100.03C166.15 100.13 165.74 100.24 165.28 100.37C165.06 100.44 164.81 100.45 164.55 100.41C164.29 100.37 164.05 100.29 163.81 100.18C163.58 100.07 163.38 99.93 163.21 99.76C163.04 99.59 162.94 99.41 162.89 99.21C162.85 99.01 162.87 98.85 162.96 98.73C163.05 98.6 163.25 98.54 163.56 98.54C164.47 98.54 165.34 98.48 166.17 98.36C167 98.24 167.89 98.1 168.86 97.93C169.13 97.89 169.36 97.84 169.57 97.77C169.78 97.7 169.97 97.65 170.16 97.59C170.35 97.53 170.54 97.48 170.74 97.43C170.94 97.38 171.15 97.35 171.39 97.34C171.73 97.31 171.97 97.36 172.11 97.5C172.26 97.63 172.32 97.88 172.29 98.25C172.28 98.4 172.24 98.55 172.17 98.68C172.1 98.81 172.01 98.93 171.89 99.03L171.74 102.21C171.92 102.25 172.07 102.32 172.18 102.42C172.29 102.52 172.35 102.66 172.35 102.84C172.35 103.02 172.25 103.2 172.05 103.37C171.85 103.54 171.5 103.65 171.01 103.71C170.17 103.81 169.38 103.92 168.63 104.04C167.89 104.16 167.12 104.28 166.32 104.41C166.35 104.55 166.36 104.66 166.36 104.73V106.81C166.36 107.68 166.77 108.09 167.58 108.05C168.58 108.01 169.47 107.82 170.26 107.47C171.05 107.13 171.83 106.67 172.58 106.09C172.9 105.84 173.23 105.71 173.56 105.7C173.89 105.69 174.11 105.83 174.22 106.11C174.29 106.26 174.31 106.42 174.27 106.56C174.23 106.71 174.17 106.85 174.06 107C173.95 107.15 173.82 107.29 173.66 107.42C173.5 107.55 173.33 107.67 173.17 107.77C172.15 108.36 171.07 108.81 169.95 109.12C168.83 109.43 167.78 109.58 166.8 109.58C165.89 109.58 165.21 109.37 164.75 108.96C164.29 108.55 164.07 107.81 164.07 106.76V105.05ZM175.74 96.43C175.74 96.19 175.73 96.01 175.7 95.88C175.67 95.75 175.59 95.66 175.47 95.59C175.32 95.51 175.18 95.41 175.06 95.31C174.94 95.21 174.88 95.06 174.88 94.88C174.88 94.68 174.96 94.53 175.12 94.41C175.28 94.29 175.54 94.23 175.91 94.23C176.37 94.23 176.73 94.29 176.99 94.4C177.25 94.51 177.45 94.66 177.58 94.85C177.71 95.04 177.8 95.26 177.83 95.51C177.86 95.76 177.88 96.02 177.88 96.29V110.44C177.88 110.72 177.86 111.03 177.82 111.37C177.78 111.71 177.7 112.03 177.6 112.34C177.49 112.65 177.36 112.9 177.2 113.11C177.04 113.31 176.85 113.41 176.62 113.41C176.41 113.41 176.25 113.36 176.14 113.25C176.03 113.14 175.94 113.02 175.88 112.87C175.82 112.72 175.78 112.56 175.76 112.39C175.75 112.21 175.74 112.06 175.74 111.94V96.43Z" fill="black"/>
<path d="M196.16 100.64C196.16 101.34 196.04 101.98 195.81 102.54C195.58 103.11 195.26 103.61 194.86 104.04C194.46 104.47 193.99 104.84 193.45 105.14C192.91 105.44 192.33 105.67 191.72 105.82V108.93C192.31 108.83 192.87 108.74 193.4 108.65C193.93 108.56 194.43 108.47 194.89 108.39C195.56 108.26 196.26 108.11 196.98 107.93C197.7 107.75 198.36 107.64 198.95 107.61C199.76 107.58 200.17 107.86 200.17 108.43C200.17 108.7 200.06 108.92 199.85 109.11C199.64 109.3 199.32 109.41 198.88 109.44C198.17 109.5 197.38 109.57 196.54 109.67C195.69 109.77 194.82 109.88 193.91 110.02C193 110.16 192.1 110.29 191.19 110.44C190.28 110.59 189.4 110.74 188.54 110.9C187.68 111.06 186.88 111.22 186.13 111.38C185.38 111.54 184.72 111.69 184.14 111.83C183.8 111.91 183.49 111.94 183.21 111.9C182.93 111.86 182.68 111.79 182.46 111.67C182.24 111.55 182.06 111.41 181.9 111.24C181.75 111.07 181.62 110.9 181.52 110.74C181.39 110.5 181.38 110.31 181.49 110.15C181.6 110 181.82 109.93 182.17 109.96C182.52 109.97 182.96 109.97 183.48 109.94C184.01 109.91 184.59 109.86 185.24 109.79C185.89 109.72 186.57 109.64 187.3 109.55C188.03 109.46 188.76 109.36 189.51 109.25V106.07C188.77 106.06 188.12 105.94 187.55 105.73C186.99 105.52 186.52 105.23 186.14 104.87C185.76 104.51 185.48 104.08 185.29 103.59C185.1 103.1 185.01 102.56 185.01 101.97C185.01 101.14 185.2 100.39 185.58 99.72C185.96 99.05 186.45 98.48 187.06 98.01C187.67 97.54 188.36 97.18 189.13 96.93C189.9 96.68 190.69 96.55 191.49 96.55C192.18 96.55 192.8 96.64 193.37 96.82C193.94 97 194.42 97.26 194.83 97.61C195.24 97.95 195.55 98.38 195.79 98.89C196.03 99.4 196.16 99.99 196.16 100.64ZM193.96 100.83C193.96 99.93 193.7 99.28 193.19 98.87C192.68 98.46 192.03 98.26 191.24 98.26C190.75 98.26 190.27 98.33 189.79 98.48C189.31 98.63 188.89 98.85 188.51 99.14C188.13 99.43 187.83 99.8 187.6 100.24C187.37 100.68 187.25 101.2 187.25 101.79C187.25 102.69 187.51 103.34 188.02 103.76C188.53 104.17 189.19 104.38 189.99 104.38C190.48 104.38 190.96 104.3 191.44 104.15C191.92 104 192.34 103.77 192.71 103.47C193.08 103.17 193.38 102.8 193.61 102.36C193.84 101.92 193.96 101.4 193.96 100.83Z" fill="black"/>
<path d="M203.9 110.14C204.32 110.11 204.67 110.22 204.95 110.48C205.23 110.74 205.37 111.07 205.37 111.49C205.37 111.94 205.23 112.29 204.95 112.55C204.67 112.81 204.32 112.95 203.9 112.98C203.48 113.01 203.13 112.9 202.84 112.66C202.55 112.42 202.41 112.08 202.41 111.63C202.41 111.21 202.55 110.86 202.84 110.59C203.13 110.32 203.48 110.17 203.9 110.14ZM202.66 98.95C202.65 98.7 202.65 98.45 202.67 98.2C202.69 97.95 202.74 97.73 202.83 97.53C202.91 97.33 203.03 97.16 203.19 97.04C203.34 96.91 203.55 96.84 203.82 96.83C204.1 96.82 204.32 96.87 204.49 96.98C204.66 97.09 204.78 97.25 204.86 97.44C204.94 97.63 204.99 97.86 205.01 98.1C205.03 98.35 205.03 98.59 205.02 98.85L204.58 108.44C204.57 108.68 204.49 108.86 204.36 108.99C204.23 109.12 204.06 109.19 203.87 109.2C203.69 109.21 203.54 109.16 203.42 109.05C203.3 108.94 203.23 108.76 203.22 108.52L202.66 98.95Z" fill="black"/>
<path d="M210.21 110.14C210.63 110.11 210.98 110.22 211.26 110.48C211.54 110.74 211.68 111.07 211.68 111.49C211.68 111.94 211.54 112.29 211.26 112.55C210.98 112.81 210.63 112.95 210.21 112.98C209.79 113.01 209.44 112.9 209.15 112.66C208.86 112.42 208.72 112.08 208.72 111.63C208.72 111.21 208.86 110.86 209.15 110.59C209.43 110.32 209.79 110.17 210.21 110.14ZM208.97 98.95C208.96 98.7 208.96 98.45 208.98 98.2C209 97.95 209.05 97.73 209.14 97.53C209.22 97.33 209.34 97.16 209.5 97.04C209.65 96.91 209.86 96.84 210.13 96.83C210.41 96.82 210.63 96.87 210.8 96.98C210.97 97.09 211.09 97.25 211.17 97.44C211.25 97.63 211.3 97.86 211.32 98.1C211.34 98.35 211.34 98.59 211.33 98.85L210.89 108.44C210.88 108.68 210.8 108.86 210.67 108.99C210.54 109.12 210.37 109.19 210.18 109.2C210 109.21 209.85 109.16 209.73 109.05C209.61 108.94 209.54 108.76 209.53 108.52L208.97 98.95Z" fill="black"/>
</svg>
