<?xml version="1.0" encoding="utf-8"?>
<!-- Generator: Adobe Illustrator 29.4.0, SVG Export Plug-In . SVG Version: 9.03 Build 0)  -->
<svg version="1.1" id="레이어_1" xmlns="http://www.w3.org/2000/svg" xmlns:xlink="http://www.w3.org/1999/xlink" x="0px"
	 y="0px" width="500px" height="1000px" viewBox="0 0 500 1000" enable-background="new 0 0 500 1000" xml:space="preserve">
<ellipse fill="#FFFFFF" stroke="#000000" stroke-width="2" stroke-miterlimit="10" cx="256.59" cy="257.47" rx="123.62" ry="79.47"/>
<g>
	<path d="M172.08,256.12c-0.67,0.05-1.41,0.13-2.21,0.22c-0.8,0.09-1.62,0.2-2.48,0.33s-1.71,0.26-2.57,0.4
		c-0.86,0.14-1.69,0.28-2.5,0.44c-0.81,0.15-1.56,0.3-2.27,0.46s-1.33,0.29-1.87,0.43c-0.32,0.08-0.61,0.1-0.87,0.07
		c-0.26-0.03-0.5-0.11-0.7-0.22c-0.21-0.11-0.38-0.25-0.52-0.41c-0.15-0.16-0.26-0.32-0.36-0.48c-0.12-0.22-0.13-0.41-0.03-0.55
		c0.1-0.15,0.31-0.21,0.64-0.18c0.41,0.03,0.95,0.01,1.61-0.04c0.67-0.05,1.4-0.13,2.21-0.22v-3.63c0-0.22-0.01-0.4-0.04-0.52
		c-0.03-0.12-0.1-0.21-0.22-0.28c-0.15-0.08-0.27-0.17-0.39-0.27c-0.11-0.1-0.17-0.23-0.17-0.41c0-0.19,0.08-0.33,0.23-0.45
		s0.4-0.17,0.74-0.17c0.44,0,0.78,0.05,1.02,0.16c0.24,0.11,0.43,0.25,0.55,0.43s0.2,0.39,0.24,0.62c0.03,0.24,0.05,0.48,0.05,0.73
		v3.51c0.4-0.07,0.8-0.12,1.2-0.18c0.4-0.05,0.8-0.11,1.2-0.18v-4.04c0-0.22-0.01-0.4-0.04-0.52c-0.03-0.12-0.1-0.21-0.22-0.28
		c-0.15-0.08-0.27-0.17-0.39-0.27c-0.11-0.1-0.17-0.23-0.17-0.41c0-0.19,0.08-0.33,0.23-0.45s0.4-0.17,0.74-0.17
		c0.44,0,0.78,0.05,1.02,0.16c0.24,0.11,0.43,0.25,0.55,0.43s0.2,0.39,0.24,0.62c0.03,0.24,0.05,0.48,0.05,0.73v3.86
		c0.3-0.05,0.6-0.1,0.88-0.15c0.28-0.05,0.56-0.1,0.82-0.15c0.63-0.12,1.27-0.26,1.9-0.43c0.63-0.17,1.27-0.26,1.92-0.29
		c0.77-0.03,1.15,0.22,1.15,0.75c0,0.25-0.1,0.47-0.3,0.64C172.79,255.99,172.48,256.1,172.08,256.12z M168.05,252.66
		c0.12-1.07,0.22-2.12,0.3-3.15c0.08-1.03,0.16-2.09,0.24-3.17c0.03-0.33-0.01-0.55-0.1-0.66c-0.09-0.11-0.31-0.15-0.65-0.11
		c-0.62,0.07-1.31,0.17-2.07,0.3c-0.76,0.13-1.52,0.27-2.27,0.42c-0.75,0.15-1.47,0.3-2.16,0.46c-0.69,0.16-1.26,0.3-1.72,0.42
		c-0.45,0.12-0.84,0.06-1.16-0.18s-0.56-0.55-0.7-0.93c-0.08-0.21-0.05-0.38,0.09-0.5s0.34-0.17,0.6-0.14
		c0.26,0.01,0.64,0,1.13-0.03c0.49-0.03,1.04-0.09,1.66-0.16c0.62-0.07,1.28-0.16,1.97-0.27c0.69-0.11,1.37-0.21,2.04-0.32
		c0.67-0.11,1.29-0.21,1.88-0.32c0.59-0.11,1.09-0.2,1.52-0.3c0.38-0.08,0.72-0.13,1-0.14s0.52,0.04,0.69,0.15
		c0.18,0.11,0.3,0.31,0.36,0.58c0.06,0.28,0.05,0.67-0.03,1.19c-0.03,0.2-0.07,0.48-0.12,0.83c-0.05,0.36-0.11,0.76-0.18,1.2
		c-0.07,0.44-0.14,0.91-0.23,1.4c-0.09,0.49-0.17,0.96-0.26,1.43s-0.18,0.89-0.28,1.29c-0.1,0.4-0.19,0.73-0.29,0.99
		c-0.12,0.32-0.25,0.52-0.4,0.62s-0.31,0.14-0.5,0.11c-0.22-0.03-0.35-0.14-0.38-0.33S168.03,252.92,168.05,252.66z"/>
	<path d="M190.7,252.54c-0.92,0.07-1.95,0.18-3.07,0.33c-1.12,0.15-2.27,0.32-3.43,0.5v4.4c0,0.26-0.02,0.55-0.07,0.87
		s-0.12,0.62-0.22,0.91s-0.23,0.53-0.39,0.72s-0.34,0.29-0.55,0.29c-0.19,0-0.34-0.05-0.46-0.15c-0.12-0.1-0.21-0.22-0.27-0.36
		s-0.1-0.29-0.12-0.46c-0.02-0.17-0.03-0.31-0.03-0.43v-5.47c-1.03,0.19-2,0.37-2.91,0.55c-0.91,0.19-1.7,0.36-2.38,0.54
		c-0.32,0.08-0.61,0.1-0.87,0.07c-0.26-0.03-0.5-0.11-0.7-0.22c-0.21-0.11-0.38-0.25-0.52-0.41c-0.15-0.16-0.26-0.32-0.36-0.48
		c-0.12-0.22-0.13-0.41-0.03-0.55s0.31-0.2,0.64-0.18c0.37,0.01,0.84,0,1.41-0.03c0.57-0.03,1.2-0.09,1.88-0.17
		c0.69-0.08,1.42-0.17,2.19-0.27c0.77-0.1,1.54-0.21,2.31-0.33c0.77-0.12,1.51-0.24,2.22-0.36c0.71-0.12,1.37-0.23,1.96-0.34
		c0.63-0.12,1.29-0.26,1.97-0.44c0.68-0.17,1.3-0.27,1.85-0.3c0.77-0.03,1.15,0.23,1.15,0.77c0,0.25-0.1,0.47-0.3,0.64
		C191.41,252.41,191.11,252.51,190.7,252.54z M184.26,245.45c-0.09,0.13-0.19,0.26-0.28,0.38s-0.19,0.24-0.3,0.36
		c0.62,0.17,1.23,0.33,1.82,0.48c0.59,0.15,1.11,0.26,1.55,0.34c0.32,0.07,0.59,0.11,0.82,0.13c0.23,0.02,0.45,0.04,0.66,0.06
		c0.21,0.02,0.42,0.05,0.62,0.08c0.2,0.03,0.43,0.1,0.68,0.19c0.25,0.09,0.42,0.25,0.52,0.49c0.09,0.23,0.07,0.48-0.06,0.74
		c-0.11,0.22-0.28,0.39-0.52,0.5c-0.24,0.11-0.6,0.09-1.06-0.07c-0.37-0.12-0.8-0.25-1.28-0.4c-0.48-0.15-0.99-0.29-1.54-0.45
		c-0.54-0.15-1.1-0.3-1.66-0.46c-0.57-0.15-1.12-0.29-1.66-0.43c-0.44,0.42-0.9,0.84-1.4,1.24c-0.5,0.4-1,0.78-1.51,1.14
		s-1.02,0.68-1.54,0.96c-0.52,0.28-1.01,0.52-1.49,0.7c-0.65,0.25-1.02,0.25-1.11,0c-0.05-0.13,0-0.25,0.15-0.36
		c0.15-0.11,0.35-0.23,0.58-0.38c0.66-0.4,1.28-0.83,1.86-1.31s1.12-0.96,1.6-1.46s0.92-0.99,1.3-1.49s0.7-0.97,0.96-1.42
		c0.28-0.46,0.31-0.83,0.1-1.09c-0.11-0.13-0.2-0.26-0.29-0.4c-0.09-0.13-0.08-0.3,0.01-0.5c0.07-0.15,0.19-0.24,0.39-0.29
		c0.19-0.05,0.44,0,0.74,0.15c0.25,0.11,0.5,0.24,0.74,0.42c0.24,0.17,0.44,0.37,0.59,0.58c0.15,0.22,0.23,0.46,0.25,0.71
		C184.55,244.88,184.46,245.15,184.26,245.45z"/>
	<path d="M195.1,247.29c0-0.15-0.01-0.26-0.04-0.35c-0.03-0.09-0.07-0.16-0.12-0.22s-0.12-0.11-0.2-0.14
		c-0.08-0.03-0.17-0.08-0.28-0.13c-0.17-0.08-0.31-0.17-0.42-0.26c-0.11-0.09-0.16-0.22-0.16-0.4c0-0.18,0.08-0.33,0.23-0.45
		c0.15-0.11,0.4-0.17,0.74-0.17c0.46,0,0.85,0.04,1.16,0.11c0.31,0.07,0.56,0.18,0.74,0.32s0.31,0.3,0.39,0.49
		c0.07,0.19,0.11,0.4,0.11,0.63v3.15c0,0.42,0.13,0.72,0.39,0.89c0.26,0.17,0.58,0.26,0.96,0.26c0.38,0,0.8-0.03,1.25-0.09
		c0.45-0.06,0.9-0.15,1.37-0.26s0.91-0.26,1.36-0.44s0.85-0.39,1.22-0.62c0.3-0.2,0.61-0.31,0.91-0.33c0.3-0.02,0.51,0.1,0.61,0.37
		c0.13,0.28,0.09,0.54-0.13,0.8c-0.22,0.26-0.51,0.48-0.86,0.66c-0.5,0.25-1.03,0.46-1.58,0.63c-0.55,0.17-1.12,0.31-1.68,0.43
		c-0.57,0.11-1.12,0.19-1.66,0.24c-0.54,0.05-1.04,0.07-1.51,0.07c-0.94,0-1.64-0.19-2.1-0.58c-0.46-0.39-0.69-1.08-0.69-2.07
		V247.29z M206.7,259.77c-0.19,0-0.33-0.04-0.43-0.12c-0.1-0.08-0.18-0.18-0.25-0.3c-0.41,0.17-0.85,0.32-1.33,0.45
		s-0.94,0.23-1.4,0.31c-0.46,0.08-0.88,0.14-1.28,0.18c-0.4,0.04-0.72,0.05-0.97,0.04c-0.46-0.01-0.88-0.06-1.27-0.13
		c-0.38-0.07-0.71-0.2-0.99-0.38s-0.5-0.42-0.65-0.73c-0.16-0.31-0.24-0.72-0.24-1.22v-1.96c0-0.21-0.01-0.35-0.04-0.42
		s-0.1-0.13-0.22-0.2c-0.15-0.08-0.27-0.17-0.39-0.26c-0.11-0.09-0.17-0.22-0.17-0.4c0-0.18,0.08-0.33,0.23-0.45
		c0.15-0.11,0.4-0.17,0.74-0.17c0.26,0,0.49,0.02,0.66,0.06s0.34,0.09,0.49,0.16c0.44-0.03,0.92-0.07,1.46-0.13
		c0.54-0.06,1.06-0.13,1.58-0.2c0.52-0.07,1.01-0.15,1.48-0.23c0.46-0.08,0.84-0.16,1.15-0.24c0.41-0.11,0.77-0.22,1.09-0.35
		c0.32-0.13,0.65-0.19,1.01-0.21c0.41-0.01,0.73,0.07,0.96,0.24c0.23,0.17,0.35,0.43,0.37,0.77c0,0.25-0.14,0.42-0.42,0.52v2.75
		c0,0.3-0.02,0.61-0.06,0.92c-0.04,0.31-0.11,0.59-0.21,0.83c-0.1,0.24-0.22,0.45-0.38,0.6C207.1,259.69,206.92,259.77,206.7,259.77
		z M200.88,255.41c-0.16,0.03-0.31,0.05-0.47,0.08c-0.15,0.03-0.3,0.05-0.45,0.08v0.2v2.14c0,0.21,0.04,0.38,0.12,0.5
		c0.08,0.13,0.19,0.22,0.34,0.3c0.15,0.07,0.32,0.12,0.52,0.14c0.2,0.02,0.43,0.03,0.68,0.03c0.32,0,0.65-0.03,1.01-0.08
		c0.36-0.05,0.72-0.12,1.1-0.21s0.75-0.19,1.11-0.3c0.36-0.11,0.7-0.23,1.02-0.37v-3.17c-0.75,0.09-1.58,0.2-2.47,0.31
		C202.51,255.18,201.67,255.29,200.88,255.41z M206.07,243.86c0-0.22-0.01-0.4-0.04-0.52c-0.03-0.12-0.1-0.21-0.22-0.28
		c-0.15-0.08-0.27-0.17-0.39-0.27c-0.11-0.1-0.17-0.23-0.17-0.41c0-0.19,0.08-0.33,0.23-0.45c0.15-0.11,0.4-0.17,0.74-0.17
		c0.44,0,0.78,0.05,1.02,0.16c0.24,0.11,0.43,0.25,0.55,0.43c0.12,0.18,0.2,0.39,0.24,0.62c0.03,0.24,0.05,0.48,0.05,0.73v5.61
		c0,0.26-0.02,0.56-0.06,0.87s-0.11,0.62-0.21,0.91s-0.22,0.53-0.38,0.72s-0.33,0.29-0.54,0.29c-0.2,0-0.35-0.05-0.46-0.15
		c-0.11-0.1-0.19-0.22-0.25-0.36s-0.1-0.29-0.11-0.46c-0.01-0.16-0.02-0.31-0.02-0.43V243.86z"/>
	<path d="M221.78,250.04c0,0.69-0.14,1.33-0.42,1.93s-0.65,1.13-1.13,1.58c-0.48,0.45-1.03,0.8-1.65,1.06
		c-0.63,0.26-1.28,0.39-1.97,0.39c-0.59,0-1.14-0.09-1.62-0.28c-0.49-0.18-0.91-0.45-1.27-0.78c-0.36-0.34-0.63-0.75-0.83-1.23
		c-0.2-0.48-0.3-1.01-0.3-1.59c0-0.7,0.14-1.34,0.43-1.93c0.28-0.59,0.67-1.1,1.16-1.53c0.49-0.43,1.05-0.77,1.67-1.01
		c0.63-0.24,1.29-0.37,1.99-0.37c0.58,0,1.11,0.09,1.59,0.26s0.9,0.42,1.25,0.75c0.35,0.33,0.62,0.73,0.81,1.19
		C221.68,248.94,221.78,249.46,221.78,250.04z M217.22,247.9c-0.34,0.04-0.67,0.14-0.97,0.29s-0.57,0.35-0.8,0.6
		s-0.42,0.55-0.55,0.91c-0.14,0.36-0.21,0.77-0.21,1.23c0,0.45,0.07,0.83,0.2,1.14c0.13,0.31,0.31,0.56,0.53,0.75
		s0.49,0.32,0.78,0.39c0.3,0.07,0.61,0.08,0.94,0.04s0.65-0.13,0.96-0.28c0.31-0.15,0.58-0.34,0.81-0.59s0.42-0.55,0.55-0.91
		c0.14-0.36,0.21-0.77,0.21-1.23c0-0.44-0.07-0.81-0.2-1.13c-0.13-0.32-0.31-0.57-0.54-0.76c-0.22-0.19-0.49-0.32-0.78-0.4
		C217.87,247.88,217.55,247.86,217.22,247.9z M224.75,243.86c0-0.22-0.01-0.4-0.04-0.52c-0.03-0.12-0.1-0.21-0.22-0.28
		c-0.15-0.08-0.27-0.17-0.39-0.27c-0.11-0.1-0.17-0.23-0.17-0.41c0-0.19,0.08-0.33,0.23-0.45c0.15-0.11,0.4-0.17,0.74-0.17
		c0.44,0,0.78,0.05,1.02,0.16c0.24,0.11,0.43,0.25,0.55,0.43s0.2,0.39,0.24,0.62c0.03,0.24,0.05,0.48,0.05,0.73v13.33
		c0,0.26-0.02,0.55-0.06,0.87s-0.11,0.62-0.21,0.91c-0.1,0.29-0.22,0.53-0.38,0.72s-0.33,0.29-0.54,0.29c-0.2,0-0.35-0.05-0.46-0.15
		c-0.11-0.1-0.19-0.22-0.25-0.36s-0.1-0.29-0.11-0.46c-0.01-0.17-0.02-0.31-0.02-0.43V243.86z"/>
	<path d="M249.34,246.61c0,0.26-0.02,0.55-0.06,0.87c-0.04,0.32-0.11,0.62-0.21,0.91c-0.1,0.29-0.22,0.53-0.38,0.72
		c-0.15,0.19-0.33,0.29-0.54,0.29c-0.19,0-0.33-0.04-0.43-0.12c-0.1-0.08-0.18-0.18-0.25-0.3c-0.3,0.15-0.62,0.27-0.94,0.38
		c-0.32,0.11-0.65,0.2-0.98,0.3v1.31c0.5-0.08,0.99-0.16,1.47-0.24s0.92-0.16,1.33-0.24c0.63-0.12,1.29-0.26,1.97-0.44
		c0.68-0.17,1.3-0.27,1.85-0.3c0.77-0.03,1.15,0.23,1.15,0.77c0,0.25-0.1,0.47-0.3,0.64s-0.5,0.28-0.91,0.31
		c-0.67,0.05-1.41,0.13-2.21,0.22c-0.8,0.09-1.62,0.2-2.48,0.33s-1.71,0.26-2.57,0.4c-0.86,0.14-1.69,0.28-2.5,0.44
		s-1.56,0.3-2.27,0.46s-1.33,0.29-1.87,0.43c-0.32,0.08-0.61,0.1-0.87,0.07c-0.26-0.03-0.5-0.11-0.7-0.22
		c-0.21-0.11-0.38-0.25-0.52-0.41c-0.15-0.16-0.26-0.32-0.36-0.48c-0.12-0.22-0.13-0.41-0.03-0.55c0.1-0.15,0.31-0.2,0.64-0.18
		c0.33,0.01,0.76,0,1.28-0.03c0.52-0.03,1.09-0.08,1.71-0.14c0.62-0.06,1.28-0.14,1.99-0.23c0.71-0.09,1.42-0.19,2.13-0.3V250
		c-0.15,0.01-0.29,0.02-0.43,0.03s-0.26,0-0.37-0.01c-0.46-0.01-0.88-0.06-1.27-0.13c-0.38-0.07-0.71-0.2-0.99-0.38
		s-0.5-0.42-0.65-0.73s-0.24-0.72-0.24-1.22v-1.82c0-0.21-0.01-0.35-0.04-0.42c-0.03-0.07-0.1-0.13-0.22-0.2
		c-0.15-0.08-0.27-0.17-0.39-0.26s-0.17-0.22-0.17-0.4c0-0.18,0.08-0.33,0.23-0.45c0.15-0.11,0.4-0.17,0.74-0.17
		c0.41,0,0.74,0.05,0.99,0.14c0.25,0.09,0.44,0.21,0.57,0.36c0.13,0.15,0.22,0.32,0.27,0.52c0.05,0.2,0.07,0.41,0.07,0.62
		c0.91-0.09,1.87-0.21,2.87-0.35c1-0.14,1.95-0.3,2.83-0.49v-0.59c0-0.21-0.02-0.35-0.06-0.42s-0.12-0.13-0.24-0.2
		c-0.15-0.08-0.27-0.17-0.39-0.26c-0.11-0.09-0.17-0.22-0.17-0.4c0-0.19,0.08-0.33,0.23-0.45c0.15-0.11,0.4-0.17,0.74-0.17
		c0.42,0,0.76,0.05,1.01,0.15c0.25,0.1,0.44,0.23,0.57,0.39c0.13,0.16,0.22,0.34,0.26,0.55c0.04,0.21,0.06,0.43,0.06,0.65V246.61z
		 M240.01,258.7c0-0.21-0.05-0.36-0.15-0.46s-0.27-0.17-0.51-0.24c-0.37-0.09-0.55-0.3-0.55-0.61c0-0.19,0.06-0.33,0.18-0.44
		c0.12-0.11,0.35-0.16,0.69-0.16c0.41,0,0.74,0.03,0.99,0.08c0.44,0,0.94-0.03,1.52-0.08s1.17-0.12,1.79-0.2
		c0.62-0.08,1.23-0.17,1.84-0.26c0.61-0.09,1.17-0.18,1.68-0.26v-1.37c-1.16,0.15-2.29,0.32-3.38,0.53c-1.09,0.2-2.12,0.44-3.1,0.7
		c-0.45,0.12-0.85,0.06-1.19-0.18c-0.34-0.24-0.57-0.55-0.67-0.93c-0.07-0.22-0.06-0.39,0.02-0.5c0.08-0.11,0.3-0.15,0.67-0.14
		c1.03,0.03,2.11-0.04,3.25-0.21c1.14-0.16,2.26-0.36,3.37-0.58c0.46-0.09,0.88-0.2,1.25-0.32c0.37-0.12,0.76-0.19,1.17-0.22
		c0.7-0.04,1.03,0.21,0.99,0.73c-0.03,0.3-0.15,0.54-0.36,0.71l-0.12,1.58c0.36,0.08,0.53,0.31,0.53,0.69c0,0.21-0.1,0.36-0.29,0.46
		c-0.19,0.09-0.52,0.17-0.98,0.22c-1.12,0.11-2.22,0.24-3.28,0.4c-1.06,0.16-2.17,0.32-3.32,0.48v0.02v0.4c0,0.44,0.13,0.7,0.4,0.79
		s0.69,0.14,1.27,0.14c0.53,0,1.06-0.04,1.58-0.13c0.53-0.09,1.04-0.2,1.54-0.34c0.5-0.14,0.96-0.3,1.41-0.49
		c0.44-0.19,0.83-0.38,1.18-0.57c0.34-0.2,0.65-0.31,0.92-0.33c0.27-0.02,0.47,0.1,0.58,0.37c0.13,0.28,0.09,0.57-0.13,0.88
		c-0.22,0.31-0.51,0.55-0.88,0.72c-0.49,0.22-1.04,0.42-1.65,0.58c-0.61,0.17-1.24,0.31-1.86,0.43c-0.63,0.12-1.23,0.2-1.8,0.26
		c-0.57,0.05-1.06,0.07-1.46,0.06c-0.5-0.01-0.95-0.05-1.34-0.12c-0.39-0.07-0.72-0.17-0.98-0.31s-0.47-0.33-0.61-0.57
		c-0.15-0.24-0.22-0.56-0.22-0.96V258.7z M243.28,248.58c0.66,0,1.35-0.1,2.07-0.3c0.72-0.2,1.38-0.44,1.97-0.71v-1.37
		c-0.95,0.11-1.9,0.22-2.84,0.35s-1.9,0.26-2.86,0.41v0.65c0,0.21,0.04,0.38,0.12,0.5c0.08,0.13,0.19,0.22,0.34,0.3
		c0.15,0.07,0.32,0.12,0.52,0.14C242.8,248.57,243.02,248.58,243.28,248.58z"/>
	<path d="M273.9,250.52c-0.24,0.03-0.47,0.06-0.69,0.09c-0.22,0.03-0.45,0.07-0.67,0.11v5.55c0,0.26-0.02,0.55-0.05,0.87
		c-0.03,0.32-0.1,0.62-0.19,0.91c-0.09,0.29-0.21,0.53-0.36,0.72c-0.15,0.19-0.32,0.29-0.54,0.29c-0.2,0-0.35-0.05-0.45-0.15
		c-0.1-0.1-0.18-0.22-0.23-0.36s-0.08-0.29-0.09-0.46s-0.01-0.31-0.01-0.43v-3.47c-0.29,0.16-0.57,0.29-0.83,0.4
		c-0.26,0.11-0.54,0.21-0.81,0.32c-0.55,0.19-1.07,0.26-1.54,0.23c-0.48-0.03-0.87-0.21-1.17-0.54c-0.49,0.32-1.01,0.58-1.55,0.79
		c-0.55,0.21-1.05,0.32-1.5,0.32c-0.28,0-0.54-0.04-0.78-0.11c-0.25-0.07-0.46-0.19-0.65-0.36s-0.34-0.39-0.45-0.68
		c-0.11-0.29-0.16-0.65-0.16-1.09v-5.15c0-0.24-0.06-0.41-0.17-0.52c-0.11-0.11-0.27-0.2-0.47-0.3c-0.17-0.08-0.31-0.16-0.42-0.24
		s-0.16-0.2-0.16-0.38c0-0.37,0.32-0.55,0.97-0.55c0.57,0,1.01,0.06,1.33,0.18c0.11-0.03,0.2-0.05,0.28-0.07
		c0.08-0.02,0.15-0.04,0.2-0.07c0.28-0.08,0.5-0.17,0.66-0.26c0.17-0.09,0.4-0.15,0.7-0.16c0.18,0,0.35,0.03,0.5,0.08
		c0.13-0.21,0.43-0.32,0.89-0.32c0.32,0,0.59,0.02,0.82,0.05c0.23,0.03,0.43,0.08,0.58,0.15c0.16-0.03,0.3-0.06,0.44-0.09
		c0.13-0.03,0.23-0.06,0.3-0.09c0.26-0.08,0.51-0.17,0.74-0.28c0.23-0.11,0.48-0.17,0.74-0.18c0.3-0.01,0.55,0.06,0.74,0.21
		s0.29,0.4,0.29,0.74c0,0.2-0.09,0.36-0.26,0.49c-0.17,0.13-0.5,0.21-0.97,0.27c-0.21,0.03-0.42,0.05-0.62,0.07
		c-0.2,0.02-0.41,0.04-0.6,0.07v0.14v5.25c0,0.37,0.08,0.61,0.24,0.73c0.16,0.12,0.42,0.15,0.77,0.1c0.34-0.05,0.67-0.12,0.99-0.2
		c0.32-0.08,0.63-0.19,0.93-0.34v-7.53c0-0.42-0.11-0.69-0.32-0.79c-0.15-0.08-0.27-0.17-0.39-0.27s-0.17-0.23-0.17-0.41
		c0-0.18,0.08-0.33,0.23-0.45c0.15-0.11,0.4-0.17,0.74-0.17c0.44,0,0.77,0.05,1.01,0.16c0.24,0.11,0.42,0.25,0.54,0.43
		s0.19,0.39,0.22,0.62s0.04,0.48,0.04,0.73v4.08c0.22-0.03,0.45-0.06,0.68-0.09c0.23-0.03,0.46-0.07,0.68-0.11v-5.17
		c0-0.22-0.02-0.4-0.05-0.52c-0.03-0.12-0.11-0.21-0.23-0.28c-0.15-0.08-0.28-0.17-0.41-0.27c-0.12-0.1-0.19-0.23-0.19-0.41
		c0-0.19,0.08-0.33,0.23-0.45c0.15-0.11,0.4-0.17,0.74-0.17c0.44,0,0.77,0.05,1.01,0.16c0.24,0.11,0.42,0.25,0.54,0.43
		s0.19,0.39,0.22,0.62s0.04,0.48,0.04,0.73v13.33c0,0.26-0.02,0.55-0.05,0.87s-0.1,0.62-0.19,0.91c-0.09,0.29-0.21,0.53-0.36,0.72
		s-0.32,0.29-0.54,0.29c-0.2,0-0.35-0.05-0.45-0.15c-0.1-0.1-0.17-0.22-0.23-0.36s-0.08-0.29-0.09-0.46
		c-0.01-0.17-0.01-0.31-0.01-0.43V250.52z M263.17,253.09c0,0.12,0.01,0.24,0.03,0.36c0.02,0.12,0.06,0.22,0.13,0.31
		s0.17,0.15,0.31,0.18c0.14,0.03,0.32,0.03,0.54-0.01c0.51-0.08,1.04-0.28,1.58-0.59c-0.01-0.08-0.02-0.16-0.02-0.25s0-0.17,0-0.27
		v-5.21c0-0.19-0.06-0.31-0.19-0.39c-0.13-0.07-0.26-0.14-0.41-0.21c-0.03,0.17-0.13,0.31-0.31,0.43c-0.18,0.11-0.49,0.19-0.92,0.23
		c-0.13,0.03-0.26,0.04-0.39,0.05c-0.12,0.01-0.25,0.02-0.37,0.05v0.12V253.09z"/>
	<path d="M300.45,251.57c-0.94,0.08-1.97,0.19-3.1,0.34c-1.13,0.15-2.28,0.31-3.46,0.5v1.88c0.21-0.04,0.41-0.08,0.59-0.11
		c0.19-0.03,0.35-0.07,0.5-0.11c0.41-0.11,0.77-0.22,1.09-0.35c0.32-0.12,0.65-0.19,1.01-0.21c0.41-0.01,0.73,0.07,0.96,0.24
		c0.23,0.17,0.35,0.43,0.37,0.77c0,0.26-0.15,0.44-0.44,0.53v2.48c0,0.3-0.02,0.61-0.06,0.92c-0.04,0.31-0.11,0.59-0.21,0.83
		c-0.1,0.24-0.22,0.45-0.38,0.6c-0.15,0.16-0.33,0.24-0.54,0.24c-0.2,0-0.35-0.05-0.46-0.15c-0.11-0.1-0.19-0.22-0.26-0.37
		c-0.4,0.18-0.82,0.34-1.26,0.48c-0.44,0.13-0.88,0.24-1.3,0.33s-0.83,0.15-1.21,0.19c-0.38,0.04-0.71,0.05-0.97,0.04
		c-0.46-0.01-0.88-0.06-1.27-0.13c-0.38-0.07-0.71-0.2-0.99-0.38s-0.5-0.42-0.65-0.73c-0.16-0.31-0.24-0.72-0.24-1.22v-1.7
		c0-0.21-0.01-0.35-0.04-0.42c-0.03-0.07-0.1-0.13-0.22-0.2c-0.15-0.08-0.27-0.17-0.39-0.26c-0.11-0.09-0.17-0.22-0.17-0.4
		c0-0.19,0.08-0.33,0.23-0.45c0.15-0.11,0.4-0.17,0.74-0.17c0.28,0,0.51,0.02,0.71,0.07s0.37,0.1,0.51,0.17
		c0.34-0.03,0.71-0.06,1.09-0.09c0.38-0.03,0.77-0.08,1.17-0.15v-1.84c-1.03,0.19-2,0.37-2.9,0.54c-0.9,0.18-1.69,0.35-2.37,0.53
		c-0.32,0.08-0.61,0.1-0.87,0.07c-0.26-0.03-0.5-0.11-0.7-0.22c-0.21-0.11-0.38-0.25-0.53-0.41c-0.15-0.16-0.26-0.32-0.36-0.48
		c-0.12-0.22-0.13-0.41-0.03-0.55c0.1-0.15,0.31-0.2,0.64-0.18c0.37,0.01,0.84,0,1.41-0.03c0.57-0.03,1.19-0.09,1.88-0.17
		c0.69-0.08,1.42-0.17,2.19-0.27c0.77-0.1,1.54-0.21,2.31-0.33c0.77-0.12,1.51-0.24,2.22-0.36c0.71-0.12,1.37-0.23,1.96-0.34
		c0.63-0.12,1.29-0.26,1.97-0.44c0.68-0.17,1.3-0.27,1.85-0.3c0.77-0.03,1.15,0.23,1.15,0.77c0,0.25-0.1,0.47-0.3,0.64
		S300.86,251.54,300.45,251.57z M288.19,247.03c0-0.67,0.17-1.27,0.5-1.8s0.76-0.97,1.29-1.33c0.53-0.36,1.11-0.63,1.74-0.81
		c0.63-0.19,1.26-0.28,1.88-0.28c0.57,0,1.09,0.07,1.55,0.22c0.47,0.15,0.88,0.35,1.22,0.62c0.34,0.27,0.61,0.6,0.8,0.99
		s0.29,0.83,0.29,1.32c0,0.67-0.17,1.27-0.5,1.8c-0.34,0.53-0.77,0.97-1.3,1.33c-0.53,0.36-1.11,0.63-1.75,0.81
		c-0.64,0.19-1.26,0.28-1.87,0.28c-0.57,0-1.09-0.07-1.57-0.22s-0.88-0.35-1.22-0.62s-0.6-0.6-0.78-0.99
		C288.28,247.96,288.19,247.52,288.19,247.03z M290.25,246.85c0,0.69,0.24,1.19,0.71,1.51c0.48,0.32,1.09,0.43,1.84,0.34
		c0.78-0.11,1.42-0.38,1.91-0.82c0.5-0.44,0.74-1.02,0.74-1.73c0-0.69-0.24-1.19-0.72-1.51c-0.48-0.32-1.1-0.43-1.85-0.34
		c-0.78,0.11-1.41,0.38-1.9,0.82C290.49,245.56,290.25,246.14,290.25,246.85z M295.95,255.35c-0.95,0.11-1.93,0.24-2.94,0.4
		c-1.01,0.16-1.93,0.31-2.76,0.46v0.14v1.88c0,0.21,0.04,0.38,0.12,0.5s0.19,0.22,0.34,0.3c0.14,0.07,0.32,0.12,0.52,0.14
		s0.43,0.03,0.68,0.03c0.66,0,1.35-0.1,2.07-0.31c0.72-0.21,1.38-0.45,1.97-0.72V255.35z"/>
	<path d="M312.97,244.79c-0.01,0.21-0.1,0.39-0.27,0.54c-0.17,0.15-0.4,0.23-0.7,0.26c-0.54,0.07-1.02,0.13-1.44,0.18
		c-0.42,0.05-0.81,0.11-1.18,0.18c0.2,0.19,0.32,0.4,0.38,0.64c0.05,0.24,0.01,0.56-0.14,0.94c-0.03,0.05-0.05,0.1-0.06,0.14
		s-0.03,0.09-0.06,0.14c0.3,0.19,0.6,0.35,0.88,0.51s0.56,0.29,0.82,0.43c0.32,0.16,0.61,0.29,0.87,0.41
		c0.26,0.11,0.5,0.22,0.72,0.32s0.42,0.2,0.59,0.3c0.18,0.1,0.35,0.21,0.52,0.35c0.22,0.19,0.34,0.4,0.36,0.65
		c0.01,0.25-0.07,0.49-0.26,0.71c-0.08,0.11-0.17,0.19-0.28,0.26c-0.11,0.07-0.23,0.11-0.37,0.13c-0.14,0.02-0.29,0-0.46-0.05
		c-0.17-0.05-0.35-0.15-0.54-0.3c-0.42-0.3-0.95-0.67-1.58-1.1s-1.28-0.85-1.94-1.26c-0.59,1.02-1.31,1.94-2.14,2.75
		s-1.71,1.59-2.63,2.32c-0.24,0.19-0.43,0.29-0.56,0.33c-0.14,0.03-0.25,0-0.35-0.09c-0.11-0.11-0.13-0.23-0.08-0.38
		c0.05-0.15,0.17-0.29,0.34-0.44c0.52-0.45,1-0.94,1.46-1.47c0.46-0.53,0.87-1.08,1.23-1.64c0.36-0.57,0.67-1.14,0.92-1.71
		c0.25-0.57,0.44-1.14,0.56-1.69c0.03-0.13,0.03-0.27,0-0.41c-0.03-0.14-0.09-0.25-0.18-0.35c-0.01,0-0.02-0.01-0.02-0.02
		c-0.26,0.07-0.53,0.14-0.8,0.21s-0.56,0.15-0.86,0.23c-0.23,0.07-0.44,0.08-0.65,0.05c-0.21-0.03-0.41-0.1-0.58-0.2
		c-0.18-0.1-0.34-0.22-0.48-0.38s-0.24-0.31-0.31-0.49c-0.08-0.21-0.06-0.38,0.05-0.51c0.11-0.12,0.3-0.17,0.56-0.15
		c0.46,0.04,0.9,0.05,1.31,0.03c0.41-0.02,0.81-0.06,1.21-0.11c0.4-0.05,0.79-0.12,1.18-0.2c0.39-0.08,0.79-0.15,1.22-0.22
		c0.46-0.08,0.93-0.19,1.4-0.34c0.47-0.15,0.96-0.24,1.48-0.3c0.28-0.03,0.5,0.03,0.66,0.16C312.93,244.29,313,244.5,312.97,244.79z
		 M318.04,253.57c-0.01,0.15-0.05,0.29-0.12,0.43s-0.17,0.25-0.3,0.35v3.09c0,0.26-0.02,0.55-0.06,0.87
		c-0.04,0.32-0.11,0.62-0.21,0.91c-0.1,0.29-0.22,0.53-0.38,0.72c-0.15,0.19-0.33,0.29-0.54,0.29c-0.2,0-0.35-0.05-0.46-0.15
		s-0.19-0.22-0.25-0.36c-0.06-0.14-0.1-0.29-0.11-0.46c-0.01-0.17-0.02-0.31-0.02-0.43v-4.16c-1.2,0.15-2.39,0.33-3.58,0.55
		c-1.18,0.22-2.26,0.46-3.22,0.71c-0.48,0.13-0.86,0.09-1.15-0.12c-0.29-0.21-0.52-0.49-0.67-0.83c-0.15-0.32-0.15-0.53-0.01-0.64
		s0.36-0.16,0.66-0.15c0.52,0.01,1.06,0,1.64-0.05c0.58-0.05,1.17-0.11,1.77-0.19c0.6-0.08,1.2-0.18,1.8-0.29
		c0.6-0.11,1.17-0.22,1.71-0.33c0.53-0.11,0.97-0.21,1.33-0.31s0.73-0.17,1.13-0.21C317.75,252.76,318.08,253,318.04,253.57z
		 M315.82,243.86c0-0.22-0.01-0.4-0.04-0.52c-0.03-0.12-0.1-0.21-0.22-0.28c-0.15-0.08-0.27-0.17-0.39-0.27s-0.17-0.23-0.17-0.41
		c0-0.19,0.08-0.33,0.23-0.45c0.15-0.11,0.4-0.17,0.74-0.17c0.44,0,0.78,0.05,1.02,0.16c0.24,0.11,0.43,0.25,0.55,0.43
		c0.12,0.18,0.2,0.39,0.24,0.62s0.05,0.48,0.05,0.73v5.79c0,0.26-0.02,0.55-0.06,0.87c-0.04,0.32-0.11,0.62-0.21,0.91
		c-0.1,0.29-0.22,0.53-0.38,0.72c-0.15,0.19-0.33,0.29-0.54,0.29c-0.2,0-0.35-0.05-0.46-0.15s-0.19-0.22-0.25-0.36
		c-0.06-0.14-0.1-0.29-0.11-0.46c-0.01-0.17-0.02-0.31-0.02-0.43V243.86z"/>
	<path d="M331.33,250.04c0,0.69-0.14,1.33-0.42,1.93s-0.65,1.13-1.13,1.58c-0.48,0.45-1.03,0.8-1.65,1.06
		c-0.63,0.26-1.28,0.39-1.97,0.39c-0.59,0-1.14-0.09-1.62-0.28c-0.49-0.18-0.91-0.45-1.27-0.78c-0.36-0.34-0.63-0.75-0.83-1.23
		c-0.2-0.48-0.3-1.01-0.3-1.59c0-0.7,0.14-1.34,0.43-1.93c0.28-0.59,0.67-1.1,1.16-1.53c0.49-0.43,1.05-0.77,1.67-1.01
		c0.63-0.24,1.29-0.37,1.99-0.37c0.58,0,1.11,0.09,1.59,0.26c0.48,0.17,0.9,0.42,1.25,0.75c0.35,0.33,0.62,0.73,0.81,1.19
		C331.24,248.94,331.33,249.46,331.33,250.04z M326.78,247.9c-0.34,0.04-0.67,0.14-0.97,0.29s-0.57,0.35-0.8,0.6
		s-0.42,0.55-0.55,0.91c-0.14,0.36-0.21,0.77-0.21,1.23c0,0.45,0.07,0.83,0.2,1.14c0.13,0.31,0.31,0.56,0.54,0.75
		s0.49,0.32,0.78,0.39s0.61,0.08,0.94,0.04c0.33-0.04,0.65-0.13,0.96-0.28c0.31-0.15,0.58-0.34,0.81-0.59
		c0.23-0.25,0.42-0.55,0.55-0.91c0.14-0.36,0.21-0.77,0.21-1.23c0-0.44-0.07-0.81-0.2-1.13c-0.13-0.32-0.31-0.57-0.53-0.76
		c-0.22-0.19-0.49-0.32-0.78-0.4C327.42,247.88,327.11,247.86,326.78,247.9z M334.7,252.6c-0.22,0.09-0.45,0.18-0.67,0.25
		c-0.22,0.07-0.45,0.12-0.68,0.13c-0.23,0.01-0.47-0.01-0.7-0.06c-0.24-0.05-0.48-0.17-0.73-0.34c-0.32-0.21-0.48-0.42-0.48-0.63
		c0-0.26,0.17-0.42,0.52-0.48c0.36-0.05,0.78-0.11,1.26-0.18c0.48-0.07,0.98-0.14,1.5-0.22v-2.99c-0.05,0.01-0.12,0.03-0.2,0.06
		c-0.23,0.09-0.45,0.18-0.67,0.25c-0.22,0.07-0.45,0.12-0.68,0.14c-0.23,0.02-0.47,0-0.71-0.05c-0.25-0.05-0.49-0.17-0.74-0.34
		c-0.32-0.21-0.48-0.42-0.48-0.63c0-0.26,0.17-0.42,0.51-0.48c0.38-0.05,0.84-0.12,1.36-0.19s1.06-0.16,1.61-0.25v-2.73
		c0-0.22-0.01-0.4-0.04-0.52c-0.03-0.12-0.1-0.21-0.22-0.28c-0.15-0.08-0.27-0.17-0.39-0.27s-0.17-0.23-0.17-0.41
		c0-0.19,0.08-0.33,0.23-0.45c0.15-0.11,0.4-0.17,0.74-0.17c0.44,0,0.78,0.05,1.02,0.16c0.25,0.11,0.43,0.25,0.56,0.43
		c0.12,0.18,0.2,0.39,0.24,0.62s0.05,0.48,0.05,0.73v13.33c0,0.26-0.02,0.55-0.06,0.87c-0.04,0.32-0.11,0.62-0.21,0.91
		c-0.1,0.29-0.22,0.53-0.38,0.72c-0.15,0.19-0.33,0.29-0.54,0.29c-0.2,0-0.35-0.05-0.46-0.15c-0.11-0.1-0.19-0.22-0.25-0.36
		s-0.1-0.29-0.11-0.46c-0.01-0.17-0.02-0.31-0.02-0.43V252.6z"/>
	<path d="M347.32,247.9c-0.16,0.38-0.34,0.78-0.54,1.19s-0.42,0.83-0.67,1.25c0.41,0.36,0.8,0.69,1.17,1
		c0.37,0.31,0.73,0.58,1.07,0.82c0.29,0.21,0.54,0.38,0.76,0.52c0.22,0.13,0.42,0.25,0.59,0.35c0.18,0.1,0.34,0.2,0.49,0.31
		c0.15,0.11,0.29,0.24,0.44,0.4c0.19,0.22,0.26,0.46,0.24,0.71c-0.03,0.25-0.15,0.48-0.38,0.67c-0.18,0.16-0.42,0.24-0.69,0.26
		c-0.28,0.01-0.59-0.16-0.93-0.52c-0.42-0.45-0.94-0.95-1.57-1.51s-1.29-1.13-2-1.72c-0.63,0.94-1.34,1.85-2.12,2.73
		c-0.78,0.89-1.58,1.7-2.42,2.46c-0.09,0.08-0.22,0.15-0.38,0.2c-0.16,0.05-0.28,0.03-0.38-0.06c-0.11-0.11-0.13-0.23-0.06-0.39
		s0.17-0.3,0.32-0.45c0.51-0.58,1.02-1.23,1.5-1.94c0.49-0.71,0.94-1.45,1.37-2.21c0.42-0.76,0.81-1.52,1.15-2.29
		c0.34-0.77,0.63-1.49,0.85-2.18c0.08-0.24,0.13-0.45,0.15-0.64c0.02-0.19-0.04-0.38-0.19-0.56c-0.08-0.11-0.15-0.21-0.22-0.32
		c-0.07-0.11-0.06-0.25,0.02-0.44c0.07-0.15,0.19-0.24,0.39-0.28s0.44,0.01,0.74,0.16c0.55,0.25,0.97,0.57,1.24,0.96
		C347.54,246.78,347.56,247.28,347.32,247.9z M353.32,249.78c-0.17,0.04-0.33,0.08-0.46,0.12s-0.26,0.08-0.37,0.12
		c-0.22,0.09-0.45,0.17-0.67,0.25c-0.22,0.07-0.45,0.12-0.68,0.14c-0.23,0.02-0.47,0-0.71-0.05c-0.24-0.05-0.49-0.17-0.74-0.34
		c-0.32-0.21-0.48-0.42-0.48-0.63c0-0.26,0.17-0.42,0.51-0.48c0.46-0.07,1.01-0.15,1.65-0.24s1.29-0.19,1.95-0.3v-4.52
		c0-0.22-0.01-0.4-0.04-0.52c-0.03-0.12-0.1-0.21-0.22-0.28c-0.15-0.08-0.27-0.17-0.39-0.27s-0.17-0.23-0.17-0.41
		c0-0.19,0.08-0.33,0.23-0.45c0.15-0.11,0.4-0.17,0.74-0.17c0.44,0,0.78,0.05,1.02,0.16c0.25,0.11,0.43,0.25,0.56,0.43
		c0.12,0.18,0.2,0.39,0.24,0.62s0.05,0.48,0.05,0.73v13.33c0,0.26-0.02,0.55-0.06,0.87c-0.04,0.32-0.11,0.62-0.21,0.91
		c-0.1,0.29-0.22,0.53-0.38,0.72c-0.15,0.19-0.33,0.29-0.54,0.29c-0.2,0-0.35-0.05-0.46-0.15c-0.11-0.1-0.19-0.22-0.25-0.36
		s-0.1-0.29-0.11-0.46c-0.01-0.17-0.02-0.31-0.02-0.43V249.78z"/>
	<path d="M212.51,268.01c0.57-0.12,1-0.12,1.31-0.01s0.49,0.3,0.56,0.56c0.07,0.26,0.05,0.59-0.07,0.97
		c-0.12,0.38-0.31,0.79-0.57,1.21c-0.92,1.49-2.02,2.84-3.29,4.04c-1.27,1.2-2.73,2.3-4.38,3.29c-0.19,0.11-0.37,0.17-0.54,0.2
		c-0.18,0.03-0.3-0.02-0.37-0.14c-0.15-0.25,0.01-0.54,0.46-0.87c0.63-0.49,1.23-0.98,1.78-1.48s1.08-1.02,1.57-1.56
		c0.5-0.55,0.96-1.13,1.41-1.73c0.44-0.61,0.86-1.26,1.26-1.96c0.22-0.41,0.28-0.68,0.18-0.8c-0.11-0.13-0.35-0.16-0.73-0.09
		c-0.65,0.12-1.23,0.25-1.73,0.39s-1.09,0.29-1.73,0.47c-0.22,0.07-0.44,0.08-0.63,0.04c-0.2-0.04-0.38-0.11-0.54-0.22
		c-0.16-0.11-0.29-0.24-0.41-0.41s-0.21-0.34-0.29-0.52c-0.09-0.22-0.09-0.39,0.02-0.5c0.11-0.11,0.27-0.15,0.5-0.14
		c1.11,0.04,2.16-0.02,3.15-0.17C210.41,268.42,211.44,268.23,212.51,268.01z M209.83,281.78c0-0.21-0.05-0.36-0.15-0.46
		s-0.27-0.17-0.51-0.24c-0.37-0.09-0.55-0.3-0.55-0.61c0-0.19,0.06-0.33,0.18-0.44c0.12-0.11,0.35-0.16,0.69-0.16
		c0.54,0,0.97,0.05,1.29,0.14c0.45-0.01,0.96-0.05,1.54-0.12c0.57-0.07,1.16-0.15,1.76-0.24c0.6-0.09,1.2-0.18,1.79-0.28
		c0.59-0.09,1.14-0.17,1.64-0.24v-1.56c-1.2,0.15-2.38,0.32-3.53,0.53c-1.15,0.21-2.22,0.45-3.21,0.71
		c-0.45,0.12-0.85,0.06-1.19-0.18s-0.57-0.55-0.67-0.93c-0.07-0.22-0.06-0.39,0.02-0.5c0.08-0.11,0.3-0.15,0.67-0.14
		c1.03,0.03,2.12-0.04,3.26-0.2c1.14-0.16,2.27-0.35,3.38-0.57c0.46-0.09,0.91-0.2,1.35-0.33c0.44-0.13,0.86-0.2,1.27-0.23
		c0.7-0.04,1.03,0.21,0.99,0.73c-0.03,0.29-0.13,0.52-0.32,0.69l-0.14,1.84c0.37,0.11,0.55,0.34,0.55,0.71
		c0,0.21-0.1,0.36-0.29,0.46c-0.19,0.09-0.52,0.17-0.98,0.22c-1.12,0.11-2.24,0.24-3.36,0.4c-1.12,0.16-2.26,0.32-3.44,0.48v0.75
		c0,0.44,0.13,0.7,0.4,0.79c0.26,0.09,0.69,0.14,1.27,0.14c0.53,0,1.06-0.04,1.6-0.13s1.07-0.21,1.58-0.36
		c0.51-0.15,0.99-0.32,1.44-0.52c0.45-0.19,0.85-0.39,1.19-0.58c0.34-0.2,0.65-0.31,0.92-0.33c0.27-0.02,0.47,0.1,0.58,0.37
		c0.13,0.28,0.09,0.57-0.13,0.88c-0.22,0.31-0.51,0.55-0.88,0.72c-0.49,0.22-1.05,0.42-1.67,0.59c-0.63,0.17-1.26,0.32-1.89,0.45
		c-0.63,0.12-1.25,0.22-1.83,0.28c-0.59,0.06-1.08,0.08-1.48,0.07c-0.5-0.01-0.95-0.05-1.34-0.12c-0.39-0.07-0.72-0.17-0.98-0.31
		s-0.47-0.33-0.61-0.57c-0.15-0.24-0.22-0.56-0.22-0.96V281.78z M217.76,272.23c-0.25,0.07-0.44,0.13-0.57,0.18
		c-0.22,0.09-0.45,0.18-0.67,0.25s-0.45,0.12-0.68,0.14c-0.23,0.02-0.47,0-0.71-0.05c-0.24-0.05-0.49-0.17-0.74-0.34
		c-0.32-0.21-0.48-0.42-0.48-0.63c0-0.26,0.17-0.42,0.52-0.48c0.44-0.07,0.95-0.14,1.54-0.22c0.59-0.08,1.19-0.17,1.81-0.28v-3.17
		c0-0.22-0.01-0.4-0.04-0.52c-0.03-0.12-0.1-0.21-0.22-0.28c-0.15-0.08-0.27-0.17-0.39-0.27c-0.11-0.1-0.17-0.23-0.17-0.41
		c0-0.19,0.08-0.33,0.23-0.45c0.15-0.11,0.4-0.17,0.74-0.17c0.44,0,0.78,0.05,1.02,0.16c0.24,0.11,0.43,0.25,0.55,0.43
		c0.12,0.18,0.2,0.39,0.24,0.62c0.03,0.24,0.05,0.48,0.05,0.73v4.77c0,0.26-0.02,0.55-0.06,0.87c-0.04,0.32-0.11,0.62-0.21,0.91
		s-0.22,0.53-0.38,0.72s-0.33,0.29-0.54,0.29c-0.2,0-0.35-0.05-0.46-0.15c-0.11-0.1-0.19-0.22-0.25-0.36s-0.1-0.29-0.11-0.46
		c-0.01-0.16-0.02-0.31-0.02-0.43V272.23z"/>
	<path d="M225.25,274.13c0-0.18-0.07-0.32-0.21-0.4s-0.28-0.15-0.43-0.22c-0.19-0.07-0.33-0.15-0.43-0.25s-0.15-0.23-0.15-0.41
		c0-0.19,0.08-0.33,0.23-0.45s0.4-0.17,0.74-0.17c0.13,0,0.26,0,0.38,0.01c0.12,0.01,0.23,0.02,0.34,0.03
		c0.32-0.01,0.67-0.04,1.06-0.09c0.39-0.05,0.78-0.1,1.18-0.16c0.4-0.06,0.79-0.12,1.18-0.19c0.39-0.07,0.74-0.12,1.06-0.18v-2.14
		c-0.4,0.04-0.74,0.09-1.02,0.14c-0.28,0.05-0.56,0.12-0.84,0.19s-0.57,0.16-0.87,0.25c-0.3,0.09-0.67,0.2-1.09,0.32
		c-0.21,0.07-0.44,0.08-0.68,0.04c-0.24-0.04-0.48-0.11-0.69-0.22c-0.22-0.11-0.41-0.24-0.56-0.4c-0.16-0.16-0.26-0.33-0.3-0.51
		s-0.02-0.34,0.07-0.46c0.09-0.12,0.27-0.18,0.56-0.18c0.42,0,0.81-0.02,1.18-0.05c0.36-0.03,0.72-0.07,1.08-0.12
		c0.36-0.05,0.72-0.11,1.1-0.18c0.38-0.07,0.79-0.15,1.24-0.23c0.25-0.04,0.47-0.09,0.66-0.15c0.19-0.06,0.38-0.12,0.55-0.17
		c0.18-0.05,0.36-0.1,0.54-0.15c0.18-0.05,0.39-0.08,0.61-0.09c0.32-0.03,0.54,0.02,0.68,0.15s0.19,0.36,0.17,0.7
		c-0.01,0.15-0.05,0.28-0.11,0.41s-0.15,0.23-0.27,0.33l-0.14,2.42c0.15,0.05,0.26,0.13,0.35,0.22s0.13,0.21,0.13,0.36
		c0,0.17-0.1,0.33-0.29,0.49c-0.19,0.15-0.52,0.26-0.98,0.33c-0.38,0.05-0.74,0.1-1.08,0.15s-0.66,0.09-0.97,0.13
		c-0.31,0.04-0.62,0.08-0.92,0.12s-0.62,0.08-0.95,0.12c0.03,0.13,0.04,0.24,0.04,0.32v1.01c0,0.82,0.38,1.21,1.15,1.17
		c0.94-0.04,1.78-0.22,2.53-0.54s1.48-0.76,2.19-1.3c0.3-0.24,0.61-0.36,0.92-0.37c0.31-0.01,0.52,0.12,0.62,0.39
		c0.07,0.15,0.08,0.29,0.05,0.43c-0.03,0.14-0.1,0.28-0.2,0.42s-0.22,0.27-0.38,0.4s-0.31,0.23-0.47,0.33
		c-0.96,0.55-1.97,0.98-3.03,1.27c-1.06,0.29-2.05,0.44-2.97,0.44c-0.86,0-1.5-0.19-1.93-0.58c-0.43-0.39-0.64-1.08-0.64-2.07
		V274.13z M228.77,279.98c0.15-0.32,0.11-0.61-0.12-0.89c-0.11-0.15-0.19-0.28-0.24-0.42c-0.05-0.13-0.05-0.27,0.02-0.42
		c0.08-0.15,0.21-0.25,0.4-0.32c0.19-0.07,0.43-0.03,0.73,0.12c0.28,0.12,0.53,0.25,0.75,0.41c0.22,0.15,0.4,0.32,0.52,0.52
		c0.12,0.19,0.17,0.41,0.17,0.65c-0.01,0.24-0.1,0.52-0.29,0.82c-0.05,0.07-0.1,0.13-0.14,0.2c-0.04,0.07-0.08,0.13-0.12,0.2
		c0.07,0.04,0.15,0.07,0.24,0.08c0.3,0.09,0.59,0.18,0.86,0.27c0.27,0.09,0.48,0.17,0.62,0.25c0.25,0.15,0.39,0.33,0.42,0.55
		c0.03,0.22-0.05,0.44-0.22,0.63c-0.23,0.24-0.46,0.35-0.71,0.34c-0.25-0.01-0.52-0.1-0.79-0.26c-0.37-0.22-0.79-0.48-1.27-0.75
		c-0.55,0.65-1.15,1.21-1.77,1.69c-0.63,0.48-1.28,0.93-1.95,1.36c-0.19,0.12-0.37,0.2-0.54,0.24s-0.3,0.02-0.37-0.06
		s-0.07-0.17-0.01-0.28c0.06-0.11,0.19-0.25,0.39-0.44c0.81-0.74,1.47-1.46,2-2.15S228.35,280.85,228.77,279.98z M236.56,280.25
		c0.18,0.08,0.36,0.16,0.51,0.23c0.16,0.07,0.3,0.14,0.44,0.19c0.38,0.17,0.79,0.31,1.21,0.42c0.42,0.11,0.84,0.27,1.25,0.5
		c0.3,0.17,0.49,0.38,0.56,0.63s0.02,0.49-0.15,0.71c-0.2,0.26-0.45,0.4-0.76,0.41c-0.31,0.01-0.61-0.08-0.9-0.25
		c-0.38-0.22-0.84-0.49-1.38-0.79c-0.53-0.3-1.09-0.61-1.65-0.91c-0.5,0.59-1.06,1.16-1.66,1.68c-0.61,0.53-1.27,1.04-1.98,1.53
		c-0.19,0.13-0.36,0.23-0.52,0.29c-0.17,0.06-0.29,0.04-0.39-0.05c-0.15-0.13-0.03-0.38,0.34-0.75c0.85-0.79,1.55-1.6,2.11-2.44
		c0.56-0.83,1.07-1.78,1.54-2.83c0.13-0.28,0.09-0.55-0.12-0.81c-0.11-0.15-0.19-0.28-0.24-0.42c-0.05-0.13-0.04-0.28,0.04-0.46
		c0.07-0.13,0.19-0.23,0.38-0.29c0.19-0.06,0.43-0.02,0.73,0.13c0.26,0.12,0.5,0.25,0.72,0.41c0.22,0.15,0.39,0.33,0.51,0.52
		s0.19,0.42,0.19,0.66c0,0.24-0.08,0.51-0.24,0.8L236.56,280.25z M236.38,272.75c-0.08,0.03-0.13,0.04-0.14,0.04
		c-0.22,0.09-0.45,0.18-0.67,0.25c-0.22,0.07-0.45,0.12-0.68,0.14c-0.23,0.02-0.47,0-0.71-0.05c-0.24-0.05-0.49-0.17-0.74-0.34
		c-0.32-0.21-0.48-0.42-0.48-0.63c0-0.26,0.17-0.42,0.52-0.48c0.38-0.05,0.83-0.12,1.33-0.19c0.5-0.07,1.03-0.15,1.58-0.23v-1.09
		c-0.08,0.03-0.13,0.04-0.14,0.04c-0.22,0.09-0.45,0.18-0.67,0.25c-0.22,0.07-0.45,0.12-0.68,0.14s-0.47,0-0.71-0.05
		c-0.24-0.05-0.49-0.17-0.74-0.34c-0.32-0.21-0.48-0.42-0.48-0.63c0-0.26,0.17-0.42,0.52-0.48c0.38-0.05,0.83-0.12,1.33-0.19
		c0.5-0.07,1.03-0.15,1.58-0.23v-1.05c0-0.22-0.01-0.4-0.04-0.52c-0.03-0.12-0.1-0.21-0.22-0.28c-0.15-0.08-0.27-0.17-0.39-0.27
		c-0.11-0.1-0.17-0.23-0.17-0.41c0-0.19,0.08-0.33,0.23-0.45c0.15-0.11,0.4-0.17,0.74-0.17c0.44,0,0.78,0.05,1.02,0.16
		c0.24,0.11,0.43,0.25,0.55,0.43c0.12,0.18,0.2,0.39,0.24,0.62c0.03,0.24,0.05,0.48,0.05,0.73v6.06c0,0.26-0.02,0.55-0.06,0.87
		s-0.11,0.62-0.21,0.91c-0.1,0.29-0.22,0.53-0.38,0.72c-0.15,0.19-0.33,0.29-0.54,0.29c-0.2,0-0.35-0.05-0.46-0.15
		c-0.11-0.1-0.19-0.22-0.25-0.36s-0.1-0.29-0.11-0.46s-0.02-0.31-0.02-0.43V272.75z"/>
	<path d="M243.53,272.09c0-0.15-0.01-0.26-0.04-0.35c-0.03-0.09-0.07-0.16-0.12-0.22s-0.12-0.11-0.2-0.14
		c-0.08-0.03-0.17-0.08-0.28-0.13c-0.17-0.08-0.31-0.17-0.42-0.26c-0.11-0.09-0.16-0.22-0.16-0.4c0-0.18,0.08-0.33,0.23-0.45
		c0.15-0.11,0.4-0.17,0.74-0.17c0.52,0,0.95,0.05,1.31,0.16c1.18-0.04,2.35-0.19,3.53-0.46c0.24-0.05,0.46-0.11,0.66-0.18
		c0.2-0.07,0.4-0.13,0.59-0.19c0.19-0.06,0.39-0.11,0.58-0.15s0.42-0.07,0.65-0.08c0.3-0.01,0.56,0.06,0.78,0.22
		c0.22,0.16,0.33,0.41,0.33,0.75c0,0.21-0.1,0.36-0.29,0.44c-0.19,0.08-0.52,0.15-0.98,0.2c-0.79,0.08-1.58,0.17-2.36,0.28
		c-0.78,0.11-1.59,0.22-2.44,0.34c0.01,0.05,0.02,0.13,0.02,0.22v5.45c0,0.42,0.1,0.72,0.29,0.89c0.19,0.17,0.48,0.26,0.86,0.26
		c0.77,0,1.58-0.17,2.43-0.5c0.85-0.33,1.63-0.75,2.35-1.27c0.3-0.22,0.61-0.36,0.91-0.4c0.3-0.04,0.51,0.07,0.61,0.34
		c0.07,0.15,0.08,0.29,0.05,0.44c-0.03,0.15-0.1,0.29-0.2,0.43s-0.22,0.27-0.38,0.39c-0.15,0.12-0.31,0.23-0.46,0.32
		c-0.96,0.53-1.98,0.95-3.04,1.26c-1.06,0.31-2.06,0.47-2.98,0.47c-0.86,0-1.51-0.19-1.94-0.58c-0.44-0.39-0.65-1.08-0.65-2.07
		V272.09z M253.97,267.63c0-0.22-0.01-0.4-0.04-0.52c-0.03-0.12-0.1-0.21-0.22-0.28c-0.14-0.08-0.27-0.17-0.39-0.27
		c-0.11-0.1-0.17-0.23-0.17-0.41c0-0.19,0.08-0.33,0.23-0.45c0.15-0.11,0.4-0.17,0.74-0.17c0.44,0,0.78,0.05,1.02,0.16
		c0.24,0.11,0.43,0.25,0.55,0.43c0.12,0.18,0.2,0.39,0.24,0.62s0.05,0.48,0.05,0.73v4.97c0.14-0.04,0.28-0.08,0.42-0.12
		c0.13-0.04,0.27-0.09,0.42-0.16c0.47-0.18,0.88-0.27,1.23-0.27c0.34,0.01,0.72,0.12,1.15,0.33c0.16,0.08,0.28,0.19,0.36,0.32
		c0.08,0.13,0.12,0.26,0.12,0.38c0,0.15-0.04,0.27-0.14,0.37c-0.09,0.1-0.28,0.16-0.57,0.19c-0.34,0.03-0.78,0.08-1.3,0.15
		c-0.52,0.07-1.08,0.16-1.67,0.27v6.91c0,0.26-0.02,0.55-0.06,0.87c-0.04,0.32-0.11,0.62-0.21,0.91c-0.1,0.29-0.22,0.53-0.38,0.72
		s-0.33,0.29-0.54,0.29c-0.2,0-0.35-0.05-0.46-0.15c-0.11-0.1-0.19-0.22-0.25-0.36c-0.06-0.14-0.1-0.29-0.11-0.46
		c-0.01-0.17-0.02-0.31-0.02-0.43V267.63z"/>
	<path d="M262.69,275.76c0-0.18-0.07-0.32-0.21-0.4s-0.28-0.15-0.43-0.22c-0.18-0.07-0.33-0.15-0.43-0.25
		c-0.1-0.1-0.15-0.23-0.15-0.41c0-0.19,0.08-0.33,0.23-0.45c0.15-0.11,0.4-0.17,0.74-0.17c0.13,0,0.26,0,0.38,0.01
		c0.12,0.01,0.23,0.02,0.34,0.03c0.33-0.03,0.7-0.07,1.12-0.12s0.84-0.12,1.29-0.19c0.44-0.07,0.88-0.14,1.31-0.21
		c0.43-0.07,0.82-0.13,1.16-0.2v-2.77c-0.42,0.05-0.8,0.11-1.13,0.16c-0.33,0.05-0.65,0.12-0.97,0.19
		c-0.32,0.07-0.64,0.16-0.97,0.25c-0.33,0.09-0.71,0.2-1.15,0.32c-0.21,0.07-0.44,0.08-0.68,0.04c-0.24-0.04-0.48-0.11-0.69-0.22
		c-0.22-0.11-0.41-0.24-0.56-0.4c-0.16-0.16-0.26-0.33-0.3-0.52c-0.04-0.19-0.02-0.34,0.07-0.46c0.09-0.12,0.27-0.18,0.57-0.18
		c0.86,0,1.68-0.06,2.46-0.17s1.62-0.25,2.54-0.41c0.25-0.04,0.47-0.09,0.66-0.15c0.19-0.06,0.38-0.12,0.55-0.17
		c0.18-0.05,0.36-0.1,0.54-0.15c0.19-0.05,0.39-0.08,0.61-0.09c0.32-0.03,0.54,0.02,0.68,0.15c0.14,0.13,0.2,0.36,0.17,0.7
		c-0.01,0.15-0.05,0.28-0.11,0.41c-0.06,0.13-0.15,0.23-0.27,0.33l-0.14,2.99c0.17,0.04,0.31,0.11,0.42,0.2
		c0.11,0.09,0.16,0.22,0.16,0.4c0,0.17-0.1,0.34-0.29,0.5c-0.19,0.16-0.52,0.26-0.98,0.32c-0.79,0.09-1.54,0.19-2.24,0.31
		c-0.7,0.11-1.43,0.23-2.18,0.35c0.03,0.13,0.04,0.23,0.04,0.3v1.96c0,0.82,0.38,1.21,1.15,1.17c0.94-0.04,1.78-0.22,2.53-0.54
		c0.75-0.32,1.48-0.76,2.19-1.3c0.3-0.24,0.61-0.36,0.92-0.37c0.31-0.01,0.52,0.12,0.62,0.39c0.07,0.15,0.08,0.29,0.05,0.43
		c-0.03,0.14-0.1,0.28-0.2,0.42c-0.1,0.14-0.22,0.27-0.38,0.4c-0.15,0.13-0.31,0.23-0.46,0.33c-0.96,0.55-1.97,0.98-3.03,1.27
		c-1.06,0.29-2.05,0.44-2.97,0.44c-0.86,0-1.5-0.19-1.93-0.58c-0.43-0.39-0.64-1.08-0.64-2.07V275.76z M273.69,267.63
		c0-0.22-0.01-0.4-0.04-0.52c-0.03-0.12-0.1-0.21-0.22-0.28c-0.15-0.08-0.27-0.17-0.39-0.27s-0.17-0.23-0.17-0.41
		c0-0.19,0.08-0.33,0.23-0.45c0.15-0.11,0.4-0.17,0.74-0.17c0.44,0,0.78,0.05,1.02,0.16c0.24,0.11,0.43,0.25,0.55,0.43
		c0.12,0.18,0.2,0.39,0.24,0.62s0.05,0.48,0.05,0.73v13.33c0,0.26-0.02,0.55-0.06,0.87s-0.11,0.62-0.21,0.91
		c-0.1,0.29-0.22,0.53-0.38,0.72c-0.15,0.19-0.33,0.29-0.54,0.29c-0.2,0-0.35-0.05-0.46-0.15c-0.11-0.1-0.19-0.22-0.25-0.36
		c-0.06-0.14-0.1-0.29-0.11-0.46c-0.01-0.17-0.02-0.31-0.02-0.43V267.63z"/>
	<path d="M292.92,271.6c0,0.66-0.11,1.26-0.33,1.79c-0.22,0.53-0.52,1.01-0.89,1.42c-0.38,0.41-0.82,0.76-1.33,1.04
		c-0.51,0.28-1.05,0.5-1.63,0.64v2.93c0.55-0.09,1.08-0.18,1.58-0.27s0.97-0.17,1.41-0.25c0.63-0.12,1.29-0.26,1.97-0.44
		c0.68-0.17,1.3-0.27,1.85-0.3c0.77-0.03,1.15,0.23,1.15,0.77c0,0.25-0.1,0.47-0.3,0.64s-0.5,0.28-0.91,0.31
		c-0.67,0.05-1.41,0.13-2.21,0.22c-0.8,0.09-1.62,0.2-2.48,0.33s-1.71,0.26-2.57,0.4s-1.69,0.28-2.5,0.44
		c-0.81,0.15-1.56,0.3-2.27,0.46c-0.71,0.15-1.33,0.29-1.87,0.43c-0.32,0.08-0.61,0.1-0.87,0.07c-0.26-0.03-0.5-0.11-0.7-0.22
		s-0.38-0.25-0.53-0.41c-0.15-0.16-0.26-0.32-0.36-0.48c-0.12-0.22-0.13-0.41-0.03-0.55c0.1-0.15,0.31-0.21,0.64-0.18
		c0.33,0.01,0.74,0.01,1.24-0.02s1.05-0.07,1.65-0.14s1.25-0.14,1.94-0.23c0.69-0.09,1.38-0.18,2.08-0.29v-2.99
		c-0.7-0.01-1.31-0.12-1.84-0.32c-0.53-0.2-0.97-0.47-1.33-0.81c-0.36-0.34-0.62-0.75-0.8-1.21c-0.18-0.46-0.27-0.97-0.27-1.53
		c0-0.78,0.18-1.49,0.54-2.12c0.36-0.63,0.82-1.17,1.4-1.61s1.22-0.78,1.95-1.02s1.47-0.36,2.22-0.36c0.65,0,1.24,0.09,1.77,0.26
		c0.54,0.17,0.99,0.42,1.38,0.74c0.38,0.32,0.68,0.73,0.9,1.21S292.92,270.99,292.92,271.6z M290.84,271.77
		c0-0.85-0.24-1.46-0.72-1.84c-0.48-0.38-1.09-0.57-1.83-0.57c-0.46,0-0.92,0.07-1.37,0.21c-0.45,0.14-0.85,0.35-1.21,0.62
		s-0.64,0.62-0.86,1.04s-0.33,0.9-0.33,1.46c0,0.85,0.24,1.46,0.72,1.85c0.48,0.39,1.1,0.58,1.85,0.58c0.46,0,0.92-0.07,1.37-0.22
		s0.85-0.36,1.2-0.64c0.35-0.28,0.63-0.63,0.85-1.05C290.73,272.79,290.84,272.32,290.84,271.77z"/>
	<path d="M300.21,280.55c0.4-0.03,0.73,0.08,0.99,0.32c0.26,0.24,0.4,0.55,0.4,0.95c0,0.42-0.13,0.76-0.4,1
		c-0.26,0.24-0.59,0.38-0.99,0.41c-0.4,0.03-0.73-0.07-1-0.3c-0.27-0.23-0.41-0.55-0.41-0.97c0-0.4,0.14-0.72,0.41-0.98
		C299.48,280.72,299.82,280.58,300.21,280.55z M299.04,270.01c-0.01-0.24-0.01-0.47,0.01-0.7s0.07-0.44,0.15-0.63
		c0.08-0.19,0.19-0.35,0.34-0.47c0.14-0.12,0.34-0.19,0.59-0.2c0.26-0.01,0.48,0.03,0.63,0.14c0.16,0.11,0.27,0.25,0.35,0.44
		c0.07,0.19,0.12,0.39,0.14,0.62c0.02,0.23,0.02,0.47,0.01,0.7l-0.42,9.03c-0.01,0.22-0.08,0.4-0.21,0.51
		c-0.13,0.12-0.28,0.19-0.47,0.2c-0.17,0.01-0.31-0.03-0.43-0.14c-0.11-0.11-0.18-0.27-0.19-0.5L299.04,270.01z"/>
	<path d="M306.16,280.55c0.4-0.03,0.73,0.08,0.99,0.32c0.26,0.24,0.4,0.55,0.4,0.95c0,0.42-0.13,0.76-0.4,1
		c-0.26,0.24-0.59,0.38-0.99,0.41c-0.4,0.03-0.73-0.07-1-0.3c-0.27-0.23-0.41-0.55-0.41-0.97c0-0.4,0.14-0.72,0.41-0.98
		C305.42,280.72,305.76,280.58,306.16,280.55z M304.99,270.01c-0.01-0.24-0.01-0.47,0.01-0.7s0.07-0.44,0.15-0.63
		c0.08-0.19,0.19-0.35,0.34-0.47c0.14-0.12,0.34-0.19,0.59-0.2c0.26-0.01,0.48,0.03,0.63,0.14c0.16,0.11,0.27,0.25,0.35,0.44
		c0.07,0.19,0.12,0.39,0.14,0.62c0.02,0.23,0.02,0.47,0.01,0.7l-0.42,9.03c-0.01,0.22-0.08,0.4-0.21,0.51
		c-0.13,0.12-0.28,0.19-0.47,0.2c-0.17,0.01-0.31-0.03-0.43-0.14c-0.11-0.11-0.18-0.27-0.19-0.5L304.99,270.01z"/>
</g>
</svg>
