<svg width="251" height="161" viewBox="0 0 251 161" fill="none" xmlns="http://www.w3.org/2000/svg">
<path d="M125.59 159.94C193.863 159.94 249.21 124.36 249.21 80.47C249.21 36.5799 193.863 1 125.59 1C57.3165 1 1.96997 36.5799 1.96997 80.47C1.96997 124.36 57.3165 159.94 125.59 159.94Z" fill="white" stroke="black" stroke-width="2" stroke-miterlimit="10"/>
<path d="M41.08 79.12C40.41 79.17 39.67 79.25 38.87 79.34C38.07 79.43 37.25 79.54 36.39 79.67C35.53 79.8 34.68 79.93 33.82 80.07C32.96 80.21 32.13 80.35 31.32 80.51C30.51 80.66 29.76 80.81 29.05 80.97C28.34 81.13 27.72 81.26 27.18 81.4C26.86 81.48 26.57 81.5 26.31 81.47C26.05 81.44 25.81 81.36 25.61 81.25C25.4 81.14 25.23 81 25.09 80.84C24.94 80.68 24.83 80.52 24.73 80.36C24.61 80.14 24.6 79.95 24.7 79.81C24.8 79.66 25.01 79.6 25.34 79.63C25.75 79.66 26.29 79.64 26.95 79.59C27.62 79.54 28.35 79.46 29.16 79.37V75.74C29.16 75.52 29.15 75.34 29.12 75.22C29.09 75.1 29.02 75.01 28.9 74.94C28.75 74.86 28.63 74.77 28.51 74.67C28.4 74.57 28.34 74.44 28.34 74.26C28.34 74.07 28.42 73.93 28.57 73.81C28.72 73.69 28.97 73.64 29.31 73.64C29.75 73.64 30.09 73.69 30.33 73.8C30.57 73.91 30.76 74.05 30.88 74.23C31 74.41 31.08 74.62 31.12 74.85C31.15 75.09 31.17 75.33 31.17 75.58V79.09C31.57 79.02 31.97 78.97 32.37 78.91C32.77 78.86 33.17 78.8 33.57 78.73V74.69C33.57 74.47 33.56 74.29 33.53 74.17C33.5 74.05 33.43 73.96 33.31 73.89C33.16 73.81 33.04 73.72 32.92 73.62C32.81 73.52 32.75 73.39 32.75 73.21C32.75 73.02 32.83 72.88 32.98 72.76C33.13 72.64 33.38 72.59 33.72 72.59C34.16 72.59 34.5 72.64 34.74 72.75C34.98 72.86 35.17 73 35.29 73.18C35.41 73.36 35.49 73.57 35.53 73.8C35.56 74.04 35.58 74.28 35.58 74.53V78.39C35.88 78.34 36.18 78.29 36.46 78.24C36.74 78.19 37.02 78.14 37.28 78.09C37.91 77.97 38.55 77.83 39.18 77.66C39.81 77.49 40.45 77.4 41.1 77.37C41.87 77.34 42.25 77.59 42.25 78.12C42.25 78.37 42.15 78.59 41.95 78.76C41.79 78.99 41.48 79.1 41.08 79.12ZM37.05 75.66C37.17 74.59 37.27 73.54 37.35 72.51C37.43 71.48 37.51 70.42 37.59 69.34C37.62 69.01 37.58 68.79 37.49 68.68C37.4 68.57 37.18 68.53 36.84 68.57C36.22 68.64 35.53 68.74 34.77 68.87C34.01 69 33.25 69.14 32.5 69.29C31.75 69.44 31.03 69.59 30.34 69.75C29.65 69.91 29.08 70.05 28.62 70.17C28.17 70.29 27.78 70.23 27.46 69.99C27.14 69.75 26.9 69.44 26.76 69.06C26.68 68.85 26.71 68.68 26.85 68.56C26.99 68.44 27.19 68.39 27.45 68.42C27.71 68.43 28.09 68.42 28.58 68.39C29.07 68.36 29.62 68.3 30.24 68.23C30.86 68.16 31.52 68.07 32.21 67.96C32.9 67.85 33.58 67.75 34.25 67.64C34.92 67.53 35.54 67.43 36.13 67.32C36.72 67.21 37.22 67.12 37.65 67.02C38.03 66.94 38.37 66.89 38.65 66.88C38.93 66.87 39.17 66.92 39.34 67.03C39.52 67.14 39.64 67.34 39.7 67.61C39.76 67.89 39.75 68.28 39.67 68.8C39.64 69 39.6 69.28 39.55 69.63C39.5 69.99 39.44 70.39 39.37 70.83C39.3 71.27 39.23 71.74 39.14 72.23C39.05 72.72 38.97 73.19 38.88 73.66C38.79 74.13 38.7 74.55 38.6 74.95C38.5 75.35 38.41 75.68 38.31 75.94C38.19 76.26 38.06 76.46 37.91 76.56C37.76 76.66 37.6 76.7 37.41 76.67C37.19 76.64 37.06 76.53 37.03 76.34C37 76.15 37.03 75.92 37.05 75.66Z" fill="black"/>
<path d="M59.7 75.54C58.78 75.61 57.75 75.72 56.63 75.87C55.51 76.02 54.36 76.19 53.2 76.37V80.77C53.2 81.03 53.18 81.32 53.13 81.64C53.08 81.96 53.01 82.26 52.91 82.55C52.81 82.84 52.68 83.08 52.52 83.27C52.36 83.46 52.18 83.56 51.97 83.56C51.78 83.56 51.63 83.51 51.51 83.41C51.39 83.31 51.3 83.19 51.24 83.05C51.18 82.91 51.14 82.76 51.12 82.59C51.1 82.42 51.09 82.28 51.09 82.16V76.69C50.06 76.88 49.09 77.06 48.18 77.24C47.27 77.43 46.48 77.6 45.8 77.78C45.48 77.86 45.19 77.88 44.93 77.85C44.67 77.82 44.43 77.74 44.23 77.63C44.02 77.52 43.85 77.38 43.71 77.22C43.56 77.06 43.45 76.9 43.35 76.74C43.23 76.52 43.22 76.33 43.32 76.19C43.42 76.05 43.63 75.99 43.96 76.01C44.33 76.02 44.8 76.01 45.37 75.98C45.94 75.95 46.57 75.89 47.25 75.81C47.94 75.73 48.67 75.64 49.44 75.54C50.21 75.44 50.98 75.33 51.75 75.21C52.52 75.09 53.26 74.97 53.97 74.85C54.68 74.73 55.34 74.62 55.93 74.51C56.56 74.39 57.22 74.25 57.9 74.07C58.58 73.9 59.2 73.8 59.75 73.77C60.52 73.74 60.9 74 60.9 74.54C60.9 74.79 60.8 75.01 60.6 75.18C60.41 75.41 60.11 75.51 59.7 75.54ZM53.26 68.45C53.17 68.58 53.07 68.71 52.98 68.83C52.89 68.95 52.79 69.07 52.68 69.19C53.3 69.36 53.91 69.52 54.5 69.67C55.09 69.82 55.61 69.93 56.05 70.01C56.37 70.08 56.64 70.12 56.87 70.14C57.1 70.16 57.32 70.18 57.53 70.2C57.74 70.22 57.95 70.25 58.15 70.28C58.35 70.31 58.58 70.38 58.83 70.47C59.08 70.56 59.25 70.72 59.35 70.96C59.44 71.19 59.42 71.44 59.29 71.7C59.18 71.92 59.01 72.09 58.77 72.2C58.53 72.31 58.17 72.29 57.71 72.13C57.34 72.01 56.91 71.88 56.43 71.73C55.95 71.58 55.44 71.44 54.89 71.28C54.35 71.13 53.79 70.98 53.23 70.82C52.66 70.67 52.11 70.53 51.57 70.39C51.13 70.81 50.67 71.23 50.17 71.63C49.67 72.03 49.17 72.41 48.66 72.77C48.15 73.13 47.64 73.45 47.12 73.73C46.6 74.01 46.11 74.25 45.63 74.43C44.98 74.68 44.61 74.68 44.52 74.43C44.47 74.3 44.52 74.18 44.67 74.07C44.82 73.96 45.02 73.84 45.25 73.69C45.91 73.29 46.53 72.86 47.11 72.38C47.69 71.9 48.23 71.42 48.71 70.92C49.19 70.42 49.63 69.93 50.01 69.43C50.39 68.93 50.71 68.46 50.97 68.01C51.25 67.55 51.28 67.18 51.07 66.92C50.96 66.79 50.87 66.66 50.78 66.52C50.69 66.39 50.7 66.22 50.79 66.02C50.86 65.87 50.98 65.78 51.18 65.73C51.37 65.68 51.62 65.73 51.92 65.88C52.17 65.99 52.42 66.12 52.66 66.3C52.9 66.47 53.1 66.67 53.25 66.88C53.4 67.1 53.48 67.34 53.5 67.59C53.55 67.88 53.46 68.15 53.26 68.45Z" fill="black"/>
<path d="M64.1 70.29C64.1 70.14 64.09 70.03 64.06 69.94C64.03 69.85 63.99 69.78 63.94 69.72C63.89 69.66 63.82 69.61 63.74 69.58C63.66 69.55 63.57 69.5 63.46 69.45C63.29 69.37 63.15 69.28 63.04 69.19C62.93 69.1 62.88 68.97 62.88 68.79C62.88 68.61 62.96 68.46 63.11 68.34C63.26 68.23 63.51 68.17 63.85 68.17C64.31 68.17 64.7 68.21 65.01 68.28C65.32 68.35 65.57 68.46 65.75 68.6C65.93 68.74 66.06 68.9 66.14 69.09C66.21 69.28 66.25 69.49 66.25 69.72V72.87C66.25 73.29 66.38 73.59 66.64 73.76C66.9 73.93 67.22 74.02 67.6 74.02C67.98 74.02 68.4 73.99 68.85 73.93C69.3 73.87 69.75 73.78 70.22 73.67C70.69 73.56 71.13 73.41 71.58 73.23C72.03 73.05 72.43 72.84 72.8 72.61C73.1 72.41 73.41 72.3 73.71 72.28C74.01 72.26 74.22 72.38 74.32 72.65C74.45 72.93 74.41 73.19 74.19 73.45C73.97 73.71 73.68 73.93 73.33 74.11C72.83 74.36 72.3 74.57 71.75 74.74C71.2 74.91 70.63 75.05 70.07 75.17C69.5 75.28 68.95 75.36 68.41 75.41C67.87 75.46 67.37 75.48 66.9 75.48C65.96 75.48 65.26 75.29 64.8 74.9C64.34 74.51 64.11 73.82 64.11 72.83V70.29H64.1ZM75.7 82.77C75.51 82.77 75.37 82.73 75.27 82.65C75.17 82.57 75.09 82.47 75.02 82.35C74.61 82.52 74.17 82.67 73.69 82.8C73.21 82.93 72.75 83.03 72.29 83.11C71.83 83.19 71.41 83.25 71.01 83.29C70.61 83.33 70.29 83.34 70.04 83.33C69.58 83.32 69.16 83.27 68.77 83.2C68.39 83.13 68.06 83 67.78 82.82C67.5 82.64 67.28 82.4 67.13 82.09C66.97 81.78 66.89 81.37 66.89 80.87V78.91C66.89 78.7 66.88 78.56 66.85 78.49C66.82 78.42 66.75 78.36 66.63 78.29C66.48 78.21 66.36 78.12 66.24 78.03C66.13 77.94 66.07 77.81 66.07 77.63C66.07 77.45 66.15 77.3 66.3 77.18C66.45 77.07 66.7 77.01 67.04 77.01C67.3 77.01 67.53 77.03 67.7 77.07C67.87 77.11 68.04 77.16 68.19 77.23C68.63 77.2 69.11 77.16 69.65 77.1C70.19 77.04 70.71 76.97 71.23 76.9C71.75 76.83 72.24 76.75 72.71 76.67C73.17 76.59 73.55 76.51 73.86 76.43C74.27 76.32 74.63 76.21 74.95 76.08C75.27 75.95 75.6 75.89 75.96 75.87C76.37 75.86 76.69 75.94 76.92 76.11C77.15 76.28 77.27 76.54 77.29 76.88C77.29 77.13 77.15 77.3 76.87 77.4V80.15C76.87 80.45 76.85 80.76 76.81 81.07C76.77 81.38 76.7 81.66 76.6 81.9C76.5 82.14 76.38 82.35 76.22 82.5C76.1 82.69 75.92 82.77 75.7 82.77ZM69.88 78.41C69.72 78.44 69.57 78.46 69.41 78.49C69.26 78.52 69.11 78.54 68.96 78.57V78.77V80.91C68.96 81.12 69 81.29 69.08 81.41C69.16 81.54 69.27 81.63 69.42 81.71C69.57 81.78 69.74 81.83 69.94 81.85C70.14 81.87 70.37 81.88 70.62 81.88C70.94 81.88 71.27 81.85 71.63 81.8C71.99 81.75 72.35 81.68 72.73 81.59C73.11 81.5 73.48 81.4 73.84 81.29C74.2 81.18 74.54 81.06 74.86 80.92V77.75C74.11 77.84 73.28 77.95 72.39 78.06C71.51 78.18 70.67 78.29 69.88 78.41ZM75.07 66.86C75.07 66.64 75.06 66.46 75.03 66.34C75 66.22 74.93 66.13 74.81 66.06C74.66 65.98 74.54 65.89 74.42 65.79C74.31 65.69 74.25 65.56 74.25 65.38C74.25 65.19 74.33 65.05 74.48 64.93C74.63 64.82 74.88 64.76 75.22 64.76C75.66 64.76 76 64.81 76.24 64.92C76.48 65.03 76.67 65.17 76.79 65.35C76.91 65.53 76.99 65.74 77.03 65.97C77.06 66.21 77.08 66.45 77.08 66.7V72.31C77.08 72.57 77.06 72.87 77.02 73.18C76.98 73.49 76.91 73.8 76.81 74.09C76.71 74.38 76.59 74.62 76.43 74.81C76.27 75 76.1 75.1 75.89 75.1C75.69 75.1 75.54 75.05 75.43 74.95C75.32 74.85 75.24 74.73 75.18 74.59C75.12 74.45 75.08 74.3 75.07 74.13C75.06 73.97 75.05 73.82 75.05 73.7V66.86H75.07Z" fill="black"/>
<path d="M90.78 73.04C90.78 73.73 90.64 74.37 90.36 74.97C90.08 75.57 89.71 76.1 89.23 76.55C88.75 77 88.2 77.35 87.58 77.61C86.95 77.87 86.3 78 85.61 78C85.02 78 84.47 77.91 83.99 77.72C83.5 77.54 83.08 77.27 82.72 76.94C82.36 76.6 82.09 76.19 81.89 75.71C81.69 75.23 81.59 74.7 81.59 74.12C81.59 73.42 81.73 72.78 82.02 72.19C82.3 71.6 82.69 71.09 83.18 70.66C83.67 70.23 84.23 69.89 84.85 69.65C85.48 69.41 86.14 69.28 86.84 69.28C87.42 69.28 87.95 69.37 88.43 69.54C88.91 69.71 89.33 69.96 89.68 70.29C90.03 70.62 90.3 71.02 90.49 71.48C90.68 71.94 90.78 72.46 90.78 73.04ZM86.22 70.9C85.88 70.94 85.55 71.04 85.25 71.19C84.95 71.34 84.68 71.54 84.45 71.79C84.22 72.04 84.03 72.34 83.9 72.7C83.76 73.06 83.69 73.47 83.69 73.93C83.69 74.38 83.76 74.76 83.89 75.07C84.02 75.38 84.2 75.63 84.42 75.82C84.64 76.01 84.91 76.14 85.2 76.21C85.5 76.28 85.81 76.29 86.14 76.25C86.47 76.21 86.79 76.12 87.1 75.97C87.41 75.82 87.68 75.63 87.91 75.38C88.14 75.13 88.33 74.83 88.46 74.47C88.6 74.11 88.67 73.7 88.67 73.24C88.67 72.8 88.6 72.43 88.47 72.11C88.34 71.79 88.16 71.54 87.93 71.35C87.71 71.16 87.44 71.03 87.15 70.95C86.87 70.88 86.55 70.86 86.22 70.9ZM93.75 66.86C93.75 66.64 93.74 66.46 93.71 66.34C93.68 66.22 93.61 66.13 93.49 66.06C93.34 65.98 93.22 65.89 93.1 65.79C92.99 65.69 92.93 65.56 92.93 65.38C92.93 65.19 93.01 65.05 93.16 64.93C93.31 64.82 93.56 64.76 93.9 64.76C94.34 64.76 94.68 64.81 94.92 64.92C95.16 65.03 95.35 65.17 95.47 65.35C95.59 65.53 95.67 65.74 95.71 65.97C95.74 66.21 95.76 66.45 95.76 66.7V80.03C95.76 80.29 95.74 80.58 95.7 80.9C95.66 81.22 95.59 81.52 95.49 81.81C95.39 82.1 95.27 82.34 95.11 82.53C94.95 82.72 94.78 82.82 94.57 82.82C94.37 82.82 94.22 82.77 94.11 82.67C94 82.57 93.92 82.45 93.86 82.31C93.8 82.17 93.76 82.02 93.75 81.85C93.74 81.68 93.73 81.54 93.73 81.42V66.86H93.75Z" fill="black"/>
<path d="M118.34 69.61C118.34 69.87 118.32 70.16 118.28 70.48C118.24 70.8 118.17 71.1 118.07 71.39C117.97 71.68 117.85 71.92 117.69 72.11C117.54 72.3 117.36 72.4 117.15 72.4C116.96 72.4 116.82 72.36 116.72 72.28C116.62 72.2 116.54 72.1 116.47 71.98C116.17 72.13 115.85 72.25 115.53 72.36C115.21 72.47 114.88 72.56 114.55 72.66V73.97C115.05 73.89 115.54 73.81 116.02 73.73C116.5 73.65 116.94 73.57 117.35 73.49C117.98 73.37 118.64 73.23 119.32 73.05C120 72.88 120.62 72.78 121.17 72.75C121.94 72.72 122.32 72.98 122.32 73.52C122.32 73.77 122.22 73.99 122.02 74.16C121.82 74.33 121.52 74.44 121.11 74.47C120.44 74.52 119.7 74.6 118.9 74.69C118.1 74.78 117.28 74.89 116.42 75.02C115.56 75.15 114.71 75.28 113.85 75.42C112.99 75.56 112.16 75.7 111.35 75.86C110.54 76.02 109.79 76.16 109.08 76.32C108.37 76.48 107.75 76.61 107.21 76.75C106.89 76.83 106.6 76.85 106.34 76.82C106.08 76.79 105.84 76.71 105.64 76.6C105.43 76.49 105.26 76.35 105.12 76.19C104.97 76.03 104.86 75.87 104.76 75.71C104.64 75.49 104.63 75.3 104.73 75.16C104.83 75.01 105.04 74.96 105.37 74.98C105.7 74.99 106.13 74.98 106.65 74.95C107.17 74.92 107.74 74.87 108.36 74.81C108.98 74.75 109.64 74.67 110.35 74.58C111.06 74.49 111.77 74.39 112.48 74.28V73C112.33 73.01 112.19 73.02 112.05 73.03C111.91 73.04 111.79 73.03 111.68 73.02C111.22 73.01 110.8 72.96 110.41 72.89C110.03 72.82 109.7 72.69 109.42 72.51C109.14 72.33 108.92 72.09 108.77 71.78C108.62 71.47 108.53 71.06 108.53 70.56V68.74C108.53 68.53 108.52 68.39 108.49 68.32C108.46 68.25 108.39 68.19 108.27 68.12C108.12 68.04 108 67.95 107.88 67.86C107.76 67.77 107.71 67.64 107.71 67.46C107.71 67.28 107.79 67.13 107.94 67.01C108.09 66.9 108.34 66.84 108.68 66.84C109.09 66.84 109.42 66.89 109.67 66.98C109.92 67.07 110.11 67.19 110.24 67.34C110.37 67.49 110.46 67.66 110.51 67.86C110.56 68.06 110.58 68.27 110.58 68.48C111.49 68.39 112.45 68.27 113.45 68.13C114.45 67.99 115.4 67.83 116.28 67.64V67.05C116.28 66.84 116.26 66.7 116.22 66.63C116.18 66.56 116.1 66.5 115.98 66.43C115.83 66.35 115.71 66.26 115.59 66.17C115.48 66.08 115.42 65.95 115.42 65.77C115.42 65.58 115.5 65.44 115.65 65.32C115.8 65.21 116.05 65.15 116.39 65.15C116.81 65.15 117.15 65.2 117.4 65.3C117.65 65.4 117.84 65.53 117.97 65.69C118.1 65.85 118.19 66.03 118.23 66.24C118.27 66.45 118.29 66.67 118.29 66.89V69.61H118.34ZM109.01 81.7C109.01 81.49 108.96 81.34 108.86 81.24C108.76 81.14 108.59 81.07 108.35 81C107.98 80.91 107.8 80.7 107.8 80.39C107.8 80.2 107.86 80.06 107.98 79.95C108.1 79.84 108.33 79.79 108.67 79.79C109.08 79.79 109.41 79.82 109.66 79.87C110.1 79.87 110.6 79.84 111.18 79.79C111.76 79.74 112.35 79.67 112.97 79.59C113.59 79.51 114.2 79.42 114.81 79.33C115.42 79.24 115.98 79.15 116.49 79.07V77.7C115.33 77.85 114.2 78.02 113.11 78.23C112.02 78.43 110.99 78.67 110.01 78.93C109.56 79.05 109.16 78.99 108.82 78.75C108.48 78.51 108.25 78.2 108.15 77.82C108.08 77.6 108.09 77.43 108.17 77.32C108.25 77.21 108.47 77.17 108.84 77.18C109.87 77.21 110.95 77.14 112.09 76.97C113.23 76.81 114.35 76.61 115.46 76.39C115.92 76.3 116.34 76.19 116.71 76.07C117.08 75.95 117.47 75.88 117.88 75.85C118.58 75.81 118.91 76.06 118.87 76.58C118.84 76.88 118.72 77.12 118.51 77.29L118.39 78.87C118.75 78.95 118.92 79.18 118.92 79.56C118.92 79.77 118.82 79.92 118.63 80.02C118.44 80.11 118.11 80.19 117.65 80.24C116.53 80.35 115.43 80.48 114.37 80.64C113.31 80.8 112.2 80.96 111.05 81.12V81.14V81.54C111.05 81.98 111.18 82.24 111.45 82.33C111.72 82.42 112.14 82.47 112.72 82.47C113.25 82.47 113.78 82.43 114.3 82.34C114.83 82.25 115.34 82.14 115.84 82C116.34 81.86 116.8 81.7 117.25 81.51C117.69 81.32 118.08 81.13 118.43 80.94C118.77 80.74 119.08 80.63 119.35 80.61C119.62 80.59 119.82 80.71 119.93 80.98C120.06 81.26 120.02 81.55 119.8 81.86C119.58 82.17 119.29 82.41 118.92 82.58C118.43 82.8 117.88 83 117.27 83.16C116.66 83.33 116.03 83.47 115.41 83.59C114.78 83.71 114.18 83.79 113.61 83.85C113.04 83.9 112.55 83.92 112.15 83.91C111.65 83.9 111.2 83.86 110.81 83.79C110.42 83.72 110.09 83.62 109.83 83.48C109.57 83.34 109.36 83.15 109.22 82.91C109.07 82.67 109 82.35 109 81.95V81.7H109.01ZM112.28 71.58C112.94 71.58 113.63 71.48 114.35 71.28C115.07 71.08 115.73 70.84 116.32 70.57V69.2C115.37 69.31 114.42 69.42 113.48 69.55C112.54 69.68 111.58 69.81 110.62 69.96V70.61C110.62 70.82 110.66 70.99 110.74 71.11C110.82 71.24 110.93 71.33 111.08 71.41C111.23 71.48 111.4 71.53 111.6 71.55C111.8 71.57 112.02 71.58 112.28 71.58Z" fill="black"/>
<path d="M142.9 73.52C142.66 73.55 142.43 73.58 142.21 73.61C141.99 73.64 141.76 73.68 141.54 73.72V79.27C141.54 79.53 141.52 79.82 141.49 80.14C141.46 80.46 141.39 80.76 141.3 81.05C141.21 81.34 141.09 81.58 140.94 81.77C140.79 81.96 140.62 82.06 140.4 82.06C140.2 82.06 140.05 82.01 139.95 81.91C139.85 81.81 139.77 81.69 139.72 81.55C139.67 81.41 139.64 81.26 139.63 81.09C139.62 80.92 139.62 80.78 139.62 80.66V77.19C139.33 77.35 139.05 77.48 138.79 77.59C138.53 77.7 138.25 77.8 137.98 77.91C137.43 78.1 136.91 78.17 136.44 78.14C135.96 78.11 135.57 77.93 135.27 77.6C134.78 77.92 134.26 78.18 133.72 78.39C133.17 78.6 132.67 78.71 132.22 78.71C131.94 78.71 131.68 78.67 131.44 78.6C131.19 78.53 130.98 78.41 130.79 78.24C130.6 78.07 130.45 77.85 130.34 77.56C130.23 77.27 130.18 76.91 130.18 76.47V71.32C130.18 71.08 130.12 70.91 130.01 70.8C129.9 70.69 129.74 70.6 129.54 70.5C129.37 70.42 129.23 70.34 129.12 70.26C129.01 70.18 128.96 70.06 128.96 69.88C128.96 69.51 129.28 69.33 129.93 69.33C130.5 69.33 130.94 69.39 131.26 69.51C131.37 69.48 131.46 69.46 131.54 69.44C131.62 69.42 131.69 69.4 131.74 69.37C132.02 69.29 132.24 69.2 132.4 69.11C132.57 69.02 132.8 68.96 133.1 68.95C133.28 68.95 133.45 68.98 133.6 69.03C133.73 68.82 134.03 68.71 134.49 68.71C134.81 68.71 135.08 68.73 135.31 68.76C135.54 68.79 135.74 68.84 135.89 68.91C136.05 68.88 136.19 68.85 136.33 68.82C136.46 68.79 136.56 68.76 136.63 68.73C136.89 68.65 137.14 68.56 137.37 68.45C137.6 68.34 137.85 68.28 138.11 68.27C138.41 68.26 138.66 68.33 138.85 68.48C139.04 68.63 139.14 68.88 139.14 69.22C139.14 69.42 139.05 69.58 138.88 69.71C138.71 69.84 138.38 69.92 137.91 69.98C137.7 70.01 137.49 70.03 137.29 70.05C137.09 70.07 136.88 70.09 136.69 70.12V70.26V75.51C136.69 75.88 136.77 76.12 136.93 76.24C137.09 76.36 137.35 76.39 137.7 76.34C138.04 76.29 138.37 76.22 138.69 76.14C139.01 76.06 139.32 75.95 139.62 75.8V68.27C139.62 67.85 139.51 67.58 139.3 67.48C139.15 67.4 139.03 67.31 138.91 67.21C138.79 67.11 138.74 66.98 138.74 66.8C138.74 66.62 138.82 66.47 138.97 66.35C139.12 66.24 139.37 66.18 139.71 66.18C140.15 66.18 140.48 66.23 140.72 66.34C140.96 66.45 141.14 66.59 141.26 66.77C141.38 66.95 141.45 67.16 141.48 67.39C141.51 67.62 141.52 67.87 141.52 68.12V72.2C141.74 72.17 141.97 72.14 142.2 72.11C142.43 72.08 142.66 72.04 142.88 72V66.83C142.88 66.61 142.86 66.43 142.83 66.31C142.8 66.19 142.72 66.1 142.6 66.03C142.45 65.95 142.32 65.86 142.19 65.76C142.07 65.66 142 65.53 142 65.35C142 65.16 142.08 65.02 142.23 64.9C142.38 64.79 142.63 64.73 142.97 64.73C143.41 64.73 143.74 64.78 143.98 64.89C144.22 65 144.4 65.14 144.52 65.32C144.64 65.5 144.71 65.71 144.74 65.94C144.77 66.17 144.78 66.42 144.78 66.67V80C144.78 80.26 144.76 80.55 144.73 80.87C144.7 81.19 144.63 81.49 144.54 81.78C144.45 82.07 144.33 82.31 144.18 82.5C144.03 82.69 143.86 82.79 143.64 82.79C143.44 82.79 143.29 82.74 143.19 82.64C143.09 82.54 143.02 82.42 142.96 82.28C142.9 82.14 142.88 81.99 142.87 81.82C142.86 81.65 142.86 81.51 142.86 81.39V73.52H142.9ZM132.17 76.09C132.17 76.21 132.18 76.33 132.2 76.45C132.22 76.57 132.26 76.67 132.33 76.76C132.4 76.85 132.5 76.91 132.64 76.94C132.78 76.97 132.96 76.97 133.18 76.93C133.69 76.85 134.22 76.65 134.76 76.34C134.75 76.26 134.74 76.18 134.74 76.09C134.74 76 134.74 75.92 134.74 75.82V70.61C134.74 70.42 134.68 70.3 134.55 70.22C134.42 70.15 134.29 70.08 134.14 70.01C134.11 70.18 134.01 70.32 133.83 70.44C133.65 70.55 133.34 70.63 132.91 70.67C132.78 70.7 132.65 70.71 132.52 70.72C132.4 70.73 132.27 70.74 132.15 70.77V70.89V76.09H132.17Z" fill="black"/>
<path d="M169.45 74.57C168.51 74.65 167.48 74.76 166.35 74.91C165.22 75.06 164.07 75.22 162.89 75.41V77.29C163.1 77.25 163.3 77.21 163.48 77.18C163.67 77.15 163.83 77.11 163.98 77.07C164.39 76.96 164.75 76.85 165.07 76.72C165.39 76.6 165.72 76.53 166.08 76.51C166.49 76.5 166.81 76.58 167.04 76.75C167.27 76.92 167.39 77.18 167.41 77.52C167.41 77.78 167.26 77.96 166.97 78.05V80.53C166.97 80.83 166.95 81.14 166.91 81.45C166.87 81.76 166.8 82.04 166.7 82.28C166.6 82.52 166.48 82.73 166.32 82.88C166.17 83.04 165.99 83.12 165.78 83.12C165.58 83.12 165.43 83.07 165.32 82.97C165.21 82.87 165.13 82.75 165.06 82.6C164.66 82.78 164.24 82.94 163.8 83.08C163.36 83.21 162.92 83.32 162.5 83.41C162.08 83.5 161.67 83.56 161.29 83.6C160.91 83.64 160.58 83.65 160.32 83.64C159.86 83.63 159.44 83.58 159.05 83.51C158.67 83.44 158.34 83.31 158.06 83.13C157.78 82.95 157.56 82.71 157.41 82.4C157.25 82.09 157.17 81.68 157.17 81.18V79.48C157.17 79.27 157.16 79.13 157.13 79.06C157.1 78.99 157.03 78.93 156.91 78.86C156.76 78.78 156.64 78.69 156.52 78.6C156.41 78.51 156.35 78.38 156.35 78.2C156.35 78.01 156.43 77.87 156.58 77.75C156.73 77.64 156.98 77.58 157.32 77.58C157.6 77.58 157.83 77.6 158.03 77.65C158.23 77.7 158.4 77.75 158.54 77.82C158.88 77.79 159.25 77.76 159.63 77.73C160.01 77.7 160.4 77.65 160.8 77.58V75.74C159.77 75.93 158.8 76.11 157.9 76.28C157 76.46 156.21 76.63 155.53 76.81C155.21 76.89 154.92 76.91 154.66 76.88C154.4 76.85 154.16 76.77 153.96 76.66C153.75 76.55 153.58 76.41 153.43 76.25C153.28 76.09 153.17 75.93 153.07 75.77C152.95 75.55 152.94 75.36 153.04 75.22C153.14 75.07 153.35 75.02 153.68 75.04C154.05 75.05 154.52 75.04 155.09 75.01C155.66 74.98 156.28 74.92 156.97 74.84C157.66 74.76 158.39 74.67 159.16 74.57C159.93 74.47 160.7 74.36 161.47 74.24C162.24 74.12 162.98 74 163.69 73.88C164.4 73.76 165.06 73.65 165.65 73.54C166.28 73.42 166.94 73.28 167.62 73.1C168.3 72.93 168.92 72.83 169.47 72.8C170.24 72.77 170.62 73.03 170.62 73.57C170.62 73.82 170.52 74.04 170.32 74.21C170.12 74.38 169.86 74.54 169.45 74.57ZM157.19 70.03C157.19 69.36 157.36 68.76 157.69 68.23C158.02 67.7 158.45 67.26 158.98 66.9C159.51 66.54 160.09 66.27 160.72 66.09C161.35 65.9 161.98 65.81 162.6 65.81C163.17 65.81 163.69 65.88 164.15 66.03C164.62 66.18 165.03 66.38 165.37 66.65C165.71 66.92 165.98 67.25 166.17 67.64C166.36 68.03 166.46 68.47 166.46 68.96C166.46 69.63 166.29 70.23 165.96 70.76C165.62 71.29 165.19 71.73 164.66 72.09C164.13 72.45 163.55 72.72 162.91 72.9C162.27 73.09 161.65 73.18 161.04 73.18C160.47 73.18 159.95 73.11 159.47 72.96C158.99 72.81 158.59 72.61 158.25 72.34C157.91 72.07 157.65 71.74 157.47 71.35C157.28 70.96 157.19 70.52 157.19 70.03ZM159.25 69.85C159.25 70.54 159.49 71.04 159.96 71.36C160.44 71.68 161.05 71.79 161.8 71.7C162.58 71.59 163.22 71.32 163.71 70.88C164.21 70.44 164.45 69.86 164.45 69.15C164.45 68.46 164.21 67.96 163.73 67.64C163.25 67.32 162.63 67.21 161.88 67.3C161.1 67.41 160.47 67.68 159.98 68.12C159.49 68.56 159.25 69.14 159.25 69.85ZM164.95 78.35C164 78.46 163.02 78.59 162.01 78.75C161 78.91 160.08 79.06 159.25 79.21V79.35V81.23C159.25 81.44 159.29 81.61 159.37 81.73C159.45 81.85 159.56 81.95 159.71 82.03C159.85 82.1 160.03 82.15 160.23 82.17C160.43 82.19 160.66 82.2 160.91 82.2C161.57 82.2 162.26 82.1 162.98 81.89C163.7 81.68 164.36 81.44 164.95 81.17V78.35Z" fill="black"/>
<path d="M181.97 67.79C181.96 68 181.87 68.18 181.7 68.33C181.53 68.48 181.3 68.56 181 68.59C180.46 68.66 179.98 68.72 179.56 68.77C179.14 68.82 178.75 68.88 178.38 68.95C178.58 69.14 178.7 69.35 178.76 69.59C178.81 69.83 178.77 70.15 178.62 70.53C178.59 70.58 178.57 70.63 178.56 70.67C178.55 70.71 178.53 70.76 178.5 70.81C178.8 71 179.1 71.16 179.38 71.32C179.66 71.48 179.94 71.61 180.2 71.75C180.52 71.91 180.81 72.04 181.07 72.16C181.33 72.27 181.57 72.38 181.79 72.48C182.01 72.58 182.21 72.68 182.38 72.78C182.56 72.88 182.73 72.99 182.9 73.13C183.12 73.32 183.24 73.53 183.26 73.78C183.27 74.03 183.19 74.27 183 74.49C182.92 74.6 182.83 74.68 182.72 74.75C182.61 74.82 182.49 74.86 182.35 74.88C182.21 74.9 182.06 74.88 181.89 74.83C181.72 74.78 181.54 74.68 181.35 74.53C180.93 74.23 180.4 73.86 179.77 73.43C179.14 73 178.49 72.58 177.83 72.17C177.24 73.19 176.52 74.11 175.69 74.92C174.86 75.73 173.98 76.51 173.06 77.24C172.82 77.43 172.63 77.53 172.5 77.57C172.36 77.6 172.25 77.57 172.15 77.48C172.04 77.37 172.02 77.25 172.07 77.1C172.12 76.95 172.24 76.81 172.41 76.66C172.93 76.21 173.41 75.72 173.87 75.19C174.33 74.66 174.74 74.11 175.1 73.55C175.46 72.98 175.77 72.41 176.02 71.84C176.27 71.27 176.46 70.7 176.58 70.15C176.61 70.02 176.61 69.88 176.58 69.74C176.55 69.6 176.49 69.49 176.4 69.39C176.39 69.39 176.38 69.38 176.38 69.37C176.12 69.44 175.85 69.51 175.58 69.58C175.31 69.65 175.02 69.73 174.72 69.81C174.49 69.88 174.28 69.89 174.07 69.86C173.86 69.83 173.66 69.76 173.49 69.66C173.31 69.56 173.15 69.44 173.01 69.28C172.87 69.12 172.77 68.97 172.7 68.79C172.62 68.58 172.64 68.41 172.75 68.28C172.86 68.16 173.05 68.11 173.31 68.13C173.77 68.17 174.21 68.18 174.62 68.16C175.03 68.14 175.43 68.1 175.83 68.05C176.23 68 176.62 67.93 177.01 67.85C177.4 67.77 177.8 67.7 178.23 67.63C178.69 67.55 179.16 67.44 179.63 67.29C180.1 67.14 180.59 67.05 181.11 66.99C181.39 66.96 181.61 67.02 181.77 67.15C181.93 67.29 182 67.5 181.97 67.79ZM187.04 76.57C187.03 76.72 186.99 76.86 186.92 77C186.85 77.14 186.75 77.25 186.62 77.35V80.44C186.62 80.7 186.6 80.99 186.56 81.31C186.52 81.63 186.45 81.93 186.35 82.22C186.25 82.51 186.13 82.75 185.97 82.94C185.82 83.13 185.64 83.23 185.43 83.23C185.23 83.23 185.08 83.18 184.97 83.08C184.86 82.98 184.78 82.86 184.72 82.72C184.66 82.58 184.62 82.43 184.61 82.26C184.6 82.09 184.59 81.95 184.59 81.83V77.67C183.39 77.82 182.2 78 181.01 78.22C179.83 78.44 178.75 78.68 177.79 78.93C177.31 79.06 176.93 79.02 176.64 78.81C176.35 78.6 176.12 78.32 175.97 77.98C175.82 77.66 175.82 77.45 175.96 77.34C176.1 77.23 176.32 77.18 176.62 77.19C177.14 77.2 177.68 77.19 178.26 77.14C178.84 77.09 179.43 77.03 180.03 76.95C180.63 76.87 181.23 76.77 181.83 76.66C182.43 76.55 183 76.44 183.54 76.33C184.07 76.22 184.51 76.12 184.87 76.02C185.23 75.92 185.6 75.85 186 75.81C186.75 75.76 187.08 76 187.04 76.57ZM184.82 66.86C184.82 66.64 184.81 66.46 184.78 66.34C184.75 66.22 184.68 66.13 184.56 66.06C184.41 65.98 184.29 65.89 184.17 65.79C184.05 65.69 184 65.56 184 65.38C184 65.19 184.08 65.05 184.23 64.93C184.38 64.82 184.63 64.76 184.97 64.76C185.41 64.76 185.75 64.81 185.99 64.92C186.23 65.03 186.42 65.17 186.54 65.35C186.66 65.53 186.74 65.74 186.78 65.97C186.82 66.2 186.83 66.45 186.83 66.7V72.49C186.83 72.75 186.81 73.04 186.77 73.36C186.73 73.68 186.66 73.98 186.56 74.27C186.46 74.56 186.34 74.8 186.18 74.99C186.03 75.18 185.85 75.28 185.64 75.28C185.44 75.28 185.29 75.23 185.18 75.13C185.07 75.03 184.99 74.91 184.93 74.77C184.87 74.63 184.83 74.48 184.82 74.31C184.81 74.14 184.8 74 184.8 73.88V66.86H184.82Z" fill="black"/>
<path d="M200.33 73.04C200.33 73.73 200.19 74.37 199.91 74.97C199.63 75.57 199.26 76.1 198.78 76.55C198.3 77 197.75 77.35 197.13 77.61C196.5 77.87 195.85 78 195.16 78C194.57 78 194.02 77.91 193.54 77.72C193.05 77.54 192.63 77.27 192.27 76.94C191.91 76.6 191.64 76.19 191.44 75.71C191.24 75.23 191.14 74.7 191.14 74.12C191.14 73.42 191.28 72.78 191.57 72.19C191.85 71.6 192.24 71.09 192.73 70.66C193.22 70.23 193.78 69.89 194.4 69.65C195.03 69.41 195.69 69.28 196.39 69.28C196.97 69.28 197.5 69.37 197.98 69.54C198.46 69.71 198.88 69.96 199.23 70.29C199.58 70.62 199.85 71.02 200.04 71.48C200.24 71.94 200.33 72.46 200.33 73.04ZM195.78 70.9C195.44 70.94 195.11 71.04 194.81 71.19C194.51 71.34 194.24 71.54 194.01 71.79C193.78 72.04 193.59 72.34 193.46 72.7C193.32 73.06 193.25 73.47 193.25 73.93C193.25 74.38 193.32 74.76 193.45 75.07C193.58 75.38 193.76 75.63 193.99 75.82C194.22 76.01 194.48 76.14 194.77 76.21C195.06 76.28 195.38 76.29 195.71 76.25C196.04 76.21 196.36 76.12 196.67 75.97C196.98 75.82 197.25 75.63 197.48 75.38C197.71 75.13 197.9 74.83 198.03 74.47C198.17 74.11 198.24 73.7 198.24 73.24C198.24 72.8 198.17 72.43 198.04 72.11C197.91 71.79 197.73 71.54 197.51 71.35C197.29 71.16 197.02 71.03 196.73 70.95C196.42 70.88 196.11 70.86 195.78 70.9ZM203.7 75.6C203.48 75.69 203.25 75.78 203.03 75.85C202.81 75.92 202.58 75.97 202.35 75.98C202.12 75.99 201.88 75.97 201.65 75.92C201.41 75.87 201.17 75.75 200.92 75.58C200.6 75.37 200.44 75.16 200.44 74.95C200.44 74.69 200.61 74.53 200.96 74.47C201.32 74.42 201.74 74.36 202.22 74.29C202.7 74.22 203.2 74.15 203.72 74.07V71.08C203.67 71.09 203.6 71.11 203.52 71.14C203.29 71.23 203.07 71.32 202.85 71.39C202.63 71.46 202.4 71.51 202.17 71.53C201.94 71.55 201.7 71.53 201.46 71.48C201.21 71.43 200.97 71.31 200.72 71.14C200.4 70.93 200.24 70.72 200.24 70.51C200.24 70.25 200.41 70.09 200.75 70.03C201.13 69.98 201.59 69.91 202.11 69.84C202.63 69.77 203.17 69.68 203.72 69.59V66.86C203.72 66.64 203.71 66.46 203.68 66.34C203.65 66.22 203.58 66.13 203.46 66.06C203.31 65.98 203.19 65.89 203.07 65.79C202.95 65.69 202.9 65.56 202.9 65.38C202.9 65.19 202.98 65.05 203.13 64.93C203.28 64.82 203.53 64.76 203.87 64.76C204.31 64.76 204.65 64.81 204.89 64.92C205.14 65.03 205.32 65.17 205.45 65.35C205.57 65.53 205.65 65.74 205.69 65.97C205.73 66.2 205.74 66.45 205.74 66.7V80.03C205.74 80.29 205.72 80.58 205.68 80.9C205.64 81.22 205.57 81.52 205.47 81.81C205.37 82.1 205.25 82.34 205.09 82.53C204.94 82.72 204.76 82.82 204.55 82.82C204.35 82.82 204.2 82.77 204.09 82.67C203.98 82.57 203.9 82.45 203.84 82.31C203.78 82.17 203.74 82.02 203.73 81.85C203.72 81.68 203.71 81.54 203.71 81.42V75.6H203.7Z" fill="black"/>
<path d="M216.32 70.9C216.16 71.28 215.98 71.68 215.78 72.09C215.58 72.5 215.36 72.92 215.11 73.34C215.52 73.7 215.91 74.03 216.28 74.34C216.65 74.65 217.01 74.92 217.35 75.16C217.64 75.37 217.89 75.54 218.11 75.68C218.33 75.81 218.53 75.93 218.7 76.03C218.88 76.13 219.04 76.23 219.19 76.34C219.34 76.45 219.48 76.58 219.63 76.74C219.82 76.96 219.89 77.2 219.87 77.45C219.84 77.7 219.72 77.93 219.49 78.12C219.31 78.28 219.07 78.36 218.8 78.38C218.52 78.39 218.21 78.22 217.87 77.86C217.45 77.41 216.93 76.91 216.3 76.35C215.67 75.79 215.01 75.22 214.3 74.63C213.67 75.57 212.96 76.48 212.18 77.36C211.4 78.25 210.6 79.06 209.76 79.82C209.67 79.9 209.54 79.97 209.38 80.02C209.22 80.07 209.1 80.05 209 79.96C208.89 79.85 208.87 79.73 208.94 79.57C209.01 79.41 209.11 79.27 209.26 79.12C209.77 78.54 210.28 77.89 210.76 77.18C211.25 76.47 211.7 75.73 212.13 74.97C212.55 74.21 212.94 73.45 213.28 72.68C213.62 71.91 213.91 71.19 214.13 70.5C214.21 70.26 214.26 70.05 214.28 69.86C214.3 69.67 214.24 69.48 214.09 69.3C214.01 69.19 213.94 69.09 213.87 68.98C213.8 68.87 213.81 68.73 213.89 68.54C213.96 68.39 214.08 68.3 214.28 68.26C214.48 68.22 214.72 68.27 215.02 68.42C215.57 68.67 215.99 68.99 216.26 69.38C216.54 69.78 216.56 70.28 216.32 70.9ZM222.32 72.78C222.15 72.82 221.99 72.86 221.86 72.9C221.73 72.94 221.6 72.98 221.49 73.02C221.27 73.11 221.04 73.19 220.82 73.27C220.6 73.34 220.37 73.39 220.14 73.41C219.91 73.43 219.67 73.41 219.43 73.36C219.19 73.31 218.94 73.19 218.69 73.02C218.37 72.81 218.21 72.6 218.21 72.39C218.21 72.13 218.38 71.97 218.72 71.91C219.18 71.84 219.73 71.76 220.37 71.67C221.01 71.58 221.66 71.48 222.32 71.37V66.85C222.32 66.63 222.31 66.45 222.28 66.33C222.25 66.21 222.18 66.12 222.06 66.05C221.91 65.97 221.79 65.88 221.67 65.78C221.55 65.68 221.5 65.55 221.5 65.37C221.5 65.18 221.58 65.04 221.73 64.92C221.88 64.81 222.13 64.75 222.47 64.75C222.91 64.75 223.25 64.8 223.49 64.91C223.74 65.02 223.92 65.16 224.05 65.34C224.17 65.52 224.25 65.73 224.29 65.96C224.33 66.19 224.34 66.44 224.34 66.69V80.02C224.34 80.28 224.32 80.57 224.28 80.89C224.24 81.21 224.17 81.51 224.07 81.8C223.97 82.09 223.85 82.33 223.69 82.52C223.54 82.71 223.36 82.81 223.15 82.81C222.95 82.81 222.8 82.76 222.69 82.66C222.58 82.56 222.5 82.44 222.44 82.3C222.38 82.16 222.34 82.01 222.33 81.84C222.32 81.67 222.31 81.53 222.31 81.41V72.78H222.32Z" fill="black"/>
<path d="M81.51 91.01C82.08 90.89 82.51 90.89 82.82 91C83.13 91.11 83.31 91.3 83.38 91.56C83.45 91.82 83.43 92.15 83.31 92.53C83.19 92.91 83 93.32 82.74 93.74C81.82 95.23 80.72 96.58 79.45 97.78C78.18 98.98 76.72 100.08 75.07 101.07C74.88 101.18 74.7 101.24 74.53 101.27C74.35 101.3 74.23 101.25 74.16 101.13C74.01 100.88 74.17 100.59 74.62 100.26C75.25 99.77 75.85 99.28 76.4 98.78C76.95 98.28 77.48 97.76 77.97 97.22C78.47 96.67 78.93 96.09 79.38 95.49C79.82 94.88 80.24 94.23 80.64 93.53C80.86 93.12 80.92 92.85 80.82 92.73C80.71 92.6 80.47 92.57 80.09 92.64C79.44 92.76 78.86 92.89 78.36 93.03C77.86 93.17 77.27 93.32 76.63 93.5C76.41 93.57 76.19 93.58 76 93.54C75.8 93.5 75.62 93.43 75.46 93.32C75.3 93.21 75.17 93.08 75.05 92.91C74.93 92.74 74.84 92.57 74.76 92.39C74.67 92.17 74.67 92 74.78 91.89C74.89 91.78 75.05 91.74 75.28 91.75C76.39 91.79 77.44 91.73 78.43 91.58C79.41 91.42 80.44 91.23 81.51 91.01ZM78.83 104.78C78.83 104.57 78.78 104.42 78.68 104.32C78.58 104.22 78.41 104.15 78.17 104.08C77.8 103.99 77.62 103.78 77.62 103.47C77.62 103.28 77.68 103.14 77.8 103.03C77.92 102.92 78.15 102.87 78.49 102.87C79.03 102.87 79.46 102.92 79.78 103.01C80.23 103 80.74 102.96 81.32 102.89C81.89 102.82 82.48 102.74 83.08 102.65C83.68 102.56 84.28 102.47 84.87 102.37C85.46 102.28 86.01 102.2 86.51 102.13V100.57C85.31 100.72 84.13 100.89 82.98 101.1C81.83 101.31 80.76 101.55 79.77 101.81C79.32 101.93 78.92 101.87 78.58 101.63C78.24 101.39 78.01 101.08 77.91 100.7C77.84 100.48 77.85 100.31 77.93 100.2C78.01 100.09 78.23 100.05 78.6 100.06C79.63 100.09 80.72 100.02 81.86 99.86C83 99.7 84.13 99.51 85.24 99.29C85.7 99.2 86.15 99.09 86.59 98.96C87.03 98.83 87.45 98.76 87.86 98.73C88.56 98.69 88.89 98.94 88.85 99.46C88.82 99.75 88.72 99.98 88.53 100.15L88.39 101.99C88.76 102.1 88.94 102.33 88.94 102.7C88.94 102.91 88.84 103.06 88.65 103.16C88.46 103.25 88.13 103.33 87.67 103.38C86.55 103.49 85.43 103.62 84.31 103.78C83.19 103.94 82.05 104.1 80.87 104.26V105.01C80.87 105.45 81 105.71 81.27 105.8C81.53 105.89 81.96 105.94 82.54 105.94C83.07 105.94 83.6 105.9 84.14 105.81C84.68 105.72 85.21 105.6 85.72 105.45C86.23 105.3 86.71 105.13 87.16 104.93C87.61 104.74 88.01 104.54 88.35 104.35C88.69 104.15 89 104.04 89.27 104.02C89.54 104 89.74 104.12 89.85 104.39C89.98 104.67 89.94 104.96 89.72 105.27C89.5 105.58 89.21 105.82 88.84 105.99C88.35 106.21 87.79 106.41 87.17 106.58C86.54 106.75 85.91 106.9 85.28 107.03C84.65 107.15 84.03 107.25 83.45 107.31C82.86 107.37 82.37 107.39 81.97 107.38C81.47 107.37 81.02 107.33 80.63 107.26C80.24 107.19 79.91 107.09 79.65 106.95C79.39 106.81 79.18 106.62 79.04 106.38C78.89 106.14 78.82 105.82 78.82 105.42V104.78H78.83ZM86.76 95.23C86.51 95.3 86.32 95.36 86.19 95.41C85.97 95.5 85.74 95.59 85.52 95.66C85.3 95.73 85.07 95.78 84.84 95.8C84.61 95.82 84.37 95.8 84.13 95.75C83.89 95.7 83.64 95.58 83.39 95.41C83.07 95.2 82.91 94.99 82.91 94.78C82.91 94.52 83.08 94.36 83.43 94.3C83.87 94.23 84.38 94.16 84.97 94.08C85.56 94 86.16 93.91 86.78 93.8V90.63C86.78 90.41 86.77 90.23 86.74 90.11C86.71 89.99 86.64 89.9 86.52 89.83C86.37 89.75 86.25 89.66 86.13 89.56C86.02 89.46 85.96 89.33 85.96 89.15C85.96 88.96 86.04 88.82 86.19 88.7C86.34 88.59 86.59 88.53 86.93 88.53C87.37 88.53 87.71 88.58 87.95 88.69C88.19 88.8 88.38 88.94 88.5 89.12C88.62 89.3 88.7 89.51 88.74 89.74C88.77 89.98 88.79 90.22 88.79 90.47V95.24C88.79 95.5 88.77 95.79 88.73 96.11C88.69 96.43 88.62 96.73 88.52 97.02C88.42 97.31 88.3 97.55 88.14 97.74C87.98 97.93 87.81 98.03 87.6 98.03C87.4 98.03 87.25 97.98 87.14 97.88C87.03 97.78 86.95 97.66 86.89 97.52C86.83 97.38 86.79 97.23 86.78 97.06C86.77 96.9 86.76 96.75 86.76 96.63V95.23Z" fill="black"/>
<path d="M94.25 97.13C94.25 96.95 94.18 96.81 94.04 96.73C93.9 96.65 93.76 96.58 93.61 96.51C93.42 96.44 93.28 96.36 93.18 96.26C93.08 96.16 93.03 96.03 93.03 95.85C93.03 95.66 93.11 95.52 93.26 95.4C93.41 95.28 93.66 95.23 94 95.23C94.13 95.23 94.26 95.23 94.38 95.24C94.5 95.25 94.61 95.26 94.72 95.27C95.04 95.26 95.39 95.23 95.78 95.18C96.17 95.13 96.56 95.08 96.96 95.02C97.36 94.96 97.75 94.9 98.14 94.83C98.53 94.76 98.88 94.71 99.2 94.65V92.51C98.8 92.55 98.46 92.6 98.18 92.65C97.9 92.7 97.62 92.77 97.34 92.84C97.06 92.91 96.77 93 96.47 93.09C96.17 93.18 95.8 93.29 95.38 93.41C95.17 93.48 94.94 93.49 94.7 93.45C94.46 93.41 94.22 93.34 94.01 93.23C93.79 93.12 93.6 92.99 93.45 92.83C93.29 92.67 93.19 92.5 93.15 92.32C93.11 92.14 93.13 91.98 93.22 91.86C93.31 91.74 93.49 91.68 93.78 91.68C94.2 91.68 94.59 91.66 94.96 91.63C95.32 91.6 95.68 91.56 96.04 91.51C96.4 91.46 96.76 91.4 97.14 91.33C97.52 91.26 97.93 91.18 98.38 91.1C98.63 91.06 98.85 91.01 99.04 90.95C99.23 90.89 99.42 90.83 99.59 90.78C99.77 90.73 99.95 90.68 100.13 90.63C100.31 90.58 100.52 90.55 100.74 90.54C101.06 90.51 101.28 90.56 101.42 90.69C101.56 90.82 101.61 91.05 101.59 91.39C101.58 91.54 101.54 91.67 101.48 91.8C101.42 91.93 101.33 92.03 101.21 92.13L101.07 94.55C101.22 94.6 101.33 94.68 101.42 94.77C101.51 94.86 101.55 94.98 101.55 95.13C101.55 95.3 101.45 95.46 101.26 95.62C101.07 95.77 100.74 95.88 100.28 95.95C99.9 96 99.54 96.05 99.2 96.1C98.86 96.15 98.54 96.19 98.23 96.23C97.92 96.27 97.61 96.31 97.31 96.35C97.01 96.39 96.69 96.43 96.36 96.47C96.39 96.6 96.4 96.71 96.4 96.79V97.8C96.4 98.62 96.78 99.01 97.55 98.97C98.49 98.93 99.33 98.75 100.08 98.43C100.83 98.11 101.56 97.67 102.27 97.13C102.57 96.89 102.88 96.77 103.19 96.76C103.5 96.75 103.71 96.88 103.81 97.15C103.88 97.3 103.89 97.44 103.86 97.58C103.83 97.72 103.76 97.86 103.66 98C103.56 98.14 103.44 98.27 103.28 98.4C103.12 98.53 102.97 98.63 102.81 98.73C101.85 99.28 100.84 99.71 99.78 100C98.72 100.29 97.73 100.44 96.81 100.44C95.95 100.44 95.31 100.25 94.88 99.86C94.45 99.47 94.24 98.78 94.24 97.79V97.13H94.25ZM97.77 102.98C97.92 102.66 97.88 102.37 97.65 102.09C97.54 101.94 97.46 101.81 97.41 101.67C97.36 101.54 97.36 101.4 97.43 101.25C97.51 101.1 97.64 101 97.83 100.93C98.02 100.86 98.26 100.9 98.56 101.05C98.84 101.17 99.09 101.3 99.31 101.46C99.53 101.61 99.71 101.78 99.83 101.98C99.95 102.17 100 102.39 100 102.63C99.99 102.87 99.9 103.15 99.71 103.45C99.66 103.52 99.61 103.58 99.57 103.65C99.53 103.72 99.49 103.78 99.45 103.85C99.52 103.89 99.6 103.92 99.69 103.93C99.99 104.02 100.28 104.11 100.55 104.2C100.82 104.29 101.03 104.37 101.17 104.45C101.42 104.6 101.56 104.78 101.59 105C101.62 105.22 101.54 105.44 101.37 105.63C101.14 105.87 100.91 105.98 100.66 105.97C100.41 105.96 100.14 105.87 99.87 105.71C99.5 105.49 99.08 105.23 98.6 104.96C98.05 105.61 97.45 106.17 96.83 106.65C96.2 107.13 95.55 107.58 94.88 108.01C94.69 108.13 94.51 108.21 94.34 108.25C94.17 108.29 94.04 108.27 93.97 108.19C93.9 108.11 93.9 108.02 93.96 107.91C94.02 107.8 94.15 107.66 94.35 107.47C95.16 106.73 95.82 106.01 96.35 105.32C96.88 104.63 97.35 103.85 97.77 102.98ZM105.56 103.25C105.74 103.33 105.92 103.41 106.07 103.48C106.23 103.55 106.37 103.62 106.51 103.67C106.89 103.84 107.3 103.98 107.72 104.09C108.14 104.2 108.56 104.36 108.97 104.59C109.27 104.76 109.46 104.97 109.53 105.22C109.6 105.47 109.55 105.71 109.38 105.93C109.18 106.19 108.93 106.33 108.62 106.34C108.31 106.35 108.01 106.26 107.72 106.09C107.34 105.87 106.88 105.6 106.34 105.3C105.81 105 105.25 104.69 104.69 104.39C104.19 104.98 103.63 105.55 103.03 106.07C102.42 106.6 101.76 107.11 101.05 107.6C100.86 107.73 100.69 107.83 100.53 107.89C100.36 107.95 100.24 107.93 100.14 107.84C99.99 107.71 100.11 107.46 100.48 107.09C101.33 106.3 102.03 105.49 102.59 104.65C103.15 103.82 103.66 102.87 104.13 101.82C104.26 101.54 104.22 101.27 104.01 101.01C103.9 100.86 103.82 100.73 103.77 100.59C103.72 100.46 103.73 100.31 103.81 100.13C103.88 100 104 99.9 104.19 99.84C104.38 99.78 104.62 99.82 104.92 99.97C105.18 100.09 105.42 100.22 105.64 100.38C105.86 100.53 106.03 100.71 106.15 100.9C106.27 101.09 106.34 101.32 106.34 101.56C106.34 101.8 106.26 102.07 106.1 102.36L105.56 103.25ZM105.38 95.75C105.3 95.78 105.25 95.79 105.24 95.79C105.02 95.88 104.79 95.97 104.57 96.04C104.35 96.11 104.12 96.16 103.89 96.18C103.66 96.2 103.42 96.18 103.18 96.13C102.94 96.08 102.69 95.96 102.44 95.79C102.12 95.58 101.96 95.37 101.96 95.16C101.96 94.9 102.13 94.74 102.48 94.68C102.86 94.63 103.31 94.56 103.81 94.49C104.31 94.42 104.84 94.34 105.39 94.26V93.17C105.31 93.2 105.26 93.21 105.25 93.21C105.03 93.3 104.8 93.39 104.58 93.46C104.36 93.53 104.13 93.58 103.9 93.6C103.67 93.62 103.43 93.6 103.19 93.55C102.95 93.5 102.7 93.38 102.45 93.21C102.13 93 101.97 92.79 101.97 92.58C101.97 92.32 102.14 92.16 102.49 92.1C102.87 92.05 103.32 91.98 103.82 91.91C104.32 91.84 104.85 91.76 105.4 91.68V90.63C105.4 90.41 105.39 90.23 105.36 90.11C105.33 89.99 105.26 89.9 105.14 89.83C104.99 89.75 104.87 89.66 104.75 89.56C104.64 89.46 104.58 89.33 104.58 89.15C104.58 88.96 104.66 88.82 104.81 88.7C104.96 88.59 105.21 88.53 105.55 88.53C105.99 88.53 106.33 88.58 106.57 88.69C106.81 88.8 107 88.94 107.12 89.12C107.24 89.3 107.32 89.51 107.36 89.74C107.39 89.98 107.41 90.22 107.41 90.47V96.53C107.41 96.79 107.39 97.08 107.35 97.4C107.31 97.72 107.24 98.02 107.14 98.31C107.04 98.6 106.92 98.84 106.76 99.03C106.61 99.22 106.43 99.32 106.22 99.32C106.02 99.32 105.87 99.27 105.76 99.17C105.65 99.07 105.57 98.95 105.51 98.81C105.45 98.67 105.41 98.52 105.4 98.35C105.39 98.18 105.38 98.04 105.38 97.92V95.75Z" fill="black"/>
<path d="M112.53 95.09C112.53 94.94 112.52 94.83 112.49 94.74C112.46 94.65 112.42 94.58 112.37 94.52C112.32 94.46 112.25 94.41 112.17 94.38C112.09 94.35 112 94.3 111.89 94.25C111.72 94.17 111.58 94.08 111.47 93.99C111.36 93.9 111.31 93.77 111.31 93.59C111.31 93.41 111.39 93.26 111.54 93.14C111.69 93.03 111.94 92.97 112.28 92.97C112.8 92.97 113.23 93.02 113.59 93.13C114.77 93.09 115.94 92.94 117.12 92.67C117.36 92.62 117.58 92.56 117.78 92.49C117.98 92.42 118.18 92.36 118.37 92.3C118.56 92.24 118.76 92.19 118.95 92.15C119.14 92.11 119.37 92.08 119.6 92.07C119.9 92.06 120.16 92.13 120.38 92.29C120.6 92.45 120.71 92.7 120.71 93.04C120.71 93.25 120.61 93.4 120.42 93.48C120.23 93.56 119.9 93.63 119.44 93.68C118.65 93.76 117.86 93.85 117.08 93.96C116.3 94.07 115.49 94.18 114.64 94.3C114.65 94.35 114.66 94.43 114.66 94.52V99.97C114.66 100.39 114.76 100.69 114.95 100.86C115.14 101.03 115.43 101.12 115.81 101.12C116.58 101.12 117.39 100.95 118.24 100.62C119.09 100.29 119.87 99.87 120.59 99.35C120.89 99.13 121.2 98.99 121.5 98.95C121.8 98.91 122.01 99.02 122.11 99.29C122.18 99.44 122.19 99.58 122.16 99.73C122.13 99.88 122.06 100.02 121.96 100.16C121.86 100.3 121.74 100.43 121.58 100.55C121.43 100.67 121.27 100.78 121.12 100.87C120.16 101.4 119.14 101.82 118.08 102.13C117.02 102.44 116.02 102.6 115.1 102.6C114.24 102.6 113.59 102.41 113.16 102.02C112.72 101.63 112.51 100.94 112.51 99.95V95.09H112.53ZM122.97 90.63C122.97 90.41 122.96 90.23 122.93 90.11C122.9 89.99 122.83 89.9 122.71 89.83C122.57 89.75 122.44 89.66 122.32 89.56C122.21 89.46 122.15 89.33 122.15 89.15C122.15 88.96 122.23 88.82 122.38 88.7C122.53 88.59 122.78 88.53 123.12 88.53C123.56 88.53 123.9 88.58 124.14 88.69C124.38 88.8 124.57 88.94 124.69 89.12C124.81 89.3 124.89 89.51 124.93 89.74C124.97 89.97 124.98 90.22 124.98 90.47V95.44C125.12 95.4 125.26 95.36 125.4 95.32C125.53 95.28 125.67 95.23 125.82 95.16C126.29 94.98 126.7 94.89 127.05 94.89C127.39 94.9 127.77 95.01 128.2 95.22C128.36 95.3 128.48 95.41 128.56 95.54C128.64 95.67 128.68 95.8 128.68 95.92C128.68 96.07 128.64 96.19 128.54 96.29C128.45 96.39 128.26 96.45 127.97 96.48C127.63 96.51 127.19 96.56 126.67 96.63C126.15 96.7 125.59 96.79 125 96.9V103.81C125 104.07 124.98 104.36 124.94 104.68C124.9 105 124.83 105.3 124.73 105.59C124.63 105.88 124.51 106.12 124.35 106.31C124.19 106.5 124.02 106.6 123.81 106.6C123.61 106.6 123.46 106.55 123.35 106.45C123.24 106.35 123.16 106.23 123.1 106.09C123.04 105.95 123 105.8 122.99 105.63C122.98 105.46 122.97 105.32 122.97 105.2V90.63Z" fill="black"/>
<path d="M131.69 98.76C131.69 98.58 131.62 98.44 131.48 98.36C131.34 98.28 131.2 98.21 131.05 98.14C130.87 98.07 130.72 97.99 130.62 97.89C130.52 97.79 130.47 97.66 130.47 97.48C130.47 97.29 130.55 97.15 130.7 97.03C130.85 96.92 131.1 96.86 131.44 96.86C131.57 96.86 131.7 96.86 131.82 96.87C131.94 96.88 132.05 96.89 132.16 96.9C132.49 96.87 132.86 96.83 133.28 96.78C133.7 96.73 134.12 96.66 134.57 96.59C135.01 96.52 135.45 96.45 135.88 96.38C136.31 96.31 136.7 96.25 137.04 96.18V93.41C136.62 93.46 136.24 93.52 135.91 93.57C135.58 93.62 135.26 93.69 134.94 93.76C134.62 93.83 134.3 93.92 133.97 94.01C133.64 94.1 133.26 94.21 132.82 94.33C132.61 94.4 132.38 94.41 132.14 94.37C131.9 94.33 131.66 94.26 131.45 94.15C131.23 94.04 131.04 93.91 130.89 93.75C130.73 93.59 130.63 93.42 130.59 93.23C130.55 93.04 130.57 92.89 130.66 92.77C130.75 92.65 130.93 92.59 131.23 92.59C132.09 92.59 132.91 92.53 133.69 92.42C134.47 92.31 135.31 92.17 136.23 92.01C136.48 91.97 136.7 91.92 136.89 91.86C137.08 91.8 137.27 91.74 137.44 91.69C137.62 91.64 137.8 91.59 137.98 91.54C138.17 91.49 138.37 91.46 138.59 91.45C138.91 91.42 139.13 91.47 139.27 91.6C139.41 91.73 139.47 91.96 139.44 92.3C139.43 92.45 139.39 92.58 139.33 92.71C139.27 92.84 139.18 92.94 139.06 93.04L138.92 96.03C139.09 96.07 139.23 96.14 139.34 96.23C139.45 96.32 139.5 96.45 139.5 96.63C139.5 96.8 139.4 96.97 139.21 97.13C139.02 97.29 138.69 97.39 138.23 97.45C137.44 97.54 136.69 97.64 135.99 97.76C135.29 97.87 134.56 97.99 133.81 98.11C133.84 98.24 133.85 98.34 133.85 98.41V100.37C133.85 101.19 134.23 101.58 135 101.54C135.94 101.5 136.78 101.32 137.53 101C138.28 100.68 139.01 100.24 139.72 99.7C140.02 99.46 140.33 99.34 140.64 99.33C140.95 99.32 141.16 99.45 141.26 99.72C141.33 99.87 141.34 100.01 141.31 100.15C141.28 100.29 141.21 100.43 141.11 100.57C141.01 100.71 140.89 100.84 140.73 100.97C140.58 101.1 140.42 101.2 140.27 101.3C139.31 101.85 138.3 102.28 137.24 102.57C136.18 102.86 135.19 103.01 134.27 103.01C133.41 103.01 132.77 102.82 132.34 102.43C131.91 102.04 131.7 101.35 131.7 100.36V98.76H131.69ZM142.69 90.63C142.69 90.41 142.68 90.23 142.65 90.11C142.62 89.99 142.55 89.9 142.43 89.83C142.28 89.75 142.16 89.66 142.04 89.56C141.92 89.46 141.87 89.33 141.87 89.15C141.87 88.96 141.95 88.82 142.1 88.7C142.25 88.59 142.5 88.53 142.84 88.53C143.28 88.53 143.62 88.58 143.86 88.69C144.1 88.8 144.29 88.94 144.41 89.12C144.53 89.3 144.61 89.51 144.65 89.74C144.69 89.97 144.7 90.22 144.7 90.47V103.8C144.7 104.06 144.68 104.35 144.64 104.67C144.6 104.99 144.53 105.29 144.43 105.58C144.33 105.87 144.21 106.11 144.05 106.3C143.9 106.49 143.72 106.59 143.51 106.59C143.31 106.59 143.16 106.54 143.05 106.44C142.94 106.34 142.86 106.22 142.8 106.08C142.74 105.94 142.7 105.79 142.69 105.62C142.68 105.45 142.67 105.31 142.67 105.19V90.63H142.69Z" fill="black"/>
<path d="M161.92 94.6C161.92 95.26 161.81 95.86 161.59 96.39C161.37 96.92 161.07 97.4 160.7 97.81C160.32 98.22 159.88 98.57 159.37 98.85C158.86 99.13 158.32 99.35 157.74 99.49V102.42C158.29 102.33 158.82 102.24 159.32 102.15C159.82 102.06 160.29 101.98 160.73 101.9C161.36 101.78 162.02 101.64 162.7 101.46C163.38 101.29 164 101.19 164.55 101.16C165.32 101.13 165.7 101.39 165.7 101.93C165.7 102.18 165.6 102.4 165.4 102.57C165.2 102.74 164.9 102.85 164.49 102.88C163.82 102.93 163.08 103.01 162.28 103.1C161.48 103.19 160.66 103.3 159.8 103.43C158.94 103.56 158.09 103.69 157.23 103.83C156.37 103.97 155.54 104.11 154.73 104.27C153.92 104.42 153.17 104.57 152.46 104.73C151.75 104.88 151.13 105.02 150.59 105.16C150.27 105.24 149.98 105.26 149.72 105.23C149.46 105.2 149.22 105.12 149.02 105.01C148.82 104.9 148.64 104.76 148.49 104.6C148.34 104.44 148.23 104.28 148.13 104.12C148.01 103.9 148 103.71 148.1 103.57C148.2 103.42 148.41 103.36 148.74 103.39C149.07 103.4 149.48 103.4 149.98 103.37C150.48 103.34 151.03 103.3 151.63 103.23C152.23 103.16 152.88 103.09 153.57 103C154.26 102.91 154.95 102.82 155.65 102.71V99.72C154.95 99.71 154.34 99.6 153.81 99.4C153.28 99.2 152.84 98.93 152.48 98.59C152.12 98.25 151.86 97.84 151.68 97.38C151.5 96.92 151.41 96.41 151.41 95.85C151.41 95.07 151.59 94.36 151.95 93.73C152.31 93.1 152.77 92.56 153.35 92.12C153.93 91.68 154.57 91.34 155.3 91.1C156.03 90.86 156.77 90.74 157.52 90.74C158.17 90.74 158.76 90.83 159.29 91C159.83 91.17 160.28 91.42 160.67 91.74C161.05 92.06 161.35 92.47 161.57 92.95C161.79 93.43 161.92 93.99 161.92 94.6ZM159.84 94.77C159.84 93.92 159.6 93.31 159.12 92.93C158.64 92.55 158.03 92.36 157.29 92.36C156.83 92.36 156.37 92.43 155.92 92.57C155.47 92.71 155.07 92.92 154.71 93.19C154.35 93.46 154.07 93.81 153.85 94.23C153.63 94.65 153.52 95.13 153.52 95.69C153.52 96.54 153.76 97.15 154.24 97.54C154.72 97.93 155.34 98.12 156.09 98.12C156.55 98.12 157.01 98.05 157.46 97.9C157.91 97.75 158.31 97.54 158.66 97.26C159.01 96.98 159.29 96.63 159.51 96.21C159.73 95.79 159.84 95.32 159.84 94.77Z" fill="black"/>
<path d="M169.21 103.55C169.61 103.52 169.94 103.63 170.2 103.87C170.46 104.11 170.6 104.42 170.6 104.82C170.6 105.24 170.47 105.58 170.2 105.82C169.94 106.06 169.61 106.2 169.21 106.23C168.81 106.26 168.48 106.16 168.21 105.93C167.94 105.7 167.8 105.38 167.8 104.96C167.8 104.56 167.94 104.24 168.21 103.98C168.48 103.72 168.82 103.58 169.21 103.55ZM168.04 93.01C168.03 92.77 168.03 92.54 168.05 92.31C168.07 92.08 168.12 91.8699 168.2 91.6799C168.28 91.4899 168.39 91.3299 168.54 91.2099C168.68 91.0899 168.88 91.02 169.13 91.01C169.39 91 169.61 91.0399 169.76 91.1499C169.92 91.2599 170.03 91.4 170.11 91.59C170.18 91.78 170.23 91.9799 170.25 92.2099C170.27 92.4399 170.27 92.68 170.26 92.91L169.84 101.94C169.83 102.16 169.76 102.34 169.63 102.45C169.5 102.57 169.35 102.64 169.16 102.65C168.99 102.66 168.85 102.62 168.73 102.51C168.62 102.4 168.55 102.24 168.54 102.01L168.04 93.01Z" fill="black"/>
<path d="M175.16 103.55C175.56 103.52 175.89 103.63 176.15 103.87C176.41 104.11 176.55 104.42 176.55 104.82C176.55 105.24 176.42 105.58 176.15 105.82C175.89 106.06 175.56 106.2 175.16 106.23C174.76 106.26 174.43 106.16 174.16 105.93C173.89 105.7 173.75 105.38 173.75 104.96C173.75 104.56 173.89 104.24 174.16 103.98C174.42 103.72 174.76 103.58 175.16 103.55ZM173.99 93.01C173.98 92.77 173.98 92.54 174 92.31C174.02 92.08 174.07 91.8699 174.15 91.6799C174.23 91.4899 174.34 91.3299 174.49 91.2099C174.63 91.0899 174.83 91.02 175.08 91.01C175.34 91 175.56 91.0399 175.71 91.1499C175.87 91.2599 175.98 91.4 176.06 91.59C176.13 91.78 176.18 91.9799 176.2 92.2099C176.22 92.4399 176.22 92.68 176.21 92.91L175.79 101.94C175.78 102.16 175.71 102.34 175.58 102.45C175.45 102.57 175.3 102.64 175.11 102.65C174.94 102.66 174.8 102.62 174.68 102.51C174.57 102.4 174.5 102.24 174.49 102.01L173.99 93.01Z" fill="black"/>
</svg>
