<svg width="250" height="162" viewBox="0 0 250 162" fill="none" xmlns="http://www.w3.org/2000/svg">
<path d="M125 160.62C193.273 160.62 248.62 125.04 248.62 81.15C248.62 37.2599 193.273 1.67999 125 1.67999C56.7266 1.67999 1.38 37.2599 1.38 81.15C1.38 125.04 56.7266 160.62 125 160.62Z" fill="white" stroke="black" stroke-width="2" stroke-miterlimit="10"/>
<path d="M70.53 63.73C70.35 64.18 70.15 64.63 69.93 65.09C69.71 65.55 69.46 66 69.18 66.47C69.5 66.74 69.81 66.99 70.09 67.22C70.38 67.45 70.66 67.67 70.94 67.86C71.25 68.08 71.52 68.27 71.75 68.41C71.98 68.55 72.19 68.67 72.38 68.78C72.57 68.89 72.74 68.99 72.9 69.11C73.05 69.22 73.21 69.36 73.36 69.53C73.56 69.77 73.64 70.02 73.61 70.29C73.58 70.56 73.45 70.79 73.21 71C73.01 71.17 72.77 71.26 72.47 71.27C72.18 71.28 71.85 71.1 71.48 70.72C71.09 70.31 70.62 69.86 70.08 69.35C69.54 68.85 68.96 68.33 68.32 67.79C67.69 68.73 66.99 69.65 66.22 70.54C65.45 71.44 64.63 72.26 63.76 73.02C63.66 73.1 63.53 73.17 63.36 73.23C63.19 73.29 63.06 73.27 62.96 73.17C62.85 73.06 62.83 72.92 62.9 72.76C62.97 72.6 63.08 72.44 63.24 72.29C63.79 71.67 64.31 70.99 64.81 70.25C65.31 69.51 65.77 68.74 66.19 67.96C66.61 67.18 66.99 66.39 67.34 65.59C67.68 64.8 67.97 64.04 68.21 63.31C68.29 63.06 68.35 62.83 68.37 62.63C68.39 62.43 68.32 62.23 68.17 62.03C68.09 61.92 68.01 61.81 67.94 61.69C67.87 61.58 67.88 61.42 67.96 61.23C68.03 61.08 68.17 60.98 68.37 60.94C68.57 60.9 68.84 60.95 69.16 61.11C69.75 61.38 70.19 61.72 70.47 62.13C70.77 62.53 70.79 63.07 70.53 63.73ZM74.3 60.78C74.3 60.33 74.19 60.05 73.96 59.94C73.81 59.86 73.67 59.76 73.55 59.66C73.43 59.56 73.37 59.41 73.37 59.23C73.37 59.03 73.45 58.88 73.61 58.76C73.77 58.64 74.03 58.58 74.4 58.58C74.86 58.58 75.22 58.64 75.47 58.75C75.72 58.86 75.91 59.01 76.04 59.2C76.17 59.39 76.24 59.61 76.27 59.86C76.3 60.11 76.31 60.37 76.31 60.64V65.04C76.59 65.01 76.87 64.98 77.14 64.95C77.41 64.92 77.69 64.87 77.97 64.81V59.28C77.97 59.04 77.95 58.86 77.92 58.73C77.88 58.6 77.8 58.51 77.68 58.44C77.53 58.36 77.38 58.26 77.25 58.16C77.12 58.06 77.05 57.91 77.05 57.73C77.05 57.53 77.13 57.38 77.29 57.26C77.45 57.14 77.71 57.08 78.08 57.08C78.54 57.08 78.9 57.14 79.15 57.25C79.4 57.36 79.59 57.51 79.72 57.7C79.85 57.89 79.92 58.11 79.95 58.36C79.98 58.61 79.99 58.87 79.99 59.14V73.29C79.99 73.57 79.97 73.88 79.94 74.22C79.9 74.56 79.84 74.88 79.74 75.19C79.64 75.5 79.52 75.75 79.36 75.96C79.21 76.16 79.02 76.26 78.79 76.26C78.58 76.26 78.42 76.21 78.32 76.1C78.22 75.99 78.13 75.87 78.08 75.72C78.02 75.57 77.99 75.41 77.99 75.24C77.98 75.06 77.98 74.91 77.98 74.79V66.38C77.7 66.41 77.42 66.44 77.14 66.49C76.86 66.53 76.59 66.57 76.32 66.62V72.47C76.32 72.75 76.3 73.06 76.27 73.4C76.24 73.74 76.17 74.06 76.07 74.37C75.97 74.68 75.85 74.93 75.69 75.14C75.54 75.34 75.35 75.44 75.12 75.44C74.91 75.44 74.75 75.39 74.65 75.28C74.55 75.18 74.46 75.05 74.41 74.9C74.35 74.75 74.32 74.59 74.32 74.42C74.31 74.24 74.31 74.09 74.31 73.97V60.78H74.3Z" fill="black"/>
<path d="M90.58 66.23C90.51 66.37 90.45 66.51 90.39 66.64C90.33 66.77 90.27 66.9 90.2 67.03C90.65 67.32 91.07 67.59 91.45 67.84C91.84 68.09 92.12 68.26 92.3 68.36C92.58 68.51 92.83 68.65 93.06 68.77C93.28 68.89 93.49 69 93.68 69.1C93.87 69.2 94.05 69.3 94.23 69.41C94.41 69.51 94.59 69.64 94.79 69.78C95.07 69.98 95.21 70.22 95.21 70.5C95.21 70.78 95.13 71.02 94.96 71.21C94.76 71.43 94.51 71.55 94.2 71.55C93.89 71.55 93.54 71.4 93.15 71.11C92.95 70.97 92.72 70.79 92.44 70.57C92.16 70.35 91.85 70.12 91.53 69.88C91.2 69.63 90.86 69.38 90.5 69.11C90.14 68.84 89.8 68.58 89.46 68.33C88.83 69.3 88.1 70.18 87.28 70.97C86.46 71.76 85.57 72.52 84.6 73.23C84.32 73.44 84.09 73.57 83.92 73.62C83.74 73.67 83.6 73.62 83.49 73.48C83.39 73.35 83.39 73.22 83.49 73.08C83.59 72.94 83.74 72.79 83.93 72.62C84.97 71.72 85.88 70.67 86.65 69.47C87.43 68.26 87.99 67.04 88.34 65.79C88.38 65.64 88.41 65.48 88.42 65.33C88.43 65.18 88.36 65.02 88.21 64.87C88.1 64.79 88.02 64.7 87.98 64.6C87.73 64.67 87.46 64.74 87.19 64.81C86.92 64.88 86.63 64.96 86.32 65.04C86.08 65.11 85.85 65.13 85.63 65.09C85.41 65.05 85.2 64.98 85.01 64.88C84.82 64.78 84.65 64.64 84.51 64.48C84.36 64.32 84.25 64.15 84.18 63.96C84.1 63.74 84.11 63.56 84.21 63.43C84.31 63.3 84.51 63.25 84.79 63.28C85.67 63.34 86.56 63.3 87.44 63.18C88.32 63.05 89.24 62.89 90.19 62.7C90.48 62.64 90.74 62.58 90.97 62.52C91.2 62.46 91.41 62.4 91.61 62.34C91.81 62.28 92.02 62.23 92.22 62.18C92.42 62.13 92.64 62.09 92.88 62.04C93.61 61.93 93.95 62.19 93.91 62.84C93.9 63.06 93.8 63.25 93.63 63.41C93.46 63.57 93.21 63.66 92.88 63.68C92.22 63.75 91.65 63.82 91.17 63.89C90.69 63.96 90.23 64.04 89.81 64.14C90.22 64.38 90.51 64.65 90.68 64.96C90.85 65.25 90.81 65.68 90.58 66.23ZM92.09 59.9C92.09 60.36 92 60.7 91.82 60.91C91.64 61.12 91.32 61.26 90.85 61.33C90.36 61.4 89.88 61.47 89.42 61.54C88.96 61.61 88.44 61.72 87.86 61.88C87.51 61.98 87.17 61.94 86.85 61.75C86.53 61.57 86.31 61.34 86.2 61.06C86.05 60.71 86.01 60.48 86.11 60.38C86.2 60.28 86.43 60.22 86.79 60.2C87.5 60.17 88.16 60.12 88.77 60.05C89.37 59.98 89.94 59.88 90.47 59.76C90.61 59.73 90.76 59.69 90.93 59.64C91.1 59.59 91.27 59.55 91.46 59.5C91.68 59.44 91.85 59.46 91.94 59.54C92.03 59.62 92.09 59.75 92.09 59.9ZM97.09 59.27C97.09 59.03 97.08 58.85 97.05 58.72C97.02 58.59 96.95 58.5 96.82 58.43C96.67 58.35 96.53 58.25 96.41 58.15C96.29 58.05 96.23 57.9 96.23 57.72C96.23 57.52 96.31 57.37 96.47 57.25C96.63 57.13 96.89 57.07 97.26 57.07C97.72 57.07 98.08 57.13 98.34 57.24C98.6 57.35 98.8 57.5 98.93 57.69C99.06 57.88 99.15 58.1 99.18 58.35C99.21 58.6 99.23 58.86 99.23 59.13V73.28C99.23 73.56 99.21 73.87 99.17 74.21C99.13 74.55 99.05 74.87 98.95 75.18C98.84 75.49 98.71 75.74 98.55 75.95C98.39 76.15 98.2 76.25 97.97 76.25C97.76 76.25 97.6 76.2 97.49 76.09C97.38 75.98 97.29 75.86 97.23 75.71C97.17 75.56 97.13 75.4 97.11 75.23C97.1 75.05 97.09 74.9 97.09 74.78V59.27Z" fill="black"/>
<path d="M103.97 72.69C104.62 72.02 105.23 71.35 105.81 70.69C106.39 70.03 106.93 69.35 107.44 68.66C107.94 67.97 108.41 67.24 108.85 66.49C109.28 65.74 109.68 64.94 110.05 64.08C110.19 63.76 110.24 63.49 110.2 63.27C110.16 63.05 109.91 62.98 109.46 63.05C108.87 63.13 108.28 63.25 107.68 63.41C107.08 63.56 106.41 63.74 105.65 63.94C105.17 64.07 104.78 64 104.46 63.75C104.14 63.5 103.92 63.17 103.78 62.76C103.63 62.27 103.84 62.04 104.41 62.09C105.5 62.16 106.58 62.11 107.65 61.95C108.72 61.79 109.82 61.59 110.95 61.35C111.55 61.22 112.01 61.22 112.32 61.33C112.63 61.44 112.82 61.63 112.91 61.91C112.99 62.18 112.99 62.52 112.89 62.92C112.79 63.32 112.63 63.74 112.41 64.17C111.37 66.22 110.22 67.98 108.94 69.47C107.66 70.96 106.21 72.3 104.59 73.49C104.39 73.64 104.21 73.74 104.05 73.77C103.89 73.8 103.75 73.77 103.64 73.65C103.53 73.52 103.52 73.37 103.61 73.19C103.69 73.01 103.82 72.84 103.97 72.69ZM116.86 59.27C116.86 59.03 116.85 58.85 116.82 58.72C116.79 58.59 116.72 58.5 116.59 58.43C116.44 58.35 116.3 58.25 116.18 58.15C116.06 58.05 116 57.9 116 57.72C116 57.52 116.08 57.37 116.24 57.25C116.4 57.13 116.66 57.07 117.03 57.07C117.49 57.07 117.85 57.13 118.11 57.24C118.37 57.35 118.57 57.5 118.7 57.69C118.83 57.88 118.92 58.1 118.95 58.35C118.98 58.6 119 58.86 119 59.13V73.28C119 73.56 118.98 73.87 118.94 74.21C118.9 74.55 118.82 74.87 118.72 75.18C118.61 75.49 118.48 75.74 118.32 75.95C118.16 76.15 117.97 76.25 117.74 76.25C117.53 76.25 117.37 76.2 117.26 76.09C117.15 75.98 117.06 75.86 117 75.71C116.94 75.56 116.9 75.4 116.88 75.23C116.87 75.05 116.86 74.9 116.86 74.78V59.27Z" fill="black"/>
<path d="M140.01 67.39C139.3 67.45 138.51 67.52 137.67 67.62C136.82 67.72 135.95 67.83 135.04 67.95C134.13 68.07 133.23 68.2 132.32 68.34C131.41 68.48 130.53 68.63 129.67 68.78C128.81 68.93 128.01 69.09 127.26 69.24C126.51 69.39 125.85 69.54 125.27 69.68C124.93 69.76 124.62 69.79 124.34 69.75C124.06 69.71 123.81 69.64 123.59 69.52C123.37 69.4 123.19 69.26 123.03 69.09C122.87 68.92 122.75 68.75 122.65 68.59C122.52 68.35 122.51 68.16 122.62 68C122.73 67.85 122.95 67.78 123.3 67.81C123.69 67.82 124.19 67.81 124.79 67.78C125.39 67.75 126.06 67.69 126.79 67.62C127.52 67.55 128.29 67.47 129.11 67.37C129.93 67.27 130.75 67.16 131.56 67.04C132.37 66.92 133.16 66.8 133.92 66.68C134.68 66.56 135.37 66.45 136 66.33C136.67 66.2 137.37 66.05 138.09 65.87C138.81 65.69 139.47 65.58 140.06 65.55C140.87 65.52 141.28 65.8 141.28 66.37C141.28 66.64 141.17 66.86 140.96 67.05C140.77 67.25 140.45 67.36 140.01 67.39ZM126.75 63.87C126.75 63.65 126.7 63.48 126.59 63.39C126.48 63.29 126.31 63.21 126.05 63.14C125.66 63.04 125.46 62.82 125.46 62.49C125.46 62.29 125.52 62.14 125.65 62.03C125.78 61.92 126.02 61.86 126.39 61.86C126.82 61.86 127.18 61.89 127.44 61.94C127.9 61.94 128.44 61.91 129.05 61.86C129.66 61.8 130.29 61.73 130.95 61.65C131.61 61.57 132.26 61.47 132.91 61.38C133.55 61.28 134.15 61.19 134.7 61.11V59.66C133.47 59.81 132.27 60 131.11 60.22C129.95 60.44 128.86 60.69 127.82 60.97C127.34 61.1 126.92 61.03 126.56 60.78C126.2 60.53 125.96 60.2 125.85 59.79C125.78 59.55 125.79 59.38 125.87 59.26C125.95 59.15 126.19 59.1 126.59 59.11C127.68 59.14 128.83 59.06 130.04 58.89C131.25 58.71 132.44 58.51 133.62 58.27C134.11 58.17 134.55 58.06 134.95 57.93C135.35 57.8 135.76 57.73 136.19 57.7C136.93 57.66 137.28 57.92 137.24 58.48C137.21 58.8 137.09 59.05 136.86 59.24L136.73 60.92C137.11 61 137.3 61.25 137.3 61.66C137.3 61.88 137.2 62.05 136.99 62.14C136.78 62.23 136.44 62.32 135.95 62.37C134.76 62.48 133.6 62.62 132.47 62.79C131.34 62.96 130.17 63.13 128.95 63.32V63.64C128.95 64.1 129.09 64.38 129.37 64.48C129.65 64.58 130.1 64.63 130.72 64.63C131.28 64.63 131.84 64.58 132.4 64.49C132.96 64.4 133.5 64.28 134.03 64.13C134.56 63.98 135.05 63.81 135.52 63.61C135.99 63.41 136.41 63.21 136.77 63C137.13 62.79 137.46 62.67 137.75 62.65C138.04 62.63 138.24 62.76 138.37 63.04C138.51 63.33 138.46 63.65 138.23 63.98C138 64.31 137.69 64.57 137.29 64.75C136.77 64.99 136.19 65.2 135.53 65.37C134.88 65.55 134.22 65.7 133.55 65.82C132.88 65.95 132.25 66.04 131.64 66.09C131.03 66.15 130.52 66.17 130.09 66.15C129.56 66.14 129.08 66.09 128.67 66.02C128.26 65.95 127.91 65.84 127.63 65.69C127.35 65.54 127.13 65.34 126.98 65.08C126.83 64.82 126.75 64.48 126.75 64.06V63.87ZM127.17 75.02C127.17 74.8 127.12 74.63 127.01 74.54C126.91 74.44 126.73 74.36 126.47 74.29C126.08 74.19 125.88 73.97 125.88 73.64C125.88 73.44 125.94 73.29 126.07 73.18C126.2 73.07 126.44 73.01 126.81 73.01C127.24 73.01 127.6 73.04 127.86 73.09C128.32 73.09 128.86 73.06 129.47 73.01C130.08 72.95 130.71 72.88 131.37 72.8C132.03 72.72 132.68 72.62 133.33 72.53C133.97 72.43 134.57 72.34 135.12 72.26V70.81C133.89 70.96 132.69 71.15 131.53 71.37C130.37 71.59 129.28 71.84 128.24 72.12C127.76 72.25 127.34 72.18 126.98 71.93C126.61 71.68 126.38 71.35 126.27 70.94C126.2 70.7 126.21 70.53 126.29 70.41C126.37 70.3 126.61 70.25 127 70.26C128.09 70.29 129.24 70.21 130.45 70.04C131.66 69.87 132.85 69.66 134.03 69.42C134.52 69.32 134.96 69.21 135.35 69.08C135.74 68.95 136.16 68.88 136.59 68.85C137.33 68.81 137.68 69.07 137.64 69.63C137.61 69.95 137.49 70.2 137.26 70.39L137.13 72.07C137.51 72.15 137.7 72.4 137.7 72.81C137.7 73.03 137.6 73.2 137.4 73.29C137.2 73.38 136.85 73.47 136.36 73.52C135.17 73.63 134.01 73.77 132.88 73.94C131.75 74.11 130.58 74.28 129.36 74.44V74.46V74.88C129.36 75.34 129.5 75.62 129.78 75.72C130.06 75.82 130.51 75.87 131.13 75.87C131.69 75.87 132.25 75.82 132.81 75.73C133.37 75.64 133.91 75.52 134.44 75.37C134.97 75.22 135.46 75.05 135.93 74.85C136.4 74.65 136.82 74.45 137.18 74.24C137.54 74.03 137.87 73.91 138.16 73.89C138.45 73.87 138.65 74 138.78 74.28C138.92 74.57 138.87 74.89 138.64 75.22C138.41 75.55 138.1 75.81 137.7 75.99C137.18 76.23 136.6 76.43 135.94 76.61C135.29 76.79 134.63 76.94 133.96 77.06C133.29 77.19 132.66 77.28 132.05 77.33C131.44 77.39 130.93 77.41 130.51 77.39C129.98 77.38 129.5 77.33 129.09 77.26C128.68 77.19 128.33 77.08 128.05 76.93C127.77 76.78 127.55 76.58 127.4 76.32C127.24 76.06 127.17 75.72 127.17 75.3V75.02Z" fill="black"/>
<path d="M157.8 63.85C157.06 63.92 156.35 64 155.67 64.09C154.99 64.18 154.33 64.29 153.69 64.41C153.05 64.53 152.43 64.66 151.81 64.79C151.19 64.92 150.57 65.07 149.94 65.24C149.46 65.37 149.04 65.3 148.68 65.05C148.31 64.8 148.08 64.47 147.96 64.06C147.83 63.61 148.04 63.41 148.59 63.45C149.43 63.52 150.37 63.47 151.4 63.31C152.43 63.15 153.61 62.94 154.94 62.69C155.43 62.59 155.92 62.48 156.41 62.35C156.9 62.22 157.35 62.13 157.76 62.06C158.52 61.93 158.88 62.2 158.83 62.86C158.8 63.1 158.71 63.32 158.55 63.51C158.39 63.7 158.14 63.82 157.8 63.85ZM149.88 69.38C149.88 68.88 149.97 68.39 150.16 67.93C150.35 67.47 150.62 67.05 150.97 66.68C151.32 66.31 151.74 66 152.23 65.76C152.72 65.52 153.27 65.37 153.87 65.3C154.47 65.23 155.02 65.26 155.52 65.38C156.02 65.51 156.44 65.71 156.79 65.99C157.14 66.27 157.41 66.62 157.6 67.04C157.79 67.46 157.88 67.92 157.88 68.43C157.88 68.94 157.79 69.42 157.6 69.89C157.41 70.36 157.14 70.78 156.8 71.16C156.46 71.54 156.04 71.86 155.54 72.12C155.04 72.38 154.49 72.54 153.87 72.61C153.25 72.68 152.7 72.65 152.21 72.51C151.72 72.37 151.3 72.15 150.96 71.86C150.62 71.57 150.35 71.2 150.16 70.78C149.97 70.35 149.88 69.89 149.88 69.38ZM156.21 60.42C156.21 60.88 156.12 61.22 155.94 61.43C155.76 61.64 155.44 61.78 154.97 61.85C154.48 61.92 154.03 61.98 153.62 62.04C153.21 62.1 152.81 62.18 152.42 62.29C152.07 62.39 151.73 62.35 151.41 62.16C151.09 61.97 150.87 61.75 150.76 61.47C150.61 61.12 150.57 60.89 150.67 60.79C150.76 60.68 150.99 60.63 151.35 60.61C151.7 60.6 152.02 60.58 152.3 60.56C152.58 60.54 152.85 60.51 153.1 60.49C153.35 60.46 153.6 60.43 153.84 60.39C154.08 60.35 154.33 60.31 154.6 60.26C154.74 60.23 154.89 60.2 155.06 60.17C155.23 60.13 155.4 60.1 155.59 60.05C155.81 59.99 155.97 60 156.07 60.08C156.16 60.16 156.21 60.27 156.21 60.42ZM152 69.17C152 69.8 152.17 70.28 152.49 70.62C152.81 70.96 153.26 71.09 153.82 71.02C154.41 70.95 154.88 70.69 155.23 70.25C155.58 69.81 155.76 69.27 155.76 68.64C155.76 68.01 155.6 67.54 155.29 67.22C154.98 66.9 154.52 66.78 153.91 66.85C153.28 66.92 152.8 67.16 152.48 67.58C152.16 68 152 68.53 152 69.17ZM159.26 60.78C159.26 60.33 159.15 60.05 158.92 59.94C158.76 59.86 158.63 59.76 158.51 59.66C158.39 59.56 158.33 59.41 158.33 59.23C158.33 59.03 158.41 58.88 158.57 58.76C158.73 58.64 158.99 58.58 159.36 58.58C159.82 58.58 160.18 58.64 160.43 58.75C160.68 58.86 160.87 59.01 161 59.2C161.13 59.39 161.2 59.61 161.23 59.86C161.26 60.11 161.27 60.37 161.27 60.64V65.04C161.55 65.01 161.83 64.98 162.1 64.95C162.37 64.92 162.65 64.87 162.93 64.81V59.28C162.93 59.04 162.91 58.86 162.88 58.73C162.84 58.6 162.76 58.51 162.64 58.44C162.49 58.36 162.34 58.26 162.21 58.16C162.08 58.06 162.01 57.91 162.01 57.73C162.01 57.53 162.09 57.38 162.25 57.26C162.41 57.14 162.67 57.08 163.04 57.08C163.5 57.08 163.86 57.14 164.11 57.25C164.36 57.36 164.55 57.51 164.68 57.7C164.81 57.89 164.88 58.11 164.91 58.36C164.94 58.61 164.95 58.87 164.95 59.14V73.29C164.95 73.57 164.93 73.88 164.9 74.22C164.86 74.56 164.8 74.88 164.7 75.19C164.6 75.5 164.48 75.75 164.32 75.96C164.17 76.16 163.98 76.26 163.75 76.26C163.54 76.26 163.38 76.21 163.28 76.1C163.18 75.99 163.09 75.87 163.04 75.72C162.98 75.57 162.95 75.41 162.95 75.24C162.95 75.07 162.94 74.91 162.94 74.79V66.38C162.66 66.41 162.38 66.44 162.1 66.49C161.82 66.53 161.55 66.57 161.28 66.62V72.47C161.28 72.75 161.26 73.06 161.23 73.4C161.19 73.74 161.13 74.06 161.03 74.37C160.93 74.68 160.81 74.93 160.65 75.14C160.5 75.34 160.31 75.44 160.08 75.44C159.87 75.44 159.71 75.39 159.61 75.28C159.51 75.18 159.42 75.05 159.37 74.9C159.31 74.75 159.28 74.59 159.28 74.42C159.27 74.24 159.27 74.09 159.27 73.97V60.78H159.26Z" fill="black"/>
<path d="M175.89 63.56C175.72 63.97 175.53 64.39 175.32 64.82C175.11 65.26 174.87 65.7 174.61 66.15C175.04 66.53 175.46 66.88 175.85 67.21C176.24 67.54 176.62 67.83 176.98 68.08C177.29 68.3 177.56 68.49 177.79 68.63C178.02 68.77 178.23 68.89 178.42 69C178.61 69.11 178.78 69.21 178.94 69.33C179.1 69.45 179.25 69.58 179.4 69.75C179.6 69.99 179.68 70.24 179.65 70.51C179.62 70.78 179.49 71.01 179.25 71.22C179.05 71.39 178.81 71.48 178.51 71.49C178.22 71.5 177.89 71.32 177.52 70.94C177.07 70.46 176.52 69.93 175.86 69.34C175.2 68.75 174.49 68.14 173.74 67.51C173.07 68.51 172.32 69.47 171.49 70.41C170.66 71.35 169.81 72.22 168.92 73.02C168.82 73.1 168.69 73.17 168.52 73.23C168.35 73.29 168.22 73.27 168.12 73.17C168.01 73.06 167.99 72.92 168.06 72.76C168.13 72.6 168.24 72.44 168.4 72.29C168.95 71.67 169.48 70.99 170 70.23C170.52 69.47 171 68.69 171.45 67.89C171.9 67.08 172.3 66.27 172.67 65.46C173.03 64.65 173.34 63.88 173.57 63.15C173.65 62.9 173.71 62.67 173.73 62.47C173.75 62.27 173.69 62.07 173.53 61.87C173.45 61.76 173.37 61.65 173.3 61.53C173.23 61.41 173.24 61.26 173.32 61.07C173.39 60.92 173.53 60.82 173.73 60.78C173.93 60.74 174.2 60.79 174.52 60.95C175.11 61.22 175.55 61.56 175.83 61.97C176.12 62.36 176.14 62.9 175.89 63.56ZM182.26 65.56C182.08 65.6 181.91 65.64 181.77 65.69C181.62 65.73 181.49 65.77 181.38 65.82C181.14 65.92 180.9 66.01 180.67 66.08C180.44 66.15 180.19 66.21 179.94 66.23C179.69 66.25 179.44 66.23 179.18 66.18C178.92 66.12 178.66 66 178.39 65.82C178.05 65.6 177.89 65.37 177.89 65.15C177.89 64.87 178.07 64.7 178.44 64.65C178.93 64.58 179.52 64.5 180.2 64.4C180.88 64.3 181.57 64.2 182.27 64.08V59.29C182.27 59.05 182.26 58.87 182.23 58.74C182.2 58.61 182.13 58.52 182 58.45C181.85 58.37 181.71 58.27 181.59 58.17C181.47 58.07 181.41 57.92 181.41 57.74C181.41 57.54 181.49 57.39 181.65 57.27C181.81 57.15 182.07 57.09 182.44 57.09C182.9 57.09 183.26 57.15 183.52 57.26C183.78 57.37 183.98 57.52 184.11 57.71C184.24 57.9 184.33 58.12 184.36 58.37C184.39 58.62 184.41 58.88 184.41 59.15V73.3C184.41 73.58 184.39 73.89 184.35 74.23C184.31 74.57 184.23 74.89 184.13 75.2C184.02 75.51 183.89 75.76 183.73 75.97C183.57 76.17 183.38 76.27 183.15 76.27C182.94 76.27 182.78 76.22 182.67 76.11C182.56 76.01 182.47 75.88 182.41 75.73C182.35 75.58 182.31 75.42 182.29 75.25C182.28 75.07 182.27 74.92 182.27 74.8V65.56H182.26Z" fill="black"/>
<path d="M34.79 88.79C34.62 89.2 34.43 89.62 34.22 90.05C34.01 90.49 33.77 90.93 33.51 91.38C33.94 91.76 34.36 92.11 34.75 92.44C35.14 92.77 35.52 93.06 35.89 93.31C36.2 93.53 36.47 93.72 36.7 93.86C36.93 94 37.14 94.12 37.33 94.23C37.52 94.34 37.69 94.44 37.85 94.56C38 94.67 38.16 94.81 38.31 94.98C38.51 95.22 38.59 95.47 38.56 95.74C38.53 96.01 38.4 96.24 38.16 96.45C37.96 96.62 37.72 96.71 37.42 96.72C37.13 96.73 36.8 96.55 36.43 96.17C35.98 95.69 35.43 95.16 34.77 94.57C34.11 93.98 33.4 93.37 32.65 92.74C31.98 93.74 31.23 94.7 30.4 95.64C29.57 96.58 28.72 97.45 27.83 98.25C27.73 98.33 27.6 98.4 27.43 98.46C27.26 98.52 27.13 98.5 27.03 98.4C26.92 98.29 26.9 98.15 26.97 97.99C27.04 97.83 27.15 97.67 27.31 97.52C27.86 96.9 28.39 96.22 28.91 95.46C29.43 94.7 29.91 93.92 30.36 93.12C30.81 92.32 31.21 91.5 31.58 90.69C31.94 89.88 32.25 89.11 32.48 88.38C32.56 88.13 32.62 87.9 32.64 87.7C32.66 87.5 32.59 87.3 32.44 87.1C32.36 86.99 32.28 86.88 32.21 86.76C32.14 86.64 32.15 86.49 32.23 86.3C32.3 86.15 32.44 86.05 32.64 86.01C32.84 85.97 33.11 86.02 33.43 86.18C34.02 86.45 34.46 86.79 34.74 87.2C35.02 87.6 35.04 88.13 34.79 88.79ZM40.21 84.5C40.21 84.26 40.2 84.08 40.17 83.95C40.14 83.82 40.07 83.73 39.94 83.66C39.79 83.58 39.65 83.48 39.53 83.38C39.41 83.28 39.35 83.13 39.35 82.95C39.35 82.75 39.43 82.6 39.59 82.48C39.75 82.36 40.01 82.3 40.38 82.3C40.84 82.3 41.2 82.36 41.46 82.47C41.72 82.58 41.92 82.73 42.05 82.92C42.18 83.11 42.27 83.33 42.3 83.58C42.33 83.83 42.35 84.09 42.35 84.36V89.64C42.5 89.6 42.65 89.56 42.79 89.51C42.93 89.47 43.08 89.41 43.23 89.34C43.73 89.14 44.17 89.05 44.53 89.06C44.89 89.07 45.3 89.18 45.75 89.41C45.92 89.49 46.04 89.61 46.13 89.75C46.21 89.89 46.26 90.02 46.26 90.15C46.26 90.3 46.21 90.43 46.11 90.54C46.01 90.65 45.81 90.71 45.5 90.74C45.14 90.77 44.68 90.82 44.12 90.9C43.57 90.98 42.97 91.07 42.34 91.18V98.52C42.34 98.8 42.32 99.11 42.28 99.45C42.24 99.79 42.16 100.11 42.06 100.42C41.96 100.73 41.82 100.98 41.66 101.19C41.5 101.39 41.31 101.49 41.08 101.49C40.87 101.49 40.71 101.44 40.6 101.33C40.49 101.23 40.4 101.1 40.34 100.95C40.28 100.8 40.24 100.64 40.22 100.47C40.21 100.29 40.2 100.14 40.2 100.02V84.5H40.21Z" fill="black"/>
<path d="M49.04 91.3C49.04 91.1 48.97 90.96 48.82 90.88C48.67 90.8 48.52 90.72 48.37 90.65C48.17 90.58 48.02 90.49 47.92 90.39C47.82 90.28 47.76 90.14 47.76 89.96C47.76 89.76 47.84 89.61 48 89.49C48.16 89.37 48.42 89.31 48.79 89.31C48.93 89.31 49.06 89.31 49.19 89.32C49.32 89.33 49.44 89.34 49.55 89.35C49.9 89.32 50.3 89.28 50.74 89.22C51.18 89.16 51.64 89.1 52.11 89.02C52.58 88.94 53.04 88.87 53.5 88.8C53.96 88.73 54.37 88.66 54.73 88.59V86.51C54.28 86.57 53.88 86.62 53.53 86.68C53.18 86.74 52.84 86.8 52.5 86.88C52.16 86.96 51.82 87.05 51.47 87.14C51.12 87.24 50.71 87.35 50.25 87.48C50.03 87.55 49.78 87.56 49.52 87.52C49.26 87.48 49.02 87.4 48.78 87.29C48.55 87.18 48.35 87.04 48.18 86.87C48.01 86.7 47.91 86.52 47.86 86.32C47.82 86.12 47.84 85.96 47.93 85.84C48.02 85.71 48.22 85.65 48.53 85.65C49.44 85.65 50.31 85.59 51.14 85.47C51.97 85.35 52.86 85.21 53.83 85.04C54.1 85 54.33 84.95 54.53 84.88C54.73 84.81 54.93 84.76 55.12 84.7C55.31 84.64 55.5 84.59 55.7 84.54C55.9 84.49 56.11 84.46 56.35 84.45C56.69 84.42 56.93 84.47 57.08 84.61C57.23 84.74 57.29 84.99 57.26 85.36C57.25 85.51 57.21 85.66 57.14 85.79C57.07 85.92 56.98 86.04 56.86 86.14L56.73 88.45C56.9 88.49 57.04 88.56 57.15 88.66C57.26 88.76 57.32 88.9 57.32 89.08C57.32 89.26 57.22 89.44 57.01 89.61C56.81 89.78 56.46 89.89 55.97 89.95C55.13 90.05 54.34 90.16 53.59 90.28C52.85 90.4 52.08 90.52 51.28 90.65C51.31 90.79 51.32 90.9 51.32 90.97V91.73C51.32 92.6 51.73 93.01 52.54 92.97C53.54 92.93 54.43 92.74 55.22 92.39C56.01 92.05 56.79 91.59 57.54 91.01C57.86 90.76 58.19 90.63 58.52 90.62C58.85 90.61 59.07 90.75 59.18 91.03C59.25 91.18 59.27 91.34 59.23 91.48C59.19 91.63 59.12 91.77 59.02 91.92C58.92 92.07 58.78 92.21 58.62 92.34C58.46 92.47 58.29 92.59 58.13 92.69C57.11 93.28 56.03 93.73 54.91 94.04C53.79 94.35 52.74 94.5 51.76 94.5C50.85 94.5 50.16 94.29 49.71 93.88C49.25 93.47 49.03 92.73 49.03 91.68V91.3H49.04ZM60.63 101.39C60.45 101.39 60.3 101.35 60.19 101.26C60.08 101.18 59.99 101.07 59.92 100.94C59.51 101.12 59.08 101.28 58.63 101.41C58.18 101.54 57.73 101.65 57.3 101.74C56.86 101.82 56.45 101.89 56.06 101.93C55.67 101.97 55.34 101.99 55.07 101.97C54.58 101.96 54.13 101.91 53.72 101.83C53.31 101.75 52.96 101.62 52.67 101.43C52.38 101.24 52.14 100.98 51.98 100.65C51.81 100.32 51.73 99.89 51.73 99.36V97.78C51.73 97.56 51.72 97.41 51.69 97.34C51.66 97.27 51.58 97.2 51.46 97.13C51.31 97.05 51.17 96.95 51.05 96.86C50.93 96.76 50.87 96.62 50.87 96.44C50.87 96.24 50.95 96.09 51.11 95.97C51.27 95.85 51.53 95.79 51.9 95.79C52.39 95.79 52.8 95.86 53.12 96C53.55 95.97 54.03 95.93 54.55 95.86C55.07 95.8 55.58 95.73 56.1 95.65C56.62 95.57 57.1 95.49 57.55 95.41C58.01 95.33 58.39 95.25 58.72 95.18C59.15 95.07 59.54 94.95 59.88 94.81C60.22 94.68 60.57 94.6 60.95 94.59C61.38 94.58 61.72 94.66 61.97 94.84C62.22 95.02 62.35 95.3 62.36 95.66C62.36 95.93 62.21 96.11 61.92 96.21V98.63C61.92 98.95 61.9 99.28 61.86 99.61C61.82 99.94 61.74 100.23 61.64 100.49C61.54 100.75 61.4 100.96 61.24 101.13C61.05 101.31 60.85 101.39 60.63 101.39ZM54.87 97.27C54.7 97.3 54.54 97.33 54.38 97.35C54.22 97.38 54.06 97.41 53.91 97.43V97.64V99.41C53.91 99.63 53.95 99.81 54.04 99.95C54.12 100.08 54.24 100.19 54.4 100.27C54.55 100.35 54.74 100.4 54.96 100.42C55.18 100.44 55.42 100.45 55.69 100.45C56.35 100.45 57.04 100.36 57.76 100.17C58.48 99.98 59.15 99.75 59.77 99.47V96.59C59.03 96.69 58.24 96.8 57.4 96.92C56.56 97.04 55.71 97.14 54.87 97.27ZM59.98 84.5C59.98 84.26 59.97 84.08 59.94 83.95C59.91 83.82 59.84 83.73 59.71 83.66C59.56 83.58 59.42 83.48 59.3 83.38C59.18 83.28 59.12 83.13 59.12 82.95C59.12 82.75 59.2 82.6 59.36 82.48C59.52 82.36 59.78 82.3 60.15 82.3C60.61 82.3 60.97 82.36 61.23 82.47C61.49 82.58 61.69 82.73 61.82 82.92C61.95 83.11 62.04 83.33 62.07 83.58C62.1 83.83 62.12 84.09 62.12 84.36V87.32C62.27 87.28 62.42 87.24 62.56 87.19C62.7 87.15 62.85 87.09 63 87.02C63.5 86.82 63.94 86.73 64.3 86.74C64.66 86.75 65.07 86.86 65.52 87.09C65.69 87.17 65.81 87.29 65.9 87.43C65.98 87.57 66.03 87.7 66.03 87.83C66.03 87.98 65.98 88.11 65.88 88.22C65.78 88.32 65.58 88.39 65.27 88.42C64.91 88.45 64.45 88.5 63.89 88.58C63.34 88.66 62.74 88.75 62.11 88.86V91.15C62.11 91.43 62.09 91.74 62.05 92.08C62.01 92.42 61.93 92.74 61.83 93.05C61.73 93.36 61.59 93.61 61.43 93.82C61.27 94.02 61.08 94.12 60.85 94.12C60.64 94.12 60.48 94.07 60.37 93.96C60.26 93.86 60.17 93.73 60.11 93.58C60.05 93.43 60.01 93.27 59.99 93.1C59.98 92.92 59.97 92.77 59.97 92.65V84.5H59.98Z" fill="black"/>
<path d="M84.2901 92.26C83.5801 92.32 82.7901 92.39 81.9501 92.49C81.1001 92.59 80.2301 92.7 79.3201 92.84C78.4201 92.97 77.5101 93.11 76.6001 93.26C75.6901 93.41 74.8101 93.56 73.9501 93.72C73.0901 93.88 72.2901 94.04 71.5401 94.2C70.7901 94.36 70.1301 94.51 69.5501 94.65C69.2101 94.73 68.9001 94.76 68.6201 94.72C68.3401 94.69 68.0901 94.61 67.8701 94.49C67.6501 94.37 67.4701 94.23 67.3101 94.06C67.1601 93.89 67.0301 93.72 66.9301 93.56C66.8001 93.32 66.7901 93.13 66.9001 92.97C67.0101 92.82 67.2301 92.75 67.5801 92.78C67.9701 92.79 68.4701 92.78 69.0701 92.75C69.6701 92.72 70.3401 92.66 71.0701 92.57C71.8001 92.49 72.5701 92.39 73.3901 92.29C74.2101 92.19 75.0301 92.07 75.8401 91.94C76.6501 91.81 77.4401 91.69 78.1901 91.56C78.9501 91.43 79.6401 91.31 80.2701 91.2C80.9401 91.07 81.6401 90.92 82.3601 90.74C83.0801 90.56 83.7401 90.45 84.3301 90.42C85.1401 90.39 85.5501 90.67 85.5501 91.24C85.5501 91.51 85.4501 91.73 85.2301 91.92C85.0501 92.13 84.7201 92.24 84.2901 92.26ZM70.4701 86.4C70.4701 86.18 70.4601 86.03 70.4301 85.96C70.4001 85.89 70.3301 85.82 70.2001 85.75C70.0501 85.67 69.9101 85.58 69.7901 85.48C69.6701 85.38 69.6101 85.24 69.6101 85.06C69.6101 84.86 69.6901 84.71 69.8501 84.59C70.0101 84.47 70.2701 84.41 70.6401 84.41C71.1201 84.41 71.5101 84.48 71.8201 84.62C72.2701 84.59 72.7701 84.55 73.3201 84.48C73.8701 84.42 74.4301 84.34 74.9901 84.26C75.5501 84.18 76.0801 84.09 76.5901 84.01C77.0901 83.93 77.5201 83.84 77.8501 83.76C78.2801 83.65 78.6701 83.53 79.0101 83.39C79.3501 83.26 79.7001 83.18 80.0801 83.17C80.5101 83.16 80.8501 83.24 81.1001 83.42C81.3501 83.6 81.4801 83.88 81.4901 84.24C81.4901 84.46 81.3901 84.63 81.1901 84.72C80.9901 84.82 80.6401 84.9 80.1501 84.97C79.3201 85.08 78.3501 85.22 77.2401 85.39C76.1301 85.56 75.0201 85.73 73.9301 85.89C73.7101 85.92 73.4901 85.95 73.2801 85.98C73.0701 86.02 72.8701 86.05 72.6701 86.1V86.25V88.06C72.6701 88.28 72.7101 88.46 72.8001 88.6C72.8901 88.74 73.0001 88.84 73.1601 88.92C73.3101 89 73.5001 89.05 73.7201 89.07C73.9401 89.09 74.1801 89.1 74.4501 89.1C75.0101 89.1 75.5801 89.05 76.1601 88.96C76.7401 88.87 77.3101 88.75 77.8501 88.6C78.3901 88.45 78.9201 88.28 79.4101 88.08C79.9001 87.88 80.3301 87.68 80.6901 87.47C81.0501 87.26 81.3801 87.14 81.6701 87.12C81.9601 87.1 82.1601 87.23 82.2901 87.51C82.4301 87.8 82.3801 88.12 82.1501 88.45C81.9201 88.78 81.6101 89.04 81.2101 89.22C80.6901 89.46 80.1001 89.67 79.4201 89.85C78.7401 90.03 78.0701 90.18 77.3801 90.3C76.6901 90.42 76.0301 90.51 75.4001 90.57C74.7701 90.63 74.2401 90.65 73.8201 90.62C73.3301 90.61 72.8801 90.56 72.4701 90.48C72.0601 90.4 71.7101 90.27 71.4201 90.08C71.1301 89.89 70.8901 89.63 70.7301 89.3C70.5601 88.97 70.4801 88.54 70.4801 88.01V86.4H70.4701ZM71.4401 100.15C71.4401 99.93 71.3901 99.76 71.2801 99.67C71.1701 99.57 71.0001 99.49 70.7401 99.42C70.3501 99.32 70.1501 99.1 70.1501 98.77C70.1501 98.57 70.2101 98.42 70.3401 98.31C70.4701 98.2 70.7101 98.14 71.0801 98.14C71.5101 98.14 71.8701 98.17 72.1301 98.22C72.5901 98.22 73.1301 98.19 73.7401 98.14C74.3501 98.08 74.9801 98.01 75.6401 97.93C76.3001 97.85 76.9501 97.75 77.6001 97.66C78.2501 97.57 78.8401 97.47 79.3901 97.39V95.83C78.1601 95.98 76.9601 96.17 75.8001 96.39C74.6401 96.61 73.5501 96.86 72.5101 97.14C72.0301 97.27 71.6101 97.2 71.2501 96.95C70.8901 96.7 70.6501 96.37 70.5401 95.96C70.4701 95.72 70.4801 95.55 70.5601 95.43C70.6401 95.32 70.8801 95.27 71.2701 95.28C72.3601 95.31 73.5101 95.23 74.7201 95.06C75.9301 94.88 77.1201 94.68 78.3001 94.44C78.7901 94.34 79.2301 94.23 79.6201 94.1C80.0101 93.97 80.4301 93.9 80.8601 93.87C81.6001 93.83 81.9501 94.09 81.9101 94.65C81.8801 94.97 81.7601 95.23 81.5301 95.41L81.4001 97.2C81.7801 97.28 81.9701 97.53 81.9701 97.94C81.9701 98.16 81.8701 98.33 81.6601 98.42C81.4601 98.52 81.1101 98.6 80.6201 98.65C79.4301 98.76 78.2701 98.9 77.1401 99.07C76.0101 99.24 74.8401 99.41 73.6201 99.57V99.59V100.12C73.6201 100.58 73.7601 100.86 74.0401 100.96C74.3201 101.06 74.7701 101.11 75.3901 101.11C75.9501 101.11 76.5101 101.06 77.0701 100.97C77.6301 100.88 78.1701 100.76 78.7001 100.61C79.2301 100.46 79.7201 100.29 80.1901 100.09C80.6601 99.89 81.0801 99.69 81.4401 99.48C81.8001 99.27 82.1301 99.15 82.4201 99.13C82.7101 99.11 82.9101 99.24 83.0401 99.52C83.1801 99.81 83.1301 100.13 82.9001 100.46C82.6701 100.79 82.3601 101.05 81.9601 101.23C81.4401 101.47 80.8601 101.67 80.2001 101.85C79.5501 102.03 78.8901 102.18 78.2201 102.3C77.5501 102.43 76.9201 102.52 76.3101 102.57C75.7001 102.63 75.1901 102.65 74.7601 102.63C74.2301 102.62 73.7501 102.57 73.3401 102.5C72.9301 102.43 72.5801 102.32 72.3001 102.17C72.0201 102.02 71.8001 101.82 71.6501 101.56C71.5001 101.3 71.4201 100.96 71.4201 100.54V100.15H71.4401Z" fill="black"/>
<path d="M97.52 91.06C97.52 91.79 97.37 92.47 97.08 93.11C96.79 93.75 96.39 94.31 95.88 94.78C95.38 95.26 94.79 95.63 94.12 95.9C93.45 96.17 92.76 96.31 92.03 96.31C91.4 96.31 90.82 96.21 90.31 96.02C89.79 95.82 89.34 95.55 88.96 95.19C88.58 94.83 88.29 94.4 88.08 93.89C87.87 93.38 87.76 92.81 87.76 92.2C87.76 91.46 87.91 90.77 88.21 90.15C88.51 89.53 88.92 88.99 89.44 88.53C89.96 88.07 90.55 87.72 91.22 87.46C91.89 87.2 92.59 87.07 93.33 87.07C93.95 87.07 94.51 87.16 95.02 87.34C95.53 87.52 95.97 87.79 96.35 88.14C96.72 88.49 97.01 88.91 97.21 89.4C97.41 89.89 97.52 90.45 97.52 91.06ZM92.68 88.79C92.32 88.83 91.97 88.93 91.65 89.1C91.33 89.26 91.04 89.48 90.8 89.74C90.55 90.01 90.36 90.33 90.21 90.71C90.06 91.09 89.99 91.52 89.99 92.01C89.99 92.49 90.06 92.89 90.2 93.22C90.34 93.55 90.53 93.82 90.77 94.02C91.01 94.22 91.29 94.36 91.6 94.43C91.92 94.5 92.25 94.51 92.6 94.47C92.95 94.43 93.29 94.33 93.62 94.18C93.95 94.03 94.24 93.82 94.48 93.55C94.73 93.28 94.92 92.96 95.07 92.58C95.22 92.2 95.29 91.77 95.29 91.28C95.29 90.82 95.22 90.42 95.08 90.08C94.94 89.74 94.75 89.47 94.51 89.27C94.27 89.07 93.99 88.93 93.68 88.85C93.37 88.77 93.03 88.75 92.68 88.79ZM100.67 84.5C100.67 84.26 100.66 84.08 100.63 83.95C100.6 83.82 100.53 83.73 100.4 83.66C100.25 83.58 100.11 83.48 99.99 83.38C99.87 83.28 99.81 83.13 99.81 82.95C99.81 82.75 99.89 82.6 100.05 82.48C100.21 82.36 100.47 82.3 100.84 82.3C101.3 82.3 101.66 82.36 101.92 82.47C102.18 82.58 102.38 82.73 102.51 82.92C102.64 83.11 102.73 83.33 102.76 83.58C102.79 83.83 102.81 84.09 102.81 84.36V98.51C102.81 98.79 102.79 99.1 102.75 99.44C102.71 99.78 102.63 100.1 102.53 100.41C102.42 100.72 102.29 100.97 102.13 101.18C101.97 101.38 101.78 101.48 101.55 101.48C101.34 101.48 101.18 101.43 101.07 101.32C100.96 101.21 100.87 101.09 100.81 100.94C100.75 100.79 100.71 100.63 100.69 100.46C100.68 100.28 100.67 100.13 100.67 100.01V84.5Z" fill="black"/>
<path d="M125.17 96.45C124.44 96.72 123.58 97.01 122.59 97.33C121.6 97.65 120.6 97.96 119.59 98.27C118.58 98.57 117.62 98.85 116.71 99.09C115.8 99.34 115.05 99.51 114.46 99.61C114.17 99.65 113.88 99.64 113.6 99.59C113.32 99.53 113.06 99.45 112.83 99.33C112.6 99.21 112.4 99.07 112.24 98.92C112.08 98.77 111.97 98.61 111.91 98.46C111.81 98.21 111.84 98.02 112 97.88C112.16 97.74 112.4 97.68 112.73 97.68C113.12 97.69 113.54 97.68 113.99 97.65C114.44 97.62 114.84 97.58 115.21 97.53C115.48 97.5 115.8 97.46 116.18 97.39C116.56 97.33 116.99 97.25 117.46 97.15V95.68C116.55 95.64 115.83 95.4 115.29 94.98C114.75 94.56 114.49 93.98 114.49 93.27C114.49 92.85 114.59 92.45 114.78 92.07C114.98 91.69 115.25 91.35 115.61 91.06C115.97 90.77 116.4 90.52 116.89 90.31C117.38 90.1 117.94 89.97 118.56 89.9C119.16 89.82 119.72 89.82 120.22 89.9C120.72 89.98 121.15 90.13 121.5 90.34C121.85 90.55 122.12 90.82 122.32 91.16C122.52 91.5 122.61 91.87 122.61 92.3C122.61 93.03 122.34 93.67 121.8 94.21C121.26 94.76 120.53 95.16 119.62 95.41V96.65C120.55 96.43 121.48 96.19 122.44 95.93C123.39 95.68 124.29 95.42 125.13 95.15V84.5C125.13 84.26 125.12 84.08 125.09 83.95C125.06 83.82 124.99 83.73 124.86 83.66C124.71 83.58 124.57 83.48 124.45 83.38C124.33 83.28 124.27 83.13 124.27 82.95C124.27 82.75 124.35 82.6 124.51 82.48C124.67 82.36 124.93 82.3 125.3 82.3C125.76 82.3 126.12 82.36 126.38 82.47C126.64 82.58 126.84 82.73 126.97 82.92C127.1 83.11 127.19 83.33 127.22 83.58C127.25 83.83 127.27 84.09 127.27 84.36V89.64C127.42 89.6 127.57 89.56 127.71 89.51C127.85 89.47 128 89.41 128.15 89.34C128.65 89.14 129.09 89.05 129.45 89.06C129.81 89.07 130.22 89.18 130.67 89.41C130.84 89.49 130.96 89.61 131.05 89.75C131.13 89.89 131.18 90.02 131.18 90.15C131.18 90.3 131.13 90.43 131.03 90.54C130.93 90.65 130.73 90.71 130.42 90.74C130.06 90.77 129.6 90.82 129.04 90.9C128.49 90.98 127.89 91.07 127.26 91.18V98.52C127.26 98.8 127.24 99.11 127.2 99.45C127.16 99.79 127.08 100.11 126.98 100.42C126.88 100.73 126.74 100.98 126.58 101.19C126.42 101.39 126.22 101.49 126 101.49C125.79 101.49 125.63 101.44 125.52 101.33C125.41 101.23 125.32 101.1 125.26 100.95C125.2 100.8 125.16 100.64 125.14 100.47C125.13 100.29 125.12 100.14 125.12 100.02V96.45H125.17ZM123.28 88.46C122.54 88.53 121.78 88.62 121 88.73C120.22 88.84 119.45 88.96 118.69 89.1C117.93 89.23 117.18 89.38 116.46 89.53C115.74 89.68 115.07 89.85 114.45 90.01C113.97 90.14 113.56 90.07 113.22 89.82C112.88 89.57 112.63 89.24 112.47 88.83C112.27 88.34 112.45 88.12 113 88.16C113.42 88.2 113.92 88.2 114.49 88.15C115.06 88.1 115.68 88.03 116.34 87.94C117 87.85 117.68 87.74 118.38 87.62C119.08 87.5 119.76 87.38 120.42 87.25C120.99 87.14 121.51 87.02 121.96 86.89C122.41 86.76 122.89 86.69 123.41 86.66C123.7 86.65 123.94 86.7 124.1 86.83C124.27 86.96 124.34 87.17 124.31 87.46C124.3 87.7 124.2 87.92 124.04 88.11C123.86 88.32 123.61 88.43 123.28 88.46ZM121.07 85.22C121.04 85.61 120.94 85.91 120.77 86.11C120.59 86.31 120.32 86.44 119.96 86.5C119.68 86.54 119.42 86.58 119.19 86.62C118.96 86.66 118.73 86.69 118.51 86.72C118.29 86.76 118.06 86.8 117.84 86.85C117.62 86.9 117.36 86.96 117.08 87.03C116.73 87.11 116.41 87.06 116.13 86.86C115.85 86.66 115.63 86.43 115.48 86.15C115.31 85.84 115.28 85.63 115.38 85.53C115.48 85.43 115.71 85.37 116.07 85.35C116.78 85.32 117.42 85.28 117.97 85.21C118.52 85.15 119.07 85.04 119.6 84.88C119.74 84.85 119.88 84.82 120.03 84.79C120.18 84.75 120.34 84.72 120.52 84.7C120.76 84.67 120.91 84.71 120.98 84.8C121.05 84.9 121.08 85.04 121.07 85.22ZM116.63 92.94C116.63 93.35 116.81 93.65 117.18 93.85C117.54 94.05 118.01 94.12 118.59 94.05C119.14 93.98 119.59 93.8 119.96 93.51C120.32 93.22 120.51 92.88 120.51 92.47C120.51 92.05 120.33 91.74 119.96 91.56C119.6 91.37 119.14 91.31 118.59 91.38C118.01 91.45 117.55 91.62 117.18 91.9C116.81 92.17 116.63 92.52 116.63 92.94Z" fill="black"/>
<path d="M134.06 88.18C134.06 88.03 134.05 87.9 134.02 87.81C133.99 87.72 133.95 87.64 133.89 87.58C133.83 87.52 133.76 87.47 133.68 87.43C133.6 87.4 133.5 87.35 133.39 87.29C133.21 87.21 133.06 87.12 132.95 87.02C132.84 86.92 132.78 86.78 132.78 86.6C132.78 86.4 132.86 86.25 133.02 86.13C133.18 86.01 133.44 85.95 133.81 85.95C134.3 85.95 134.71 85.99 135.04 86.07C135.37 86.15 135.63 86.26 135.83 86.41C136.03 86.56 136.16 86.73 136.24 86.93C136.32 87.13 136.36 87.35 136.36 87.6V91.09C136.36 91.54 136.46 91.85 136.66 92.04C136.86 92.23 137.17 92.31 137.58 92.31C138.39 92.31 139.25 92.13 140.16 91.78C141.07 91.43 141.89 90.98 142.65 90.43C142.97 90.19 143.3 90.05 143.62 90.01C143.94 89.97 144.16 90.09 144.27 90.37C144.34 90.52 144.36 90.68 144.32 90.83C144.28 90.98 144.22 91.13 144.11 91.28C144 91.43 143.87 91.56 143.71 91.69C143.55 91.82 143.38 91.93 143.22 92.03C142.2 92.59 141.12 93.04 139.99 93.36C138.86 93.69 137.81 93.85 136.83 93.85C135.92 93.85 135.23 93.64 134.77 93.23C134.31 92.82 134.08 92.08 134.08 91.03V88.18H134.06ZM137.49 97.23C137.64 96.89 137.6 96.58 137.36 96.28C137.25 96.13 137.16 95.98 137.11 95.84C137.06 95.7 137.06 95.55 137.13 95.4C137.21 95.25 137.35 95.13 137.55 95.06C137.75 94.99 138.01 95.03 138.33 95.19C138.62 95.32 138.89 95.46 139.12 95.62C139.35 95.78 139.53 95.96 139.66 96.17C139.79 96.37 139.85 96.61 139.84 96.86C139.83 97.12 139.74 97.41 139.56 97.73C139.49 97.84 139.42 97.95 139.36 98.05C139.3 98.15 139.23 98.25 139.16 98.34C139.24 98.37 139.31 98.39 139.37 98.4C139.69 98.5 140 98.59 140.29 98.68C140.58 98.77 140.8 98.86 140.95 98.94C141.22 99.09 141.36 99.29 141.39 99.53C141.42 99.77 141.34 99.99 141.16 100.2C140.92 100.45 140.67 100.57 140.4 100.56C140.13 100.55 139.85 100.46 139.56 100.29C139.36 100.18 139.16 100.06 138.95 99.93C138.74 99.8 138.52 99.67 138.28 99.53C137.66 100.24 137.02 100.88 136.34 101.44C135.66 102 134.97 102.5 134.27 102.93C134.07 103.06 133.88 103.14 133.69 103.18C133.5 103.22 133.37 103.2 133.3 103.12C133.23 103.04 133.23 102.94 133.29 102.83C133.35 102.72 133.49 102.56 133.7 102.37C134.55 101.57 135.29 100.76 135.91 99.93C136.53 99.1 137.04 98.21 137.49 97.23ZM146.37 96.51C146.24 96.75 146.11 96.98 145.98 97.2C145.85 97.42 145.7 97.65 145.55 97.87C145.75 97.97 145.93 98.06 146.11 98.13C146.28 98.21 146.45 98.27 146.6 98.33C147.01 98.51 147.43 98.66 147.88 98.77C148.33 98.88 148.77 99.06 149.21 99.3C149.53 99.48 149.73 99.71 149.81 99.97C149.89 100.23 149.83 100.49 149.65 100.73C149.44 101.01 149.17 101.15 148.84 101.16C148.51 101.17 148.19 101.08 147.88 100.9C147.47 100.66 146.98 100.38 146.41 100.05C145.83 99.72 145.25 99.39 144.64 99.07C144.09 99.73 143.49 100.34 142.84 100.91C142.19 101.48 141.51 102.01 140.79 102.5C140.59 102.64 140.41 102.74 140.23 102.81C140.05 102.87 139.92 102.86 139.82 102.76C139.67 102.62 139.78 102.35 140.18 101.96C141.08 101.12 141.86 100.2 142.52 99.19C143.19 98.19 143.76 97.1 144.26 95.92C144.4 95.63 144.36 95.34 144.13 95.06C144.02 94.91 143.93 94.76 143.88 94.62C143.82 94.48 143.84 94.32 143.92 94.14C143.99 94 144.12 93.9 144.32 93.84C144.52 93.78 144.78 93.82 145.1 93.98C145.38 94.11 145.63 94.25 145.86 94.41C146.09 94.57 146.26 94.75 146.4 94.96C146.53 95.16 146.6 95.39 146.61 95.65C146.62 95.9 146.53 96.19 146.37 96.51ZM144.94 84.5C144.94 84.26 144.93 84.08 144.9 83.95C144.87 83.82 144.79 83.73 144.67 83.66C144.52 83.58 144.38 83.48 144.26 83.38C144.14 83.28 144.08 83.13 144.08 82.95C144.08 82.75 144.16 82.6 144.32 82.48C144.48 82.36 144.74 82.3 145.11 82.3C145.57 82.3 145.93 82.36 146.19 82.47C146.45 82.58 146.65 82.73 146.78 82.92C146.91 83.11 147 83.33 147.03 83.58C147.06 83.83 147.08 84.09 147.08 84.36V87.32C147.23 87.28 147.38 87.24 147.52 87.19C147.66 87.15 147.81 87.09 147.96 87.02C148.46 86.82 148.9 86.73 149.26 86.74C149.62 86.75 150.03 86.86 150.48 87.09C150.65 87.17 150.77 87.29 150.86 87.43C150.95 87.57 150.99 87.7 150.99 87.83C150.99 87.98 150.94 88.11 150.84 88.22C150.74 88.32 150.54 88.39 150.23 88.42C149.87 88.45 149.41 88.5 148.85 88.58C148.3 88.66 147.7 88.75 147.07 88.86V90.5C147.07 90.78 147.05 91.09 147.01 91.43C146.97 91.77 146.89 92.09 146.79 92.4C146.69 92.71 146.55 92.96 146.39 93.17C146.23 93.38 146.04 93.47 145.81 93.47C145.6 93.47 145.44 93.42 145.33 93.31C145.22 93.21 145.13 93.08 145.07 92.93C145.01 92.78 144.97 92.62 144.95 92.45C144.94 92.28 144.93 92.12 144.93 92V84.5H144.94Z" fill="black"/>
<path d="M153.62 89.24C153.62 89.09 153.61 88.96 153.58 88.87C153.55 88.78 153.51 88.7 153.45 88.64C153.39 88.58 153.32 88.53 153.24 88.49C153.16 88.45 153.06 88.41 152.95 88.35C152.77 88.27 152.62 88.17 152.51 88.08C152.4 87.99 152.34 87.84 152.34 87.66C152.34 87.46 152.42 87.31 152.58 87.19C152.74 87.07 153 87.01 153.37 87.01C153.92 87.01 154.38 87.07 154.76 87.18C156.01 87.14 157.26 86.98 158.5 86.7C158.75 86.64 158.99 86.58 159.21 86.51C159.43 86.44 159.64 86.37 159.84 86.31C160.04 86.25 160.25 86.19 160.46 86.15C160.67 86.11 160.9 86.08 161.15 86.07C161.47 86.06 161.75 86.13 161.98 86.3C162.21 86.47 162.33 86.73 162.33 87.1C162.33 87.32 162.23 87.48 162.03 87.56C161.83 87.64 161.48 87.71 160.99 87.77C160.15 87.85 159.32 87.95 158.49 88.06C157.66 88.17 156.8 88.29 155.9 88.42C155.91 88.48 155.92 88.55 155.92 88.65V94.43C155.92 94.88 156.02 95.19 156.23 95.38C156.43 95.56 156.74 95.65 157.14 95.65C157.95 95.65 158.81 95.48 159.72 95.12C160.63 94.76 161.46 94.32 162.21 93.77C162.53 93.53 162.85 93.39 163.18 93.35C163.5 93.31 163.72 93.43 163.83 93.71C163.9 93.86 163.92 94.02 163.88 94.17C163.84 94.32 163.77 94.47 163.67 94.62C163.56 94.77 163.43 94.9 163.27 95.03C163.11 95.16 162.94 95.27 162.78 95.37C161.76 95.93 160.68 96.38 159.55 96.71C158.42 97.04 157.37 97.2 156.38 97.2C155.47 97.2 154.78 96.99 154.32 96.58C153.86 96.17 153.63 95.43 153.63 94.38V89.24H153.62ZM164.7 84.5C164.7 84.26 164.69 84.08 164.66 83.95C164.63 83.82 164.55 83.73 164.43 83.66C164.28 83.58 164.14 83.48 164.02 83.38C163.9 83.28 163.84 83.13 163.84 82.95C163.84 82.75 163.92 82.6 164.08 82.48C164.24 82.36 164.5 82.3 164.87 82.3C165.33 82.3 165.69 82.36 165.95 82.47C166.21 82.58 166.41 82.73 166.54 82.92C166.67 83.11 166.76 83.33 166.79 83.58C166.82 83.83 166.84 84.09 166.84 84.36V89.64C166.99 89.6 167.14 89.56 167.28 89.51C167.42 89.47 167.57 89.41 167.72 89.34C168.22 89.14 168.66 89.05 169.02 89.06C169.38 89.07 169.79 89.18 170.24 89.41C170.41 89.49 170.53 89.61 170.62 89.75C170.7 89.89 170.75 90.02 170.75 90.15C170.75 90.3 170.7 90.43 170.6 90.54C170.5 90.65 170.3 90.71 169.99 90.74C169.63 90.77 169.17 90.82 168.61 90.9C168.06 90.98 167.46 91.07 166.83 91.18V98.52C166.83 98.8 166.81 99.11 166.77 99.45C166.73 99.79 166.65 100.11 166.55 100.42C166.45 100.73 166.31 100.98 166.15 101.19C165.99 101.39 165.8 101.49 165.57 101.49C165.36 101.49 165.2 101.44 165.09 101.33C164.98 101.22 164.89 101.1 164.83 100.95C164.77 100.8 164.73 100.64 164.71 100.47C164.69 100.3 164.69 100.14 164.69 100.02V84.5H164.7Z" fill="black"/>
<path d="M173.96 93.13C173.96 92.93 173.89 92.79 173.74 92.71C173.59 92.63 173.44 92.55 173.29 92.48C173.09 92.41 172.94 92.32 172.84 92.22C172.73 92.11 172.68 91.97 172.68 91.79C172.68 91.59 172.76 91.44 172.92 91.32C173.08 91.2 173.34 91.14 173.71 91.14C173.85 91.14 173.98 91.14 174.11 91.15C174.24 91.16 174.36 91.17 174.47 91.18C174.82 91.15 175.22 91.11 175.66 91.05C176.1 90.99 176.56 90.93 177.03 90.85C177.5 90.77 177.96 90.7 178.42 90.63C178.88 90.56 179.29 90.49 179.65 90.42V87.48C179.2 87.54 178.8 87.59 178.45 87.65C178.1 87.71 177.76 87.77 177.42 87.85C177.08 87.93 176.74 88.01 176.39 88.11C176.04 88.21 175.63 88.32 175.17 88.45C174.95 88.52 174.7 88.53 174.44 88.49C174.18 88.45 173.94 88.37 173.7 88.26C173.47 88.15 173.27 88.01 173.1 87.84C172.93 87.67 172.83 87.49 172.78 87.29C172.74 87.09 172.76 86.93 172.85 86.81C172.94 86.68 173.14 86.62 173.45 86.62C174.36 86.62 175.23 86.56 176.06 86.44C176.89 86.32 177.78 86.18 178.75 86.01C179.02 85.97 179.25 85.92 179.46 85.85C179.67 85.78 179.86 85.73 180.05 85.67C180.24 85.61 180.43 85.56 180.63 85.51C180.83 85.46 181.04 85.43 181.28 85.42C181.62 85.39 181.86 85.44 182 85.58C182.15 85.71 182.21 85.96 182.18 86.33C182.17 86.48 182.13 86.63 182.06 86.76C181.99 86.89 181.9 87.01 181.78 87.11L181.63 90.29C181.81 90.33 181.96 90.4 182.07 90.5C182.18 90.6 182.24 90.74 182.24 90.92C182.24 91.1 182.14 91.28 181.94 91.45C181.74 91.62 181.39 91.73 180.9 91.79C180.06 91.89 179.27 92 178.52 92.12C177.78 92.24 177.01 92.36 176.21 92.49C176.24 92.63 176.25 92.74 176.25 92.81V94.89C176.25 95.76 176.66 96.17 177.47 96.13C178.47 96.09 179.36 95.9 180.15 95.55C180.94 95.21 181.72 94.75 182.47 94.17C182.79 93.92 183.12 93.79 183.45 93.78C183.78 93.77 184 93.91 184.11 94.19C184.18 94.34 184.2 94.5 184.16 94.64C184.12 94.79 184.06 94.93 183.95 95.08C183.84 95.23 183.71 95.37 183.55 95.5C183.39 95.63 183.22 95.75 183.06 95.85C182.04 96.44 180.96 96.89 179.84 97.2C178.72 97.51 177.67 97.66 176.69 97.66C175.78 97.66 175.1 97.45 174.64 97.04C174.18 96.63 173.96 95.89 173.96 94.84V93.13ZM185.63 84.5C185.63 84.26 185.62 84.08 185.59 83.95C185.56 83.82 185.48 83.73 185.36 83.66C185.21 83.58 185.07 83.48 184.95 83.38C184.83 83.28 184.77 83.13 184.77 82.95C184.77 82.75 184.85 82.6 185.01 82.48C185.17 82.36 185.43 82.3 185.8 82.3C186.26 82.3 186.62 82.36 186.88 82.47C187.14 82.58 187.34 82.73 187.47 82.92C187.6 83.11 187.69 83.33 187.72 83.58C187.75 83.83 187.77 84.09 187.77 84.36V98.51C187.77 98.79 187.75 99.1 187.71 99.44C187.67 99.78 187.59 100.1 187.49 100.41C187.38 100.72 187.25 100.97 187.09 101.18C186.93 101.38 186.74 101.48 186.51 101.48C186.3 101.48 186.14 101.43 186.03 101.32C185.92 101.21 185.83 101.09 185.77 100.94C185.71 100.79 185.67 100.63 185.65 100.46C185.64 100.28 185.63 100.13 185.63 100.01V84.5Z" fill="black"/>
<path d="M206.05 88.71C206.05 89.41 205.93 90.05 205.7 90.61C205.47 91.18 205.15 91.68 204.75 92.11C204.35 92.54 203.88 92.91 203.34 93.21C202.8 93.51 202.22 93.74 201.61 93.89V97C202.2 96.9 202.76 96.81 203.29 96.72C203.82 96.63 204.32 96.54 204.78 96.46C205.45 96.33 206.15 96.18 206.87 96C207.59 95.82 208.25 95.71 208.84 95.68C209.65 95.65 210.06 95.93 210.06 96.5C210.06 96.77 209.95 96.99 209.74 97.18C209.53 97.37 209.21 97.48 208.77 97.51C208.06 97.57 207.27 97.64 206.43 97.74C205.58 97.84 204.71 97.95 203.8 98.09C202.89 98.23 201.99 98.36 201.08 98.51C200.17 98.66 199.29 98.81 198.43 98.97C197.57 99.13 196.77 99.29 196.02 99.45C195.27 99.61 194.61 99.76 194.03 99.9C193.69 99.98 193.38 100.01 193.1 99.97C192.82 99.93 192.57 99.86 192.35 99.74C192.13 99.62 191.95 99.48 191.79 99.31C191.64 99.14 191.51 98.97 191.41 98.81C191.28 98.57 191.27 98.38 191.38 98.22C191.49 98.07 191.71 98 192.06 98.03C192.41 98.04 192.85 98.04 193.37 98.01C193.9 97.98 194.48 97.93 195.13 97.86C195.78 97.79 196.46 97.71 197.19 97.62C197.92 97.53 198.65 97.43 199.4 97.32V94.14C198.66 94.13 198.01 94.01 197.44 93.8C196.88 93.59 196.41 93.3 196.03 92.94C195.65 92.58 195.37 92.15 195.18 91.66C194.99 91.17 194.9 90.63 194.9 90.04C194.9 89.21 195.09 88.46 195.47 87.79C195.85 87.12 196.34 86.55 196.95 86.08C197.56 85.61 198.25 85.25 199.02 85C199.79 84.75 200.58 84.62 201.38 84.62C202.07 84.62 202.69 84.71 203.26 84.89C203.83 85.07 204.31 85.33 204.72 85.68C205.13 86.02 205.44 86.45 205.68 86.96C205.92 87.47 206.05 88.06 206.05 88.71ZM203.84 88.9C203.84 88 203.58 87.35 203.07 86.94C202.56 86.53 201.91 86.33 201.12 86.33C200.63 86.33 200.15 86.4 199.67 86.55C199.19 86.7 198.77 86.92 198.39 87.21C198.01 87.5 197.71 87.87 197.48 88.31C197.25 88.75 197.13 89.27 197.13 89.86C197.13 90.76 197.39 91.41 197.9 91.83C198.41 92.24 199.07 92.45 199.87 92.45C200.36 92.45 200.84 92.37 201.32 92.22C201.8 92.07 202.22 91.84 202.59 91.54C202.96 91.24 203.26 90.87 203.49 90.43C203.72 89.99 203.84 89.47 203.84 88.9Z" fill="black"/>
<path d="M213.79 98.21C214.21 98.18 214.56 98.29 214.84 98.55C215.12 98.81 215.26 99.14 215.26 99.56C215.26 100.01 215.12 100.36 214.84 100.62C214.56 100.88 214.21 101.02 213.79 101.05C213.37 101.08 213.02 100.97 212.73 100.73C212.44 100.49 212.3 100.15 212.3 99.7C212.3 99.28 212.44 98.93 212.73 98.66C213.01 98.39 213.36 98.24 213.79 98.21ZM212.54 87.03C212.53 86.78 212.53 86.53 212.55 86.28C212.57 86.03 212.62 85.81 212.71 85.61C212.79 85.41 212.91 85.24 213.07 85.12C213.22 84.99 213.43 84.92 213.7 84.91C213.98 84.9 214.2 84.95 214.37 85.06C214.54 85.17 214.66 85.33 214.74 85.52C214.82 85.71 214.87 85.94 214.89 86.18C214.91 86.43 214.91 86.67 214.9 86.93L214.46 96.52C214.45 96.76 214.37 96.94 214.24 97.07C214.11 97.2 213.94 97.27 213.75 97.28C213.57 97.29 213.42 97.24 213.3 97.13C213.18 97.02 213.11 96.84 213.1 96.6L212.54 87.03Z" fill="black"/>
<path d="M220.09 98.21C220.51 98.18 220.86 98.29 221.14 98.55C221.42 98.81 221.56 99.14 221.56 99.56C221.56 100.01 221.42 100.36 221.14 100.62C220.86 100.88 220.51 101.02 220.09 101.05C219.67 101.08 219.32 100.97 219.03 100.73C218.74 100.49 218.6 100.15 218.6 99.7C218.6 99.28 218.74 98.93 219.03 98.66C219.32 98.39 219.67 98.24 220.09 98.21ZM218.85 87.03C218.84 86.78 218.84 86.53 218.86 86.28C218.88 86.03 218.93 85.81 219.02 85.61C219.1 85.41 219.22 85.24 219.38 85.12C219.53 84.99 219.74 84.92 220.01 84.91C220.29 84.9 220.51 84.95 220.68 85.06C220.85 85.17 220.97 85.33 221.05 85.52C221.13 85.71 221.18 85.94 221.2 86.18C221.22 86.43 221.22 86.67 221.21 86.93L220.77 96.52C220.76 96.76 220.68 96.94 220.55 97.07C220.42 97.2 220.25 97.27 220.06 97.28C219.88 97.29 219.73 97.24 219.61 97.13C219.49 97.02 219.42 96.84 219.41 96.6L218.85 87.03Z" fill="black"/>
</svg>
