<?xml version="1.0" encoding="utf-8"?>
<!-- Generator: Adobe Illustrator 29.4.0, SVG Export Plug-In . SVG Version: 9.03 Build 0)  -->
<svg version="1.1" id="레이어_1" xmlns="http://www.w3.org/2000/svg" xmlns:xlink="http://www.w3.org/1999/xlink" x="0px"
	 y="0px" width="500px" height="1000px" viewBox="0 0 500 1000" enable-background="new 0 0 500 1000" xml:space="preserve">
<ellipse fill="#FFFFFF" stroke="#000000" stroke-width="2" stroke-miterlimit="10" cx="250" cy="258.1" rx="123.62" ry="79.47"/>
<g>
	<path d="M215.79,248.46c-0.78,0.06-1.63,0.15-2.55,0.25c-0.92,0.11-1.88,0.23-2.86,0.38c-0.98,0.15-1.97,0.3-2.96,0.46
		s-1.95,0.33-2.88,0.5c-0.93,0.18-1.8,0.35-2.62,0.53s-1.54,0.34-2.16,0.49c-0.37,0.09-0.7,0.12-1.01,0.08
		c-0.31-0.04-0.58-0.12-0.81-0.25c-0.24-0.13-0.44-0.29-0.61-0.47c-0.17-0.18-0.31-0.37-0.41-0.55c-0.14-0.26-0.15-0.47-0.03-0.64
		c0.11-0.17,0.36-0.24,0.74-0.21c0.4,0.02,0.9,0,1.52-0.03c0.62-0.04,1.3-0.1,2.05-0.17c0.75-0.08,1.54-0.17,2.38-0.29
		c0.84-0.11,1.68-0.23,2.54-0.35v-1.99c0-0.26-0.02-0.46-0.05-0.61c-0.03-0.15-0.11-0.26-0.25-0.33c-0.17-0.09-0.32-0.19-0.45-0.3
		c-0.13-0.11-0.19-0.26-0.19-0.46c0-0.21,0.09-0.38,0.26-0.51c0.17-0.13,0.46-0.19,0.86-0.19c0.5,0,0.9,0.06,1.18,0.18
		c0.28,0.12,0.5,0.28,0.64,0.47c0.14,0.19,0.24,0.4,0.27,0.63c0.04,0.23,0.06,0.46,0.06,0.69v2.06c0.55-0.08,1.07-0.16,1.58-0.25
		c0.5-0.09,0.98-0.17,1.42-0.25c0.73-0.14,1.49-0.3,2.28-0.5c0.78-0.2,1.5-0.31,2.14-0.34c0.88-0.03,1.33,0.27,1.33,0.89
		c0,0.29-0.11,0.54-0.34,0.74C216.62,248.31,216.27,248.43,215.79,248.46z M212.64,235.82c-0.72,0.08-1.49,0.17-2.32,0.29
		c-0.83,0.11-1.68,0.25-2.55,0.4c0.66,0.47,0.77,1.08,0.34,1.83c-0.05,0.09-0.1,0.18-0.15,0.26c-0.05,0.08-0.1,0.16-0.15,0.24
		c0.79,0.31,1.56,0.58,2.3,0.82c0.74,0.24,1.39,0.44,1.96,0.59c0.52,0.14,1.04,0.24,1.55,0.31c0.52,0.07,1.06,0.25,1.62,0.54
		c0.26,0.12,0.43,0.32,0.53,0.59s0.05,0.56-0.14,0.87c-0.21,0.35-0.49,0.54-0.83,0.58c-0.34,0.04-0.7-0.03-1.06-0.19
		c-0.46-0.2-0.97-0.41-1.53-0.64c-0.56-0.23-1.15-0.46-1.76-0.69c-0.61-0.23-1.23-0.46-1.86-0.69c-0.63-0.23-1.25-0.45-1.84-0.66
		c-0.81,0.95-1.8,1.85-2.97,2.71c-1.17,0.86-2.56,1.63-4.16,2.32c-0.17,0.08-0.36,0.14-0.58,0.18c-0.22,0.05-0.37-0.02-0.45-0.18
		c-0.03-0.09-0.03-0.17,0.01-0.25c0.04-0.08,0.1-0.14,0.18-0.21c0.08-0.06,0.17-0.12,0.26-0.18c0.09-0.06,0.18-0.11,0.25-0.16
		c1.43-0.98,2.66-2,3.67-3.06c1.01-1.07,1.8-2.18,2.37-3.34c0.18-0.38,0.16-0.75-0.07-1.12c-0.64,0.14-1.25,0.27-1.83,0.4
		c-0.58,0.13-1.1,0.26-1.55,0.38c-0.55,0.15-0.99,0.11-1.33-0.14c-0.34-0.24-0.59-0.56-0.78-0.96c-0.17-0.37-0.17-0.62-0.01-0.75
		c0.16-0.14,0.42-0.19,0.77-0.16c0.59,0.03,1.3,0.01,2.1-0.07c0.81-0.08,1.64-0.18,2.49-0.32c0.85-0.14,1.69-0.28,2.52-0.43
		s1.55-0.28,2.17-0.39c0.61-0.11,1.11-0.22,1.51-0.34c0.4-0.12,0.82-0.22,1.28-0.3c0.82-0.12,1.21,0.15,1.17,0.82
		c-0.02,0.26-0.11,0.5-0.3,0.72C213.28,235.66,213,235.79,212.64,235.82z"/>
	<path d="M237.29,248.46c-0.78,0.06-1.63,0.15-2.55,0.25c-0.92,0.11-1.88,0.23-2.86,0.38c-0.98,0.15-1.97,0.3-2.96,0.46
		s-1.95,0.33-2.88,0.5c-0.93,0.18-1.8,0.35-2.62,0.53s-1.54,0.34-2.16,0.49c-0.37,0.09-0.7,0.12-1.01,0.08
		c-0.31-0.04-0.58-0.12-0.81-0.25c-0.24-0.13-0.44-0.29-0.61-0.47c-0.17-0.18-0.31-0.37-0.41-0.55c-0.14-0.26-0.15-0.47-0.03-0.64
		c0.11-0.17,0.36-0.24,0.74-0.21c0.47,0.03,1.09,0.02,1.86-0.05c0.77-0.06,1.62-0.15,2.55-0.25v-4.18c0-0.26-0.02-0.46-0.05-0.59
		c-0.03-0.14-0.11-0.24-0.25-0.32c-0.17-0.09-0.32-0.19-0.45-0.31c-0.13-0.11-0.19-0.27-0.19-0.47c0-0.21,0.09-0.38,0.26-0.51
		c0.18-0.13,0.46-0.19,0.86-0.19c0.5,0,0.9,0.06,1.18,0.18c0.28,0.12,0.5,0.29,0.64,0.49c0.15,0.21,0.24,0.45,0.27,0.72
		c0.04,0.27,0.06,0.56,0.06,0.85v4.05c0.46-0.08,0.92-0.15,1.38-0.21c0.46-0.06,0.93-0.13,1.38-0.21v-4.66
		c0-0.26-0.02-0.46-0.05-0.59c-0.03-0.14-0.11-0.24-0.25-0.32c-0.17-0.09-0.32-0.19-0.45-0.31c-0.13-0.11-0.19-0.27-0.19-0.47
		c0-0.21,0.09-0.38,0.26-0.51s0.46-0.19,0.86-0.19c0.5,0,0.9,0.06,1.18,0.18c0.28,0.12,0.5,0.29,0.64,0.49
		c0.14,0.21,0.24,0.45,0.27,0.72s0.06,0.56,0.06,0.85v4.46c0.35-0.06,0.69-0.12,1.02-0.17c0.33-0.05,0.64-0.11,0.95-0.17
		c0.73-0.14,1.46-0.3,2.2-0.49c0.73-0.19,1.47-0.3,2.22-0.33c0.88-0.03,1.33,0.26,1.33,0.87c0,0.29-0.11,0.54-0.34,0.74
		C238.11,248.31,237.76,248.43,237.29,248.46z M232.65,244.46c0.14-1.23,0.25-2.45,0.34-3.64s0.18-2.41,0.27-3.66
		c0.03-0.38-0.01-0.64-0.11-0.77c-0.11-0.13-0.36-0.17-0.75-0.13c-0.72,0.08-1.51,0.19-2.39,0.34c-0.88,0.15-1.75,0.31-2.62,0.48
		c-0.87,0.17-1.7,0.34-2.49,0.53c-0.79,0.18-1.46,0.34-1.99,0.48c-0.52,0.14-0.96,0.07-1.34-0.21s-0.64-0.63-0.81-1.07
		c-0.09-0.24-0.06-0.43,0.1-0.57c0.16-0.14,0.39-0.19,0.7-0.16c0.3,0.02,0.74,0,1.3-0.03c0.56-0.04,1.2-0.1,1.92-0.18
		c0.72-0.08,1.48-0.19,2.28-0.31c0.8-0.12,1.58-0.24,2.35-0.37c0.77-0.12,1.49-0.24,2.17-0.37s1.26-0.24,1.75-0.34
		c0.44-0.09,0.83-0.14,1.15-0.16c0.33-0.01,0.59,0.04,0.8,0.17c0.21,0.13,0.34,0.35,0.41,0.67c0.07,0.32,0.06,0.78-0.03,1.37
		c-0.03,0.23-0.08,0.55-0.14,0.96c-0.06,0.41-0.13,0.87-0.21,1.38c-0.08,0.51-0.16,1.05-0.26,1.61c-0.1,0.56-0.2,1.11-0.3,1.65
		s-0.21,1.03-0.32,1.49c-0.11,0.46-0.23,0.84-0.33,1.14c-0.14,0.37-0.29,0.61-0.46,0.72c-0.17,0.11-0.36,0.16-0.57,0.13
		c-0.26-0.03-0.4-0.16-0.43-0.38C232.61,245.03,232.61,244.77,232.65,244.46z"/>
	<path d="M242.36,238.26c0-0.17-0.02-0.3-0.05-0.4c-0.03-0.1-0.08-0.18-0.14-0.25c-0.06-0.07-0.14-0.12-0.23-0.16
		c-0.09-0.04-0.2-0.09-0.32-0.15c-0.2-0.09-0.36-0.19-0.48-0.3c-0.12-0.11-0.18-0.26-0.18-0.46c0-0.21,0.09-0.38,0.26-0.51
		c0.17-0.13,0.46-0.19,0.86-0.19c0.53,0,0.98,0.04,1.34,0.13c0.36,0.08,0.64,0.21,0.86,0.37s0.36,0.35,0.45,0.56
		c0.08,0.21,0.13,0.46,0.13,0.73v3.64c0,0.49,0.15,0.83,0.45,1.03c0.3,0.2,0.67,0.3,1.11,0.3c0.44,0,0.92-0.03,1.44-0.1
		c0.52-0.07,1.04-0.17,1.58-0.3c0.53-0.13,1.06-0.3,1.57-0.5c0.51-0.21,0.98-0.45,1.41-0.72c0.35-0.23,0.7-0.35,1.05-0.38
		s0.59,0.12,0.71,0.42c0.15,0.32,0.1,0.63-0.15,0.93s-0.58,0.55-1,0.77c-0.58,0.29-1.19,0.53-1.83,0.73
		c-0.64,0.2-1.29,0.36-1.94,0.49c-0.66,0.13-1.3,0.22-1.92,0.27c-0.63,0.05-1.2,0.08-1.74,0.08c-1.08,0-1.89-0.22-2.42-0.67
		c-0.53-0.45-0.8-1.25-0.8-2.39V238.26z M255.76,252.67c-0.21,0-0.38-0.05-0.49-0.14s-0.21-0.21-0.29-0.34
		c-0.47,0.2-0.98,0.37-1.53,0.51s-1.09,0.26-1.61,0.35c-0.53,0.09-1.02,0.16-1.48,0.21c-0.46,0.05-0.83,0.06-1.12,0.05
		c-0.53-0.02-1.02-0.06-1.46-0.15c-0.44-0.08-0.82-0.23-1.14-0.43c-0.32-0.21-0.57-0.49-0.75-0.85c-0.18-0.36-0.27-0.83-0.27-1.41
		v-2.26c0-0.24-0.02-0.4-0.05-0.48c-0.03-0.08-0.11-0.15-0.25-0.23c-0.17-0.09-0.32-0.19-0.45-0.3c-0.13-0.11-0.19-0.26-0.19-0.46
		c0-0.21,0.09-0.38,0.26-0.51c0.17-0.13,0.46-0.19,0.86-0.19c0.3,0,0.56,0.02,0.77,0.07c0.21,0.05,0.39,0.11,0.56,0.18
		c0.5-0.03,1.06-0.08,1.68-0.15c0.62-0.07,1.23-0.15,1.83-0.23c0.6-0.08,1.17-0.17,1.7-0.26c0.53-0.09,0.98-0.18,1.33-0.27
		c0.47-0.12,0.89-0.26,1.26-0.4c0.37-0.14,0.75-0.22,1.17-0.24c0.47-0.02,0.84,0.08,1.11,0.27c0.27,0.2,0.41,0.5,0.42,0.89
		c0,0.29-0.16,0.49-0.48,0.59v3.18c0,0.35-0.02,0.7-0.07,1.06c-0.05,0.36-0.13,0.68-0.24,0.96c-0.11,0.28-0.26,0.51-0.43,0.7
		C256.21,252.58,256.01,252.67,255.76,252.67z M249.04,247.64c-0.18,0.03-0.36,0.06-0.54,0.09c-0.18,0.03-0.35,0.06-0.51,0.09v0.23
		v2.47c0,0.24,0.05,0.44,0.14,0.58c0.09,0.15,0.22,0.26,0.39,0.34c0.17,0.08,0.37,0.14,0.61,0.16c0.24,0.02,0.5,0.03,0.79,0.03
		c0.37,0,0.75-0.03,1.17-0.09c0.41-0.06,0.83-0.14,1.27-0.24c0.43-0.1,0.86-0.21,1.28-0.34c0.42-0.13,0.81-0.27,1.18-0.42v-3.66
		c-0.87,0.11-1.82,0.23-2.85,0.35C250.93,247.37,249.95,247.5,249.04,247.64z M255.03,234.31c0-0.26-0.02-0.46-0.05-0.59
		s-0.11-0.24-0.25-0.32c-0.17-0.09-0.32-0.19-0.45-0.31c-0.13-0.11-0.19-0.27-0.19-0.47c0-0.21,0.09-0.38,0.26-0.51
		s0.46-0.19,0.86-0.19c0.5,0,0.9,0.06,1.18,0.18c0.28,0.12,0.5,0.29,0.64,0.49c0.14,0.21,0.24,0.45,0.27,0.72
		c0.04,0.27,0.06,0.56,0.06,0.85v6.47c0,0.31-0.02,0.64-0.07,1.01s-0.13,0.72-0.24,1.05c-0.11,0.34-0.26,0.61-0.43,0.83
		c-0.17,0.22-0.38,0.33-0.63,0.33c-0.23,0-0.4-0.06-0.53-0.17s-0.22-0.25-0.29-0.41s-0.11-0.33-0.13-0.53
		c-0.01-0.19-0.02-0.35-0.02-0.49V234.31z"/>
	<path d="M273.09,238.24c-0.81,0.08-1.64,0.17-2.5,0.29c-0.86,0.11-1.71,0.24-2.55,0.39s-1.65,0.3-2.43,0.47
		c-0.79,0.17-1.52,0.34-2.21,0.53c-0.52,0.14-0.98,0.07-1.37-0.21s-0.66-0.63-0.78-1.07c-0.14-0.49,0.09-0.71,0.69-0.66
		c0.46,0.03,1,0.02,1.62-0.02c0.62-0.05,1.29-0.12,2-0.22s1.44-0.21,2.21-0.34c0.76-0.13,1.5-0.26,2.22-0.4
		c0.53-0.11,1.07-0.23,1.6-0.37c0.53-0.14,1.02-0.24,1.46-0.32c0.82-0.14,1.21,0.15,1.17,0.87c-0.03,0.26-0.13,0.5-0.31,0.71
		C273.73,238.09,273.46,238.21,273.09,238.24z M263.74,243.5c0-0.49,0.11-0.95,0.32-1.38c0.21-0.43,0.51-0.82,0.9-1.17
		c0.39-0.34,0.85-0.63,1.39-0.87s1.15-0.39,1.82-0.47c0.66-0.09,1.26-0.08,1.81,0.02c0.55,0.11,1.01,0.29,1.4,0.54
		c0.38,0.25,0.68,0.57,0.89,0.96c0.21,0.39,0.32,0.83,0.32,1.31s-0.11,0.95-0.32,1.38c-0.21,0.43-0.51,0.82-0.9,1.15
		s-0.85,0.62-1.39,0.85c-0.54,0.23-1.14,0.38-1.79,0.46c-0.67,0.09-1.28,0.09-1.82-0.01c-0.54-0.1-1.01-0.27-1.39-0.51
		c-0.39-0.24-0.69-0.56-0.9-0.95C263.85,244.43,263.74,243.99,263.74,243.5z M270.85,234.67c0,0.5-0.1,0.87-0.3,1.1
		c-0.2,0.23-0.55,0.38-1.05,0.46c-0.53,0.08-1.05,0.15-1.55,0.23c-0.5,0.08-1.07,0.2-1.69,0.37c-0.38,0.11-0.75,0.06-1.1-0.14
		s-0.59-0.45-0.71-0.75c-0.17-0.38-0.2-0.63-0.1-0.74c0.1-0.11,0.35-0.18,0.74-0.19c0.78-0.03,1.49-0.08,2.15-0.16
		c0.66-0.08,1.27-0.18,1.85-0.32c0.15-0.03,0.32-0.07,0.5-0.13c0.18-0.05,0.37-0.1,0.57-0.15c0.24-0.06,0.42-0.05,0.53,0.05
		C270.8,234.38,270.85,234.51,270.85,234.67z M266.35,249.56c0-0.24-0.02-0.4-0.05-0.48c-0.03-0.08-0.11-0.15-0.25-0.23
		c-0.17-0.09-0.32-0.19-0.45-0.3c-0.13-0.11-0.19-0.26-0.19-0.46c0-0.21,0.09-0.38,0.26-0.51c0.17-0.13,0.46-0.19,0.86-0.19
		c0.49,0,0.88,0.06,1.17,0.17c0.29,0.11,0.51,0.26,0.66,0.45s0.25,0.4,0.3,0.64c0.05,0.24,0.07,0.5,0.07,0.75v1.12
		c0,0.24,0.04,0.44,0.14,0.58s0.22,0.26,0.39,0.34c0.17,0.08,0.37,0.14,0.61,0.16c0.24,0.02,0.5,0.03,0.79,0.03
		c0.61,0,1.22-0.05,1.82-0.15c0.6-0.1,1.18-0.24,1.75-0.41c0.56-0.18,1.09-0.37,1.59-0.59c0.5-0.22,0.94-0.45,1.34-0.67
		c0.4-0.23,0.75-0.35,1.06-0.38s0.54,0.12,0.67,0.42c0.15,0.32,0.1,0.66-0.15,1.02c-0.25,0.36-0.59,0.64-1.02,0.83
		c-0.56,0.26-1.2,0.49-1.9,0.7c-0.7,0.21-1.41,0.38-2.12,0.51s-1.39,0.24-2.05,0.32c-0.66,0.08-1.21,0.1-1.67,0.07
		c-0.53-0.02-1.02-0.06-1.46-0.15c-0.44-0.08-0.82-0.23-1.14-0.43c-0.32-0.21-0.57-0.49-0.75-0.85c-0.18-0.36-0.27-0.83-0.27-1.41
		V249.56z M266.05,243.2c0,0.47,0.19,0.83,0.56,1.06c0.37,0.24,0.88,0.32,1.52,0.24c0.66-0.08,1.17-0.29,1.55-0.64
		c0.38-0.35,0.57-0.78,0.57-1.28c0-0.49-0.18-0.84-0.55-1.05c-0.37-0.21-0.86-0.28-1.49-0.21c-0.67,0.08-1.2,0.28-1.59,0.61
		C266.25,242.26,266.05,242.69,266.05,243.2z M275.33,234.31c0-0.26-0.01-0.46-0.04-0.59c-0.03-0.14-0.12-0.24-0.25-0.32
		c-0.17-0.09-0.32-0.19-0.45-0.31c-0.13-0.11-0.19-0.27-0.19-0.47c0-0.21,0.09-0.38,0.26-0.51c0.17-0.13,0.46-0.19,0.86-0.19
		c0.5,0,0.9,0.06,1.18,0.18c0.28,0.12,0.5,0.29,0.64,0.49s0.24,0.45,0.27,0.72s0.06,0.56,0.06,0.85v5.03
		c0.17-0.05,0.33-0.09,0.48-0.14c0.15-0.05,0.31-0.11,0.48-0.18c0.55-0.21,1.02-0.32,1.42-0.31c0.4,0.01,0.84,0.13,1.33,0.38
		c0.18,0.09,0.32,0.21,0.41,0.37c0.09,0.15,0.14,0.3,0.14,0.43c0,0.17-0.05,0.31-0.16,0.42c-0.11,0.11-0.33,0.19-0.66,0.22
		c-0.4,0.03-0.9,0.09-1.5,0.17c-0.6,0.08-1.25,0.19-1.93,0.31v3.73c0,0.31-0.02,0.64-0.07,1.01c-0.04,0.37-0.12,0.72-0.24,1.05
		c-0.12,0.34-0.26,0.61-0.43,0.83c-0.18,0.22-0.39,0.33-0.63,0.33c-0.23,0-0.4-0.06-0.53-0.17c-0.12-0.11-0.22-0.25-0.29-0.41
		c-0.07-0.16-0.11-0.33-0.13-0.53c-0.02-0.19-0.02-0.35-0.02-0.49V234.31z"/>
	<path d="M287.38,241.6c0.05-0.02,0.13-0.04,0.25-0.07c0.47-0.08,0.94-0.19,1.41-0.33c0.46-0.14,0.96-0.22,1.5-0.22
		c0.17,0,0.34,0.03,0.53,0.08s0.35,0.13,0.49,0.23c0.15,0.1,0.26,0.22,0.34,0.37c0.08,0.15,0.12,0.32,0.12,0.51
		c0,0.24-0.11,0.42-0.34,0.53c-0.23,0.11-0.61,0.18-1.14,0.23c-0.59,0.06-1.14,0.11-1.65,0.16c-0.5,0.05-1.01,0.1-1.51,0.16v2.38
		c0,0.43,0.08,0.71,0.25,0.86c0.17,0.15,0.43,0.22,0.78,0.22c0.64,0,1.32-0.11,2.04-0.33c0.72-0.22,1.4-0.55,2.06-0.99
		c0.38-0.26,0.73-0.39,1.05-0.4c0.32-0.01,0.54,0.12,0.66,0.38c0.17,0.34,0.15,0.65-0.06,0.94c-0.21,0.29-0.51,0.53-0.9,0.73
		c-0.87,0.41-1.77,0.74-2.7,0.97s-1.81,0.36-2.65,0.38c-1.05,0.02-1.82-0.17-2.3-0.56c-0.48-0.39-0.72-1.11-0.72-2.16v-5.99
		c0-0.17-0.02-0.3-0.05-0.4s-0.08-0.18-0.14-0.25c-0.06-0.07-0.14-0.12-0.23-0.16c-0.09-0.04-0.2-0.09-0.32-0.15
		c-0.2-0.09-0.36-0.19-0.48-0.3c-0.12-0.11-0.18-0.26-0.18-0.46c0-0.21,0.09-0.38,0.26-0.51c0.17-0.13,0.46-0.19,0.86-0.19
		c0.62,0,1.11,0.05,1.44,0.16c1.07-0.09,2.1-0.25,3.09-0.48c0.27-0.06,0.53-0.13,0.77-0.21c0.24-0.08,0.46-0.15,0.69-0.22
		c0.22-0.07,0.45-0.13,0.67-0.17c0.23-0.05,0.48-0.08,0.75-0.09c0.35-0.01,0.65,0.07,0.9,0.25c0.25,0.18,0.38,0.47,0.38,0.87
		c0,0.24-0.11,0.41-0.33,0.5s-0.6,0.17-1.13,0.23c-0.75,0.08-1.49,0.16-2.23,0.24c-0.74,0.08-1.5,0.19-2.28,0.31
		c0.02,0.08,0.03,0.14,0.04,0.19c0.01,0.05,0.01,0.12,0.01,0.19V241.6z M295.02,242.11c-0.06,0.03-0.11,0.05-0.14,0.05
		c-0.35,0.12-0.67,0.16-0.97,0.1s-0.62-0.19-0.97-0.4c-0.37-0.21-0.55-0.45-0.55-0.71c0-0.32,0.2-0.5,0.59-0.55
		c0.27-0.03,0.58-0.06,0.93-0.1s0.71-0.09,1.11-0.15v-4.39c0-0.49-0.12-0.79-0.37-0.91c-0.17-0.09-0.32-0.19-0.45-0.31
		c-0.13-0.11-0.19-0.27-0.19-0.47c0-0.21,0.09-0.38,0.26-0.51c0.17-0.13,0.46-0.19,0.86-0.19c0.5,0,0.89,0.06,1.17,0.18
		s0.48,0.29,0.62,0.49c0.14,0.21,0.22,0.45,0.25,0.72c0.03,0.27,0.04,0.56,0.04,0.85v12.83c0,0.31-0.02,0.64-0.06,1.01
		s-0.11,0.72-0.22,1.05c-0.11,0.33-0.24,0.61-0.41,0.83c-0.17,0.22-0.37,0.33-0.62,0.33c-0.23,0-0.4-0.06-0.51-0.17
		s-0.2-0.25-0.26-0.41c-0.06-0.16-0.1-0.34-0.1-0.53c-0.01-0.19-0.01-0.35-0.01-0.49V242.11z M298.79,234.31
		c0-0.26-0.02-0.46-0.06-0.59s-0.12-0.24-0.26-0.32c-0.17-0.09-0.32-0.19-0.47-0.31s-0.22-0.27-0.22-0.47
		c0-0.21,0.09-0.38,0.26-0.51c0.17-0.13,0.46-0.19,0.86-0.19c0.5,0,0.89,0.06,1.17,0.18c0.27,0.12,0.48,0.29,0.62,0.49
		c0.14,0.21,0.22,0.45,0.25,0.72s0.05,0.56,0.05,0.85v15.39c0,0.3-0.02,0.64-0.06,1.01s-0.11,0.72-0.22,1.05
		c-0.11,0.34-0.24,0.61-0.41,0.83c-0.17,0.22-0.37,0.33-0.62,0.33c-0.23,0-0.4-0.06-0.51-0.17s-0.2-0.25-0.26-0.41
		c-0.06-0.16-0.1-0.34-0.1-0.53c-0.01-0.19-0.01-0.35-0.01-0.49V234.31z"/>
	<path d="M183,265.36c0.7-0.08,1.45-0.16,2.25-0.26s1.6-0.21,2.41-0.33v-1.35c0-0.21-0.08-0.37-0.24-0.46
		c-0.16-0.09-0.32-0.18-0.49-0.25c-0.21-0.08-0.38-0.17-0.49-0.29s-0.17-0.27-0.17-0.47c0-0.21,0.09-0.38,0.26-0.51
		c0.17-0.13,0.46-0.19,0.86-0.19c0.55,0,0.99,0.04,1.33,0.13c0.33,0.08,0.6,0.21,0.79,0.37s0.32,0.35,0.39,0.56
		c0.07,0.21,0.1,0.46,0.1,0.73v4.46c0,0.31-0.02,0.64-0.07,1.01c-0.05,0.37-0.13,0.72-0.24,1.05c-0.11,0.34-0.26,0.61-0.43,0.83
		c-0.18,0.22-0.39,0.33-0.63,0.33c-0.23,0-0.41-0.06-0.54-0.18c-0.13-0.12-0.23-0.27-0.29-0.43c-0.72,0.32-1.44,0.57-2.16,0.75
		c-0.72,0.18-1.43,0.28-2.11,0.3c-0.47,0-0.9-0.03-1.27-0.09c-0.37-0.06-0.69-0.19-0.95-0.39s-0.46-0.48-0.59-0.83
		c-0.14-0.36-0.21-0.83-0.21-1.41v-2.84c0-0.33-0.07-0.56-0.21-0.66c-0.14-0.11-0.31-0.2-0.53-0.27c-0.2-0.08-0.36-0.17-0.48-0.29
		c-0.12-0.11-0.18-0.27-0.18-0.47c0-0.21,0.09-0.39,0.26-0.51s0.46-0.19,0.86-0.19c0.53,0,0.98,0.04,1.34,0.13
		c0.36,0.08,0.64,0.21,0.86,0.37c0.21,0.16,0.36,0.35,0.45,0.56c0.08,0.21,0.13,0.46,0.13,0.73V265.36z M184.06,278.07
		c0-0.24-0.06-0.42-0.17-0.53c-0.11-0.11-0.31-0.2-0.58-0.27c-0.43-0.11-0.64-0.34-0.64-0.71c0-0.21,0.07-0.38,0.21-0.5
		c0.14-0.12,0.4-0.18,0.8-0.18c0.62,0,1.12,0.05,1.49,0.16c0.52-0.02,1.11-0.06,1.77-0.14s1.34-0.17,2.03-0.27s1.38-0.21,2.07-0.32
		c0.69-0.11,1.32-0.2,1.9-0.27v-1.81c-1.39,0.17-2.74,0.37-4.07,0.62c-1.33,0.24-2.56,0.52-3.7,0.82c-0.52,0.14-0.98,0.07-1.37-0.21
		c-0.4-0.27-0.66-0.63-0.78-1.07c-0.08-0.26-0.07-0.45,0.02-0.57c0.09-0.12,0.35-0.18,0.78-0.16c1.19,0.03,2.44-0.05,3.76-0.23
		c1.32-0.18,2.62-0.4,3.9-0.66c0.53-0.11,1.05-0.23,1.55-0.38c0.5-0.14,0.99-0.23,1.46-0.26c0.81-0.05,1.19,0.24,1.14,0.85
		c-0.03,0.34-0.15,0.6-0.37,0.8l-0.16,2.13c0.43,0.12,0.64,0.4,0.64,0.82c0,0.24-0.11,0.42-0.33,0.53c-0.22,0.11-0.6,0.19-1.13,0.25
		c-1.3,0.12-2.59,0.27-3.88,0.46c-1.29,0.18-2.61,0.37-3.97,0.55v0.87c0,0.5,0.15,0.81,0.46,0.91s0.79,0.16,1.46,0.16
		c0.61,0,1.23-0.05,1.85-0.15c0.62-0.1,1.23-0.24,1.82-0.41c0.59-0.18,1.14-0.37,1.66-0.59c0.52-0.22,0.98-0.45,1.37-0.67
		s0.75-0.35,1.06-0.38c0.31-0.02,0.54,0.12,0.67,0.42c0.15,0.32,0.1,0.66-0.15,1.02s-0.59,0.64-1.02,0.83
		c-0.56,0.26-1.21,0.49-1.93,0.69c-0.72,0.2-1.45,0.37-2.18,0.51c-0.73,0.14-1.44,0.25-2.12,0.32c-0.68,0.07-1.25,0.09-1.7,0.08
		c-0.58-0.02-1.09-0.06-1.54-0.14c-0.45-0.08-0.83-0.19-1.13-0.35c-0.3-0.16-0.54-0.38-0.71-0.66c-0.17-0.28-0.25-0.65-0.25-1.11
		V278.07z M187.67,266.44c-0.78,0.11-1.56,0.21-2.33,0.32c-0.78,0.11-1.55,0.22-2.33,0.34v1.35c0,0.43,0.08,0.71,0.25,0.86
		c0.17,0.15,0.43,0.22,0.78,0.22c0.52,0,1.09-0.08,1.73-0.25c0.63-0.17,1.27-0.42,1.91-0.75V266.44z M193.25,261.75
		c0-0.26-0.02-0.46-0.05-0.59c-0.03-0.14-0.11-0.24-0.25-0.32c-0.17-0.09-0.32-0.19-0.45-0.31c-0.13-0.11-0.19-0.27-0.19-0.47
		c0-0.21,0.09-0.38,0.26-0.51s0.46-0.19,0.86-0.19c0.5,0,0.9,0.06,1.18,0.18c0.28,0.12,0.5,0.29,0.64,0.49s0.24,0.45,0.27,0.72
		s0.06,0.56,0.06,0.85v2.77c0.17-0.05,0.33-0.09,0.48-0.14c0.15-0.05,0.31-0.11,0.48-0.18c0.55-0.21,1.02-0.32,1.42-0.31
		c0.4,0.01,0.84,0.13,1.33,0.38c0.18,0.09,0.32,0.21,0.41,0.37c0.09,0.15,0.14,0.3,0.14,0.43c0,0.17-0.05,0.31-0.16,0.42
		c-0.11,0.11-0.33,0.19-0.66,0.22c-0.4,0.03-0.9,0.09-1.5,0.17c-0.6,0.08-1.25,0.19-1.93,0.31v1.12c0,0.31-0.02,0.64-0.07,1.01
		c-0.05,0.37-0.13,0.72-0.24,1.05s-0.26,0.61-0.43,0.83c-0.18,0.22-0.38,0.33-0.63,0.33c-0.23,0-0.4-0.06-0.53-0.17
		c-0.12-0.11-0.22-0.25-0.29-0.41c-0.07-0.16-0.11-0.33-0.13-0.53c-0.02-0.19-0.02-0.35-0.02-0.49V261.75z"/>
	<path d="M209.07,262.62c0.66-0.14,1.16-0.14,1.51-0.01c0.35,0.13,0.57,0.35,0.65,0.65c0.08,0.31,0.06,0.68-0.08,1.12
		c-0.14,0.44-0.36,0.91-0.66,1.39c-1.07,1.72-2.33,3.28-3.8,4.67s-3.15,2.65-5.05,3.8c-0.21,0.12-0.42,0.2-0.63,0.23
		c-0.21,0.03-0.35-0.02-0.42-0.16c-0.17-0.29,0.01-0.62,0.53-1.01c0.73-0.56,1.42-1.13,2.06-1.7c0.64-0.57,1.25-1.17,1.82-1.81
		c0.57-0.63,1.11-1.3,1.62-2c0.51-0.7,0.99-1.46,1.45-2.26c0.26-0.47,0.33-0.78,0.21-0.93s-0.4-0.18-0.85-0.1
		c-0.75,0.14-1.41,0.29-2,0.45c-0.59,0.16-1.25,0.34-2,0.54c-0.26,0.08-0.5,0.09-0.73,0.05c-0.23-0.05-0.43-0.13-0.62-0.25
		c-0.18-0.12-0.34-0.28-0.47-0.47c-0.13-0.19-0.24-0.39-0.33-0.61c-0.11-0.26-0.1-0.45,0.02-0.57s0.31-0.18,0.57-0.16
		c1.28,0.05,2.49-0.02,3.64-0.19C206.65,263.09,207.84,262.88,209.07,262.62z M217.3,272.95c-0.02,0.17-0.06,0.33-0.14,0.49
		c-0.08,0.16-0.19,0.29-0.34,0.4v3.57c0,0.3-0.02,0.64-0.07,1.01c-0.05,0.37-0.13,0.72-0.24,1.05c-0.11,0.33-0.26,0.61-0.43,0.83
		c-0.18,0.22-0.39,0.33-0.63,0.33c-0.23,0-0.4-0.06-0.53-0.17s-0.22-0.25-0.29-0.41c-0.07-0.16-0.11-0.34-0.13-0.53
		c-0.02-0.19-0.02-0.35-0.02-0.49v-4.8c-1.34,0.15-2.64,0.34-3.89,0.56c-1.25,0.22-2.42,0.48-3.52,0.77
		c-0.55,0.15-0.99,0.11-1.33-0.14c-0.34-0.24-0.59-0.56-0.78-0.96c-0.17-0.37-0.17-0.62-0.01-0.75c0.16-0.14,0.42-0.19,0.77-0.16
		c0.59,0.03,1.2,0.03,1.83-0.01c0.62-0.04,1.26-0.1,1.9-0.19c0.64-0.09,1.28-0.19,1.93-0.31c0.65-0.11,1.28-0.23,1.91-0.33
		c0.61-0.11,1.12-0.22,1.53-0.34c0.41-0.12,0.85-0.21,1.3-0.25C216.96,272.01,217.35,272.3,217.3,272.95z M214.74,261.75
		c0-0.26-0.02-0.46-0.05-0.59c-0.03-0.14-0.11-0.24-0.25-0.32c-0.17-0.09-0.32-0.19-0.45-0.31c-0.13-0.11-0.19-0.27-0.19-0.47
		c0-0.21,0.09-0.38,0.26-0.51s0.46-0.19,0.86-0.19c0.5,0,0.9,0.06,1.18,0.18c0.28,0.12,0.5,0.29,0.64,0.49s0.24,0.45,0.27,0.72
		s0.06,0.56,0.06,0.85v3.22c0.17-0.05,0.33-0.09,0.48-0.14c0.15-0.05,0.31-0.11,0.48-0.18c0.55-0.21,1.02-0.32,1.42-0.31
		c0.4,0.01,0.84,0.13,1.33,0.38c0.18,0.09,0.32,0.21,0.41,0.37c0.09,0.15,0.14,0.3,0.14,0.43c0,0.17-0.05,0.31-0.16,0.42
		c-0.11,0.11-0.33,0.19-0.66,0.22c-0.4,0.03-0.9,0.09-1.5,0.17c-0.6,0.08-1.25,0.19-1.93,0.31v1.78c0,0.31-0.02,0.64-0.07,1.01
		c-0.05,0.37-0.13,0.72-0.24,1.05c-0.11,0.34-0.26,0.61-0.43,0.83s-0.38,0.33-0.63,0.33c-0.23,0-0.4-0.06-0.53-0.17
		c-0.12-0.11-0.22-0.25-0.29-0.41c-0.07-0.16-0.11-0.34-0.13-0.53c-0.02-0.19-0.02-0.35-0.02-0.49V261.75z"/>
	<path d="M238.2,266.71c-0.31,0.03-0.61,0.07-0.91,0.11c-0.31,0.05-0.6,0.09-0.89,0.14v2.06c0,0.31-0.02,0.64-0.06,1.01
		c-0.04,0.37-0.11,0.72-0.22,1.05c-0.11,0.34-0.24,0.61-0.41,0.83c-0.17,0.22-0.37,0.33-0.62,0.33c-0.27,0-0.48-0.08-0.61-0.25
		c-0.13-0.17-0.21-0.36-0.24-0.57c-0.67,0.26-1.41,0.53-2.23,0.81c-0.82,0.28-1.64,0.55-2.47,0.81c-0.83,0.26-1.65,0.5-2.45,0.72
		c-0.8,0.22-1.52,0.4-2.16,0.54c-0.32,0.08-0.63,0.08-0.94,0.01c-0.31-0.07-0.58-0.17-0.82-0.3c-0.24-0.13-0.46-0.28-0.64-0.46
		c-0.18-0.18-0.31-0.35-0.37-0.51c-0.11-0.27-0.07-0.48,0.1-0.63c0.17-0.14,0.44-0.22,0.79-0.22c0.41,0.02,0.87,0,1.36-0.03
		c0.5-0.04,0.94-0.08,1.34-0.13c0.38-0.05,0.83-0.11,1.35-0.21v-1.62h-0.53c-0.53,0-0.98-0.04-1.33-0.13
		c-0.35-0.08-0.64-0.23-0.86-0.43c-0.22-0.21-0.38-0.48-0.47-0.83s-0.14-0.79-0.14-1.33v-1.35c0-0.26-0.06-0.44-0.17-0.54
		c-0.11-0.1-0.3-0.21-0.56-0.33c-0.2-0.09-0.36-0.19-0.48-0.3c-0.12-0.11-0.18-0.26-0.18-0.46c0-0.21,0.09-0.38,0.26-0.51
		c0.17-0.13,0.46-0.19,0.86-0.19c0.59,0,1.1,0.06,1.51,0.18c0.59-0.08,1.19-0.16,1.78-0.25c0.59-0.09,1.15-0.2,1.67-0.32
		c0.27-0.06,0.53-0.13,0.77-0.21c0.24-0.08,0.46-0.15,0.69-0.22c0.22-0.07,0.45-0.13,0.67-0.17c0.23-0.05,0.48-0.08,0.75-0.09
		c0.35-0.01,0.65,0.07,0.9,0.25c0.25,0.18,0.38,0.47,0.38,0.87c0,0.24-0.11,0.41-0.33,0.5c-0.22,0.09-0.6,0.17-1.13,0.23
		c-0.76,0.08-1.56,0.17-2.39,0.27c-0.83,0.11-1.68,0.22-2.55,0.34c0.03,0.15,0.05,0.28,0.05,0.39v1.88c0,0.43,0.08,0.71,0.25,0.86
		c0.17,0.15,0.43,0.22,0.78,0.22c0.64,0,1.33-0.08,2.06-0.24c0.73-0.16,1.43-0.46,2.08-0.9c0.38-0.26,0.73-0.39,1.05-0.4
		c0.32-0.01,0.54,0.12,0.66,0.38c0.17,0.34,0.15,0.65-0.06,0.94c-0.21,0.29-0.51,0.53-0.9,0.73c-0.41,0.21-0.85,0.39-1.31,0.53
		s-0.93,0.25-1.41,0.34v1.42c0.73-0.17,1.49-0.36,2.29-0.57c0.79-0.21,1.6-0.44,2.42-0.69v-6.68c0-0.49-0.12-0.79-0.37-0.91
		c-0.17-0.09-0.32-0.19-0.45-0.31c-0.13-0.11-0.19-0.27-0.19-0.47c0-0.21,0.09-0.38,0.26-0.51c0.18-0.13,0.46-0.19,0.86-0.19
		c0.5,0,0.89,0.06,1.17,0.18s0.48,0.29,0.62,0.49c0.14,0.21,0.22,0.45,0.25,0.72c0.03,0.27,0.05,0.56,0.05,0.85v2.04
		c0.3-0.03,0.61-0.06,0.9-0.1c0.3-0.04,0.6-0.09,0.9-0.15v-3.27c0-0.26-0.02-0.46-0.06-0.59s-0.13-0.24-0.26-0.32
		c-0.17-0.09-0.32-0.19-0.47-0.31s-0.22-0.27-0.22-0.47c0-0.21,0.09-0.38,0.26-0.51s0.46-0.19,0.86-0.19c0.5,0,0.89,0.06,1.17,0.18
		c0.27,0.12,0.48,0.29,0.62,0.49s0.22,0.45,0.25,0.72c0.03,0.27,0.05,0.56,0.05,0.85v7.71c0,0.31-0.02,0.64-0.06,1.01
		c-0.04,0.37-0.11,0.72-0.22,1.05c-0.11,0.34-0.24,0.61-0.41,0.83c-0.17,0.22-0.37,0.33-0.62,0.33c-0.23,0-0.4-0.06-0.51-0.17
		s-0.2-0.25-0.26-0.41s-0.1-0.33-0.1-0.53c-0.01-0.19-0.01-0.35-0.01-0.49V266.71z M228.53,276.22c0.18-0.33,0.14-0.68-0.14-1.03
		c-0.12-0.17-0.21-0.33-0.27-0.48c-0.06-0.15-0.05-0.31,0.02-0.48c0.09-0.17,0.24-0.29,0.46-0.37c0.21-0.08,0.5-0.03,0.85,0.14
		c0.32,0.14,0.61,0.29,0.87,0.47s0.46,0.38,0.61,0.61c0.14,0.23,0.21,0.48,0.21,0.77c-0.01,0.28-0.13,0.59-0.35,0.93
		c-0.03,0.06-0.06,0.11-0.1,0.16s-0.07,0.09-0.1,0.14c0.02,0.02,0.04,0.02,0.07,0.02c0.35,0.11,0.68,0.21,0.99,0.31
		c0.31,0.1,0.55,0.19,0.72,0.29c0.29,0.17,0.45,0.38,0.48,0.64c0.03,0.26-0.05,0.5-0.25,0.73c-0.26,0.27-0.53,0.4-0.82,0.39
		s-0.59-0.11-0.91-0.3c-0.2-0.12-0.4-0.25-0.62-0.38c-0.21-0.13-0.44-0.26-0.69-0.4c-0.69,0.78-1.41,1.46-2.16,2.04
		c-0.75,0.58-1.53,1.1-2.32,1.58c-0.21,0.12-0.42,0.21-0.63,0.26c-0.21,0.05-0.35,0.03-0.42-0.06c-0.08-0.09-0.08-0.2-0.01-0.32
		c0.07-0.12,0.22-0.29,0.45-0.5c0.49-0.43,0.93-0.84,1.31-1.25c0.39-0.4,0.75-0.81,1.07-1.22c0.33-0.41,0.63-0.84,0.9-1.28
		C228,277.17,228.27,276.71,228.53,276.22z M238.13,275.44c-0.12,0.2-0.24,0.39-0.35,0.57c-0.11,0.18-0.24,0.37-0.38,0.55
		c0.21,0.09,0.41,0.18,0.59,0.26c0.18,0.08,0.35,0.16,0.5,0.22c0.44,0.2,0.91,0.36,1.39,0.48c0.49,0.12,0.97,0.31,1.44,0.57
		c0.35,0.2,0.57,0.44,0.65,0.73c0.08,0.29,0.03,0.56-0.17,0.82c-0.23,0.3-0.52,0.46-0.88,0.47c-0.36,0.01-0.71-0.09-1.04-0.29
		c-0.44-0.26-0.98-0.57-1.61-0.93c-0.63-0.36-1.28-0.71-1.93-1.06c-0.59,0.67-1.25,1.31-1.97,1.92c-0.72,0.61-1.48,1.18-2.29,1.71
		c-0.21,0.14-0.42,0.24-0.61,0.32c-0.19,0.08-0.34,0.06-0.45-0.05c-0.17-0.15-0.04-0.44,0.39-0.87c0.96-0.91,1.8-1.87,2.53-2.86
		s1.35-2.07,1.89-3.22c0.15-0.32,0.11-0.63-0.14-0.94c-0.12-0.17-0.21-0.33-0.27-0.48c-0.06-0.15-0.05-0.33,0.05-0.53
		c0.08-0.15,0.22-0.26,0.43-0.33c0.21-0.07,0.5-0.02,0.85,0.15c0.3,0.14,0.58,0.29,0.83,0.47s0.45,0.38,0.61,0.61
		c0.15,0.23,0.23,0.48,0.23,0.77C238.43,274.8,238.33,275.11,238.13,275.44z"/>
	<path d="M245.68,266.89c0-0.17-0.02-0.3-0.05-0.4s-0.08-0.18-0.14-0.25c-0.06-0.07-0.14-0.12-0.23-0.16s-0.2-0.09-0.32-0.15
		c-0.2-0.09-0.36-0.19-0.48-0.3c-0.12-0.11-0.18-0.26-0.18-0.46c0-0.21,0.09-0.38,0.26-0.51c0.18-0.13,0.46-0.19,0.86-0.19
		c0.59,0,1.1,0.06,1.51,0.18c1.36-0.05,2.71-0.22,4.07-0.53c0.27-0.06,0.53-0.13,0.77-0.21c0.23-0.08,0.46-0.15,0.69-0.22
		c0.22-0.07,0.45-0.13,0.67-0.17c0.23-0.05,0.48-0.08,0.75-0.09c0.35-0.02,0.65,0.07,0.9,0.25s0.38,0.47,0.38,0.87
		c0,0.24-0.11,0.41-0.33,0.5c-0.22,0.09-0.6,0.17-1.13,0.23c-0.92,0.09-1.82,0.2-2.72,0.32s-1.84,0.25-2.81,0.39
		c0.01,0.06,0.02,0.15,0.02,0.25v6.29c0,0.49,0.11,0.83,0.33,1.03c0.22,0.2,0.55,0.3,0.99,0.3c0.88,0,1.82-0.19,2.8-0.57
		c0.98-0.38,1.89-0.87,2.71-1.46c0.35-0.26,0.7-0.41,1.05-0.46c0.35-0.05,0.59,0.08,0.71,0.39c0.08,0.17,0.1,0.34,0.06,0.5
		c-0.04,0.17-0.12,0.33-0.23,0.49c-0.11,0.16-0.26,0.31-0.43,0.45s-0.35,0.26-0.54,0.37c-1.11,0.61-2.28,1.09-3.51,1.45
		c-1.23,0.36-2.38,0.54-3.44,0.54c-0.99,0-1.74-0.22-2.24-0.67c-0.5-0.45-0.75-1.25-0.75-2.39V266.89z M257.73,261.75
		c0-0.26-0.02-0.46-0.04-0.59c-0.03-0.14-0.12-0.24-0.25-0.32c-0.17-0.09-0.32-0.19-0.45-0.31c-0.13-0.11-0.19-0.27-0.19-0.47
		c0-0.21,0.09-0.38,0.26-0.51c0.17-0.13,0.46-0.19,0.86-0.19c0.5,0,0.89,0.06,1.18,0.18c0.28,0.12,0.49,0.29,0.64,0.49
		s0.24,0.45,0.28,0.72c0.04,0.27,0.06,0.56,0.06,0.85v5.74c0.17-0.05,0.33-0.09,0.48-0.14s0.31-0.11,0.48-0.18
		c0.55-0.21,1.02-0.32,1.42-0.31c0.39,0.01,0.84,0.13,1.33,0.38c0.18,0.09,0.32,0.21,0.41,0.37c0.09,0.15,0.14,0.3,0.14,0.43
		c0,0.17-0.05,0.31-0.16,0.42c-0.11,0.11-0.33,0.19-0.66,0.22c-0.4,0.03-0.89,0.09-1.5,0.17c-0.6,0.08-1.25,0.19-1.93,0.31v7.98
		c0,0.3-0.02,0.64-0.07,1.01s-0.12,0.72-0.24,1.05s-0.26,0.61-0.43,0.83c-0.18,0.22-0.39,0.33-0.63,0.33c-0.23,0-0.4-0.06-0.53-0.17
		c-0.12-0.11-0.22-0.25-0.29-0.41c-0.07-0.16-0.11-0.34-0.12-0.53c-0.02-0.19-0.02-0.35-0.02-0.49V261.75z"/>
	<path d="M267.79,271.12c0-0.21-0.08-0.37-0.24-0.46s-0.32-0.18-0.49-0.25c-0.21-0.08-0.38-0.17-0.49-0.29
		c-0.12-0.11-0.17-0.27-0.17-0.47c0-0.21,0.09-0.38,0.26-0.51s0.46-0.19,0.86-0.19c0.15,0,0.3,0,0.43,0.01
		c0.14,0.01,0.27,0.02,0.39,0.03c0.38-0.03,0.81-0.08,1.29-0.14c0.48-0.06,0.98-0.13,1.49-0.22c0.51-0.08,1.01-0.16,1.51-0.24
		s0.94-0.15,1.34-0.23v-3.2c-0.49,0.06-0.92,0.12-1.3,0.18c-0.38,0.06-0.75,0.13-1.12,0.22c-0.37,0.08-0.74,0.18-1.12,0.29
		c-0.38,0.11-0.82,0.23-1.33,0.37c-0.24,0.08-0.51,0.09-0.79,0.05c-0.28-0.05-0.55-0.13-0.8-0.25c-0.25-0.12-0.47-0.27-0.65-0.46
		c-0.18-0.18-0.3-0.38-0.34-0.59c-0.05-0.21-0.02-0.39,0.08-0.53c0.1-0.14,0.32-0.21,0.65-0.21c0.99,0,1.94-0.06,2.84-0.19
		c0.9-0.13,1.88-0.29,2.93-0.47c0.29-0.05,0.54-0.1,0.77-0.17c0.22-0.07,0.43-0.13,0.64-0.19c0.21-0.06,0.42-0.12,0.63-0.17
		c0.21-0.05,0.45-0.09,0.71-0.1c0.37-0.03,0.63,0.03,0.79,0.17c0.16,0.15,0.22,0.42,0.19,0.81c-0.02,0.17-0.06,0.32-0.13,0.47
		c-0.07,0.15-0.17,0.27-0.31,0.38l-0.16,3.45c0.2,0.05,0.36,0.12,0.48,0.23c0.12,0.11,0.18,0.26,0.18,0.46s-0.11,0.39-0.33,0.57
		c-0.22,0.18-0.6,0.31-1.13,0.37c-0.92,0.11-1.78,0.23-2.58,0.35c-0.81,0.13-1.65,0.26-2.51,0.4c0.03,0.15,0.04,0.27,0.04,0.34V273
		c0,0.95,0.44,1.4,1.33,1.35c1.08-0.05,2.05-0.25,2.92-0.63c0.86-0.37,1.7-0.87,2.53-1.5c0.35-0.27,0.71-0.42,1.06-0.42
		c0.36-0.01,0.6,0.14,0.72,0.45c0.08,0.17,0.1,0.33,0.06,0.49s-0.11,0.32-0.23,0.48s-0.26,0.31-0.43,0.46
		c-0.18,0.15-0.35,0.27-0.54,0.38c-1.11,0.64-2.28,1.13-3.5,1.46s-2.36,0.5-3.43,0.5c-0.99,0-1.73-0.22-2.23-0.67
		c-0.5-0.45-0.74-1.25-0.74-2.39V271.12z M280.48,261.75c0-0.26-0.02-0.46-0.05-0.59s-0.11-0.24-0.25-0.32
		c-0.17-0.09-0.32-0.19-0.45-0.31s-0.19-0.27-0.19-0.47c0-0.21,0.09-0.38,0.26-0.51c0.18-0.13,0.46-0.19,0.86-0.19
		c0.5,0,0.9,0.06,1.18,0.18c0.28,0.12,0.5,0.29,0.64,0.49c0.14,0.21,0.24,0.45,0.27,0.72s0.06,0.56,0.06,0.85v15.39
		c0,0.3-0.02,0.64-0.07,1.01s-0.13,0.72-0.24,1.05s-0.26,0.61-0.43,0.83c-0.17,0.22-0.38,0.33-0.63,0.33c-0.23,0-0.4-0.06-0.53-0.17
		s-0.22-0.25-0.29-0.41c-0.07-0.16-0.11-0.34-0.12-0.53c-0.02-0.19-0.02-0.35-0.02-0.49V261.75z"/>
	<path d="M302.68,266.32c0,0.76-0.13,1.45-0.38,2.07c-0.25,0.62-0.59,1.16-1.03,1.64s-0.95,0.87-1.53,1.2
		c-0.59,0.33-1.22,0.58-1.89,0.74v3.38c0.64-0.11,1.25-0.21,1.83-0.31c0.58-0.1,1.12-0.19,1.62-0.29c0.73-0.14,1.49-0.3,2.28-0.5
		c0.79-0.2,1.5-0.31,2.14-0.34c0.88-0.03,1.33,0.27,1.33,0.89c0,0.29-0.11,0.54-0.34,0.74c-0.23,0.21-0.58,0.32-1.05,0.35
		c-0.78,0.06-1.63,0.15-2.55,0.25c-0.92,0.11-1.88,0.23-2.86,0.38c-0.98,0.15-1.97,0.3-2.96,0.46s-1.95,0.33-2.88,0.5
		c-0.93,0.18-1.8,0.35-2.62,0.53s-1.54,0.34-2.16,0.49c-0.37,0.09-0.7,0.12-1.01,0.08s-0.58-0.12-0.81-0.25
		c-0.24-0.13-0.44-0.29-0.61-0.47c-0.17-0.18-0.3-0.37-0.41-0.55c-0.14-0.26-0.15-0.47-0.03-0.64c0.11-0.17,0.36-0.24,0.74-0.21
		c0.38,0.02,0.86,0.01,1.43-0.02c0.57-0.03,1.21-0.08,1.91-0.16s1.45-0.16,2.24-0.26c0.79-0.1,1.59-0.21,2.4-0.33v-3.45
		c-0.81-0.02-1.52-0.14-2.13-0.37c-0.61-0.23-1.12-0.54-1.53-0.94c-0.41-0.4-0.72-0.86-0.93-1.4c-0.21-0.53-0.31-1.12-0.31-1.76
		c0-0.9,0.21-1.71,0.62-2.45c0.41-0.73,0.95-1.35,1.61-1.86c0.66-0.51,1.41-0.9,2.25-1.18c0.84-0.27,1.69-0.41,2.56-0.41
		c0.75,0,1.43,0.1,2.05,0.3c0.62,0.2,1.15,0.48,1.59,0.86c0.44,0.37,0.79,0.84,1.04,1.4C302.56,264.99,302.68,265.62,302.68,266.32z
		 M300.28,266.53c0-0.98-0.28-1.68-0.83-2.13c-0.56-0.44-1.26-0.66-2.12-0.66c-0.53,0-1.06,0.08-1.58,0.24
		c-0.52,0.16-0.98,0.4-1.39,0.72c-0.41,0.32-0.74,0.72-0.99,1.2c-0.25,0.48-0.38,1.04-0.38,1.68c0,0.98,0.28,1.69,0.83,2.14
		c0.56,0.45,1.27,0.67,2.14,0.67c0.53,0,1.06-0.08,1.58-0.25c0.52-0.17,0.98-0.42,1.38-0.74c0.4-0.33,0.73-0.73,0.98-1.21
		C300.16,267.7,300.28,267.15,300.28,266.53z"/>
	<path d="M311.1,276.66c0.46-0.03,0.84,0.09,1.14,0.37c0.3,0.27,0.46,0.64,0.46,1.1c0,0.49-0.15,0.87-0.46,1.15
		c-0.31,0.28-0.69,0.44-1.14,0.47c-0.46,0.03-0.84-0.08-1.15-0.34c-0.31-0.26-0.47-0.63-0.47-1.12c0-0.46,0.16-0.83,0.47-1.13
		C310.25,276.85,310.64,276.69,311.1,276.66z M309.75,264.49c-0.02-0.27-0.01-0.54,0.01-0.81c0.02-0.27,0.08-0.51,0.17-0.73
		c0.09-0.22,0.22-0.4,0.39-0.54c0.17-0.14,0.4-0.21,0.69-0.23c0.3-0.01,0.55,0.04,0.73,0.16c0.18,0.12,0.32,0.29,0.4,0.5
		c0.08,0.21,0.14,0.45,0.16,0.72c0.02,0.27,0.03,0.54,0.01,0.81l-0.48,10.43c-0.01,0.26-0.09,0.46-0.24,0.59
		c-0.14,0.14-0.32,0.21-0.54,0.23c-0.2,0.02-0.36-0.04-0.49-0.16c-0.13-0.12-0.2-0.31-0.22-0.57L309.75,264.49z"/>
	<path d="M317.96,276.66c0.46-0.03,0.84,0.09,1.14,0.37c0.3,0.27,0.46,0.64,0.46,1.1c0,0.49-0.15,0.87-0.46,1.15
		c-0.31,0.28-0.69,0.44-1.14,0.47c-0.46,0.03-0.84-0.08-1.15-0.34c-0.31-0.26-0.47-0.63-0.47-1.12c0-0.46,0.16-0.83,0.47-1.13
		C317.11,276.85,317.5,276.69,317.96,276.66z M316.61,264.49c-0.02-0.27-0.01-0.54,0.01-0.81c0.02-0.27,0.08-0.51,0.17-0.73
		c0.09-0.22,0.22-0.4,0.39-0.54c0.17-0.14,0.4-0.21,0.69-0.23c0.3-0.01,0.55,0.04,0.73,0.16c0.18,0.12,0.32,0.29,0.4,0.5
		c0.08,0.21,0.14,0.45,0.16,0.72c0.02,0.27,0.03,0.54,0.01,0.81l-0.48,10.43c-0.01,0.26-0.09,0.46-0.24,0.59
		c-0.14,0.14-0.32,0.21-0.54,0.23c-0.2,0.02-0.36-0.04-0.49-0.16c-0.13-0.12-0.2-0.31-0.22-0.57L316.61,264.49z"/>
</g>
</svg>
