<?xml version="1.0" encoding="utf-8"?>
<!-- Generator: Adobe Illustrator 29.4.0, SVG Export Plug-In . SVG Version: 9.03 Build 0)  -->
<svg version="1.1" id="레이어_1" xmlns="http://www.w3.org/2000/svg" xmlns:xlink="http://www.w3.org/1999/xlink" x="0px"
	 y="0px" width="500px" height="1000px" viewBox="0 0 500 1000" enable-background="new 0 0 500 1000" xml:space="preserve">
<ellipse fill="#FFFFFF" stroke="#000000" stroke-width="2" stroke-miterlimit="10" cx="250" cy="252.15" rx="123.62" ry="79.47"/>
<g>
	<path d="M195.53,234.73c-0.18,0.45-0.38,0.9-0.6,1.36c-0.22,0.46-0.47,0.91-0.75,1.38c0.32,0.27,0.63,0.52,0.91,0.75
		c0.29,0.23,0.57,0.45,0.85,0.64c0.31,0.22,0.58,0.41,0.81,0.55c0.23,0.14,0.44,0.26,0.63,0.37c0.19,0.11,0.36,0.21,0.52,0.33
		c0.15,0.11,0.31,0.25,0.46,0.42c0.2,0.24,0.28,0.49,0.25,0.76c-0.03,0.27-0.16,0.5-0.4,0.71c-0.2,0.17-0.44,0.26-0.74,0.27
		c-0.29,0.01-0.62-0.17-0.99-0.55c-0.39-0.41-0.86-0.86-1.4-1.37c-0.54-0.5-1.12-1.02-1.76-1.56c-0.63,0.94-1.33,1.86-2.1,2.75
		c-0.77,0.9-1.59,1.72-2.46,2.48c-0.1,0.08-0.23,0.15-0.4,0.21c-0.17,0.06-0.3,0.04-0.4-0.06c-0.11-0.11-0.13-0.25-0.06-0.41
		c0.07-0.16,0.18-0.32,0.34-0.47c0.55-0.62,1.07-1.3,1.57-2.04s0.96-1.51,1.38-2.29c0.42-0.78,0.8-1.57,1.15-2.37
		c0.34-0.79,0.63-1.55,0.87-2.28c0.08-0.25,0.14-0.48,0.16-0.68s-0.05-0.4-0.2-0.6c-0.08-0.11-0.16-0.22-0.23-0.34
		c-0.07-0.11-0.06-0.27,0.02-0.46c0.07-0.15,0.21-0.25,0.41-0.29c0.2-0.04,0.47,0.01,0.79,0.17c0.59,0.27,1.03,0.61,1.31,1.02
		C195.77,233.53,195.79,234.07,195.53,234.73z M199.3,231.78c0-0.45-0.11-0.73-0.34-0.84c-0.15-0.08-0.29-0.18-0.41-0.28
		s-0.18-0.25-0.18-0.43c0-0.2,0.08-0.35,0.24-0.47c0.16-0.12,0.42-0.18,0.79-0.18c0.46,0,0.82,0.06,1.07,0.17s0.44,0.26,0.57,0.45
		c0.13,0.19,0.2,0.41,0.23,0.66c0.03,0.25,0.04,0.51,0.04,0.78v4.4c0.28-0.03,0.56-0.06,0.83-0.09c0.27-0.03,0.55-0.08,0.83-0.14
		v-5.53c0-0.24-0.02-0.42-0.05-0.55c-0.04-0.13-0.12-0.22-0.24-0.29c-0.15-0.08-0.3-0.18-0.43-0.28s-0.2-0.25-0.2-0.43
		c0-0.2,0.08-0.35,0.24-0.47c0.16-0.12,0.42-0.18,0.79-0.18c0.46,0,0.82,0.06,1.07,0.17s0.44,0.26,0.57,0.45
		c0.13,0.19,0.2,0.41,0.23,0.66c0.03,0.25,0.04,0.51,0.04,0.78v14.15c0,0.28-0.02,0.59-0.05,0.93c-0.04,0.34-0.1,0.66-0.2,0.97
		c-0.1,0.31-0.22,0.56-0.38,0.77c-0.15,0.2-0.34,0.3-0.57,0.3c-0.21,0-0.37-0.05-0.47-0.16s-0.19-0.23-0.24-0.38
		c-0.06-0.15-0.09-0.31-0.09-0.48c-0.01-0.18-0.01-0.33-0.01-0.45v-8.41c-0.28,0.03-0.56,0.06-0.84,0.11
		c-0.28,0.04-0.55,0.08-0.82,0.13v5.85c0,0.28-0.02,0.59-0.05,0.93s-0.1,0.66-0.2,0.97c-0.1,0.31-0.22,0.56-0.38,0.77
		c-0.15,0.2-0.34,0.3-0.57,0.3c-0.21,0-0.37-0.05-0.47-0.16c-0.1-0.1-0.19-0.23-0.24-0.38c-0.06-0.15-0.09-0.31-0.09-0.48
		c-0.01-0.18-0.01-0.33-0.01-0.45V231.78z"/>
	<path d="M215.58,237.23c-0.07,0.14-0.13,0.28-0.19,0.41s-0.12,0.26-0.19,0.39c0.45,0.29,0.87,0.56,1.25,0.81
		c0.39,0.25,0.67,0.42,0.85,0.52c0.28,0.15,0.53,0.29,0.76,0.41c0.22,0.12,0.43,0.23,0.62,0.33c0.19,0.1,0.37,0.2,0.55,0.31
		c0.18,0.1,0.36,0.23,0.56,0.37c0.28,0.2,0.42,0.44,0.42,0.72s-0.08,0.52-0.25,0.71c-0.2,0.22-0.45,0.34-0.76,0.34
		c-0.31,0-0.66-0.15-1.05-0.44c-0.2-0.14-0.43-0.32-0.71-0.54c-0.28-0.22-0.59-0.45-0.91-0.69c-0.33-0.25-0.67-0.5-1.03-0.77
		c-0.36-0.27-0.7-0.53-1.04-0.78c-0.63,0.97-1.36,1.85-2.18,2.64c-0.82,0.79-1.71,1.55-2.68,2.26c-0.28,0.21-0.51,0.34-0.68,0.39
		c-0.18,0.05-0.32,0-0.43-0.14c-0.1-0.13-0.1-0.26,0-0.4s0.25-0.29,0.44-0.46c1.04-0.9,1.95-1.95,2.72-3.15
		c0.78-1.21,1.34-2.43,1.69-3.68c0.04-0.15,0.07-0.31,0.08-0.46c0.01-0.15-0.06-0.31-0.21-0.46c-0.11-0.08-0.19-0.17-0.23-0.27
		c-0.25,0.07-0.52,0.14-0.79,0.21c-0.27,0.07-0.56,0.15-0.87,0.23c-0.24,0.07-0.47,0.09-0.69,0.05c-0.22-0.04-0.43-0.11-0.62-0.21
		c-0.19-0.1-0.36-0.24-0.5-0.4c-0.15-0.16-0.26-0.33-0.33-0.52c-0.08-0.22-0.07-0.4,0.03-0.53c0.1-0.13,0.3-0.18,0.58-0.15
		c0.88,0.06,1.77,0.02,2.65-0.1c0.88-0.13,1.8-0.29,2.75-0.48c0.29-0.06,0.55-0.12,0.78-0.18s0.44-0.12,0.64-0.18
		c0.2-0.06,0.41-0.11,0.61-0.16c0.2-0.05,0.42-0.09,0.66-0.14c0.73-0.11,1.07,0.15,1.03,0.8c-0.01,0.22-0.11,0.41-0.28,0.57
		s-0.42,0.25-0.75,0.27c-0.66,0.07-1.23,0.14-1.71,0.21c-0.48,0.07-0.94,0.15-1.36,0.25c0.41,0.24,0.7,0.51,0.87,0.82
		C215.85,236.25,215.81,236.68,215.58,237.23z M217.09,230.9c0,0.46-0.09,0.8-0.27,1.01c-0.18,0.21-0.5,0.35-0.97,0.42
		c-0.49,0.07-0.97,0.14-1.43,0.21c-0.46,0.07-0.98,0.18-1.56,0.34c-0.35,0.1-0.69,0.06-1.01-0.13c-0.32-0.18-0.54-0.41-0.65-0.69
		c-0.15-0.35-0.19-0.58-0.09-0.68c0.09-0.1,0.32-0.16,0.68-0.18c0.71-0.03,1.37-0.08,1.98-0.15c0.6-0.07,1.17-0.17,1.7-0.29
		c0.14-0.03,0.29-0.07,0.46-0.12c0.17-0.05,0.34-0.09,0.53-0.14c0.22-0.06,0.39-0.04,0.48,0.04S217.09,230.75,217.09,230.9z
		 M222.09,230.27c0-0.24-0.01-0.42-0.04-0.55c-0.03-0.13-0.1-0.22-0.23-0.29c-0.15-0.08-0.29-0.18-0.41-0.28s-0.18-0.25-0.18-0.43
		c0-0.2,0.08-0.35,0.24-0.47c0.16-0.12,0.42-0.18,0.79-0.18c0.46,0,0.82,0.06,1.08,0.17c0.26,0.11,0.46,0.26,0.59,0.45
		c0.13,0.19,0.22,0.41,0.25,0.66s0.05,0.51,0.05,0.78v14.15c0,0.28-0.02,0.59-0.06,0.93c-0.04,0.34-0.12,0.66-0.22,0.97
		c-0.11,0.31-0.24,0.56-0.4,0.77c-0.16,0.2-0.35,0.3-0.58,0.3c-0.21,0-0.37-0.05-0.48-0.16s-0.2-0.23-0.26-0.38
		c-0.06-0.15-0.1-0.31-0.12-0.48c-0.01-0.18-0.02-0.33-0.02-0.45V230.27z"/>
	<path d="M228.97,243.69c0.65-0.67,1.26-1.34,1.84-2c0.58-0.66,1.12-1.34,1.63-2.03c0.5-0.69,0.97-1.42,1.41-2.17
		c0.43-0.75,0.83-1.55,1.2-2.41c0.14-0.32,0.19-0.59,0.15-0.81c-0.04-0.22-0.29-0.29-0.74-0.22c-0.59,0.08-1.18,0.2-1.78,0.36
		c-0.6,0.15-1.27,0.33-2.03,0.53c-0.48,0.13-0.87,0.06-1.19-0.19s-0.54-0.58-0.68-0.99c-0.15-0.49,0.06-0.72,0.63-0.67
		c1.09,0.07,2.17,0.02,3.24-0.14c1.07-0.16,2.17-0.36,3.3-0.6c0.6-0.13,1.06-0.13,1.37-0.02c0.31,0.11,0.5,0.3,0.59,0.58
		c0.08,0.27,0.08,0.61-0.02,1.01c-0.1,0.4-0.26,0.82-0.48,1.25c-1.04,2.05-2.19,3.81-3.47,5.3c-1.28,1.49-2.73,2.83-4.35,4.02
		c-0.2,0.15-0.38,0.25-0.54,0.28c-0.16,0.03-0.3,0-0.41-0.12c-0.11-0.13-0.12-0.28-0.03-0.46
		C228.69,244.01,228.82,243.84,228.97,243.69z M241.86,230.27c0-0.24-0.01-0.42-0.04-0.55c-0.03-0.13-0.1-0.22-0.23-0.29
		c-0.15-0.08-0.29-0.18-0.41-0.28s-0.18-0.25-0.18-0.43c0-0.2,0.08-0.35,0.24-0.47c0.16-0.12,0.42-0.18,0.79-0.18
		c0.46,0,0.82,0.06,1.08,0.17c0.26,0.11,0.46,0.26,0.59,0.45c0.13,0.19,0.22,0.41,0.25,0.66s0.05,0.51,0.05,0.78v14.15
		c0,0.28-0.02,0.59-0.06,0.93c-0.04,0.34-0.12,0.66-0.22,0.97c-0.11,0.31-0.24,0.56-0.4,0.77c-0.16,0.2-0.35,0.3-0.58,0.3
		c-0.21,0-0.37-0.05-0.48-0.16s-0.2-0.23-0.26-0.38c-0.06-0.15-0.1-0.31-0.12-0.48c-0.01-0.18-0.02-0.33-0.02-0.45V230.27z"/>
	<path d="M265.01,238.39c-0.71,0.06-1.5,0.13-2.34,0.23c-0.85,0.1-1.72,0.21-2.63,0.33s-1.81,0.25-2.72,0.39
		c-0.91,0.14-1.79,0.29-2.65,0.44s-1.66,0.31-2.41,0.46c-0.75,0.15-1.41,0.3-1.99,0.44c-0.34,0.08-0.65,0.11-0.93,0.07
		s-0.53-0.11-0.75-0.23s-0.4-0.26-0.56-0.43s-0.28-0.34-0.38-0.5c-0.13-0.24-0.14-0.43-0.03-0.59c0.11-0.15,0.33-0.22,0.68-0.19
		c0.39,0.01,0.89,0,1.49-0.03c0.6-0.03,1.27-0.09,2-0.16c0.73-0.07,1.5-0.15,2.32-0.25c0.82-0.1,1.64-0.21,2.45-0.33
		c0.81-0.12,1.6-0.24,2.36-0.36c0.76-0.12,1.45-0.23,2.08-0.35c0.67-0.13,1.37-0.28,2.09-0.46s1.38-0.29,1.97-0.32
		c0.81-0.03,1.22,0.25,1.22,0.82c0,0.27-0.11,0.49-0.32,0.68C265.77,238.25,265.45,238.36,265.01,238.39z M251.75,234.87
		c0-0.22-0.05-0.39-0.16-0.48c-0.11-0.1-0.28-0.18-0.54-0.25c-0.39-0.1-0.59-0.32-0.59-0.65c0-0.2,0.06-0.35,0.19-0.46
		c0.13-0.11,0.37-0.17,0.74-0.17c0.43,0,0.79,0.03,1.05,0.08c0.46,0,1-0.03,1.61-0.08c0.61-0.06,1.24-0.13,1.9-0.21
		c0.66-0.08,1.31-0.18,1.96-0.27c0.64-0.1,1.24-0.19,1.79-0.27v-1.45c-1.23,0.15-2.43,0.34-3.59,0.56
		c-1.16,0.22-2.25,0.47-3.29,0.75c-0.48,0.13-0.9,0.06-1.26-0.19s-0.6-0.58-0.71-0.99c-0.07-0.24-0.06-0.41,0.02-0.53
		c0.08-0.11,0.32-0.16,0.72-0.15c1.09,0.03,2.24-0.05,3.45-0.22c1.21-0.18,2.4-0.38,3.58-0.62c0.49-0.1,0.93-0.21,1.33-0.34
		s0.81-0.2,1.24-0.23c0.74-0.04,1.09,0.22,1.05,0.78c-0.03,0.32-0.15,0.57-0.38,0.76l-0.13,1.68c0.38,0.08,0.57,0.33,0.57,0.74
		c0,0.22-0.1,0.39-0.31,0.48s-0.55,0.18-1.04,0.23c-1.19,0.11-2.35,0.25-3.48,0.42c-1.13,0.17-2.3,0.34-3.52,0.53v0.32
		c0,0.46,0.14,0.74,0.42,0.84c0.28,0.1,0.73,0.15,1.35,0.15c0.56,0,1.12-0.05,1.68-0.14s1.1-0.21,1.63-0.36
		c0.53-0.15,1.02-0.32,1.49-0.52c0.47-0.2,0.89-0.4,1.25-0.61c0.36-0.21,0.69-0.33,0.98-0.35c0.29-0.02,0.49,0.11,0.62,0.39
		c0.14,0.29,0.09,0.61-0.14,0.94c-0.23,0.33-0.54,0.59-0.94,0.77c-0.52,0.24-1.1,0.45-1.76,0.62c-0.65,0.18-1.31,0.33-1.98,0.45
		c-0.67,0.13-1.3,0.22-1.91,0.27c-0.61,0.06-1.12,0.08-1.55,0.06c-0.53-0.01-1.01-0.06-1.42-0.13c-0.41-0.07-0.76-0.18-1.04-0.33
		c-0.28-0.15-0.5-0.35-0.65-0.61s-0.23-0.6-0.23-1.02V234.87z M252.17,246.02c0-0.22-0.05-0.39-0.16-0.48
		c-0.1-0.1-0.28-0.18-0.54-0.25c-0.39-0.1-0.59-0.32-0.59-0.65c0-0.2,0.06-0.35,0.19-0.46c0.13-0.11,0.37-0.17,0.74-0.17
		c0.43,0,0.79,0.03,1.05,0.08c0.46,0,1-0.03,1.61-0.08c0.61-0.06,1.24-0.13,1.9-0.21c0.66-0.08,1.31-0.18,1.96-0.27
		c0.64-0.1,1.24-0.19,1.79-0.27v-1.45c-1.23,0.15-2.43,0.34-3.59,0.56s-2.25,0.47-3.29,0.75c-0.48,0.13-0.9,0.06-1.26-0.19
		c-0.37-0.25-0.6-0.58-0.71-0.99c-0.07-0.24-0.06-0.41,0.02-0.53c0.08-0.11,0.32-0.16,0.71-0.15c1.09,0.03,2.24-0.05,3.45-0.22
		s2.4-0.38,3.58-0.62c0.49-0.1,0.93-0.21,1.32-0.34s0.81-0.2,1.24-0.23c0.74-0.04,1.09,0.22,1.05,0.78
		c-0.03,0.32-0.15,0.57-0.38,0.76l-0.13,1.68c0.38,0.08,0.57,0.33,0.57,0.74c0,0.22-0.1,0.39-0.3,0.48s-0.55,0.18-1.04,0.23
		c-1.19,0.11-2.35,0.25-3.48,0.42c-1.13,0.17-2.3,0.34-3.52,0.5v0.02v0.42c0,0.46,0.14,0.74,0.42,0.84s0.73,0.15,1.35,0.15
		c0.56,0,1.12-0.05,1.68-0.14c0.56-0.09,1.1-0.21,1.63-0.36c0.53-0.15,1.02-0.32,1.49-0.52c0.47-0.2,0.89-0.4,1.25-0.61
		c0.36-0.21,0.69-0.33,0.98-0.35s0.49,0.11,0.62,0.39c0.14,0.29,0.09,0.61-0.14,0.94c-0.23,0.33-0.54,0.59-0.94,0.77
		c-0.52,0.24-1.1,0.44-1.76,0.62c-0.65,0.18-1.31,0.33-1.98,0.45c-0.67,0.13-1.3,0.22-1.91,0.27c-0.61,0.06-1.12,0.08-1.54,0.06
		c-0.53-0.01-1.01-0.06-1.42-0.13s-0.76-0.18-1.04-0.33c-0.28-0.15-0.5-0.35-0.65-0.61c-0.16-0.26-0.23-0.6-0.23-1.02V246.02z"/>
	<path d="M282.8,234.85c-0.74,0.07-1.45,0.15-2.13,0.24c-0.68,0.09-1.34,0.2-1.98,0.32c-0.64,0.12-1.26,0.25-1.88,0.38
		s-1.24,0.28-1.87,0.45c-0.48,0.13-0.9,0.06-1.26-0.19c-0.37-0.25-0.6-0.58-0.72-0.99c-0.13-0.45,0.08-0.65,0.63-0.61
		c0.84,0.07,1.78,0.02,2.81-0.14s2.21-0.37,3.54-0.62c0.49-0.1,0.98-0.21,1.47-0.34c0.49-0.13,0.94-0.22,1.35-0.29
		c0.76-0.13,1.12,0.14,1.07,0.8c-0.03,0.24-0.12,0.46-0.28,0.65S283.14,234.82,282.8,234.85z M274.88,240.38
		c0-0.5,0.09-0.99,0.28-1.45c0.19-0.46,0.46-0.88,0.81-1.25c0.35-0.37,0.77-0.68,1.26-0.92c0.49-0.24,1.04-0.39,1.64-0.46
		c0.6-0.07,1.15-0.04,1.65,0.08c0.5,0.13,0.92,0.33,1.27,0.61c0.35,0.28,0.62,0.63,0.81,1.05c0.19,0.42,0.28,0.88,0.28,1.39
		s-0.09,0.99-0.28,1.46c-0.19,0.47-0.46,0.89-0.8,1.27c-0.34,0.38-0.76,0.7-1.26,0.96c-0.5,0.26-1.05,0.42-1.67,0.49
		c-0.62,0.07-1.17,0.04-1.66-0.1c-0.49-0.14-0.91-0.36-1.25-0.65s-0.61-0.66-0.8-1.08C274.97,241.35,274.88,240.89,274.88,240.38z
		 M281.21,231.42c0,0.46-0.09,0.8-0.27,1.01c-0.18,0.21-0.5,0.35-0.97,0.42c-0.49,0.07-0.94,0.13-1.35,0.19
		c-0.41,0.06-0.81,0.14-1.2,0.25c-0.35,0.1-0.69,0.06-1.01-0.13s-0.54-0.41-0.65-0.69c-0.15-0.35-0.19-0.58-0.09-0.68
		c0.09-0.11,0.32-0.16,0.68-0.18c0.35-0.01,0.67-0.03,0.95-0.05s0.55-0.05,0.8-0.07c0.25-0.03,0.5-0.06,0.74-0.1
		s0.49-0.08,0.76-0.13c0.14-0.03,0.29-0.06,0.46-0.09c0.17-0.04,0.34-0.07,0.53-0.12c0.22-0.06,0.38-0.05,0.48,0.03
		C281.16,231.16,281.21,231.27,281.21,231.42z M277,240.17c0,0.63,0.17,1.11,0.49,1.45s0.77,0.47,1.33,0.4
		c0.59-0.07,1.06-0.33,1.41-0.77c0.35-0.44,0.53-0.98,0.53-1.61s-0.16-1.1-0.47-1.42s-0.77-0.44-1.38-0.37
		c-0.63,0.07-1.11,0.31-1.43,0.73S277,239.53,277,240.17z M284.26,231.78c0-0.45-0.11-0.73-0.34-0.84
		c-0.16-0.08-0.29-0.18-0.41-0.28s-0.18-0.25-0.18-0.43c0-0.2,0.08-0.35,0.24-0.47c0.16-0.12,0.42-0.18,0.79-0.18
		c0.46,0,0.82,0.06,1.07,0.17s0.44,0.26,0.57,0.45c0.13,0.19,0.2,0.41,0.23,0.66s0.04,0.51,0.04,0.78v4.4
		c0.28-0.03,0.56-0.06,0.83-0.09c0.27-0.03,0.55-0.08,0.83-0.14v-5.53c0-0.24-0.02-0.42-0.05-0.55c-0.04-0.13-0.12-0.22-0.24-0.29
		c-0.15-0.08-0.3-0.18-0.43-0.28c-0.13-0.1-0.2-0.25-0.2-0.43c0-0.2,0.08-0.35,0.24-0.47c0.16-0.12,0.42-0.18,0.79-0.18
		c0.46,0,0.82,0.06,1.07,0.17c0.25,0.11,0.44,0.26,0.57,0.45c0.13,0.19,0.2,0.41,0.23,0.66c0.03,0.25,0.04,0.51,0.04,0.78v14.15
		c0,0.28-0.02,0.59-0.05,0.93c-0.04,0.34-0.1,0.66-0.2,0.97c-0.1,0.31-0.22,0.56-0.38,0.77c-0.15,0.2-0.34,0.3-0.57,0.3
		c-0.21,0-0.37-0.05-0.47-0.16s-0.19-0.23-0.24-0.38c-0.06-0.15-0.09-0.31-0.09-0.48s-0.01-0.33-0.01-0.45v-8.41
		c-0.28,0.03-0.56,0.06-0.84,0.11c-0.28,0.04-0.55,0.08-0.82,0.13v5.85c0,0.28-0.02,0.59-0.05,0.93c-0.04,0.34-0.1,0.66-0.2,0.97
		c-0.1,0.31-0.22,0.56-0.38,0.77c-0.15,0.2-0.34,0.3-0.57,0.3c-0.21,0-0.37-0.05-0.47-0.16c-0.1-0.1-0.19-0.23-0.24-0.38
		c-0.06-0.15-0.09-0.31-0.09-0.48c-0.01-0.18-0.01-0.33-0.01-0.45V231.78z"/>
	<path d="M300.89,234.56c-0.17,0.41-0.36,0.83-0.57,1.26c-0.21,0.44-0.45,0.88-0.71,1.33c0.43,0.38,0.85,0.73,1.24,1.06
		c0.39,0.33,0.77,0.62,1.13,0.87c0.31,0.22,0.58,0.41,0.81,0.55c0.23,0.14,0.44,0.26,0.63,0.37c0.19,0.11,0.36,0.21,0.52,0.33
		s0.31,0.25,0.46,0.42c0.2,0.24,0.28,0.49,0.25,0.76s-0.16,0.5-0.4,0.71c-0.2,0.17-0.44,0.26-0.74,0.27
		c-0.29,0.01-0.62-0.17-0.99-0.55c-0.45-0.48-1-1.01-1.66-1.6s-1.37-1.2-2.12-1.83c-0.67,1-1.42,1.96-2.25,2.9
		c-0.83,0.94-1.68,1.81-2.57,2.61c-0.1,0.08-0.23,0.15-0.4,0.21c-0.17,0.06-0.3,0.04-0.4-0.06c-0.11-0.11-0.13-0.25-0.06-0.41
		c0.07-0.16,0.18-0.32,0.34-0.47c0.55-0.62,1.08-1.3,1.6-2.06c0.52-0.76,1-1.54,1.45-2.34c0.45-0.81,0.85-1.62,1.22-2.43
		c0.36-0.81,0.67-1.58,0.9-2.31c0.08-0.25,0.14-0.48,0.16-0.68c0.02-0.2-0.04-0.4-0.2-0.6c-0.08-0.11-0.16-0.22-0.23-0.34
		s-0.06-0.27,0.02-0.46c0.07-0.15,0.21-0.25,0.41-0.29s0.47,0.01,0.79,0.17c0.59,0.27,1.03,0.61,1.31,1.02
		C301.12,233.36,301.14,233.9,300.89,234.56z M307.26,236.56c-0.18,0.04-0.35,0.08-0.49,0.13c-0.15,0.04-0.28,0.08-0.39,0.13
		c-0.24,0.1-0.48,0.19-0.71,0.26s-0.48,0.13-0.73,0.15s-0.5,0-0.76-0.05c-0.26-0.06-0.52-0.18-0.79-0.36
		c-0.34-0.22-0.5-0.45-0.5-0.67c0-0.28,0.18-0.45,0.55-0.5c0.49-0.07,1.08-0.15,1.76-0.25s1.37-0.2,2.07-0.32v-4.79
		c0-0.24-0.01-0.42-0.04-0.55c-0.03-0.13-0.1-0.22-0.23-0.29c-0.15-0.08-0.29-0.18-0.41-0.28c-0.12-0.1-0.18-0.25-0.18-0.43
		c0-0.2,0.08-0.35,0.24-0.47c0.16-0.12,0.42-0.18,0.79-0.18c0.46,0,0.82,0.06,1.08,0.17c0.26,0.11,0.46,0.26,0.59,0.45
		c0.13,0.19,0.22,0.41,0.25,0.66s0.05,0.51,0.05,0.78v14.15c0,0.28-0.02,0.59-0.06,0.93c-0.04,0.34-0.12,0.66-0.22,0.97
		c-0.11,0.31-0.24,0.56-0.4,0.77c-0.16,0.2-0.35,0.3-0.58,0.3c-0.21,0-0.37-0.05-0.48-0.16c-0.11-0.1-0.2-0.23-0.26-0.38
		c-0.06-0.15-0.1-0.31-0.12-0.48c-0.01-0.18-0.02-0.33-0.02-0.45V236.56z"/>
	<path d="M159.79,259.79c-0.17,0.41-0.36,0.83-0.57,1.26c-0.21,0.44-0.45,0.88-0.71,1.33c0.43,0.38,0.85,0.73,1.24,1.06
		c0.39,0.33,0.77,0.62,1.14,0.87c0.31,0.22,0.58,0.41,0.81,0.55c0.23,0.14,0.44,0.26,0.63,0.37c0.19,0.11,0.36,0.21,0.52,0.33
		c0.15,0.11,0.31,0.25,0.46,0.42c0.2,0.24,0.28,0.49,0.25,0.76c-0.03,0.27-0.16,0.5-0.4,0.71c-0.2,0.17-0.44,0.26-0.74,0.27
		c-0.29,0.01-0.62-0.17-0.99-0.55c-0.45-0.48-1-1.01-1.66-1.6c-0.66-0.59-1.37-1.2-2.12-1.83c-0.67,1-1.42,1.96-2.25,2.9
		c-0.83,0.94-1.68,1.81-2.57,2.61c-0.1,0.08-0.23,0.15-0.4,0.21c-0.17,0.06-0.3,0.04-0.4-0.06c-0.11-0.11-0.13-0.25-0.06-0.41
		c0.07-0.16,0.18-0.32,0.34-0.47c0.55-0.62,1.08-1.3,1.6-2.06c0.52-0.76,1-1.54,1.45-2.34s0.85-1.62,1.22-2.43
		c0.36-0.81,0.67-1.58,0.9-2.31c0.08-0.25,0.14-0.48,0.16-0.68c0.02-0.2-0.05-0.4-0.2-0.6c-0.08-0.11-0.16-0.22-0.23-0.34
		s-0.06-0.27,0.02-0.46c0.07-0.15,0.21-0.25,0.41-0.29s0.47,0.01,0.79,0.17c0.59,0.27,1.03,0.61,1.31,1.02
		C160.02,258.6,160.04,259.13,159.79,259.79z M165.21,255.5c0-0.24-0.01-0.42-0.04-0.55c-0.03-0.13-0.1-0.22-0.23-0.29
		c-0.15-0.08-0.29-0.18-0.41-0.28c-0.12-0.1-0.18-0.25-0.18-0.43c0-0.2,0.08-0.35,0.24-0.47c0.16-0.12,0.42-0.18,0.79-0.18
		c0.46,0,0.82,0.06,1.08,0.17c0.26,0.11,0.46,0.26,0.59,0.45c0.13,0.19,0.22,0.41,0.25,0.66c0.03,0.25,0.05,0.51,0.05,0.78v5.28
		c0.15-0.04,0.3-0.08,0.44-0.13c0.14-0.04,0.29-0.1,0.44-0.17c0.5-0.2,0.94-0.29,1.3-0.28c0.36,0.01,0.77,0.12,1.22,0.35
		c0.17,0.08,0.29,0.2,0.38,0.34c0.08,0.14,0.13,0.27,0.13,0.4c0,0.15-0.05,0.28-0.15,0.39c-0.1,0.11-0.3,0.17-0.61,0.2
		c-0.36,0.03-0.82,0.08-1.38,0.16c-0.55,0.08-1.15,0.17-1.78,0.28v7.34c0,0.28-0.02,0.59-0.06,0.93c-0.04,0.34-0.12,0.66-0.22,0.97
		c-0.1,0.31-0.24,0.56-0.4,0.77c-0.16,0.2-0.35,0.3-0.58,0.3c-0.21,0-0.37-0.05-0.48-0.16c-0.11-0.1-0.2-0.23-0.26-0.38
		c-0.06-0.15-0.1-0.31-0.12-0.48c-0.01-0.18-0.02-0.33-0.02-0.45V255.5z"/>
	<path d="M174.04,262.3c0-0.2-0.07-0.34-0.22-0.42c-0.15-0.08-0.3-0.16-0.45-0.23c-0.2-0.07-0.35-0.16-0.45-0.26
		c-0.1-0.11-0.16-0.25-0.16-0.43c0-0.2,0.08-0.35,0.24-0.47s0.42-0.18,0.79-0.18c0.14,0,0.27,0,0.4,0.01
		c0.13,0.01,0.25,0.02,0.36,0.03c0.35-0.03,0.75-0.07,1.19-0.13s0.9-0.12,1.37-0.2c0.47-0.08,0.93-0.15,1.39-0.22
		c0.46-0.07,0.87-0.14,1.23-0.21v-2.08c-0.45,0.06-0.85,0.11-1.2,0.17c-0.35,0.06-0.69,0.12-1.03,0.2
		c-0.34,0.08-0.68,0.17-1.03,0.26c-0.35,0.1-0.76,0.21-1.22,0.34c-0.22,0.07-0.47,0.08-0.73,0.04c-0.26-0.04-0.5-0.12-0.74-0.23
		c-0.23-0.11-0.43-0.25-0.6-0.42c-0.17-0.17-0.27-0.35-0.32-0.55c-0.04-0.2-0.02-0.36,0.07-0.48c0.09-0.13,0.29-0.19,0.6-0.19
		c0.91,0,1.78-0.06,2.61-0.18c0.83-0.12,1.72-0.26,2.69-0.43c0.27-0.04,0.5-0.09,0.7-0.16s0.4-0.12,0.59-0.18
		c0.19-0.06,0.38-0.11,0.58-0.16c0.2-0.05,0.41-0.08,0.65-0.09c0.34-0.03,0.58,0.02,0.73,0.16c0.15,0.13,0.21,0.38,0.18,0.75
		c-0.01,0.15-0.05,0.3-0.12,0.43s-0.16,0.25-0.28,0.35l-0.13,2.31c0.17,0.04,0.31,0.11,0.42,0.21s0.17,0.24,0.17,0.42
		c0,0.18-0.1,0.36-0.31,0.53c-0.2,0.17-0.55,0.28-1.04,0.34c-0.84,0.1-1.63,0.21-2.38,0.33c-0.74,0.12-1.51,0.24-2.31,0.37
		c0.03,0.14,0.04,0.25,0.04,0.32v0.76c0,0.87,0.41,1.28,1.22,1.24c1-0.04,1.89-0.23,2.68-0.58c0.79-0.34,1.57-0.8,2.32-1.38
		c0.32-0.25,0.65-0.38,0.98-0.39c0.33-0.01,0.55,0.13,0.66,0.41c0.07,0.15,0.09,0.31,0.05,0.45c-0.04,0.15-0.11,0.29-0.21,0.44
		c-0.1,0.15-0.24,0.29-0.4,0.42c-0.16,0.13-0.33,0.25-0.49,0.35c-1.02,0.59-2.1,1.04-3.22,1.35c-1.12,0.31-2.17,0.46-3.15,0.46
		c-0.91,0-1.6-0.21-2.05-0.62c-0.46-0.41-0.68-1.15-0.68-2.2V262.3z M185.63,272.39c-0.18,0-0.33-0.04-0.44-0.13
		c-0.11-0.08-0.2-0.19-0.27-0.32c-0.41,0.18-0.84,0.34-1.29,0.47s-0.9,0.24-1.33,0.33c-0.44,0.08-0.85,0.15-1.24,0.19
		c-0.39,0.04-0.72,0.06-0.99,0.04c-0.49-0.01-0.94-0.06-1.35-0.14c-0.41-0.08-0.76-0.21-1.05-0.4c-0.29-0.19-0.53-0.45-0.69-0.78
		c-0.17-0.33-0.25-0.76-0.25-1.29v-1.58c0-0.22-0.01-0.37-0.04-0.44c-0.03-0.07-0.11-0.14-0.23-0.21c-0.15-0.08-0.29-0.18-0.41-0.27
		c-0.12-0.1-0.18-0.24-0.18-0.42c0-0.2,0.08-0.35,0.24-0.47s0.42-0.18,0.79-0.18c0.49,0,0.9,0.07,1.22,0.21
		c0.43-0.03,0.91-0.07,1.43-0.14c0.52-0.06,1.03-0.13,1.55-0.21s1-0.16,1.45-0.24c0.46-0.08,0.84-0.16,1.17-0.23
		c0.43-0.11,0.82-0.23,1.16-0.37c0.34-0.13,0.69-0.21,1.07-0.22c0.43-0.01,0.77,0.07,1.02,0.25s0.38,0.46,0.39,0.82
		c0,0.27-0.15,0.45-0.44,0.55v2.42c0,0.32-0.02,0.65-0.06,0.98c-0.04,0.33-0.12,0.62-0.22,0.88s-0.24,0.47-0.4,0.64
		C186.05,272.31,185.85,272.39,185.63,272.39z M179.87,268.27c-0.17,0.03-0.33,0.06-0.49,0.08c-0.16,0.03-0.32,0.06-0.47,0.08v0.21
		v1.77c0,0.22,0.04,0.4,0.13,0.54c0.08,0.13,0.2,0.24,0.36,0.32c0.15,0.08,0.34,0.13,0.56,0.15c0.22,0.02,0.46,0.03,0.73,0.03
		c0.66,0,1.35-0.09,2.07-0.28c0.72-0.19,1.39-0.42,2.01-0.7v-2.88c-0.74,0.1-1.53,0.21-2.37,0.33S180.71,268.14,179.87,268.27z
		 M184.98,255.5c0-0.24-0.01-0.42-0.04-0.55c-0.03-0.13-0.1-0.22-0.23-0.29c-0.15-0.08-0.29-0.18-0.41-0.28
		c-0.12-0.1-0.18-0.25-0.18-0.43c0-0.2,0.08-0.35,0.24-0.47c0.16-0.12,0.42-0.18,0.79-0.18c0.46,0,0.82,0.06,1.08,0.17
		c0.26,0.11,0.46,0.26,0.59,0.45c0.13,0.19,0.22,0.41,0.25,0.66c0.03,0.25,0.05,0.51,0.05,0.78v2.96c0.15-0.04,0.3-0.08,0.44-0.13
		c0.14-0.04,0.29-0.1,0.44-0.17c0.5-0.2,0.94-0.29,1.3-0.28c0.36,0.01,0.77,0.12,1.22,0.35c0.17,0.08,0.29,0.2,0.38,0.34
		c0.08,0.14,0.13,0.27,0.13,0.4c0,0.15-0.05,0.28-0.15,0.39c-0.1,0.1-0.3,0.17-0.61,0.2c-0.36,0.03-0.82,0.08-1.38,0.16
		c-0.55,0.08-1.15,0.17-1.78,0.28v2.29c0,0.28-0.02,0.59-0.06,0.93s-0.12,0.66-0.22,0.97c-0.1,0.31-0.24,0.56-0.4,0.77
		c-0.16,0.2-0.35,0.3-0.58,0.3c-0.21,0-0.37-0.05-0.48-0.16c-0.11-0.1-0.2-0.23-0.26-0.38c-0.06-0.15-0.1-0.31-0.12-0.48
		c-0.01-0.18-0.02-0.33-0.02-0.45V255.5z"/>
	<path d="M209.29,263.26c-0.71,0.06-1.5,0.13-2.34,0.23c-0.85,0.1-1.72,0.21-2.63,0.35c-0.9,0.13-1.81,0.27-2.72,0.42
		c-0.91,0.15-1.79,0.3-2.65,0.46c-0.86,0.16-1.66,0.32-2.41,0.48c-0.75,0.16-1.41,0.31-1.99,0.45c-0.34,0.08-0.65,0.11-0.93,0.07
		c-0.28-0.03-0.53-0.11-0.75-0.23c-0.22-0.12-0.4-0.26-0.56-0.43c-0.15-0.17-0.28-0.34-0.38-0.5c-0.13-0.24-0.14-0.43-0.03-0.59
		c0.11-0.15,0.33-0.22,0.68-0.19c0.39,0.01,0.89,0,1.49-0.03c0.6-0.03,1.27-0.09,2-0.18c0.73-0.08,1.5-0.18,2.32-0.28
		c0.82-0.1,1.64-0.22,2.45-0.35c0.81-0.13,1.6-0.25,2.35-0.38c0.76-0.13,1.45-0.25,2.08-0.36c0.67-0.13,1.37-0.28,2.09-0.46
		c0.72-0.18,1.38-0.29,1.97-0.32c0.81-0.03,1.22,0.25,1.22,0.82c0,0.27-0.1,0.49-0.32,0.68
		C210.05,263.13,209.72,263.24,209.29,263.26z M195.47,257.4c0-0.22-0.01-0.37-0.04-0.44c-0.03-0.07-0.1-0.14-0.23-0.21
		c-0.15-0.08-0.29-0.17-0.41-0.27c-0.12-0.1-0.18-0.24-0.18-0.42c0-0.2,0.08-0.35,0.24-0.47c0.16-0.12,0.42-0.18,0.79-0.18
		c0.48,0,0.87,0.07,1.18,0.21c0.45-0.03,0.95-0.07,1.5-0.14c0.55-0.06,1.11-0.14,1.67-0.22c0.56-0.08,1.09-0.17,1.6-0.25
		c0.5-0.08,0.93-0.17,1.26-0.25c0.43-0.11,0.82-0.23,1.16-0.37c0.34-0.13,0.69-0.21,1.07-0.22c0.43-0.01,0.77,0.07,1.02,0.25
		s0.38,0.46,0.39,0.82c0,0.22-0.1,0.39-0.3,0.48c-0.2,0.1-0.55,0.18-1.04,0.25c-0.83,0.11-1.8,0.25-2.91,0.42
		c-1.11,0.17-2.22,0.34-3.31,0.5c-0.22,0.03-0.44,0.06-0.65,0.09c-0.21,0.04-0.41,0.07-0.61,0.12v0.15v1.81
		c0,0.22,0.04,0.4,0.13,0.54s0.2,0.24,0.36,0.32c0.15,0.08,0.34,0.13,0.56,0.15c0.22,0.02,0.46,0.03,0.73,0.03
		c0.56,0,1.13-0.05,1.71-0.14c0.58-0.09,1.15-0.21,1.69-0.36s1.07-0.32,1.56-0.52s0.92-0.4,1.28-0.61s0.69-0.33,0.98-0.35
		c0.29-0.02,0.49,0.11,0.62,0.39c0.14,0.29,0.09,0.61-0.14,0.94c-0.23,0.33-0.54,0.59-0.94,0.77c-0.52,0.24-1.11,0.45-1.79,0.63
		s-1.35,0.33-2.04,0.45c-0.69,0.12-1.35,0.21-1.98,0.27c-0.63,0.06-1.16,0.08-1.58,0.05c-0.49-0.01-0.94-0.06-1.35-0.14
		c-0.41-0.08-0.76-0.21-1.05-0.4c-0.29-0.19-0.53-0.45-0.69-0.78c-0.17-0.33-0.25-0.76-0.25-1.29V257.4z M196.44,271.15
		c0-0.22-0.05-0.39-0.16-0.48c-0.11-0.1-0.28-0.18-0.54-0.25c-0.39-0.1-0.59-0.32-0.59-0.65c0-0.2,0.06-0.35,0.19-0.46
		s0.37-0.17,0.74-0.17c0.43,0,0.79,0.03,1.05,0.08c0.46,0,1-0.03,1.61-0.08c0.61-0.06,1.24-0.13,1.9-0.21
		c0.66-0.08,1.31-0.18,1.96-0.27s1.24-0.19,1.79-0.27v-1.56c-1.23,0.15-2.43,0.34-3.59,0.56c-1.16,0.22-2.25,0.47-3.29,0.75
		c-0.48,0.13-0.9,0.06-1.26-0.19c-0.36-0.25-0.6-0.58-0.71-0.99c-0.07-0.24-0.06-0.41,0.02-0.53c0.08-0.11,0.32-0.16,0.71-0.15
		c1.09,0.03,2.24-0.05,3.45-0.22c1.21-0.18,2.4-0.38,3.58-0.62c0.49-0.1,0.93-0.21,1.32-0.34c0.39-0.13,0.81-0.2,1.24-0.23
		c0.74-0.04,1.09,0.22,1.05,0.78c-0.03,0.32-0.15,0.58-0.38,0.76l-0.13,1.79c0.38,0.08,0.57,0.33,0.57,0.74
		c0,0.22-0.1,0.39-0.31,0.48c-0.2,0.1-0.55,0.18-1.04,0.23c-1.19,0.11-2.35,0.25-3.48,0.42c-1.13,0.17-2.3,0.34-3.52,0.5v0.02v0.53
		c0,0.46,0.14,0.74,0.42,0.84c0.28,0.1,0.73,0.15,1.35,0.15c0.56,0,1.12-0.05,1.68-0.14c0.56-0.09,1.1-0.21,1.63-0.36
		c0.53-0.15,1.02-0.32,1.49-0.52c0.47-0.2,0.89-0.4,1.25-0.61c0.36-0.21,0.69-0.33,0.98-0.35c0.29-0.02,0.49,0.11,0.62,0.39
		c0.14,0.29,0.09,0.61-0.14,0.94s-0.54,0.59-0.94,0.77c-0.52,0.24-1.1,0.44-1.76,0.62c-0.65,0.18-1.31,0.33-1.98,0.45
		c-0.67,0.13-1.3,0.22-1.91,0.27c-0.61,0.06-1.12,0.08-1.55,0.06c-0.53-0.01-1.01-0.06-1.42-0.13s-0.76-0.18-1.04-0.33
		c-0.28-0.15-0.5-0.35-0.65-0.61c-0.15-0.26-0.23-0.6-0.23-1.02V271.15z"/>
	<path d="M222.52,262.06c0,0.73-0.15,1.41-0.44,2.05c-0.29,0.64-0.69,1.2-1.2,1.67c-0.5,0.48-1.09,0.85-1.76,1.12
		s-1.36,0.41-2.09,0.41c-0.63,0-1.21-0.1-1.72-0.29c-0.52-0.2-0.97-0.47-1.35-0.83c-0.38-0.36-0.67-0.79-0.88-1.3
		c-0.21-0.51-0.32-1.08-0.32-1.69c0-0.74,0.15-1.43,0.45-2.05c0.3-0.62,0.71-1.16,1.23-1.62c0.52-0.46,1.11-0.81,1.78-1.07
		c0.67-0.26,1.37-0.39,2.11-0.39c0.62,0,1.18,0.09,1.69,0.27c0.51,0.18,0.95,0.45,1.33,0.8c0.37,0.35,0.66,0.77,0.86,1.26
		C222.41,260.89,222.52,261.45,222.52,262.06z M217.68,259.79c-0.36,0.04-0.71,0.14-1.03,0.31c-0.32,0.16-0.61,0.38-0.85,0.64
		c-0.25,0.27-0.44,0.59-0.59,0.97c-0.15,0.38-0.22,0.81-0.22,1.3c0,0.48,0.07,0.88,0.21,1.21c0.14,0.33,0.33,0.6,0.57,0.8
		s0.52,0.34,0.83,0.41c0.32,0.07,0.65,0.08,1,0.04c0.35-0.04,0.69-0.14,1.02-0.29c0.33-0.15,0.62-0.36,0.86-0.63
		c0.25-0.27,0.44-0.59,0.59-0.97c0.15-0.38,0.22-0.81,0.22-1.3c0-0.46-0.07-0.86-0.21-1.2s-0.33-0.61-0.57-0.81
		c-0.24-0.2-0.52-0.34-0.83-0.42S218.03,259.75,217.68,259.79z M225.67,255.5c0-0.24-0.01-0.42-0.04-0.55
		c-0.03-0.13-0.1-0.22-0.23-0.29c-0.15-0.08-0.29-0.18-0.41-0.28s-0.18-0.25-0.18-0.43c0-0.2,0.08-0.35,0.24-0.47
		c0.16-0.12,0.42-0.18,0.79-0.18c0.46,0,0.82,0.06,1.08,0.17c0.26,0.11,0.46,0.26,0.59,0.45c0.13,0.19,0.22,0.41,0.25,0.66
		s0.05,0.51,0.05,0.78v14.15c0,0.28-0.02,0.59-0.06,0.93c-0.04,0.34-0.12,0.66-0.22,0.97c-0.11,0.31-0.24,0.56-0.4,0.77
		c-0.16,0.2-0.35,0.3-0.58,0.3c-0.21,0-0.37-0.05-0.48-0.16s-0.2-0.23-0.26-0.38c-0.06-0.15-0.1-0.31-0.12-0.48
		c-0.01-0.18-0.02-0.33-0.02-0.45V255.5z"/>
	<path d="M250.17,267.45c-0.73,0.27-1.59,0.56-2.58,0.88c-0.99,0.32-1.99,0.63-3,0.94c-1.01,0.3-1.97,0.58-2.88,0.82
		c-0.91,0.25-1.66,0.42-2.25,0.52c-0.29,0.04-0.58,0.03-0.86-0.02c-0.28-0.06-0.54-0.14-0.77-0.26c-0.23-0.12-0.43-0.26-0.59-0.41
		c-0.16-0.15-0.27-0.31-0.33-0.46c-0.1-0.25-0.07-0.44,0.09-0.58s0.4-0.2,0.73-0.2c0.39,0.01,0.81,0,1.26-0.03
		c0.45-0.03,0.85-0.07,1.22-0.12c0.27-0.03,0.59-0.07,0.97-0.14c0.38-0.06,0.81-0.14,1.28-0.24v-1.47c-0.91-0.04-1.63-0.28-2.17-0.7
		s-0.8-1-0.8-1.71c0-0.42,0.1-0.82,0.29-1.2c0.2-0.38,0.47-0.72,0.83-1.01s0.79-0.54,1.28-0.75s1.05-0.34,1.67-0.41
		c0.6-0.08,1.16-0.08,1.66,0c0.5,0.08,0.93,0.23,1.28,0.44c0.35,0.21,0.62,0.48,0.82,0.82s0.29,0.71,0.29,1.14
		c0,0.73-0.27,1.37-0.81,1.91c-0.54,0.55-1.27,0.95-2.18,1.2v1.24c0.93-0.22,1.86-0.46,2.82-0.72c0.95-0.25,1.85-0.51,2.69-0.78
		V255.5c0-0.24-0.01-0.42-0.04-0.55c-0.03-0.13-0.1-0.22-0.23-0.29c-0.15-0.08-0.29-0.18-0.41-0.28c-0.12-0.1-0.18-0.25-0.18-0.43
		c0-0.2,0.08-0.35,0.24-0.47c0.16-0.12,0.42-0.18,0.79-0.18c0.46,0,0.82,0.06,1.08,0.17s0.46,0.26,0.59,0.45
		c0.13,0.19,0.22,0.41,0.25,0.66s0.05,0.51,0.05,0.78v5.28c0.15-0.04,0.3-0.08,0.44-0.13c0.14-0.04,0.29-0.1,0.44-0.17
		c0.5-0.2,0.94-0.29,1.3-0.28c0.36,0.01,0.77,0.12,1.22,0.35c0.17,0.08,0.29,0.2,0.38,0.34c0.08,0.14,0.13,0.27,0.13,0.4
		c0,0.15-0.05,0.28-0.15,0.39c-0.1,0.11-0.3,0.17-0.61,0.2c-0.36,0.03-0.82,0.08-1.38,0.16c-0.55,0.08-1.15,0.17-1.78,0.28v7.34
		c0,0.28-0.02,0.59-0.06,0.93c-0.04,0.34-0.12,0.66-0.22,0.97c-0.1,0.31-0.24,0.56-0.4,0.77c-0.16,0.2-0.36,0.3-0.58,0.3
		c-0.21,0-0.37-0.05-0.48-0.16c-0.11-0.1-0.2-0.23-0.26-0.38c-0.06-0.15-0.1-0.31-0.12-0.48c-0.01-0.18-0.02-0.33-0.02-0.45V267.45z
		 M248.28,259.46c-0.74,0.07-1.5,0.16-2.28,0.27c-0.78,0.11-1.55,0.23-2.31,0.37c-0.76,0.13-1.51,0.28-2.23,0.43
		c-0.72,0.15-1.39,0.32-2.01,0.48c-0.48,0.13-0.89,0.06-1.23-0.19c-0.34-0.25-0.59-0.58-0.75-0.99c-0.2-0.49-0.02-0.71,0.53-0.67
		c0.42,0.04,0.92,0.04,1.49-0.01c0.57-0.05,1.19-0.12,1.85-0.21c0.66-0.09,1.34-0.2,2.04-0.32s1.38-0.24,2.04-0.37
		c0.57-0.11,1.09-0.23,1.54-0.36s0.93-0.2,1.45-0.23c0.29-0.01,0.53,0.04,0.69,0.17c0.17,0.13,0.24,0.34,0.21,0.63
		c-0.01,0.24-0.11,0.46-0.27,0.65C248.86,259.32,248.61,259.43,248.28,259.46z M246.07,256.22c-0.03,0.39-0.13,0.69-0.3,0.89
		c-0.18,0.2-0.45,0.33-0.81,0.39c-0.28,0.04-0.54,0.08-0.77,0.12c-0.23,0.04-0.46,0.07-0.68,0.1c-0.22,0.04-0.45,0.08-0.67,0.13
		c-0.22,0.05-0.48,0.11-0.76,0.18c-0.35,0.08-0.67,0.03-0.95-0.17c-0.28-0.2-0.5-0.43-0.65-0.71c-0.17-0.31-0.2-0.52-0.1-0.62
		c0.1-0.1,0.33-0.16,0.69-0.18c0.71-0.03,1.35-0.07,1.9-0.14c0.55-0.06,1.1-0.17,1.63-0.33c0.14-0.03,0.28-0.06,0.43-0.09
		c0.15-0.04,0.31-0.07,0.49-0.09c0.24-0.03,0.39,0.01,0.46,0.1C246.05,255.9,246.08,256.04,246.07,256.22z M241.63,263.94
		c0,0.41,0.18,0.71,0.55,0.91c0.36,0.2,0.83,0.27,1.41,0.2c0.55-0.07,1-0.25,1.37-0.54c0.36-0.29,0.55-0.63,0.55-1.04
		c0-0.42-0.18-0.73-0.55-0.91c-0.36-0.19-0.82-0.25-1.37-0.18c-0.58,0.07-1.04,0.24-1.41,0.52
		C241.81,263.17,241.63,263.52,241.63,263.94z"/>
	<path d="M259.06,259.18c0-0.15-0.01-0.28-0.04-0.37c-0.03-0.09-0.07-0.17-0.13-0.23c-0.06-0.06-0.13-0.11-0.21-0.15
		c-0.08-0.03-0.18-0.08-0.29-0.14c-0.18-0.08-0.33-0.17-0.44-0.27c-0.11-0.1-0.17-0.24-0.17-0.42c0-0.2,0.08-0.35,0.24-0.47
		c0.16-0.12,0.42-0.18,0.79-0.18c0.49,0,0.9,0.04,1.23,0.12c0.33,0.08,0.59,0.19,0.79,0.34c0.2,0.15,0.33,0.32,0.41,0.52
		c0.08,0.2,0.12,0.42,0.12,0.67v3.49c0,0.45,0.1,0.76,0.3,0.95s0.51,0.27,0.92,0.27c0.81,0,1.67-0.18,2.58-0.53s1.73-0.8,2.49-1.35
		c0.32-0.24,0.65-0.38,0.97-0.42s0.54,0.08,0.65,0.36c0.07,0.15,0.09,0.31,0.05,0.46s-0.1,0.3-0.21,0.45
		c-0.11,0.15-0.24,0.28-0.4,0.41c-0.16,0.13-0.33,0.24-0.49,0.34c-1.02,0.56-2.1,1.01-3.23,1.33c-1.13,0.33-2.18,0.49-3.16,0.49
		c-0.91,0-1.6-0.21-2.06-0.62s-0.69-1.15-0.69-2.2V259.18z M262.49,268.23c0.15-0.34,0.11-0.65-0.13-0.95
		c-0.11-0.15-0.2-0.3-0.25-0.44s-0.05-0.29,0.02-0.44c0.08-0.15,0.22-0.27,0.42-0.34c0.2-0.07,0.46-0.03,0.78,0.13
		c0.29,0.13,0.56,0.27,0.79,0.43c0.23,0.16,0.41,0.34,0.54,0.55c0.13,0.2,0.19,0.44,0.18,0.69c-0.01,0.26-0.1,0.55-0.28,0.87
		c-0.07,0.11-0.14,0.22-0.2,0.32c-0.06,0.1-0.13,0.2-0.2,0.29c0.08,0.03,0.15,0.05,0.21,0.06c0.32,0.1,0.63,0.19,0.92,0.28
		c0.29,0.09,0.51,0.18,0.66,0.26c0.27,0.15,0.41,0.35,0.44,0.59c0.03,0.24-0.05,0.46-0.23,0.67c-0.24,0.25-0.49,0.37-0.76,0.36
		c-0.27-0.01-0.55-0.1-0.84-0.27c-0.2-0.11-0.4-0.23-0.61-0.36c-0.21-0.13-0.43-0.26-0.67-0.4c-0.62,0.71-1.26,1.35-1.94,1.91
		c-0.68,0.56-1.37,1.06-2.07,1.49c-0.2,0.13-0.39,0.21-0.58,0.25s-0.32,0.02-0.39-0.06c-0.07-0.08-0.07-0.18-0.01-0.29
		c0.06-0.11,0.2-0.27,0.41-0.46c0.85-0.8,1.59-1.61,2.21-2.44S262.04,269.21,262.49,268.23z M271.37,267.51
		c-0.13,0.24-0.26,0.47-0.39,0.69c-0.13,0.22-0.28,0.45-0.43,0.67c0.2,0.1,0.38,0.19,0.56,0.26c0.17,0.08,0.34,0.14,0.49,0.2
		c0.41,0.18,0.83,0.33,1.28,0.44c0.45,0.11,0.89,0.29,1.33,0.53c0.32,0.18,0.52,0.41,0.6,0.67s0.02,0.52-0.16,0.76
		c-0.21,0.28-0.48,0.42-0.81,0.43c-0.33,0.01-0.65-0.08-0.96-0.26c-0.41-0.24-0.9-0.52-1.47-0.85c-0.58-0.33-1.16-0.66-1.77-0.98
		c-0.55,0.66-1.15,1.27-1.8,1.84c-0.65,0.57-1.33,1.1-2.05,1.59c-0.2,0.14-0.38,0.24-0.56,0.31c-0.18,0.06-0.31,0.05-0.41-0.05
		c-0.15-0.14-0.04-0.41,0.36-0.8c0.9-0.84,1.68-1.76,2.34-2.77c0.67-1,1.24-2.09,1.74-3.27c0.14-0.29,0.1-0.58-0.13-0.86
		c-0.11-0.15-0.2-0.3-0.25-0.44c-0.06-0.14-0.04-0.3,0.04-0.48c0.07-0.14,0.2-0.24,0.4-0.3s0.46-0.02,0.78,0.14
		c0.28,0.13,0.53,0.27,0.76,0.43s0.4,0.34,0.54,0.55c0.13,0.2,0.2,0.43,0.21,0.69C271.62,266.9,271.53,267.19,271.37,267.51z
		 M269.94,255.5c0-0.24-0.01-0.42-0.04-0.55c-0.03-0.13-0.11-0.22-0.23-0.29c-0.15-0.08-0.29-0.18-0.41-0.28s-0.18-0.25-0.18-0.43
		c0-0.2,0.08-0.35,0.24-0.47c0.16-0.12,0.42-0.18,0.79-0.18c0.46,0,0.82,0.06,1.08,0.17c0.26,0.11,0.46,0.26,0.59,0.45
		c0.13,0.19,0.22,0.41,0.25,0.66s0.05,0.51,0.05,0.78v2.96c0.15-0.04,0.3-0.08,0.44-0.13c0.14-0.04,0.29-0.1,0.44-0.17
		c0.5-0.2,0.94-0.29,1.3-0.28c0.36,0.01,0.77,0.12,1.22,0.35c0.17,0.08,0.29,0.2,0.38,0.34s0.13,0.27,0.13,0.4
		c0,0.15-0.05,0.28-0.15,0.39c-0.1,0.1-0.3,0.17-0.61,0.2c-0.36,0.03-0.82,0.08-1.38,0.16c-0.55,0.08-1.15,0.17-1.78,0.28v1.64
		c0,0.28-0.02,0.59-0.06,0.93c-0.04,0.34-0.12,0.66-0.22,0.97c-0.1,0.31-0.24,0.56-0.4,0.77s-0.35,0.3-0.58,0.3
		c-0.21,0-0.37-0.05-0.48-0.16c-0.11-0.1-0.2-0.23-0.26-0.38c-0.06-0.15-0.1-0.31-0.12-0.48c-0.01-0.17-0.02-0.33-0.02-0.45V255.5z"
		/>
	<path d="M278.62,260.24c0-0.15-0.01-0.28-0.04-0.37s-0.07-0.17-0.13-0.23c-0.06-0.06-0.13-0.11-0.21-0.15s-0.18-0.08-0.29-0.14
		c-0.18-0.08-0.33-0.18-0.44-0.27s-0.17-0.24-0.17-0.42c0-0.2,0.08-0.35,0.24-0.47c0.16-0.12,0.42-0.18,0.79-0.18
		c0.55,0,1.01,0.06,1.39,0.17c1.25-0.04,2.5-0.2,3.74-0.48c0.25-0.06,0.49-0.12,0.71-0.19c0.22-0.07,0.43-0.14,0.63-0.2
		c0.2-0.06,0.41-0.12,0.62-0.16c0.21-0.04,0.44-0.07,0.69-0.08c0.32-0.01,0.6,0.06,0.83,0.23c0.23,0.17,0.35,0.43,0.35,0.8
		c0,0.22-0.1,0.38-0.3,0.46s-0.55,0.15-1.04,0.21c-0.84,0.08-1.67,0.18-2.5,0.29c-0.83,0.11-1.69,0.23-2.59,0.36
		c0.01,0.06,0.02,0.13,0.02,0.23v5.78c0,0.45,0.1,0.76,0.31,0.95c0.2,0.18,0.51,0.27,0.91,0.27c0.81,0,1.67-0.17,2.58-0.53
		s1.74-0.8,2.49-1.35c0.32-0.24,0.64-0.38,0.97-0.42c0.32-0.04,0.54,0.08,0.65,0.36c0.07,0.15,0.09,0.31,0.05,0.46
		s-0.11,0.3-0.21,0.45c-0.11,0.15-0.24,0.28-0.4,0.41c-0.16,0.13-0.33,0.24-0.49,0.34c-1.02,0.56-2.1,1.01-3.23,1.34
		c-1.13,0.33-2.18,0.49-3.17,0.49c-0.91,0-1.6-0.21-2.06-0.62s-0.69-1.15-0.69-2.2V260.24z M289.7,255.5c0-0.24-0.01-0.42-0.04-0.55
		c-0.03-0.13-0.11-0.22-0.23-0.29c-0.15-0.08-0.29-0.18-0.41-0.28s-0.18-0.25-0.18-0.43c0-0.2,0.08-0.35,0.24-0.47
		c0.16-0.12,0.42-0.18,0.79-0.18c0.46,0,0.82,0.06,1.08,0.17c0.26,0.11,0.46,0.26,0.59,0.45c0.13,0.19,0.22,0.41,0.25,0.66
		s0.05,0.51,0.05,0.78v5.28c0.15-0.04,0.3-0.08,0.44-0.13c0.14-0.04,0.29-0.1,0.44-0.17c0.5-0.2,0.94-0.29,1.3-0.28
		c0.36,0.01,0.77,0.12,1.22,0.35c0.17,0.08,0.29,0.2,0.38,0.34c0.08,0.14,0.13,0.27,0.13,0.4c0,0.15-0.05,0.28-0.15,0.39
		c-0.1,0.11-0.3,0.17-0.61,0.2c-0.36,0.03-0.82,0.08-1.38,0.16c-0.55,0.08-1.15,0.17-1.78,0.28v7.34c0,0.28-0.02,0.59-0.06,0.93
		c-0.04,0.34-0.12,0.66-0.22,0.97c-0.1,0.31-0.24,0.56-0.4,0.77c-0.16,0.2-0.35,0.3-0.58,0.3c-0.21,0-0.37-0.05-0.48-0.16
		s-0.2-0.23-0.26-0.38c-0.06-0.15-0.1-0.31-0.12-0.48s-0.02-0.33-0.02-0.45V255.5z"/>
	<path d="M298.96,264.13c0-0.2-0.07-0.34-0.22-0.42c-0.15-0.08-0.3-0.16-0.45-0.23c-0.2-0.07-0.35-0.16-0.45-0.26
		c-0.11-0.11-0.16-0.25-0.16-0.43c0-0.2,0.08-0.35,0.24-0.47s0.42-0.18,0.79-0.18c0.14,0,0.27,0,0.4,0.01
		c0.13,0.01,0.25,0.02,0.36,0.03c0.35-0.03,0.75-0.07,1.19-0.13c0.44-0.06,0.9-0.12,1.37-0.2c0.47-0.08,0.93-0.15,1.39-0.22
		c0.46-0.07,0.87-0.14,1.23-0.21v-2.94c-0.45,0.06-0.85,0.11-1.2,0.17c-0.35,0.06-0.69,0.12-1.03,0.2
		c-0.34,0.08-0.68,0.16-1.03,0.26s-0.76,0.21-1.22,0.34c-0.22,0.07-0.47,0.08-0.73,0.04s-0.5-0.12-0.74-0.23
		c-0.23-0.11-0.43-0.25-0.6-0.42s-0.27-0.35-0.32-0.55c-0.04-0.2-0.02-0.36,0.07-0.48c0.09-0.13,0.29-0.19,0.6-0.19
		c0.91,0,1.78-0.06,2.61-0.18s1.72-0.26,2.69-0.43c0.27-0.04,0.5-0.09,0.71-0.16s0.4-0.12,0.59-0.18c0.19-0.06,0.38-0.11,0.58-0.16
		c0.2-0.05,0.41-0.08,0.65-0.09c0.34-0.03,0.58,0.02,0.72,0.16c0.15,0.13,0.21,0.38,0.18,0.75c-0.01,0.15-0.05,0.3-0.12,0.43
		s-0.16,0.25-0.28,0.35l-0.15,3.18c0.18,0.04,0.33,0.11,0.44,0.21s0.17,0.24,0.17,0.42s-0.1,0.36-0.3,0.53
		c-0.2,0.17-0.55,0.28-1.04,0.34c-0.84,0.1-1.63,0.21-2.38,0.33c-0.74,0.12-1.51,0.24-2.31,0.37c0.03,0.14,0.04,0.25,0.04,0.32v2.08
		c0,0.87,0.41,1.28,1.22,1.24c1-0.04,1.89-0.23,2.68-0.58c0.79-0.34,1.57-0.8,2.32-1.38c0.32-0.25,0.65-0.38,0.98-0.39
		s0.55,0.13,0.66,0.41c0.07,0.15,0.09,0.31,0.05,0.45c-0.04,0.15-0.1,0.29-0.21,0.44c-0.11,0.15-0.24,0.29-0.4,0.42
		c-0.16,0.13-0.33,0.25-0.49,0.35c-1.02,0.59-2.1,1.04-3.22,1.35c-1.12,0.31-2.17,0.46-3.15,0.46c-0.91,0-1.59-0.21-2.05-0.62
		c-0.46-0.41-0.68-1.15-0.68-2.2V264.13z M310.63,255.5c0-0.24-0.01-0.42-0.04-0.55c-0.03-0.13-0.11-0.22-0.23-0.29
		c-0.15-0.08-0.29-0.18-0.41-0.28s-0.18-0.25-0.18-0.43c0-0.2,0.08-0.35,0.24-0.47c0.16-0.12,0.42-0.18,0.79-0.18
		c0.46,0,0.82,0.06,1.08,0.17c0.26,0.11,0.46,0.26,0.59,0.45c0.13,0.19,0.22,0.41,0.25,0.66c0.03,0.25,0.05,0.51,0.05,0.78v14.15
		c0,0.28-0.02,0.59-0.06,0.93c-0.04,0.34-0.12,0.66-0.22,0.97c-0.11,0.31-0.24,0.56-0.4,0.77c-0.16,0.2-0.35,0.3-0.58,0.3
		c-0.21,0-0.37-0.05-0.48-0.16s-0.2-0.23-0.26-0.38c-0.06-0.15-0.1-0.31-0.12-0.48c-0.01-0.18-0.02-0.33-0.02-0.45V255.5z"/>
	<path d="M331.05,259.71c0,0.7-0.12,1.34-0.35,1.9c-0.23,0.57-0.55,1.07-0.95,1.5s-0.87,0.8-1.41,1.1c-0.54,0.3-1.12,0.53-1.73,0.68
		v3.11c0.59-0.1,1.15-0.19,1.68-0.28c0.53-0.09,1.03-0.18,1.49-0.26c0.67-0.13,1.37-0.28,2.09-0.46c0.72-0.18,1.38-0.29,1.97-0.32
		c0.81-0.03,1.22,0.25,1.22,0.82c0,0.27-0.11,0.49-0.32,0.68c-0.21,0.19-0.53,0.3-0.97,0.33c-0.71,0.06-1.5,0.13-2.34,0.23
		c-0.85,0.1-1.72,0.21-2.63,0.35s-1.81,0.27-2.72,0.42c-0.91,0.15-1.79,0.3-2.65,0.46c-0.86,0.16-1.66,0.32-2.41,0.48
		c-0.75,0.16-1.41,0.31-1.99,0.45c-0.34,0.08-0.65,0.11-0.93,0.07c-0.28-0.04-0.53-0.11-0.75-0.23c-0.22-0.12-0.4-0.26-0.56-0.43
		c-0.15-0.17-0.28-0.34-0.38-0.5c-0.13-0.24-0.14-0.43-0.03-0.59c0.11-0.15,0.33-0.22,0.68-0.19c0.35,0.01,0.79,0.01,1.31-0.02
		c0.53-0.03,1.11-0.08,1.76-0.15s1.33-0.15,2.06-0.24c0.73-0.09,1.46-0.19,2.21-0.3v-3.18c-0.74-0.01-1.39-0.13-1.96-0.34
		c-0.56-0.21-1.03-0.5-1.41-0.86s-0.66-0.79-0.85-1.28c-0.19-0.49-0.28-1.03-0.28-1.62c0-0.83,0.19-1.58,0.57-2.25
		c0.38-0.67,0.87-1.24,1.48-1.71c0.61-0.47,1.3-0.83,2.07-1.08c0.77-0.25,1.56-0.38,2.36-0.38c0.69,0,1.31,0.09,1.88,0.27
		c0.57,0.18,1.05,0.44,1.46,0.79c0.41,0.34,0.72,0.77,0.96,1.28S331.05,259.06,331.05,259.71z M328.84,259.9
		c0-0.9-0.26-1.55-0.77-1.96c-0.51-0.41-1.16-0.61-1.95-0.61c-0.49,0-0.97,0.07-1.45,0.22c-0.48,0.15-0.9,0.37-1.28,0.66
		c-0.38,0.29-0.68,0.66-0.91,1.1c-0.23,0.44-0.35,0.96-0.35,1.55c0,0.9,0.26,1.55,0.77,1.97c0.51,0.41,1.17,0.62,1.97,0.62
		c0.49,0,0.97-0.08,1.45-0.23c0.48-0.15,0.9-0.38,1.27-0.68c0.37-0.3,0.67-0.67,0.9-1.11S328.84,260.47,328.84,259.9z"/>
	<path d="M338.79,269.21c0.42-0.03,0.77,0.08,1.05,0.34s0.42,0.59,0.42,1.01c0,0.45-0.14,0.8-0.42,1.06
		c-0.28,0.26-0.63,0.4-1.05,0.43c-0.42,0.03-0.77-0.08-1.06-0.32c-0.29-0.24-0.43-0.58-0.43-1.03c0-0.42,0.14-0.77,0.43-1.04
		C338.01,269.39,338.36,269.24,338.79,269.21z M337.54,258.03c-0.01-0.25-0.01-0.5,0.01-0.75c0.02-0.25,0.07-0.47,0.16-0.67
		c0.08-0.2,0.2-0.37,0.36-0.49c0.15-0.13,0.36-0.2,0.63-0.21c0.28-0.01,0.5,0.04,0.67,0.15c0.17,0.11,0.29,0.27,0.37,0.46
		s0.13,0.42,0.15,0.66c0.02,0.25,0.02,0.49,0.01,0.75l-0.44,9.59c-0.01,0.24-0.09,0.42-0.22,0.55c-0.13,0.13-0.3,0.2-0.49,0.21
		c-0.18,0.01-0.33-0.04-0.45-0.15c-0.12-0.11-0.19-0.29-0.2-0.53L337.54,258.03z"/>
	<path d="M345.09,269.21c0.42-0.03,0.77,0.08,1.05,0.34s0.42,0.59,0.42,1.01c0,0.45-0.14,0.8-0.42,1.06
		c-0.28,0.26-0.63,0.4-1.05,0.43c-0.42,0.03-0.77-0.08-1.06-0.32c-0.29-0.24-0.43-0.58-0.43-1.03c0-0.42,0.14-0.77,0.43-1.04
		C344.32,269.39,344.67,269.24,345.09,269.21z M343.85,258.03c-0.01-0.25-0.01-0.5,0.01-0.75c0.02-0.25,0.07-0.47,0.16-0.67
		c0.08-0.2,0.2-0.37,0.36-0.49c0.15-0.13,0.36-0.2,0.63-0.21c0.28-0.01,0.5,0.04,0.67,0.15c0.17,0.11,0.29,0.27,0.37,0.46
		s0.13,0.42,0.15,0.66c0.02,0.25,0.02,0.49,0.01,0.75l-0.44,9.59c-0.01,0.24-0.09,0.42-0.22,0.55c-0.13,0.13-0.3,0.2-0.49,0.21
		c-0.18,0.01-0.33-0.04-0.45-0.15c-0.12-0.11-0.19-0.29-0.2-0.53L343.85,258.03z"/>
</g>
</svg>
