<?xml version="1.0" encoding="utf-8"?>
<!-- Generator: Adobe Illustrator 29.4.0, SVG Export Plug-In . SVG Version: 9.03 Build 0)  -->
<svg version="1.1" id="레이어_1" xmlns="http://www.w3.org/2000/svg" xmlns:xlink="http://www.w3.org/1999/xlink" x="0px"
	 y="0px" width="500px" height="1000px" viewBox="0 0 500 1000" enable-background="new 0 0 500 1000" xml:space="preserve">
<ellipse fill="#FFFFFF" stroke="#000000" stroke-width="2" stroke-miterlimit="10" cx="250" cy="258.46" rx="123.62" ry="79.47"/>
<g>
	<path d="M208.66,236.77c-0.71,0.06-1.5,0.13-2.34,0.23c-0.85,0.1-1.72,0.21-2.63,0.35c-0.9,0.13-1.81,0.27-2.72,0.42
		c-0.91,0.15-1.79,0.3-2.65,0.46c-0.86,0.16-1.66,0.32-2.41,0.48s-1.41,0.31-1.99,0.45c-0.34,0.08-0.65,0.11-0.93,0.07
		s-0.53-0.11-0.75-0.23s-0.4-0.26-0.56-0.43c-0.15-0.17-0.28-0.34-0.38-0.5c-0.13-0.24-0.14-0.43-0.03-0.59
		c0.11-0.15,0.33-0.22,0.68-0.19c0.39,0.01,0.89,0,1.49-0.03c0.6-0.04,1.27-0.09,2-0.18c0.73-0.08,1.5-0.18,2.32-0.28
		c0.82-0.1,1.64-0.22,2.45-0.35c0.81-0.13,1.6-0.25,2.35-0.38c0.76-0.13,1.45-0.25,2.08-0.36c0.67-0.13,1.37-0.28,2.09-0.46
		s1.38-0.29,1.97-0.32c0.81-0.03,1.22,0.25,1.22,0.82c0,0.27-0.1,0.49-0.32,0.68C209.41,236.63,209.09,236.74,208.66,236.77z
		 M194.84,227.41c0-0.22-0.01-0.37-0.04-0.44c-0.03-0.07-0.1-0.14-0.23-0.21c-0.15-0.08-0.29-0.17-0.41-0.27
		c-0.12-0.1-0.18-0.24-0.18-0.42c0-0.2,0.08-0.35,0.24-0.47c0.16-0.12,0.42-0.18,0.79-0.18c0.45,0,0.81,0.05,1.07,0.16
		s0.47,0.24,0.61,0.41c0.14,0.17,0.23,0.36,0.27,0.59s0.06,0.46,0.06,0.69v3.79c0,0.22,0.05,0.4,0.15,0.54
		c0.1,0.13,0.23,0.24,0.4,0.31c0.17,0.07,0.36,0.12,0.59,0.14s0.47,0.03,0.74,0.03c0.56,0,1.12-0.04,1.69-0.14
		c0.57-0.09,1.12-0.21,1.65-0.36c0.53-0.15,1.03-0.32,1.5-0.52c0.47-0.2,0.89-0.4,1.25-0.61c0.36-0.21,0.69-0.33,0.98-0.35
		c0.29-0.02,0.49,0.11,0.62,0.39c0.14,0.29,0.09,0.61-0.14,0.94c-0.23,0.33-0.54,0.59-0.94,0.77c-0.52,0.24-1.11,0.45-1.77,0.63
		c-0.66,0.18-1.32,0.33-1.99,0.45s-1.31,0.21-1.92,0.27c-0.62,0.06-1.14,0.08-1.56,0.05c-0.49-0.01-0.95-0.06-1.37-0.14
		c-0.42-0.08-0.79-0.21-1.09-0.4c-0.31-0.19-0.55-0.44-0.73-0.77c-0.18-0.32-0.26-0.75-0.26-1.28V227.41z"/>
	<path d="M213.22,228.69c0-0.15-0.01-0.28-0.04-0.37c-0.03-0.09-0.07-0.17-0.13-0.23s-0.13-0.11-0.21-0.15
		c-0.08-0.04-0.18-0.08-0.29-0.14c-0.18-0.08-0.33-0.18-0.44-0.27s-0.17-0.24-0.17-0.42c0-0.2,0.08-0.35,0.24-0.47
		c0.16-0.12,0.42-0.18,0.79-0.18c0.55,0,1.01,0.06,1.39,0.17c1.25-0.04,2.5-0.2,3.74-0.48c0.25-0.06,0.49-0.12,0.7-0.19
		s0.43-0.14,0.63-0.2c0.2-0.06,0.41-0.12,0.62-0.16c0.21-0.04,0.44-0.07,0.69-0.08c0.32-0.01,0.6,0.06,0.83,0.23
		c0.23,0.17,0.35,0.43,0.35,0.8c0,0.22-0.1,0.38-0.3,0.46c-0.2,0.08-0.55,0.15-1.04,0.21c-0.84,0.08-1.68,0.18-2.5,0.29
		c-0.83,0.11-1.69,0.23-2.59,0.36c0.01,0.06,0.02,0.13,0.02,0.23v2.59c0.46-0.07,0.9-0.14,1.31-0.21c0.41-0.07,0.77-0.14,1.06-0.21
		c0.42-0.1,0.84-0.22,1.27-0.36c0.43-0.14,0.89-0.22,1.38-0.25c0.32-0.01,0.63,0.07,0.94,0.24c0.3,0.18,0.46,0.45,0.47,0.81
		c0,0.22-0.1,0.39-0.3,0.48c-0.2,0.1-0.55,0.18-1.04,0.25c-0.84,0.11-1.68,0.22-2.52,0.34c-0.84,0.11-1.7,0.23-2.57,0.36v1.96
		c0,0.45,0.1,0.76,0.31,0.95c0.2,0.18,0.51,0.27,0.91,0.27c0.81,0,1.67-0.18,2.58-0.53c0.9-0.35,1.73-0.8,2.49-1.35
		c0.32-0.24,0.64-0.38,0.97-0.42c0.32-0.04,0.54,0.08,0.65,0.36c0.07,0.15,0.09,0.31,0.05,0.46c-0.04,0.15-0.11,0.31-0.21,0.45
		c-0.1,0.15-0.24,0.28-0.4,0.41c-0.16,0.13-0.33,0.24-0.49,0.34c-1.02,0.56-2.1,1.01-3.23,1.34c-1.13,0.33-2.18,0.49-3.17,0.49
		c-0.91,0-1.6-0.21-2.06-0.62c-0.46-0.41-0.69-1.15-0.69-2.2V228.69z M225.04,223.96c0-0.24-0.01-0.42-0.04-0.55
		c-0.03-0.13-0.1-0.22-0.23-0.29c-0.15-0.08-0.29-0.18-0.41-0.28s-0.18-0.25-0.18-0.43c0-0.2,0.08-0.35,0.24-0.47
		c0.16-0.12,0.42-0.18,0.79-0.18c0.46,0,0.82,0.06,1.08,0.17c0.26,0.11,0.46,0.26,0.59,0.45c0.13,0.19,0.22,0.41,0.25,0.66
		s0.05,0.51,0.05,0.78v14.15c0,0.28-0.02,0.59-0.06,0.93c-0.04,0.34-0.12,0.66-0.22,0.97c-0.11,0.31-0.24,0.56-0.4,0.77
		c-0.16,0.2-0.35,0.3-0.58,0.3c-0.21,0-0.37-0.05-0.48-0.16s-0.2-0.23-0.26-0.38c-0.06-0.15-0.1-0.31-0.12-0.48
		c-0.01-0.18-0.02-0.33-0.02-0.45V223.96z"/>
	<path d="M232.57,228.75c0-0.15-0.01-0.28-0.04-0.37c-0.03-0.09-0.07-0.17-0.13-0.23c-0.06-0.06-0.13-0.11-0.21-0.15
		c-0.08-0.03-0.18-0.08-0.29-0.14c-0.18-0.08-0.33-0.18-0.44-0.27c-0.11-0.1-0.17-0.24-0.17-0.42c0-0.2,0.08-0.35,0.24-0.47
		c0.16-0.12,0.42-0.18,0.79-0.18c0.49,0,0.9,0.04,1.23,0.12c0.33,0.08,0.59,0.19,0.79,0.34c0.2,0.15,0.33,0.32,0.41,0.52
		s0.12,0.42,0.12,0.67v5.3c0,0.45,0.1,0.76,0.3,0.95c0.2,0.18,0.51,0.27,0.92,0.27c0.81,0,1.67-0.18,2.58-0.53
		c0.9-0.35,1.73-0.8,2.49-1.35c0.32-0.24,0.65-0.38,0.97-0.42c0.32-0.04,0.54,0.08,0.65,0.36c0.07,0.15,0.09,0.31,0.05,0.46
		c-0.04,0.15-0.1,0.31-0.21,0.45c-0.11,0.15-0.24,0.28-0.4,0.41s-0.33,0.24-0.49,0.34c-1.02,0.56-2.1,1.01-3.23,1.34
		c-1.13,0.33-2.18,0.49-3.17,0.49c-0.91,0-1.6-0.21-2.06-0.62c-0.46-0.41-0.69-1.15-0.69-2.2V228.75z M243.65,223.96
		c0-0.24-0.01-0.42-0.04-0.55c-0.03-0.13-0.1-0.22-0.23-0.29c-0.15-0.08-0.29-0.18-0.41-0.28c-0.12-0.1-0.18-0.25-0.18-0.43
		c0-0.2,0.08-0.35,0.24-0.47c0.16-0.12,0.42-0.18,0.79-0.18c0.46,0,0.82,0.06,1.08,0.17c0.26,0.11,0.46,0.26,0.59,0.45
		c0.13,0.19,0.22,0.41,0.25,0.66c0.03,0.25,0.05,0.51,0.05,0.78v5.28c0.15-0.04,0.3-0.08,0.44-0.13c0.14-0.04,0.29-0.1,0.44-0.17
		c0.5-0.2,0.94-0.29,1.3-0.28c0.36,0.01,0.77,0.12,1.22,0.35c0.17,0.08,0.29,0.2,0.38,0.34c0.08,0.14,0.13,0.27,0.13,0.4
		c0,0.15-0.05,0.28-0.15,0.39c-0.1,0.11-0.3,0.17-0.61,0.2c-0.36,0.03-0.82,0.08-1.38,0.16c-0.55,0.08-1.15,0.17-1.78,0.28v7.34
		c0,0.28-0.02,0.59-0.06,0.93c-0.04,0.34-0.12,0.66-0.22,0.97c-0.1,0.31-0.24,0.56-0.4,0.77c-0.16,0.2-0.35,0.3-0.58,0.3
		c-0.21,0-0.37-0.05-0.48-0.16c-0.11-0.1-0.2-0.23-0.26-0.38c-0.06-0.15-0.1-0.31-0.12-0.48c-0.01-0.18-0.02-0.33-0.02-0.45V223.96z
		"/>
	<path d="M267.96,233.17c-0.98,0.07-2.07,0.19-3.26,0.35s-2.4,0.34-3.64,0.54v4.67c0,0.28-0.02,0.59-0.07,0.93
		c-0.05,0.34-0.13,0.66-0.23,0.97c-0.11,0.31-0.24,0.56-0.41,0.77c-0.17,0.2-0.37,0.31-0.59,0.31c-0.2,0-0.36-0.05-0.48-0.16
		c-0.13-0.11-0.22-0.23-0.28-0.38c-0.06-0.15-0.11-0.31-0.13-0.48c-0.02-0.18-0.03-0.33-0.03-0.45v-5.8
		c-1.09,0.2-2.12,0.39-3.09,0.59c-0.97,0.2-1.81,0.39-2.52,0.57c-0.34,0.08-0.65,0.11-0.93,0.07s-0.53-0.11-0.75-0.23
		c-0.22-0.12-0.4-0.26-0.56-0.43c-0.15-0.17-0.28-0.34-0.38-0.5c-0.13-0.24-0.14-0.43-0.03-0.59c0.11-0.15,0.33-0.22,0.68-0.19
		c0.39,0.01,0.89,0,1.49-0.03c0.6-0.03,1.27-0.09,2-0.18c0.73-0.08,1.5-0.18,2.32-0.28c0.82-0.11,1.64-0.22,2.45-0.35
		c0.81-0.13,1.6-0.25,2.36-0.38c0.76-0.13,1.45-0.25,2.08-0.36c0.67-0.13,1.37-0.28,2.09-0.46c0.72-0.18,1.38-0.29,1.97-0.32
		c0.81-0.03,1.22,0.25,1.22,0.82c0,0.27-0.11,0.49-0.32,0.68C268.72,233.03,268.39,233.14,267.96,233.17z M263.9,230.75
		c-0.22,0-0.4-0.06-0.52-0.18c-0.12-0.12-0.21-0.26-0.26-0.43c-0.46,0.2-0.96,0.37-1.49,0.53c-0.53,0.15-1.06,0.28-1.58,0.39
		c-0.52,0.1-1,0.18-1.44,0.23c-0.44,0.05-0.8,0.07-1.06,0.05c-0.49-0.01-0.94-0.06-1.35-0.14c-0.41-0.08-0.76-0.21-1.05-0.4
		c-0.29-0.19-0.53-0.45-0.69-0.78c-0.17-0.33-0.25-0.76-0.25-1.29v-2.59c0-0.22-0.01-0.37-0.04-0.44c-0.03-0.07-0.11-0.14-0.23-0.21
		c-0.15-0.08-0.29-0.17-0.41-0.27c-0.12-0.1-0.18-0.24-0.18-0.42c0-0.2,0.08-0.35,0.24-0.47c0.16-0.12,0.42-0.18,0.79-0.18
		c0.53,0,0.95,0.08,1.26,0.23c0.49-0.03,1.03-0.08,1.63-0.15c0.6-0.07,1.19-0.15,1.78-0.23c0.59-0.08,1.14-0.17,1.66-0.26
		c0.52-0.09,0.94-0.17,1.26-0.24c0.43-0.11,0.82-0.23,1.16-0.37c0.34-0.13,0.69-0.21,1.07-0.22c0.43-0.01,0.78,0.07,1.02,0.25
		s0.38,0.46,0.39,0.82c0,0.28-0.15,0.48-0.44,0.59V228c0,0.32-0.02,0.65-0.06,0.98c-0.04,0.33-0.12,0.62-0.22,0.88
		c-0.1,0.26-0.24,0.47-0.4,0.64C264.32,230.67,264.12,230.75,263.9,230.75z M263.02,224.82c-0.49,0.06-1.02,0.12-1.58,0.19
		c-0.56,0.07-1.13,0.15-1.7,0.23c-0.58,0.08-1.15,0.18-1.71,0.27c-0.57,0.1-1.11,0.2-1.63,0.29V226v2.78c0,0.22,0.04,0.4,0.13,0.54
		c0.08,0.13,0.2,0.24,0.36,0.32c0.15,0.08,0.34,0.13,0.56,0.15c0.22,0.02,0.46,0.03,0.73,0.03c0.34,0,0.71-0.03,1.12-0.1
		c0.41-0.07,0.84-0.16,1.27-0.27s0.86-0.24,1.28-0.39c0.42-0.15,0.81-0.3,1.18-0.45V224.82z"/>
	<path d="M271.07,231.72c0-0.71,0.13-1.39,0.4-2.02s0.63-1.18,1.09-1.65s1.01-0.84,1.65-1.1c0.64-0.27,1.34-0.4,2.09-0.4
		c1.01,0,1.86,0.28,2.54,0.83c0.69,0.55,1.11,1.35,1.26,2.39c0.22-0.03,0.45-0.06,0.68-0.09c0.23-0.03,0.47-0.07,0.73-0.12v-4.08
		c0-0.45-0.11-0.73-0.34-0.84c-0.15-0.08-0.29-0.18-0.41-0.28s-0.18-0.25-0.18-0.43c0-0.2,0.08-0.35,0.24-0.47
		c0.16-0.12,0.42-0.18,0.79-0.18c0.46,0,0.82,0.06,1.07,0.17c0.25,0.11,0.44,0.26,0.57,0.45c0.13,0.19,0.2,0.41,0.23,0.66
		c0.03,0.25,0.04,0.51,0.04,0.78v11.8c0,0.28-0.02,0.59-0.05,0.93s-0.1,0.66-0.2,0.97c-0.1,0.31-0.22,0.56-0.38,0.77
		c-0.15,0.2-0.34,0.3-0.57,0.3c-0.21,0-0.37-0.05-0.47-0.16c-0.11-0.1-0.19-0.23-0.24-0.38c-0.06-0.15-0.09-0.31-0.09-0.48
		c-0.01-0.18-0.01-0.33-0.01-0.45v-7.49c-0.08,0.03-0.17,0.05-0.25,0.07s-0.17,0.05-0.25,0.07c-0.32,0.11-0.62,0.15-0.88,0.1
		c-0.08,0.63-0.27,1.22-0.56,1.77c-0.29,0.55-0.66,1.02-1.12,1.42c-0.46,0.4-0.98,0.71-1.57,0.94s-1.22,0.34-1.89,0.34
		c-1.18,0-2.13-0.36-2.85-1.07C271.43,234.05,271.07,233.04,271.07,231.72z M278.01,230.86c0-0.97-0.21-1.68-0.62-2.12
		c-0.41-0.45-0.98-0.63-1.69-0.55c-0.74,0.08-1.33,0.41-1.76,0.99c-0.43,0.58-0.64,1.36-0.64,2.36c0,0.97,0.21,1.67,0.62,2.09
		c0.41,0.43,0.98,0.59,1.69,0.49c0.74-0.1,1.33-0.42,1.76-0.96C277.8,232.62,278.01,231.85,278.01,230.86z M284.99,223.96
		c0-0.24-0.02-0.42-0.05-0.55c-0.04-0.13-0.12-0.22-0.24-0.29c-0.15-0.08-0.3-0.18-0.43-0.28c-0.13-0.1-0.2-0.25-0.2-0.43
		c0-0.2,0.08-0.35,0.24-0.47c0.16-0.12,0.42-0.18,0.79-0.18c0.46,0,0.82,0.06,1.07,0.17c0.25,0.11,0.44,0.26,0.57,0.45
		c0.13,0.19,0.2,0.41,0.23,0.66c0.03,0.25,0.04,0.51,0.04,0.78v14.15c0,0.28-0.02,0.59-0.05,0.93c-0.04,0.34-0.1,0.66-0.2,0.97
		c-0.1,0.31-0.22,0.56-0.38,0.77c-0.15,0.2-0.34,0.3-0.57,0.3c-0.21,0-0.37-0.05-0.47-0.16s-0.19-0.23-0.24-0.38
		c-0.06-0.15-0.09-0.31-0.09-0.48s-0.01-0.33-0.01-0.45V223.96z"/>
	<path d="M297.95,228.25c-0.17,0.41-0.36,0.83-0.57,1.26c-0.21,0.44-0.45,0.88-0.71,1.33c0.43,0.38,0.85,0.73,1.24,1.06
		c0.39,0.33,0.77,0.62,1.13,0.87c0.31,0.22,0.58,0.41,0.81,0.55c0.23,0.14,0.44,0.26,0.63,0.37c0.19,0.11,0.36,0.21,0.52,0.33
		s0.31,0.25,0.46,0.42c0.2,0.24,0.28,0.49,0.25,0.76s-0.16,0.5-0.4,0.71c-0.2,0.17-0.44,0.26-0.74,0.27
		c-0.29,0.01-0.62-0.17-0.99-0.55c-0.45-0.48-1-1.01-1.66-1.6s-1.37-1.2-2.12-1.83c-0.67,1-1.42,1.96-2.25,2.9
		c-0.83,0.94-1.68,1.81-2.57,2.61c-0.1,0.08-0.23,0.15-0.4,0.21c-0.17,0.06-0.3,0.04-0.4-0.06c-0.11-0.11-0.13-0.25-0.06-0.41
		c0.07-0.16,0.18-0.32,0.34-0.47c0.55-0.62,1.08-1.3,1.6-2.06c0.52-0.76,1-1.54,1.45-2.34c0.45-0.81,0.85-1.62,1.22-2.43
		c0.36-0.81,0.67-1.58,0.9-2.31c0.08-0.25,0.14-0.48,0.16-0.68c0.02-0.2-0.04-0.4-0.2-0.6c-0.08-0.11-0.16-0.22-0.23-0.34
		s-0.06-0.27,0.02-0.46c0.07-0.15,0.21-0.25,0.41-0.29s0.47,0.01,0.79,0.17c0.59,0.27,1.03,0.61,1.31,1.02
		C298.18,227.05,298.2,227.59,297.95,228.25z M304.32,230.25c-0.18,0.04-0.35,0.08-0.49,0.13c-0.15,0.04-0.28,0.08-0.39,0.13
		c-0.24,0.1-0.48,0.19-0.71,0.26s-0.48,0.13-0.73,0.15s-0.5,0-0.76-0.05c-0.26-0.06-0.52-0.18-0.79-0.36
		c-0.34-0.22-0.5-0.45-0.5-0.67c0-0.28,0.18-0.45,0.55-0.5c0.49-0.07,1.08-0.15,1.76-0.25s1.37-0.2,2.07-0.32v-4.79
		c0-0.24-0.01-0.42-0.04-0.55c-0.03-0.13-0.1-0.22-0.23-0.29c-0.15-0.08-0.29-0.18-0.41-0.28c-0.12-0.1-0.18-0.25-0.18-0.43
		c0-0.2,0.08-0.35,0.24-0.47c0.16-0.12,0.42-0.18,0.79-0.18c0.46,0,0.82,0.06,1.08,0.17c0.26,0.11,0.46,0.26,0.59,0.45
		c0.13,0.19,0.22,0.41,0.25,0.66s0.05,0.51,0.05,0.78v14.15c0,0.28-0.02,0.59-0.06,0.93c-0.04,0.34-0.12,0.66-0.22,0.97
		c-0.11,0.31-0.24,0.56-0.4,0.77c-0.16,0.2-0.35,0.3-0.58,0.3c-0.21,0-0.37-0.05-0.48-0.16c-0.11-0.1-0.2-0.23-0.26-0.38
		c-0.06-0.15-0.1-0.31-0.12-0.48c-0.01-0.18-0.02-0.33-0.02-0.45V230.25z"/>
	<path d="M180.77,257.82c0-0.2-0.07-0.34-0.22-0.42c-0.15-0.08-0.3-0.16-0.45-0.23c-0.2-0.07-0.35-0.16-0.45-0.26
		c-0.1-0.11-0.16-0.25-0.16-0.43c0-0.2,0.08-0.35,0.24-0.47c0.16-0.12,0.42-0.18,0.79-0.18c0.14,0,0.27,0,0.4,0.01
		c0.13,0.01,0.25,0.02,0.36,0.03c0.35-0.03,0.75-0.07,1.19-0.13c0.44-0.06,0.9-0.12,1.37-0.2c0.47-0.08,0.93-0.15,1.39-0.22
		c0.46-0.07,0.87-0.14,1.23-0.21v-2.94c-0.45,0.06-0.85,0.11-1.2,0.17c-0.35,0.06-0.69,0.12-1.03,0.2
		c-0.34,0.08-0.68,0.16-1.03,0.26s-0.76,0.21-1.22,0.34c-0.22,0.07-0.47,0.08-0.73,0.04s-0.5-0.12-0.74-0.23
		c-0.23-0.11-0.43-0.25-0.6-0.42c-0.17-0.17-0.27-0.35-0.32-0.55c-0.04-0.2-0.02-0.36,0.07-0.48c0.09-0.13,0.29-0.19,0.6-0.19
		c0.91,0,1.78-0.06,2.61-0.18s1.72-0.26,2.69-0.43c0.27-0.04,0.5-0.09,0.7-0.16c0.2-0.06,0.4-0.12,0.59-0.18
		c0.19-0.06,0.38-0.11,0.58-0.16c0.2-0.05,0.41-0.08,0.65-0.09c0.34-0.03,0.58,0.02,0.73,0.16c0.15,0.13,0.21,0.38,0.18,0.75
		c-0.01,0.15-0.05,0.3-0.12,0.43s-0.16,0.25-0.28,0.35l-0.15,3.18c0.18,0.04,0.33,0.11,0.44,0.21c0.11,0.1,0.17,0.24,0.17,0.42
		s-0.1,0.36-0.3,0.53c-0.2,0.17-0.55,0.28-1.04,0.34c-0.84,0.1-1.63,0.21-2.38,0.33c-0.74,0.12-1.51,0.24-2.31,0.37
		c0.03,0.14,0.04,0.25,0.04,0.32v2.08c0,0.87,0.41,1.28,1.22,1.24c1-0.04,1.89-0.23,2.68-0.58c0.79-0.34,1.57-0.8,2.32-1.38
		c0.32-0.25,0.65-0.38,0.98-0.39c0.33-0.01,0.55,0.13,0.66,0.41c0.07,0.15,0.09,0.31,0.05,0.45c-0.04,0.15-0.1,0.29-0.21,0.44
		c-0.1,0.15-0.24,0.29-0.4,0.42c-0.16,0.13-0.33,0.25-0.49,0.35c-1.02,0.59-2.1,1.04-3.22,1.35c-1.12,0.31-2.17,0.46-3.15,0.46
		c-0.91,0-1.59-0.21-2.05-0.62c-0.46-0.41-0.68-1.15-0.68-2.2V257.82z M192.44,249.19c0-0.24-0.01-0.42-0.04-0.55
		c-0.03-0.13-0.1-0.22-0.23-0.29c-0.15-0.08-0.29-0.18-0.41-0.28s-0.18-0.25-0.18-0.43c0-0.2,0.08-0.35,0.24-0.47
		c0.16-0.12,0.42-0.18,0.79-0.18c0.46,0,0.82,0.06,1.08,0.17c0.26,0.11,0.46,0.26,0.59,0.45c0.13,0.19,0.22,0.41,0.25,0.66
		s0.05,0.51,0.05,0.78v14.15c0,0.28-0.02,0.59-0.06,0.93c-0.04,0.34-0.12,0.66-0.22,0.97c-0.11,0.31-0.24,0.56-0.4,0.77
		c-0.16,0.2-0.35,0.3-0.58,0.3c-0.21,0-0.37-0.05-0.48-0.16s-0.2-0.23-0.26-0.38c-0.06-0.15-0.1-0.31-0.12-0.48
		c-0.01-0.18-0.02-0.33-0.02-0.45V249.19z"/>
	<path d="M206.83,254.41c0,0.39,0.08,0.66,0.25,0.79c0.17,0.13,0.44,0.17,0.82,0.09c0.56-0.1,1.12-0.26,1.68-0.49
		c0.56-0.23,1.12-0.51,1.68-0.83v-4.77c0-0.24-0.01-0.42-0.04-0.55c-0.03-0.13-0.1-0.22-0.23-0.29c-0.15-0.08-0.29-0.18-0.41-0.28
		s-0.18-0.25-0.18-0.43c0-0.2,0.08-0.35,0.24-0.47c0.16-0.12,0.42-0.18,0.79-0.18c0.46,0,0.82,0.06,1.08,0.17
		c0.26,0.11,0.46,0.26,0.59,0.45c0.13,0.19,0.22,0.41,0.25,0.66s0.05,0.51,0.05,0.78v2.5c0.11-0.04,0.22-0.08,0.34-0.13
		c0.11-0.04,0.22-0.08,0.34-0.13c0.5-0.2,0.94-0.29,1.3-0.28s0.77,0.12,1.22,0.35c0.17,0.08,0.29,0.2,0.38,0.34
		c0.08,0.14,0.13,0.27,0.13,0.4c0,0.15-0.05,0.28-0.15,0.39c-0.1,0.11-0.3,0.17-0.61,0.2c-0.34,0.03-0.76,0.08-1.28,0.15
		c-0.52,0.07-1.07,0.16-1.66,0.27v1.05c0,0.28-0.02,0.59-0.06,0.93s-0.12,0.66-0.22,0.97c-0.11,0.31-0.24,0.56-0.4,0.77
		c-0.16,0.2-0.35,0.31-0.58,0.31c-0.21,0-0.37-0.05-0.48-0.16s-0.2-0.23-0.26-0.38c-0.06-0.15-0.1-0.31-0.12-0.48
		c-0.01-0.18-0.02-0.33-0.02-0.45v-0.08c-0.49,0.31-0.98,0.58-1.48,0.81c-0.5,0.23-1.03,0.42-1.59,0.58
		c-0.69,0.2-1.31,0.26-1.88,0.18c-0.57-0.08-0.99-0.37-1.27-0.89c-0.27,0.21-0.56,0.41-0.87,0.6c-0.32,0.19-0.64,0.35-0.97,0.49
		c-0.33,0.14-0.66,0.25-0.98,0.34c-0.32,0.08-0.62,0.13-0.9,0.13c-0.29,0-0.57-0.04-0.83-0.12c-0.26-0.08-0.49-0.2-0.69-0.38
		s-0.36-0.42-0.47-0.73c-0.11-0.31-0.17-0.69-0.17-1.16v-3.15c0-0.25-0.06-0.43-0.18-0.55c-0.12-0.11-0.28-0.22-0.49-0.32
		c-0.18-0.08-0.33-0.17-0.44-0.25c-0.11-0.08-0.17-0.22-0.17-0.4c0-0.39,0.34-0.59,1.03-0.59c0.32,0,0.61,0.02,0.85,0.05
		c0.25,0.04,0.45,0.09,0.62,0.16c0.06-0.01,0.1-0.03,0.15-0.04c0.04-0.01,0.08-0.03,0.13-0.04c0.48-0.14,0.89-0.28,1.24-0.42
		c0.35-0.14,0.69-0.22,1.01-0.23c0.13,0,0.25,0.01,0.37,0.03c0.12,0.02,0.22,0.07,0.3,0.14c0.15-0.2,0.46-0.29,0.93-0.29
		c0.6,0,1.07,0.06,1.41,0.19c0.43-0.07,0.76-0.14,0.99-0.21c0.48-0.14,0.89-0.28,1.24-0.42c0.35-0.14,0.69-0.22,1.01-0.23
		c0.32-0.01,0.59,0.06,0.79,0.22c0.2,0.16,0.31,0.42,0.31,0.79c0,0.21-0.09,0.38-0.27,0.52c-0.18,0.13-0.53,0.23-1.03,0.28
		c-0.36,0.04-0.72,0.08-1.06,0.13c-0.34,0.04-0.7,0.09-1.06,0.15c0,0.04,0,0.08,0.01,0.12c0.01,0.04,0.01,0.07,0.01,0.12V254.41z
		 M201.25,255.02c0,0.13,0.01,0.25,0.03,0.38c0.02,0.13,0.07,0.23,0.14,0.33s0.18,0.15,0.33,0.19c0.15,0.04,0.34,0.03,0.58-0.01
		c0.79-0.13,1.59-0.5,2.42-1.11v-0.06v-3.22c0-0.2-0.07-0.34-0.22-0.42c-0.15-0.08-0.3-0.16-0.45-0.23c-0.04,0-0.08-0.01-0.11-0.04
		c-0.04,0.17-0.16,0.3-0.35,0.41c-0.19,0.11-0.5,0.18-0.94,0.22c-0.24,0.03-0.48,0.06-0.71,0.09c-0.24,0.04-0.48,0.07-0.71,0.09
		v0.17V255.02z M202.81,264.21c0-0.22-0.05-0.39-0.16-0.48c-0.11-0.1-0.28-0.18-0.54-0.25c-0.39-0.1-0.59-0.32-0.59-0.65
		c0-0.2,0.06-0.35,0.19-0.46c0.13-0.11,0.37-0.17,0.74-0.17c0.57,0,1.03,0.05,1.37,0.15c0.48-0.01,1.02-0.06,1.63-0.13
		c0.61-0.07,1.23-0.15,1.87-0.25c0.64-0.1,1.27-0.2,1.9-0.29s1.21-0.18,1.75-0.25v-1.66c-1.28,0.15-2.52,0.34-3.74,0.57
		c-1.22,0.22-2.36,0.48-3.41,0.76c-0.48,0.13-0.9,0.06-1.26-0.19c-0.36-0.25-0.6-0.58-0.71-0.99c-0.07-0.24-0.06-0.41,0.02-0.53
		c0.08-0.11,0.32-0.16,0.71-0.15c1.09,0.03,2.25-0.04,3.46-0.21c1.21-0.17,2.41-0.37,3.59-0.61c0.49-0.1,0.97-0.21,1.43-0.35
		c0.46-0.13,0.91-0.21,1.35-0.24c0.74-0.04,1.09,0.22,1.05,0.78c-0.03,0.31-0.14,0.55-0.34,0.74l-0.15,1.96
		c0.39,0.11,0.59,0.36,0.59,0.76c0,0.22-0.1,0.39-0.3,0.48c-0.2,0.1-0.55,0.18-1.04,0.23c-1.19,0.11-2.38,0.25-3.56,0.42
		c-1.19,0.17-2.4,0.34-3.65,0.5v0.8c0,0.46,0.14,0.74,0.42,0.84c0.28,0.1,0.73,0.15,1.35,0.15c0.56,0,1.13-0.05,1.7-0.14
		c0.57-0.09,1.13-0.22,1.67-0.38c0.54-0.16,1.05-0.34,1.52-0.55c0.48-0.2,0.9-0.41,1.26-0.62c0.36-0.21,0.69-0.33,0.98-0.35
		c0.29-0.02,0.49,0.11,0.62,0.39c0.14,0.29,0.09,0.61-0.14,0.94c-0.23,0.33-0.54,0.59-0.94,0.77c-0.52,0.24-1.11,0.45-1.78,0.63
		c-0.67,0.18-1.34,0.34-2.01,0.47s-1.32,0.23-1.95,0.29c-0.62,0.06-1.15,0.09-1.57,0.07c-0.53-0.01-1.01-0.06-1.42-0.13
		s-0.76-0.18-1.04-0.33c-0.28-0.15-0.5-0.35-0.65-0.61c-0.15-0.26-0.23-0.6-0.23-1.02V264.21z"/>
	<path d="M219.89,257.82c0-0.2-0.07-0.34-0.22-0.42c-0.15-0.08-0.3-0.16-0.45-0.23c-0.2-0.07-0.35-0.16-0.45-0.26
		c-0.1-0.11-0.16-0.25-0.16-0.43c0-0.2,0.08-0.35,0.24-0.47s0.42-0.18,0.79-0.18c0.14,0,0.27,0,0.4,0.01
		c0.13,0.01,0.25,0.02,0.36,0.03c0.35-0.03,0.75-0.07,1.19-0.13c0.44-0.06,0.9-0.12,1.37-0.2c0.47-0.08,0.93-0.15,1.39-0.22
		c0.46-0.07,0.87-0.14,1.23-0.21v-2.94c-0.45,0.06-0.85,0.11-1.2,0.17c-0.35,0.06-0.69,0.12-1.03,0.2s-0.68,0.16-1.03,0.26
		c-0.35,0.1-0.76,0.21-1.22,0.34c-0.22,0.07-0.47,0.08-0.73,0.04c-0.26-0.04-0.5-0.12-0.74-0.23c-0.23-0.11-0.43-0.25-0.6-0.42
		c-0.17-0.17-0.27-0.35-0.32-0.55c-0.04-0.2-0.02-0.36,0.07-0.48c0.09-0.13,0.29-0.19,0.6-0.19c0.91,0,1.78-0.06,2.61-0.18
		c0.83-0.12,1.72-0.26,2.69-0.43c0.27-0.04,0.5-0.09,0.7-0.16s0.4-0.12,0.59-0.18c0.19-0.06,0.38-0.11,0.58-0.16
		c0.2-0.05,0.41-0.08,0.65-0.09c0.34-0.03,0.58,0.02,0.73,0.16c0.15,0.13,0.21,0.38,0.18,0.75c-0.01,0.15-0.05,0.3-0.12,0.43
		s-0.16,0.25-0.28,0.35l-0.15,3.18c0.18,0.04,0.33,0.11,0.44,0.21s0.17,0.24,0.17,0.42s-0.1,0.36-0.31,0.53
		c-0.2,0.17-0.55,0.28-1.04,0.34c-0.84,0.1-1.63,0.21-2.38,0.33c-0.74,0.12-1.51,0.24-2.31,0.37c0.03,0.14,0.04,0.25,0.04,0.32v2.08
		c0,0.87,0.41,1.28,1.22,1.24c1-0.04,1.89-0.23,2.68-0.58c0.79-0.34,1.57-0.8,2.32-1.38c0.32-0.25,0.65-0.38,0.98-0.39
		s0.55,0.13,0.66,0.41c0.07,0.15,0.09,0.31,0.05,0.45c-0.04,0.15-0.11,0.29-0.21,0.44c-0.1,0.15-0.24,0.29-0.4,0.42
		c-0.16,0.13-0.33,0.25-0.49,0.35c-1.02,0.59-2.1,1.04-3.22,1.35c-1.12,0.31-2.17,0.46-3.15,0.46c-0.91,0-1.6-0.21-2.05-0.62
		c-0.46-0.41-0.68-1.15-0.68-2.2V257.82z M230.82,249.19c0-0.24-0.01-0.42-0.04-0.55c-0.03-0.13-0.1-0.22-0.23-0.29
		c-0.15-0.08-0.29-0.18-0.41-0.28c-0.12-0.1-0.18-0.25-0.18-0.43c0-0.2,0.08-0.35,0.24-0.47c0.16-0.12,0.42-0.18,0.79-0.18
		c0.46,0,0.82,0.06,1.08,0.17c0.26,0.11,0.46,0.26,0.59,0.45c0.13,0.19,0.22,0.41,0.25,0.66c0.03,0.25,0.05,0.51,0.05,0.78v5.28
		c0.15-0.04,0.3-0.08,0.44-0.13c0.14-0.04,0.29-0.1,0.44-0.17c0.5-0.2,0.94-0.29,1.3-0.28c0.36,0.01,0.77,0.12,1.22,0.35
		c0.17,0.08,0.29,0.2,0.38,0.34c0.08,0.14,0.13,0.27,0.13,0.4c0,0.15-0.05,0.28-0.15,0.39c-0.1,0.11-0.3,0.17-0.61,0.2
		c-0.36,0.03-0.82,0.08-1.38,0.16c-0.55,0.08-1.15,0.17-1.78,0.28v7.34c0,0.28-0.02,0.59-0.06,0.93c-0.04,0.34-0.12,0.66-0.22,0.97
		c-0.1,0.31-0.24,0.56-0.4,0.77c-0.16,0.2-0.35,0.3-0.58,0.3c-0.21,0-0.37-0.05-0.48-0.16c-0.11-0.1-0.2-0.23-0.26-0.38
		c-0.06-0.15-0.1-0.31-0.12-0.48c-0.01-0.18-0.02-0.33-0.02-0.45V249.19z"/>
	<path d="M255.13,257.31c-0.71,0.06-1.5,0.13-2.34,0.23c-0.85,0.1-1.72,0.21-2.63,0.33c-0.9,0.12-1.81,0.25-2.72,0.39
		c-0.91,0.14-1.79,0.29-2.65,0.44c-0.86,0.15-1.66,0.31-2.41,0.46s-1.41,0.3-1.99,0.44c-0.34,0.08-0.65,0.11-0.93,0.07
		s-0.53-0.11-0.75-0.23s-0.4-0.26-0.56-0.43s-0.28-0.34-0.38-0.5c-0.13-0.24-0.14-0.43-0.03-0.59c0.11-0.15,0.33-0.22,0.68-0.19
		c0.39,0.01,0.89,0,1.49-0.03c0.6-0.03,1.27-0.09,2-0.16c0.73-0.07,1.5-0.15,2.32-0.25c0.82-0.1,1.64-0.21,2.45-0.33
		c0.81-0.12,1.6-0.24,2.35-0.36c0.76-0.12,1.45-0.23,2.08-0.35c0.67-0.13,1.37-0.28,2.09-0.46c0.72-0.18,1.38-0.29,1.97-0.32
		c0.81-0.03,1.22,0.25,1.22,0.82c0,0.27-0.11,0.49-0.31,0.68C255.89,257.18,255.57,257.28,255.13,257.31z M241.86,253.8
		c0-0.22-0.05-0.39-0.16-0.48s-0.28-0.18-0.54-0.25c-0.39-0.1-0.59-0.32-0.59-0.65c0-0.2,0.06-0.35,0.19-0.46
		c0.13-0.11,0.37-0.17,0.74-0.17c0.43,0,0.79,0.03,1.05,0.08c0.46,0,1-0.03,1.61-0.08s1.24-0.13,1.9-0.21
		c0.66-0.08,1.31-0.18,1.96-0.27c0.64-0.1,1.24-0.19,1.79-0.27v-1.45c-1.23,0.15-2.43,0.34-3.59,0.56s-2.25,0.47-3.29,0.75
		c-0.48,0.13-0.9,0.06-1.26-0.19c-0.36-0.25-0.6-0.58-0.72-0.99c-0.07-0.24-0.06-0.41,0.02-0.53c0.08-0.11,0.32-0.16,0.72-0.15
		c1.09,0.03,2.24-0.05,3.45-0.22c1.21-0.18,2.4-0.38,3.57-0.62c0.49-0.1,0.93-0.21,1.33-0.34c0.39-0.13,0.81-0.2,1.24-0.23
		c0.74-0.04,1.09,0.22,1.05,0.78c-0.03,0.32-0.15,0.57-0.38,0.76l-0.12,1.68c0.38,0.08,0.57,0.33,0.57,0.74
		c0,0.22-0.1,0.39-0.31,0.48s-0.55,0.18-1.04,0.23c-1.19,0.11-2.35,0.25-3.48,0.42c-1.13,0.17-2.3,0.34-3.52,0.53v0.32
		c0,0.46,0.14,0.74,0.42,0.84c0.28,0.1,0.73,0.15,1.35,0.15c0.56,0,1.12-0.05,1.68-0.14s1.1-0.21,1.63-0.36
		c0.53-0.15,1.02-0.32,1.49-0.52c0.47-0.2,0.89-0.4,1.25-0.61c0.37-0.21,0.69-0.33,0.98-0.35s0.49,0.11,0.62,0.39
		c0.14,0.29,0.09,0.61-0.14,0.94c-0.23,0.33-0.54,0.59-0.94,0.77c-0.52,0.24-1.11,0.45-1.76,0.62c-0.65,0.18-1.31,0.33-1.98,0.45
		c-0.67,0.13-1.3,0.22-1.91,0.27c-0.61,0.06-1.12,0.08-1.55,0.06c-0.53-0.01-1.01-0.06-1.42-0.13c-0.41-0.07-0.76-0.18-1.04-0.33
		c-0.28-0.15-0.5-0.35-0.65-0.61s-0.23-0.6-0.23-1.02V253.8z M242.28,264.95c0-0.22-0.05-0.39-0.16-0.48
		c-0.11-0.1-0.28-0.18-0.54-0.25c-0.39-0.1-0.59-0.32-0.59-0.65c0-0.2,0.06-0.35,0.19-0.46c0.13-0.11,0.37-0.17,0.74-0.17
		c0.43,0,0.79,0.03,1.05,0.08c0.46,0,1-0.03,1.61-0.08s1.24-0.13,1.9-0.21c0.66-0.08,1.31-0.18,1.96-0.27
		c0.65-0.1,1.24-0.19,1.79-0.27v-1.45c-1.23,0.15-2.43,0.34-3.59,0.56s-2.25,0.47-3.29,0.75c-0.48,0.13-0.9,0.06-1.26-0.19
		c-0.36-0.25-0.6-0.58-0.71-0.99c-0.07-0.24-0.06-0.41,0.02-0.53c0.08-0.11,0.32-0.16,0.71-0.15c1.09,0.03,2.24-0.05,3.45-0.22
		c1.21-0.18,2.4-0.38,3.58-0.62c0.49-0.1,0.93-0.21,1.32-0.34c0.39-0.13,0.81-0.2,1.24-0.23c0.74-0.04,1.09,0.22,1.05,0.78
		c-0.03,0.32-0.15,0.57-0.38,0.76l-0.13,1.68c0.38,0.08,0.57,0.33,0.57,0.74c0,0.22-0.1,0.39-0.3,0.48s-0.55,0.18-1.04,0.23
		c-1.19,0.11-2.35,0.25-3.48,0.42c-1.13,0.17-2.3,0.34-3.52,0.5v0.02v0.42c0,0.46,0.14,0.74,0.42,0.84c0.28,0.1,0.73,0.15,1.35,0.15
		c0.56,0,1.12-0.05,1.68-0.14c0.56-0.09,1.1-0.21,1.63-0.36c0.53-0.15,1.02-0.32,1.49-0.52c0.47-0.2,0.89-0.4,1.25-0.61
		c0.36-0.21,0.69-0.33,0.98-0.35s0.49,0.11,0.62,0.39c0.14,0.29,0.09,0.61-0.14,0.94s-0.54,0.59-0.94,0.77
		c-0.52,0.24-1.1,0.44-1.76,0.62c-0.65,0.18-1.31,0.33-1.98,0.45c-0.67,0.13-1.3,0.22-1.91,0.27c-0.61,0.06-1.12,0.08-1.55,0.06
		c-0.53-0.01-1.01-0.06-1.42-0.13s-0.76-0.18-1.04-0.33c-0.28-0.15-0.5-0.35-0.65-0.61c-0.15-0.26-0.23-0.6-0.23-1.02V264.95z"/>
	<path d="M273.66,253.78c0,0.74-0.15,1.42-0.44,2.04c-0.29,0.62-0.69,1.15-1.19,1.61c-0.5,0.46-1.07,0.81-1.72,1.06
		c-0.65,0.25-1.33,0.38-2.05,0.38c-0.58,0-1.11-0.09-1.61-0.26c-0.5-0.17-0.93-0.43-1.29-0.77s-0.65-0.75-0.85-1.25
		s-0.3-1.07-0.3-1.71c0-0.74,0.15-1.43,0.44-2.05c0.29-0.62,0.69-1.16,1.19-1.61c0.5-0.45,1.07-0.8,1.72-1.05
		c0.65-0.25,1.34-0.38,2.07-0.38c0.58,0,1.11,0.09,1.6,0.26c0.49,0.18,0.92,0.43,1.28,0.77c0.36,0.34,0.65,0.75,0.85,1.25
		C273.56,252.56,273.66,253.13,273.66,253.78z M268.97,251.51c-0.38,0.04-0.73,0.15-1.04,0.34s-0.59,0.41-0.81,0.69
		c-0.22,0.28-0.4,0.6-0.52,0.97c-0.12,0.36-0.18,0.76-0.18,1.18c0,0.81,0.22,1.45,0.67,1.92c0.45,0.47,1.04,0.66,1.79,0.58
		c0.38-0.04,0.73-0.15,1.04-0.34c0.32-0.18,0.58-0.42,0.81-0.7c0.22-0.29,0.4-0.61,0.51-0.98s0.18-0.75,0.18-1.16
		c0-0.83-0.22-1.47-0.67-1.93C270.31,251.61,269.71,251.42,268.97,251.51z M267.98,262.59c0-0.22-0.01-0.37-0.04-0.44
		c-0.03-0.07-0.11-0.14-0.23-0.21c-0.15-0.08-0.29-0.17-0.41-0.27s-0.18-0.24-0.18-0.42c0-0.2,0.08-0.35,0.24-0.47
		c0.16-0.12,0.42-0.18,0.79-0.18c0.45,0,0.81,0.05,1.07,0.16s0.47,0.24,0.61,0.41c0.14,0.17,0.23,0.36,0.27,0.59
		s0.06,0.46,0.06,0.69v1.66c0,0.22,0.04,0.4,0.13,0.54c0.08,0.13,0.2,0.24,0.36,0.32c0.15,0.08,0.34,0.13,0.56,0.15
		c0.22,0.02,0.46,0.03,0.73,0.03c0.56,0,1.12-0.05,1.67-0.14c0.55-0.09,1.09-0.22,1.61-0.38c0.52-0.16,1-0.34,1.46-0.55
		c0.46-0.2,0.87-0.41,1.23-0.62c0.36-0.21,0.69-0.33,0.98-0.35s0.49,0.11,0.62,0.39c0.14,0.29,0.09,0.61-0.14,0.94
		c-0.23,0.33-0.54,0.59-0.94,0.77c-0.52,0.24-1.1,0.45-1.75,0.64c-0.65,0.19-1.29,0.35-1.95,0.47c-0.65,0.13-1.28,0.22-1.88,0.29
		c-0.6,0.07-1.12,0.09-1.54,0.06c-0.49-0.01-0.94-0.06-1.35-0.14c-0.41-0.08-0.76-0.21-1.05-0.4c-0.29-0.19-0.53-0.45-0.69-0.78
		c-0.17-0.33-0.25-0.76-0.25-1.29V262.59z M276.25,249.19c0-0.24-0.01-0.42-0.04-0.55c-0.03-0.13-0.11-0.22-0.23-0.29
		c-0.15-0.08-0.29-0.18-0.41-0.28s-0.18-0.25-0.18-0.43c0-0.2,0.08-0.35,0.24-0.47c0.16-0.12,0.42-0.18,0.79-0.18
		c0.46,0,0.82,0.06,1.08,0.17c0.26,0.11,0.46,0.26,0.59,0.45c0.13,0.19,0.22,0.41,0.25,0.66s0.05,0.51,0.05,0.78v3.81
		c0.15-0.04,0.3-0.08,0.44-0.13c0.14-0.04,0.29-0.1,0.44-0.17c0.5-0.2,0.94-0.29,1.3-0.28c0.36,0.01,0.77,0.12,1.22,0.35
		c0.17,0.08,0.29,0.2,0.38,0.34c0.08,0.14,0.13,0.27,0.13,0.4c0,0.15-0.05,0.28-0.15,0.39c-0.1,0.1-0.3,0.17-0.61,0.2
		c-0.36,0.03-0.82,0.08-1.38,0.16c-0.55,0.08-1.15,0.17-1.78,0.28v4.25c0,0.28-0.02,0.59-0.06,0.93c-0.04,0.34-0.12,0.66-0.22,0.97
		c-0.1,0.31-0.24,0.56-0.4,0.77s-0.35,0.3-0.58,0.3c-0.21,0-0.37-0.05-0.48-0.16c-0.11-0.1-0.2-0.23-0.26-0.38
		c-0.06-0.15-0.1-0.31-0.12-0.48s-0.02-0.33-0.02-0.45V249.19z"/>
	<path d="M290.59,253.48c-0.17,0.41-0.36,0.83-0.57,1.26c-0.21,0.44-0.45,0.88-0.71,1.33c0.43,0.38,0.85,0.73,1.24,1.06
		c0.39,0.33,0.77,0.62,1.14,0.87c0.31,0.22,0.58,0.41,0.81,0.55s0.44,0.26,0.63,0.37c0.19,0.11,0.36,0.21,0.51,0.33
		s0.31,0.25,0.46,0.42c0.2,0.24,0.28,0.49,0.25,0.76c-0.03,0.27-0.16,0.5-0.4,0.71c-0.2,0.17-0.44,0.26-0.74,0.27
		c-0.29,0.01-0.62-0.17-0.99-0.55c-0.45-0.48-1-1.01-1.66-1.6s-1.37-1.2-2.12-1.83c-0.67,1-1.42,1.96-2.25,2.9
		c-0.83,0.94-1.68,1.81-2.57,2.61c-0.1,0.08-0.23,0.15-0.4,0.21c-0.17,0.06-0.3,0.04-0.4-0.06c-0.11-0.11-0.13-0.25-0.06-0.41
		c0.07-0.16,0.18-0.32,0.34-0.47c0.55-0.62,1.08-1.3,1.6-2.06c0.52-0.76,1-1.54,1.45-2.34c0.45-0.81,0.86-1.62,1.22-2.43
		c0.36-0.81,0.67-1.58,0.9-2.31c0.08-0.25,0.14-0.48,0.16-0.68c0.02-0.2-0.05-0.4-0.2-0.6c-0.08-0.11-0.16-0.22-0.23-0.34
		s-0.06-0.27,0.02-0.46c0.07-0.15,0.21-0.25,0.41-0.29c0.2-0.04,0.47,0.01,0.79,0.17c0.59,0.27,1.03,0.61,1.31,1.02
		C290.82,252.29,290.84,252.83,290.59,253.48z M296.01,249.19c0-0.24-0.01-0.42-0.04-0.55c-0.03-0.13-0.11-0.22-0.23-0.29
		c-0.15-0.08-0.29-0.18-0.41-0.28s-0.18-0.25-0.18-0.43c0-0.2,0.08-0.35,0.24-0.47c0.16-0.12,0.42-0.18,0.79-0.18
		c0.46,0,0.82,0.06,1.08,0.17c0.26,0.11,0.46,0.26,0.59,0.45c0.13,0.19,0.22,0.41,0.25,0.66s0.05,0.51,0.05,0.78v5.28
		c0.15-0.04,0.3-0.08,0.44-0.13c0.14-0.04,0.29-0.1,0.44-0.17c0.5-0.2,0.94-0.29,1.3-0.28c0.36,0.01,0.77,0.12,1.22,0.35
		c0.17,0.08,0.29,0.2,0.38,0.34c0.08,0.14,0.13,0.27,0.13,0.4c0,0.15-0.05,0.28-0.15,0.39c-0.1,0.11-0.3,0.17-0.61,0.2
		c-0.36,0.03-0.82,0.08-1.38,0.16c-0.55,0.08-1.15,0.17-1.78,0.28v7.34c0,0.28-0.02,0.59-0.06,0.93c-0.04,0.34-0.12,0.66-0.22,0.97
		c-0.1,0.31-0.24,0.56-0.4,0.77c-0.16,0.2-0.35,0.3-0.58,0.3c-0.21,0-0.37-0.05-0.48-0.16s-0.2-0.23-0.26-0.38
		c-0.06-0.15-0.1-0.31-0.12-0.48s-0.02-0.33-0.02-0.45V249.19z"/>
	<path d="M310.77,253.48c-0.17,0.41-0.36,0.83-0.57,1.26c-0.21,0.44-0.45,0.88-0.71,1.33c0.43,0.38,0.85,0.73,1.24,1.06
		c0.39,0.33,0.77,0.62,1.13,0.87c0.31,0.22,0.58,0.41,0.81,0.55c0.23,0.14,0.44,0.26,0.63,0.37c0.19,0.11,0.36,0.21,0.52,0.33
		s0.31,0.25,0.46,0.42c0.2,0.24,0.28,0.49,0.25,0.76s-0.16,0.5-0.4,0.71c-0.2,0.17-0.44,0.26-0.74,0.27
		c-0.29,0.01-0.62-0.17-0.99-0.55c-0.45-0.48-1-1.01-1.66-1.6s-1.37-1.2-2.12-1.83c-0.67,1-1.42,1.96-2.25,2.9
		c-0.83,0.94-1.68,1.81-2.57,2.61c-0.1,0.08-0.23,0.15-0.4,0.21c-0.17,0.06-0.3,0.04-0.4-0.06c-0.11-0.11-0.13-0.25-0.06-0.41
		c0.07-0.16,0.18-0.32,0.34-0.47c0.55-0.62,1.08-1.3,1.6-2.06c0.52-0.76,1-1.54,1.45-2.34c0.45-0.81,0.85-1.62,1.22-2.43
		c0.36-0.81,0.67-1.58,0.9-2.31c0.08-0.25,0.14-0.48,0.16-0.68c0.02-0.2-0.04-0.4-0.2-0.6c-0.08-0.11-0.16-0.22-0.23-0.34
		s-0.06-0.27,0.02-0.46c0.07-0.15,0.21-0.25,0.41-0.29s0.47,0.01,0.79,0.17c0.59,0.27,1.03,0.61,1.31,1.02
		C311.01,252.29,311.03,252.83,310.77,253.48z M317.15,255.48c-0.18,0.04-0.35,0.08-0.49,0.13c-0.15,0.04-0.28,0.08-0.39,0.13
		c-0.24,0.1-0.48,0.19-0.71,0.26s-0.48,0.13-0.73,0.15s-0.5,0-0.76-0.05c-0.26-0.06-0.52-0.18-0.79-0.36
		c-0.34-0.22-0.5-0.45-0.5-0.67c0-0.28,0.18-0.45,0.55-0.5c0.49-0.07,1.08-0.15,1.76-0.25s1.37-0.2,2.07-0.32v-4.79
		c0-0.24-0.01-0.42-0.04-0.55c-0.03-0.13-0.1-0.22-0.23-0.29c-0.15-0.08-0.29-0.18-0.41-0.28c-0.12-0.1-0.18-0.25-0.18-0.43
		c0-0.2,0.08-0.35,0.24-0.47c0.16-0.12,0.42-0.18,0.79-0.18c0.46,0,0.82,0.06,1.08,0.17c0.26,0.11,0.46,0.26,0.59,0.45
		c0.13,0.19,0.22,0.41,0.25,0.66s0.05,0.51,0.05,0.78v14.15c0,0.28-0.02,0.59-0.06,0.93c-0.04,0.34-0.12,0.66-0.22,0.97
		c-0.11,0.31-0.24,0.56-0.4,0.77c-0.16,0.2-0.35,0.3-0.58,0.3c-0.21,0-0.37-0.05-0.48-0.16c-0.11-0.1-0.2-0.23-0.26-0.38
		c-0.06-0.15-0.1-0.31-0.12-0.48c-0.01-0.18-0.02-0.33-0.02-0.45V255.48z"/>
	<path d="M164.58,283.05c0-0.2-0.07-0.34-0.22-0.42c-0.15-0.08-0.3-0.16-0.45-0.23c-0.2-0.07-0.35-0.16-0.45-0.26
		c-0.1-0.11-0.16-0.25-0.16-0.43c0-0.2,0.08-0.35,0.24-0.47c0.16-0.12,0.42-0.18,0.79-0.18c0.14,0,0.27,0,0.4,0.01
		c0.13,0.01,0.25,0.02,0.36,0.03c0.35-0.03,0.75-0.07,1.19-0.13c0.44-0.06,0.9-0.12,1.37-0.2c0.47-0.08,0.93-0.15,1.39-0.22
		c0.46-0.07,0.87-0.14,1.23-0.21v-2.94c-0.45,0.06-0.85,0.11-1.2,0.17c-0.35,0.06-0.69,0.12-1.03,0.2
		c-0.34,0.08-0.68,0.16-1.03,0.26s-0.76,0.21-1.22,0.34c-0.22,0.07-0.47,0.08-0.73,0.04s-0.5-0.12-0.74-0.23
		c-0.23-0.11-0.43-0.25-0.6-0.42c-0.17-0.17-0.27-0.35-0.32-0.55c-0.04-0.2-0.02-0.36,0.07-0.48c0.09-0.13,0.29-0.19,0.6-0.19
		c0.91,0,1.78-0.06,2.61-0.18s1.72-0.26,2.69-0.43c0.27-0.04,0.5-0.09,0.7-0.16c0.2-0.06,0.4-0.12,0.59-0.18
		c0.19-0.06,0.38-0.11,0.58-0.16c0.2-0.05,0.41-0.08,0.65-0.09c0.34-0.03,0.58,0.02,0.73,0.16c0.15,0.13,0.21,0.38,0.18,0.75
		c-0.01,0.15-0.05,0.3-0.12,0.43s-0.16,0.25-0.28,0.35l-0.15,3.18c0.18,0.04,0.33,0.11,0.44,0.21c0.11,0.1,0.17,0.24,0.17,0.42
		s-0.1,0.36-0.3,0.53c-0.2,0.17-0.55,0.28-1.04,0.34c-0.84,0.1-1.63,0.21-2.38,0.33c-0.74,0.12-1.51,0.24-2.31,0.37
		c0.03,0.14,0.04,0.25,0.04,0.32v2.08c0,0.87,0.41,1.28,1.22,1.24c1-0.04,1.89-0.23,2.68-0.58c0.79-0.34,1.57-0.8,2.32-1.38
		c0.32-0.25,0.65-0.38,0.98-0.39c0.33-0.01,0.55,0.13,0.66,0.41c0.07,0.15,0.09,0.31,0.05,0.45c-0.04,0.15-0.1,0.29-0.21,0.44
		c-0.1,0.15-0.24,0.29-0.4,0.42c-0.16,0.13-0.33,0.25-0.49,0.35c-1.02,0.59-2.1,1.04-3.22,1.35c-1.12,0.31-2.17,0.46-3.15,0.46
		c-0.91,0-1.59-0.21-2.05-0.62c-0.46-0.41-0.68-1.15-0.68-2.2V283.05z M176.25,274.43c0-0.24-0.01-0.42-0.04-0.55
		c-0.03-0.13-0.1-0.22-0.23-0.29c-0.15-0.08-0.29-0.18-0.41-0.28s-0.18-0.25-0.18-0.43c0-0.2,0.08-0.35,0.24-0.47
		c0.16-0.12,0.42-0.18,0.79-0.18c0.46,0,0.82,0.06,1.08,0.17c0.26,0.11,0.46,0.26,0.59,0.45c0.13,0.19,0.22,0.41,0.25,0.66
		s0.05,0.51,0.05,0.78v14.15c0,0.28-0.02,0.59-0.06,0.93c-0.04,0.34-0.12,0.66-0.22,0.97c-0.11,0.31-0.24,0.56-0.4,0.77
		c-0.16,0.2-0.35,0.3-0.58,0.3c-0.21,0-0.37-0.05-0.48-0.16s-0.2-0.23-0.26-0.38c-0.06-0.15-0.1-0.31-0.12-0.48
		c-0.01-0.18-0.02-0.33-0.02-0.45V274.43z"/>
	<path d="M192.44,280.99c0,0.73-0.15,1.41-0.44,2.05c-0.29,0.64-0.69,1.2-1.2,1.67c-0.5,0.48-1.09,0.85-1.76,1.12
		c-0.67,0.27-1.36,0.41-2.09,0.41c-0.63,0-1.21-0.1-1.72-0.29s-0.97-0.47-1.35-0.83c-0.38-0.36-0.67-0.79-0.88-1.3
		c-0.21-0.51-0.32-1.08-0.32-1.69c0-0.74,0.15-1.43,0.45-2.05c0.3-0.62,0.71-1.16,1.23-1.62s1.11-0.81,1.78-1.07
		c0.67-0.26,1.37-0.39,2.11-0.39c0.62,0,1.18,0.09,1.69,0.27c0.51,0.18,0.95,0.45,1.32,0.8c0.37,0.35,0.66,0.77,0.86,1.26
		C192.34,279.82,192.44,280.37,192.44,280.99z M187.61,278.72c-0.36,0.04-0.71,0.14-1.03,0.31c-0.32,0.16-0.61,0.38-0.85,0.64
		c-0.25,0.27-0.44,0.59-0.59,0.97c-0.15,0.38-0.22,0.81-0.22,1.3c0,0.48,0.07,0.88,0.21,1.21c0.14,0.33,0.33,0.6,0.57,0.8
		c0.24,0.2,0.52,0.34,0.83,0.41c0.32,0.07,0.65,0.08,1,0.04c0.35-0.04,0.69-0.14,1.02-0.29s0.62-0.36,0.86-0.63
		c0.25-0.27,0.44-0.59,0.59-0.97c0.15-0.38,0.22-0.81,0.22-1.3c0-0.46-0.07-0.86-0.21-1.2c-0.14-0.34-0.33-0.61-0.57-0.81
		c-0.24-0.2-0.52-0.34-0.83-0.42S187.96,278.68,187.61,278.72z M194.86,274.43c0-0.24-0.01-0.42-0.04-0.55
		c-0.03-0.13-0.1-0.22-0.23-0.29c-0.15-0.08-0.29-0.18-0.41-0.28c-0.12-0.1-0.18-0.25-0.18-0.43c0-0.2,0.08-0.35,0.24-0.47
		c0.16-0.12,0.42-0.18,0.79-0.18c0.46,0,0.82,0.06,1.08,0.17c0.26,0.11,0.46,0.26,0.59,0.45c0.13,0.19,0.22,0.41,0.25,0.66
		c0.03,0.25,0.05,0.51,0.05,0.78v5.28c0.15-0.04,0.3-0.08,0.44-0.13c0.14-0.04,0.29-0.1,0.44-0.17c0.5-0.2,0.94-0.29,1.3-0.28
		c0.36,0.01,0.77,0.12,1.22,0.35c0.17,0.08,0.29,0.2,0.38,0.34c0.08,0.14,0.13,0.27,0.13,0.4c0,0.15-0.05,0.28-0.15,0.39
		c-0.1,0.11-0.3,0.17-0.61,0.2c-0.36,0.03-0.82,0.08-1.38,0.16c-0.55,0.08-1.15,0.17-1.78,0.28v7.34c0,0.28-0.02,0.59-0.06,0.93
		c-0.04,0.34-0.12,0.66-0.22,0.97c-0.1,0.31-0.24,0.56-0.4,0.77c-0.16,0.2-0.35,0.3-0.58,0.3c-0.21,0-0.37-0.05-0.48-0.16
		c-0.11-0.1-0.2-0.23-0.26-0.38c-0.06-0.15-0.1-0.31-0.12-0.48c-0.01-0.18-0.02-0.33-0.02-0.45V274.43z"/>
	<path d="M202.37,287.85c0.64-0.67,1.26-1.34,1.84-2c0.58-0.66,1.12-1.34,1.63-2.03s0.97-1.42,1.41-2.17
		c0.43-0.75,0.83-1.55,1.2-2.41c0.14-0.32,0.19-0.59,0.15-0.81s-0.29-0.29-0.74-0.22c-0.59,0.08-1.18,0.2-1.78,0.36
		s-1.27,0.33-2.03,0.53c-0.48,0.13-0.87,0.06-1.19-0.19s-0.54-0.58-0.68-0.99c-0.15-0.49,0.06-0.72,0.63-0.67
		c1.09,0.07,2.17,0.02,3.24-0.14c1.06-0.16,2.17-0.36,3.3-0.6c0.6-0.13,1.06-0.13,1.37-0.02c0.31,0.11,0.5,0.3,0.59,0.58
		c0.08,0.27,0.08,0.61-0.02,1.01c-0.1,0.4-0.26,0.82-0.48,1.25c-1.04,2.05-2.19,3.81-3.47,5.3c-1.28,1.49-2.73,2.83-4.35,4.02
		c-0.2,0.15-0.38,0.25-0.54,0.28c-0.16,0.03-0.3,0-0.41-0.12c-0.11-0.13-0.12-0.28-0.03-0.46
		C202.09,288.17,202.21,288,202.37,287.85z M214.63,274.43c0-0.24-0.01-0.42-0.04-0.55c-0.03-0.13-0.1-0.22-0.23-0.29
		c-0.15-0.08-0.29-0.18-0.41-0.28c-0.12-0.1-0.18-0.25-0.18-0.43c0-0.2,0.08-0.35,0.24-0.47c0.16-0.12,0.42-0.18,0.79-0.18
		c0.46,0,0.82,0.06,1.08,0.17c0.26,0.11,0.46,0.26,0.59,0.45c0.13,0.19,0.22,0.41,0.25,0.66c0.03,0.25,0.05,0.51,0.05,0.78v5.28
		c0.15-0.04,0.3-0.08,0.44-0.13c0.14-0.04,0.29-0.1,0.44-0.17c0.5-0.2,0.94-0.29,1.3-0.28c0.36,0.01,0.77,0.12,1.22,0.35
		c0.17,0.08,0.29,0.2,0.38,0.34c0.08,0.14,0.13,0.27,0.13,0.4c0,0.15-0.05,0.28-0.15,0.39c-0.1,0.11-0.3,0.17-0.61,0.2
		c-0.36,0.03-0.82,0.08-1.38,0.16c-0.55,0.08-1.15,0.17-1.78,0.28v7.34c0,0.28-0.02,0.59-0.06,0.93c-0.04,0.34-0.12,0.66-0.22,0.97
		c-0.1,0.31-0.24,0.56-0.4,0.77c-0.16,0.2-0.35,0.3-0.58,0.3c-0.21,0-0.37-0.05-0.48-0.16c-0.11-0.1-0.2-0.23-0.26-0.38
		c-0.06-0.15-0.1-0.31-0.12-0.48c-0.01-0.18-0.02-0.33-0.02-0.45V274.43z"/>
	<path d="M240.28,286.37c-0.73,0.27-1.59,0.56-2.58,0.88c-0.99,0.32-1.99,0.63-3,0.94c-1.01,0.3-1.97,0.58-2.88,0.82
		c-0.91,0.25-1.66,0.42-2.25,0.52c-0.29,0.04-0.58,0.03-0.86-0.02c-0.28-0.06-0.54-0.14-0.77-0.26c-0.23-0.12-0.43-0.26-0.59-0.41
		c-0.16-0.15-0.27-0.31-0.33-0.46c-0.1-0.25-0.07-0.44,0.09-0.58s0.4-0.2,0.73-0.2c0.39,0.01,0.81,0,1.26-0.03
		c0.45-0.03,0.85-0.07,1.22-0.12c0.27-0.03,0.59-0.07,0.97-0.14c0.38-0.06,0.81-0.14,1.28-0.24v-1.47c-0.91-0.04-1.63-0.28-2.17-0.7
		s-0.8-1-0.8-1.71c0-0.42,0.1-0.82,0.29-1.2c0.2-0.38,0.47-0.72,0.83-1.01s0.79-0.54,1.28-0.75s1.05-0.34,1.67-0.41
		c0.6-0.08,1.16-0.08,1.66,0c0.5,0.08,0.93,0.23,1.28,0.44c0.35,0.21,0.62,0.48,0.82,0.82s0.29,0.71,0.29,1.14
		c0,0.73-0.27,1.37-0.81,1.91c-0.54,0.55-1.27,0.95-2.18,1.2v1.24c0.93-0.22,1.86-0.46,2.82-0.72c0.95-0.25,1.85-0.51,2.69-0.78
		v-10.64c0-0.24-0.01-0.42-0.04-0.55c-0.03-0.13-0.1-0.22-0.23-0.29c-0.15-0.08-0.29-0.18-0.41-0.28c-0.12-0.1-0.18-0.25-0.18-0.43
		c0-0.2,0.08-0.35,0.24-0.47c0.16-0.12,0.42-0.18,0.79-0.18c0.46,0,0.82,0.06,1.08,0.17c0.26,0.11,0.46,0.26,0.59,0.45
		c0.13,0.19,0.22,0.41,0.25,0.66c0.03,0.25,0.05,0.51,0.05,0.78v5.28c0.15-0.04,0.3-0.08,0.44-0.13c0.14-0.04,0.29-0.1,0.44-0.17
		c0.5-0.2,0.94-0.29,1.3-0.28c0.36,0.01,0.77,0.12,1.22,0.35c0.17,0.08,0.29,0.2,0.38,0.34c0.08,0.14,0.13,0.27,0.13,0.4
		c0,0.15-0.05,0.28-0.15,0.39c-0.1,0.11-0.3,0.17-0.61,0.2c-0.36,0.03-0.82,0.08-1.38,0.16c-0.55,0.08-1.15,0.17-1.78,0.28v7.34
		c0,0.28-0.02,0.59-0.06,0.93c-0.04,0.34-0.12,0.66-0.22,0.97c-0.1,0.31-0.24,0.56-0.4,0.77c-0.16,0.2-0.35,0.3-0.58,0.3
		c-0.21,0-0.37-0.05-0.48-0.16c-0.11-0.1-0.2-0.23-0.26-0.38c-0.06-0.15-0.1-0.31-0.12-0.48c-0.01-0.18-0.02-0.33-0.02-0.45V286.37z
		 M238.39,278.38c-0.74,0.07-1.5,0.16-2.28,0.27c-0.78,0.11-1.55,0.23-2.31,0.37c-0.76,0.13-1.51,0.28-2.23,0.43
		c-0.72,0.15-1.39,0.32-2.01,0.48c-0.48,0.13-0.89,0.06-1.23-0.19c-0.34-0.25-0.59-0.58-0.75-0.99c-0.2-0.49-0.02-0.71,0.53-0.67
		c0.42,0.04,0.92,0.04,1.49-0.01c0.57-0.05,1.19-0.12,1.85-0.21c0.66-0.09,1.34-0.2,2.04-0.32s1.38-0.24,2.04-0.37
		c0.57-0.11,1.09-0.23,1.54-0.36s0.93-0.2,1.45-0.23c0.29-0.01,0.53,0.04,0.69,0.17c0.17,0.13,0.24,0.34,0.21,0.63
		c-0.01,0.24-0.11,0.46-0.27,0.65C238.98,278.24,238.73,278.36,238.39,278.38z M236.18,275.15c-0.03,0.39-0.13,0.69-0.3,0.89
		c-0.18,0.2-0.45,0.33-0.81,0.39c-0.28,0.04-0.54,0.08-0.77,0.12c-0.23,0.04-0.46,0.07-0.68,0.1c-0.22,0.04-0.45,0.08-0.67,0.13
		c-0.22,0.05-0.48,0.11-0.76,0.18c-0.35,0.08-0.67,0.03-0.95-0.17c-0.28-0.2-0.5-0.43-0.65-0.71c-0.17-0.31-0.2-0.52-0.1-0.62
		c0.1-0.1,0.33-0.16,0.69-0.18c0.71-0.03,1.35-0.07,1.9-0.14c0.55-0.06,1.1-0.17,1.63-0.33c0.14-0.03,0.28-0.06,0.43-0.09
		c0.15-0.04,0.31-0.07,0.49-0.09c0.24-0.03,0.39,0.01,0.46,0.1C236.17,274.82,236.2,274.96,236.18,275.15z M231.75,282.86
		c0,0.41,0.18,0.71,0.55,0.91c0.36,0.2,0.83,0.27,1.41,0.2c0.55-0.07,1-0.25,1.37-0.54c0.36-0.29,0.55-0.63,0.55-1.04
		c0-0.42-0.18-0.73-0.55-0.91c-0.36-0.19-0.82-0.25-1.37-0.18c-0.58,0.07-1.04,0.24-1.41,0.52
		C231.93,282.1,231.75,282.44,231.75,282.86z"/>
	<path d="M249.18,278.11c0-0.15-0.01-0.28-0.04-0.37c-0.03-0.09-0.07-0.17-0.13-0.23c-0.06-0.06-0.13-0.11-0.21-0.15
		c-0.08-0.03-0.18-0.08-0.29-0.14c-0.18-0.08-0.33-0.17-0.44-0.27c-0.11-0.1-0.17-0.24-0.17-0.42c0-0.2,0.08-0.35,0.24-0.47
		s0.42-0.18,0.79-0.18c0.49,0,0.9,0.04,1.23,0.12c0.33,0.08,0.59,0.19,0.79,0.34c0.2,0.15,0.33,0.32,0.41,0.52
		c0.08,0.2,0.12,0.42,0.12,0.67v3.49c0,0.45,0.1,0.76,0.3,0.95s0.51,0.27,0.91,0.27c0.81,0,1.67-0.18,2.58-0.53s1.73-0.8,2.49-1.35
		c0.32-0.24,0.64-0.38,0.97-0.42s0.54,0.08,0.65,0.36c0.07,0.15,0.09,0.31,0.05,0.46s-0.11,0.3-0.21,0.45
		c-0.11,0.15-0.24,0.28-0.4,0.41c-0.16,0.13-0.33,0.24-0.49,0.34c-1.02,0.56-2.1,1.01-3.23,1.33c-1.13,0.33-2.18,0.49-3.16,0.49
		c-0.91,0-1.6-0.21-2.06-0.62c-0.46-0.41-0.69-1.15-0.69-2.2V278.11z M252.61,287.15c0.15-0.34,0.11-0.65-0.13-0.95
		c-0.11-0.15-0.2-0.3-0.25-0.44c-0.05-0.14-0.05-0.29,0.02-0.44c0.08-0.15,0.22-0.27,0.42-0.34c0.2-0.07,0.46-0.03,0.78,0.13
		c0.29,0.13,0.56,0.27,0.79,0.43c0.23,0.16,0.41,0.34,0.54,0.55c0.13,0.2,0.19,0.44,0.18,0.69c-0.01,0.26-0.1,0.55-0.29,0.87
		c-0.07,0.11-0.14,0.22-0.2,0.32c-0.06,0.1-0.13,0.2-0.2,0.29c0.08,0.03,0.15,0.05,0.21,0.06c0.32,0.1,0.63,0.19,0.92,0.28
		c0.29,0.09,0.51,0.18,0.66,0.26c0.27,0.15,0.41,0.35,0.44,0.59c0.03,0.24-0.05,0.46-0.23,0.67c-0.24,0.25-0.49,0.37-0.76,0.36
		c-0.27-0.01-0.55-0.1-0.84-0.27c-0.2-0.11-0.4-0.23-0.61-0.36c-0.21-0.13-0.44-0.26-0.67-0.4c-0.62,0.71-1.26,1.35-1.94,1.91
		c-0.68,0.56-1.37,1.06-2.07,1.49c-0.2,0.13-0.39,0.21-0.58,0.25c-0.19,0.04-0.32,0.02-0.39-0.06c-0.07-0.08-0.07-0.18-0.01-0.29
		c0.06-0.11,0.2-0.27,0.41-0.46c0.85-0.8,1.59-1.61,2.21-2.44C251.63,289.04,252.16,288.13,252.61,287.15z M261.48,286.44
		c-0.13,0.24-0.26,0.47-0.39,0.69c-0.13,0.22-0.28,0.45-0.43,0.67c0.2,0.1,0.38,0.19,0.56,0.26s0.34,0.14,0.49,0.2
		c0.41,0.18,0.83,0.33,1.28,0.44c0.45,0.11,0.89,0.29,1.32,0.53c0.32,0.18,0.52,0.41,0.6,0.67c0.08,0.27,0.03,0.52-0.16,0.76
		c-0.21,0.28-0.48,0.42-0.81,0.43c-0.33,0.01-0.65-0.08-0.96-0.26c-0.41-0.24-0.9-0.52-1.47-0.85c-0.57-0.33-1.16-0.66-1.77-0.98
		c-0.55,0.66-1.15,1.27-1.8,1.84c-0.65,0.57-1.33,1.1-2.05,1.59c-0.2,0.14-0.38,0.24-0.56,0.31s-0.31,0.05-0.41-0.05
		c-0.15-0.14-0.04-0.41,0.36-0.8c0.9-0.84,1.68-1.76,2.35-2.77c0.67-1,1.24-2.09,1.73-3.27c0.14-0.29,0.1-0.58-0.13-0.86
		c-0.11-0.15-0.2-0.3-0.25-0.44s-0.04-0.3,0.04-0.48c0.07-0.14,0.2-0.24,0.4-0.3c0.2-0.06,0.46-0.02,0.78,0.14
		c0.28,0.13,0.53,0.27,0.76,0.43s0.4,0.34,0.54,0.55s0.2,0.43,0.21,0.69C261.73,285.82,261.65,286.12,261.48,286.44z M260.05,274.43
		c0-0.24-0.02-0.42-0.04-0.55c-0.03-0.13-0.11-0.22-0.23-0.29c-0.15-0.08-0.29-0.18-0.41-0.28s-0.18-0.25-0.18-0.43
		c0-0.2,0.08-0.35,0.24-0.47c0.16-0.12,0.42-0.18,0.79-0.18c0.46,0,0.82,0.06,1.08,0.17s0.46,0.26,0.59,0.45
		c0.13,0.19,0.22,0.41,0.25,0.66s0.05,0.51,0.05,0.78v2.96c0.15-0.04,0.3-0.08,0.44-0.13s0.29-0.1,0.44-0.17
		c0.5-0.2,0.94-0.29,1.3-0.28c0.36,0.01,0.77,0.12,1.22,0.35c0.17,0.08,0.29,0.2,0.38,0.34s0.12,0.27,0.12,0.4
		c0,0.15-0.05,0.28-0.15,0.39c-0.1,0.1-0.3,0.17-0.61,0.2c-0.37,0.03-0.82,0.08-1.38,0.16c-0.55,0.08-1.15,0.17-1.78,0.28v1.64
		c0,0.28-0.02,0.59-0.06,0.93c-0.04,0.34-0.12,0.66-0.22,0.97c-0.1,0.31-0.24,0.56-0.4,0.77c-0.16,0.2-0.35,0.3-0.58,0.3
		c-0.21,0-0.37-0.05-0.48-0.16c-0.11-0.1-0.2-0.23-0.26-0.38c-0.06-0.15-0.1-0.31-0.12-0.48c-0.01-0.17-0.02-0.33-0.02-0.45V274.43z
		"/>
	<path d="M268.74,279.16c0-0.15-0.01-0.28-0.04-0.37s-0.07-0.17-0.13-0.23c-0.06-0.06-0.13-0.11-0.21-0.15s-0.18-0.08-0.29-0.14
		c-0.18-0.08-0.33-0.18-0.44-0.27s-0.17-0.24-0.17-0.42c0-0.2,0.08-0.35,0.24-0.47c0.16-0.12,0.42-0.18,0.79-0.18
		c0.55,0,1.01,0.06,1.39,0.17c1.25-0.04,2.5-0.2,3.74-0.48c0.25-0.06,0.49-0.12,0.71-0.19c0.22-0.07,0.43-0.14,0.63-0.2
		c0.2-0.06,0.41-0.12,0.62-0.16c0.21-0.04,0.44-0.07,0.69-0.08c0.32-0.01,0.6,0.06,0.83,0.23c0.23,0.17,0.35,0.43,0.35,0.8
		c0,0.22-0.1,0.38-0.3,0.46s-0.55,0.15-1.04,0.21c-0.84,0.08-1.67,0.18-2.5,0.29c-0.83,0.11-1.69,0.23-2.59,0.36
		c0.01,0.06,0.02,0.13,0.02,0.23v5.78c0,0.45,0.1,0.76,0.31,0.95c0.2,0.18,0.51,0.27,0.91,0.27c0.81,0,1.67-0.17,2.58-0.53
		s1.74-0.8,2.49-1.35c0.32-0.24,0.64-0.38,0.97-0.42c0.32-0.04,0.54,0.08,0.65,0.36c0.07,0.15,0.09,0.31,0.05,0.46
		s-0.11,0.3-0.21,0.45c-0.11,0.15-0.24,0.28-0.4,0.41c-0.16,0.13-0.33,0.24-0.49,0.34c-1.02,0.56-2.1,1.01-3.23,1.34
		c-1.13,0.33-2.18,0.49-3.17,0.49c-0.91,0-1.6-0.21-2.06-0.62s-0.69-1.15-0.69-2.2V279.16z M279.82,274.43
		c0-0.24-0.01-0.42-0.04-0.55c-0.03-0.13-0.11-0.22-0.23-0.29c-0.15-0.08-0.29-0.18-0.41-0.28s-0.18-0.25-0.18-0.43
		c0-0.2,0.08-0.35,0.24-0.47c0.16-0.12,0.42-0.18,0.79-0.18c0.46,0,0.82,0.06,1.08,0.17c0.26,0.11,0.46,0.26,0.59,0.45
		c0.13,0.19,0.22,0.41,0.25,0.66s0.05,0.51,0.05,0.78v5.28c0.15-0.04,0.3-0.08,0.44-0.13c0.14-0.04,0.29-0.1,0.44-0.17
		c0.5-0.2,0.94-0.29,1.3-0.28c0.36,0.01,0.77,0.12,1.22,0.35c0.17,0.08,0.29,0.2,0.38,0.34c0.08,0.14,0.13,0.27,0.13,0.4
		c0,0.15-0.05,0.28-0.15,0.39c-0.1,0.11-0.3,0.17-0.61,0.2c-0.36,0.03-0.82,0.08-1.38,0.16c-0.55,0.08-1.15,0.17-1.78,0.28v7.34
		c0,0.28-0.02,0.59-0.06,0.93c-0.04,0.34-0.12,0.66-0.22,0.97c-0.1,0.31-0.24,0.56-0.4,0.77c-0.16,0.2-0.35,0.3-0.58,0.3
		c-0.21,0-0.37-0.05-0.48-0.16s-0.2-0.23-0.26-0.38c-0.06-0.15-0.1-0.31-0.12-0.48s-0.02-0.33-0.02-0.45V274.43z"/>
	<path d="M289.07,283.05c0-0.2-0.07-0.34-0.22-0.42c-0.15-0.08-0.3-0.16-0.45-0.23c-0.2-0.07-0.35-0.16-0.45-0.26
		c-0.11-0.11-0.16-0.25-0.16-0.43c0-0.2,0.08-0.35,0.24-0.47s0.42-0.18,0.79-0.18c0.14,0,0.27,0,0.4,0.01
		c0.13,0.01,0.25,0.02,0.36,0.03c0.35-0.03,0.75-0.07,1.19-0.13c0.44-0.06,0.9-0.12,1.37-0.2c0.47-0.08,0.93-0.15,1.39-0.22
		c0.46-0.07,0.87-0.14,1.23-0.21v-2.94c-0.45,0.06-0.85,0.11-1.2,0.17c-0.35,0.06-0.69,0.12-1.03,0.2
		c-0.34,0.08-0.68,0.16-1.03,0.26s-0.76,0.21-1.22,0.34c-0.22,0.07-0.47,0.08-0.73,0.04s-0.5-0.12-0.74-0.23
		c-0.23-0.11-0.43-0.25-0.6-0.42s-0.27-0.35-0.32-0.55c-0.04-0.2-0.02-0.36,0.07-0.48c0.09-0.13,0.29-0.19,0.6-0.19
		c0.91,0,1.78-0.06,2.61-0.18s1.72-0.26,2.69-0.43c0.27-0.04,0.5-0.09,0.71-0.16s0.4-0.12,0.59-0.18c0.19-0.06,0.38-0.11,0.58-0.16
		c0.2-0.05,0.41-0.08,0.65-0.09c0.34-0.03,0.58,0.02,0.72,0.16c0.15,0.13,0.21,0.38,0.18,0.75c-0.01,0.15-0.05,0.3-0.12,0.43
		s-0.16,0.25-0.28,0.35l-0.15,3.18c0.18,0.04,0.33,0.11,0.44,0.21s0.17,0.24,0.17,0.42s-0.1,0.36-0.3,0.53
		c-0.2,0.17-0.55,0.28-1.04,0.34c-0.84,0.1-1.63,0.21-2.38,0.33c-0.74,0.12-1.51,0.24-2.31,0.37c0.03,0.14,0.04,0.25,0.04,0.32v2.08
		c0,0.87,0.41,1.28,1.22,1.24c1-0.04,1.89-0.23,2.68-0.58c0.79-0.34,1.57-0.8,2.32-1.38c0.32-0.25,0.65-0.38,0.98-0.39
		s0.55,0.13,0.66,0.41c0.07,0.15,0.09,0.31,0.05,0.45c-0.04,0.15-0.1,0.29-0.21,0.44c-0.11,0.15-0.24,0.29-0.4,0.42
		c-0.16,0.13-0.33,0.25-0.49,0.35c-1.02,0.59-2.1,1.04-3.22,1.35c-1.12,0.31-2.17,0.46-3.15,0.46c-0.91,0-1.59-0.21-2.05-0.62
		c-0.46-0.41-0.68-1.15-0.68-2.2V283.05z M300.74,274.43c0-0.24-0.01-0.42-0.04-0.55c-0.03-0.13-0.11-0.22-0.23-0.29
		c-0.15-0.08-0.29-0.18-0.41-0.28s-0.18-0.25-0.18-0.43c0-0.2,0.08-0.35,0.24-0.47c0.16-0.12,0.42-0.18,0.79-0.18
		c0.46,0,0.82,0.06,1.08,0.17c0.26,0.11,0.46,0.26,0.59,0.45c0.13,0.19,0.22,0.41,0.25,0.66c0.03,0.25,0.05,0.51,0.05,0.78v14.15
		c0,0.28-0.02,0.59-0.06,0.93c-0.04,0.34-0.12,0.66-0.22,0.97c-0.11,0.31-0.24,0.56-0.4,0.77c-0.16,0.2-0.35,0.3-0.58,0.3
		c-0.21,0-0.37-0.05-0.48-0.16s-0.2-0.23-0.26-0.38c-0.06-0.15-0.1-0.31-0.12-0.48c-0.01-0.18-0.02-0.33-0.02-0.45V274.43z"/>
	<path d="M321.16,278.64c0,0.7-0.12,1.34-0.35,1.9c-0.23,0.57-0.55,1.07-0.95,1.5s-0.87,0.8-1.41,1.1c-0.54,0.3-1.12,0.53-1.73,0.68
		v3.11c0.59-0.1,1.15-0.19,1.68-0.28c0.53-0.09,1.03-0.18,1.49-0.26c0.67-0.13,1.37-0.28,2.09-0.46c0.72-0.18,1.38-0.29,1.97-0.32
		c0.81-0.03,1.22,0.25,1.22,0.82c0,0.27-0.11,0.49-0.32,0.68c-0.21,0.19-0.53,0.3-0.97,0.33c-0.71,0.06-1.5,0.13-2.34,0.23
		c-0.85,0.1-1.72,0.21-2.63,0.35s-1.81,0.27-2.72,0.42c-0.91,0.15-1.79,0.3-2.65,0.46c-0.86,0.16-1.66,0.32-2.41,0.48
		c-0.75,0.16-1.41,0.31-1.99,0.45c-0.34,0.08-0.65,0.11-0.93,0.07c-0.28-0.04-0.53-0.11-0.75-0.23c-0.22-0.12-0.4-0.26-0.56-0.43
		c-0.15-0.17-0.28-0.34-0.38-0.5c-0.13-0.24-0.14-0.43-0.03-0.59c0.11-0.15,0.33-0.22,0.68-0.19c0.35,0.01,0.79,0.01,1.31-0.02
		c0.53-0.03,1.11-0.08,1.76-0.15s1.33-0.15,2.06-0.24c0.73-0.09,1.46-0.19,2.21-0.3v-3.18c-0.74-0.01-1.39-0.13-1.96-0.34
		c-0.56-0.21-1.03-0.5-1.41-0.86s-0.66-0.79-0.85-1.28c-0.19-0.49-0.28-1.03-0.28-1.62c0-0.83,0.19-1.58,0.57-2.25
		c0.38-0.67,0.87-1.24,1.48-1.71c0.61-0.47,1.3-0.83,2.07-1.08c0.77-0.25,1.56-0.38,2.36-0.38c0.69,0,1.31,0.09,1.88,0.27
		c0.57,0.18,1.05,0.44,1.46,0.79c0.41,0.34,0.72,0.77,0.96,1.28S321.16,277.99,321.16,278.64z M318.96,278.83
		c0-0.9-0.26-1.55-0.77-1.96c-0.51-0.41-1.16-0.61-1.95-0.61c-0.49,0-0.97,0.07-1.45,0.22c-0.48,0.15-0.9,0.37-1.28,0.66
		c-0.38,0.29-0.68,0.66-0.91,1.1c-0.23,0.44-0.35,0.96-0.35,1.55c0,0.9,0.26,1.55,0.77,1.97c0.51,0.41,1.17,0.62,1.97,0.62
		c0.49,0,0.97-0.08,1.45-0.23c0.48-0.15,0.9-0.38,1.27-0.68c0.37-0.3,0.67-0.67,0.9-1.11S318.96,279.4,318.96,278.83z"/>
	<path d="M328.9,288.14c0.42-0.03,0.77,0.08,1.05,0.34s0.42,0.59,0.42,1.01c0,0.45-0.14,0.8-0.42,1.06
		c-0.28,0.26-0.63,0.4-1.05,0.43c-0.42,0.03-0.77-0.08-1.06-0.32c-0.29-0.24-0.43-0.58-0.43-1.03c0-0.42,0.14-0.77,0.43-1.04
		C328.13,288.32,328.48,288.17,328.9,288.14z M327.66,276.95c-0.01-0.25-0.01-0.5,0.01-0.75c0.02-0.25,0.07-0.47,0.16-0.67
		c0.08-0.2,0.2-0.37,0.36-0.49c0.15-0.13,0.36-0.2,0.63-0.21c0.28-0.01,0.5,0.04,0.67,0.15c0.17,0.11,0.29,0.27,0.37,0.46
		s0.13,0.42,0.15,0.66c0.02,0.25,0.02,0.49,0.01,0.75l-0.44,9.59c-0.01,0.24-0.09,0.42-0.22,0.55c-0.13,0.13-0.3,0.2-0.49,0.21
		c-0.18,0.01-0.33-0.04-0.45-0.15c-0.12-0.11-0.19-0.29-0.2-0.53L327.66,276.95z"/>
	<path d="M335.21,288.14c0.42-0.03,0.77,0.08,1.05,0.34s0.42,0.59,0.42,1.01c0,0.45-0.14,0.8-0.42,1.06
		c-0.28,0.26-0.63,0.4-1.05,0.43c-0.42,0.03-0.77-0.08-1.06-0.32c-0.29-0.24-0.43-0.58-0.43-1.03c0-0.42,0.14-0.77,0.43-1.04
		C334.43,288.32,334.79,288.17,335.21,288.14z M333.97,276.95c-0.01-0.25-0.01-0.5,0.01-0.75c0.02-0.25,0.07-0.47,0.16-0.67
		c0.08-0.2,0.2-0.37,0.36-0.49c0.15-0.13,0.36-0.2,0.63-0.21c0.28-0.01,0.5,0.04,0.67,0.15c0.17,0.11,0.29,0.27,0.37,0.46
		s0.13,0.42,0.15,0.66c0.02,0.25,0.02,0.49,0.01,0.75l-0.44,9.59c-0.01,0.24-0.09,0.42-0.22,0.55c-0.13,0.13-0.3,0.2-0.49,0.21
		c-0.18,0.01-0.33-0.04-0.45-0.15c-0.12-0.11-0.19-0.29-0.2-0.53L333.97,276.95z"/>
</g>
</svg>
