<svg width="250" height="162" viewBox="0 0 250 162" fill="none" xmlns="http://www.w3.org/2000/svg">
<path d="M125 160.57C193.273 160.57 248.62 124.99 248.62 81.1C248.62 37.2099 193.273 1.63 125 1.63C56.7266 1.63 1.38 37.2099 1.38 81.1C1.38 124.99 56.7266 160.57 125 160.57Z" fill="white" stroke="black" stroke-width="2" stroke-miterlimit="10"/>
<path d="M90.79 71.46C90.01 71.52 89.16 71.61 88.24 71.71C87.32 71.82 86.36 71.94 85.38 72.09C84.4 72.24 83.41 72.39 82.42 72.55C81.43 72.71 80.47 72.88 79.54 73.05C78.61 73.23 77.74 73.4 76.92 73.58C76.1 73.76 75.38 73.92 74.76 74.07C74.39 74.16 74.06 74.19 73.75 74.15C73.44 74.11 73.17 74.03 72.94 73.9C72.7 73.77 72.5 73.61 72.33 73.43C72.16 73.25 72.02 73.06 71.92 72.88C71.78 72.62 71.77 72.41 71.89 72.24C72 72.07 72.25 72 72.63 72.03C73.03 72.05 73.53 72.03 74.15 72C74.77 71.96 75.45 71.9 76.2 71.83C76.95 71.75 77.74 71.66 78.58 71.54C79.42 71.43 80.26 71.31 81.12 71.19V69.2C81.12 68.94 81.1 68.74 81.07 68.59C81.04 68.44 80.96 68.33 80.82 68.26C80.65 68.17 80.5 68.07 80.37 67.96C80.24 67.85 80.18 67.7 80.18 67.5C80.18 67.29 80.27 67.12 80.44 66.99C80.61 66.86 80.9 66.8 81.3 66.8C81.8 66.8 82.2 66.86 82.48 66.98C82.76 67.1 82.98 67.26 83.12 67.45C83.26 67.64 83.36 67.85 83.39 68.08C83.43 68.31 83.45 68.54 83.45 68.77V70.83C84 70.75 84.52 70.67 85.03 70.58C85.53 70.49 86.01 70.41 86.45 70.33C87.18 70.19 87.94 70.03 88.73 69.83C89.51 69.63 90.23 69.52 90.87 69.49C91.75 69.46 92.2 69.76 92.2 70.38C92.2 70.67 92.09 70.92 91.86 71.12C91.62 71.31 91.27 71.43 90.79 71.46ZM87.64 58.82C86.92 58.9 86.15 58.99 85.32 59.11C84.49 59.22 83.64 59.36 82.77 59.51C83.43 59.98 83.54 60.59 83.11 61.34C83.06 61.43 83.01 61.52 82.96 61.6C82.91 61.68 82.86 61.76 82.81 61.84C83.6 62.15 84.37 62.42 85.11 62.66C85.85 62.9 86.5 63.1 87.07 63.25C87.59 63.39 88.11 63.49 88.62 63.56C89.14 63.63 89.68 63.81 90.24 64.1C90.5 64.22 90.67 64.42 90.77 64.69C90.87 64.96 90.82 65.25 90.63 65.56C90.42 65.91 90.14 66.1 89.8 66.14C89.46 66.18 89.1 66.11 88.74 65.95C88.28 65.75 87.77 65.54 87.21 65.31C86.65 65.08 86.06 64.85 85.45 64.62C84.84 64.39 84.22 64.16 83.59 63.93C82.96 63.7 82.34 63.48 81.75 63.27C80.94 64.22 79.95 65.12 78.78 65.98C77.61 66.84 76.22 67.61 74.62 68.3C74.45 68.38 74.26 68.44 74.04 68.48C73.82 68.53 73.67 68.46 73.59 68.3C73.56 68.21 73.56 68.13 73.6 68.05C73.64 67.97 73.7 67.91 73.78 67.84C73.86 67.78 73.95 67.72 74.04 67.66C74.13 67.6 74.22 67.55 74.29 67.5C75.72 66.52 76.95 65.5 77.96 64.44C78.97 63.37 79.76 62.26 80.33 61.1C80.51 60.72 80.49 60.35 80.26 59.98C79.62 60.12 79.01 60.25 78.43 60.38C77.85 60.51 77.33 60.64 76.88 60.76C76.33 60.91 75.89 60.87 75.55 60.62C75.21 60.38 74.96 60.06 74.77 59.66C74.6 59.29 74.6 59.04 74.76 58.91C74.92 58.77 75.18 58.72 75.53 58.75C76.12 58.78 76.83 58.76 77.63 58.68C78.44 58.6 79.27 58.5 80.12 58.36C80.97 58.22 81.81 58.08 82.64 57.93C83.47 57.78 84.19 57.65 84.81 57.54C85.42 57.43 85.92 57.32 86.32 57.2C86.72 57.08 87.14 56.98 87.6 56.9C88.42 56.78 88.81 57.05 88.77 57.72C88.75 57.98 88.66 58.22 88.47 58.44C88.28 58.66 88 58.79 87.64 58.82Z" fill="black"/>
<path d="M112.29 71.46C111.51 71.52 110.66 71.61 109.74 71.71C108.82 71.82 107.86 71.94 106.88 72.09C105.9 72.24 104.91 72.39 103.92 72.55C102.93 72.71 101.97 72.88 101.04 73.05C100.11 73.23 99.24 73.4 98.42 73.58C97.6 73.76 96.88 73.92 96.26 74.07C95.89 74.16 95.56 74.19 95.25 74.15C94.94 74.11 94.67 74.03 94.44 73.9C94.2 73.77 94 73.61 93.83 73.43C93.66 73.25 93.52 73.06 93.42 72.88C93.28 72.62 93.27 72.41 93.39 72.24C93.5 72.07 93.75 72 94.13 72.03C94.6 72.06 95.22 72.05 95.99 71.98C96.76 71.92 97.61 71.83 98.54 71.73V67.55C98.54 67.29 98.52 67.09 98.49 66.96C98.46 66.82 98.38 66.72 98.24 66.64C98.07 66.55 97.92 66.45 97.79 66.33C97.66 66.22 97.6 66.06 97.6 65.86C97.6 65.65 97.69 65.48 97.86 65.35C98.04 65.22 98.32 65.16 98.72 65.16C99.22 65.16 99.62 65.22 99.9 65.34C100.18 65.46 100.4 65.63 100.54 65.83C100.69 66.04 100.78 66.28 100.81 66.55C100.85 66.82 100.87 67.11 100.87 67.4V71.45C101.33 71.37 101.79 71.3 102.25 71.24C102.71 71.18 103.18 71.11 103.63 71.03V66.37C103.63 66.11 103.61 65.91 103.58 65.78C103.55 65.64 103.47 65.54 103.33 65.46C103.16 65.37 103.01 65.27 102.88 65.15C102.75 65.04 102.69 64.88 102.69 64.68C102.69 64.47 102.78 64.3 102.95 64.17C103.12 64.04 103.41 63.98 103.81 63.98C104.31 63.98 104.71 64.04 104.99 64.16C105.27 64.28 105.49 64.45 105.63 64.65C105.77 64.86 105.87 65.1 105.9 65.37C105.93 65.64 105.96 65.93 105.96 66.22V70.68C106.31 70.62 106.65 70.56 106.98 70.51C107.31 70.46 107.62 70.4 107.93 70.34C108.66 70.2 109.39 70.04 110.13 69.85C110.86 69.66 111.6 69.55 112.35 69.52C113.23 69.49 113.68 69.78 113.68 70.39C113.68 70.68 113.57 70.93 113.34 71.13C113.11 71.31 112.76 71.43 112.29 71.46ZM107.65 67.46C107.79 66.23 107.9 65.01 107.99 63.82C108.08 62.63 108.17 61.41 108.26 60.16C108.29 59.78 108.25 59.52 108.15 59.39C108.04 59.26 107.79 59.22 107.4 59.26C106.68 59.34 105.89 59.45 105.01 59.6C104.13 59.75 103.26 59.91 102.39 60.08C101.52 60.25 100.69 60.42 99.9 60.61C99.11 60.79 98.44 60.95 97.91 61.09C97.39 61.23 96.95 61.16 96.57 60.88C96.19 60.6 95.93 60.25 95.76 59.81C95.67 59.57 95.7 59.38 95.86 59.24C96.02 59.1 96.25 59.05 96.56 59.08C96.86 59.1 97.3 59.08 97.86 59.05C98.42 59.01 99.06 58.95 99.78 58.87C100.5 58.79 101.26 58.68 102.06 58.56C102.86 58.44 103.64 58.32 104.41 58.19C105.18 58.07 105.9 57.95 106.58 57.82C107.26 57.69 107.84 57.58 108.33 57.48C108.77 57.39 109.16 57.34 109.48 57.32C109.81 57.31 110.07 57.36 110.28 57.49C110.49 57.62 110.62 57.84 110.69 58.16C110.76 58.48 110.75 58.94 110.66 59.53C110.63 59.76 110.58 60.08 110.52 60.49C110.46 60.9 110.39 61.36 110.31 61.87C110.23 62.38 110.15 62.92 110.05 63.48C109.95 64.04 109.85 64.59 109.75 65.13C109.65 65.67 109.54 66.16 109.43 66.62C109.32 67.08 109.2 67.46 109.1 67.76C108.96 68.13 108.81 68.37 108.64 68.48C108.47 68.59 108.28 68.64 108.07 68.61C107.81 68.58 107.67 68.45 107.64 68.23C107.61 68.03 107.61 67.77 107.65 67.46Z" fill="black"/>
<path d="M117.36 61.26C117.36 61.09 117.34 60.96 117.31 60.86C117.28 60.76 117.23 60.68 117.17 60.61C117.11 60.54 117.03 60.49 116.94 60.45C116.85 60.41 116.74 60.36 116.62 60.3C116.42 60.21 116.26 60.11 116.14 60C116.02 59.89 115.96 59.74 115.96 59.54C115.96 59.33 116.05 59.16 116.22 59.03C116.39 58.9 116.68 58.84 117.08 58.84C117.61 58.84 118.06 58.88 118.42 58.97C118.78 59.05 119.06 59.18 119.28 59.34C119.5 59.5 119.64 59.69 119.73 59.9C119.81 60.11 119.86 60.36 119.86 60.63V64.27C119.86 64.76 120.01 65.1 120.31 65.3C120.61 65.5 120.98 65.6 121.42 65.6C121.86 65.6 122.34 65.57 122.86 65.5C123.38 65.43 123.9 65.33 124.44 65.2C124.97 65.07 125.5 64.9 126.01 64.7C126.52 64.49 126.99 64.25 127.42 63.98C127.77 63.75 128.12 63.63 128.47 63.6C128.82 63.57 129.06 63.72 129.18 64.02C129.33 64.34 129.28 64.65 129.03 64.95C128.78 65.25 128.45 65.5 128.03 65.72C127.45 66.01 126.84 66.25 126.2 66.45C125.56 66.65 124.91 66.81 124.26 66.94C123.6 67.07 122.96 67.16 122.34 67.21C121.71 67.26 121.14 67.29 120.6 67.29C119.52 67.29 118.71 67.07 118.18 66.62C117.65 66.17 117.38 65.37 117.38 64.23V61.26H117.36ZM130.76 75.67C130.55 75.67 130.38 75.62 130.27 75.53C130.16 75.44 130.06 75.32 129.98 75.19C129.51 75.39 129 75.56 128.45 75.7C127.9 75.84 127.36 75.96 126.84 76.05C126.31 76.14 125.82 76.21 125.36 76.26C124.9 76.31 124.53 76.32 124.24 76.31C123.71 76.29 123.22 76.25 122.78 76.16C122.34 76.08 121.96 75.93 121.64 75.73C121.32 75.52 121.07 75.24 120.89 74.88C120.71 74.52 120.62 74.05 120.62 73.47V71.21C120.62 70.97 120.6 70.81 120.57 70.73C120.54 70.65 120.46 70.58 120.32 70.5C120.15 70.41 120 70.31 119.87 70.2C119.74 70.09 119.68 69.94 119.68 69.74C119.68 69.53 119.77 69.36 119.94 69.23C120.11 69.1 120.4 69.04 120.8 69.04C121.1 69.04 121.36 69.06 121.57 69.11C121.78 69.16 121.96 69.22 122.13 69.29C122.63 69.26 123.19 69.21 123.81 69.14C124.43 69.07 125.04 68.99 125.64 68.91C126.24 68.83 126.81 68.74 127.34 68.65C127.87 68.56 128.32 68.47 128.67 68.38C129.14 68.26 129.56 68.12 129.93 67.98C130.3 67.84 130.68 67.76 131.1 67.74C131.57 67.72 131.94 67.82 132.21 68.01C132.48 68.21 132.62 68.51 132.63 68.9C132.63 69.19 132.47 69.39 132.15 69.49V72.67C132.15 73.02 132.13 73.37 132.08 73.73C132.03 74.09 131.95 74.41 131.84 74.69C131.73 74.97 131.58 75.2 131.41 75.39C131.21 75.58 131.01 75.67 130.76 75.67ZM124.04 70.64C123.86 70.67 123.68 70.7 123.5 70.73C123.32 70.76 123.15 70.79 122.99 70.82V71.05V73.52C122.99 73.76 123.04 73.96 123.13 74.1C123.22 74.25 123.35 74.36 123.52 74.44C123.69 74.52 123.89 74.58 124.13 74.6C124.37 74.62 124.63 74.63 124.92 74.63C125.29 74.63 125.67 74.6 126.09 74.54C126.5 74.48 126.92 74.4 127.36 74.3C127.79 74.2 128.22 74.09 128.64 73.96C129.06 73.83 129.45 73.69 129.82 73.54V69.88C128.95 69.99 128 70.11 126.97 70.23C125.93 70.37 124.95 70.5 124.04 70.64ZM130.03 57.31C130.03 57.05 130.01 56.85 129.98 56.72C129.95 56.59 129.87 56.48 129.73 56.4C129.56 56.31 129.41 56.21 129.28 56.09C129.15 55.98 129.09 55.82 129.09 55.62C129.09 55.41 129.18 55.24 129.35 55.11C129.52 54.98 129.81 54.92 130.21 54.92C130.71 54.92 131.11 54.98 131.39 55.1C131.67 55.22 131.89 55.39 132.03 55.59C132.17 55.8 132.27 56.04 132.3 56.31C132.34 56.58 132.36 56.87 132.36 57.16V63.63C132.36 63.94 132.34 64.27 132.29 64.64C132.24 65.01 132.16 65.36 132.05 65.69C131.94 66.03 131.79 66.3 131.62 66.52C131.45 66.74 131.24 66.85 130.99 66.85C130.76 66.85 130.59 66.79 130.46 66.68C130.33 66.57 130.24 66.43 130.17 66.27C130.1 66.11 130.06 65.94 130.04 65.74C130.03 65.55 130.02 65.39 130.02 65.25V57.31H130.03Z" fill="black"/>
<path d="M148.09 61.24C147.28 61.32 146.45 61.41 145.59 61.53C144.73 61.64 143.88 61.77 143.04 61.92C142.2 62.07 141.39 62.22 140.61 62.39C139.82 62.56 139.09 62.73 138.4 62.92C137.88 63.06 137.42 62.99 137.03 62.71C136.64 62.43 136.37 62.08 136.25 61.64C136.11 61.15 136.34 60.93 136.94 60.98C137.4 61.01 137.94 61 138.56 60.96C139.18 60.91 139.85 60.84 140.56 60.74C141.27 60.64 142 60.53 142.77 60.4C143.53 60.27 144.27 60.14 144.99 60C145.52 59.89 146.06 59.77 146.59 59.63C147.12 59.49 147.61 59.39 148.05 59.31C148.87 59.17 149.26 59.46 149.22 60.18C149.19 60.44 149.09 60.68 148.91 60.89C148.73 61.09 148.46 61.21 148.09 61.24ZM138.74 66.5C138.74 66.01 138.85 65.55 139.06 65.12C139.27 64.69 139.57 64.3 139.96 63.95C140.35 63.61 140.81 63.32 141.35 63.08C141.89 62.84 142.5 62.69 143.17 62.61C143.83 62.52 144.43 62.53 144.98 62.63C145.53 62.74 145.99 62.92 146.38 63.17C146.76 63.42 147.06 63.74 147.27 64.13C147.48 64.52 147.59 64.96 147.59 65.44C147.59 65.92 147.48 66.39 147.27 66.82C147.06 67.25 146.76 67.64 146.37 67.97C145.98 68.3 145.52 68.59 144.98 68.82C144.44 69.05 143.84 69.2 143.19 69.28C142.52 69.37 141.91 69.37 141.37 69.27C140.83 69.17 140.36 69 139.98 68.76C139.59 68.52 139.29 68.2 139.08 67.81C138.85 67.43 138.74 66.99 138.74 66.5ZM145.85 57.67C145.85 58.17 145.75 58.54 145.55 58.77C145.35 59 145 59.15 144.5 59.23C143.97 59.31 143.45 59.38 142.95 59.46C142.45 59.54 141.88 59.66 141.26 59.83C140.88 59.94 140.51 59.89 140.16 59.69C139.81 59.49 139.57 59.24 139.45 58.94C139.28 58.56 139.25 58.31 139.35 58.2C139.45 58.09 139.7 58.02 140.09 58.01C140.87 57.98 141.58 57.93 142.24 57.85C142.9 57.77 143.51 57.67 144.09 57.53C144.24 57.5 144.41 57.46 144.59 57.4C144.77 57.35 144.96 57.3 145.16 57.25C145.4 57.19 145.58 57.2 145.69 57.3C145.8 57.38 145.85 57.51 145.85 57.67ZM141.35 72.56C141.35 72.32 141.33 72.16 141.3 72.08C141.27 72 141.19 71.93 141.05 71.85C140.88 71.76 140.73 71.66 140.6 71.55C140.47 71.44 140.41 71.29 140.41 71.09C140.41 70.88 140.5 70.71 140.67 70.58C140.84 70.45 141.13 70.39 141.53 70.39C142.02 70.39 142.41 70.45 142.7 70.56C142.99 70.67 143.21 70.82 143.36 71.01C143.51 71.2 143.61 71.41 143.66 71.65C143.71 71.89 143.73 72.15 143.73 72.4V73.52C143.73 73.76 143.77 73.96 143.87 74.1C143.97 74.24 144.09 74.36 144.26 74.44C144.43 74.52 144.63 74.58 144.87 74.6C145.11 74.62 145.37 74.63 145.66 74.63C146.27 74.63 146.88 74.58 147.48 74.48C148.08 74.38 148.66 74.24 149.23 74.07C149.79 73.89 150.32 73.7 150.82 73.48C151.32 73.26 151.76 73.03 152.16 72.81C152.56 72.58 152.91 72.46 153.22 72.43C153.53 72.4 153.76 72.55 153.89 72.85C154.04 73.17 153.99 73.51 153.74 73.87C153.49 74.23 153.15 74.51 152.72 74.7C152.16 74.96 151.52 75.19 150.82 75.4C150.12 75.61 149.41 75.78 148.7 75.91C147.99 76.04 147.31 76.15 146.65 76.23C145.99 76.31 145.44 76.33 144.98 76.3C144.45 76.28 143.96 76.24 143.52 76.15C143.08 76.07 142.7 75.92 142.38 75.72C142.06 75.51 141.81 75.23 141.63 74.87C141.45 74.51 141.36 74.04 141.36 73.46V72.56H141.35ZM141.05 66.2C141.05 66.67 141.24 67.03 141.61 67.26C141.98 67.5 142.49 67.58 143.13 67.5C143.79 67.42 144.3 67.21 144.68 66.86C145.06 66.51 145.25 66.08 145.25 65.58C145.25 65.09 145.07 64.74 144.7 64.53C144.33 64.32 143.84 64.25 143.21 64.32C142.54 64.4 142.01 64.6 141.62 64.93C141.25 65.26 141.05 65.69 141.05 66.2ZM150.33 57.31C150.33 57.05 150.32 56.85 150.29 56.72C150.26 56.58 150.17 56.48 150.04 56.4C149.87 56.31 149.72 56.21 149.59 56.09C149.46 55.98 149.4 55.82 149.4 55.62C149.4 55.41 149.49 55.24 149.66 55.11C149.83 54.98 150.12 54.92 150.52 54.92C151.02 54.92 151.42 54.98 151.7 55.1C151.98 55.22 152.2 55.39 152.34 55.59C152.48 55.79 152.58 56.04 152.61 56.31C152.64 56.58 152.67 56.87 152.67 57.16V62.19C152.84 62.14 153 62.1 153.15 62.05C153.3 62 153.46 61.94 153.63 61.87C154.18 61.66 154.65 61.55 155.05 61.56C155.45 61.57 155.89 61.69 156.38 61.94C156.56 62.03 156.7 62.15 156.79 62.31C156.88 62.46 156.93 62.61 156.93 62.74C156.93 62.91 156.88 63.05 156.77 63.16C156.66 63.27 156.44 63.35 156.11 63.38C155.71 63.41 155.21 63.47 154.61 63.55C154.01 63.63 153.36 63.74 152.68 63.86V67.59C152.68 67.9 152.66 68.23 152.61 68.6C152.57 68.97 152.49 69.32 152.37 69.65C152.25 69.99 152.11 70.26 151.94 70.48C151.76 70.7 151.55 70.81 151.31 70.81C151.08 70.81 150.91 70.75 150.78 70.64C150.66 70.53 150.56 70.39 150.49 70.23C150.42 70.07 150.38 69.9 150.36 69.7C150.34 69.51 150.34 69.35 150.34 69.21V57.31H150.33Z" fill="black"/>
<path d="M162.38 64.6C162.43 64.58 162.51 64.56 162.63 64.53C163.1 64.45 163.57 64.34 164.04 64.2C164.5 64.06 165 63.98 165.54 63.98C165.71 63.98 165.88 64.01 166.07 64.06C166.26 64.11 166.42 64.19 166.56 64.29C166.71 64.39 166.82 64.51 166.9 64.66C166.98 64.81 167.02 64.98 167.02 65.17C167.02 65.41 166.91 65.59 166.68 65.7C166.45 65.81 166.07 65.88 165.54 65.93C164.95 65.99 164.4 66.04 163.89 66.09C163.39 66.14 162.88 66.19 162.38 66.25V68.63C162.38 69.06 162.46 69.34 162.63 69.49C162.8 69.64 163.06 69.71 163.41 69.71C164.05 69.71 164.73 69.6 165.45 69.38C166.17 69.16 166.85 68.83 167.51 68.39C167.89 68.13 168.24 68 168.56 67.99C168.88 67.98 169.1 68.11 169.22 68.37C169.39 68.71 169.37 69.02 169.16 69.31C168.95 69.6 168.65 69.84 168.26 70.04C167.39 70.45 166.49 70.78 165.56 71.01C164.63 71.24 163.75 71.37 162.91 71.39C161.86 71.41 161.09 71.22 160.61 70.83C160.13 70.44 159.89 69.72 159.89 68.67V62.68C159.89 62.51 159.87 62.38 159.84 62.28C159.81 62.18 159.76 62.1 159.7 62.03C159.64 61.96 159.56 61.91 159.47 61.87C159.38 61.83 159.27 61.78 159.15 61.72C158.95 61.63 158.79 61.53 158.67 61.42C158.55 61.31 158.49 61.16 158.49 60.96C158.49 60.75 158.58 60.58 158.75 60.45C158.92 60.32 159.21 60.26 159.61 60.26C160.23 60.26 160.72 60.31 161.05 60.42C162.12 60.33 163.15 60.17 164.14 59.94C164.41 59.88 164.67 59.81 164.91 59.73C165.15 59.65 165.37 59.58 165.6 59.51C165.82 59.44 166.05 59.38 166.27 59.34C166.5 59.29 166.75 59.26 167.02 59.25C167.37 59.24 167.67 59.32 167.92 59.5C168.17 59.68 168.3 59.97 168.3 60.37C168.3 60.61 168.19 60.78 167.97 60.87C167.75 60.96 167.37 61.04 166.84 61.1C166.09 61.18 165.35 61.26 164.61 61.34C163.87 61.42 163.11 61.53 162.33 61.65C162.35 61.73 162.36 61.79 162.37 61.84C162.38 61.89 162.38 61.96 162.38 62.03V64.6ZM170.02 65.11C169.96 65.14 169.91 65.16 169.88 65.16C169.53 65.28 169.21 65.32 168.91 65.26C168.61 65.2 168.29 65.07 167.94 64.86C167.57 64.65 167.39 64.41 167.39 64.15C167.39 63.83 167.59 63.65 167.98 63.6C168.25 63.57 168.56 63.54 168.91 63.5C169.26 63.46 169.62 63.41 170.02 63.35V58.96C170.02 58.47 169.9 58.17 169.65 58.05C169.48 57.96 169.33 57.86 169.2 57.74C169.07 57.63 169.01 57.47 169.01 57.27C169.01 57.06 169.1 56.89 169.27 56.76C169.44 56.63 169.73 56.57 170.13 56.57C170.63 56.57 171.02 56.63 171.3 56.75C171.58 56.87 171.78 57.04 171.92 57.24C172.06 57.45 172.14 57.69 172.17 57.96C172.2 58.23 172.21 58.52 172.21 58.81V71.64C172.21 71.95 172.19 72.28 172.15 72.65C172.11 73.02 172.04 73.37 171.93 73.7C171.82 74.03 171.69 74.31 171.52 74.53C171.35 74.75 171.15 74.86 170.9 74.86C170.67 74.86 170.5 74.8 170.39 74.69C170.28 74.58 170.19 74.44 170.13 74.28C170.07 74.12 170.03 73.94 170.03 73.75C170.02 73.56 170.02 73.4 170.02 73.26V65.11ZM173.79 57.31C173.79 57.05 173.77 56.85 173.73 56.72C173.69 56.59 173.61 56.48 173.47 56.4C173.3 56.31 173.15 56.21 173 56.09C172.85 55.97 172.78 55.82 172.78 55.62C172.78 55.41 172.87 55.24 173.04 55.11C173.21 54.98 173.5 54.92 173.9 54.92C174.4 54.92 174.79 54.98 175.07 55.1C175.34 55.22 175.55 55.39 175.69 55.59C175.83 55.8 175.91 56.04 175.94 56.31C175.97 56.58 175.99 56.87 175.99 57.16V72.55C175.99 72.85 175.97 73.19 175.93 73.56C175.89 73.93 175.82 74.28 175.71 74.61C175.6 74.95 175.47 75.22 175.3 75.44C175.13 75.66 174.93 75.77 174.68 75.77C174.45 75.77 174.28 75.71 174.17 75.6C174.06 75.49 173.97 75.35 173.91 75.19C173.85 75.03 173.81 74.85 173.81 74.66C173.8 74.47 173.8 74.31 173.8 74.17V57.31H173.79Z" fill="black"/>
<path d="M58 88.36C58.7 88.28 59.45 88.2 60.25 88.1C61.05 88 61.85 87.89 62.66 87.77V86.42C62.66 86.21 62.58 86.05 62.42 85.96C62.26 85.87 62.1 85.78 61.93 85.71C61.72 85.63 61.55 85.54 61.44 85.42C61.33 85.3 61.27 85.15 61.27 84.95C61.27 84.74 61.36 84.57 61.53 84.44C61.7 84.31 61.99 84.25 62.39 84.25C62.94 84.25 63.38 84.29 63.72 84.38C64.05 84.46 64.32 84.59 64.51 84.75C64.7 84.91 64.83 85.1 64.9 85.31C64.97 85.52 65 85.77 65 86.04V90.5C65 90.81 64.98 91.14 64.93 91.51C64.88 91.88 64.8 92.23 64.69 92.56C64.58 92.9 64.43 93.17 64.26 93.39C64.08 93.61 63.87 93.72 63.63 93.72C63.4 93.72 63.22 93.66 63.09 93.54C62.96 93.42 62.86 93.27 62.8 93.11C62.08 93.43 61.36 93.68 60.64 93.86C59.92 94.04 59.21 94.14 58.53 94.16C58.06 94.16 57.63 94.13 57.26 94.07C56.89 94.01 56.57 93.88 56.31 93.68C56.05 93.48 55.85 93.2 55.72 92.85C55.58 92.49 55.51 92.02 55.51 91.44V88.6C55.51 88.27 55.44 88.04 55.3 87.94C55.16 87.83 54.99 87.74 54.77 87.67C54.57 87.59 54.41 87.5 54.29 87.38C54.17 87.27 54.11 87.11 54.11 86.91C54.11 86.7 54.2 86.52 54.37 86.4C54.54 86.28 54.83 86.21 55.23 86.21C55.76 86.21 56.21 86.25 56.57 86.34C56.93 86.42 57.21 86.55 57.43 86.71C57.64 86.87 57.79 87.06 57.88 87.27C57.96 87.48 58.01 87.73 58.01 88V88.36H58ZM59.06 101.07C59.06 100.83 59 100.65 58.89 100.54C58.78 100.43 58.58 100.34 58.31 100.27C57.88 100.16 57.67 99.93 57.67 99.56C57.67 99.35 57.74 99.18 57.88 99.06C58.02 98.94 58.28 98.88 58.68 98.88C59.3 98.88 59.8 98.93 60.17 99.04C60.69 99.02 61.28 98.98 61.94 98.9C62.6 98.82 63.28 98.73 63.97 98.63C64.66 98.53 65.35 98.42 66.04 98.31C66.73 98.2 67.36 98.11 67.94 98.04V96.23C66.55 96.4 65.2 96.6 63.87 96.85C62.54 97.09 61.31 97.37 60.17 97.67C59.65 97.81 59.19 97.74 58.8 97.46C58.4 97.19 58.14 96.83 58.02 96.39C57.94 96.13 57.95 95.94 58.04 95.82C58.13 95.7 58.39 95.64 58.82 95.66C60.01 95.69 61.26 95.61 62.58 95.43C63.9 95.25 65.2 95.03 66.48 94.77C67.01 94.66 67.53 94.54 68.03 94.39C68.53 94.25 69.02 94.16 69.49 94.13C70.3 94.08 70.68 94.37 70.63 94.98C70.6 95.32 70.48 95.58 70.26 95.78L70.1 97.91C70.53 98.03 70.74 98.31 70.74 98.73C70.74 98.97 70.63 99.15 70.41 99.26C70.19 99.37 69.81 99.45 69.28 99.51C67.98 99.63 66.69 99.78 65.4 99.97C64.11 100.15 62.79 100.34 61.43 100.52V101.39C61.43 101.89 61.58 102.2 61.89 102.3C62.2 102.4 62.68 102.46 63.35 102.46C63.96 102.46 64.58 102.41 65.2 102.31C65.82 102.21 66.43 102.07 67.02 101.9C67.61 101.72 68.16 101.53 68.68 101.31C69.2 101.09 69.66 100.86 70.05 100.64C70.44 100.42 70.8 100.29 71.11 100.26C71.42 100.24 71.65 100.38 71.78 100.68C71.93 101 71.88 101.34 71.63 101.7C71.38 102.06 71.04 102.34 70.61 102.53C70.05 102.79 69.4 103.02 68.68 103.22C67.96 103.42 67.23 103.59 66.5 103.73C65.77 103.87 65.06 103.98 64.38 104.05C63.7 104.12 63.13 104.14 62.68 104.13C62.1 104.11 61.59 104.07 61.14 103.99C60.69 103.91 60.31 103.8 60.01 103.64C59.71 103.48 59.47 103.26 59.3 102.98C59.13 102.7 59.05 102.33 59.05 101.87V101.07H59.06ZM62.67 89.44C61.89 89.55 61.11 89.65 60.34 89.76C59.56 89.87 58.79 89.98 58.01 90.1V91.45C58.01 91.88 58.09 92.16 58.26 92.31C58.43 92.46 58.69 92.53 59.04 92.53C59.56 92.53 60.13 92.45 60.77 92.28C61.4 92.11 62.04 91.86 62.68 91.53V89.44H62.67ZM68.25 84.75C68.25 84.49 68.23 84.29 68.2 84.16C68.17 84.02 68.09 83.92 67.95 83.84C67.78 83.75 67.63 83.65 67.5 83.53C67.37 83.42 67.31 83.26 67.31 83.06C67.31 82.85 67.4 82.68 67.57 82.55C67.74 82.42 68.03 82.36 68.43 82.36C68.93 82.36 69.33 82.42 69.61 82.54C69.89 82.66 70.11 82.83 70.25 83.03C70.39 83.23 70.49 83.48 70.52 83.75C70.55 84.02 70.58 84.31 70.58 84.6V87.37C70.75 87.32 70.91 87.28 71.06 87.23C71.21 87.18 71.37 87.12 71.54 87.05C72.09 86.84 72.56 86.73 72.96 86.74C73.36 86.75 73.8 86.87 74.29 87.12C74.47 87.21 74.61 87.33 74.7 87.49C74.79 87.64 74.84 87.79 74.84 87.92C74.84 88.09 74.79 88.23 74.68 88.34C74.57 88.45 74.35 88.53 74.02 88.56C73.62 88.59 73.12 88.65 72.52 88.73C71.92 88.81 71.27 88.92 70.59 89.04V90.16C70.59 90.47 70.57 90.8 70.52 91.17C70.47 91.54 70.39 91.89 70.28 92.22C70.17 92.55 70.02 92.83 69.85 93.05C69.67 93.27 69.47 93.38 69.22 93.38C68.99 93.38 68.82 93.32 68.69 93.21C68.57 93.1 68.47 92.96 68.4 92.8C68.33 92.64 68.29 92.47 68.27 92.27C68.25 92.08 68.25 91.92 68.25 91.78V84.75Z" fill="black"/>
<path d="M84.07 85.62C84.73 85.48 85.23 85.48 85.58 85.61C85.93 85.74 86.15 85.96 86.23 86.26C86.31 86.57 86.29 86.94 86.15 87.38C86.01 87.82 85.79 88.29 85.49 88.77C84.42 90.49 83.16 92.05 81.69 93.44C80.22 94.83 78.54 96.09 76.64 97.24C76.43 97.36 76.22 97.44 76.01 97.47C75.8 97.5 75.66 97.45 75.59 97.31C75.42 97.02 75.6 96.69 76.12 96.3C76.85 95.74 77.54 95.17 78.18 94.6C78.82 94.03 79.43 93.43 80 92.79C80.57 92.16 81.11 91.49 81.62 90.79C82.13 90.09 82.61 89.33 83.07 88.53C83.33 88.06 83.4 87.75 83.28 87.6C83.16 87.45 82.88 87.42 82.43 87.5C81.68 87.64 81.02 87.79 80.43 87.95C79.84 88.11 79.18 88.29 78.43 88.49C78.17 88.57 77.93 88.58 77.7 88.54C77.47 88.49 77.27 88.41 77.08 88.29C76.9 88.17 76.74 88.01 76.61 87.82C76.48 87.63 76.37 87.43 76.28 87.21C76.17 86.95 76.18 86.76 76.3 86.64C76.42 86.52 76.61 86.46 76.87 86.48C78.15 86.53 79.36 86.46 80.51 86.29C81.65 86.09 82.84 85.88 84.07 85.62ZM92.3 95.95C92.28 96.12 92.24 96.28 92.16 96.44C92.08 96.6 91.97 96.73 91.82 96.84V100.41C91.82 100.71 91.8 101.05 91.75 101.42C91.7 101.79 91.62 102.14 91.51 102.47C91.4 102.8 91.25 103.08 91.08 103.3C90.9 103.52 90.69 103.63 90.45 103.63C90.22 103.63 90.05 103.57 89.92 103.46C89.79 103.35 89.7 103.21 89.63 103.05C89.56 102.89 89.52 102.71 89.5 102.52C89.48 102.33 89.48 102.17 89.48 102.03V97.23C88.14 97.38 86.84 97.57 85.59 97.79C84.34 98.01 83.17 98.27 82.07 98.56C81.52 98.71 81.08 98.67 80.74 98.42C80.4 98.18 80.15 97.86 79.96 97.46C79.79 97.09 79.79 96.84 79.95 96.71C80.11 96.57 80.37 96.52 80.72 96.55C81.31 96.58 81.92 96.58 82.55 96.54C83.17 96.5 83.81 96.44 84.45 96.35C85.09 96.26 85.73 96.16 86.38 96.04C87.03 95.93 87.66 95.81 88.29 95.71C88.9 95.6 89.41 95.49 89.82 95.37C90.23 95.25 90.67 95.16 91.12 95.12C91.96 95.01 92.35 95.3 92.3 95.95ZM89.74 84.75C89.74 84.49 89.72 84.29 89.69 84.16C89.66 84.02 89.58 83.92 89.44 83.84C89.27 83.75 89.12 83.65 88.99 83.53C88.86 83.42 88.8 83.26 88.8 83.06C88.8 82.85 88.89 82.68 89.06 82.55C89.23 82.42 89.52 82.36 89.92 82.36C90.42 82.36 90.82 82.42 91.1 82.54C91.38 82.66 91.6 82.83 91.74 83.03C91.88 83.23 91.98 83.48 92.01 83.75C92.04 84.02 92.07 84.31 92.07 84.6V87.82C92.24 87.77 92.4 87.73 92.55 87.68C92.7 87.63 92.86 87.57 93.03 87.5C93.58 87.29 94.05 87.18 94.45 87.19C94.85 87.2 95.29 87.32 95.78 87.57C95.96 87.66 96.1 87.78 96.19 87.94C96.28 88.09 96.33 88.24 96.33 88.37C96.33 88.54 96.28 88.68 96.17 88.79C96.06 88.9 95.84 88.98 95.51 89.01C95.11 89.04 94.61 89.1 94.01 89.18C93.41 89.26 92.76 89.37 92.08 89.49V91.27C92.08 91.58 92.06 91.91 92.01 92.28C91.96 92.65 91.88 93 91.77 93.33C91.66 93.67 91.51 93.94 91.34 94.16C91.17 94.38 90.96 94.49 90.71 94.49C90.48 94.49 90.31 94.43 90.18 94.32C90.06 94.21 89.96 94.07 89.89 93.91C89.82 93.75 89.78 93.57 89.76 93.38C89.74 93.19 89.74 93.03 89.74 92.89V84.75Z" fill="black"/>
<path d="M113.2 89.71C112.89 89.74 112.59 89.78 112.29 89.82C111.98 89.87 111.69 89.91 111.4 89.96V92.02C111.4 92.33 111.38 92.66 111.34 93.03C111.3 93.4 111.23 93.75 111.12 94.08C111.01 94.42 110.88 94.69 110.71 94.91C110.54 95.13 110.34 95.24 110.09 95.24C109.82 95.24 109.61 95.16 109.48 94.99C109.35 94.82 109.27 94.63 109.24 94.42C108.57 94.68 107.83 94.95 107.01 95.23C106.19 95.51 105.37 95.78 104.54 96.04C103.71 96.3 102.89 96.54 102.09 96.76C101.29 96.98 100.57 97.16 99.93 97.3C99.61 97.38 99.3 97.38 98.99 97.31C98.68 97.24 98.41 97.14 98.17 97.01C97.93 96.88 97.71 96.73 97.53 96.55C97.35 96.37 97.22 96.2 97.16 96.04C97.05 95.77 97.09 95.56 97.26 95.41C97.43 95.27 97.7 95.19 98.05 95.19C98.46 95.21 98.92 95.19 99.41 95.16C99.91 95.12 100.35 95.08 100.75 95.03C101.13 94.98 101.58 94.92 102.1 94.82V93.2H101.57C101.04 93.2 100.59 93.16 100.24 93.07C99.89 92.99 99.6 92.84 99.38 92.64C99.16 92.43 99 92.16 98.91 91.81C98.82 91.46 98.77 91.02 98.77 90.48V89.13C98.77 88.87 98.71 88.69 98.6 88.59C98.49 88.49 98.3 88.38 98.04 88.26C97.84 88.17 97.68 88.07 97.56 87.96C97.44 87.85 97.38 87.7 97.38 87.5C97.38 87.29 97.47 87.12 97.64 86.99C97.81 86.86 98.1 86.8 98.5 86.8C99.09 86.8 99.6 86.86 100.01 86.98C100.6 86.9 101.2 86.82 101.79 86.73C102.38 86.64 102.94 86.53 103.46 86.41C103.73 86.35 103.99 86.28 104.23 86.2C104.47 86.12 104.69 86.05 104.92 85.98C105.14 85.91 105.37 85.85 105.59 85.81C105.82 85.76 106.07 85.73 106.34 85.72C106.69 85.71 106.99 85.79 107.24 85.97C107.49 86.15 107.62 86.44 107.62 86.84C107.62 87.08 107.51 87.25 107.29 87.34C107.07 87.43 106.69 87.51 106.16 87.57C105.4 87.65 104.6 87.74 103.77 87.84C102.94 87.95 102.09 88.06 101.22 88.18C101.25 88.33 101.27 88.46 101.27 88.57V90.45C101.27 90.88 101.35 91.16 101.52 91.31C101.69 91.46 101.95 91.53 102.3 91.53C102.94 91.53 103.63 91.45 104.36 91.29C105.09 91.13 105.79 90.83 106.44 90.39C106.82 90.13 107.17 90 107.49 89.99C107.81 89.98 108.03 90.11 108.15 90.37C108.32 90.71 108.3 91.02 108.09 91.31C107.88 91.6 107.58 91.84 107.19 92.04C106.78 92.25 106.34 92.43 105.88 92.57C105.42 92.71 104.95 92.82 104.47 92.91V94.33C105.2 94.16 105.96 93.97 106.76 93.76C107.55 93.55 108.36 93.32 109.18 93.07V86.39C109.18 85.9 109.06 85.6 108.81 85.48C108.64 85.39 108.49 85.29 108.36 85.17C108.23 85.06 108.17 84.9 108.17 84.7C108.17 84.49 108.26 84.32 108.43 84.19C108.61 84.06 108.89 84 109.29 84C109.79 84 110.18 84.06 110.46 84.18C110.74 84.3 110.94 84.47 111.08 84.67C111.22 84.88 111.3 85.12 111.33 85.39C111.36 85.66 111.38 85.95 111.38 86.24V88.28C111.68 88.25 111.99 88.22 112.28 88.18C112.58 88.14 112.88 88.09 113.18 88.03V84.76C113.18 84.5 113.16 84.3 113.12 84.17C113.08 84.04 112.99 83.93 112.86 83.85C112.69 83.76 112.54 83.66 112.39 83.54C112.24 83.42 112.17 83.27 112.17 83.07C112.17 82.86 112.26 82.69 112.43 82.56C112.6 82.43 112.89 82.37 113.29 82.37C113.79 82.37 114.18 82.43 114.46 82.55C114.73 82.67 114.94 82.84 115.08 83.04C115.22 83.24 115.3 83.49 115.33 83.76C115.36 84.03 115.38 84.32 115.38 84.61V92.32C115.38 92.63 115.36 92.96 115.32 93.33C115.28 93.7 115.21 94.05 115.1 94.38C114.99 94.72 114.86 94.99 114.69 95.21C114.52 95.43 114.32 95.54 114.07 95.54C113.84 95.54 113.67 95.48 113.56 95.37C113.45 95.26 113.36 95.12 113.3 94.96C113.24 94.8 113.2 94.63 113.2 94.43C113.19 94.24 113.19 94.08 113.19 93.94V89.71H113.2ZM103.53 99.22C103.71 98.89 103.67 98.54 103.39 98.19C103.27 98.02 103.18 97.86 103.12 97.71C103.06 97.56 103.07 97.4 103.14 97.23C103.23 97.06 103.38 96.94 103.6 96.86C103.81 96.78 104.1 96.83 104.45 97C104.77 97.14 105.06 97.29 105.32 97.47C105.58 97.65 105.78 97.85 105.93 98.08C106.07 98.31 106.14 98.56 106.14 98.85C106.13 99.13 106.01 99.44 105.79 99.78C105.76 99.84 105.73 99.89 105.69 99.94C105.65 99.99 105.62 100.03 105.59 100.08C105.61 100.1 105.63 100.1 105.66 100.1C106.01 100.21 106.34 100.31 106.65 100.41C106.96 100.51 107.2 100.6 107.37 100.7C107.66 100.87 107.82 101.08 107.85 101.34C107.88 101.6 107.8 101.84 107.6 102.07C107.34 102.34 107.07 102.47 106.78 102.46C106.49 102.45 106.19 102.35 105.87 102.16C105.67 102.04 105.47 101.91 105.25 101.78C105.04 101.65 104.81 101.52 104.56 101.38C103.87 102.16 103.15 102.84 102.4 103.42C101.65 104 100.87 104.52 100.08 105C99.87 105.12 99.66 105.21 99.45 105.26C99.24 105.31 99.1 105.29 99.03 105.2C98.95 105.11 98.95 105 99.02 104.88C99.09 104.76 99.24 104.59 99.47 104.38C99.96 103.95 100.4 103.54 100.78 103.13C101.17 102.73 101.53 102.32 101.85 101.91C102.18 101.5 102.48 101.07 102.75 100.63C103 100.17 103.27 99.71 103.53 99.22ZM113.13 98.44C113.01 98.64 112.89 98.83 112.78 99.01C112.67 99.19 112.54 99.38 112.4 99.56C112.61 99.65 112.81 99.74 112.99 99.82C113.17 99.9 113.34 99.98 113.49 100.04C113.93 100.24 114.4 100.4 114.88 100.52C115.37 100.64 115.85 100.83 116.32 101.09C116.67 101.29 116.89 101.53 116.97 101.82C117.05 102.11 117 102.38 116.8 102.64C116.57 102.94 116.28 103.1 115.92 103.11C115.56 103.12 115.21 103.02 114.88 102.82C114.44 102.56 113.9 102.25 113.27 101.89C112.64 101.53 111.99 101.18 111.34 100.83C110.75 101.5 110.09 102.14 109.37 102.75C108.65 103.36 107.89 103.93 107.08 104.46C106.87 104.6 106.66 104.7 106.47 104.78C106.28 104.86 106.13 104.84 106.02 104.73C105.85 104.58 105.98 104.29 106.41 103.86C107.37 102.95 108.21 101.99 108.94 101C109.67 100.01 110.29 98.93 110.83 97.78C110.98 97.46 110.94 97.15 110.69 96.84C110.57 96.67 110.48 96.51 110.42 96.36C110.36 96.21 110.37 96.03 110.47 95.83C110.55 95.68 110.69 95.57 110.9 95.5C111.11 95.43 111.4 95.48 111.75 95.65C112.05 95.79 112.33 95.94 112.58 96.12C112.83 96.3 113.03 96.5 113.19 96.73C113.34 96.96 113.42 97.21 113.42 97.5C113.43 97.8 113.33 98.11 113.13 98.44Z" fill="black"/>
<path d="M120.68 89.89C120.68 89.72 120.66 89.59 120.63 89.49C120.6 89.39 120.55 89.31 120.49 89.24C120.43 89.17 120.35 89.12 120.26 89.08C120.17 89.04 120.06 88.99 119.94 88.93C119.74 88.84 119.58 88.74 119.46 88.63C119.34 88.52 119.28 88.37 119.28 88.17C119.28 87.96 119.37 87.79 119.54 87.66C119.72 87.53 120 87.47 120.4 87.47C120.99 87.47 121.5 87.53 121.91 87.65C123.27 87.6 124.62 87.43 125.98 87.12C126.25 87.06 126.51 86.99 126.75 86.91C126.98 86.83 127.21 86.76 127.44 86.69C127.66 86.62 127.89 86.56 128.11 86.52C128.34 86.47 128.59 86.44 128.86 86.43C129.21 86.41 129.51 86.5 129.76 86.68C130.01 86.86 130.14 87.15 130.14 87.55C130.14 87.79 130.03 87.96 129.81 88.05C129.59 88.14 129.21 88.22 128.68 88.28C127.76 88.37 126.86 88.48 125.96 88.6C125.06 88.72 124.12 88.85 123.15 88.99C123.16 89.05 123.17 89.14 123.17 89.24V95.53C123.17 96.02 123.28 96.36 123.5 96.56C123.72 96.76 124.05 96.86 124.49 96.86C125.37 96.86 126.31 96.67 127.29 96.29C128.27 95.91 129.18 95.42 130 94.83C130.35 94.57 130.7 94.42 131.05 94.37C131.4 94.32 131.64 94.45 131.76 94.76C131.84 94.93 131.86 95.1 131.82 95.26C131.78 95.43 131.7 95.59 131.59 95.75C131.48 95.91 131.33 96.06 131.16 96.2C130.99 96.34 130.81 96.46 130.62 96.57C129.51 97.18 128.34 97.66 127.11 98.02C125.88 98.38 124.73 98.56 123.67 98.56C122.68 98.56 121.93 98.34 121.43 97.89C120.93 97.44 120.68 96.64 120.68 95.5V89.89ZM132.73 84.75C132.73 84.49 132.71 84.29 132.69 84.16C132.66 84.02 132.57 83.92 132.44 83.84C132.27 83.75 132.12 83.65 131.99 83.53C131.86 83.42 131.8 83.26 131.8 83.06C131.8 82.85 131.89 82.68 132.06 82.55C132.23 82.42 132.52 82.36 132.92 82.36C133.42 82.36 133.81 82.42 134.1 82.54C134.38 82.66 134.59 82.83 134.74 83.03C134.89 83.23 134.98 83.48 135.02 83.75C135.06 84.02 135.08 84.31 135.08 84.6V90.34C135.25 90.29 135.41 90.25 135.56 90.2C135.71 90.15 135.87 90.09 136.04 90.02C136.59 89.81 137.06 89.7 137.46 89.71C137.85 89.72 138.3 89.84 138.79 90.09C138.97 90.18 139.11 90.3 139.2 90.46C139.29 90.61 139.34 90.76 139.34 90.89C139.34 91.06 139.29 91.2 139.18 91.31C139.07 91.42 138.85 91.5 138.52 91.53C138.12 91.56 137.63 91.62 137.02 91.7C136.42 91.78 135.77 91.89 135.09 92.01V99.99C135.09 100.29 135.07 100.63 135.02 101C134.97 101.37 134.9 101.72 134.78 102.05C134.66 102.38 134.52 102.66 134.35 102.88C134.17 103.1 133.96 103.21 133.72 103.21C133.49 103.21 133.32 103.15 133.19 103.04C133.07 102.93 132.97 102.79 132.9 102.63C132.83 102.47 132.79 102.29 132.78 102.1C132.76 101.91 132.76 101.75 132.76 101.61V84.75H132.73Z" fill="black"/>
<path d="M142.79 94.12C142.79 93.91 142.71 93.75 142.55 93.66C142.39 93.57 142.23 93.48 142.06 93.41C141.85 93.33 141.68 93.24 141.57 93.12C141.45 93.01 141.4 92.85 141.4 92.65C141.4 92.44 141.49 92.27 141.66 92.14C141.83 92.01 142.12 91.95 142.52 91.95C142.67 91.95 142.82 91.95 142.95 91.96C143.09 91.97 143.22 91.98 143.34 91.99C143.72 91.96 144.15 91.91 144.63 91.85C145.11 91.79 145.61 91.72 146.12 91.63C146.63 91.55 147.13 91.47 147.63 91.39C148.13 91.31 148.57 91.24 148.97 91.16V87.96C148.48 88.02 148.05 88.08 147.67 88.14C147.29 88.2 146.92 88.27 146.55 88.36C146.18 88.44 145.81 88.54 145.43 88.65C145.05 88.76 144.61 88.88 144.1 89.02C143.86 89.1 143.59 89.11 143.31 89.07C143.03 89.02 142.76 88.94 142.51 88.82C142.26 88.7 142.04 88.55 141.86 88.36C141.68 88.18 141.56 87.98 141.52 87.77C141.47 87.56 141.5 87.38 141.6 87.24C141.7 87.1 141.92 87.03 142.25 87.03C143.24 87.03 144.19 86.97 145.09 86.84C145.99 86.71 146.97 86.55 148.02 86.37C148.31 86.32 148.56 86.27 148.79 86.2C149.01 86.13 149.22 86.07 149.43 86.01C149.64 85.95 149.85 85.89 150.06 85.84C150.27 85.79 150.51 85.75 150.77 85.74C151.14 85.71 151.4 85.77 151.56 85.91C151.72 86.06 151.78 86.33 151.75 86.72C151.73 86.89 151.69 87.04 151.62 87.19C151.55 87.34 151.45 87.46 151.31 87.57L151.15 91.02C151.35 91.07 151.51 91.14 151.63 91.25C151.75 91.36 151.81 91.51 151.81 91.71C151.81 91.91 151.7 92.1 151.48 92.28C151.26 92.46 150.88 92.59 150.35 92.65C149.43 92.76 148.57 92.88 147.77 93C146.96 93.13 146.12 93.26 145.26 93.4C145.29 93.55 145.3 93.67 145.3 93.74V96C145.3 96.95 145.74 97.4 146.63 97.35C147.71 97.3 148.68 97.1 149.55 96.72C150.41 96.35 151.25 95.85 152.08 95.22C152.43 94.95 152.79 94.8 153.14 94.8C153.5 94.79 153.74 94.94 153.86 95.25C153.94 95.42 153.96 95.58 153.92 95.74C153.88 95.9 153.81 96.06 153.69 96.22C153.57 96.38 153.43 96.53 153.26 96.68C153.08 96.83 152.91 96.95 152.72 97.06C151.61 97.7 150.44 98.19 149.22 98.52C148 98.85 146.86 99.02 145.79 99.02C144.8 99.02 144.06 98.8 143.56 98.35C143.06 97.9 142.82 97.1 142.82 95.96V94.12H142.79ZM155.48 84.75C155.48 84.49 155.46 84.29 155.43 84.16C155.4 84.03 155.32 83.92 155.18 83.84C155.01 83.75 154.86 83.65 154.73 83.53C154.6 83.41 154.54 83.26 154.54 83.06C154.54 82.85 154.63 82.68 154.8 82.55C154.98 82.42 155.26 82.36 155.66 82.36C156.16 82.36 156.56 82.42 156.84 82.54C157.12 82.66 157.34 82.83 157.48 83.03C157.62 83.24 157.72 83.48 157.75 83.75C157.78 84.02 157.81 84.31 157.81 84.6V99.99C157.81 100.29 157.79 100.63 157.74 101C157.69 101.37 157.61 101.72 157.5 102.05C157.39 102.38 157.24 102.66 157.07 102.88C156.9 103.1 156.69 103.21 156.44 103.21C156.21 103.21 156.04 103.15 155.91 103.04C155.78 102.93 155.69 102.79 155.62 102.63C155.55 102.47 155.51 102.29 155.5 102.1C155.48 101.91 155.48 101.75 155.48 101.61V84.75Z" fill="black"/>
<path d="M177.68 89.32C177.68 90.08 177.55 90.77 177.3 91.39C177.05 92.01 176.71 92.55 176.27 93.03C175.83 93.51 175.32 93.9 174.74 94.23C174.15 94.56 173.52 94.81 172.85 94.97V98.35C173.49 98.24 174.1 98.14 174.68 98.04C175.26 97.94 175.8 97.85 176.3 97.75C177.03 97.61 177.79 97.45 178.58 97.25C179.37 97.05 180.08 96.94 180.72 96.91C181.6 96.88 182.05 97.18 182.05 97.8C182.05 98.09 181.94 98.34 181.71 98.54C181.48 98.75 181.13 98.86 180.66 98.89C179.88 98.95 179.03 99.04 178.11 99.14C177.19 99.25 176.23 99.37 175.25 99.52C174.27 99.67 173.28 99.82 172.29 99.98C171.3 100.14 170.34 100.31 169.41 100.48C168.48 100.66 167.61 100.83 166.79 101.01C165.97 101.19 165.25 101.35 164.63 101.5C164.26 101.59 163.93 101.62 163.62 101.58C163.31 101.54 163.04 101.46 162.81 101.33C162.57 101.2 162.37 101.04 162.2 100.86C162.03 100.68 161.9 100.49 161.79 100.31C161.65 100.05 161.64 99.84 161.76 99.67C161.87 99.5 162.12 99.43 162.5 99.46C162.88 99.48 163.36 99.47 163.93 99.44C164.5 99.41 165.14 99.36 165.84 99.28C166.54 99.2 167.29 99.12 168.08 99.02C168.87 98.92 169.67 98.81 170.48 98.69V95.24C169.67 95.22 168.96 95.1 168.35 94.87C167.74 94.64 167.23 94.33 166.82 93.93C166.41 93.53 166.1 93.07 165.89 92.53C165.68 92 165.58 91.41 165.58 90.77C165.58 89.87 165.79 89.06 166.2 88.32C166.61 87.59 167.15 86.97 167.81 86.46C168.47 85.95 169.22 85.56 170.06 85.28C170.9 85.01 171.75 84.87 172.62 84.87C173.37 84.87 174.05 84.97 174.67 85.17C175.29 85.37 175.82 85.65 176.26 86.03C176.7 86.4 177.05 86.87 177.3 87.43C177.56 87.99 177.68 88.62 177.68 89.32ZM175.28 89.53C175.28 88.55 175 87.85 174.45 87.4C173.89 86.96 173.19 86.74 172.33 86.74C171.8 86.74 171.27 86.82 170.75 86.98C170.23 87.14 169.77 87.38 169.36 87.7C168.95 88.02 168.62 88.42 168.37 88.9C168.12 89.38 167.99 89.94 167.99 90.58C167.99 91.56 168.27 92.27 168.82 92.72C169.38 93.17 170.09 93.39 170.96 93.39C171.49 93.39 172.02 93.31 172.54 93.14C173.06 92.97 173.52 92.72 173.92 92.4C174.32 92.07 174.65 91.67 174.9 91.19C175.16 90.7 175.28 90.15 175.28 89.53Z" fill="black"/>
<path d="M186.1 99.66C186.56 99.63 186.94 99.75 187.24 100.03C187.54 100.3 187.7 100.67 187.7 101.13C187.7 101.62 187.55 102 187.24 102.28C186.93 102.56 186.55 102.72 186.1 102.75C185.64 102.78 185.26 102.67 184.95 102.41C184.64 102.15 184.48 101.78 184.48 101.29C184.48 100.83 184.64 100.46 184.95 100.16C185.25 99.85 185.64 99.69 186.1 99.66ZM184.75 87.49C184.73 87.22 184.74 86.95 184.76 86.68C184.78 86.41 184.84 86.17 184.93 85.95C185.02 85.73 185.15 85.55 185.32 85.41C185.49 85.27 185.72 85.2 186.01 85.18C186.31 85.17 186.56 85.22 186.74 85.34C186.92 85.46 187.06 85.63 187.14 85.84C187.22 86.05 187.28 86.29 187.3 86.56C187.32 86.83 187.33 87.1 187.31 87.37L186.83 97.8C186.82 98.06 186.74 98.26 186.59 98.39C186.45 98.53 186.27 98.6 186.05 98.62C185.85 98.64 185.69 98.58 185.56 98.46C185.43 98.34 185.36 98.15 185.34 97.89L184.75 87.49Z" fill="black"/>
<path d="M192.96 99.66C193.42 99.63 193.8 99.75 194.1 100.03C194.4 100.3 194.56 100.67 194.56 101.13C194.56 101.62 194.41 102 194.1 102.28C193.79 102.56 193.41 102.72 192.96 102.75C192.5 102.78 192.12 102.67 191.81 102.41C191.5 102.15 191.34 101.78 191.34 101.29C191.34 100.83 191.5 100.46 191.81 100.16C192.11 99.85 192.5 99.69 192.96 99.66ZM191.61 87.49C191.59 87.22 191.6 86.95 191.62 86.68C191.64 86.41 191.7 86.17 191.79 85.95C191.88 85.73 192.01 85.55 192.18 85.41C192.35 85.27 192.58 85.2 192.87 85.18C193.17 85.17 193.42 85.22 193.6 85.34C193.78 85.46 193.92 85.63 194 85.84C194.08 86.05 194.14 86.29 194.16 86.56C194.18 86.83 194.19 87.1 194.17 87.37L193.69 97.8C193.68 98.06 193.6 98.26 193.45 98.39C193.31 98.53 193.13 98.6 192.91 98.62C192.71 98.64 192.55 98.58 192.42 98.46C192.29 98.34 192.22 98.15 192.2 97.89L191.61 87.49Z" fill="black"/>
</svg>
