<svg width="86" height="228" viewBox="0 0 86 228" fill="none" xmlns="http://www.w3.org/2000/svg">
<g clip-path="url(#clip0_188_1960)">
<mask id="mask0_188_1960" style="mask-type:luminance" maskUnits="userSpaceOnUse" x="0" y="0" width="86" height="228">
<path d="M86 0H0V228H86V0Z" fill="white"/>
</mask>
<g mask="url(#mask0_188_1960)">
<path opacity="0.5" d="M43.0002 125.02C57.5418 125.02 69.3302 121.492 69.3302 117.14C69.3302 112.788 57.5418 109.26 43.0002 109.26C28.4585 109.26 16.6702 112.788 16.6702 117.14C16.6702 121.492 28.4585 125.02 43.0002 125.02Z" fill="#7A736E"/>
<path d="M43.0001 100.72C45.6801 100.72 52.7501 117.67 61.3101 113.34C70.5101 108.68 57.1901 68.8598 61.4901 73.7998C65.7901 78.7398 75.0301 84.9898 80.3001 84.4998C83.0101 84.2498 88.4901 80.3598 80.3001 65.6898C70.9201 48.8798 56.3001 43.7998 56.3001 43.7998H29.7101C29.7101 43.7998 15.0901 48.8798 5.7101 65.6898C-2.4799 80.3698 3.0001 84.2498 5.7101 84.4998C10.9801 84.9898 20.2201 78.7398 24.5201 73.7998C28.8201 68.8598 9.1601 113.48 23.2701 119.84C39.3401 127.08 40.3301 100.72 43.0001 100.72Z" fill="#F4F4F4" stroke="#231815" stroke-linecap="round" stroke-linejoin="round"/>
<path d="M83.0701 71.4798C83.0701 71.4798 72.7901 74.3198 72.7901 82.4398C68.5301 80.2798 64.0901 76.7998 61.4801 73.7998C59.6101 71.6498 61.0701 77.9498 62.5601 86.1498C49.6201 82.5898 28.9801 84.7898 21.9401 85.6998C24.1601 77.6098 26.1901 71.8398 24.5001 73.7998C21.7401 76.9798 16.9201 80.6998 12.4301 82.8198C12.7001 76.9398 3.62009 70.6398 3.34009 70.4498C3.95009 68.9998 4.73009 67.4198 5.70009 65.6898C15.0801 48.8798 29.7001 43.7998 29.7001 43.7998H56.2901C56.2901 43.7998 70.9101 48.8798 80.2901 65.6898C81.4901 67.8498 82.4001 69.7698 83.0601 71.4798H83.0701Z" fill="#B2B2B2" stroke="#231815" stroke-linecap="round" stroke-linejoin="round"/>
<path d="M61.2301 113.34C52.6701 117.67 45.6001 100.72 42.9301 100.72C40.2601 100.72 39.2701 127.08 23.1901 119.84C14.6401 115.99 18.4801 98.1201 21.8801 85.7101C28.9201 84.8001 49.5501 82.5901 62.5001 86.1601C64.4401 96.8301 66.4401 110.71 61.2401 113.35L61.2301 113.34Z" fill="#F4F4F4" stroke="#231815" stroke-linecap="round" stroke-linejoin="round"/>
<path d="M61.3001 113.34C52.7401 117.67 45.6701 100.72 43.0001 100.72C40.3301 100.72 39.3401 127.08 23.2601 119.84C14.7101 115.99 18.5501 98.1201 21.9501 85.7101C28.9901 84.8001 49.6201 82.5901 62.5701 86.1601C64.5101 96.8301 66.5102 110.71 61.3102 113.35L61.3001 113.34Z" fill="#B0DBE2" stroke="#231815" stroke-linecap="round" stroke-linejoin="round"/>
<path d="M28.31 87.5298C28.31 87.5298 28.19 92.5398 21.54 94.3798" stroke="#231815" stroke-linecap="round" stroke-linejoin="round"/>
<path d="M57.8801 87.5298C57.8801 87.5298 58.4101 91.2898 61.2001 92.4798" stroke="#231815" stroke-linecap="round" stroke-linejoin="round"/>
<path d="M43.0002 50.93C56.3047 50.93 67.0902 40.1445 67.0902 26.84C67.0902 13.5355 56.3047 2.75 43.0002 2.75C29.6956 2.75 18.9102 13.5355 18.9102 26.84C18.9102 40.1445 29.6956 50.93 43.0002 50.93Z" fill="#F4F4F4" stroke="#231815" stroke-linecap="round" stroke-linejoin="round"/>
<path d="M19.3302 22.4C19.3302 22.4 9.2502 17.15 7.2002 12.21C7.2002 12.21 13.3702 13.83 14.0702 13.73L9.5202 5.01998C9.5202 5.01998 15.0302 9.28998 16.3002 9.17998L15.2202 0.72998C15.2202 0.72998 19.6602 4.80998 24.0402 4.60998C31.2602 4.27998 37.7702 0.60998 45.1302 0.84998C51.7002 1.06998 57.9102 3.63998 62.3402 8.86998C65.3302 12.4 66.6702 17.68 66.6702 22.41C66.6702 22.41 47.1502 15.45 31.1302 16.64C28.6102 16.83 30.5002 18.42 30.5002 18.42C30.5002 18.42 23.3502 20.23 19.3202 22.41L19.3302 22.4Z" fill="#231815" stroke="#231815" stroke-linecap="round" stroke-linejoin="round"/>
<path d="M34.3502 24.6602C34.3502 27.6702 32.4902 30.1102 30.2002 30.1102C32.4902 30.1102 34.3502 32.5502 34.3502 35.5602C34.3502 32.5502 36.2102 30.1102 38.5002 30.1102C36.2102 30.1102 34.3502 27.6702 34.3502 24.6602Z" fill="#FFF929" stroke="#231815" stroke-linecap="round" stroke-linejoin="round"/>
<path d="M51.6502 24.3501C51.6502 27.3601 49.7902 29.8001 47.5002 29.8001C49.7902 29.8001 51.6502 32.2401 51.6502 35.2501C51.6502 32.2401 53.5102 29.8001 55.8002 29.8001C53.5102 29.8001 51.6502 27.3601 51.6502 24.3501Z" fill="#FFF929" stroke="#231815" stroke-linecap="round" stroke-linejoin="round"/>
<path d="M39.2202 40.2502C39.2202 40.2502 43.1902 41.0302 46.7002 39.1602L39.2202 40.2502Z" fill="#F4F4F4"/>
<path d="M39.2202 40.2502C39.2202 40.2502 43.1902 41.0302 46.7002 39.1602" stroke="#231815" stroke-linecap="round" stroke-linejoin="round"/>
<path d="M84.27 75.41C78.67 76.34 75.64 83.69 75.64 83.69C74.71 83.36 73.76 82.94 72.79 82.44C72.79 74.31 83.07 71.48 83.07 71.48C83.64 72.94 84.03 74.25 84.27 75.41Z" fill="#B2B2B2" stroke="#231815" stroke-linecap="round" stroke-linejoin="round"/>
<path d="M12.4401 82.8199C11.1601 83.4299 9.90013 83.8999 8.73013 84.1899C6.13013 77.5099 1.88013 74.7299 1.88013 74.7299C2.19013 73.4599 2.67013 72.0399 3.35013 70.4399C3.63013 70.6399 12.7101 76.9299 12.4401 82.8099V82.8199Z" fill="#B2B2B2" stroke="#231815" stroke-linecap="round" stroke-linejoin="round"/>
<path d="M8.86997 75.3301L5.96997 79.0101" stroke="#231815" stroke-linecap="round" stroke-linejoin="round"/>
<path d="M10.6702 77.6201L7.16016 80.9001" stroke="#231815" stroke-linecap="round" stroke-linejoin="round"/>
<path d="M12.0401 80.29L8.11011 82.73" stroke="#231815" stroke-linecap="round" stroke-linejoin="round"/>
<path d="M6.94015 73.3701L4.65015 77.3201" stroke="#231815" stroke-linecap="round" stroke-linejoin="round"/>
<path d="M5.12009 71.79L3.09009 75.72" stroke="#231815" stroke-linecap="round" stroke-linejoin="round"/>
<path d="M76.5002 74.9902L79.1402 78.3702" stroke="#231815" stroke-linecap="round" stroke-linejoin="round"/>
<path d="M78.7803 73.3804L80.6303 77.0504" stroke="#231815" stroke-linecap="round" stroke-linejoin="round"/>
<path d="M81.1001 72.2002L82.5001 75.9402" stroke="#231815" stroke-linecap="round" stroke-linejoin="round"/>
<path d="M74.5002 77.1602L77.8202 79.9402" stroke="#231815" stroke-linecap="round" stroke-linejoin="round"/>
<path d="M73.1902 79.7603L76.6102 81.7903" stroke="#231815" stroke-linecap="round" stroke-linejoin="round"/>
<path d="M47.4901 67.96H43.9201V73.14H40.4101V67.96H36.8401V73.14H33.1201V76.71H36.8401H40.4101H43.9201H47.4901H52.8801V73.14H47.4901V67.96Z" fill="#F4F4F4" stroke="#231815" stroke-linecap="round" stroke-linejoin="round"/>
<path d="M49.3101 55.4399H33.1201V59.0099H49.3101V66.7299H52.8801V59.0099V55.4399H49.3101Z" fill="#F4F4F4" stroke="#231815" stroke-linecap="round" stroke-linejoin="round"/>
<path d="M77.7902 200.78C77.7902 211.93 66.0702 227.27 51.6102 227.27C37.1502 227.27 25.4302 211.93 25.4302 200.78C25.4302 189.63 51.6502 31.4702 51.6502 31.4702C51.6502 31.4702 77.8002 189.63 77.8002 200.78H77.7902Z" fill="url(#paint0_linear_188_1960)"/>
<path d="M60.5001 200.78C60.5001 211.93 48.7801 227.27 34.3201 227.27C19.8601 227.27 8.14014 211.93 8.14014 200.78C8.14014 189.63 34.3501 31.4702 34.3501 31.4702C34.3501 31.4702 60.5001 189.63 60.5001 200.78Z" fill="url(#paint1_linear_188_1960)"/>
</g>
</g>
<defs>
<linearGradient id="paint0_linear_188_1960" x1="51.6102" y1="232.64" x2="51.6102" y2="21.7602" gradientUnits="userSpaceOnUse">
<stop stop-color="#FFF929" stop-opacity="0.15"/>
<stop offset="1" stop-color="#FFF929" stop-opacity="0.7"/>
</linearGradient>
<linearGradient id="paint1_linear_188_1960" x1="34.3101" y1="232.64" x2="34.3101" y2="21.7602" gradientUnits="userSpaceOnUse">
<stop stop-color="#FFF929" stop-opacity="0.15"/>
<stop offset="1" stop-color="#FFF929" stop-opacity="0.7"/>
</linearGradient>
<clipPath id="clip0_188_1960">
<rect width="86" height="228" fill="white"/>
</clipPath>
</defs>
</svg>
