<svg width="86" height="232" viewBox="0 0 86 232" fill="none" xmlns="http://www.w3.org/2000/svg">
<g clip-path="url(#clip0_188_2159)">
<mask id="mask0_188_2159" style="mask-type:luminance" maskUnits="userSpaceOnUse" x="0" y="0" width="86" height="232">
<path d="M86 0H0V232H86V0Z" fill="white"/>
</mask>
<g mask="url(#mask0_188_2159)">
<path opacity="0.5" d="M43.0002 231.23C57.5418 231.23 69.3302 227.702 69.3302 223.35C69.3302 218.998 57.5418 215.47 43.0002 215.47C28.4585 215.47 16.6702 218.998 16.6702 223.35C16.6702 227.702 28.4585 231.23 43.0002 231.23Z" fill="#7A736E"/>
<path d="M25.26 27.26C25.26 16.11 36.98 0.77002 51.44 0.77002C65.9 0.77002 77.62 16.11 77.62 27.26C77.62 38.41 51.4 139.8 51.4 139.8C51.4 139.8 25.25 38.4 25.25 27.26H25.26Z" fill="url(#paint0_linear_188_2159)"/>
<path d="M7.9602 27.26C7.9602 16.11 19.6802 0.77002 34.1402 0.77002C48.6002 0.77002 60.3202 16.11 60.3202 27.26C60.3202 38.41 34.1002 139.8 34.1002 139.8C34.1002 139.8 7.9502 38.4 7.9502 27.26H7.9602Z" fill="url(#paint1_linear_188_2159)"/>
<path d="M43.0001 206.93C40.3201 206.93 33.2501 223.88 24.6901 219.55C15.4901 214.89 28.8101 175.07 24.5101 180.01C20.2101 184.96 10.9701 191.2 5.70009 190.71C2.99009 190.46 -2.48991 186.57 5.70009 171.9C15.0801 155.09 29.7001 150.01 29.7001 150.01H56.2901C56.2901 150.01 70.9101 155.09 80.2901 171.9C88.4801 186.58 83.0001 190.46 80.2901 190.71C75.0201 191.2 65.7801 184.95 61.4801 180.01C57.1801 175.06 76.8401 219.69 62.7301 226.05C46.6601 233.29 45.6701 206.93 43.0001 206.93Z" fill="#F4F4F4" stroke="#231815" stroke-linecap="round" stroke-linejoin="round"/>
<path d="M24.7701 219.55C33.3301 223.88 40.4001 206.93 43.0701 206.93C45.7401 206.93 46.7301 233.29 62.8101 226.05C71.3601 222.2 67.5201 204.33 64.1201 191.92C57.0801 191.01 36.4501 188.8 23.5001 192.37C21.5601 203.04 19.5601 216.92 24.7601 219.56L24.7701 219.55Z" fill="#F4F4F4" stroke="#231815" stroke-linecap="round" stroke-linejoin="round"/>
<path d="M24.7001 219.55C33.2601 223.88 40.3301 206.93 43.0001 206.93C45.6701 206.93 46.6601 233.29 62.7401 226.05C71.2901 222.2 67.4501 204.33 64.0501 191.92C57.0101 191.01 36.3801 188.8 23.4301 192.37C21.4901 203.04 19.4901 216.92 24.6901 219.56L24.7001 219.55Z" fill="#B0DBE2" stroke="#231815" stroke-linecap="round" stroke-linejoin="round"/>
<path d="M43.0002 157.15C56.3047 157.15 67.0902 146.364 67.0902 133.06C67.0902 119.755 56.3047 108.97 43.0002 108.97C29.6956 108.97 18.9102 119.755 18.9102 133.06C18.9102 146.364 29.6956 157.15 43.0002 157.15Z" fill="#F4F4F4" stroke="#231815" stroke-linecap="round" stroke-linejoin="round"/>
<path d="M1.72998 181.63C7.32998 182.56 10.36 189.91 10.36 189.91C11.29 189.58 12.24 189.16 13.21 188.66C13.21 180.53 2.92998 177.7 2.92998 177.7C2.35998 179.16 1.96998 180.47 1.72998 181.63Z" fill="#B2B2B2" stroke="#231815" stroke-linecap="round" stroke-linejoin="round"/>
<path d="M73.5601 189.04C74.8401 189.65 76.1001 190.12 77.2701 190.41C79.8701 183.73 84.1201 180.95 84.1201 180.95C83.8101 179.68 83.3301 178.26 82.6501 176.66C82.3701 176.86 73.2901 183.15 73.5601 189.03V189.04Z" fill="#B2B2B2" stroke="#231815" stroke-linecap="round" stroke-linejoin="round"/>
<path d="M77.1301 181.54L80.0301 185.22" stroke="#231815" stroke-linecap="round" stroke-linejoin="round"/>
<path d="M75.3303 183.84L78.8403 187.11" stroke="#231815" stroke-linecap="round" stroke-linejoin="round"/>
<path d="M73.9602 186.51L77.8902 188.94" stroke="#231815" stroke-linecap="round" stroke-linejoin="round"/>
<path d="M79.0603 179.59L81.3503 183.53" stroke="#231815" stroke-linecap="round" stroke-linejoin="round"/>
<path d="M80.8801 178.01L82.9101 181.93" stroke="#231815" stroke-linecap="round" stroke-linejoin="round"/>
<path d="M9.50011 181.21L6.86011 184.59" stroke="#231815" stroke-linecap="round" stroke-linejoin="round"/>
<path d="M7.22012 179.59L5.37012 183.26" stroke="#231815" stroke-linecap="round" stroke-linejoin="round"/>
<path d="M4.9 178.42L3.5 182.16" stroke="#231815" stroke-linecap="round" stroke-linejoin="round"/>
<path d="M11.4999 183.37L8.17993 186.16" stroke="#231815" stroke-linecap="round" stroke-linejoin="round"/>
<path d="M12.8099 185.98L9.38989 188" stroke="#231815" stroke-linecap="round" stroke-linejoin="round"/>
<path d="M2.93018 177.69C2.93018 177.69 13.2102 180.53 13.2102 188.65C17.4702 186.49 21.9102 183.01 24.5202 180.01C26.3902 177.86 24.9302 184.16 23.4402 192.36C36.3802 188.8 57.0202 191 64.0602 191.91C61.8402 183.82 59.8102 178.05 61.5002 180.01C64.2602 183.19 69.0802 186.91 73.5702 189.03C73.3002 183.15 82.3802 176.85 82.6602 176.66C82.0502 175.21 81.2702 173.63 80.3002 171.9C70.9202 155.09 56.3002 150.01 56.3002 150.01C48.4102 154.82 39.5502 154.82 29.7102 150.01C29.7102 150.01 15.0902 155.09 5.71018 171.9C4.51018 174.06 3.60018 175.98 2.94018 177.69H2.93018Z" fill="#B2B2B2" stroke="#231815" stroke-linecap="round" stroke-linejoin="round"/>
<path d="M27.9202 150.76C27.9202 150.76 43.8102 160.08 58.3102 150.87" stroke="#231815" stroke-linecap="round" stroke-linejoin="round"/>
<path d="M71.9301 119.94L76.4801 111.23C76.4801 111.23 70.9701 115.5 69.7001 115.39L70.7801 106.94C70.7801 106.94 66.3401 111.02 61.9601 110.82C54.7401 110.49 48.2301 106.82 40.8701 107.06C34.2901 107.28 28.0901 109.85 23.6601 115.08C20.6701 118.61 19.3301 123.89 19.3301 128.62C19.3301 128.62 21.9401 147.72 36.7101 150.02H49.0701C49.0701 150.02 61.3101 148.4 66.6801 128.62C66.6801 128.62 76.7601 123.37 78.8101 118.43C78.8101 118.43 72.6401 120.05 71.9401 119.95L71.9301 119.94Z" fill="#231815" stroke="#231815" stroke-linecap="round" stroke-linejoin="round"/>
<path d="M28.4001 195.81L34.6701 196.53C34.6701 196.53 34.8201 202.29 31.5301 202.5C28.2401 202.71 27.9801 198.39 28.3901 195.81H28.4001Z" stroke="#231815" stroke-linecap="round" stroke-linejoin="round"/>
<path d="M51.51 196.94L58.6 195.47C58.6 195.47 60.29 201.41 57.26 202.82C54.23 204.23 52.41 201.06 51.5 196.94H51.51Z" fill="#B0DBE2" stroke="#231815" stroke-linecap="round" stroke-linejoin="round"/>
</g>
</g>
<defs>
<linearGradient id="paint0_linear_188_2159" x1="51.44" y1="-3.03998" x2="51.44" y2="146.7" gradientUnits="userSpaceOnUse">
<stop stop-color="#FFF929" stop-opacity="0.15"/>
<stop offset="1" stop-color="#FFF929" stop-opacity="0.7"/>
</linearGradient>
<linearGradient id="paint1_linear_188_2159" x1="34.1402" y1="-453.68" x2="34.1402" y2="-453.68" gradientUnits="userSpaceOnUse">
<stop stop-color="#FFF929" stop-opacity="0.15"/>
<stop offset="1" stop-color="#FFF929" stop-opacity="0.7"/>
</linearGradient>
<clipPath id="clip0_188_2159">
<rect width="86" height="232" fill="white"/>
</clipPath>
</defs>
</svg>
