<svg width="86" height="228" viewBox="0 0 86 228" fill="none" xmlns="http://www.w3.org/2000/svg">
<g clip-path="url(#clip0_188_2000)">
<mask id="mask0_188_2000" style="mask-type:luminance" maskUnits="userSpaceOnUse" x="0" y="0" width="86" height="228">
<path d="M86 0H0V228H86V0Z" fill="white"/>
</mask>
<g mask="url(#mask0_188_2000)">
<path opacity="0.5" d="M42.79 125.02C57.3316 125.02 69.12 121.492 69.12 117.14C69.12 112.788 57.3316 109.26 42.79 109.26C28.2483 109.26 16.46 112.788 16.46 117.14C16.46 121.492 28.2483 125.02 42.79 125.02Z" fill="#7A736E"/>
<path d="M42.9998 100.72C40.3198 100.72 33.2498 117.67 24.6898 113.34C15.4898 108.68 28.8098 68.8598 24.5098 73.7998C20.2098 78.7398 10.9698 84.9898 5.69985 84.4998C2.98985 84.2498 -2.49015 80.3598 5.69985 65.6898C15.0798 48.8798 29.6998 43.7998 29.6998 43.7998H56.2898C56.2898 43.7998 70.9099 48.8798 80.2898 65.6898C88.4799 80.3698 82.9998 84.2498 80.2898 84.4998C75.0199 84.9898 65.7798 78.7398 61.4798 73.7998C57.1798 68.8498 76.8398 113.48 62.7298 119.84C46.6598 127.08 45.6698 100.72 42.9998 100.72Z" fill="#F4F4F4" stroke="#231815" stroke-linecap="round" stroke-linejoin="round"/>
<path d="M2.92969 71.4798C2.92969 71.4798 13.2097 74.3198 13.2097 82.4398C17.4697 80.2798 21.9097 76.7998 24.5197 73.7998C26.3897 71.6498 24.9297 77.9498 23.4397 86.1498C36.3797 82.5898 57.0197 84.7898 64.0597 85.6998C61.8397 77.6098 59.8097 71.8398 61.4997 73.7998C64.2597 76.9798 69.0797 80.6998 73.5697 82.8198C73.2997 76.9398 82.3797 70.6398 82.6597 70.4498C82.0497 68.9998 81.2697 67.4198 80.2997 65.6898C70.9197 48.8798 56.2997 43.7998 56.2997 43.7998H29.7097C29.7097 43.7998 15.0897 48.8798 5.70969 65.6898C4.50969 67.8498 3.59969 69.7698 2.93969 71.4798H2.92969Z" fill="#B2B2B2" stroke="#231815" stroke-linecap="round" stroke-linejoin="round"/>
<path d="M24.7699 113.34C33.3299 117.67 40.3999 100.72 43.0699 100.72C45.7399 100.72 46.7299 127.08 62.8099 119.84C71.3599 115.99 67.5199 98.1201 64.1199 85.7101C57.0799 84.8001 36.4499 82.5901 23.4999 86.1601C21.5599 96.8301 19.5599 110.71 24.7599 113.35L24.7699 113.34Z" fill="#F4F4F4" stroke="#231815" stroke-linecap="round" stroke-linejoin="round"/>
<path d="M24.7001 113.34C33.2601 117.67 40.3301 100.72 43.0001 100.72C45.6701 100.72 46.6601 127.08 62.7401 119.84C71.2901 115.99 67.4501 98.1201 64.0501 85.7101C57.0101 84.8001 36.3801 82.5901 23.4301 86.1601C21.4901 96.8301 19.4901 110.71 24.6901 113.35L24.7001 113.34Z" fill="#B0DBE2" stroke="#231815" stroke-linecap="round" stroke-linejoin="round"/>
<path d="M57.6899 87.5298C57.6899 87.5298 57.8099 92.5398 64.4599 94.3798" stroke="#231815" stroke-linecap="round" stroke-linejoin="round"/>
<path d="M28.1198 87.5298C28.1198 87.5298 27.5898 91.2898 24.7998 92.4798" stroke="#231815" stroke-linecap="round" stroke-linejoin="round"/>
<path d="M42.9997 50.93C56.3042 50.93 67.0897 40.1445 67.0897 26.84C67.0897 13.5355 56.3042 2.75 42.9997 2.75C29.6951 2.75 18.9097 13.5355 18.9097 26.84C18.9097 40.1445 29.6951 50.93 42.9997 50.93Z" fill="#F4F4F4" stroke="#231815" stroke-linecap="round" stroke-linejoin="round"/>
<path d="M19.3297 22.4C19.3297 22.4 9.24971 17.15 7.19971 12.21C7.19971 12.21 13.3697 13.83 14.0697 13.73L9.51971 5.01998C9.51971 5.01998 15.0297 9.28998 16.2997 9.17998L15.2197 0.72998C15.2197 0.72998 19.6597 4.80998 24.0397 4.60998C31.2597 4.27998 37.7697 0.60998 45.1297 0.84998C51.6997 1.06998 57.9097 3.63998 62.3397 8.86998C65.3297 12.4 66.6697 17.68 66.6697 22.41C66.6697 22.41 47.1497 15.45 31.1297 16.64C28.6097 16.83 30.4997 18.42 30.4997 18.42C30.4997 18.42 23.3497 20.23 19.3197 22.41L19.3297 22.4Z" fill="#231815" stroke="#231815" stroke-linecap="round" stroke-linejoin="round"/>
<path d="M34.3497 24.6602C34.3497 27.6702 32.4897 30.1102 30.1997 30.1102C32.4897 30.1102 34.3497 32.5502 34.3497 35.5602C34.3497 32.5502 36.2097 30.1102 38.4997 30.1102C36.2097 30.1102 34.3497 27.6702 34.3497 24.6602Z" fill="#FFF929" stroke="#231815" stroke-linecap="round" stroke-linejoin="round"/>
<path d="M51.6495 24.3501C51.6495 27.3601 49.7895 29.8001 47.4995 29.8001C49.7895 29.8001 51.6495 32.2401 51.6495 35.2501C51.6495 32.2401 53.5095 29.8001 55.7995 29.8001C53.5095 29.8001 51.6495 27.3601 51.6495 24.3501Z" fill="#FFF929" stroke="#231815" stroke-linecap="round" stroke-linejoin="round"/>
<path d="M39.2197 40.2502C39.2197 40.2502 43.1897 41.0302 46.6997 39.1602L39.2197 40.2502Z" fill="#F4F4F4"/>
<path d="M39.2197 40.2502C39.2197 40.2502 43.1897 41.0302 46.6997 39.1602" stroke="#231815" stroke-linecap="round" stroke-linejoin="round"/>
<path d="M1.72998 75.41C7.32998 76.34 10.36 83.69 10.36 83.69C11.29 83.36 12.24 82.94 13.21 82.44C13.21 74.31 2.92998 71.48 2.92998 71.48C2.35998 72.94 1.96998 74.25 1.72998 75.41Z" fill="#B2B2B2" stroke="#231815" stroke-linecap="round" stroke-linejoin="round"/>
<path d="M73.5596 82.8199C74.8396 83.4299 76.0996 83.8999 77.2696 84.1899C79.8696 77.5099 84.1196 74.7299 84.1196 74.7299C83.8096 73.4599 83.3296 72.0399 82.6496 70.4399C82.3696 70.6399 73.2896 76.9299 73.5596 82.8099V82.8199Z" fill="#B2B2B2" stroke="#231815" stroke-linecap="round" stroke-linejoin="round"/>
<path d="M77.1299 75.3301L80.0299 79.0101" stroke="#231815" stroke-linecap="round" stroke-linejoin="round"/>
<path d="M75.3301 77.6201L78.8401 80.9001" stroke="#231815" stroke-linecap="round" stroke-linejoin="round"/>
<path d="M73.96 80.29L77.89 82.73" stroke="#231815" stroke-linecap="round" stroke-linejoin="round"/>
<path d="M79.0601 73.3701L81.3501 77.3201" stroke="#231815" stroke-linecap="round" stroke-linejoin="round"/>
<path d="M80.8799 71.79L82.9099 75.72" stroke="#231815" stroke-linecap="round" stroke-linejoin="round"/>
<path d="M9.49986 74.9902L6.85986 78.3702" stroke="#231815" stroke-linecap="round" stroke-linejoin="round"/>
<path d="M7.22012 73.3804L5.37012 77.0504" stroke="#231815" stroke-linecap="round" stroke-linejoin="round"/>
<path d="M4.9 72.2002L3.5 75.9402" stroke="#231815" stroke-linecap="round" stroke-linejoin="round"/>
<path d="M11.5002 77.1602L8.18018 79.9402" stroke="#231815" stroke-linecap="round" stroke-linejoin="round"/>
<path d="M12.8101 79.7603L9.39014 81.7903" stroke="#231815" stroke-linecap="round" stroke-linejoin="round"/>
<path d="M47.4896 67.96H43.9196V73.14H40.4096V67.96H36.8396V73.14H33.1196V76.71H36.8396H40.4096H43.9196H47.4896H52.8796V73.14H47.4896V67.96Z" fill="#F4F4F4" stroke="#231815" stroke-linecap="round" stroke-linejoin="round"/>
<path d="M49.3096 55.4399H33.1196V59.0099H49.3096V66.7299H52.8796V59.0099V55.4399H49.3096Z" fill="#F4F4F4" stroke="#231815" stroke-linecap="round" stroke-linejoin="round"/>
<path d="M60.4996 200.78C60.4996 211.93 48.7796 227.27 34.3196 227.27C19.8596 227.27 8.13965 211.93 8.13965 200.78C8.13965 189.63 34.3496 31.4702 34.3496 31.4702C34.3496 31.4702 60.4996 189.63 60.4996 200.78Z" fill="url(#paint0_linear_188_2000)"/>
<path d="M77.7897 200.78C77.7897 211.93 66.0697 227.27 51.6097 227.27C37.1497 227.27 25.4297 211.93 25.4297 200.78C25.4297 189.63 51.6497 31.4702 51.6497 31.4702C51.6497 31.4702 77.7997 189.63 77.7997 200.78H77.7897Z" fill="url(#paint1_linear_188_2000)"/>
</g>
</g>
<defs>
<linearGradient id="paint0_linear_188_2000" x1="34.3096" y1="232.64" x2="34.3096" y2="21.7602" gradientUnits="userSpaceOnUse">
<stop stop-color="#FFF929" stop-opacity="0.15"/>
<stop offset="1" stop-color="#FFF929" stop-opacity="0.7"/>
</linearGradient>
<linearGradient id="paint1_linear_188_2000" x1="51.6097" y1="0.000213156" x2="51.6097" y2="0.000213156" gradientUnits="userSpaceOnUse">
<stop stop-color="#FFF929" stop-opacity="0.15"/>
<stop offset="1" stop-color="#FFF929" stop-opacity="0.7"/>
</linearGradient>
<clipPath id="clip0_188_2000">
<rect width="86" height="228" fill="white"/>
</clipPath>
</defs>
</svg>
