<svg width="86" height="228" viewBox="0 0 86 228" fill="none" xmlns="http://www.w3.org/2000/svg">
<g clip-path="url(#clip0_188_2081)">
<mask id="mask0_188_2081" style="mask-type:luminance" maskUnits="userSpaceOnUse" x="0" y="0" width="86" height="228">
<path d="M86 0H0V228H86V0Z" fill="white"/>
</mask>
<g mask="url(#mask0_188_2081)">
<path opacity="0.5" d="M42.7902 125.02C57.3319 125.02 69.1202 121.492 69.1202 117.14C69.1202 112.788 57.3319 109.26 42.7902 109.26C28.2485 109.26 16.4602 112.788 16.4602 117.14C16.4602 121.492 28.2485 125.02 42.7902 125.02Z" fill="#7A736E"/>
<path d="M43.0001 100.72C40.3201 100.72 33.2501 117.67 24.6901 113.34C15.4901 108.68 28.8101 68.8598 24.5101 73.7998C20.2101 78.7498 10.9701 84.9898 5.70009 84.4998C2.99009 84.2498 -2.48991 80.3598 5.70009 65.6898C15.0801 48.8798 29.7001 43.7998 29.7001 43.7998H56.2901C56.2901 43.7998 70.9101 48.8798 80.2901 65.6898C88.4801 80.3698 83.0001 84.2498 80.2901 84.4998C75.0201 84.9898 65.7801 78.7398 61.4801 73.7998C57.1801 68.8498 76.8401 113.48 62.7301 119.84C46.6601 127.08 45.6701 100.72 43.0001 100.72Z" fill="#F4F4F4" stroke="#231815" stroke-linecap="round" stroke-linejoin="round"/>
<path d="M2.93018 71.4798C2.93018 71.4798 13.2102 74.3198 13.2102 82.4398C17.4702 80.2798 21.9102 76.7998 24.5202 73.7998C26.3902 71.6498 24.9302 77.9498 23.4402 86.1498C36.3802 82.5898 57.0202 84.7898 64.0602 85.6998C61.8402 77.6098 59.8102 71.8398 61.5002 73.7998C64.2602 76.9798 69.0802 80.6998 73.5702 82.8198C73.3002 76.9398 82.3802 70.6398 82.6602 70.4498C82.0502 68.9998 81.2702 67.4198 80.3002 65.6898C70.9202 48.8798 56.3002 43.7998 56.3002 43.7998H29.7102C29.7102 43.7998 15.0902 48.8798 5.71018 65.6898C4.51018 67.8498 3.60018 69.7698 2.94018 71.4798H2.93018Z" fill="#B2B2B2" stroke="#231815" stroke-linecap="round" stroke-linejoin="round"/>
<path d="M24.7701 113.34C33.3301 117.67 40.4001 100.72 43.0701 100.72C45.7401 100.72 46.7301 127.08 62.8101 119.84C71.3601 115.99 67.5201 98.1201 64.1201 85.7101C57.0801 84.8001 36.4501 82.5901 23.5001 86.1601C21.5601 96.8301 19.5601 110.71 24.7601 113.35L24.7701 113.34Z" fill="#F4F4F4" stroke="#231815" stroke-linecap="round" stroke-linejoin="round"/>
<path d="M24.7001 113.34C33.2601 117.67 40.3301 100.72 43.0001 100.72C45.6701 100.72 46.6601 127.08 62.7401 119.84C71.2901 115.99 67.4501 98.1201 64.0501 85.7101C57.0101 84.8001 36.3801 82.5901 23.4301 86.1601C21.4901 96.8301 19.4901 110.71 24.6901 113.35L24.7001 113.34Z" fill="#B0DBE2" stroke="#231815" stroke-linecap="round" stroke-linejoin="round"/>
<path d="M57.6902 87.5298C57.6902 87.5298 57.8102 92.5398 64.4602 94.3798" stroke="#231815" stroke-linecap="round" stroke-linejoin="round"/>
<path d="M28.1201 87.5298C28.1201 87.5298 27.59 91.2898 24.8 92.4798" stroke="#231815" stroke-linecap="round" stroke-linejoin="round"/>
<path d="M43.0002 50.93C56.3047 50.93 67.0902 40.1445 67.0902 26.84C67.0902 13.5355 56.3047 2.75 43.0002 2.75C29.6956 2.75 18.9102 13.5355 18.9102 26.84C18.9102 40.1445 29.6956 50.93 43.0002 50.93Z" fill="#F4F4F4" stroke="#231815" stroke-linecap="round" stroke-linejoin="round"/>
<path d="M19.3302 22.4C19.3302 22.4 9.2502 17.15 7.2002 12.21C7.2002 12.21 13.3702 13.83 14.0702 13.73L9.5202 5.01998C9.5202 5.01998 15.0302 9.28998 16.3002 9.17998L15.2202 0.72998C15.2202 0.72998 19.6602 4.80998 24.0402 4.60998C31.2602 4.27998 37.7702 0.60998 45.1302 0.84998C51.7002 1.06998 57.9102 3.63998 62.3402 8.86998C65.3302 12.4 66.6702 17.68 66.6702 22.41C66.6702 22.41 47.1502 15.45 31.1302 16.64C28.6102 16.83 30.5002 18.42 30.5002 18.42C30.5002 18.42 23.3502 20.23 19.3202 22.41L19.3302 22.4Z" fill="#231815" stroke="#231815" stroke-linecap="round" stroke-linejoin="round"/>
<path d="M34.3502 24.6602C34.3502 27.6702 32.4902 30.1102 30.2002 30.1102C32.4902 30.1102 34.3502 32.5502 34.3502 35.5602C34.3502 32.5502 36.2102 30.1102 38.5002 30.1102C36.2102 30.1102 34.3502 27.6702 34.3502 24.6602Z" fill="#FFF929" stroke="#231815" stroke-linecap="round" stroke-linejoin="round"/>
<path d="M51.6502 24.3501C51.6502 27.3601 49.7902 29.8001 47.5002 29.8001C49.7902 29.8001 51.6502 32.2401 51.6502 35.2501C51.6502 32.2401 53.5102 29.8001 55.8002 29.8001C53.5102 29.8001 51.6502 27.3601 51.6502 24.3501Z" fill="#FFF929" stroke="#231815" stroke-linecap="round" stroke-linejoin="round"/>
<path d="M39.2202 40.2502C39.2202 40.2502 43.1902 41.0302 46.7002 39.1602L39.2202 40.2502Z" fill="#F4F4F4"/>
<path d="M39.2202 40.2502C39.2202 40.2502 43.1902 41.0302 46.7002 39.1602" stroke="#231815" stroke-linecap="round" stroke-linejoin="round"/>
<path d="M33.1201 55.4399V59.0099H39.5801L33.3401 66.8799L36.1401 69.0899L43.0001 60.4399L49.8601 69.0899L52.6601 66.8799L46.4201 59.0099H52.8801V55.4399H33.1201Z" fill="#F4F4F4" stroke="#231815" stroke-linecap="round" stroke-linejoin="round"/>
<path d="M44.7801 67.96H41.2201V73.14H33.1201V76.71H52.8801V73.14H44.7801V67.96Z" fill="#F4F4F4" stroke="#231815" stroke-linecap="round" stroke-linejoin="round"/>
<path d="M1.72998 75.41C7.32998 76.34 10.36 83.69 10.36 83.69C11.29 83.36 12.24 82.94 13.21 82.44C13.21 74.31 2.92998 71.48 2.92998 71.48C2.35998 72.94 1.96998 74.25 1.72998 75.41Z" fill="#B2B2B2" stroke="#231815" stroke-linecap="round" stroke-linejoin="round"/>
<path d="M73.5601 82.8199C74.8401 83.4299 76.1001 83.8999 77.2701 84.1899C79.8701 77.5099 84.1201 74.7299 84.1201 74.7299C83.8101 73.4599 83.3301 72.0399 82.6501 70.4399C82.3701 70.6399 73.2901 76.9299 73.5601 82.8099V82.8199Z" fill="#B2B2B2" stroke="#231815" stroke-linecap="round" stroke-linejoin="round"/>
<path d="M77.1301 75.3301L80.0301 79.0101" stroke="#231815" stroke-linecap="round" stroke-linejoin="round"/>
<path d="M75.3303 77.6201L78.8403 80.9001" stroke="#231815" stroke-linecap="round" stroke-linejoin="round"/>
<path d="M73.9602 80.29L77.8902 82.73" stroke="#231815" stroke-linecap="round" stroke-linejoin="round"/>
<path d="M79.0603 73.3701L81.3503 77.3201" stroke="#231815" stroke-linecap="round" stroke-linejoin="round"/>
<path d="M80.8801 71.79L82.9101 75.72" stroke="#231815" stroke-linecap="round" stroke-linejoin="round"/>
<path d="M9.50011 74.9902L6.86011 78.3702" stroke="#231815" stroke-linecap="round" stroke-linejoin="round"/>
<path d="M7.22012 73.3804L5.37012 77.0504" stroke="#231815" stroke-linecap="round" stroke-linejoin="round"/>
<path d="M4.9 72.2002L3.5 75.9402" stroke="#231815" stroke-linecap="round" stroke-linejoin="round"/>
<path d="M11.4999 77.1602L8.17993 79.9402" stroke="#231815" stroke-linecap="round" stroke-linejoin="round"/>
<path d="M12.8099 79.7603L9.38989 81.7903" stroke="#231815" stroke-linecap="round" stroke-linejoin="round"/>
<path d="M60.5001 200.78C60.5001 211.93 48.7801 227.27 34.3201 227.27C19.8601 227.27 8.14014 211.93 8.14014 200.78C8.14014 189.63 34.3501 31.4702 34.3501 31.4702C34.3501 31.4702 60.5001 189.63 60.5001 200.78Z" fill="url(#paint0_linear_188_2081)"/>
<path d="M77.7902 200.78C77.7902 211.93 66.0702 227.27 51.6102 227.27C37.1502 227.27 25.4302 211.93 25.4302 200.78C25.4302 189.63 51.6502 31.4702 51.6502 31.4702C51.6502 31.4702 77.8002 189.63 77.8002 200.78H77.7902Z" fill="url(#paint1_linear_188_2081)"/>
</g>
</g>
<defs>
<linearGradient id="paint0_linear_188_2081" x1="34.3101" y1="232.64" x2="34.3101" y2="21.7602" gradientUnits="userSpaceOnUse">
<stop stop-color="#FFF929" stop-opacity="0.15"/>
<stop offset="1" stop-color="#FFF929" stop-opacity="0.7"/>
</linearGradient>
<linearGradient id="paint1_linear_188_2081" x1="51.6102" y1="0.000213156" x2="51.6102" y2="0.000213156" gradientUnits="userSpaceOnUse">
<stop stop-color="#FFF929" stop-opacity="0.15"/>
<stop offset="1" stop-color="#FFF929" stop-opacity="0.7"/>
</linearGradient>
<clipPath id="clip0_188_2081">
<rect width="86" height="228" fill="white"/>
</clipPath>
</defs>
</svg>
