<svg width="86" height="232" viewBox="0 0 86 232" fill="none" xmlns="http://www.w3.org/2000/svg">
<g clip-path="url(#clip0_188_2405)">
<mask id="mask0_188_2405" style="mask-type:luminance" maskUnits="userSpaceOnUse" x="0" y="0" width="86" height="232">
<path d="M86 0H0V232H86V0Z" fill="white"/>
</mask>
<g mask="url(#mask0_188_2405)">
<path opacity="0.5" d="M42.7902 231.23C57.3319 231.23 69.1202 227.702 69.1202 223.35C69.1202 218.998 57.3319 215.47 42.7902 215.47C28.2485 215.47 16.4602 218.998 16.4602 223.35C16.4602 227.702 28.2485 231.23 42.7902 231.23Z" fill="#7A736E"/>
<path d="M60.7401 27.26C60.7401 16.11 49.0201 0.77002 34.5601 0.77002C20.1001 0.77002 8.38013 16.11 8.38013 27.26C8.38013 38.41 34.6001 139.8 34.6001 139.8C34.6001 139.8 60.7501 38.4 60.7501 27.26H60.7401Z" fill="url(#paint0_linear_188_2405)"/>
<path d="M78.0402 27.26C78.0402 16.11 66.3202 0.77002 51.8602 0.77002C37.4002 0.77002 25.6802 16.11 25.6802 27.26C25.6802 38.41 51.9002 139.8 51.9002 139.8C51.9002 139.8 78.0502 38.4 78.0502 27.26H78.0402Z" fill="url(#paint1_linear_188_2405)"/>
<path d="M43.0001 206.93C45.6801 206.93 52.7501 223.88 61.3101 219.55C70.5101 214.89 57.1901 175.07 61.4901 180.01C65.7901 184.96 75.0301 191.2 80.3001 190.71C83.0101 190.46 88.4901 186.57 80.3001 171.9C70.9201 155.09 56.3001 150.01 56.3001 150.01H29.7101C29.7101 150.01 15.0901 155.09 5.7101 171.9C-2.4799 186.58 3.0001 190.46 5.7101 190.71C10.9801 191.2 20.2201 184.95 24.5201 180.01C28.8201 175.07 9.1601 219.69 23.2701 226.05C39.3401 233.29 40.3301 206.93 43.0001 206.93Z" fill="#F4F4F4" stroke="#231815" stroke-linecap="round" stroke-linejoin="round"/>
<path d="M61.2301 219.55C52.6701 223.88 45.6001 206.93 42.9301 206.93C40.2601 206.93 39.2701 233.29 23.1901 226.05C14.6401 222.2 18.4801 204.33 21.8801 191.92C28.9201 191.01 49.5501 188.8 62.5001 192.37C64.4401 203.04 66.4401 216.92 61.2401 219.56L61.2301 219.55Z" fill="#F4F4F4" stroke="#231815" stroke-linecap="round" stroke-linejoin="round"/>
<path d="M61.3001 219.55C52.7401 223.88 45.6701 206.93 43.0001 206.93C40.3301 206.93 39.3401 233.29 23.2601 226.05C14.7101 222.2 18.5501 204.33 21.9501 191.92C28.9901 191.01 49.6201 188.8 62.5701 192.37C64.5101 203.04 66.5102 216.92 61.3102 219.56L61.3001 219.55Z" fill="#B0DBE2" stroke="#231815" stroke-linecap="round" stroke-linejoin="round"/>
<path d="M43.0002 157.15C56.3047 157.15 67.0902 146.365 67.0902 133.06C67.0902 119.755 56.3047 108.97 43.0002 108.97C29.6956 108.97 18.9102 119.755 18.9102 133.06C18.9102 146.365 29.6956 157.15 43.0002 157.15Z" fill="#F4F4F4" stroke="#231815" stroke-linecap="round" stroke-linejoin="round"/>
<path d="M84.27 181.63C78.67 182.56 75.64 189.91 75.64 189.91C74.71 189.58 73.76 189.16 72.79 188.66C72.79 180.53 83.07 177.7 83.07 177.7C83.64 179.16 84.03 180.47 84.27 181.63Z" fill="#B2B2B2" stroke="#231815" stroke-linecap="round" stroke-linejoin="round"/>
<path d="M12.4401 189.04C11.1601 189.65 9.90013 190.12 8.73013 190.41C6.13013 183.73 1.88013 180.95 1.88013 180.95C2.19013 179.68 2.67013 178.26 3.35013 176.66C3.63013 176.86 12.7101 183.15 12.4401 189.03V189.04Z" fill="#B2B2B2" stroke="#231815" stroke-linecap="round" stroke-linejoin="round"/>
<path d="M8.86997 181.54L5.96997 185.22" stroke="#231815" stroke-linecap="round" stroke-linejoin="round"/>
<path d="M10.6702 183.84L7.16016 187.11" stroke="#231815" stroke-linecap="round" stroke-linejoin="round"/>
<path d="M12.0401 186.51L8.11011 188.94" stroke="#231815" stroke-linecap="round" stroke-linejoin="round"/>
<path d="M6.94015 179.59L4.65015 183.53" stroke="#231815" stroke-linecap="round" stroke-linejoin="round"/>
<path d="M5.12009 178.01L3.09009 181.93" stroke="#231815" stroke-linecap="round" stroke-linejoin="round"/>
<path d="M76.5002 181.21L79.1402 184.59" stroke="#231815" stroke-linecap="round" stroke-linejoin="round"/>
<path d="M78.7803 179.59L80.6303 183.26" stroke="#231815" stroke-linecap="round" stroke-linejoin="round"/>
<path d="M81.1001 178.42L82.5001 182.16" stroke="#231815" stroke-linecap="round" stroke-linejoin="round"/>
<path d="M74.5002 183.37L77.8202 186.16" stroke="#231815" stroke-linecap="round" stroke-linejoin="round"/>
<path d="M73.1902 185.98L76.6102 188" stroke="#231815" stroke-linecap="round" stroke-linejoin="round"/>
<path d="M83.0701 177.69C83.0701 177.69 72.7901 180.53 72.7901 188.65C68.5301 186.49 64.0901 183.01 61.4801 180.01C59.6101 177.86 61.0701 184.16 62.5601 192.36C49.6201 188.8 28.9801 191 21.9401 191.91C24.1601 183.82 26.1901 178.05 24.5001 180.01C21.7401 183.19 16.9201 186.91 12.4301 189.03C12.7001 183.15 3.62009 176.85 3.34009 176.66C3.95009 175.21 4.73009 173.63 5.70009 171.9C15.0801 155.09 29.7001 150.01 29.7001 150.01C37.5901 154.82 46.4501 154.82 56.2901 150.01C56.2901 150.01 70.9101 155.09 80.2901 171.9C81.4901 174.06 82.4001 175.98 83.0601 177.69H83.0701Z" fill="#B2B2B2" stroke="#231815" stroke-linecap="round" stroke-linejoin="round"/>
<path d="M58.0802 150.76C58.0802 150.76 42.1902 160.08 27.6902 150.87" stroke="#231815" stroke-linecap="round" stroke-linejoin="round"/>
<path d="M71.9301 119.94L76.4801 111.23C76.4801 111.23 70.9701 115.5 69.7001 115.39L70.7801 106.94C70.7801 106.94 66.3401 111.02 61.9601 110.82C54.7401 110.49 48.2301 106.82 40.8701 107.06C34.2901 107.28 28.0901 109.85 23.6601 115.08C20.6701 118.61 19.3301 123.89 19.3301 128.62C19.3301 128.62 21.9401 147.72 36.7101 150.02H49.0701C49.0701 150.02 61.3101 148.4 66.6801 128.62C66.6801 128.62 76.7601 123.37 78.8101 118.43C78.8101 118.43 72.6401 120.05 71.9401 119.95L71.9301 119.94Z" fill="#231815" stroke="#231815" stroke-linecap="round" stroke-linejoin="round"/>
<path d="M57.6001 195.81L51.3301 196.53C51.3301 196.53 51.1801 202.29 54.4701 202.5C57.7601 202.71 58.0201 198.39 57.6101 195.81H57.6001Z" stroke="#231815" stroke-linecap="round" stroke-linejoin="round"/>
<path d="M34.4901 196.94L27.4001 195.47C27.4001 195.47 25.7101 201.41 28.7401 202.82C31.7701 204.22 33.5901 201.06 34.5001 196.94H34.4901Z" fill="#B0DBE2" stroke="#231815" stroke-linecap="round" stroke-linejoin="round"/>
</g>
</g>
<defs>
<linearGradient id="paint0_linear_188_2405" x1="34.5601" y1="-3.03998" x2="34.5601" y2="146.7" gradientUnits="userSpaceOnUse">
<stop stop-color="#FFF929" stop-opacity="0.15"/>
<stop offset="1" stop-color="#FFF929" stop-opacity="0.7"/>
</linearGradient>
<linearGradient id="paint1_linear_188_2405" x1="51.8602" y1="-3.03998" x2="51.8602" y2="146.7" gradientUnits="userSpaceOnUse">
<stop stop-color="#FFF929" stop-opacity="0.15"/>
<stop offset="1" stop-color="#FFF929" stop-opacity="0.7"/>
</linearGradient>
<clipPath id="clip0_188_2405">
<rect width="86" height="232" fill="white"/>
</clipPath>
</defs>
</svg>
