<?xml version="1.0" encoding="utf-8"?>
<!-- Generator: Adobe Illustrator 29.4.0, SVG Export Plug-In . SVG Version: 9.03 Build 0)  -->
<svg version="1.1" id="레이어_1" xmlns="http://www.w3.org/2000/svg" xmlns:xlink="http://www.w3.org/1999/xlink" x="0px"
	 y="0px" width="500px" height="1000px" viewBox="0 0 500 1000" enable-background="new 0 0 500 1000" xml:space="preserve">
<linearGradient id="SVGID_1_" gradientUnits="userSpaceOnUse" x1="249.993" y1="0" x2="249.993" y2="1116.9778">
	<stop  offset="0" style="stop-color:#FFFFFF"/>
	<stop  offset="0.8247" style="stop-color:#C1C1C1"/>
</linearGradient>
<rect x="-0.01" fill="url(#SVGID_1_)" width="500.01" height="1001.13"/>
<g>
	<circle fill="#FFFFFF" stroke="#000000" stroke-width="0.5" stroke-miterlimit="10" cx="228.97" cy="181.23" r="4.52"/>
	<g>
		<g>
			<path fill="#E4E4E4" stroke="#000000" stroke-width="0.5" stroke-miterlimit="10" d="M241.07,663.12l7.25-19.91
				c0.61-1.67,2.45-2.53,4.12-1.92c1.67,0.61,2.53,2.45,1.92,4.12l-7.25,19.91c-0.61,1.67-2.45,2.53-4.12,1.92
				S240.46,664.79,241.07,663.12z"/>
		</g>
		<g>
			<path fill="#FFFFFF" d="M241.07,663.12l7.25-19.91c0.61-1.67,2.45-2.53,4.12-1.92c1.67,0.61,2.53,2.45,1.92,4.12l-7.25,19.91
				c-0.61,1.67-2.45,2.53-4.12,1.92S240.46,664.79,241.07,663.12z"/>
		</g>
		<g>
			<path fill="none" stroke="#000000" stroke-width="0.5" stroke-miterlimit="10" d="M241.07,663.12l7.25-19.91
				c0.61-1.67,2.45-2.53,4.12-1.92c1.67,0.61,2.53,2.45,1.92,4.12l-7.25,19.91c-0.61,1.67-2.45,2.53-4.12,1.92
				S240.46,664.79,241.07,663.12z"/>
		</g>
	</g>
	<g>
		<g>
			<path fill="#E4E4E4" stroke="#000000" stroke-width="0.5" stroke-miterlimit="10" d="M68.75,200.42l7.25-19.91
				c0.61-1.67,2.45-2.53,4.12-1.92c1.67,0.61,2.53,2.45,1.92,4.12l-7.25,19.91c-0.61,1.67-2.45,2.53-4.12,1.92
				C69,203.94,68.14,202.09,68.75,200.42z"/>
		</g>
		<g>
			<path fill="#FFFFFF" d="M68.75,200.42l7.25-19.91c0.61-1.67,2.45-2.53,4.12-1.92c1.67,0.61,2.53,2.45,1.92,4.12l-7.25,19.91
				c-0.61,1.67-2.45,2.53-4.12,1.92C69,203.94,68.14,202.09,68.75,200.42z"/>
		</g>
		<g>
			<path fill="none" stroke="#000000" stroke-width="0.5" stroke-miterlimit="10" d="M68.75,200.42l7.25-19.91
				c0.61-1.67,2.45-2.53,4.12-1.92c1.67,0.61,2.53,2.45,1.92,4.12l-7.25,19.91c-0.61,1.67-2.45,2.53-4.12,1.92
				C69,203.94,68.14,202.09,68.75,200.42z"/>
		</g>
	</g>
	<g>
		<path fill="#FFFFFF" stroke="#000000" stroke-width="0.5" stroke-miterlimit="10" d="M108.73,318.19l-30.74,16.07
			c-2.58,1.35-5.76,0.35-7.11-2.23s-0.35-5.76,2.23-7.11l30.74-16.07c2.58-1.35,5.76-0.35,7.11,2.23S111.31,316.84,108.73,318.19z"
			/>
	</g>
	<circle fill="#FFFFFF" stroke="#000000" stroke-width="0.5" stroke-miterlimit="10" cx="-0.01" cy="131.38" r="13.16"/>
	<g>
		<path fill="#E8E8E8" stroke="#000000" stroke-width="0.5" stroke-miterlimit="10" d="M325.14,301.68l34.02-6.77
			c2.85-0.57,5.62,1.28,6.19,4.14c0.57,2.85-1.28,5.62-4.14,6.19l-34.02,6.77c-2.85,0.57-5.62-1.28-6.19-4.14
			C320.43,305.02,322.28,302.25,325.14,301.68z"/>
	</g>
	<g>
		<g>
			<path fill="#E4E4E4" stroke="#000000" stroke-width="0.5" stroke-miterlimit="10" d="M130.73,128.19l25.35-23.68
				c2.13-1.99,5.46-1.87,7.44,0.25c1.98,2.13,1.87,5.46-0.25,7.44l-25.35,23.68c-2.13,1.99-5.46,1.87-7.44-0.25
				S128.6,130.18,130.73,128.19z"/>
		</g>
		<g>
			<path fill="#FFFFFF" d="M130.73,128.19l25.35-23.68c2.13-1.99,5.46-1.87,7.44,0.25c1.98,2.13,1.87,5.46-0.25,7.44l-25.35,23.68
				c-2.13,1.99-5.46,1.87-7.44-0.25S128.6,130.18,130.73,128.19z"/>
		</g>
		<g>
			<path fill="none" stroke="#000000" stroke-width="0.5" stroke-miterlimit="10" d="M130.73,128.19l25.35-23.68
				c2.13-1.99,5.46-1.87,7.44,0.25c1.98,2.13,1.87,5.46-0.25,7.44l-25.35,23.68c-2.13,1.99-5.46,1.87-7.44-0.25
				S128.6,130.18,130.73,128.19z"/>
		</g>
	</g>
	<g>
		<g>
			<path fill="#E4E4E4" stroke="#000000" stroke-width="0.5" stroke-miterlimit="10" d="M423.16,448.6l29.98,17.45
				c2.51,1.46,3.36,4.69,1.9,7.2c-1.46,2.51-4.69,3.36-7.2,1.9l-29.98-17.45c-2.51-1.46-3.36-4.69-1.9-7.2
				C417.42,447.99,420.65,447.14,423.16,448.6z"/>
		</g>
		<g>
			<path fill="#FFFFFF" d="M423.16,448.6l29.98,17.45c2.51,1.46,3.36,4.69,1.9,7.2c-1.46,2.51-4.69,3.36-7.2,1.9l-29.98-17.45
				c-2.51-1.46-3.36-4.69-1.9-7.2C417.42,447.99,420.65,447.14,423.16,448.6z"/>
		</g>
		<g>
			<path fill="none" stroke="#000000" stroke-width="0.5" stroke-miterlimit="10" d="M423.16,448.6l29.98,17.45
				c2.51,1.46,3.36,4.69,1.9,7.2c-1.46,2.51-4.69,3.36-7.2,1.9l-29.98-17.45c-2.51-1.46-3.36-4.69-1.9-7.2
				C417.42,447.99,420.65,447.14,423.16,448.6z"/>
		</g>
	</g>
	<g>
		<g>
			<path fill="#E4E4E4" stroke="#000000" stroke-width="0.5" stroke-miterlimit="10" d="M25.75,421.56l25.35-23.68
				c2.13-1.99,5.46-1.87,7.44,0.25c1.98,2.13,1.87,5.46-0.25,7.44l-25.35,23.68c-2.13,1.99-5.46,1.87-7.44-0.25
				C23.51,426.87,23.62,423.54,25.75,421.56z"/>
		</g>
		<g>
			<path fill="#FFFFFF" d="M25.75,421.56l25.35-23.68c2.13-1.99,5.46-1.87,7.44,0.25c1.98,2.13,1.87,5.46-0.25,7.44l-25.35,23.68
				c-2.13,1.99-5.46,1.87-7.44-0.25C23.51,426.87,23.62,423.54,25.75,421.56z"/>
		</g>
		<g>
			<path fill="none" stroke="#000000" stroke-width="0.5" stroke-miterlimit="10" d="M25.75,421.56l25.35-23.68
				c2.13-1.99,5.46-1.87,7.44,0.25c1.98,2.13,1.87,5.46-0.25,7.44l-25.35,23.68c-2.13,1.99-5.46,1.87-7.44-0.25
				C23.51,426.87,23.62,423.54,25.75,421.56z"/>
		</g>
	</g>
	<g>
		<g>
			<path fill="#F7F7F7" stroke="#000000" stroke-width="0.5" stroke-miterlimit="10" d="M25.54,66.95l27.29-21.42
				c2.29-1.8,5.6-1.4,7.39,0.89c1.8,2.29,1.4,5.6-0.89,7.39L32.04,75.23c-2.29,1.8-5.6,1.4-7.39-0.89
				C22.85,72.06,23.25,68.75,25.54,66.95z"/>
		</g>
		<g>
			<path fill="#FFFFFF" d="M25.54,66.95l27.29-21.42c2.29-1.8,5.6-1.4,7.39,0.89c1.8,2.29,1.4,5.6-0.89,7.39L32.04,75.23
				c-2.29,1.8-5.6,1.4-7.39-0.89C22.85,72.06,23.25,68.75,25.54,66.95z"/>
		</g>
		<g>
			<path fill="none" stroke="#000000" stroke-width="0.5" stroke-miterlimit="10" d="M25.54,66.95l27.29-21.42
				c2.29-1.8,5.6-1.4,7.39,0.89c1.8,2.29,1.4,5.6-0.89,7.39L32.04,75.23c-2.29,1.8-5.6,1.4-7.39-0.89
				C22.85,72.06,23.25,68.75,25.54,66.95z"/>
		</g>
	</g>
	<g>
		<path fill="#FFFFFF" stroke="#000000" stroke-width="0.5" stroke-miterlimit="10" d="M155.38,239.28l27.29-21.42
			c2.29-1.8,5.6-1.4,7.39,0.89c1.8,2.29,1.4,5.6-0.89,7.39l-27.29,21.42c-2.29,1.8-5.6,1.4-7.39-0.89
			C152.69,244.39,153.09,241.08,155.38,239.28z"/>
	</g>
	<g>
		<path fill="#FFFFFF" stroke="#000000" stroke-width="0.5" stroke-miterlimit="10" d="M36.02,148.41l7.05-33.96
			c0.59-2.85,3.38-4.68,6.23-4.08c2.85,0.59,4.68,3.38,4.08,6.23l-7.05,33.96c-0.59,2.85-3.38,4.68-6.23,4.08
			C37.26,154.04,35.43,151.25,36.02,148.41z"/>
	</g>
	<g>
		<path fill="#FFFFFF" stroke="#000000" stroke-width="0.5" stroke-miterlimit="10" d="M99.29,61.9l0.96-34.68
			c0.08-2.91,2.5-5.2,5.41-5.12c2.91,0.08,5.2,2.5,5.12,5.41l-0.96,34.68c-0.08,2.91-2.5,5.2-5.41,5.12
			C101.51,67.22,99.21,64.8,99.29,61.9z"/>
	</g>
	<g>
		<path fill="#FFFFFF" stroke="#000000" stroke-width="0.5" stroke-miterlimit="10" d="M204.65,3.76l33.19,10.09
			c2.78,0.85,4.35,3.79,3.51,6.57c-0.85,2.78-3.79,4.35-6.57,3.51l-33.19-10.09c-2.78-0.85-4.35-3.79-3.51-6.57
			S201.86,2.91,204.65,3.76z"/>
	</g>
	<g>
		<path fill="#FFFFFF" stroke="#000000" stroke-width="0.5" stroke-miterlimit="10" d="M172.9,169.18l15.36-38.3
			c1.8-4.5,6.91-6.68,11.41-4.88c4.5,1.8,6.68,6.91,4.88,11.41l-15.36,38.3c-1.8,4.5-6.91,6.68-11.41,4.88
			C173.29,178.79,171.1,173.68,172.9,169.18z"/>
	</g>
	<g>
		<path fill="#FFFFFF" stroke="#000000" stroke-width="0.5" stroke-miterlimit="10" d="M75.1,870.11l15.36-38.3
			c1.8-4.5,6.91-6.68,11.41-4.88c4.5,1.8,6.68,6.91,4.88,11.41l-15.36,38.3c-1.8,4.5-6.91,6.68-11.41,4.88
			C75.48,879.71,73.29,874.6,75.1,870.11z"/>
	</g>
	<circle fill="#E8E8E8" stroke="#000000" stroke-width="0.5" stroke-miterlimit="10" cx="79.53" cy="90.02" r="13.16"/>
	<circle fill="#FFFFFF" stroke="#000000" stroke-width="0.5" stroke-miterlimit="10" cx="131.63" cy="190.03" r="10.75"/>
	<circle fill="#FFFFFF" stroke="#000000" stroke-width="0.5" stroke-miterlimit="10" cx="159.11" cy="26.15" r="8.24"/>
	<circle fill="#FFFFFF" stroke="#000000" stroke-width="0.5" stroke-miterlimit="10" cx="50.86" cy="649.75" r="8.24"/>
	<circle fill="#FFFFFF" stroke="#000000" stroke-width="0.5" stroke-miterlimit="10" cx="197.16" cy="70.86" r="8.24"/>
	<circle fill="#FFFFFF" stroke="#000000" stroke-width="0.5" stroke-miterlimit="10" cx="7.42" cy="24.62" r="13.16"/>
	<circle fill="#FFFFFF" stroke="#000000" stroke-width="0.5" stroke-miterlimit="10" cx="210.38" cy="98.15" r="4.52"/>
	<circle fill="#FFFFFF" stroke="#000000" stroke-width="0.5" stroke-miterlimit="10" cx="86.4" cy="132.49" r="4.52"/>
	<circle fill="#FFFFFF" stroke="#000000" stroke-width="0.5" stroke-miterlimit="10" cx="137.05" cy="96.1" r="4.52"/>
	<circle fill="#FFFFFF" stroke="#000000" stroke-width="0.5" stroke-miterlimit="10" cx="205.18" cy="303.46" r="4.52"/>
	<g>
		<path fill="#FFFFFF" stroke="#000000" stroke-width="0.5" stroke-miterlimit="10" d="M333.13,673.43l-32.02,13.35
			c-2.68,1.12-5.77-0.15-6.89-2.83s0.15-5.77,2.83-6.89l32.02-13.35c2.68-1.12,5.77,0.15,6.89,2.83S335.82,672.31,333.13,673.43z"/>
	</g>
	<g>
		<path fill="#FFFFFF" stroke="#000000" stroke-width="0.5" stroke-miterlimit="10" d="M442.69,607.77l3.17-41.14
			c0.37-4.83,4.59-8.45,9.42-8.08c4.83,0.37,8.45,4.59,8.08,9.42l-3.17,41.14c-0.37,4.83-4.59,8.45-9.42,8.08
			C445.93,616.82,442.32,612.6,442.69,607.77z"/>
	</g>
	<circle fill="#FFFFFF" stroke="#000000" stroke-width="0.5" stroke-miterlimit="10" cx="124.16" cy="383.3" r="11.88"/>
	<circle fill="#FFFFFF" stroke="#000000" stroke-width="0.5" stroke-miterlimit="10" cx="393.95" cy="737.13" r="4.52"/>
	<circle fill="#FFFFFF" stroke="#000000" stroke-width="0.5" stroke-miterlimit="10" cx="315.1" cy="586.02" r="4.52"/>
	<circle fill="#FFFFFF" stroke="#000000" stroke-width="0.5" stroke-miterlimit="10" cx="407.05" cy="654.27" r="4.52"/>
	<circle fill="#E4E4E4" stroke="#000000" stroke-width="0.5" stroke-miterlimit="10" cx="494.41" cy="6.3" r="4.52"/>
	<circle fill="#FFFFFF" stroke="#000000" stroke-width="0.5" stroke-miterlimit="10" cx="466.38" cy="212.22" r="4.52"/>
	<circle fill="#FFFFFF" stroke="#000000" stroke-width="0.5" stroke-miterlimit="10" cx="421.11" cy="329.8" r="4.52"/>
	<g>
		<path fill="#E8E8E8" stroke="#000000" stroke-width="0.5" stroke-miterlimit="10" d="M273.02,105.72l-19.62-28.6
			c-1.65-2.4-1.03-5.68,1.36-7.32s5.68-1.03,7.32,1.36l19.62,28.6c1.65,2.4,1.03,5.68-1.36,7.32S274.66,108.12,273.02,105.72z"/>
	</g>
	<g>
		<path fill="#E8E8E8" stroke="#000000" stroke-width="0.5" stroke-miterlimit="10" d="M47.49,285.04l-19.62-28.6
			c-1.65-2.4-1.03-5.68,1.36-7.32c2.4-1.64,5.68-1.03,7.32,1.36l19.62,28.6c1.65,2.4,1.03,5.68-1.36,7.32
			C52.41,288.04,49.13,287.43,47.49,285.04z"/>
	</g>
	<g>
		<path fill="#E8E8E8" stroke="#000000" stroke-width="0.5" stroke-miterlimit="10" d="M471.75,130.23l-21.97,26.84
			c-1.84,2.25-5.16,2.58-7.41,0.74c-2.25-1.84-2.58-5.16-0.74-7.41l21.97-26.84c1.84-2.25,5.16-2.58,7.41-0.74
			S473.59,127.98,471.75,130.23z"/>
	</g>
	<g>
		<g>
			<path fill="#E4E4E4" stroke="#000000" stroke-width="0.5" stroke-miterlimit="10" d="M472.95,279.33l-25.35,23.68
				c-2.13,1.99-5.46,1.87-7.44-0.25s-1.87-5.46,0.25-7.44l25.35-23.68c2.13-1.99,5.46-1.87,7.44,0.25
				C475.19,274.01,475.08,277.35,472.95,279.33z"/>
		</g>
		<g>
			<path fill="#FFFFFF" d="M472.95,279.33l-25.35,23.68c-2.13,1.99-5.46,1.87-7.44-0.25s-1.87-5.46,0.25-7.44l25.35-23.68
				c2.13-1.99,5.46-1.87,7.44,0.25C475.19,274.01,475.08,277.35,472.95,279.33z"/>
		</g>
		<g>
			<path fill="none" stroke="#000000" stroke-width="0.5" stroke-miterlimit="10" d="M472.95,279.33l-25.35,23.68
				c-2.13,1.99-5.46,1.87-7.44-0.25s-1.87-5.46,0.25-7.44l25.35-23.68c2.13-1.99,5.46-1.87,7.44,0.25
				C475.19,274.01,475.08,277.35,472.95,279.33z"/>
		</g>
	</g>
	<g>
		<g>
			<path fill="#F7F7F7" stroke="#000000" stroke-width="0.5" stroke-miterlimit="10" d="M456.91,11.57l-27.29,21.42
				c-2.29,1.8-5.6,1.4-7.39-0.89c-1.8-2.29-1.4-5.6,0.89-7.39l27.29-21.42c2.29-1.8,5.6-1.4,7.39,0.89
				C459.6,6.46,459.2,9.77,456.91,11.57z"/>
		</g>
		<g>
			<path fill="#FFFFFF" d="M456.91,11.57l-27.29,21.42c-2.29,1.8-5.6,1.4-7.39-0.89c-1.8-2.29-1.4-5.6,0.89-7.39l27.29-21.42
				c2.29-1.8,5.6-1.4,7.39,0.89C459.6,6.46,459.2,9.77,456.91,11.57z"/>
		</g>
		<g>
			<path fill="none" stroke="#000000" stroke-width="0.5" stroke-miterlimit="10" d="M456.91,11.57l-27.29,21.42
				c-2.29,1.8-5.6,1.4-7.39-0.89c-1.8-2.29-1.4-5.6,0.89-7.39l27.29-21.42c2.29-1.8,5.6-1.4,7.39,0.89
				C459.6,6.46,459.2,9.77,456.91,11.57z"/>
		</g>
	</g>
	<g>
		<path fill="#FFFFFF" stroke="#000000" stroke-width="0.5" stroke-miterlimit="10" d="M383.16,16.62L382.2,51.3
			c-0.08,2.91-2.5,5.2-5.41,5.12c-2.91-0.08-5.2-2.5-5.12-5.41l0.96-34.68c0.08-2.91,2.5-5.2,5.41-5.12
			C380.94,11.3,383.24,13.72,383.16,16.62z"/>
	</g>
	<g>
		<path fill="#FFFFFF" stroke="#000000" stroke-width="0.5" stroke-miterlimit="10" d="M485.6,892.75l-32.82-11.24
			c-2.75-0.94-4.22-3.94-3.27-6.69c0.94-2.75,3.94-4.22,6.69-3.27l32.82,11.24c2.75,0.94,4.22,3.94,3.27,6.69
			C491.35,892.23,488.35,893.7,485.6,892.75z"/>
	</g>
	<g>
		<path fill="#FFFFFF" stroke="#000000" stroke-width="0.5" stroke-miterlimit="10" d="M518.48,460.76l-15.36,38.3
			c-1.8,4.5-6.91,6.68-11.41,4.88c-4.5-1.8-6.68-6.91-4.88-11.41l15.36-38.3c1.8-4.5,6.91-6.68,11.41-4.88
			C518.1,451.15,520.29,456.26,518.48,460.76z"/>
	</g>
	<g>
		<path fill="#FFFFFF" stroke="#000000" stroke-width="0.5" stroke-miterlimit="10" d="M334.77,179.6l-32.18-25.83
			c-3.78-3.03-4.38-8.56-1.35-12.34c3.03-3.78,8.56-4.38,12.34-1.35l32.18,25.83c3.78,3.03,4.38,8.56,1.35,12.34
			C344.07,182.04,338.54,182.64,334.77,179.6z"/>
	</g>
	<g>
		<path fill="#FFFFFF" stroke="#000000" stroke-width="0.5" stroke-miterlimit="10" d="M151.45,536.67l-38.71,14.29
			c-4.55,1.68-9.59-0.65-11.27-5.19s0.65-9.59,5.19-11.27l38.71-14.29c4.55-1.68,9.59,0.65,11.27,5.19
			C158.32,529.95,156,534.99,151.45,536.67z"/>
	</g>
	<circle fill="#FFFFFF" stroke="#000000" stroke-width="0.5" stroke-miterlimit="10" cx="323.34" cy="52.37" r="8.24"/>
	<circle fill="#FFFFFF" stroke="#000000" stroke-width="0.5" stroke-miterlimit="10" cx="502.66" cy="675.24" r="8.24"/>
	<circle fill="#FFFFFF" stroke="#000000" stroke-width="0.5" stroke-miterlimit="10" cx="356.33" cy="476.64" r="8.24"/>
	<circle fill="#FFFFFF" stroke="#000000" stroke-width="0.5" stroke-miterlimit="10" cx="178.96" cy="317.04" r="8.24"/>
	<circle fill="#FFFFFF" stroke="#000000" stroke-width="0.5" stroke-miterlimit="10" cx="435.5" cy="98.2" r="4.52"/>
	<circle fill="#FFFFFF" stroke="#000000" stroke-width="0.5" stroke-miterlimit="10" cx="340.89" cy="414.13" r="4.52"/>
	<circle fill="#FFFFFF" stroke="#000000" stroke-width="0.5" stroke-miterlimit="10" cx="481.05" cy="409.62" r="4.52"/>
	<circle fill="#FFFFFF" stroke="#000000" stroke-width="0.5" stroke-miterlimit="10" cx="393.95" cy="248.19" r="4.52"/>
	<circle fill="#FFFFFF" stroke="#000000" stroke-width="0.5" stroke-miterlimit="10" cx="475.03" cy="53.9" r="13.16"/>
	<circle fill="#FFFFFF" stroke="#000000" stroke-width="0.5" stroke-miterlimit="10" cx="247.72" cy="447.89" r="13.16"/>
	<circle fill="#FFFFFF" stroke="#000000" stroke-width="0.5" stroke-miterlimit="10" cx="299.38" cy="364.52" r="8.24"/>
	<circle fill="#FFFFFF" stroke="#000000" stroke-width="0.5" stroke-miterlimit="10" cx="411.56" cy="131.28" r="4.52"/>
	<circle fill="#E4E4E4" stroke="#000000" stroke-width="0.5" stroke-miterlimit="10" cx="489.9" cy="291.84" r="4.52"/>
	<circle fill="#FFFFFF" stroke="#000000" stroke-width="0.5" stroke-miterlimit="10" cx="328.69" cy="97.09" r="4.52"/>
	<circle fill="#FFFFFF" stroke="#000000" stroke-width="0.5" stroke-miterlimit="10" cx="265.68" cy="140.71" r="4.52"/>
	<circle fill="#FFFFFF" stroke="#000000" stroke-width="0.5" stroke-miterlimit="10" cx="282.63" cy="256.43" r="13.16"/>
	<circle fill="#FFFFFF" stroke="#000000" stroke-width="0.5" stroke-miterlimit="10" cx="405.69" cy="178.41" r="8.24"/>
	<path fill="#FFFFFF" stroke="#000000" stroke-width="0.5" stroke-miterlimit="10" d="M307.58-16.69l10.39,19.88
		c0.58,1.11,0.15,2.47-0.96,3.05l-2.58,1.35c-1.11,0.58-2.47,0.15-3.05-0.96L301-13.25c-0.58-1.11-0.15-2.47,0.96-3.05l2.58-1.35
		C305.64-18.22,307-17.79,307.58-16.69z"/>
	<path fill="#FFFFFF" stroke="#000000" stroke-width="0.5" stroke-miterlimit="10" d="M392.6,98.08l-26,28.48
		c-1.45,1.58-3.9,1.7-5.49,0.25l-3.69-3.37c-1.58-1.45-1.7-3.9-0.25-5.49l26-28.48c1.45-1.58,3.9-1.7,5.49-0.25l3.69,3.37
		C393.94,94.04,394.05,96.49,392.6,98.08z"/>
	<path fill="#FFFFFF" stroke="#000000" stroke-width="0.5" stroke-miterlimit="10" d="M376.66,418.87l-19.28-33.39
		c-1.07-1.86-0.44-4.23,1.42-5.31l4.33-2.5c1.86-1.07,4.23-0.44,5.31,1.42l19.28,33.39c1.07,1.86,0.44,4.23-1.42,5.31l-4.33,2.5
		C380.11,421.36,377.73,420.73,376.66,418.87z"/>
	<path fill="#FFFFFF" stroke="#000000" stroke-width="0.5" stroke-miterlimit="10" d="M251.83,821.26l-19.28-33.39
		c-1.07-1.86-0.44-4.23,1.42-5.31l4.33-2.5c1.86-1.07,4.23-0.44,5.31,1.42l19.28,33.39c1.07,1.86,0.44,4.23-1.42,5.31l-4.33,2.5
		C255.28,823.76,252.9,823.12,251.83,821.26z"/>
</g>
</svg>
