<svg width="340" height="60" viewBox="0 0 340 60" fill="none" xmlns="http://www.w3.org/2000/svg">
<path d="M311.68 59.79H30.44C14.97 59.79 2.42 47.25 2.42 31.77C2.42 16.3 14.96 3.75 30.44 3.75H311.68C327.15 3.75 339.7 16.29 339.7 31.77C339.7 47.24 327.16 59.79 311.68 59.79Z" fill="#D770A1"/>
<path d="M309.62 56.66H28.38C12.91 56.66 0.360001 44.12 0.360001 28.64C0.360001 13.17 12.9 0.619995 28.38 0.619995H309.62C325.09 0.619995 337.64 13.16 337.64 28.64C337.64 44.12 325.1 56.66 309.62 56.66Z" fill="#FCC8D6"/>
<path d="M187.17 32.47C186.56 32.79 185.15 34.44 184.01 33.71C183.8 33.58 182.71 29.78 182.4 29.09C182.27 28.81 182.26 28.09 181.73 28.64C181.36 29.03 180.37 33.68 179.49 34.24C178.88 34.62 176.55 33.51 176.42 32.8C176.19 31.59 179.36 25.66 179.81 24C179.34 23.58 177.12 24.03 176.93 23.85C176.8 23.72 176.82 20.44 177.23 20.16C177.6 19.9 185.86 19.9 186.23 20.16C186.67 20.47 186.68 23.14 186.39 23.55C186.01 24.09 184.61 23.78 183.97 23.85C183.62 24.15 185.66 27.76 185.89 28.32C186.38 29.51 186.9 31.19 187.17 32.47ZM185.57 20.98H177.89V22.9H181.09C181.59 23.37 177.02 31.93 177.6 32.76C177.78 33.01 178.94 33.27 179.33 32.79C179.9 32.07 181.2 27.14 181.61 27.03C181.82 26.97 182.48 26.98 182.65 27.09C183 27.31 184.39 32.59 184.61 32.79C184.67 32.84 186.13 32.51 186.19 32.45C186.9 31.64 181.84 23.77 182.69 22.9H185.57V20.98Z" fill="#191919"/>
<path d="M229.41 34.71C228.5 34.56 225.52 35.05 225.07 34.41C224.36 33.39 225.5 24.85 224.79 23.84C224.32 23.18 218.8 24.27 217.57 23.86C217.58 21.47 215.93 19.36 219.31 19.06C221.36 18.88 225.99 18.82 227.98 19.06C228.32 19.1 228.72 19.05 228.94 19.37L229.41 34.71ZM228.13 20.34H218.21C218.12 21.03 218.29 22.65 219.06 22.86C220.16 22.57 225.89 22.09 225.89 23.37V33.74H228.45C228.64 33.29 228.13 32.79 228.13 32.62V20.34Z" fill="#191919"/>
<path d="M235.77 41.04C235.58 41.35 231.52 41.43 231.65 40.29L232.11 18.41C232.49 17.87 236.16 17.7 236.12 19.24L235.77 41.04ZM232.93 19.38V40.13H234.85C234.9 33.21 234.65 26.26 235.17 19.38H232.93Z" fill="#191919"/>
<path d="M191.63 18.1H195.49V41.12H191.63V18.1ZM192.93 19.07V39.82C192.93 39.88 193.98 39.78 194.21 39.82C194.04 32.88 194.76 26.02 194.53 19.07H192.93Z" fill="#191919"/>
<path d="M214.05 18.43C214.54 18.92 214.11 24 214.42 24.93C214.72 25.82 216.05 25.27 216.28 25.47C216.44 25.61 216.8 29.39 216.6 29.58C216.48 29.7 214.82 29.56 214.68 30.13L215.33 40.29C215.05 41.77 212.06 40.84 210.85 41.09L210.52 18.64C210.72 17.81 213.35 18.64 214.05 18.43ZM213.05 19.42C212.83 19.24 211.88 19.45 211.48 19.38L211.8 40.13H214.36L213.7 29.16C213.85 28.61 215.7 29.11 215.65 28.18C215.48 25.2 213.83 27.05 213.44 25.89C213.08 24.78 213.79 20.03 213.05 19.42Z" fill="#191919"/>
<path d="M208.93 34.7C207.93 34.48 204.45 35.34 204.45 33.9V23.53C203.01 23.39 198.4 24.41 197.39 23.71C196.75 23.27 197.25 20.47 197.07 19.58C197.11 19.44 198.12 19.06 198.21 19.06H208.45C208.48 19.06 208.93 19.5 208.93 19.54V34.7ZM205.41 22.89V33.26C205.41 33.87 207.45 33.77 207.97 33.74L207.65 20.01L198.05 20.33C198.13 21.35 197.62 22.65 198.85 22.88C200.97 23.3 203.28 21.97 205.41 22.89Z" fill="#191919"/>
<path d="M246.79 29.82C249.53 32.32 249.6 27.77 250.86 27.2C253.81 25.86 253.94 31.31 250.96 33.06C249.74 33.78 247.64 33.98 246.28 33.68C243.63 33.09 242.48 28.42 242.05 28.32C240.48 27.95 241.4 31.45 240.3 31.99C236.58 33.81 237.44 26.61 239.96 25.27C244.5 22.83 245.08 28.26 246.79 29.82ZM243.7 26.52C242.13 25.02 239.96 25.79 239.23 27.74C239.05 28.21 238.52 31.02 238.69 31.19C239.85 32.36 240.12 28.49 240.59 27.91C242.51 25.57 243.93 30.23 244.63 31.17C247.25 34.69 253 32.54 252.13 28C250.45 27.74 250.84 29.99 249.74 30.88C246.49 33.52 244.99 27.75 243.7 26.52Z" fill="#191919"/>
<path d="M186.21 28.32C186.31 27.7 186.07 24.62 186.21 24.49C186.31 24.4 187.46 24.55 187.81 24.49V19.06C188.36 18.59 191.33 18.8 191.33 19.06V37.41C191.33 37.99 188.5 38.69 187.95 37.91C187.63 37.45 187.82 33.45 187.81 32.46C187.8 31.08 187.82 29.69 187.81 28.31L186.21 28.32ZM188.77 20.18C188.54 20.97 188.77 23.86 188.77 24.97C188.77 25.58 186.82 24.95 186.85 26.58C186.87 27.59 187.99 27.18 188.45 27.51C188.96 27.87 188.81 33.16 188.78 34.23C188.74 35.7 187.58 37.13 190.04 36.93L190.36 20.49C190.4 19.53 188.98 19.44 188.77 20.18Z" fill="#191919"/>
<path d="M185.57 20.98V22.9H182.69C181.84 23.77 186.9 31.64 186.19 32.45C186.14 32.51 184.67 32.85 184.61 32.79C184.39 32.58 183 27.31 182.65 27.09C182.49 26.99 181.82 26.97 181.61 27.03C181.19 27.14 179.9 32.07 179.33 32.79C178.95 33.27 177.78 33.01 177.6 32.76C177.01 31.93 181.59 23.38 181.09 22.9H177.89V20.98H185.57Z" fill="white"/>
<path d="M228.13 20.34V32.63C228.13 32.79 228.64 33.3 228.45 33.75H225.89V23.38C225.89 22.09 220.16 22.58 219.06 22.87C218.29 22.66 218.12 21.04 218.21 20.35H228.13V20.34Z" fill="#F3F3F3"/>
<path d="M232.93 19.38H235.17C234.65 26.26 234.9 33.21 234.85 40.13H232.93V19.38Z" fill="white"/>
<path d="M192.93 19.07H194.53C194.76 26.02 194.04 32.88 194.21 39.82C193.98 39.78 192.93 39.88 192.93 39.82V19.07Z" fill="white"/>
<path d="M213.05 19.42C213.78 20.03 213.08 24.78 213.45 25.88C213.84 27.04 215.49 25.2 215.66 28.17C215.71 29.1 213.86 28.6 213.71 29.15L214.37 40.12H211.81L211.49 19.37C211.89 19.45 212.84 19.24 213.05 19.42Z" fill="white"/>
<path d="M205.41 22.89C203.28 21.97 200.97 23.3 198.85 22.89C197.62 22.65 198.13 21.35 198.05 20.34L207.65 20.02L207.97 33.75C207.45 33.78 205.41 33.88 205.41 33.27V22.89Z" fill="white"/>
<path d="M243.7 26.52C244.99 27.76 246.49 33.52 249.74 30.89C250.84 30 250.45 27.75 252.13 28.01C253 32.55 247.25 34.7 244.63 31.18C243.93 30.24 242.51 25.58 240.59 27.92C240.12 28.5 239.85 32.37 238.69 31.2C238.51 31.02 239.05 28.22 239.23 27.75C239.95 25.78 242.13 25.01 243.7 26.52Z" fill="white"/>
<path d="M188.77 20.18C188.98 19.44 190.4 19.53 190.37 20.5L190.05 36.94C187.58 37.14 188.74 35.71 188.79 34.24C188.82 33.17 188.97 27.87 188.46 27.52C187.99 27.19 186.88 27.6 186.86 26.59C186.82 24.95 188.78 25.59 188.78 24.98C188.77 23.87 188.54 20.97 188.77 20.18Z" fill="white"/>
<path d="M264.29 18.43C265.21 18.58 268.18 18.09 268.63 18.73C269.34 19.74 268.42 32.26 268.72 34.5C268.41 35.42 264.28 35.15 264.28 34.54V18.43H264.29ZM265.25 19.38V33.58C265.25 33.96 267.58 34.9 267.83 32.96C268.36 28.65 267.11 23.75 267.5 19.38H265.25Z" fill="#191919"/>
<path d="M255.65 18.43C256.57 18.58 259.54 18.09 259.99 18.73C260.7 19.74 259.78 32.26 260.08 34.5C259.75 35.49 255.64 35.16 255.64 34.23V18.43H255.65ZM259.17 19.38H256.61V33.26C256.61 34.55 259.17 34.13 259.17 33.58V19.38Z" fill="#191919"/>
<path d="M268.77 40.77H264.29V36.62C269.02 35.96 269.04 35.87 268.77 40.77ZM267.81 37.57H265.24V39.81H267.81V37.57Z" fill="#191919"/>
<path d="M260.13 36.62V40.77C256.88 40.61 255.11 41.92 255.63 37.72C255.88 35.72 258.56 36.93 260.13 36.62ZM259.17 37.57H256.6V39.81H259.17V37.57Z" fill="#191919"/>
<path d="M265.25 19.38H267.49C267.1 23.75 268.36 28.65 267.82 32.96C267.58 34.9 265.24 33.97 265.24 33.58V19.38H265.25Z" fill="white"/>
<path d="M259.17 19.38V33.58C259.17 34.13 256.61 34.55 256.61 33.26V19.38H259.17Z" fill="white"/>
<path d="M267.809 37.5685L265.239 37.5728L265.242 39.8127L267.812 39.8085L267.809 37.5685Z" fill="white"/>
<path d="M259.169 37.5685L256.599 37.5728L256.602 39.8127L259.172 39.8085L259.169 37.5685Z" fill="white"/>
<path d="M81.33 15.13C83.01 15.2 82.88 18.32 82.13 18.32H72.85C72.3 18.32 72.08 16 72.67 15.59C73.2 15.22 76.09 15.53 77.04 15.46L77.81 15.13H81.33ZM81.65 16.41H73.33V17.37H81.17C81.38 17.36 81.79 16.68 81.65 16.41Z" fill="#191919"/>
<path d="M73.01 26.94C76.2 26.88 79.42 26.9 82.61 26.94C83.78 26.96 84.96 26.93 86.13 26.94C87.13 31.81 82.43 29.05 79.92 29.79C79.58 29.89 79.76 30.53 79.58 30.76C79.19 31.26 78.4 30.8 78.45 31.4H82.93C83.14 32.35 83.7 38.42 82.77 38.42H75.25V39.06H83.73C84.43 39.06 84.43 42.57 83.73 42.57H73.49C73.4 42.57 72.61 42.07 72.53 41.93C72.33 41.6 71.95 36.99 72.04 36.33C72.08 36.01 72.18 35.23 72.53 35.23H79.25C79.31 35.23 79.75 34.8 79.73 34.59H73.17C72.38 34.59 71.72 31.59 73.23 31.14C73.94 30.93 74.82 31.13 75.56 31.07C75.83 28.1 69.42 31.56 69.14 29.33C68.75 26.07 70.53 26.98 73.01 26.94ZM70.13 28.85H76.21C76.36 28.85 75.69 30.55 78.31 30.15C79.13 30.03 78.78 28.85 79.25 28.85H85.17C85.23 28.85 85.22 27.62 85.17 27.57C84.65 27.03 72 28.47 70.13 27.89V28.85ZM81.97 32.36H73.33C73.2 32.73 73.47 33.64 73.81 33.64H80.69C80.71 33.95 80.5 36.19 80.37 36.19H73.01L73.33 41.3C76.18 41.05 79.66 42.12 82.45 41.62C83.77 41.38 83.18 40.03 82.77 40.03H74.29C74.26 39.51 74.15 37.48 74.77 37.48H81.81C82.62 37.47 82.35 33.14 81.97 32.36Z" fill="#191919"/>
<path d="M73.01 26.62C69.65 23.52 72.29 23.98 74.29 21.84C71.84 22.03 70.23 22.02 71.39 19.1C73.41 19.2 82.44 17.98 83.59 18.78C83.99 19.06 84.03 21.59 83.85 21.8C83.56 22.14 81.53 21.84 81.33 22.47C81.97 22.49 84.05 23.01 84.19 23.62L82.61 26.62C81.23 26.52 78.78 24.41 77.65 24.41C76.49 24.41 74.48 26.81 73.01 26.62ZM82.93 19.6H72.53C72.14 19.6 71.64 20.85 72.58 21.14C73.18 21.33 77.81 20.76 76.01 22.17C75.54 22.54 72.49 23.9 72.37 24.07C72.21 24.29 72.97 25.44 73.2 25.69C74.14 25.83 76.47 23.45 77.65 23.45C78.84 23.45 81.16 25.75 82.28 25.19C85.55 23.56 77.35 22.59 78.77 21.19C79.27 20.71 83.69 22.34 82.93 19.6Z" fill="#191919"/>
<path d="M81.65 16.41C81.78 16.68 81.38 17.37 81.17 17.37H73.33V16.41H81.65Z" fill="white"/>
<path d="M81.97 32.36C82.34 33.14 82.62 37.47 81.81 37.47H74.77C74.15 37.47 74.26 39.51 74.29 40.02H82.77C83.18 40.02 83.77 41.37 82.45 41.61C79.66 42.11 76.18 41.04 73.33 41.29L73.01 36.18H80.37C80.5 36.18 80.71 33.93 80.69 33.63H73.81C73.47 33.63 73.2 32.72 73.33 32.35H81.97V32.36Z" fill="white"/>
<path d="M70.13 28.85V27.89C72 28.47 84.65 27.03 85.17 27.57C85.21 27.62 85.23 28.85 85.17 28.85H79.25C78.78 28.85 79.12 30.03 78.31 30.15C75.69 30.55 76.36 28.85 76.21 28.85H70.13Z" fill="white"/>
<path d="M82.93 19.6C83.69 22.34 79.26 20.71 78.77 21.2C77.35 22.61 85.55 23.57 82.28 25.2C81.16 25.76 78.84 23.46 77.65 23.46C76.47 23.46 74.14 25.84 73.2 25.7C72.96 25.45 72.21 24.31 72.37 24.08C72.49 23.91 75.53 22.55 76.01 22.18C77.81 20.77 73.18 21.33 72.58 21.15C71.64 20.85 72.14 19.61 72.53 19.61H82.93V19.6Z" fill="white"/>
<path d="M102.45 16.88C102.66 16.2 105.96 16.06 106.25 16.92L106.57 39.81C106.25 40.78 103.64 40.18 102.77 40.34L102.45 34.27H98.61V39.7C97.89 39.62 94.45 40 94.45 39.22V34.59C93.69 34.55 90.67 34.76 90.33 34.23C90.04 33.77 90.13 30.99 90.92 30.6C91.66 30.24 96 30.39 97.17 30.43C97.92 30.45 102.44 31.36 102.44 30.28V16.88H102.45ZM103.41 17.36V31.24C103.41 32.3 98.65 31.41 97.83 31.38C96.83 31.35 91.74 31.21 91.39 31.69C89.76 34.01 94.17 33.75 95.41 33.63C95.75 35.85 94.12 39.44 97.65 38.74V33.79C97.65 33.76 98.1 33.31 98.13 33.31H103.41L103.73 39.38H105.65C105.85 32.01 105.11 24.72 105.33 17.35L103.41 17.36Z" fill="#191919"/>
<path d="M95.73 20.87V21.83H100.53V25.02H95.73V25.98H101.01C101.58 25.98 101.63 28.16 101.45 28.65C101.32 29.01 99.98 29.49 99.73 29.49H92.05C92.02 29.49 91.57 29.05 91.57 29.01V17.84C91.57 17.81 92.02 17.36 92.05 17.36H100.37C101.07 17.36 101.07 20.87 100.37 20.87H95.73ZM99.89 18.32H93.01C92.98 18.32 92.53 18.76 92.53 18.8V28.06C92.53 28.09 92.98 28.54 93.01 28.54H100.05C100.65 28.54 100.65 26.94 100.05 26.94H95.25C94.7 26.94 94.48 24.62 95.07 24.21C95.72 23.76 99.5 24.39 99.57 23.91C99.6 23.67 99.61 22.84 99.57 22.8C99.41 22.63 95.26 22.95 94.79 22.46C94.62 22.28 94.69 19.92 95.25 19.92H99.89V18.32Z" fill="#191919"/>
<path d="M103.41 17.36H105.33C105.11 24.73 105.85 32.02 105.65 39.39H103.73L103.41 33.32H98.13C98.1 33.32 97.65 33.76 97.65 33.8V38.75C94.12 39.45 95.75 35.86 95.41 33.64C94.17 33.77 89.75 34.02 91.39 31.7C91.73 31.21 96.83 31.36 97.83 31.39C98.65 31.41 103.41 32.3 103.41 31.25V17.36Z" fill="white"/>
<path d="M99.89 18.32V19.92H95.25C94.69 19.92 94.62 22.28 94.79 22.46C95.26 22.95 99.41 22.62 99.57 22.8C99.61 22.84 99.6 23.68 99.57 23.91C99.5 24.39 95.72 23.76 95.07 24.21C94.48 24.63 94.7 26.94 95.25 26.94H100.05C100.65 26.94 100.65 28.54 100.05 28.54H93.01C92.98 28.54 92.53 28.1 92.53 28.06V18.8C92.53 18.77 92.98 18.32 93.01 18.32H99.89Z" fill="white"/>
<path d="M139.26 28.53V34.91H146.14C147.6 34.91 147.67 38.71 146.74 39.01C144.45 38.7 131.63 39.63 130.6 38.92C129.97 38.48 130.44 35.79 130.3 34.91H134.78L135.1 28.53H139.26ZM138.3 29.49C137.5 29.52 135.74 29.12 135.74 30.29V35.88H131.26C131.21 36.33 131.17 38.11 131.74 38.11H146.3C146.35 37.66 146.39 35.88 145.82 35.88H138.78C138.75 35.88 138.3 35.44 138.3 35.4V29.49Z" fill="#191919"/>
<path d="M144.54 18.32C144.96 18.45 144.99 19.05 145.04 19.42C145.46 23 144.57 27.14 145.21 30.78C144.56 31.67 141.9 30.51 140.86 30.77C140.95 28.09 140.84 25.44 140.54 22.79H132.22C132.49 22.08 131.33 18.32 132.38 18.32H144.54ZM143.74 19.28H133.34C132.6 19.28 133.04 21.83 133.18 21.83H141.5C141.4 22.14 141.82 22.52 141.82 22.63V30.13H144.06L143.74 19.28Z" fill="#191919"/>
<path d="M138.3 29.49V35.39C138.3 35.42 138.75 35.87 138.78 35.87H145.82C146.39 35.87 146.35 37.65 146.3 38.1H131.74C131.17 38.1 131.21 36.32 131.26 35.87H135.74V30.28C135.74 29.12 137.49 29.52 138.3 29.49Z" fill="white"/>
<path d="M143.74 19.28L144.06 30.13H141.82V22.63C141.82 22.52 141.4 22.15 141.5 21.83H133.18C133.04 21.83 132.6 19.28 133.34 19.28H143.74Z" fill="white"/>
<path d="M125.82 17.68C126.05 17.91 125.93 23.44 126.18 24.18C126.48 25.07 127.88 24.55 128.05 24.71C128.2 24.85 128.5 28.69 128.36 28.84C128.24 28.96 126.58 28.82 126.45 29.39L127.12 39.54C126.87 41.02 123.82 40.11 122.63 40.35L122.03 18.22C122.14 17.21 125.67 17.54 125.82 17.68ZM124.86 18.64H123.26L123.58 39.39H126.14L125.48 28.42L127.44 27.72C127.48 27.45 127.14 25.77 127.06 25.71C126.75 25.47 125.52 26.03 125.22 25.15C124.97 24.4 125.09 18.87 124.86 18.64Z" fill="#191919"/>
<path d="M119.95 27.68C122.11 29.82 121.26 35.11 117.9 35.8C113.6 36.68 110.46 34.55 111.12 30C111.7 26.05 117.34 25.1 119.95 27.68ZM114.85 27.33C111.1 28.11 110.97 33.81 114.61 34.76C121.9 36.68 122.01 25.85 114.85 27.33Z" fill="#191919"/>
<path d="M121.01 21.83V25.66H110.29C109.4 25.66 109.93 21.83 110.13 21.83H121.01ZM120.37 22.79C120.04 22.45 112 23.05 110.77 22.79V24.7H119.89C120.36 24.7 120.54 22.95 120.37 22.79Z" fill="#191919"/>
<path d="M119.73 17.04V20.87H111.57C110.94 20.87 111.21 17.04 111.41 17.04H119.73ZM118.77 18H112.37V19.91H118.77V18Z" fill="#191919"/>
<path d="M124.86 18.64C125.09 18.87 124.97 24.4 125.22 25.14C125.52 26.02 126.75 25.46 127.06 25.7C127.14 25.76 127.47 27.44 127.44 27.71L125.48 28.41L126.14 39.38H123.58L123.26 18.63H124.86V18.64Z" fill="white"/>
<path d="M114.85 27.33C122.01 25.85 121.9 36.68 114.61 34.76C110.96 33.81 111.1 28.11 114.85 27.33ZM118.1 31.09C118.1 29.96 117.18 29.05 116.05 29.05C114.92 29.05 114 29.96 114 31.09C114 32.22 114.92 33.13 116.05 33.13C117.18 33.13 118.1 32.21 118.1 31.09Z" fill="white"/>
<path d="M120.37 22.79C120.53 22.95 120.36 24.7 119.89 24.7H110.77V22.79C112 23.05 120.04 22.45 120.37 22.79Z" fill="white"/>
<path d="M118.77 18H112.37V19.91H118.77V18Z" fill="white"/>
<path d="M116.05 29.04C114.92 29.04 114 29.95 114 31.08C114 32.21 114.92 33.12 116.05 33.12C117.18 33.12 118.1 32.21 118.1 31.08C118.1 29.96 117.18 29.04 116.05 29.04ZM116.04 32.2C115.42 32.2 114.93 31.7 114.93 31.09C114.93 30.48 115.43 29.98 116.04 29.98C116.65 29.98 117.15 30.48 117.15 31.09C117.15 31.7 116.65 32.2 116.04 32.2Z" fill="#191919"/>
<path d="M157.41 28.96L174.37 28.64V31.83H168.77C167.68 31.83 168.14 33.2 167.79 33.46C167.34 33.8 164.55 33.91 164.11 33.6C163.65 33.27 163.91 32.27 163.8 32.15C163.51 31.84 158.32 32.57 157.41 31.82V28.96ZM173.41 29.6H158.85C158.53 29.6 158.02 30.59 158.68 31.04C159.88 31.86 164.03 30.32 164.6 31.52C164.8 31.93 164.63 32.75 164.94 32.8C165.2 32.85 166.92 32.84 166.99 32.77C167.08 32.67 166.79 30.87 168.44 30.87H173.4C173.47 30.87 173.37 29.83 173.41 29.6Z" fill="#191919"/>
<path d="M172.13 23.22H169.25C169.78 23.96 171.06 24.09 171.79 24.67C173.14 25.73 171.33 27.12 170.66 28.31C169.99 28.46 166.97 25.75 165.89 25.79C164.77 25.83 162.64 28.59 161.48 28.29C161.19 28.22 159.45 26.48 159.37 26.2C159.03 24.96 161.98 24.35 162.53 23.38C161.86 22.92 159.95 23.61 159.47 22.92C159.17 22.5 159.09 20.32 159.85 20.07L171.6 19.75C172.56 20.06 171.99 22.39 172.13 23.22ZM171.17 20.66H160.77C160.45 20.66 159.94 21.65 160.6 22.1C161.33 22.6 164.24 21.78 164.45 22.74C164.7 23.92 159.73 25.22 160.91 26.58C162.35 28.24 164.31 24.77 165.89 24.78C167.08 24.78 169.71 27.43 170.53 26.91C172.97 25.38 167.87 24.08 167.2 23.56C166.89 23.32 166.94 22.64 167 22.58C167.17 22.4 170.59 22.18 171.16 22.26L171.17 20.66Z" fill="#191919"/>
<path d="M172.45 42.52C172.19 43.37 168.58 42.95 168.32 42.65C168.16 42.47 168.16 38.61 167.97 37.89C166.53 37.88 161.21 38.73 160.27 38.07C159.83 37.77 159.81 34.78 160.11 34.36C160.7 33.51 169.69 34.57 171.35 33.77C171.69 33.71 172.45 34.41 172.45 34.54C172.45 36.14 172.77 41.48 172.45 42.52ZM171.17 35.02H160.93V36.93H168.45C169.65 36.93 169.17 41.18 169.25 42.04C173.42 42.81 170.58 37.41 171.17 35.02Z" fill="#191919"/>
<path d="M161.09 19.38C160.42 19.17 160.39 16.69 160.91 16.33C161.59 15.86 168.53 16.36 170.05 15.87C171.37 15.84 170.95 19.38 170.37 19.38C168.56 19.38 162.26 19.75 161.09 19.38ZM169.89 17.15H161.57C161.51 17.15 161.51 18.43 161.57 18.43H169.41C169.75 18.43 170.02 17.52 169.89 17.15Z" fill="#191919"/>
<path d="M173.41 29.6C173.37 29.83 173.47 30.88 173.41 30.88H168.45C166.8 30.88 167.09 32.68 167 32.78C166.93 32.85 165.21 32.86 164.95 32.81C164.64 32.76 164.8 31.94 164.61 31.53C164.04 30.33 159.89 31.87 158.69 31.05C158.03 30.6 158.54 29.61 158.86 29.61H173.41V29.6Z" fill="white"/>
<path d="M171.17 20.66V22.26C170.6 22.18 167.18 22.4 167.01 22.58C166.95 22.64 166.9 23.32 167.21 23.56C167.88 24.09 172.97 25.38 170.54 26.91C169.72 27.43 167.09 24.78 165.9 24.78C164.32 24.78 162.36 28.25 160.92 26.58C159.74 25.22 164.71 23.91 164.46 22.74C164.26 21.78 161.34 22.6 160.61 22.1C159.95 21.65 160.46 20.66 160.78 20.66H171.17Z" fill="white"/>
<path d="M171.17 35.02C170.58 37.41 173.42 42.8 169.25 42.04C169.18 41.18 169.65 36.93 168.45 36.93H160.93V35.02H171.17Z" fill="white"/>
<path d="M169.89 17.15C170.02 17.52 169.75 18.43 169.41 18.43H161.57C161.51 18.43 161.51 17.15 161.57 17.15H169.89Z" fill="white"/>
</svg>
