<svg width="240" height="94" viewBox="0 0 240 94" fill="none" xmlns="http://www.w3.org/2000/svg">
<g clip-path="url(#clip0_188_1164)">
<mask id="mask0_188_1164" style="mask-type:luminance" maskUnits="userSpaceOnUse" x="0" y="0" width="240" height="94">
<path d="M240 0H0V94H240V0Z" fill="white"/>
</mask>
<g mask="url(#mask0_188_1164)">
<path d="M11.05 49.8701H6.53003V84.0401H11.05V49.8701Z" fill="#F4F4F4" stroke="#231815" stroke-linecap="round" stroke-linejoin="round"/>
<path d="M233.47 49.8701H228.95V84.0401H233.47V49.8701Z" fill="#F4F4F4" stroke="#231815" stroke-linecap="round" stroke-linejoin="round"/>
<path d="M141 1.37012H135.73H1.3501V55.6001H135.73H141H238.65V1.37012H141Z" fill="#F4F4F4" stroke="#231815" stroke-linecap="round" stroke-linejoin="round"/>
<path d="M41.51 74.8103C39.75 74.8103 37.02 90.1603 27.82 85.7203C18.62 81.2803 32.15 53.8003 29.32 57.0603C26.49 60.3203 20.39 64.4403 16.92 64.1203C15.13 63.9603 11.52 61.3903 16.92 51.7203C23.11 40.6403 32.75 37.2803 32.75 37.2803H50.29C50.29 37.2803 59.93 40.6303 66.12 51.7203C71.52 61.4003 67.91 63.9603 66.12 64.1203C62.64 64.4403 56.55 60.3203 53.72 57.0603C50.89 53.8003 64.41 81.2803 55.22 85.7203C46.03 90.1603 43.3 74.8103 41.53 74.8103" fill="#F4F4F4"/>
<path d="M41.51 74.8103C39.75 74.8103 37.02 90.1603 27.82 85.7203C18.62 81.2803 32.15 53.8003 29.32 57.0603C26.49 60.3203 20.39 64.4403 16.92 64.1203C15.13 63.9603 11.52 61.3903 16.92 51.7203C23.11 40.6403 32.75 37.2803 32.75 37.2803H50.29C50.29 37.2803 59.93 40.6303 66.12 51.7203C71.52 61.4003 67.91 63.9603 66.12 64.1203C62.64 64.4403 56.55 60.3203 53.72 57.0603C50.89 53.8003 64.41 81.2803 55.22 85.7203C46.03 90.1603 43.3 74.8103 41.53 74.8103" stroke="#231815" stroke-linecap="round" stroke-linejoin="round"/>
<path d="M41.5101 41.9702C50.2804 41.9702 57.3901 34.8605 57.3901 26.0902C57.3901 17.3199 50.2804 10.2102 41.5101 10.2102C32.7398 10.2102 25.6301 17.3199 25.6301 26.0902C25.6301 34.8605 32.7398 41.9702 41.5101 41.9702Z" fill="#F4F4F4" stroke="#231815" stroke-linecap="round" stroke-linejoin="round"/>
<path d="M28.4102 31.1702H54.6102C58.1702 31.1702 61.0502 34.0602 61.0502 37.6102V71.1802H21.9702V37.6102C21.9702 34.0502 24.8602 31.1702 28.4102 31.1702Z" fill="#F4F4F4" stroke="#231815" stroke-linecap="round" stroke-linejoin="round"/>
<path d="M45.7103 71.1802H37.3203V92.2002H45.7103V71.1802Z" fill="#F4F4F4" stroke="#231815" stroke-linecap="round" stroke-linejoin="round"/>
<path d="M61.0602 89.7302H21.9702V92.6302H61.0602V89.7302Z" fill="#F4F4F4" stroke="#231815" stroke-linecap="round" stroke-linejoin="round"/>
</g>
</g>
<defs>
<clipPath id="clip0_188_1164">
<rect width="240" height="94" fill="white"/>
</clipPath>
</defs>
</svg>
