<svg width="240" height="94" viewBox="0 0 240 94" fill="none" xmlns="http://www.w3.org/2000/svg">
<g clip-path="url(#clip0_188_1281)">
<mask id="mask0_188_1281" style="mask-type:luminance" maskUnits="userSpaceOnUse" x="0" y="0" width="240" height="94">
<path d="M240 0H0V94H240V0Z" fill="white"/>
</mask>
<g mask="url(#mask0_188_1281)">
<path d="M11.05 49.8701H6.53003V84.0401H11.05V49.8701Z" fill="#F4F4F4" stroke="#231815" stroke-linecap="round" stroke-linejoin="round"/>
<path d="M233.47 49.8701H228.95V84.0401H233.47V49.8701Z" fill="#F4F4F4" stroke="#231815" stroke-linecap="round" stroke-linejoin="round"/>
<path d="M141 1.37012H135.73H1.3501V55.6001H135.73H141H238.65V1.37012H141Z" fill="#F4F4F4" stroke="#231815" stroke-linecap="round" stroke-linejoin="round"/>
<path d="M41.51 74.8103C39.75 74.8103 37.02 90.1603 27.82 85.7203C18.62 81.2803 32.15 53.8003 29.32 57.0603C26.49 60.3203 20.39 64.4403 16.92 64.1203C15.13 63.9603 11.52 61.3903 16.92 51.7203C23.11 40.6403 32.75 37.2803 32.75 37.2803H50.29C50.29 37.2803 59.93 40.6303 66.12 51.7203C71.52 61.4003 67.91 63.9603 66.12 64.1203C62.64 64.4403 56.55 60.3203 53.72 57.0603C50.89 53.8003 64.41 81.2803 55.22 85.7203C46.03 90.1603 43.3 74.8103 41.53 74.8103" fill="#F4F4F4"/>
<path d="M41.51 74.8103C39.75 74.8103 37.02 90.1603 27.82 85.7203C18.62 81.2803 32.15 53.8003 29.32 57.0603C26.49 60.3203 20.39 64.4403 16.92 64.1203C15.13 63.9603 11.52 61.3903 16.92 51.7203C23.11 40.6403 32.75 37.2803 32.75 37.2803H50.29C50.29 37.2803 59.93 40.6303 66.12 51.7203C71.52 61.4003 67.91 63.9603 66.12 64.1203C62.64 64.4403 56.55 60.3203 53.72 57.0603C50.89 53.8003 64.41 81.2803 55.22 85.7203C46.03 90.1603 43.3 74.8103 41.53 74.8103" stroke="#231815" stroke-linecap="round" stroke-linejoin="round"/>
<path d="M41.5101 41.9702C50.2804 41.9702 57.3901 34.8605 57.3901 26.0902C57.3901 17.3199 50.2804 10.2102 41.5101 10.2102C32.7398 10.2102 25.6301 17.3199 25.6301 26.0902C25.6301 34.8605 32.7398 41.9702 41.5101 41.9702Z" fill="#F4F4F4" stroke="#231815" stroke-linecap="round" stroke-linejoin="round"/>
<path d="M28.4102 31.1702H54.6102C58.1702 31.1702 61.0502 34.0602 61.0502 37.6102V71.1802H21.9702V37.6102C21.9702 34.0502 24.8602 31.1702 28.4102 31.1702Z" fill="#F4F4F4" stroke="#231815" stroke-linecap="round" stroke-linejoin="round"/>
<path d="M45.7103 71.1802H37.3203V92.2002H45.7103V71.1802Z" fill="#F4F4F4" stroke="#231815" stroke-linecap="round" stroke-linejoin="round"/>
<path d="M61.0602 89.7302H21.9702V92.6302H61.0602V89.7302Z" fill="#F4F4F4" stroke="#231815" stroke-linecap="round" stroke-linejoin="round"/>
<path d="M120 74.8103C118.24 74.8103 115.51 90.1603 106.31 85.7203C97.11 81.2803 110.64 53.8003 107.81 57.0603C104.98 60.3203 98.88 64.4403 95.41 64.1203C93.62 63.9603 90.01 61.3903 95.41 51.7203C101.6 40.6403 111.24 37.2803 111.24 37.2803H128.78C128.78 37.2803 138.42 40.6303 144.61 51.7203C150.01 61.4003 146.4 63.9603 144.61 64.1203C141.13 64.4403 135.04 60.3203 132.21 57.0603C129.38 53.8003 142.9 81.2803 133.71 85.7203C124.51 90.1603 121.79 74.8103 120.02 74.8103" fill="#F4F4F4"/>
<path d="M120 74.8103C118.24 74.8103 115.51 90.1603 106.31 85.7203C97.11 81.2803 110.64 53.8003 107.81 57.0603C104.98 60.3203 98.88 64.4403 95.41 64.1203C93.62 63.9603 90.01 61.3903 95.41 51.7203C101.6 40.6403 111.24 37.2803 111.24 37.2803H128.78C128.78 37.2803 138.42 40.6303 144.61 51.7203C150.01 61.4003 146.4 63.9603 144.61 64.1203C141.13 64.4403 135.04 60.3203 132.21 57.0603C129.38 53.8003 142.9 81.2803 133.71 85.7203C124.51 90.1603 121.79 74.8103 120.02 74.8103" stroke="#231815" stroke-linecap="round" stroke-linejoin="round"/>
<path d="M120 41.9702C128.77 41.9702 135.88 34.8605 135.88 26.0902C135.88 17.3199 128.77 10.2102 120 10.2102C111.23 10.2102 104.12 17.3199 104.12 26.0902C104.12 34.8605 111.23 41.9702 120 41.9702Z" fill="#F4F4F4" stroke="#231815" stroke-linecap="round" stroke-linejoin="round"/>
<path d="M106.9 31.1702H133.1C136.66 31.1702 139.54 34.0602 139.54 37.6102V71.1802H100.45V37.6102C100.45 34.0502 103.34 31.1702 106.89 31.1702H106.9Z" fill="#F4F4F4" stroke="#231815" stroke-linecap="round" stroke-linejoin="round"/>
<path d="M124.19 71.1802H115.8V92.2002H124.19V71.1802Z" fill="#F4F4F4" stroke="#231815" stroke-linecap="round" stroke-linejoin="round"/>
<path d="M139.55 89.7302H100.46V92.6302H139.55V89.7302Z" fill="#F4F4F4" stroke="#231815" stroke-linecap="round" stroke-linejoin="round"/>
<path d="M198.49 74.8103C196.73 74.8103 194 90.1603 184.8 85.7203C175.6 81.2803 189.13 53.8003 186.3 57.0603C183.47 60.3203 177.37 64.4403 173.9 64.1203C172.11 63.9603 168.5 61.3903 173.9 51.7203C180.09 40.6403 189.73 37.2803 189.73 37.2803H207.27C207.27 37.2803 216.91 40.6303 223.1 51.7203C228.5 61.4003 224.89 63.9603 223.1 64.1203C219.62 64.4403 213.53 60.3203 210.7 57.0603C207.87 53.8003 221.39 81.2803 212.2 85.7203C203 90.1603 200.28 74.8103 198.51 74.8103" fill="#F4F4F4"/>
<path d="M198.49 74.8103C196.73 74.8103 194 90.1603 184.8 85.7203C175.6 81.2803 189.13 53.8003 186.3 57.0603C183.47 60.3203 177.37 64.4403 173.9 64.1203C172.11 63.9603 168.5 61.3903 173.9 51.7203C180.09 40.6403 189.73 37.2803 189.73 37.2803H207.27C207.27 37.2803 216.91 40.6303 223.1 51.7203C228.5 61.4003 224.89 63.9603 223.1 64.1203C219.62 64.4403 213.53 60.3203 210.7 57.0603C207.87 53.8003 221.39 81.2803 212.2 85.7203C203 90.1603 200.28 74.8103 198.51 74.8103" stroke="#231815" stroke-linecap="round" stroke-linejoin="round"/>
<path d="M198.49 41.9702C207.26 41.9702 214.37 34.8605 214.37 26.0902C214.37 17.3199 207.26 10.2102 198.49 10.2102C189.72 10.2102 182.61 17.3199 182.61 26.0902C182.61 34.8605 189.72 41.9702 198.49 41.9702Z" fill="#F4F4F4" stroke="#231815" stroke-linecap="round" stroke-linejoin="round"/>
<path d="M185.39 31.1702H211.59C215.15 31.1702 218.03 34.0602 218.03 37.6102V71.1802H178.94V37.6102C178.94 34.0502 181.83 31.1702 185.38 31.1702H185.39Z" fill="#F4F4F4" stroke="#231815" stroke-linecap="round" stroke-linejoin="round"/>
<path d="M202.68 71.1802H194.29V92.2002H202.68V71.1802Z" fill="#F4F4F4" stroke="#231815" stroke-linecap="round" stroke-linejoin="round"/>
<path d="M218.03 89.7302H178.94V92.6302H218.03V89.7302Z" fill="#F4F4F4" stroke="#231815" stroke-linecap="round" stroke-linejoin="round"/>
</g>
</g>
<defs>
<clipPath id="clip0_188_1281">
<rect width="240" height="94" fill="white"/>
</clipPath>
</defs>
</svg>
