<?xml version="1.0" encoding="UTF-8"?>
<svg id="Layer_2" xmlns="http://www.w3.org/2000/svg" xmlns:xlink="http://www.w3.org/1999/xlink" viewBox="0 0 634.17 250">
  <defs>
    <style>
      .cls-1 {
        fill: url(#_π_Û_æ_Æ_12);
      }

      .cls-2 {
        fill: #d1350f;
      }

      .cls-3 {
        fill: #ff8200;
      }

      .cls-4 {
        fill: #282828;
      }
    </style>
    <linearGradient id="_π_Û_æ_Æ_12" data-name="π´¡¶ ±◊∂Ûµæ∆Æ 12" x1="151.29" y1="136.06" x2="119.98" y2="82.9" gradientUnits="userSpaceOnUse">
      <stop offset="0" stop-color="#ff8200"/>
      <stop offset="1" stop-color="#d1350f"/>
    </linearGradient>
  </defs>
  <g id="logo">
    <g>
      <g id="Symbol">
        <path class="cls-2" d="M24.82,125h-3.41c-15.69,0-24.76-12.72-20.26-28.41l11.4-39.77h31.82l-19.55,68.18Z"/>
        <path class="cls-3" d="M122.78,56.82h-19.32l-19.55,68.18h19.32c12.5,0,16.6,9.47,11.17,28.41-5.43,18.94-14.96,28.41-27.46,28.41s-16.6-9.47-11.17-28.41L111.61,28.41c4.5-15.69-4.57-28.41-20.26-28.41h-39.77L7.59,153.41h0c-18.46,64.39,6.39,96.59,59.8,96.59s96.73-32.2,115.2-96.59c18.46-64.39-6.39-96.59-59.8-96.59Z"/>
        <path class="cls-1" d="M182.59,153.41c18.46-64.39-6.39-96.59-59.8-96.59h-19.32l-19.55,68.18h19.32c12.5,0,16.6,9.47,11.17,28.41"/>
      </g>
      <g>
        <path class="cls-4" d="M598.06,160.05h-154.47s-14.65,63.27-14.65,63.27c-1.47,6.37,3.36,12.45,9.9,12.45h157.51l13.97-60.31c1.83-7.88-4.16-15.41-12.25-15.41ZM563.39,206.64h-90.87l4.07-17.55h90.87l-4.08,17.55Z"/>
        <path class="cls-4" d="M376.11,175.82h23.87l27.16-117.02c1.78-7.63-4.37-15.24-12.31-15.24h-23.86l-27.17,117.03c-1.77,7.63,4.37,15.24,12.31,15.24Z"/>
        <path class="cls-4" d="M245.21,148.59h105.52s20.92-89.79,20.92-89.79c1.78-7.63-4.37-15.24-12.31-15.24h-23.86l-7.49,32.15h-41.94l3.94-16.91c1.78-7.63-4.37-15.24-12.31-15.24h-23.86l-20.92,89.79c-1.78,7.63,4.37,15.25,12.31,15.25ZM279.26,104.83h41.94l-3.41,14.63h-41.94l3.41-14.63Z"/>
        <path class="cls-4" d="M621.55,43.55h-23.86l-7.57,32.6h-21.26s-3.31,13.81-3.31,13.81c-1.84,7.65,4.32,15.32,12.29,15.32h5.51l-6.45,27.98c-1.77,7.63,4.37,15.24,12.31,15.24h23.87l20.76-89.7c1.78-7.63-4.37-15.24-12.31-15.24Z"/>
        <path class="cls-4" d="M468.5,121.84c3.56,21.29,20.02,25.89,20.02,25.89,15.93-2.95,30.44-14.05,36.02-23.72,6.65,22.64,37.55,24.92,37.55,24.92l7.83-33.7c-18.62-1.97-20.08-22.31-10.65-58.92,1.66-6.44-3.17-12.74-9.82-12.74h-24.6c-2.49,14.13-16.22,56.18-25.79,60.87-3.4-6.97,1.33-32.92,4.65-48.6,1.34-6.32-3.47-12.27-9.94-12.27h-23.5c-4.11,28.73-23.09,67.78-41.6,66.71,0,0-7.45,32.1-8.64,37.21,13.89,0,40.33-11.38,48.47-25.65Z"/>
        <path class="cls-4" d="M397.24,235.77s-49.74-.91-78.83-29.77c-19.02,14.95-48.71,24.36-76.82,26.66-5.87.48-10.88-4.21-10.97-10.1l-.36-23.74c35.47-.54,71.07-15.03,77.95-40.7l26.02,4.52c6.31,1.1,9.76,7.84,7.17,13.7-.43.97-1.04,2.19-1.37,2.89,15.28,13.56,32.27,19.63,53.58,22.44,5.98.79,9.98,6.58,8.62,12.46l-4.99,21.63Z"/>
      </g>
    </g>
  </g>
</svg>