<?xml version="1.0" encoding="UTF-8"?>
<svg xmlns="http://www.w3.org/2000/svg" xmlns:xlink="http://www.w3.org/1999/xlink" viewBox="0 0 271.53 261.46">
  <defs>
    <style>
      .cls-1 {
        fill: #f5c4d2;
      }

      .cls-2 {
        fill: #f5c5d2;
      }

      .cls-3 {
        fill: #f8cad6;
      }

      .cls-4 {
        fill: #f7c9d5;
      }

      .cls-5 {
        fill: #f8cbd6;
      }

      .cls-6 {
        fill: #f8ccd7;
      }

      .cls-7 {
        fill: #f4c3d1;
      }

      .cls-8 {
        fill: none;
      }

      .cls-9 {
        fill: #e6a6bc;
      }

      .cls-10 {
        fill: #f1bdcd;
      }

      .cls-11 {
        fill: #e9adc1;
      }

      .cls-12 {
        clip-path: url(#clippath-1);
      }

      .cls-13 {
        fill: #e09ab3;
      }

      .cls-14 {
        fill: #f9cdd8;
      }

      .cls-15 {
        fill: #e7aabe;
      }

      .cls-16 {
        isolation: isolate;
      }

      .cls-17 {
        fill: #eab0c3;
      }

      .cls-18 {
        fill: #f6c8d4;
      }

      .cls-19 {
        fill: #efbaca;
      }

      .cls-20 {
        fill: #e29fb6;
      }

      .cls-21 {
        fill: #db91ac;
      }

      .cls-22 {
        fill: #e4a3b9;
      }

      .cls-23 {
        fill: #f7cad6;
      }

      .cls-24 {
        mix-blend-mode: multiply;
      }

      .cls-25 {
        fill: #f6c7d4;
      }

      .cls-26 {
        fill: #f3c2d0;
      }

      .cls-27 {
        fill: #edb5c7;
      }

      .cls-28 {
        fill: #f0bccb;
      }

      .cls-29 {
        fill: #eeb8c8;
      }

      .cls-30 {
        fill: #ecb3c5;
      }

      .cls-31 {
        fill: #dd96b0;
      }

      .cls-32 {
        fill: #f9ccd7;
      }

      .cls-33 {
        fill: #e23768;
      }

      .cls-34 {
        clip-path: url(#clippath);
      }

      .cls-35 {
        fill: #f8cbd7;
      }

      .cls-36 {
        fill: #f2bfce;
      }

      .cls-37 {
        fill: #f6c6d3;
      }

      .cls-38 {
        fill: #f3c1cf;
      }

      .cls-39 {
        fill: #f9ccd8;
      }
    </style>
    <clipPath id="clippath">
      <path class="cls-8" d="M197.06,44.82c2.57-2.56,5.86-4.56,9.24-5.83,1.04-.39,2.04-.7,3.16-.68.97.02,1.94.04,2.92.04,1.34,0,2.09.43,3.25.99.8.38,1.02.63,1.98.65,1.78.05,3.69.17,5.45-.09.89-.13,1.65-.29,2.55-.29.97,0,2-.22,2.84.23,1.23.65,2,1.81,2.86,2.76.18.2.46.31.64.5.34.36.44.9.79,1.26.97.97,2.73,1.15,3.78,1.95,1.39,1.05,1.37,2.66,1.38,4.27,0,1.55.01,3.15,1.09,4.42,1.78,2.08,5.59,3.01,8.2,3.18,1.29.08,2.52.36,2.59,1.87.07,1.44-.09,2.9-.02,4.34.04.85.43,1.52.63,2.36.43,1.81,1.39,3.22,1.55,5.13.12,1.5-.4,2.95-.33,4.46.1,2.35,2.22,4.26,3.35,6.2.47.81,1.1,1.4,1.14,2.34.05,1.13-.71,1.67-1.17,2.62-.43.86-.66,2.19.03,2.91.55.57,1.45,1.04,2.08,1.5.95.67,1.92,1.35,2.61,2.29,1.32,1.78,2.29,4.11,3.42,6.17,1.32,2.41,2.08,5.9,1.55,8.65-.1.53-.14.67-.45,1.12-.19.28-.52.66-.69.96-.23.42-.24.81-.43,1.22-.53,1.13-1.64,1.67-1.78,3.03-.16,1.51.57,2.88.03,4.29-.74,1.93-2.74,3.32-2.98,5.34-.3,2.55-1.45,5.2-.28,7.65.83,1.74.82,4.02,1.03,5.92.14,1.27.91,2.28,1.12,3.52.2,1.13.08,2.67-.11,3.82-.24,1.44-1.16,3.56-.44,4.92.29.54.47.58.55,1.27.07.54-.02,1.27-.03,1.79-.01,1.56.28,2.98.39,4.51.09,1.22.4,3.52-.47,4.53-.13.15-.51.31-.6.43-.17.26.04.42-.05.65-.3.77-.33,1.34-.45,2.16-.37,2.59-1.19,4.78-2.9,6.68-1.05,1.17-2.72,1.7-3.71,2.9-1.32,1.59-1.91,3.82-1.87,5.84.03,1.58.23,2.22-1.2,3.21-1.54,1.07-3.42,1.9-5.14,2.63-1.04.44-1.82,1.16-2.71,1.9-1.48,1.24-2.79,2.11-3.96,3.62-1.08,1.4-2.19,2.81-3.35,4.15-.29.33-.98.95-1.1,1.43-.15.56,0,1.61.02,2.17.02.84.01,1.21-.42,2-.33.6-.79,1.15-1.11,1.76-.17.33-.19.86-.37,1.14-.63,1-1.89,1.4-2.56,2.41-.36.55-.67.99-1.07,1.53-1.06,1.42-1.8,3.14-3.21,4.23-.98.76-2.37,1.28-3.47,1.8-.36.17-1.1.3-1.4.53-.24.18-.28.46-.49.66-1.03.97-2.49,1.64-3.67,2.4-1.11.71-2.2,1.43-3.24,2.24-.71.56-1.76,1.81-2.6,2.04-1.36.36-3.37-.02-4.81-.02-.89,0-4.04-.17-4.61.93-.13.25.05.72,0,.95-.14.59-.54,1.08-.83,1.62-.73,1.39-1.34,2.65-2.63,3.62-.77.58-1.42.6-2.14.91-.6.26-.82.35-1.51.53-.5.12-.39.03-.74.36-.3.28-.58,1.06-.7,1.47-.46,1.61-1.44,2.76-2.54,4.06-.83.98-1.51,2.33-2.61,3.02-1.2.75-2.52,1.36-3.82,1.89-.92.38-1.55.3-2.53.33-1.92.05-4.47.13-5.67,1.75-.89,1.2-1.56,2.48-2.65,3.58-1.61,1.62-3.89,2.78-6.02,3.61-2.49.96-5.08,1.12-7.71,1.39-.87.09-1.36.16-2.11-.24-2.01-1.06-3.77-2.18-6.09-2.52-1.49-.22-2.35-.45-3.68-1.2-1.57-.88-2.89-2.18-4.64-2.68-1.09-.31-2.26-.45-3.37-.71-.88-.21-1.78-.61-2.68-.72-.67-.08-1.46-.1-2.12.04-.38.08-1.29.59-1.51.68-.76.29-1.9.58-2.6,1.04-.41.27-.66.63-1.02,1-1.01,1.04-2.4,2.09-3.67,2.83-2.04,1.19-3.69,2.2-6.14,2.2-2.24,0-4.44.41-6.68.38-3.44-.04-6.84.34-10.27.38-3.45.04-6.91-.08-10.37-.01-1.23.02-1.63.17-1.91-1.14-.26-1.21-.1-2.53-.08-3.76.01-.52.15-1.19-.07-1.59-.26-.47-2.31-1.13-2.64-1.24-1.38-.44-2.82-.72-4.26-.81-2.95-.18-5.81.98-8.83.77-1.99-.14-4.3-1.21-6.19-1.82-.98-.32-2.39-.87-3.18-1.52-1.09-.9-1.75-2.22-2.91-3.12-1.23-.96-2.69-1.78-4.23-2.07-1.99-.37-3.92-.44-5.94-.42-1.69.01-4.32.7-5.31-1.16-.52-.98-.69-2.2-.65-3.28.06-1.47.76-2.72.79-4.17.02-1.27.23-2.64-.51-3.75-.59-.89-1.86-2.09-2.84-2.49-1.54-.62-3.37-.4-4.99-.55-1.7-.15-3.52-.03-5.17-.55-2.41-.75-4.22-3.86-5.83-5.63-1.22-1.34-2.06-2.8-2.86-4.4-.57-1.14-1.07-2.47-1.37-3.7-.33-1.33-.68-3.12-.5-4.49.1-.75.42-1.42.32-2.21-.16-1.21-1.24-1.83-1.92-2.84-.67-.99-.72-1.51-.7-2.64,0-.55.18-1.42-.04-1.94-.38-.89-1.79-1.12-2.58-1.48-1.05-.48-1.82-1.01-2.59-1.86-1.18-1.29-2.68-2.91-3.37-4.52-.56-1.31-.61-2.98-.9-4.36-.24-1.13.03-2.3-.25-3.4-.2-.77-.61-1.67-.98-2.39-.8-1.51-2.9-2.05-3.64-3.54-.38-.76-.64-2.26-.56-3.06.13-1.41,1.88-1.89,2.93-2.63,1.29-.91,1.6-2.21,1.59-3.73-.01-1.66.02-3.32,0-4.97-.02-2.12,1.18-3.05,1.96-4.89.32-.74.15-1.39.24-2.15.09-.81.25-1.71.4-2.49.13-.72.65-1.1,1.04-1.7.18-.27.32-.94.5-1.14.51-.54,2.09-.84,2.83-1,.99-.21,2.01-.06,3.03-.27,1.62-.33,2.67-1.31,4.18-1.76.99-.29,2.01-.6,2.92-1.08.47-.25.86-.74,1.34-.95.58-.26,1.09-.04,1.64.15,1.32.46,2.24.02,3.67-.25L197.06,44.82Z"/>
    </clipPath>
    <clipPath id="clippath-1">
      <circle class="cls-8" cx="117.75" cy="102.77" r="102.76"/>
    </clipPath>
  </defs>
  <g class="cls-16">
    <g id="Layer_2">
      <g id="Layer_1-2" data-name="Layer_1">
        <g class="cls-24">
          <g class="cls-34">
            <g>
              <rect class="cls-21" x="4.22" y="38.29" width="260.96" height="215.75"/>
              <path class="cls-21" d="M271.53,133.19c0,37.49-15.2,71.43-39.76,96-12.28,12.28-26.91,22.22-43.15,29.09v-3.25h-105.69v3.25c-16.24-6.87-30.87-16.81-43.15-29.09C15.2,204.62,0,170.68,0,133.19S15.2,61.76,39.76,37.19v.09h192v-.09c24.57,24.57,39.76,58.51,39.76,96Z"/>
              <path class="cls-31" d="M268.64,131.71c0,36.86-14.94,70.24-39.1,94.4-12.08,12.08-26.46,21.85-42.43,28.61-3.99,1.69-8.09,3.19-12.27,4.49v-4.17h-79.4v4.17c-4.18-1.3-8.27-2.8-12.27-4.49-15.97-6.76-30.35-16.53-42.43-28.61C16.58,201.95,1.63,168.57,1.63,131.71S16.58,61.47,40.74,37.31c1.51-1.51,3.06-2.98,4.64-4.42v4.4h179.53v-4.4c1.58,1.44,3.13,2.91,4.64,4.42,24.16,24.16,39.1,57.53,39.1,94.4h0Z"/>
              <path class="cls-13" d="M265.75,130.23c0,72.48-58.76,131.24-131.24,131.24S3.27,202.71,3.27,130.23c0-36.24,14.69-69.05,38.44-92.8,1.48-1.48,3-2.93,4.56-4.34v4.2h176.48v-4.2c1.55,1.41,3.07,2.86,4.56,4.34,23.75,23.75,38.44,56.56,38.44,92.8Z"/>
              <path class="cls-20" d="M262.86,128.74c0,71.23-57.74,128.98-128.98,128.98S4.91,199.98,4.91,128.74c0-35.62,14.44-67.86,37.78-91.2,1.46-1.46,2.95-2.88,4.48-4.27v4.01h173.44v-4.01c1.53,1.39,3.02,2.81,4.48,4.27,23.34,23.34,37.78,55.58,37.78,91.2h0Z"/>
              <path class="cls-22" d="M259.97,127.26c0,69.98-56.73,126.71-126.71,126.71S6.54,197.24,6.54,127.26c0-34.99,14.18-66.67,37.11-89.6,1.43-1.43,2.9-2.83,4.4-4.2v3.82h170.4v-3.82c1.5,1.36,2.97,2.76,4.4,4.2,22.93,22.93,37.11,54.61,37.11,89.6h0Z"/>
              <path class="cls-9" d="M257.08,125.78c0,68.73-55.72,124.45-124.45,124.45S8.18,194.51,8.18,125.78c0-34.37,13.93-65.48,36.45-88,1.41-1.41,2.85-2.78,4.32-4.12v3.63h167.35v-3.63c1.47,1.34,2.91,2.71,4.32,4.12,22.52,22.52,36.45,53.63,36.45,88h0Z"/>
              <path class="cls-15" d="M254.19,124.3c0,67.48-54.71,122.19-122.19,122.19S9.81,191.78,9.81,124.3c0-33.74,13.68-64.29,35.79-86.4,1.38-1.38,2.8-2.73,4.24-4.05v3.43h164.31v-3.43c1.45,1.32,2.86,2.66,4.24,4.05,22.11,22.11,35.79,52.66,35.79,86.4h0Z"/>
              <path class="cls-11" d="M251.3,122.82c0,66.23-53.69,119.92-119.92,119.92S11.45,189.05,11.45,122.82c0-33.12,13.42-63.1,35.12-84.8,1.36-1.36,2.74-2.68,4.16-3.97v3.24h161.27v-3.24c1.42,1.29,2.81,2.61,4.16,3.97,21.7,21.7,35.12,51.68,35.12,84.8Z"/>
              <path class="cls-17" d="M248.41,121.33c0,64.98-52.68,117.66-117.66,117.66S13.09,186.32,13.09,121.33c0-32.49,13.17-61.91,34.46-83.2,2.66-2.66,5.45-5.2,8.36-7.59v6.74h149.69v-6.74c2.91,2.4,5.69,4.93,8.36,7.59,21.29,21.29,34.46,50.71,34.46,83.2Z"/>
              <path class="cls-30" d="M245.52,119.85c0,63.73-51.67,115.4-115.4,115.4S14.72,183.58,14.72,119.85c0-31.87,12.92-60.72,33.8-81.6,2.61-2.61,5.34-5.1,8.2-7.45v6.48h146.81v-6.48c2.85,2.35,5.59,4.84,8.2,7.45,20.88,20.88,33.8,49.73,33.8,81.6h0Z"/>
              <path class="cls-27" d="M242.63,118.37c0,62.48-50.65,113.14-113.14,113.14S16.36,180.85,16.36,118.37c0-31.24,12.66-59.53,33.14-80,2.56-2.56,5.24-5,8.03-7.3v6.22h143.93v-6.22c2.79,2.31,5.47,4.74,8.03,7.3,20.47,20.47,33.14,48.76,33.14,80h0Z"/>
              <path class="cls-29" d="M239.74,116.89c0,61.23-49.64,110.87-110.87,110.87S17.99,178.12,17.99,116.89c0-30.62,12.41-58.34,32.47-78.4,2.51-2.51,5.14-4.9,7.87-7.16v5.95h141.05v-5.95c2.74,2.26,5.37,4.65,7.87,7.16,20.06,20.06,32.47,47.78,32.47,78.4Z"/>
              <path class="cls-19" d="M236.85,115.41c0,59.98-48.63,108.61-108.61,108.61S19.63,175.39,19.63,115.41c0-29.99,12.16-57.15,31.81-76.8,2.46-2.46,5.03-4.8,7.71-7.01v5.69h138.17v-5.69c2.68,2.21,5.26,4.55,7.71,7.01,19.66,19.66,31.81,46.81,31.81,76.8h0Z"/>
              <path class="cls-28" d="M233.96,113.92c0,58.73-47.61,106.35-106.35,106.35S21.26,172.66,21.26,113.92c0-29.37,11.9-55.95,31.15-75.2,2.41-2.41,4.93-4.7,7.55-6.86v5.42h135.29v-5.42c2.63,2.17,5.15,4.46,7.55,6.86,19.24,19.24,31.15,45.83,31.15,75.2h0Z"/>
              <path class="cls-10" d="M231.07,112.44c0,57.48-46.6,104.09-104.09,104.09S22.9,169.93,22.9,112.44c0-28.74,11.65-54.76,30.49-73.6,2.35-2.35,4.82-4.6,7.39-6.72v5.16h132.42v-5.16c2.57,2.12,5.04,4.36,7.39,6.72,18.84,18.84,30.49,44.86,30.49,73.6h0Z"/>
              <path class="cls-36" d="M228.18,110.96c0,56.23-45.59,101.82-101.82,101.82S24.54,167.19,24.54,110.96c0-28.12,11.4-53.57,29.82-72,2.3-2.3,4.72-4.5,7.23-6.57v4.9h129.54v-4.9c2.51,2.08,4.93,4.27,7.23,6.57,18.43,18.43,29.82,43.88,29.82,72h0Z"/>
              <path class="cls-38" d="M225.29,109.48c0,54.99-44.58,99.56-99.56,99.56S26.17,164.46,26.17,109.48c0-27.49,11.14-52.38,29.16-70.4,2.25-2.25,4.61-4.4,7.07-6.43v4.63h126.66v-4.63c2.46,2.03,4.82,4.17,7.07,6.43,18.02,18.02,29.16,42.91,29.16,70.4h0Z"/>
              <path class="cls-26" d="M222.4,108c0,53.74-43.56,97.3-97.3,97.3S27.81,161.73,27.81,108c0-26.87,10.89-51.19,28.5-68.8,2.2-2.2,4.51-4.3,6.91-6.28v4.37h123.78v-4.37c2.4,1.98,4.71,4.08,6.91,6.28,17.61,17.61,28.5,41.93,28.5,68.8h0Z"/>
              <path class="cls-7" d="M219.51,106.51c0,52.49-42.55,95.04-95.03,95.04S29.44,159,29.44,106.51c0-26.24,10.64-50,27.84-67.2,2.15-2.15,4.4-4.2,6.75-6.13v4.1h120.9v-4.1c2.35,1.94,4.6,3.98,6.75,6.13,17.2,17.2,27.84,40.96,27.84,67.2h0Z"/>
              <path class="cls-1" d="M216.62,105.03c0,51.24-41.54,92.77-92.77,92.77S31.08,156.27,31.08,105.03c0-25.62,10.38-48.81,27.17-65.6,2.1-2.1,4.3-4.1,6.59-5.99v3.84h118.02v-3.84c2.29,1.89,4.49,3.89,6.59,5.99,16.79,16.79,27.17,39.98,27.17,65.6h0Z"/>
              <path class="cls-2" d="M213.74,103.55c0,49.99-40.52,90.51-90.51,90.51s-90.51-40.52-90.51-90.51c0-24.99,10.13-47.62,26.51-64,2.05-2.05,4.19-4,6.43-5.84v3.58h115.15v-3.58c2.23,1.84,4.38,3.79,6.43,5.84,16.38,16.38,26.51,39.01,26.51,64h0Z"/>
              <path class="cls-37" d="M210.85,102.07c0,48.74-39.51,88.25-88.25,88.25s-88.25-39.51-88.25-88.25c0-24.37,9.88-46.43,25.85-62.4,2-2,4.09-3.9,6.27-5.7v3.31h112.27v-3.31c2.18,1.8,4.27,3.7,6.27,5.7,15.97,15.97,25.85,38.03,25.85,62.4Z"/>
              <path class="cls-25" d="M207.96,100.59c0,47.49-38.5,85.98-85.98,85.98s-85.98-38.5-85.98-85.98c0-23.74,9.62-45.24,25.18-60.8,1.95-1.95,3.98-3.8,6.11-5.55v3.05h109.39v-3.05c2.12,1.75,4.16,3.6,6.11,5.55,15.56,15.56,25.18,37.06,25.18,60.8h0Z"/>
              <path class="cls-18" d="M205.07,99.1c0,46.24-37.48,83.72-83.72,83.72s-83.72-37.48-83.72-83.72c0-23.12,9.37-44.05,24.52-59.2,1.89-1.89,3.88-3.7,5.95-5.4v2.78h106.51v-2.78c2.07,1.71,4.05,3.51,5.95,5.4,15.15,15.15,24.52,36.08,24.52,59.2h0Z"/>
              <path class="cls-4" d="M202.18,97.62c0,44.99-36.47,81.46-81.46,81.46s-81.46-36.47-81.46-81.46c0-22.49,9.12-42.86,23.86-57.6,1.84-1.84,3.77-3.6,5.78-5.26v2.52h103.63v-2.52c2.01,1.66,3.94,3.41,5.78,5.26,14.74,14.74,23.86,35.11,23.86,57.6h0Z"/>
              <path class="cls-4" d="M199.29,96.14c0,43.74-35.46,79.2-79.2,79.2s-79.2-35.46-79.2-79.2c0-21.87,8.86-41.67,23.2-56,3.58-3.58,7.51-6.82,11.72-9.67v6.82h88.56v-6.82c4.21,2.85,8.14,6.09,11.72,9.67,14.33,14.33,23.2,34.13,23.2,56Z"/>
              <path class="cls-23" d="M196.4,94.66c0,42.49-34.44,76.93-76.93,76.93s-76.93-34.44-76.93-76.93c0-21.24,8.61-40.48,22.53-54.4,3.48-3.48,7.29-6.63,11.39-9.39v6.42h86.03v-6.42c4.09,2.77,7.91,5.91,11.39,9.39,13.92,13.92,22.53,33.15,22.53,54.4h0Z"/>
              <path class="cls-3" d="M193.51,93.18c0,41.24-33.43,74.67-74.67,74.67s-74.67-33.43-74.67-74.67c0-20.62,8.36-39.29,21.87-52.8,3.38-3.38,7.08-6.43,11.05-9.12v6.03h83.5v-6.03c3.97,2.68,7.67,5.74,11.05,9.12,13.51,13.51,21.87,32.18,21.87,52.8h0Z"/>
              <path class="cls-5" d="M190.62,91.69c0,39.99-32.42,72.41-72.41,72.41s-72.41-32.42-72.41-72.41c0-19.99,8.1-38.1,21.21-51.2,3.28-3.28,6.86-6.24,10.72-8.84v5.63h80.97v-5.63c3.85,2.6,7.44,5.57,10.72,8.84,13.1,13.1,21.21,31.21,21.21,51.2h0Z"/>
              <path class="cls-5" d="M187.73,90.21c0,38.74-31.41,70.15-70.15,70.15s-70.15-31.41-70.15-70.15c0-19.37,7.85-36.91,20.54-49.6,3.17-3.17,6.65-6.04,10.38-8.57v5.24h78.44v-5.24c3.73,2.52,7.21,5.39,10.38,8.57,12.69,12.69,20.54,30.23,20.54,49.6h0Z"/>
              <path class="cls-35" d="M184.84,88.73c0,37.49-30.39,67.88-67.88,67.88s-67.88-30.39-67.88-67.88c0-18.74,7.6-35.72,19.88-48,3.07-3.07,6.43-5.85,10.05-8.29v4.84h75.91v-4.84c3.61,2.44,6.97,5.22,10.05,8.29,12.28,12.28,19.88,29.26,19.88,48h0Z"/>
              <path class="cls-6" d="M181.95,87.25c0,36.24-29.38,65.62-65.62,65.62s-65.62-29.38-65.62-65.62c0-18.12,7.34-34.53,19.22-46.4,2.97-2.97,6.22-5.65,9.71-8.01v4.45h73.38v-4.45c3.49,2.36,6.74,5.04,9.71,8.01,11.88,11.88,19.22,28.28,19.22,46.4h0Z"/>
              <path class="cls-6" d="M179.06,85.76c0,34.99-28.37,63.36-63.36,63.36s-63.36-28.37-63.36-63.36c0-17.49,7.09-33.34,18.56-44.8,2.87-2.87,6.01-5.46,9.38-7.74v4.06h70.85v-4.06c3.37,2.28,6.51,4.87,9.38,7.74,11.47,11.47,18.56,27.3,18.56,44.8h0Z"/>
              <path class="cls-6" d="M176.17,84.28c0,33.74-27.35,61.09-61.09,61.09s-61.09-27.35-61.09-61.09c0-16.87,6.84-32.14,17.89-43.2,2.76-2.76,5.79-5.26,9.04-7.46v3.66h68.32v-3.66c3.25,2.2,6.28,4.7,9.04,7.46,11.06,11.06,17.89,26.33,17.89,43.2h0Z"/>
              <path class="cls-32" d="M173.28,82.8c0,32.49-26.34,58.83-58.83,58.83s-58.83-26.34-58.83-58.83c0-16.25,6.59-30.95,17.23-41.6,2.66-2.66,5.58-5.07,8.71-7.18v3.27h65.79v-3.27c3.13,2.11,6.04,4.52,8.71,7.18,10.65,10.65,17.23,25.35,17.23,41.6Z"/>
              <path class="cls-32" d="M170.39,81.32c0,31.24-25.33,56.57-56.57,56.57s-56.57-25.33-56.57-56.57c0-15.62,6.33-29.76,16.57-40,2.56-2.56,5.36-4.87,8.37-6.91v2.87h63.26v-2.87c3.01,2.03,5.81,4.35,8.37,6.91,10.24,10.24,16.57,24.38,16.57,40Z"/>
              <path class="cls-39" d="M167.5,79.84c0,29.99-24.31,54.31-54.31,54.31s-54.31-24.31-54.31-54.31c0-15,6.08-28.57,15.91-38.4,2.46-2.46,5.15-4.68,8.04-6.63v2.48h60.73v-2.48c2.89,1.95,5.58,4.17,8.04,6.63,9.83,9.83,15.91,23.4,15.91,38.4h0Z"/>
              <path class="cls-14" d="M164.61,78.36c0,28.74-23.3,52.04-52.04,52.04s-52.04-23.3-52.04-52.04c0-14.37,5.83-27.38,15.24-36.8,4.71-4.71,10.32-8.52,16.54-11.15v6.88h40.52v-6.88c6.23,2.63,11.83,6.44,16.54,11.15,9.42,9.42,15.24,22.43,15.24,36.8h0Z"/>
              <path class="cls-14" d="M161.72,76.87c0,27.49-22.29,49.78-49.78,49.78s-49.78-22.29-49.78-49.78c0-13.75,5.57-26.19,14.58-35.2,4.5-4.5,9.87-8.15,15.82-10.67v6.28h38.75v-6.28c5.96,2.52,11.32,6.16,15.82,10.67,9.01,9.01,14.58,21.45,14.58,35.2h0Z"/>
              <path class="cls-14" d="M158.83,75.39c0,26.24-21.27,47.52-47.52,47.52s-47.52-21.27-47.52-47.52c0-13.12,5.32-25,13.92-33.6,4.3-4.3,9.42-7.78,15.1-10.18v5.68h36.99v-5.68c5.68,2.41,10.8,5.88,15.1,10.18,8.6,8.6,13.92,20.48,13.92,33.6h0Z"/>
              <path class="cls-14" d="M155.94,73.91c0,24.99-20.26,45.26-45.26,45.26s-45.26-20.26-45.26-45.26c0-12.5,5.07-23.81,13.26-32,4.09-4.09,8.97-7.41,14.39-9.7v5.07h35.23v-5.07c5.41,2.29,10.29,5.6,14.39,9.7,8.19,8.19,13.26,19.5,13.26,32Z"/>
              <path class="cls-14" d="M153.05,72.43c0,23.74-19.25,42.99-42.99,42.99s-42.99-19.25-42.99-42.99c0-11.87,4.81-22.62,12.59-30.4,3.89-3.89,8.52-7.04,13.67-9.21v4.47h33.47v-4.47c5.14,2.18,9.78,5.32,13.67,9.21,7.78,7.78,12.59,18.53,12.59,30.4h0Z"/>
              <path class="cls-14" d="M150.17,70.95c0,22.49-18.23,40.73-40.73,40.73s-40.73-18.23-40.73-40.73c0-11.25,4.56-21.43,11.93-28.8,3.68-3.68,8.07-6.67,12.95-8.73v3.87h31.71v-3.87c4.87,2.06,9.26,5.04,12.95,8.73,7.37,7.37,11.93,17.55,11.93,28.8h0Z"/>
              <circle class="cls-14" cx="108.81" cy="69.46" r="38.47"/>
              <circle class="cls-14" cx="108.18" cy="67.98" r="36.2"/>
              <circle class="cls-14" cx="107.56" cy="66.5" r="33.94"/>
              <circle class="cls-14" cx="106.93" cy="65.02" r="31.68"/>
              <circle class="cls-14" cx="106.3" cy="63.54" r="29.42"/>
              <circle class="cls-14" cx="105.67" cy="62.05" r="27.15"/>
              <circle class="cls-14" cx="105.05" cy="60.57" r="24.89"/>
              <circle class="cls-14" cx="104.42" cy="59.09" r="22.63"/>
              <circle class="cls-14" cx="103.79" cy="57.61" r="20.36"/>
              <circle class="cls-14" cx="103.17" cy="56.13" r="18.1"/>
              <circle class="cls-14" cx="102.54" cy="54.64" r="15.84"/>
              <circle class="cls-14" cx="101.91" cy="53.16" r="13.58"/>
              <circle class="cls-14" cx="101.29" cy="51.68" r="11.31"/>
              <circle class="cls-14" cx="100.66" cy="50.2" r="9.05"/>
              <circle class="cls-14" cx="100.03" cy="48.71" r="6.79"/>
              <circle class="cls-14" cx="99.41" cy="47.23" r="4.53"/>
              <circle class="cls-14" cx="98.78" cy="45.75" r="2.26"/>
            </g>
          </g>
          <g class="cls-12">
            <g>
              <rect class="cls-21" x="14.99" y="0" width="205.53" height="205.53"/>
              <circle class="cls-21" cx="117.75" cy="102.77" r="102.76"/>
              <circle class="cls-31" cx="116.89" cy="101.74" r="101.05"/>
              <circle class="cls-13" cx="116.02" cy="100.71" r="99.34"/>
              <circle class="cls-20" cx="115.16" cy="99.68" r="97.63"/>
              <circle class="cls-22" cx="114.29" cy="98.66" r="95.91"/>
              <circle class="cls-9" cx="113.42" cy="97.63" r="94.2"/>
              <circle class="cls-15" cx="112.56" cy="96.6" r="92.49"/>
              <circle class="cls-11" cx="111.69" cy="95.57" r="90.78"/>
              <circle class="cls-17" cx="110.83" cy="94.55" r="89.06"/>
              <circle class="cls-30" cx="109.96" cy="93.52" r="87.35"/>
              <circle class="cls-27" cx="109.1" cy="92.49" r="85.64"/>
              <circle class="cls-29" cx="108.23" cy="91.46" r="83.92"/>
              <circle class="cls-19" cx="107.36" cy="90.43" r="82.21"/>
              <circle class="cls-28" cx="106.5" cy="89.41" r="80.5"/>
              <circle class="cls-10" cx="105.63" cy="88.38" r="78.79"/>
              <circle class="cls-36" cx="104.77" cy="87.35" r="77.07"/>
              <circle class="cls-38" cx="103.9" cy="86.32" r="75.36"/>
              <circle class="cls-26" cx="103.03" cy="85.3" r="73.65"/>
              <circle class="cls-7" cx="102.17" cy="84.27" r="71.93"/>
              <circle class="cls-1" cx="101.3" cy="83.24" r="70.22"/>
              <circle class="cls-2" cx="100.44" cy="82.21" r="68.51"/>
              <circle class="cls-37" cx="99.57" cy="81.18" r="66.8"/>
              <circle class="cls-25" cx="98.7" cy="80.16" r="65.08"/>
              <circle class="cls-18" cx="97.84" cy="79.13" r="63.37"/>
              <circle class="cls-4" cx="96.97" cy="78.1" r="61.66"/>
              <circle class="cls-4" cx="96.11" cy="77.07" r="59.95"/>
              <circle class="cls-23" cx="95.24" cy="76.05" r="58.23"/>
              <circle class="cls-3" cx="94.38" cy="75.02" r="56.52"/>
              <circle class="cls-5" cx="93.51" cy="73.99" r="54.81"/>
              <circle class="cls-5" cx="92.64" cy="72.96" r="53.09"/>
              <circle class="cls-35" cx="91.78" cy="71.93" r="51.38"/>
              <circle class="cls-6" cx="90.91" cy="70.91" r="49.67"/>
              <circle class="cls-6" cx="90.05" cy="69.88" r="47.96"/>
              <circle class="cls-6" cx="89.18" cy="68.85" r="46.24"/>
              <circle class="cls-32" cx="88.31" cy="67.82" r="44.53"/>
              <circle class="cls-32" cx="87.45" cy="66.8" r="42.82"/>
              <circle class="cls-39" cx="86.58" cy="65.77" r="41.11"/>
              <circle class="cls-14" cx="85.72" cy="64.74" r="39.39"/>
              <circle class="cls-14" cx="84.85" cy="63.71" r="37.68"/>
              <circle class="cls-14" cx="83.98" cy="62.68" r="35.97"/>
              <circle class="cls-14" cx="83.12" cy="61.66" r="34.26"/>
              <circle class="cls-14" cx="82.25" cy="60.63" r="32.54"/>
              <circle class="cls-14" cx="81.39" cy="59.6" r="30.83"/>
              <circle class="cls-14" cx="80.52" cy="58.57" r="29.12"/>
              <circle class="cls-14" cx="79.65" cy="57.55" r="27.4"/>
              <circle class="cls-14" cx="78.79" cy="56.52" r="25.69"/>
              <circle class="cls-14" cx="77.92" cy="55.49" r="23.98"/>
              <circle class="cls-14" cx="77.06" cy="54.46" r="22.27"/>
              <circle class="cls-14" cx="76.19" cy="53.43" r="20.55"/>
              <circle class="cls-14" cx="75.33" cy="52.41" r="18.84"/>
              <circle class="cls-14" cx="74.46" cy="51.38" r="17.13"/>
              <circle class="cls-14" cx="73.59" cy="50.35" r="15.41"/>
              <circle class="cls-14" cx="72.73" cy="49.32" r="13.7"/>
              <circle class="cls-14" cx="71.86" cy="48.3" r="11.99"/>
              <circle class="cls-14" cx="71" cy="47.27" r="10.28"/>
              <circle class="cls-14" cx="70.13" cy="46.24" r="8.56"/>
              <circle class="cls-14" cx="69.26" cy="45.21" r="6.85"/>
              <circle class="cls-14" cx="68.4" cy="44.18" r="5.14"/>
              <circle class="cls-14" cx="67.53" cy="43.16" r="3.42"/>
              <circle class="cls-14" cx="66.67" cy="42.13" r="1.71"/>
            </g>
          </g>
          <path class="cls-33" d="M213.66,49.68c-.12.74.51,2.28.67,2.87.53,1.96,1.21,3.86,1.79,5.8.96,3.18-.42,6.3-.32,9.51.04,1.15.78,2.01,1.5,2.86,1.01,1.2,1.93,2.32,2.78,3.67.91,1.46,1.64,3.01,2.49,4.5,1.03,1.81,1.26,3.73,1.79,5.7.4,1.51.71,2.73.72,4.3.02,2.16.78,4.64,1.62,6.6.73,1.7,1.45,3.41,2.29,5.05,1.01,1.99,1.48,4.17,2.67,6.07.51.82,1.04,1.62,1.54,2.43.4.66.55,1.38,1.15,1.79,1.9,1.3,3.82,2.12,6.22,2.18.98.02,2.18.28,2.89-.46.48-.5.64-1.32.88-1.94.57-1.53,1.41-2.85,2.1-4.34.67-1.43,1.24-2.9,1.85-4.35.47-1.13.74-2.47,1.36-3.5.55-.92.92-1.81,1.17-2.85.26-1.09.74-2.27.87-3.36.7-5.72-4.52-9.53-7.3-13.8-.62-.96-1.5-1.74-2.38-2.47-1.16-.96-1.88-2.24-2.55-3.58-.48-.96-.68-1.63-.83-2.67-.32-2.26-1.96-2.86-3.63-4.1-.91-.67-1.48-1.47-2.19-2.35-.76-.95-1.7-1.71-2.45-2.66-.87-1.11-1.62-2.26-2.62-3.26-.67-.68-1.1-1.61-1.66-2.43-.46-.67-.97-1.33-1.61-1.87-.67-.56-1.28-.5-2.01-.78-.26-.1-.49-.32-.75-.44-.47-.2-1.14-.45-1.64-.57-.84-.19-1.6-.02-2.4-.29-.75-.25-1.36-.4-4.02-1.31h0Z"/>
          <path class="cls-33" d="M236.84,136.51c-.73-.98-1.84-1.49-2.99-1.97-.55-.23-2.03-.48-2.55-.15-.29.19-.56.96-.87,1.27-.44.44-.93.73-1.4,1.14-.51.43-.85.97-1.39,1.35-1.48,1.07-3.36,1.34-4.7,2.65-1.82,1.78-3.27,3.73-5.27,5.36-1.68,1.37-2.95,2.68-3.54,4.84-.41,1.5-.23,3.53,1.36,4.28,1.84.87,4.55,1.02,6.5.64,1.16-.22,1.32-.81,2.48-.31.74.32,1.44.78,2.16,1.14.63.32,2.12.67,2.69,1.21.3.29.52.9.73,1.27.48.85.89,1.67,1.31,2.56.64,1.36,1.57,2.54,2.21,3.89,1.28,2.7,2.83,5.38,5.58,6.8.95.49,1.93.96,2.9,1.41.69.32,1.43.53,2.16.75.34.1.97.46,1.29.45.66-.02,1.36-.63,1.85-1.04,1.11-.93,2.47-1.16,3.61-2.02.99-.73,2.37-1.99,2.9-3.09.07-.15.12-.67.19-.88.16-.44.26-.73.33-1.24.09-.64.02-1.19.04-1.82.03-.98.45-1.86.61-2.82.27-1.57,1.06-3.06,1.87-4.42.49-.82,1.02-1.69,1.37-2.58.31-.76.77-1.47.8-2.29.04-1.01.13-2.07-.33-3-.8-1.6-2.44-3.7-3.94-4.79-.66-.48-1.48-.79-2.21-1.18-1.75-.96-3.48-1.1-5.44-1.48-2.28-.44-4.5-1.96-6.34-3.33-.86-.64-1.47-1.11-2.43-1.53-1.73-.75-3.47-1.42-1.56-1.09h0Z"/>
          <path class="cls-33" d="M154.65,218.39c-.15.41-.44.79-.62,1.24-.66,1.63-1.14,3.3-2.24,4.69-.45.57-1.05,1.01-1.47,1.6-.51.72-.84,1.57-1.43,2.24-.94,1.06-2.39,1.56-3.48,2.45-1.16.95-3.73,1.98-4.08,3.53-.1.46.03,1.12.03,1.61,0,1.31-.03,2.66.3,3.93.33,1.3,1.11,2.68,2.16,3.48s1.91,1.94,2.99,2.69c.84.58,1.47,1.28,2.39,1.77,1.3.69,2.49,1.96,4,1.98,1.68.03,3.38.03,5.07,0,1.63-.02,3.15-.55,4.69-1.01,1.08-.32,2.12-.71,3.25-.83,1-.1,1.42-.53,2.23-1.15.99-.76,2-1.57,2.89-2.45.85-.82.79-1.26.91-2.31.06-.54.36-1,.32-1.54-.07-.89-.61-1.81-.99-2.61-.51-1.06-.97-2.34-1.78-3.19-.61-.65-1.38-1.2-2.07-1.78-.43-.37-.9-.69-1.27-1.12-.6-.68-.58-1.25-.73-2.08-.3-1.72-.31-3.23-1.17-4.81-.57-1.05-1.46-1.88-2.03-2.94-.45-.82-.64-1.74-1.04-2.59-.54-1.14-1.35-2.16-2.04-3.22-.6-.92-1.21-1.63-2.31-1.62-.76,0-1.28-.15-1.91.35-.59.46-1.05,1.04-.58,3.67h0Z"/>
          <path class="cls-33" d="M81.11,222.41l.18.28c-.36-.29-.77-.94-1.15-1.28-.82-.76-1.74-1.05-2.75-1.44-.67-.26-1.09-.74-1.83-.65-1.03.13-2.59.64-3.38,1.29-1.18.97-2.31,2.03-3.14,3.29-.39.58-.74.89-.93,1.58-.27,1.01-.36,2.06-.32,3.1.03.87.42,1.41.94,2.1.56.74,1.08,1.6,1.83,2.15.73.54,1.34.86,1.81,1.63.24.4.49.78.78,1.16.87,1.18,1.94,1.92,3.13,2.71,1.93,1.28,3.6,2.48,5.83,3.24,1.84.62,3.35,1.54,5.07,2.42,1.03.53,1.89,1.3,3.01,1.75,1.56.64,3.19,1.19,4.89,1.09,1.59-.1,3.99-.73,5.16-1.8.54-.49,1-1.09,1.53-1.59.83-.79,1.85-1.37,2.65-2.17.89-.9.64-2.12-.68-2.42-1.57-.36-3.11-.88-4.62-1.53-1.17-.51-1.87-1.41-2.9-2.12-.72-.5-1.53-.83-2.26-1.31-.65-.43-.98-.57-1.75-.65-.57-.06-.71-.25-1.2-.54-1.47-.87-2.97-1.55-4.12-2.92-1.04-1.23-.73-2.75-1.07-4.19-.4-1.68-1.32-2.63-4.71-3.17h0Z"/>
          <path class="cls-33" d="M20.24,170.5l.21.26c-1.18.42-2.75-.65-3.91-.89-.67-.14-1.33.18-1.91.46-.92.43-1.84.68-1.25,1.74.74,1.32,1.85,2.4,3.14,3.16,1.34.8,3.56.49,4.68,1.53.39.37.68,1.07,1.02,1.48.65.8,1.56,1.61,2.01,2.57.99,2.12,1.01,4.62,2.28,6.64.39.61.82,1.24,1.29,1.79.69.81,2.24.78,3.27.78,1.31,0,2.57.05,3.38-1.01.58-.76,1.21-1.89,2.19-2.15.95-.25,1.15.59,1.58,1.3,1.09,1.79,2.16,3.9,3.51,5.51,1.47,1.75,3.27,4.02,5.42,4.91,1.49.62,4.75.75,5.91-.56.88-1,.58-2.33.06-3.41-.23-.47-.56-.96-.73-1.42-.39-1.03-.31-1.95-.31-3.04,0-1.37.15-2.83,0-4.19-.11-.97-.64-1.47-1.48-1.85l-.1-.24c-.31-.12-.64-.14-.97-.06-1.03.02-2.06,0-3.09,0-1.08-.02-2.18-.03-3.25.15-.94.16-1.16.51-1.91.74-.82.26-1.73-.1-2.55.08-.52.11-.89.28-1.47.28-1.08,0-2.06-.25-3.11-.54-.78-.22-1.44-.66-2.25-.71-.94-.06-2.11.27-3.01.03-.68-.18-.78-1.11-1.02-1.72-.23-.59-.36-1.35-.51-1.99-.18-.78.26-1.44.33-2.17.06-.61-.12-1.27-.01-1.87.07-.42-.12-.44.29-.63.18-.08.85-.01,1.02,0,.81.09,1.58.51,2.38.43-.18-.14-.17-.24-.28-.42-.19-.32-.19-.23-.46-.47-.29-.25-.58-.35-.91-.46-1.45-.5-3.1-.3-4.63-.31-.78,0-1.77.06-2.48-.3-.37-.19-.57-.52-.84-.84-.57-.66-1.48-1.83-1.49-2.57h0Z"/>
          <path class="cls-33" d="M30.13,164.94l.25.22c-1.15.45-2.27,1.07-2.74,2.26-.2.52-.45,1.33-.2,1.84.47.94,2.3.93,3.07,1.55.2.16.3.44.49.61.53.48,1.2.61,1.88.78.98.25,1.53.52,2.36,1.06.45.29,1.24.55,1.58.95.15.17.18.49.32.63.47.49,2.42.47,3.14.25.24-.67.16-2.24-.18-2.83-.11-.18-.28-.2-.37-.4-.11-.25.06-.52,0-.77-.14-.49-.53-.53-.94-.74-.55-.28-.73-.69-1.21-1.09-.57-.46-1.15-.92-1.73-1.37-.56-.44-1.18-.65-1.85-.88-.36-.12-.7-.39-1.07-.48-.6-.15-1.37.1-2.8-1.6h0Z"/>
          <path class="cls-33" d="M74.31,193.05l.22.19c-.79-.4-1.75-.71-2.62-.81-.93-.1-3.21-.4-3.72.68-.28.6-.12,1.8.22,2.35.71,1.13,2.49,1.47,3.66,1.83,1.09.34,2.12.79,3.18,1.19.84.32,1.79.48,2.56.93,1.16.66,1.85,1.84,2.79,2.75.62.59.66.43,1,1.11.25.51.42,1.04.72,1.52,1.28,2.1,3.29,3.36,5.39,4.52,1.72.96,3.21,2.01,5.22,2,.84,0,1.54-.13,2.35-.26,1.59-.27,3.19-.05,4.8-.4,1.21-.26,2.32-.61,3.55-.6.34,0,.7.05,1.03.02,1.19-.11,1.17-.53,1.17-1.55,0-1.43.08-3.12-.98-4.23-1.28-1.35-3.41-.9-4.69-2.21-.24-.24-.31-.42-.47-.71-.48-.9-.86-1.33-1.85-1.8-1.02-.48-2.09-.85-3.08-1.4-.52-.28-.99-.68-1.5-.95-.64-.34-1.33-.4-1.93-.82-.34-.24-.62-.62-.98-.82-.57-.33-1.27-.33-1.89-.48-3.2-.78-6.13-2.44-9.34-3.23-1.41-.35-3,.05-4.36.23-.45.06-.9-.02-1.36.06-1.23.19-2.27.99.91.9h0Z"/>
          <path class="cls-33" d="M149.4,115.19l.2-.08c-.32-.35-.71-.22-1.13-.23-.78-.02-.62-.07-1.06.59-.38.56-.92,1.02-1.09,1.69-.14.56-.06,1.42-.03,1.97.1,1.76.71,3-.41,4.57-.61.86-1.02,1.86-1.74,2.65-.71.78-1.39,1.78-2.15,2.49-.5.46-1.32.72-1.92,1.03-.54.28-1.23.57-1.83.72-.6.16-1.28.13-1.84.43-.56.3-.91.74-1.28,1.27-.51.73-.74,1.56-1.17,2.32-.65,1.15-1.4,2.17-1.96,3.4-.61,1.35-1.19,2.6-2.13,3.76-.82,1.01-1.59,1.91-2.19,3.08-1.1-.05-1.72,1.62-2.64,2.09,1.86-1.12,3.81-2.08,5.73-3.1,1.87-1,2.44-2.9,3.75-4.46,1.52-1.8,4.2-2.27,6.39-2.25,1.6.02,2.99.66,4.24,1.68,1.31,1.07,2.91,2.17,3.41,3.81.35,1.16.53,2.2.53,3.41,0,.71-.09,1.49.03,2.18,1.36.43,2.86.1,3.45-1.22.3-.68.31-1.47.57-2.12.39-.96,2.24-1.92,2.99-2.51.54-.56,1.18-.96,1.92-1.18.33.04.57-.07.74-.32.32-.4.19-1.11.19-1.57,0-1.61.12-3.09-.38-4.66-.32-.67-.52-1.37-.58-2.1.07-.43.07-.86,0-1.28-.27-1.53-.94-2.7-.91-4.31.02-.98.21-2.18-.03-3.15-.49-1.99-2.21-3.14-3.06-4.91-.18-.37-.36-.69-.56-1.03-.58-.97-1.75-1.34-2.33-2.29-.11-.35-.28-.67-.49-.97-.19-.05-.38-.05-.57,0-.99-.35-2.1-.54-.67.6h0Z"/>
          <path class="cls-33" d="M140.13,119.51c-1.07-.15-1.91.42-2.76,1.02-1.53,1.09-2.69,2.04-3.15,3.88-.27,1.08-.53,3.47-1.48,4.08,1.85-.09,3.42.3,4.51-1.38.8-1.23,1.47-2.65,2.56-3.63.77-.69,1.36-1.67,1.54-2.72.2-1.15-.84-1.39-1.84-1.57"/>
          <path class="cls-33" d="M157.74,163.39c-.98-.14-2.15.42-2.94.94-.28.17-.55.37-.8.59-.54.39-1.12.71-1.74.97-.22.19-.7.49-.36.86.18.19,1.88.06,1.76.06,1.06-.02,2.56.07,3.55-.45.86-.46,1.4-1.52,1.77-2.34"/>
          <path class="cls-33" d="M110.46,74.09c-.48-.38-1.06-.55-1.54-.93.07,0-2.33-.94-2.27-.95-.97.41-1.82,1.17-2.59,1.86-1.06,1.05-2.15,2.08-3.27,3.07-1.49,1.18-2.95,2.38-4.39,3.62-1.59,1.45-2.73,3.05-3.93,4.83-.68,1.01-1.28,2.2-2.13,3.08-1.13,1.17-1.99,2.27-2.83,3.68-.76,1.29-1.95,2.25-2.44,3.71-.27.8-.2,1.5-.28,2.3-.09.88-.29,1.66-.3,2.56-.02,1.67.37,2.97,1.01,4.51,1.22,2.91,2.53,5.92,2.97,9.07.06.45.1.9.12,1.34.14.38.31.75.5,1.11.17.72,0,1.48.03,2.22.03.87.39,2.31.78,3.08.33.65.85.43,1.06.89.65.19,1.34.03,1.99-.07,1.69-.25,3.38-.49,5.08-.7,1.67-.21,4.14-.43,5.31-1.79,1.58-1.84,3.28-3.97,4.42-6.11.66-1.26,1.88-2.52,2.08-3.96.15-1.02,0-2.15,0-3.18.01-2.11-.16-4.18-.3-6.29-.08-1.24-.88-2.74-.63-3.95.16-.79.87-1.48,1.34-2.12.86-1.16,2.69-1.97,3.24-3.24.14-.33.05-.71.1-1.05.1-.82.53-1.64.8-2.41.52-1.45,1.15-2.85,1.65-4.3.36-1.04.39-2.1.28-3.21-.1-.95-.48-1.6-.84-2.46-.39-.97-.6-2.01-.95-2.99-.25-.69-.61-1.94-1.27-2.42-.66-.48-2.17,1.68-2.82,1.18h0Z"/>
          <path class="cls-33" d="M55.15,89.54l.23.02c-1.62-.15-3.24-.41-4.78-.95-1.21-.42-2.29-.91-3.59-.95-1.41-.03-2.83-.04-4.23.08-1.12.09-3.01.15-4.02.76-.89.53-1.65,1.56-2.33,2.33-1.07,1.2-1.57,2.1-1.67,3.65-.07,1.1,0,2.21-.01,3.32-.01,1.2-.15,2.4.1,3.59.25,1.21,1.06,2.79,2.14,3.55.28.2.87.34,1.21.47,1.18.46,2.19.36,3.32,1.09,1.29.83,2.55,1.52,4,2.07.96.36,2.22.57,2.88,1.45.81,1.08.24,1.8.6,2.98,1.01.17,2.11-.05,3.09-.26.76-.16,2.15-.26,2.73-.77.19-.17.13-.29.23-.41.84-.99,1.73-1.9,2.69-2.82,1.37-1.32,2.47-2.86,3.79-4.22.61-.63,1.27-1.15,1.78-1.86.63-.88,1.01-1.95,1.57-2.87.38-.62.82-1.19,1.11-1.85.26-.59.13-.78.26-1.29.08-.31.41-.57.3-.9-.24-.68-2.18-1.03-2.8-1.26-1.68-.62-3-1.51-4.61-2.21-1.34-.58-2.58-1.3-3.97-1.77-.74-.25-1.73-.72-2.51-.63,0,.09,0,.18,2.47-.34h0Z"/>
          <path class="cls-33" d="M70.6,112.1l.2.52c-.31.35-.49-.06-.81-.14-.4-.11-.92.09-1.28-.05-.51-.19-.57-.67-1.2-.65-.63.02-.52.07-.64.65-.16.75,0,1.72.02,2.5,0,.63.09.84.32,1.36.17.4.3.84.49,1.24.9,1.88,3.23.18,3.82-1.07.21-.44.68-1.55.66-2.04-.03-.46-.89-1.75-1.26-2.01"/>
          <path class="cls-33" d="M27.35,75.02v7.96c0,1.42-.08,2.86,0,4.28.02.35-.05.49.16.75.46.57,1.77.33,2.32.08,1.25-.59,1.86-1.88,2.25-3.12.29-.92.74-2.01.51-2.98-.21-.85-.92-1.46-1.53-2.04-.6-.56-1.33-1.08-1.7-1.82-.67-1.33-.66-3.53-2-3.11h0Z"/>
          <path class="cls-33" d="M137.97,4.63c-1.23,1.13-2.49,1.93-4.04,2.54-.84.33-1.36.72-2.23.76-3.75.2-7.21-1.39-10.97-.37-1.28.33-2.2,1.67-3.23,2.42-.74.53-2.71,1.12-2.6,2.27-1.74.65-3.15,2.04-4.91,2.74-1.22.48-2.95.49-4.3.29-.6-.09-1.99-.41-2.24-1.04-.33-.84.2-2.26.56-3,.53-1.08,1.47-1.9,2-2.97.5-1-.04-1.48-.25-2.48-.2-1.01.38-1.32.83-2.18.23-.45.23-.92.46-1.37.21-.39,2.71-1.56,3.43-1.97.01-.01.02-.01.03-.02,2.4-.17,4.82-.26,7.26-.26,6.62,0,13.1.63,19.36,1.83.17.02.33.06.49.09.66.17,1.17.48,1.29,1.01.19.89-.35,1.19-.92,1.7h0Z"/>
        </g>
      </g>
    </g>
  </g>
</svg>