<?xml version="1.0" encoding="UTF-8"?>
<svg xmlns="http://www.w3.org/2000/svg" xmlns:xlink="http://www.w3.org/1999/xlink" viewBox="0 0 276.6 247.04">
  <defs>
    <style>
      .cls-1 {
        fill: #d8bb92;
      }

      .cls-2 {
        fill: #e5d5b7;
      }

      .cls-3 {
        fill: #cca571;
      }

      .cls-4 {
        fill: #d5b68a;
      }

      .cls-5 {
        fill: #e4d2b4;
      }

      .cls-6 {
        fill: #cda775;
      }

      .cls-7 {
        fill: #d8bd94;
      }

      .cls-8 {
        fill: #dbc19a;
      }

      .cls-9 {
        fill: #d4b488;
      }

      .cls-10 {
        fill: #dac098;
      }

      .cls-11 {
        fill: #dec8a4;
      }

      .cls-12 {
        fill: #e2cfaf;
      }

      .cls-13 {
        fill: #e4d3b6;
      }

      .cls-14 {
        fill: #d0ac7b;
      }

      .cls-15 {
        fill: #e0cbaa;
      }

      .cls-16 {
        fill: none;
      }

      .cls-17 {
        fill: #e5d5b8;
      }

      .cls-18 {
        clip-path: url(#clippath-1);
      }

      .cls-19 {
        fill: #d6b88d;
      }

      .cls-20 {
        isolation: isolate;
      }

      .cls-21 {
        fill: #e2d0b0;
      }

      .cls-22 {
        fill: #e0ccab;
      }

      .cls-23 {
        fill: #421903;
      }

      .cls-24 {
        fill: #e1ceae;
      }

      .cls-25 {
        fill: #e4d4b6;
      }

      .cls-26 {
        fill: #dfcaa7;
      }

      .cls-27 {
        fill: #e1cdac;
      }

      .cls-28 {
        fill: #e1cdad;
      }

      .cls-29 {
        fill: #dcc5a0;
      }

      .cls-30 {
        fill: #af6e0e;
      }

      .cls-31 {
        mix-blend-mode: multiply;
      }

      .cls-32 {
        fill: #d1ae7f;
      }

      .cls-33 {
        fill: #e3d2b3;
      }

      .cls-34 {
        fill: #d2b082;
      }

      .cls-35 {
        fill: #dec7a3;
      }

      .cls-36 {
        fill: #ddc6a1;
      }

      .cls-37 {
        fill: #dcc39e;
      }

      .cls-38 {
        fill: #d9be96;
      }

      .cls-39 {
        fill: #e4d3b5;
      }

      .cls-40 {
        fill: #e3d1b3;
      }

      .cls-41 {
        fill: #e5d4b7;
      }

      .cls-42 {
        fill: #e0caa8;
      }

      .cls-43 {
        fill: #d7ba8f;
      }

      .cls-44 {
        fill: #e4d4b7;
      }

      .cls-45 {
        clip-path: url(#clippath);
      }

      .cls-46 {
        fill: #ceaa78;
      }

      .cls-47 {
        fill: #dfc9a6;
      }

      .cls-48 {
        fill: #d3b285;
      }

      .cls-49 {
        fill: #e3d1b2;
      }

      .cls-50 {
        fill: #e3d0b1;
      }

      .cls-51 {
        fill: #dbc29c;
      }
    </style>
    <clipPath id="clippath">
      <path class="cls-16" d="M220.88,50.7c.94,1.51,3.41-2.52,3.71-3.25.6-1.47,0-2.62,1.03-3.93,1.44-1.8,1.88-3.42,1.92-5.72.02-.92.35-1.69.47-2.59.14-1-.05-1.25,1.07-1.45.97-.17,2.1.03,3.09.02,1.11-.01.95-.02,1.71.41,2.32,1.3,5.21,1.19,7.47,2.49.43.25.9.47,1.35.73,1.49.85,2.42.98,3.97,1.23,1.4.23,2.6.91,4.08.95.9.02,1.94-.2,2.84-.06,1.1.17,1.6,1.16,2.52,1.85.96.72,2.22,1.31,3.07,2.17.24.25.35.68.61.91.29.26.9.33,1.17.63.53.58.66,1.53.91,2.24.22.64.44,1.28.79,1.86.38.65.46.61,1.15,1.08,1.48,1.01,3.06,1.7,4.57,2.54,1.27.71,2.22,1.52,3.24,2.58.43.45.62,1.06.98,1.53.47.61,1.14.88,1.57,1.51.73,1.05,1.46,2.75.52,3.78-1.1,1.21-1.84,1.84-2.31,3.5-.57,2,.1,3.06.86,4.99.54,1.38.46,2.63.84,4.02.38,1.37,1.04,2.62,1.42,4.01.57,2.07,1.04,4.07,1.01,6.27,0,.73.17,1.65.03,2.36-.19.97-1.23,1.46-1.72,2.37-.59,1.1-1.55,1.77-2.28,2.8-.52.74-.48,1.32-.49,2.16-.04,3.2-.31,6.72.78,9.79.22.62.68,1.13.9,1.74.39,1.09.5,3.02.57,4.19.18,3.06-.11,6.16-.03,9.23.03,1.14.43,2.21.48,3.35.05,1.23.09,2.24.31,3.45.35,1.89.82,3.63.17,5.45-.64,1.78-2.27,3.23-2.65,5.08-.28,1.35-.2,2.84-.42,4.23-.34,2.09.07,4.21-.28,6.31-.38,2.26-2.02,5.06-3.71,6.7-1.67,1.61-3.85,2.49-5.08,4.55-1.02,1.71-2.65,2.93-3.89,4.49-.66.83-.98,1.98-1.64,2.71-.55.61-1.54,1.21-2.17,1.76-.87.76-1.95,1.25-2.73,2.12-1.03,1.15-2.15,2-3.32,3.02-2.74,2.36-6.49,4.11-7.65,7.78-.63,1.99-.2,4-.99,6.05-.37.96-.63,2.13-1.38,2.85-.61.59-1.35,1.02-1.97,1.66-2.04,2.12-4.46,3.85-6.15,6.34-1.17,1.71-1.79,4.13-3.67,5.27-.57.34-1.29.44-1.78.93-.48.48-.76,1.23-1.18,1.78-2.08,2.67-4.24,5.29-6.3,7.96-1.63,2.11-3.27,3.86-5.41,5.46-1.86,1.39-3.6,2.06-5.84,2.65-1.18.31-2.42.77-3.64.88-1.93.18-3.68-.31-5.52.64-2.1,1.08-4.5.68-6.85.67-3.72-.03-7.42.71-11.07,1.35-1.97.34-3,.47-4.65,1.42-1.42.82-2.86,1.4-4.39,2-2.23.88-4.67,1.01-6.89,1.91-1.22.5-1.62.86-2.95.88-1.5.02-2.84.76-3.95,1.77-1.77,1.61-2.52,4-4.25,5.71-2.45,2.42-5.28,3.09-8.49,3.53-1.93.26-3.82.56-5.71,1.02-2.04.5-2.79.29-4.75.03-2.4-.32-5.06-.04-7.49-.04-2.08,0-4.87-.79-6,1.32-.71,1.32-2.51,2.04-3.96,2.26-1.14.17-2.51-.02-3.67-.02-1.28,0-2.5.05-3.76-.31-.95-.28-1.66-.85-2.55-1.26-1.15-.53-2.38-.65-3.61-.88-1.83-.34-3.69-.18-5.54-.46-1.34-.2-2.67-.46-4.01-.67-1.39-.22-3.72-.06-5.16-.51-1.94-.6-3.41-1.92-5.07-3.02-1.27-.83-2.7-1.18-3.99-1.85-1.2-.62-2.33-1.27-3.68-1.74-2.04-.71-3.85-1.77-5.47-3.09-1.16-.95-2.61-1.48-3.89-2.24-2.01-1.18-4.14-1.84-6.4-2.47-1.7-.47-3.15-1.27-3.47-3.19-.46-2.79-.69-4.97-3.49-6.36-1.25-.62-2.65-.72-3.43-1.97-.55-.88-.77-1.81-1.42-2.63-.27-.33-.65-.85-.98-1.11-.19-.14-.6-.04-.81-.17-.2-.12-.22-.57-.46-.71-.93-.52-2.27-.51-3.28-.85-1.71-.57-4.03-1.36-5.3-2.63-1.31-1.3.36-3.05.02-4.54-.33-1.4-1.56-1.86-2.58-2.68-.8-.64-1.2-1.41-1.75-2.23-.56-.84-1.1-1.62-1.98-2.22-1.21-.83-1.93-.95-2.57-2.31-.34-.72-.76-1.23-.91-1.99-.14-.71-.08-1.39-.31-2.12-.66-2.14-.65-4.64-2.45-6.17-1.06-.9-2.01-1.3-2.8-2.36-.94-1.26-2.16-2.23-3.17-3.43-.48-.57-.72-1.15-1.13-1.74-.5-.72-1.18-1.16-1.76-1.79-.83-.93-.54-.83-.85-1.69-.3-.87-.22-.84-1.11-1.35-2.91-1.66-6.55-2.06-9.12-4.33-.88-.78-.62-1.36-.96-2.39-.17-.5-.64-.9-.76-1.47-.34-1.52.44-3.17.87-4.57,1.05-3.45-.71-6-1.99-9.2-.78-1.97-1.47-3.68-1.58-5.85-.12-2.43-.02-4.89-.02-7.33,0-2.7-.51-6.03.32-8.59.49-1.51,1.6-3.54,2.57-4.88.63-.87,1.52-1.3,2.37-1.91,1.18-.83,2.4-1.7,3.64-2.41,1.06-.6,2.31-.84,3.41-1.38.9-.45,1.56-1.04,2.38-1.62.84-.58,1.63-.75,2.62-.98,1.64-.38,3.02-.71,4.59-1.33,1.45-.57,3.11-.83,4.45-1.63,1.31-.78,2.58-1.77,3.83-2.65.47-.33,1.78-1,1.87-1.62l188.69-57.4Z"/>
    </clipPath>
    <clipPath id="clippath-1">
      <circle class="cls-16" cx="134.48" cy="106.3" r="106.3"/>
    </clipPath>
  </defs>
  <g class="cls-20">
    <g id="Layer_2">
      <g id="Layer_1-2" data-name="Layer_1">
        <g class="cls-31">
          <g class="cls-45">
            <g>
              <rect class="cls-3" x="-.35" y="33.6" width="277.04" height="213.54"/>
              <path class="cls-3" d="M277.69,109.89v29.92h5.73c-1.98,9.66-4.89,18.99-8.65,27.87-7.51,17.76-18.38,33.76-31.82,47.19s-29.43,24.3-47.19,31.82c-4.44,1.88-8.99,3.55-13.64,4.99v-3.53h-88.29v3.53c-4.65-1.45-9.2-3.11-13.64-4.99-17.76-7.51-33.76-18.38-47.19-31.82-13.43-13.43-24.3-29.43-31.82-47.19-3.76-8.88-6.67-18.2-8.65-27.87H-1.35v-59.84h-6.11c1.98-9.66,4.89-18.99,8.65-27.87,3.76-8.88,8.35-17.32,13.69-25.22v5.71h246.21v-5.71c5.34,7.9,9.93,16.34,13.69,25.22,3.76,8.88,6.67,18.2,8.65,27.87h-5.73v29.92h0Z"/>
              <path class="cls-6" d="M283.53,107.94c0,80.84-65.53,146.37-146.37,146.37-40.42,0-77.01-16.38-103.5-42.87-13.24-13.24-23.96-29.01-31.37-46.52-3.7-8.76-6.58-17.95-8.53-27.47H-1.35v-59h-4.88c1.95-9.53,4.83-18.72,8.53-27.47,3.7-8.76,8.23-17.08,13.49-24.86v6.5h242.74v-6.5c5.26,7.79,9.79,16.11,13.49,24.86,7.41,17.51,11.5,36.76,11.5,56.97h0Z"/>
              <path class="cls-46" d="M280.63,105.98c0,79.68-64.59,144.28-144.28,144.28S-7.92,185.66-7.92,105.98c0-19.92,4.04-38.9,11.34-56.16,1.83-4.32,3.85-8.52,6.08-12.61,1.11-2.04,2.27-4.06,3.47-6.04v1.44h246.78v-1.44c1.21,1.98,2.36,4,3.47,6.04,2.22,4.09,4.25,8.3,6.08,12.61,7.3,17.26,11.34,36.24,11.34,56.16Z"/>
              <path class="cls-14" d="M277.73,104.02c0,78.53-63.66,142.18-142.18,142.18S-6.64,182.54-6.64,104.02c0-19.63,3.98-38.33,11.17-55.35,1.8-4.25,3.8-8.4,5.99-12.43,1.09-2.02,2.24-4,3.42-5.95v2.32h243.2v-2.32c1.19,1.95,2.33,3.94,3.42,5.95,2.19,4.03,4.19,8.18,5.99,12.43,7.2,17.01,11.17,35.71,11.17,55.34h0Z"/>
              <path class="cls-32" d="M274.82,102.06c0,77.37-62.72,140.09-140.09,140.09S-5.36,179.43-5.36,102.06c0-19.34,3.92-37.77,11.01-54.53,1.77-4.19,3.74-8.28,5.9-12.25,1.08-1.98,2.2-3.94,3.37-5.87v3.19h239.62v-3.19c1.17,1.93,2.29,3.88,3.37,5.87,2.16,3.97,4.13,8.06,5.9,12.25,7.09,16.76,11.01,35.19,11.01,54.53h0Z"/>
              <path class="cls-34" d="M271.92,100.1c0,76.22-61.79,138-138,138S-4.09,176.32-4.09,100.1c0-19.05,3.86-37.21,10.84-53.72,1.75-4.13,3.69-8.15,5.81-12.06,1.06-1.96,2.17-3.88,3.32-5.78v4.07h236.05v-4.07c1.15,1.9,2.26,3.82,3.32,5.78,2.12,3.91,4.07,7.94,5.81,12.06,6.98,16.51,10.84,34.66,10.84,53.72h0Z"/>
              <path class="cls-48" d="M269.02,98.14c0,75.06-60.85,135.91-135.91,135.91S-2.81,173.2-2.81,98.14c0-18.77,3.8-36.64,10.68-52.9,1.72-4.07,3.63-8.03,5.72-11.88,1.05-1.93,2.14-3.82,3.27-5.69v4.94h232.47v-4.94c1.14,1.87,2.23,3.77,3.27,5.69,2.09,3.85,4,7.82,5.72,11.88,6.88,16.26,10.68,34.14,10.68,52.9h0Z"/>
              <path class="cls-9" d="M266.11,96.18c0,73.91-59.91,133.82-133.82,133.82S-1.53,170.09-1.53,96.18c0-18.48,3.74-36.08,10.52-52.09,1.69-4,3.58-7.91,5.64-11.7v.21h235.34v-.21c2.06,3.79,3.94,7.7,5.64,11.7,6.77,16.01,10.52,33.61,10.52,52.09h0Z"/>
              <path class="cls-4" d="M263.21,94.22c0,72.75-58.98,131.73-131.73,131.73S-.25,166.97-.25,94.22c0-18.19,3.69-35.52,10.35-51.28,1.67-3.94,3.52-7.78,5.55-11.52v1.17h231.66v-1.17c2.03,3.73,3.88,7.58,5.55,11.52,6.67,15.76,10.35,33.09,10.35,51.28h0Z"/>
              <path class="cls-19" d="M260.31,92.26c0,71.6-58.04,129.64-129.64,129.64S1.03,163.86,1.03,92.26c0-17.9,3.63-34.95,10.19-50.46,1.64-3.88,3.46-7.66,5.46-11.33v2.14h227.98v-2.14c2,3.67,3.82,7.46,5.46,11.33,6.56,15.51,10.19,32.56,10.19,50.46h0Z"/>
              <path class="cls-43" d="M257.4,90.3c0,70.44-57.1,127.55-127.55,127.55S2.31,160.75,2.31,90.3c0-17.61,3.57-34.39,10.02-49.65,1.61-3.82,3.41-7.53,5.37-11.15v3.1h224.31v-3.1c1.96,3.61,3.76,7.34,5.37,11.15,6.45,15.26,10.02,32.04,10.02,49.65h0Z"/>
              <path class="cls-1" d="M254.5,88.34c0,69.29-56.17,125.46-125.46,125.46S3.59,157.63,3.59,88.34c0-17.32,3.51-33.82,9.86-48.83,1.59-3.75,3.35-7.41,5.28-10.97v4.06h220.63v-4.06c1.93,3.55,3.7,7.21,5.28,10.97,6.35,15.01,9.86,31.51,9.86,48.83h0Z"/>
              <path class="cls-7" d="M251.6,86.38c0,68.13-55.23,123.37-123.37,123.37S4.87,154.52,4.87,86.38c0-17.03,3.45-33.26,9.7-48.02,1.56-3.69,3.3-7.29,5.2-10.78v5.02h216.95v-5.02c1.9,3.5,3.63,7.09,5.2,10.78,6.24,14.76,9.7,30.99,9.7,48.02h0Z"/>
              <path class="cls-38" d="M248.7,84.43c0,66.98-54.3,121.28-121.28,121.28S6.14,151.4,6.14,84.43c0-16.74,3.39-32.7,9.53-47.21,1.53-3.63,3.24-7.16,5.11-10.6v5.98h213.27v-5.98c1.87,3.44,3.57,6.97,5.11,10.6,6.14,14.51,9.53,30.46,9.53,47.21h0Z"/>
              <path class="cls-10" d="M245.79,82.47c0,65.82-53.36,119.18-119.18,119.18S7.42,148.29,7.42,82.47c0-16.46,3.34-32.13,9.37-46.39,1.51-3.57,3.18-7.04,5.02-10.42v6.95h209.6v-6.95c1.84,3.38,3.51,6.85,5.02,10.42,6.03,14.26,9.37,29.94,9.37,46.39h0Z"/>
              <path class="cls-8" d="M242.89,80.51c0,64.67-52.42,117.09-117.09,117.09S8.7,145.18,8.7,80.51c0-16.17,3.28-31.57,9.2-45.58.74-1.75,1.52-3.48,2.34-5.19v2.86h211.09v-2.86c.82,1.71,1.6,3.44,2.34,5.19,5.92,14.01,9.2,29.41,9.2,45.58h0Z"/>
              <path class="cls-51" d="M239.99,78.55c0,63.51-51.49,115-115,115S9.98,142.06,9.98,78.55c0-15.88,3.22-31.01,9.04-44.76.73-1.72,1.5-3.42,2.3-5.09v3.91h207.32v-3.91c.81,1.68,1.58,3.37,2.3,5.09,5.82,13.76,9.04,28.89,9.04,44.76h0Z"/>
              <path class="cls-37" d="M237.08,76.59c0,62.36-50.55,112.91-112.91,112.91S11.26,138.95,11.26,76.59c0-15.59,3.16-30.44,8.87-43.95.71-1.69,1.47-3.36,2.26-5v4.97h203.55v-4.97c.79,1.65,1.55,3.31,2.26,5,5.71,13.51,8.87,28.36,8.87,43.95h0Z"/>
              <path class="cls-29" d="M234.18,74.63c0,61.2-49.62,110.82-110.82,110.82S12.54,135.83,12.54,74.63c0-15.3,3.1-29.88,8.71-43.14v1.11h204.22v-1.11c5.61,13.26,8.71,27.84,8.71,43.14h0Z"/>
              <path class="cls-36" d="M231.28,72.67c0,60.05-48.68,108.73-108.73,108.73S13.82,132.72,13.82,72.67c0-15.01,3.04-29.31,8.54-42.32v2.26h200.37v-2.26c5.5,13.01,8.54,27.31,8.54,42.32Z"/>
              <path class="cls-35" d="M228.37,70.71c0,58.9-47.74,106.64-106.64,106.64S15.1,129.61,15.1,70.71c0-14.72,2.98-28.75,8.38-41.51v3.4h196.52v-3.4c5.4,12.76,8.38,26.78,8.38,41.51h0Z"/>
              <path class="cls-11" d="M225.47,68.75c0,57.74-46.81,104.55-104.55,104.55S16.38,126.49,16.38,68.75c0-14.43,2.92-28.19,8.22-40.7v4.55h192.66v-4.55c5.29,12.51,8.22,26.26,8.22,40.7h0Z"/>
              <path class="cls-47" d="M222.57,66.79c0,56.59-45.87,102.46-102.46,102.46S17.66,123.38,17.66,66.79c0-14.15,2.87-27.62,8.05-39.88v5.69h188.81v-5.69c5.18,12.26,8.05,25.73,8.05,39.88h0Z"/>
              <path class="cls-26" d="M219.66,64.83c0,55.43-44.93,100.37-100.36,100.37S18.94,120.26,18.94,64.83c0-13.86,2.81-27.06,7.89-39.07v6.84h184.96v-6.84c5.08,12.01,7.89,25.21,7.89,39.07h0Z"/>
              <path class="cls-42" d="M216.76,62.87c0,54.28-44,98.28-98.28,98.28S20.21,117.15,20.21,62.87c0-6.78.69-13.41,2-19.81.66-3.2,1.47-6.34,2.42-9.42.48-1.54.99-3.06,1.54-4.57v3.52h184.62v-3.52c.55,1.51,1.07,3.03,1.54,4.57.96,3.08,1.77,6.22,2.42,9.42,1.31,6.4,2,13.02,2,19.81h0Z"/>
              <path class="cls-15" d="M213.86,60.92c0,53.12-43.06,96.18-96.18,96.18S21.49,114.04,21.49,60.92c0-6.64.67-13.12,1.95-19.38.64-3.13,1.43-6.21,2.37-9.22v.29h183.72v-.29c.94,3.01,1.73,6.09,2.37,9.22,1.28,6.26,1.95,12.74,1.95,19.38h0Z"/>
              <path class="cls-22" d="M210.95,58.96c0,51.97-42.13,94.09-94.09,94.09S22.77,110.92,22.77,58.96c0-6.5.66-12.84,1.91-18.96.63-3.06,1.4-6.07,2.32-9.02v1.63h179.73v-1.63c.92,2.95,1.69,5.96,2.32,9.02,1.25,6.12,1.91,12.47,1.91,18.96h0Z"/>
              <path class="cls-27" d="M208.05,57c0,50.81-41.19,92-92,92S24.05,107.81,24.05,57c0-6.35.64-12.55,1.87-18.54.61-2.99,1.37-5.94,2.27-8.82v2.97h175.73v-2.97c.9,2.88,1.65,5.82,2.27,8.82,1.23,5.99,1.87,12.19,1.87,18.54h0Z"/>
              <path class="cls-28" d="M205.15,55.04c0,49.66-40.25,89.91-89.91,89.91S25.33,104.69,25.33,55.04c0-6.21.63-12.27,1.83-18.12.6-2.93,1.34-5.8,2.22-8.62v4.3h171.74v-4.3c.88,2.82,1.62,5.69,2.22,8.62,1.2,5.85,1.83,11.91,1.83,18.12h0Z"/>
              <path class="cls-24" d="M202.25,53.08c0,48.5-39.32,87.82-87.82,87.82S26.61,101.58,26.61,53.08c0-6.06.61-11.98,1.78-17.7.59-2.86,1.31-5.67,2.16-8.42v5.64h167.74v-5.64c.85,2.75,1.58,5.56,2.16,8.42,1.17,5.72,1.78,11.64,1.78,17.7h0Z"/>
              <path class="cls-12" d="M199.34,51.12c0,47.35-38.38,85.73-85.73,85.73S27.88,98.47,27.88,51.12c0-5.92.6-11.7,1.74-17.28.57-2.79,1.28-5.53,2.11-8.22v6.98h163.75v-6.98c.84,2.68,1.54,5.42,2.11,8.22,1.14,5.58,1.74,11.36,1.74,17.28h0Z"/>
              <path class="cls-12" d="M196.44,49.16c0,46.19-37.45,83.64-83.64,83.64S29.16,95.35,29.16,49.16c0-5.77.59-11.41,1.7-16.86v.3h163.88v-.3c1.11,5.45,1.7,11.08,1.7,16.86h0Z"/>
              <path class="cls-21" d="M193.54,47.2c0,45.04-36.51,81.55-81.55,81.55S30.44,92.24,30.44,47.2c0-5.63.57-11.13,1.66-16.43v1.84h159.78v-1.84c1.09,5.31,1.66,10.8,1.66,16.43h0Z"/>
              <path class="cls-50" d="M190.63,45.24c0,43.88-35.57,79.46-79.46,79.46S31.72,89.12,31.72,45.24c0-5.48.56-10.84,1.61-16.01v3.38h155.68v-3.38c1.06,5.17,1.61,10.53,1.61,16.01h0Z"/>
              <path class="cls-49" d="M187.73,43.28c0,42.73-34.64,77.36-77.36,77.36S33,86.01,33,43.28c0-5.34.54-10.55,1.57-15.59v4.91h151.59v-4.91c1.03,5.04,1.57,10.25,1.57,15.59h0Z"/>
              <path class="cls-49" d="M184.83,41.32c0,41.57-33.7,75.27-75.27,75.27S34.28,82.9,34.28,41.32c0-5.2.53-10.27,1.53-15.17v6.45h147.49v-6.45c1,4.9,1.53,9.97,1.53,15.17Z"/>
              <path class="cls-40" d="M181.93,39.36c0,40.42-32.77,73.18-73.18,73.18S35.56,79.78,35.56,39.36c0-2.53.13-5.02.38-7.48v.72h145.61v-.72c.25,2.46.38,4.96.38,7.48h0Z"/>
              <path class="cls-33" d="M179.02,37.41c0,39.26-31.83,71.09-71.09,71.09S36.84,76.67,36.84,37.41c0-2.45.12-4.88.37-7.27v2.47h141.45v-2.47c.24,2.39.37,4.82.37,7.27h0Z"/>
              <path class="cls-5" d="M176.12,35.45c0,38.11-30.89,69-69,69S38.12,73.55,38.12,35.45c0-2.38.12-4.73.36-7.05v4.21h137.29v-4.21c.24,2.32.36,4.67.36,7.05h0Z"/>
              <path class="cls-5" d="M173.21,33.49c0,36.95-29.96,66.91-66.91,66.91S39.39,70.44,39.39,33.49c0-2.31.12-4.59.34-6.84v5.96h133.13v-5.96c.23,2.25.34,4.53.34,6.84h0Z"/>
              <path class="cls-39" d="M170.31,31.53c0,35.8-29.02,64.82-64.82,64.82S40.67,67.33,40.67,31.53v1.08h129.64v-1.08h0Z"/>
              <path class="cls-39" d="M167.41,29.57c0,34.64-28.08,62.73-62.73,62.73s-62.73-28.08-62.73-62.73v3.03h125.46v-3.03h0Z"/>
              <path class="cls-39" d="M164.51,27.61c0,33.49-27.15,60.64-60.64,60.64s-60.64-27.15-60.64-60.64v4.99h121.28v-4.99h0Z"/>
              <path class="cls-13" d="M161.6,25.65c0,32.33-26.21,58.55-58.55,58.55s-58.55-26.21-58.55-58.55v6.95h117.09v-6.95h0Z"/>
              <path class="cls-25" d="M158.7,32.6h-.29v-3.14c-.19,1.9-.48,3.77-.86,5.61-.75,3.67-1.86,7.22-3.29,10.6-2.86,6.75-6.99,12.84-12.1,17.95-10.22,10.22-24.33,16.53-39.92,16.53s-29.7-6.32-39.92-16.53c-5.11-5.11-9.24-11.19-12.1-17.95-1.43-3.38-2.54-6.92-3.29-10.6-.38-1.84-.66-3.71-.86-5.61v3.14h112.62Z"/>
              <path class="cls-25" d="M155.8,32.6h-.28v-5.31c-.19,1.83-.46,3.63-.82,5.4-.72,3.54-1.79,6.95-3.17,10.21-2.75,6.5-6.73,12.36-11.65,17.28-9.84,9.84-23.43,15.92-38.44,15.92s-28.6-6.09-38.44-15.92c-4.92-4.92-8.9-10.78-11.65-17.28-1.38-3.25-2.44-6.67-3.17-10.21-.36-1.77-.64-3.57-.82-5.4v5.31h108.45Z"/>
              <path class="cls-44" d="M152.89,32.6h-1.06v-2.3c-.7,3.4-1.72,6.68-3.05,9.81-2.65,6.25-6.47,11.89-11.2,16.62-9.46,9.46-22.53,15.31-36.96,15.31s-27.5-5.85-36.96-15.31c-4.73-4.73-8.56-10.36-11.2-16.62-1.32-3.13-2.35-6.41-3.05-9.81v2.3h103.49Z"/>
              <path class="cls-41" d="M149.99,32.6h-1.02v-4.68c-.67,3.27-1.65,6.42-2.92,9.42-2.54,6-6.21,11.41-10.76,15.95-9.08,9.08-21.63,14.7-35.48,14.7s-26.4-5.62-35.48-14.7c-4.54-4.54-8.22-9.95-10.76-15.95-1.27-3-2.26-6.15-2.92-9.42v4.68h99.35Z"/>
              <path class="cls-41" d="M147.09,32.6h-2.16v-2.45c-.47,1.51-1.01,2.98-1.62,4.42-2.43,5.75-5.96,10.93-10.31,15.29-8.7,8.7-20.73,14.09-34.01,14.09s-25.3-5.38-34.01-14.09c-4.35-4.35-7.87-9.53-10.31-15.29-.61-1.44-1.15-2.91-1.62-4.42v2.45h94.02,0Z"/>
              <path class="cls-41" d="M144.19,32.6h-3.61v-.8c-2.33,5.5-5.7,10.46-9.86,14.62-8.33,8.33-19.83,13.47-32.53,13.47s-24.2-5.15-32.53-13.47c-4.16-4.16-7.53-9.12-9.86-14.62v.8h88.39,0Z"/>
              <path class="cls-41" d="M141.28,32.6h-3.45v-3.58c-2.22,5.25-5.44,9.98-9.41,13.96-7.95,7.95-18.92,12.86-31.05,12.86s-23.1-4.91-31.05-12.86c-3.97-3.97-7.19-8.7-9.41-13.96v3.58h84.37,0Z"/>
              <path class="cls-2" d="M138.38,32.6h-3.29v-6.35c-2.12,5-5.18,9.51-8.96,13.29-7.57,7.57-18.02,12.25-29.57,12.25s-22-4.68-29.57-12.25c-3.78-3.78-6.85-8.29-8.96-13.29v6.35h80.35,0Z"/>
              <path class="cls-2" d="M135.47,32.6h-6.78v-2.37c-1.43,2.11-3.05,4.08-4.85,5.88-7.19,7.19-17.12,11.64-28.09,11.64s-20.9-4.45-28.09-11.64c-1.8-1.8-3.42-3.77-4.85-5.88v2.37h72.67,0Z"/>
              <path class="cls-17" d="M132.57,32.6h-6.43v-5.5c-1.35,2-2.89,3.87-4.6,5.57-6.81,6.81-16.22,11.02-26.61,11.02s-19.8-4.21-26.61-11.02c-1.7-1.7-3.24-3.57-4.6-5.57v5.5h68.85,0Z"/>
              <path class="cls-17" d="M129.67,32.6h-10.41v-3.37c-6.43,6.43-15.32,10.41-25.14,10.41s-18.7-3.98-25.14-10.41v3.37h60.68Z"/>
              <path class="cls-17" d="M126.77,32.6h-9.8v-6.81c-6.05,6.05-14.42,9.8-23.66,9.8s-17.6-3.74-23.66-9.8v6.81h57.11,0Z"/>
            </g>
          </g>
          <g>
            <path class="cls-30" d="M31.02,68.81c1.11.29,1.61-1.92,1.97-2.56.76-1.39,1.87-2.46,2.76-3.75.43-.62.49-1.02,1.31-.92,1.26.14,1.84,1.36,2,2.5.11.78-.07,1.51.37,2.21.4.65,1,.77,1.53,1.24,1.38,1.21.7,3.54.43,5.09-.07.37.04.79-.01,1.16-.07.53-.32.91-.25,1.49.16,1.25,1.14,2.2,1.37,3.44.49,2.63.35,5.33.35,8,0,1.29-.15,2.68-.02,3.96.1.95.81,1.58.91,2.5.24,2.29-.01,4.75-.02,7.06.06-1.87-.47-3.69-.57-5.54-.07-1.29-1.03-2.08-1.67-3.16-.42-.71-.79-1.48-1.31-2.12-.21-.26-.35-.35-.46-.68-.19-.58-.11-1.25-.32-1.86-.4-1.2-.35-2.45-.78-3.69-.35-1.02-1.01-1.79-1.36-2.81-.23-.65-.27-1.35-.46-2.03-.23-.84-.14-1.63-.31-2.44-.05-.27-.23-.47-.28-.73-.06-.35.15-.69-.03-1.03-.09-.17-.38-.41-.49-.55-.31-.42-.02-.27-.61-.74-.58-.46-1.03-.75-1.46-1.37-.38-.54-.39-.93-.63-1.52-.09-.24-.38-.42-.46-.62-.08-.21-.02-.42-.08-.63-.1-.33-.38-.72-1.41.12h0Z"/>
            <path class="cls-30" d="M39.1,54.68v.19c-.03-1.73.4-2.54,1.37-3.92.46-.65.69-1.45,1.16-2.08.33-.44.77-.76,1.06-1.23.47-.75.72-1.48,1.36-2.13.52-.53,2.01-1.12,2.78-.92.11.91.29,2.5,1.18,3.03.23.14.38.03.59.11.57.21.73.56,1.2.92.57.45.53.47.61,1.21.1.93.34,1.82.73,2.67.29.64.78,1.31.92,1.99.11.55.05,1.19.03,1.76-.02.69-.86,1.96-.5,2.51.53.83,3.16-.66,3.68-.94.86-.47,1.71-1.19,2.53-1.77-.71.25-1.16,1.17-1.63,1.71-.8.93-1.13,2-1.86,2.94-.93,1.2-.67,1.88-.49,3.35.12.93.5,1.82.6,2.74.1.87-.02,1.83-.02,2.71,0,.82-.21,1.93.1,2.71.3.74,1.22,1.49,1.91,1.79,1.49.65,3.03,1.32,4.55,1.93.92.38,1.52.68,2.2,1.37.39.39.1.42.8.79.76.39,1.64.62,2.45.83,1.35.35,2.96.84,4.35.86.79,0,1.45.02,2.23.23.52.14,1.18.3,1.61.6.6.41,1.01,1.54,1.12,2.3-.6.22-.97.64-1.29,1.19-.54.93-.72.76-1.73.93-1,.17-1.73.22-2.79.21-.74,0-2.13-.21-2.84.29-.49.35-.73,1.14-.87,1.77-.16.74-.02,1.83.22,2.53.17.49.43.6.66.89.15.19.34.37.49.64.24.45.31.6.35,1.1.07.79.26,1.51.52,2.26.19.53.44,1.64.93,1.96.93.61,2.4.36,3.47.38.48.01.81.03,1.28.17.75.27,1.5.55,2.25.84.52,0,.89.2,1.1.57.37,1.03-.14,2.7-.57,3.67-.62,1.39-.87,2.67-.87,4.2,0,.91-.07,1.44.72,2.02,1.38,1.01,3.73.11,5.33.42.67.13.85.16,1.23.55.38.38.88,1.37,1.1,1.87.85,1.93.62,3.97.35,5.99-.13.99.03,1.6-.86,2.22-.48.34-.97.53-1.18,1.14-.18.51-.01,1.12-.12,1.66-.11.59-.4,1.16-.18,1.77,1.58.3,2.91-.87,4.11-1.74.86-.62,1.98-.83,3.04-.5.66,1.79-2.93,2.46-2.89,4.26,0,.4.1.96.32,1.28.28.41.48.31.86.47.55.23,1.05.55,1.44,1,.78.9,1.84,1.8,2.01,3.04.07.5,0,1.01,0,1.51,0,.35.14,1.32.01,1.7-.66,1.94-3.8-1.96-4.84-1.76-.21.46.43,1.31.68,1.69.55.81,1.09,1.62,1.62,2.44.4.61,1.21,1.2,1.38,1.92.07.3-.04.7,0,1.02.08.66.4,1.29.5,1.95.12.79.06,1.59.06,2.39,0,.56.42,4.16-.49,4.44-.19-.2-.43-.24-.62-.44-.32-.33-.47-.72-.66-1.14-.57-1.23-.78-2.52-1.32-3.75-.51-1.17-.78-2.19-.99-3.44-.24-1.44-.77-2.39-2-3.05-.36-.19-.78-.43-1.11-.7-.5-.41-.76-1.02-1.25-1.47-.33-.3-.88-.5-1.07-.94-.08-.18,0-.51-.07-.7-.09-.3-.39-.55-.48-.85-.11-.4-.03-.74-.03-1.14,0-1.03-.44-1.7-.84-2.59-.35-.79-.33-1.62-.61-2.42-.13-.38-.37-.68-.52-1.05-.17-.4-.19-.99-.32-1.38-.42-1.36-1.54-2.3-2.16-3.57-.82-1.69-1.67-3.04-2.97-4.43-1.21-1.29-2.15-2.79-3.38-4.09-.6-.63-1.29-1.14-1.9-1.75-.23-.23-.37-.56-.61-.79-1.22-1.16-2.63-2.13-3.9-3.24-.58-.51-1.02-1.07-1.57-1.61-.61-.6-1.29-1.19-1.75-1.92-.37-.6-.78-1.14-1.2-1.7-1.01-1.35-1.37-2.89-2.11-4.4-.86-1.76-2.16-3.45-2.66-5.36-.38-1.45-1.12-2.69-1.74-4.04-.35-.76-.61-1.57-.89-2.35-.3-.85-.83-1.58-1.13-2.41-.71-1.94-1.06-4.05-1.79-6.01-.32-.87-.11-1.53-.3-2.41-.09-.42-.41-.71-.52-1.11-.07-.27.01-.54-.04-.8-.09-.44-.4-.77-.52-1.19-.1-.33-.02-.72-.12-1.04-.14-.44-.45-.83-.6-1.28-.58-1.7-1.02-3.33-1.87-4.92-.34-.64-.46-1.2-.68-1.85-.16-.48-.71-.94-.92-1.45-.16-.38-.3-.74-.48-1.11-.55-1.1-1.13-2.22-1.73-3.28-.45-.78-.95-1.51-1.56-2.18-.68-.74-.91-1.78-.17.7h0Z"/>
            <path class="cls-30" d="M155.96,1c-2.34-.06-2.05,2.76-2.02,4.47.02,1.13-.6,1.89-.58,3.02.01.54.12,1.24.02,1.77-.15.76-.78.7-1.4.97-1.55.69-2.97,2.88-2.21,4.54.65,1.43,2.47,2.24,3.47,3.42.99,1.15,1.32,1.72.57,3.16-.33.62-.84,1.29-.78,2.03.07.92.96.56,1.69.59,1.34.04,2.22-.65,3.45-1.13.65-.25,1.07-.45,1.7-.18,1.45.62,2.19,2.35,1.29,3.74-.51.79-1.88.63-2.06,1.6-.09.5.2.77.59,1.01.43.27.94.34,1.42.49.51.16,2.34.45,2.62.89.78,1.25-2.28,1.39-2.78,1.38-1.81-.03-4.21-1.03-5.71.37-.89.84-1.59,1.65-1.59,2.9,0,.72-.02,1.46,0,2.18.02.95.35,1.71.66,2.59.35.98.58,2.01.99,2.97.42,1,1.16,1.87,1.27,2.97.08.82.04,1.75-.3,2.5-.75,1.62-1.61,3.07-2.13,4.79-.12.41-.34.9-.19,1.36.29.91,2.59,1.44,3.37,1.56,2.39.36,4.92-.17,7.32.04.44,1.48,1.23,2.85,1.68,4.32.24.79.29,1.58.41,2.4.1.69.32,1.41.23,2.11-2.14,1.15-4.41.97-6.76.97-.66,0-1.25.06-1.87-.06-.45-.09-.08-.27-.91-.25-.81.02-3.83.32-2.17,1.61,1.3,1.01,3.47,1.05,4.51,2.46.72.97.03,2.49-.18,3.5-.42,2.06-.31,3.58-2.57,4.32-1.13.37-2.45.54-3.64.54-.85,0-1.51.18-2.31.43-1.06.33-2.22.48-3.2,1.01-.02.57-.12,1.4.18,1.9.54.93,2.17,1.31,3.11,1.67.55.22,1.3.61,1.81.75.74.2,2.14-.53,2.84-.73,1.44-.4,2.66-.71,4.17-.7,1.24,0,3.03-.03,4.06.72,2.31,1.71-1.82,3.19-3,3.68-1.1.46-2.64.64-3.59,1.35-.71.53-1.22,1.64-1.8,2.32-1.49,1.76-3.07,2.88-5.43,2.62-.48-.05-.87-.32-1.32-.46-.86-.26-1.29.21-1.97.93-1.4,1.49-.68,2.66.55,3.85.42.41,1.79,1.37,1.67,2.02-.05.27-.56.7-.76.87-.7.6-1.23.5-2.08.6-1.33.15-2.46.22-2.13,1.73.33,1.47,2.22,2.24,3.36,2.86,1.54.84,3.13,1.64,4.59,2.6.72.47,1.48.9,1.85,1.71.24.51.09.99.25,1.46.32.98,1.55,1.14,1.82,2.04.22.75.1,1.49.28,2.23.09.4.21.61.23,1.05.07,1.79-1.73,1.9-3.14,1.44-.72-.23-1.36-.81-2-1.2-.97-.6-1.96-1.13-3.04-1.51-.81-.28-1.22-.71-1.91-1.12-2.14-1.28-4.96-.63-7.04.35-.67.31-1.23.53-1.38,1.32-.08.42-.06,1.46.09,1.86.43,1.12,1.97,1.63,2.97,2.08.86.39,1.71.78,2.59,1.09.76.27,1.82.45,2.4,1.05.63.66,1,1.97.91,2.85-.15,1.42-.56,2.92-1.38,4.09-.3.42-.53.65-.94.94-.29.21-.88.83-1.21,1-.41.21-.77-.05-1.21.34-.42.37-.44.71-.45,1.21-.04,2.05-.67,4.11-2.35,5.42-.34.27-.87.78-1.31.88-.9.21-2.17-.4-3.01.02-.55.27-1.15,1.15-1.54,1.61-.79.92-1.57,1.86-2.28,2.85-.72,1-.59,1.29-.81,2.31-.09.45-.28.36-.09.87.4,1.03,1.45,1.2,2.41,1.29,1.48.14,2.98.52,4.46.58.51.02,1.24-.21,1.67.09.57.41.89,1.64,1.14,2.22,1.12,2.55,1.54,5.04.99,7.83-.18.9-.26,2.27-.66,3.11-.32.66-1.11.83-1.79.88-1.21.09-2.12.06-3.24.56-.71.32-1.41.69-2.14.95-1.82.64-3.07,1.7-4.67,2.79-1.71,1.17-3.82.93-5.76,1.23-.45.07-.88.27-1.32.36-.51.11-.64.04-1.09-.06-.75-.16-1.21.06-1.96.18-.66.11-1.6-.04-2.09.54-.73.85.73,1.27,1.46,1.51,2.17.73,4.43.38,6.65.87.66.15,1.2.17,1.45.84.25.68.14,1.9-.13,2.51-.26.58-.83,1.01-1.24,1.49-.5.59-.97,1.48-1.67,1.86-.6.32-2.11.43-2.6.54-.44.09-.97.34-1.41.28-.99-.15-2.22-1.09-3.13-1.49-1.47-.65-3.13-1.66-4.76-1.72-.68-.02-1.67-.11-2.29.08-.55,2.08,3.45,2.98,4.85,3.18.65,1.89-3.47,2.47-4.67,2.68-1.3.23-2.5.5-3.79.85-.48.13-1.23.45-1.75.45-.65,0-1.03-.29-1.62-.56-.92-.43-1.71-.85-2.59-1.31-.55-.29-1.16-.48-1.77-.61-.56-.12-1.66.04-2.26-.17-.53-.18-.54-.57-1.05-.47-.37.07-.86.8-1.04,1.12-.34.59-.23.85.35,1.24,1.8,1.2,3.97,1.46,5.95,2.19.67.25.56.38,1.06.88.45.46,1.04.72,1.52,1.13.83.71,1.53,1.73,2.55,2.12.92.35,1.9.33,2.84.58.52.14.97.3,1.55.25,1.56-.11,3.32-.71,4.79-1.2.92-.3,1.4-.58,2.39-.57,1.02.01,2.25-.2,3.2.17.35.14.59.32.95.39.49.1.98-.05,1.48.08.47.12-.6.24.67.3.6.03,1.28-.29,1.79-.55.83-.42,1.51-.9,2.08-1.62.8-1.02,1.2-2.19,1.58-3.43.39-1.27,1.46-2.37,1.47-3.72,0-.61-.06-.77.24-1.21.37-.53.9-1.23,1.39-1.66,1.19-1.05,2.94-1.58,4.35-2.28.77-.38,1.38-.69,1.74-1.42.56-1.13,1.37-2.11,2.03-3.2.69-1.14.95-2.37,1.16-3.66.18-1.09.19-2.57.73-3.55.25-.46.61-.85,1.01-1.19.53-.46.66-.59.98-1.19.46-.84,1.2-1.53,1.62-2.41.34-.72.6-1.68.82-2.46.26-.93.05-2.17.04-3.13-.01-1.14.25-2.25.26-3.39.01-1.25-.46-2.06-.84-3.17-.15-.46-.21-.97-.43-1.41-.2-.39-.42-.49-.47-.91-.1-.88.65-1.85,1.03-2.57.61-1.16,1.26-2.09,2.21-3,.65-.63.97-1.36,1.52-2.04.92-1.15,2.07-2.11,2.9-3.35.47-.71.66-1.48,1.09-2.19.38-.65.93-1.13,1.5-1.6.47-.39.88-.83,1.34-1.23.57-.51,1.34-1.2,2.01-1.59.74-.44,1.69-.6,2.48-1.01.85-.44,1.29-.98,1.97-1.61.73-.68,1.64-1.34,2.19-2.17.5-.75.18-1.47.34-2.3.35-1.8.85-3.39.63-5.26-.08-.66-.33-1.07-.6-1.66-.28-.63-.39-.84-.91-1.3-.78-.71-1.68-1.59-1.49-2.72.19-1.15,1.17-2.08,1.89-2.93.78-.93,1.81-2.72,1.91-4.01.15-1.93-1.97-2.3-2.88-3.7-.34-.51-.58-1.18-1.04-1.6s-.79-.45-1.09-1.06c-.68-1.36,1.18-1.9,1.9-2.77.73-.88,1.28-1.78,1.85-2.75.72-1.22,1.25-2.51,1.87-3.77.47-.95,1.67-2.28,1.38-3.42-.43-1.67-4.38-1.22-5.46-.92-.96.27-4.47,1.94-5.02.63-.28-.67.9-2.23,1.12-2.82.39-1.03.53-1.17,1.24-1.93.21-.22.29-.43.44-.69.48-.79,1.2-1.07,1.81-1.73.5-.55.91-1.26,1.28-1.9.34-.58,1.4-1.74,1.2-2.46-.27-.96-1.48-.34-2.18-.82.55-.84,1.82-.93,2.69-1.35.99-.48,2.24-1.24,3.1-1.96.66-.55,1.78-2.11,1.54-3.02-.11-.41-.48-.59-.59-1.03-.12-.45-.01-1.12-.01-1.56,0-.83-.26-2.38.16-3.08.27-.46.73-.77.99-1.27.48-.91.79-1.9,1.33-2.8.88-1.48,2.15-2.52,1.88-4.42-.16-1.14-1.83-1.63-2.83-2.04-1.38-.56-1.75-1.21-2.05-2.62-.16-.77-.4-1.49-.36-2.3.03-.51.1-.96.25-1.45.05-.16-.02-.42.06-.57.22-.44.99-.78,1.4-1,.51-.27.95-.3,1.45-.48.51-.17,1.01-.75,1.37-1.13.33-.35.44-.65.67-1.09.1-.2.35-.36.36-.61,0-.34-.59-.85-.77-1.08-.9-1.19-1.66-2.45-2.6-3.62-.34-.43-.72-.81-.77-1.38-.08-.93.65-1.05,1.13-1.74.77-1.12.84-2.9,1.01-4.2.13-1,.14-1.94.18-2.94.05-1,.65-1.82.85-2.79.13-.63,0-1.27.02-1.9.03-.78.3-1.49.31-2.28.03-2.19.72-4.37.94-6.56.1-1.01.62-2.98.16-3.96-.28-.59-1-.84-1.58-1.04-1.55-.53-3.13-.43-4.72-.65-1.57-.21-3.09-.22-4.67-.22-2.28,0-4.99.29-7.15-.29h0Z"/>
            <path class="cls-30" d="M204.07,107.49c.05-.32.13-.65.2-.96.1-.43.21-.87.27-1.3.02-.11.03-.22.04-.33,0-.09,0-.17,0-.27,0-.22-.02-.45.03-.67.03-.14.05-.29.11-.43.04-.09.1-.18.14-.27.05-.12.08-.24.12-.36.05-.14.13-.27.18-.42.04-.12.11-.24.12-.36,0-.12,0-.24.01-.35.02-.13.04-.28,0-.41-.05-.17-.11-.33-.16-.51-.03-.12-.06-.27-.12-.39-.07-.13-.19-.24-.3-.34-.07-.06-.14-.12-.21-.18-.17-.13-.35-.23-.55-.29-.16-.05-.33-.09-.49-.15-.17-.07-.33-.1-.51-.12-.76-.08-1.73.07-2.25.69-.61.72-.93,1.87-1.03,2.79-.08.7.15,1.49,0,2.19-.19.86-1.08,1.14-1.77,1.55-1.12.66-2.16,1.47-3.11,2.34-1,.91-1.73,1.46-2.19,2.8-.35,1.04-.8,1.87-1.32,2.84-.35.65-.59,1.27-.51,2.02.08.69.3,1.27.27,1.97-.04.82-.52,1.45-.62,2.22-.11.93.97,1.91,1.77,2.3.75.37,1.56.09,2.1.73.37.44.76.89,1.06,1.4.46.76,1.57,1.08,1.95,1.85.23.47.09,1.16.08,1.66-.03,2.16-1.21,3.14-3.16,3.9-.73.28-1.38.72-1.95,1.28-.66.67-1,1.61-1.65,2.3-.78.82-1.72,1.47-2.5,2.29-.87.93-2.27,1.72-3.41,2.28-.62.3-1.01.49-1.4,1.04-.15.21-.74.9-.68,1.18.11.5,1.71.5,1.93.51.98.06,2.27.11,3.09-.53.91-.72,2.06-1.4,3.28-1.46,1.48-.06,3.17-.17,4.63,0,.7.08.91.24.97.93.05.58-.02,1.66-.24,2.2-.36.85-1.95,1.45-2.7,2.04-1.58,1.24-3.04,2.62-4.63,3.85-1.13.87-1.99,1.62-3.42,1.69-.78.04-1.59.3-2.34.26-1.02-.06-2.11-.55-3.14-.23-.06.44-.12,1.18.02,1.59.17.5,1.09,1.41,1.41,1.76.41.46.94.76,1.37,1.18.68.67.41,1.18-.22,1.82-.64.64-1.3,1.26-1.93,1.9-1.26,1.27-2.92,2.04-4.44,2.94-1.53.91-2.92,2.17-4.48,3-.52.28-.99.34-1.52.68-1.18.75-2.33,1.55-3.5,2.3-1.54,1-3.21,2.09-4.89,2.83-1.06.47-2.26.69-3.36,1.04-1.4.45-3.16.8-3.91,2.16.63.26,2.33-.7,2.74-.86,2.09-.78,4.25-1.39,6.31-2.24,2.07-.85,4.21-1.44,6.28-2.27.92-.37,1.65-.84,2.44-1.41.28-.2.65-.54,1.07-.35.38.17.22.08.23.45-.19.38-.44.72-.74,1.03-.33.49-.6,1-.82,1.55-.84,1.59-1.88,2.77-3.65,3.37-1.09.37-2.36.46-3.39.99-.59.31-1.07.78-1.7,1.03-.53.21-1.12.35-1.66.55-.42.16-2,.73-2.17,1.09.58.1.86.11,1.41.4.8.42,1.64.59,2.49.89.57.17,1.12.4,1.64.67l.49.21c.14.27.06.53.06.84-.01.64.12.79-.31,1.36-.86,1.15-2.03,2.14-3.08,3.12-1.23,1.15-2.58,1.8-4.12,2.41-1.03.31-2.03.69-3.02,1.11-.41.12-.79.31-1.12.57-.66.14-1.45.02-2.13.02-1.3,0-2.61.01-3.92,0-.63,0-1.12-.09-1.66.28-1.13.76-1.78,2.33-2.46,3.44-1.01,1.64-2.3,2.93-3.37,4.51-.33.49-1.3,1.6-1.08,2.2,1.05-.02,2.07-.25,2.81-1.08.36-.4.58-1,.89-1.44.66-.94,1.16-1.9,2.31-2.29,2.09-.71,3.9-1.02,6.11-.99,1.97.02,3.95,0,5.92.03,1.35.02,3.6.01,4.71-.93l.05-.25c.39-.61.88-1.14,1.48-1.56.66-.59,1.31-1.15,1.88-1.82,1.06-1.25,1.49-2.79,2.66-3.96.63-.63,1.46-1.14,1.92-1.91.57-.96.89-1.49,1.78-2.28.56-.5,1.03-.95,1.51-1.53.93-1.14,1.83-1.4,3.2-1.9.93-.34,1.06-.39,1.17-1.29.07-.56.29.12.21-.88-.04-.46-.21-.9-.25-1.36-.11-1.3.31-2.93,1.18-3.92,2.12-2.4,5.02-3.94,7.25-6.2.84-.85,1.83-1.49,2.42-2.54.51-.92,1.11-1.71,1.57-2.66.68-1.4,1.82-2.89,1.47-4.54-.06-.29-.2-.39-.31-.64-.23-.54-.27-.75-.29-1.33-.03-.87.3-1.34.93-1.96.77-.75,1.4-1.6,2.17-2.35.51-.5,1.15-1,1.55-1.6.16-.25.18-.54.38-.78.5-.6,1.17-1.08,1.63-1.73.42-.6.68-1.35.92-2.03.4-1.11.71-2.09.48-3.3-.07-.35-.26-.58-.26-1.03,0-.77-.2-1.53-.36-2.29-.2-.94-.26-1.51-.01-2.45.28-1.04.83-1.62,1.4-2.53.47-.75.68-1.54.72-2.41.03-.53.09-1.08-.13-1.58-.24-.56-.63-.93-.84-1.51-.39-1.09-.11-1.53.68-2.38.62-.67.79-1.1,1.01-2,.2-.84-.04-1.2-.36-1.94-.67-1.54.03-2.11.94-3.37,1.42-1.98,1.79-4.05,1.87-6.38.02-.64.25-1.33.36-2h0Z"/>
            <g class="cls-18">
              <g>
                <rect class="cls-3" x="28.18" y="0" width="212.6" height="212.6"/>
                <circle class="cls-3" cx="133.9" cy="106.3" r="108.26"/>
                <circle class="cls-6" cx="133.24" cy="105.44" r="106.74"/>
                <circle class="cls-46" cx="132.58" cy="104.58" r="105.21"/>
                <circle class="cls-14" cx="131.93" cy="103.73" r="103.69"/>
                <circle class="cls-32" cx="131.27" cy="102.87" r="102.16"/>
                <circle class="cls-34" cx="130.62" cy="102.01" r="100.64"/>
                <circle class="cls-48" cx="129.96" cy="101.15" r="99.11"/>
                <circle class="cls-9" cx="129.31" cy="100.3" r="97.59"/>
                <circle class="cls-4" cx="128.65" cy="99.44" r="96.07"/>
                <circle class="cls-19" cx="127.99" cy="98.58" r="94.54"/>
                <circle class="cls-43" cx="127.34" cy="97.72" r="93.01"/>
                <circle class="cls-1" cx="126.68" cy="96.87" r="91.49"/>
                <circle class="cls-7" cx="126.02" cy="96.01" r="89.97"/>
                <circle class="cls-38" cx="125.37" cy="95.15" r="88.44"/>
                <circle class="cls-10" cx="124.71" cy="94.29" r="86.92"/>
                <circle class="cls-8" cx="124.06" cy="93.44" r="85.39"/>
                <circle class="cls-51" cx="123.4" cy="92.58" r="83.87"/>
                <circle class="cls-37" cx="122.75" cy="91.72" r="82.34"/>
                <circle class="cls-29" cx="122.09" cy="90.86" r="80.82"/>
                <circle class="cls-36" cx="121.43" cy="90.01" r="79.29"/>
                <circle class="cls-35" cx="120.78" cy="89.15" r="77.77"/>
                <circle class="cls-11" cx="120.12" cy="88.29" r="76.24"/>
                <circle class="cls-47" cx="119.46" cy="87.44" r="74.72"/>
                <circle class="cls-26" cx="118.81" cy="86.58" r="73.19"/>
                <circle class="cls-42" cx="118.15" cy="85.72" r="71.67"/>
                <circle class="cls-15" cx="117.5" cy="84.86" r="70.14"/>
                <circle class="cls-22" cx="116.84" cy="84.01" r="68.62"/>
                <circle class="cls-27" cx="116.18" cy="83.15" r="67.09"/>
                <circle class="cls-28" cx="115.53" cy="82.29" r="65.57"/>
                <circle class="cls-24" cx="114.87" cy="81.43" r="64.04"/>
                <circle class="cls-12" cx="114.22" cy="80.58" r="62.52"/>
                <circle class="cls-12" cx="113.56" cy="79.72" r="60.99"/>
                <circle class="cls-21" cx="112.9" cy="78.86" r="59.47"/>
                <circle class="cls-50" cx="112.25" cy="78" r="57.94"/>
                <circle class="cls-49" cx="111.59" cy="77.15" r="56.42"/>
                <circle class="cls-49" cx="110.94" cy="76.29" r="54.89"/>
                <circle class="cls-40" cx="110.28" cy="75.43" r="53.37"/>
                <circle class="cls-33" cx="109.62" cy="74.57" r="51.85"/>
                <circle class="cls-5" cx="108.97" cy="73.72" r="50.32"/>
                <circle class="cls-5" cx="108.31" cy="72.86" r="48.79"/>
                <circle class="cls-39" cx="107.66" cy="72" r="47.27"/>
                <circle class="cls-39" cx="107" cy="71.14" r="45.74"/>
                <circle class="cls-39" cx="106.34" cy="70.29" r="44.22"/>
                <circle class="cls-13" cx="105.69" cy="69.43" r="42.7"/>
                <circle class="cls-25" cx="105.03" cy="68.57" r="41.17"/>
                <circle class="cls-25" cx="104.38" cy="67.71" r="39.65"/>
                <circle class="cls-44" cx="103.72" cy="66.86" r="38.12"/>
                <circle class="cls-41" cx="103.06" cy="66" r="36.6"/>
                <circle class="cls-41" cx="102.41" cy="65.14" r="35.07"/>
                <circle class="cls-41" cx="101.75" cy="64.28" r="33.55"/>
                <circle class="cls-41" cx="101.09" cy="63.43" r="32.02"/>
                <circle class="cls-2" cx="100.44" cy="62.57" r="30.5"/>
                <circle class="cls-2" cx="99.78" cy="61.71" r="28.97"/>
                <circle class="cls-17" cx="99.13" cy="60.86" r="27.45"/>
                <circle class="cls-17" cx="98.47" cy="60" r="25.92"/>
                <circle class="cls-17" cx="97.82" cy="59.14" r="24.4"/>
                <circle class="cls-17" cx="97.16" cy="58.28" r="22.87"/>
                <circle class="cls-17" cx="96.5" cy="57.43" r="21.35"/>
                <circle class="cls-17" cx="95.85" cy="56.57" r="19.82"/>
                <circle class="cls-17" cx="95.19" cy="55.71" r="18.3"/>
                <circle class="cls-17" cx="94.53" cy="54.85" r="16.77"/>
                <circle class="cls-17" cx="93.88" cy="54" r="15.25"/>
                <circle class="cls-17" cx="93.22" cy="53.14" r="13.72"/>
                <circle class="cls-17" cx="92.57" cy="52.28" r="12.2"/>
                <circle class="cls-17" cx="91.91" cy="51.42" r="10.67"/>
                <circle class="cls-17" cx="91.26" cy="50.57" r="9.15"/>
                <circle class="cls-17" cx="90.6" cy="49.71" r="7.62"/>
                <circle class="cls-17" cx="89.94" cy="48.85" r="6.1"/>
                <circle class="cls-17" cx="89.29" cy="47.99" r="4.58"/>
                <circle class="cls-17" cx="88.63" cy="47.14" r="3.05"/>
                <circle class="cls-17" cx="87.97" cy="46.28" r="1.53"/>
              </g>
            </g>
          </g>
          <path class="cls-23" d="M29.57,159.54l-.02.27c-.74.09-1.91-.63-2.59-.9-.64-.25-1.05-.29-1.72-.28-1.68.03-3.14-.11-4.74.43-.42.14-.78.18-1.22.24-.53.16-1.06.24-1.62.25-.25-.03-.5-.03-.75,0-.65.42-.13,2.53.22,3.01.49.69,1.36.85,2.13.97.26.88,1.63,1.13,2.37,1.38,1.45.49,3.21.63,4.47,1.49,1.38.94,2.62,2.18,4.27,2.67,1.13.34,2.32.37,3.42.68.97.27,3.22.13,3.36-1.01.21-1.72-.77-2.45-1.82-3.62-.44-.49-.59-1.04-.8-1.65-.34-1-.75-1.43-1.57-2.06-.83-.64-1.9-1.19-2.85-1.64-.66-.31-1.27-.8-1.91-1.08-.36-.16-.68-.15,1.37.86h0Z"/>
          <path class="cls-23" d="M123.61,207.01h.2c-1.25.01-2.37-.07-3.55.39-.81.31-1.6.45-2.47.6-1.14.18-2.12.25-3.28.23-.82-.02-1.56-.27-2.38-.3-1.19-.05-2.62.28-3.62.88-.59.35-2.45,1.21-2.16,2.15.15.48.78.58,1.05,1,.26.41.33,1.07.43,1.55.12.59.18,1.18-.05,1.75-.3.74-.71.97-.79,1.72-.13,1.2.2,1.64,1.2,2.13,1.41.7,2.55-.03,3.94-.46.5-.16,1.01-.23,1.49-.46.15-.07.27-.28.45-.3.75-.07,1.69.64,2.35.93.94.4,1.93.66,2.94.84.95.17,1.5.53,2.39.82,1.79.58,3.54.54,5.35.81.64.1,1.21.23,1.86.24.6.01,1.66.19,2.24.01.4-.12.86-.68,1.2-.95.65-.51,1.25-.89,1.44-1.73.27-1.19,0-2.3-.57-3.33-.3-.56-.25-1.01-.35-1.62-.12-.79-.43-1.45-.83-2.12-.77-1.3-1.76-2.39-3.04-3.21-.95-.61-2.21-.65-3.31-.66-.87,0-1.46.02-2.29.3-.65.22-1.22.44-1.9.25-.02-.08-.03-.17,2.06-1.46h0Z"/>
          <path class="cls-23" d="M204.35,184.03h.2c-1.36.04-2.7.17-3.57,1.43-.89,1.29-.89,2.93-1.1,4.4-.11.79-.3,2.25.22,2.96.63.87,1.74,1.15,2.77,1.35.57.11,1.2.27,1.78.13,1.04-.25,2.65-1.31,3.37-2.11,1.28-1.41,2.06-3.51,1.56-5.36-.24-.89-1.18-2.25-2.04-2.72-.96-.53-2.16-.38-3.21-.38"/>
          <path class="cls-23" d="M211.3,67.61c-.4-.39-1.74-.58-2.31-.61-1.85-.09-3.8-.09-5.64,0-.78.03-1.48.27-2.23.47-.89.23-1.8.29-2.69.45-.96.17-2.51.7-3.05,1.52-.9,1.37-.42,3.01.35,4.25.72,1.17,1.36,1.6,2.54,2.31,1.43.86,3.07,1.12,4.53,1.88,1.72.88,2.97,1.89,4.4,3.12,1.5,1.28,3.23,3.39,5.27,3.58,2.31.22,3.45-2.3,3.41-4.26-.06-3.04-1.3-6.01-1.25-9.05.02-1.05.13-1.61-.78-2.29-.77-.57-1.61-.77-2.55-1.35h0Z"/>
          <path class="cls-23" d="M120.59,21.96c-.03,1.09-2.24-.67-2.38-.75-.64-.4-1.2-.88-1.87-1.22s-1.28-.57-1.89-.99c-1.88-1.31-4.63-2.77-6.96-2.79-1.27-.01-2.7-.22-3.84.29-.93.42-1.92.58-2.83,1.07-1.02.55-1.94,1.22-2.98,1.75-1.42.74-3.13,1.53-3.92,2.98-.69,1.27-1.67,2.8-2.92,3.64-.36.24-.54.16-.67.54-.02.06-.02.89,0,.95.17.38.25.19.59.34,1.11.48,2.44.54,3.64.57.86.02,2.04.15,2.88-.01.41-.08.76-.21,1.2-.29,2.33-.39,3.8.48,5.97,1.12,1.59.47,3.38.89,5.04.99,1.97.11,3.83-1.36,5.61-2.07.98-.39,1.27-.72,2-1.29.48-.38,1-.59,1.53-.9.71-.41,1.29-.67,2.09-.94.69-.22,2.43-.27,2.81-.87-.6-.89-1.61-1.6-2.48-2.23-.41-.3-.71-.49-1.07-.85-.39-.4-.74-.88.44.97h0Z"/>
          <path class="cls-23" d="M116.35,44.33h.21c-.7-.05-1.22.32-1.82.62-.77.39-1.57.29-2.33.76-.86.53-1.6.77-2.52,1.18-.6.27-1.12.7-1.69,1.05-.79.48-1.52,1.03-2.39,1.39-.74.3-.92.54-1.39,1.17-.61.82-.93,1.71-1.21,2.72-.1.35-.38,1.33-.17,1.71.41.74,3.24.58,3.95.61,1.9.08,3.75-.27,5.62-.56,1.05-.16,1.87-.38,2.94-.37.73,0,2.01.27,2.62-.14.77-.52.77-2.4.85-3.2.13-1.22-.09-2.3-.32-3.49-.1-.51-.24-1.33-.7-1.6-.27-.16-.97-.13-1.29-.21-.67-.17-1.16-.37-.36-1.63h0Z"/>
          <path class="cls-23" d="M125.12,96.04l.02.18c-1.89-1.63-5.32-4.48-7.84-2.63-1.38,1.01-2.07,2.82-3.97,2.76-1.1-.04-2.27-.27-3.35-.46-.71-.13-1.85-.59-2.65-.48-.21.98-.09,2.32-.08,3.27.02,1.24,0,2.36.67,3.45.71,1.17,1.64,1.61,1.77,3.02.14,1.45.54,2.84.79,4.27.39,2.16.43,4.12.42,6.31,0,1.08-.38,2.39.6,3,.62.38,1.48.44,2.21.33,2.62-.41,2.62-4.66,3.16-6.72.24-.93.5-1.3,1.2-1.92.52-.46.93-.93,1.4-1.44.84-.91,1.83-1.1,2.83-1.76.85-.56,1.67-1.23,2.19-2.08.91-1.49,2.52-2.45,3.55-3.83.73-.99,2.47-3.2,1.45-4.49-.16-.21-.47-.26-.67-.46-.21-.21-.35-.48-.6-.7-.5-.42-.87-.6-3.1.38h0Z"/>
        </g>
      </g>
    </g>
  </g>
</svg>