<?xml version="1.0" encoding="UTF-8"?>
<svg xmlns="http://www.w3.org/2000/svg" xmlns:xlink="http://www.w3.org/1999/xlink" viewBox="0 0 276.63 252.05">
  <defs>
    <style>
      .cls-1 {
        fill: #f1e3e6;
      }

      .cls-2 {
        fill: #efdee2;
      }

      .cls-3 {
        fill: #ffbdce;
      }

      .cls-4 {
        fill: #c98f9d;
      }

      .cls-5 {
        fill: #d2a3ae;
      }

      .cls-6 {
        fill: #e4c7ce;
      }

      .cls-7 {
        fill: #dcb6bf;
      }

      .cls-8 {
        fill: #d9b1bb;
      }

      .cls-9 {
        fill: #f9f2f3;
      }

      .cls-10 {
        fill: #f1e1e5;
      }

      .cls-11 {
        fill: #f2e4e7;
      }

      .cls-12 {
        fill: #ead3d9;
      }

      .cls-13 {
        fill: #fefcfd;
      }

      .cls-14 {
        fill: #e2c2ca;
      }

      .cls-15 {
        fill: #f6ecef;
      }

      .cls-16 {
        fill: #fcf9fa;
      }

      .cls-17 {
        fill: #fdfbfc;
      }

      .cls-18 {
        fill: #eedde1;
      }

      .cls-19 {
        fill: #e0bec6;
      }

      .cls-20 {
        fill: #faf5f7;
      }

      .cls-21 {
        fill: #fbf6f7;
      }

      .cls-22 {
        fill: #e5c9d0;
      }

      .cls-23 {
        fill: #d7adb7;
      }

      .cls-24 {
        fill: #fdfafb;
      }

      .cls-25 {
        fill: #f6edef;
      }

      .cls-26 {
        fill: #ead4da;
      }

      .cls-27 {
        fill: #ce99a6;
      }

      .cls-28 {
        fill: #fff;
      }

      .cls-29 {
        fill: #ddb9c2;
      }

      .cls-30 {
        fill: #f1e2e6;
      }

      .cls-31 {
        fill: #f9f2f4;
      }

      .cls-32 {
        fill: #d1a0ac;
      }

      .cls-33 {
        fill: none;
      }

      .cls-34 {
        fill: #f0dfe3;
      }

      .cls-35 {
        fill: #e1c1c9;
      }

      .cls-36 {
        opacity: .8;
      }

      .cls-36, .cls-37 {
        mix-blend-mode: multiply;
      }

      .cls-38 {
        fill: #f4e7ea;
      }

      .cls-39 {
        fill: #dcb7c0;
      }

      .cls-40 {
        fill: #fff69f;
      }

      .cls-41 {
        fill: #d7acb6;
      }

      .cls-42 {
        fill: #e6ccd2;
      }

      .cls-43 {
        fill: #f8f1f3;
      }

      .cls-44 {
        clip-path: url(#clippath-1);
      }

      .cls-45 {
        fill: #f2e5e8;
      }

      .cls-46 {
        fill: #ecd8dd;
      }

      .cls-47 {
        fill: #f5eaed;
      }

      .cls-48 {
        isolation: isolate;
      }

      .cls-49 {
        fill: #e8cfd5;
      }

      .cls-50 {
        fill: #f0e0e3;
      }

      .cls-51 {
        fill: #eddade;
      }

      .cls-52 {
        fill: #f9f3f4;
      }

      .cls-53 {
        fill: #d9b0ba;
      }

      .cls-54 {
        fill: #fcf8f9;
      }

      .cls-55 {
        fill: #f5eaec;
      }

      .cls-56 {
        fill: #cc96a3;
      }

      .cls-57 {
        fill: #fffefe;
      }

      .cls-58 {
        fill: #cb94a1;
      }

      .cls-59 {
        fill: #e7cdd3;
      }

      .cls-60 {
        clip-path: url(#clippath-3);
      }

      .cls-61 {
        fill: #f7eef0;
      }

      .cls-62 {
        fill: #fefcfc;
      }

      .cls-63 {
        fill: #f5ebee;
      }

      .cls-64 {
        fill: #f8f1f2;
      }

      .cls-65 {
        fill: #eedce0;
      }

      .cls-66 {
        fill: #f6ecee;
      }

      .cls-67 {
        fill: #fffeff;
      }

      .cls-68 {
        fill: #d5a9b3;
      }

      .cls-69 {
        fill: #debbc4;
      }

      .cls-70 {
        fill: #f9f3f5;
      }

      .cls-71 {
        fill: #fefdfd;
      }

      .cls-72 {
        fill: #d4a5b0;
      }

      .cls-73 {
        fill: #cf9ca9;
      }

      .cls-74 {
        fill: #cb92a0;
      }

      .cls-75 {
        fill: #dbb4bd;
      }

      .cls-76 {
        fill: #c0f3ff;
      }

      .cls-77 {
        fill: #f4e9eb;
      }

      .cls-78 {
        fill: #f5ebed;
      }

      .cls-79 {
        fill: #debbc3;
      }

      .cls-80 {
        fill: #e2c4cb;
      }

      .cls-81 {
        fill: #f7edf0;
      }

      .cls-82 {
        fill: #fbf7f8;
      }

      .cls-83 {
        fill: #fcfafa;
      }

      .cls-84 {
        fill: #eedbe0;
      }

      .cls-85 {
        fill: #f7eef1;
      }

      .cls-86 {
        fill: #e3c5cc;
      }

      .cls-87 {
        fill: #cd98a5;
      }

      .cls-88 {
        fill: #d8aeb8;
      }

      .cls-89 {
        clip-path: url(#clippath-2);
      }

      .cls-90 {
        fill: #fefdfe;
      }

      .cls-91 {
        fill: #fefefe;
      }

      .cls-92 {
        fill: #e6cbd2;
      }

      .cls-93 {
        fill: #e1c0c8;
      }

      .cls-94 {
        fill: #faf5f6;
      }

      .cls-95 {
        fill: #ebd6db;
      }

      .cls-96 {
        fill: #fdfcfc;
      }

      .cls-97 {
        fill: #f2e4e8;
      }

      .cls-98 {
        fill: #f8f0f2;
      }

      .cls-99 {
        fill: #d4a6b1;
      }

      .cls-100 {
        clip-path: url(#clippath);
      }

      .cls-101 {
        fill: #e9d1d7;
      }

      .cls-102 {
        fill: #f7eff1;
      }

      .cls-103 {
        fill: #f4e8eb;
      }

      .cls-104 {
        fill: #d2a1ad;
      }

      .cls-105 {
        fill: #fdfbfb;
      }

      .cls-106 {
        fill: #d09da9;
      }

      .cls-107 {
        fill: #d5a9b4;
      }

      .cls-108 {
        fill: #ead3d8;
      }

      .cls-109 {
        fill: #f3e6e9;
      }

      .cls-110 {
        fill: #faf4f5;
      }

      .cls-111 {
        fill: #fdfafa;
      }
    </style>
    <clipPath id="clippath">
      <path class="cls-33" d="M220.56,59.04c-.07.28-.08.55-.03.83,1.42.76,4.06-1.03,4.97-1.5,2.47-1.27,5.01-2.66,7.39-4.12.79-.48,1.25-1.48,2.06-1.8.53-.21,1.97.03,2.43.09,1.65.19,4.33.38,5.78,1.25.57.34.54.68.91.91.76.48,1.32.29,2.15.47.81.18,1.86.86,2.71,1.15.73.25,1.41.59,2.14.86,1.39.52,3.24,1.06,4.41,2.04,1.26,1.06,1.64,2.41,1.93,3.93.25,1.33.92,2.54,1.14,3.87.28,1.66.23,3.11.83,4.73.28.77.6,1.75,1.09,2.42.49.66,1.12,1.05,1.57,1.77,1.08,1.73,1.43,4.25,1.41,6.24-.02,1.49.03,2.98,0,4.47-.02,1.21-.15,1.53-.8,2.58-.44.72-.98,2.13-.47,2.99.31.53,1.64,1.11,2,1.28,1.03.5,1.78.9,2.72,1.53,1.36.91,2.74,1.51,4.06,2.5,2.2,1.64,3.12,4,4.22,6.5.66,1.5.93,2.66.96,4.3-.08,1.26-.05,2.52.08,3.78.12.54.25,1.08.41,1.62-.05,1.03-.79,1.65-1.19,2.52-.34.73-.36,1.55-.67,2.31-.5,1.21-1.42,2.09-2.09,3.2-.48.8-.57,1.74-1.03,2.52-.29.49-.65.67-.8,1.25-.13.48.03,1.24.03,1.75,0,2.18-.08,4.26.34,6.4.24,1.21.09,2.35.41,3.58.63,2.34.68,4.66.58,7.1-.06,1.43-.46,2.81-.48,4.25-.01.75.08,1.31-.05,2.03-.21,1.15-.61,2.24-.79,3.4-.17,1.07-.76,1.62-1.24,2.57-1.78,3.53-1.76,7.74-4,11.06-.53.78-.9,1.26-1.72,1.66l-.77.04c-.88.18-1.65.56-2.33,1.14-1.02.95-2.02,2.27-2.79,3.4-.82,1.21-1.51,2.17-1.6,3.59-.12,1.72-.45,3.25-.44,5.03,0,1.35.27,3.03-.07,4.36-.84,3.33-4.35,4.4-6.5,6.66l-.84,1.01c-.32.42-.74.65-1.26.67-.7.46-1.1,1.04-1.92,1.23-2.03.47-4.41-.37-6.48-.04-.67.11-.62-.19-.91.41-.26.53.03,2.09.13,2.62.42,2.24.62,4.79.36,7.07-.09.83-.15.64-.77,1.27-.63.65-1.12,1.26-1.7,1.98-.45.55-.96,1.11-1.45,1.62-.59.63-1.23,1.2-1.94,1.7-.4.39-.79.8-1.17,1.22-.65.41-1.52.52-2.2.92-.55.35-1.07.74-1.55,1.16-.93.22-1.87.32-2.83.29-3.57.4-6.86.01-10.45-.09-.56,1.22-.95,2.64-1.95,3.58-1.08,1.02-2.35,1.81-3.35,2.95-.98,1.13-1.89,1.94-3.09,2.85-1.06.8-1.88,2.43-2.29,3.71-.41,1.28-.22,2.52-.26,3.83-.03.98-.41,3.19-1.08,4.05-.82,1.05-3.22.95-4.42,1.3-.92.27-1.79.67-2.71.93-1.72.49-3.43.33-5.19.49-1.34.12-2.56.64-3.89.77-1.11.11-2.18-.07-3.29.1-1.44.22-3.1.47-4.35,1.2-1.79,1.03-3.58,2.18-5.14,3.55-1.92,1.69-3.35,2.4-5.81,2.96-4.54,1.02-9.46.64-14.09.55-1.95-.04-3.78-.48-5.72-.46-1.46.01-3.34-.28-4.77.08-1.78.45-3.47,1.37-5.24,1.89-1.13.33-2.03.16-3.03.67-1.34.69-2.72.44-4.32.44-1.8,0-3.33-.11-5.12-.33-1.38-.17-2.28-.22-3.49-1-2.49-1.62-4.68-3.35-7.46-4.54-1.78-.77-3.56-1.7-5.39-2.35-1.93-.69-4.04-.53-6.06-.53-1.57,0-3.14.01-4.71.01-.13,0-1.1-.1-1.35-.02-.67.23-.57.51-1.01,1.1-1.69,2.29-4.78,1.98-7.22,1.98-1.76,0-3.3.02-5.01-.32-2.29-.45-4.71-.8-7.04-.96-2.54-.18-5.03.02-7.57-.34-1.74-.24-2.97-.42-4.38-1.42-.9-.64-1.86-1.55-2.56-2.43-.58-.73-.9-1.67-1.08-2.59-.44-2.17-.27-3.9-1.32-5.99-.63-1.26-.72-2.58-1.94-3.48-1.03-.76-2.23-1.33-3.51-1.3-1,.03-2,.02-3,.02-1.94,0-4.31.37-6.19-.04-.12-.66.08-1.32-.04-1.98-.07-.41-.22-1.59-.48-1.86-.47-.48-1.34.14-1.65.41-1.11.98-1.84,2.27-3.02,3.25-1.32,1.09-1.68.54-2.9-.54-2.32-2.04-4.24-4.68-6.37-6.94-1.14-1.21-2.47-1.96-3.87-2.81-.72-.44-1.48-.78-2.26-1.09s-3.37-.67-4.34-1.29c-1.19-.76-.82-2.57-.87-3.75-.07-1.5-.48-2.89-.46-4.42.02-1.5.23-3.01-.37-4.42-.47-1.1-1.3-1.95-1.84-2.99-.67-1.3-1.12-2.04-2.21-3.1-1.29-1.26-2.8-2.47-3.68-4.07-.52-.95-.93-2.01-1.42-2.99-.72-1.44-1.25-2.96-1.43-4.54-.12-1.07.06-2.19-.05-3.28-.18-1.75-.85-3.15-1.65-4.69-1.19-2.3-2-4.74-2.88-7.16-.83-2.26-1.97-4.57-2.52-6.89-.66-2.77-.82-5.54-.78-8.4.05-3.76.88-7.5.91-11.26,0-.73-.1-1.47.01-2.19.08-.5.26-.89.41-1.37.44-1.4.39-2.84.7-4.27.37-1.71,1.31-2.94,2.14-4.46.49-.9.56-1.77.92-2.68.62-1.58,1.57-3.07,3.33-3.03,1.12.03,2.24-.02,3.36-.01,2.4,0,4.7.67,7.08.88,1.99.17,4.07.09,6.06.04.9-.02,1.84-.6,2.68-.45L220.56,59.04Z"/>
    </clipPath>
    <clipPath id="clippath-1">
      <path class="cls-33" d="M220.56,59.04c-.07.28-.08.55-.03.83,1.42.76,4.06-1.03,4.97-1.5,2.47-1.27,5.01-2.66,7.39-4.12.79-.48,1.25-1.48,2.06-1.8.53-.21,1.97.03,2.43.09,1.65.19,4.33.38,5.78,1.25.57.34.54.68.91.91.76.48,1.32.29,2.15.47.81.18,1.86.86,2.71,1.15.73.25,1.41.59,2.14.86,1.39.52,3.24,1.06,4.41,2.04,1.26,1.06,1.64,2.41,1.93,3.93.25,1.33.92,2.54,1.14,3.87.28,1.66.23,3.11.83,4.73.28.77.6,1.75,1.09,2.42.49.66,1.12,1.05,1.57,1.77,1.08,1.73,1.43,4.25,1.41,6.24-.02,1.49.03,2.98,0,4.47-.02,1.21-.15,1.53-.8,2.58-.44.72-.98,2.13-.47,2.99.31.53,1.64,1.11,2,1.28,1.03.5,1.78.9,2.72,1.53,1.36.91,2.74,1.51,4.06,2.5,2.2,1.64,3.12,4,4.22,6.5.66,1.5.93,2.66.96,4.3-.08,1.26-.05,2.52.08,3.78.12.54.25,1.08.41,1.62-.05,1.03-.79,1.65-1.19,2.52-.34.73-.36,1.55-.67,2.31-.5,1.21-1.42,2.09-2.09,3.2-.48.8-.57,1.74-1.03,2.52-.29.49-.65.67-.8,1.25-.13.48.03,1.24.03,1.75,0,2.18-.08,4.26.34,6.4.24,1.21.09,2.35.41,3.58.63,2.34.68,4.66.58,7.1-.06,1.43-.46,2.81-.48,4.25-.01.75.08,1.31-.05,2.03-.21,1.15-.61,2.24-.79,3.4-.17,1.07-.76,1.62-1.24,2.57-1.78,3.53-1.76,7.74-4,11.06-.53.78-.9,1.26-1.72,1.66l-.77.04c-.88.18-1.65.56-2.33,1.14-1.02.95-2.02,2.27-2.79,3.4-.82,1.21-1.51,2.17-1.6,3.59-.12,1.72-.45,3.25-.44,5.03,0,1.35.27,3.03-.07,4.36-.84,3.33-4.35,4.4-6.5,6.66l-.84,1.01c-.32.42-.74.65-1.26.67-.7.46-1.1,1.04-1.92,1.23-2.03.47-4.41-.37-6.48-.04-.67.11-.62-.19-.91.41-.26.53.03,2.09.13,2.62.42,2.24.62,4.79.36,7.07-.09.83-.15.64-.77,1.27-.63.65-1.12,1.26-1.7,1.98-.45.55-.96,1.11-1.45,1.62-.59.63-1.23,1.2-1.94,1.7-.4.39-.79.8-1.17,1.22-.65.41-1.52.52-2.2.92-.55.35-1.07.74-1.55,1.16-.93.22-1.87.32-2.83.29-3.57.4-6.86.01-10.45-.09-.56,1.22-.95,2.64-1.95,3.58-1.08,1.02-2.35,1.81-3.35,2.95-.98,1.13-1.89,1.94-3.09,2.85-1.06.8-1.88,2.43-2.29,3.71-.41,1.28-.22,2.52-.26,3.83-.03.98-.41,3.19-1.08,4.05-.82,1.05-3.22.95-4.42,1.3-.92.27-1.79.67-2.71.93-1.72.49-3.43.33-5.19.49-1.34.12-2.56.64-3.89.77-1.11.11-2.18-.07-3.29.1-1.44.22-3.1.47-4.35,1.2-1.79,1.03-3.58,2.18-5.14,3.55-1.92,1.69-3.35,2.4-5.81,2.96-4.54,1.02-9.46.64-14.09.55-1.95-.04-3.78-.48-5.72-.46-1.46.01-3.34-.28-4.77.08-1.78.45-3.47,1.37-5.24,1.89-1.13.33-2.03.16-3.03.67-1.34.69-2.72.44-4.32.44-1.8,0-3.33-.11-5.12-.33-1.38-.17-2.28-.22-3.49-1-2.49-1.62-4.68-3.35-7.46-4.54-1.78-.77-3.56-1.7-5.39-2.35-1.93-.69-4.04-.53-6.06-.53-1.57,0-3.14.01-4.71.01-.13,0-1.1-.1-1.35-.02-.67.23-.57.51-1.01,1.1-1.69,2.29-4.78,1.98-7.22,1.98-1.76,0-3.3.02-5.01-.32-2.29-.45-4.71-.8-7.04-.96-2.54-.18-5.03.02-7.57-.34-1.74-.24-2.97-.42-4.38-1.42-.9-.64-1.86-1.55-2.56-2.43-.58-.73-.9-1.67-1.08-2.59-.44-2.17-.27-3.9-1.32-5.99-.63-1.26-.72-2.58-1.94-3.48-1.03-.76-2.23-1.33-3.51-1.3-1,.03-2,.02-3,.02-1.94,0-4.31.37-6.19-.04-.12-.66.08-1.32-.04-1.98-.07-.41-.22-1.59-.48-1.86-.47-.48-1.34.14-1.65.41-1.11.98-1.84,2.27-3.02,3.25-1.32,1.09-1.68.54-2.9-.54-2.32-2.04-4.24-4.68-6.37-6.94-1.14-1.21-2.47-1.96-3.87-2.81-.72-.44-1.48-.78-2.26-1.09s-3.37-.67-4.34-1.29c-1.19-.76-.82-2.57-.87-3.75-.07-1.5-.48-2.89-.46-4.42.02-1.5.23-3.01-.37-4.42-.47-1.1-1.3-1.95-1.84-2.99-.67-1.3-1.12-2.04-2.21-3.1-1.29-1.26-2.8-2.47-3.68-4.07-.52-.95-.93-2.01-1.42-2.99-.72-1.44-1.25-2.96-1.43-4.54-.12-1.07.06-2.19-.05-3.28-.18-1.75-.85-3.15-1.65-4.69-1.19-2.3-2-4.74-2.88-7.16-.83-2.26-1.97-4.57-2.52-6.89-.66-2.77-.82-5.54-.78-8.4.05-3.76.88-7.5.91-11.26,0-.73-.1-1.47.01-2.19.08-.5.26-.89.41-1.37.44-1.4.39-2.84.7-4.27.37-1.71,1.31-2.94,2.14-4.46.49-.9.56-1.77.92-2.68.62-1.58,1.57-3.07,3.33-3.03,1.12.03,2.24-.02,3.36-.01,2.4,0,4.7.67,7.08.88,1.99.17,4.07.09,6.06.04.9-.02,1.84-.6,2.68-.45L220.56,59.04Z"/>
    </clipPath>
    <clipPath id="clippath-2">
      <circle class="cls-33" cx="128.28" cy="104.52" r="104.52"/>
    </clipPath>
    <clipPath id="clippath-3">
      <circle class="cls-33" cx="128.28" cy="104.52" r="104.52"/>
    </clipPath>
  </defs>
  <g class="cls-48">
    <g id="Layer_2">
      <g id="Layer_1-2" data-name="Layer_1">
        <g class="cls-37">
          <g>
            <path class="cls-40" d="M220.56,59.04c-.07.28-.08.55-.03.83,1.42.76,4.06-1.03,4.97-1.5,2.47-1.27,5.01-2.66,7.39-4.12.79-.48,1.25-1.48,2.06-1.8.53-.21,1.97.03,2.43.09,1.65.19,4.33.38,5.78,1.25.57.34.54.67.91.91.76.48,1.32.29,2.15.47.81.18,1.86.86,2.71,1.15.73.25,1.41.59,2.14.86,1.39.52,3.24,1.06,4.41,2.04,1.26,1.06,1.64,2.41,1.93,3.93.25,1.33.92,2.54,1.14,3.87.28,1.66.23,3.11.83,4.73.28.77.6,1.75,1.09,2.42.49.66,1.12,1.05,1.57,1.77,1.08,1.73,1.43,4.25,1.41,6.24-.02,1.49.03,2.98,0,4.47-.02,1.22-.15,1.53-.8,2.58-.44.72-.98,2.13-.47,2.99.31.53,1.64,1.11,2,1.28,1.03.5,1.78.9,2.72,1.53,1.36.91,2.74,1.51,4.06,2.5,2.2,1.64,3.12,4,4.22,6.5.66,1.5.93,2.66.96,4.3-.08,1.26-.05,2.53.08,3.78.12.54.25,1.09.41,1.62-.05,1.03-.79,1.65-1.19,2.52-.34.73-.36,1.55-.67,2.31-.5,1.21-1.42,2.09-2.09,3.2-.48.8-.57,1.74-1.03,2.52-.29.49-.65.67-.8,1.25-.13.48.03,1.24.03,1.75,0,2.18-.08,4.26.34,6.4.24,1.21.09,2.35.41,3.58.63,2.34.68,4.66.58,7.1-.06,1.43-.46,2.81-.48,4.25-.01.74.08,1.31-.05,2.03-.21,1.15-.61,2.23-.79,3.4-.17,1.07-.76,1.62-1.24,2.57-1.78,3.53-1.76,7.74-4,11.06-.53.78-.9,1.26-1.72,1.66l-.77.04c-.88.18-1.65.56-2.33,1.14-1.02.95-2.02,2.27-2.79,3.4-.82,1.21-1.51,2.17-1.6,3.59-.12,1.72-.45,3.25-.44,5.03,0,1.35.27,3.03-.07,4.36-.84,3.33-4.35,4.4-6.5,6.66l-.84,1.01c-.32.42-.74.65-1.26.67-.7.46-1.1,1.04-1.92,1.23-2.03.47-4.41-.37-6.48-.04-.67.11-.62-.19-.91.41-.26.53.03,2.09.13,2.62.42,2.23.62,4.79.36,7.07-.09.84-.15.64-.77,1.27-.63.65-1.12,1.26-1.7,1.98-.45.55-.96,1.11-1.45,1.62-.59.63-1.23,1.2-1.94,1.7-.4.39-.79.8-1.17,1.22-.65.41-1.52.52-2.2.92-.55.35-1.07.74-1.55,1.16-.93.22-1.87.32-2.83.29-3.57.4-6.86.01-10.45-.09-.56,1.22-.95,2.64-1.95,3.59-1.08,1.02-2.35,1.81-3.35,2.95-.98,1.13-1.89,1.94-3.09,2.85-1.06.8-1.88,2.43-2.29,3.71s-.22,2.52-.26,3.83c-.03.98-.41,3.19-1.08,4.05-.82,1.05-3.22.95-4.42,1.3-.92.27-1.79.67-2.71.93-1.72.49-3.43.33-5.19.49-1.34.12-2.56.64-3.89.77-1.11.11-2.18-.07-3.29.1-1.44.22-3.1.47-4.35,1.2-1.79,1.03-3.58,2.18-5.14,3.55-1.92,1.68-3.35,2.4-5.81,2.96-4.54,1.02-9.46.64-14.09.55-1.95-.03-3.78-.48-5.72-.46-1.46.01-3.34-.28-4.77.08-1.78.45-3.47,1.37-5.24,1.89-1.13.33-2.03.16-3.03.67-1.34.69-2.72.44-4.32.44-1.8,0-3.33-.11-5.12-.33-1.38-.17-2.28-.22-3.49-1.01-2.49-1.62-4.68-3.35-7.46-4.54-1.78-.77-3.56-1.7-5.39-2.35-1.93-.69-4.04-.53-6.06-.53-1.57,0-3.14.02-4.71.01-.13,0-1.1-.1-1.35-.02-.67.23-.57.51-1.01,1.1-1.69,2.29-4.78,1.98-7.22,1.98-1.76,0-3.3.02-5.01-.32-2.29-.45-4.71-.79-7.04-.96-2.54-.18-5.03.02-7.57-.34-1.74-.24-2.97-.42-4.38-1.42-.9-.64-1.86-1.55-2.56-2.43-.58-.73-.9-1.67-1.08-2.59-.44-2.17-.27-3.9-1.32-5.99-.63-1.26-.72-2.58-1.94-3.48-1.03-.76-2.23-1.33-3.51-1.3-1,.03-2,.02-3,.02-1.94,0-4.31.37-6.19-.04-.12-.66.08-1.32-.04-1.98-.07-.41-.22-1.59-.48-1.86-.47-.48-1.34.14-1.65.41-1.11.98-1.84,2.27-3.02,3.25-1.32,1.09-1.68.54-2.9-.54-2.32-2.04-4.24-4.68-6.37-6.94-1.14-1.21-2.47-1.96-3.87-2.81-.72-.44-1.48-.78-2.26-1.09s-3.37-.67-4.34-1.29c-1.19-.76-.82-2.57-.87-3.75-.07-1.5-.48-2.89-.46-4.42.02-1.49.23-3.01-.37-4.42-.47-1.1-1.3-1.95-1.84-2.99-.67-1.3-1.12-2.03-2.21-3.1-1.29-1.26-2.8-2.47-3.68-4.08-.52-.95-.93-2.01-1.42-2.99-.72-1.44-1.25-2.96-1.43-4.54-.12-1.07.06-2.19-.05-3.28-.18-1.75-.85-3.15-1.65-4.68-1.19-2.3-2-4.74-2.88-7.16-.83-2.27-1.97-4.57-2.52-6.89-.66-2.77-.82-5.54-.78-8.4.05-3.76.88-7.5.91-11.26,0-.73-.1-1.47.01-2.19.08-.5.26-.89.41-1.37.44-1.4.39-2.84.7-4.27.37-1.71,1.31-2.94,2.14-4.46.49-.9.56-1.77.92-2.68.62-1.59,1.57-3.07,3.33-3.03,1.12.03,2.24-.02,3.36-.01,2.4,0,4.7.67,7.08.88,1.99.17,4.07.09,6.06.04.9-.02,1.84-.6,2.68-.45"/>
            <g class="cls-100">
              <g>
                <path class="cls-3" d="M-2.15,155.83c.23.19.28.39.14.6,2.69-3.44,6.9-5.68,11.28-5.19,1.4.16,1.35.91,2.28,1.92,1,1.08,2.19,1.98,3.09,3.16.98,1.3,1.65,2.35,2.32,3.83.86,1.91,1.47,2.69-.86,3.77-1.35.63-3.25,1.07-4.39,2.02-1.09.9-.66,3.27-.64,4.67.01.91.17,1.56-.41,2.22-.49.55-1.67.74-2.33,1.04-2.26,1.04-6.34,1.16-8.42-.47-2.23-1.75-1.57-4.77-1.6-7.33-.01-1.23.38-2.24.47-3.41.03-.42.06-.96,0-1.38-.07-.53-.34-.74-.43-1.17-.32-1.67.47-4.73-.49-4.29h0Z"/>
                <path class="cls-3" d="M270.49,90.24c-.7.07-1.42-.22-2.11-.31-.74-.09-1.53-.02-2.26-.2-.14-.03-.2-.24-.36-.27-1.03-.18-2.21.25-3.23.47-.56.12-.85.33-1.55.31-.43,0-.85-.03-1.28.03-1.95.29-3.91.4-5.68,1.36-1.39.75-3.45,1.9-4.37,3.21-.41.59-.32.6-.31,1.29.05,1.98.18,4.04-.62,5.89-.83,1.92-2.6,3.75-4.04,5.26-.49.52-.8.71-1.13,1.31-.54.98-.98,2.11-1.12,3.22-.35,2.66.84,5.14.8,7.79-.02,1.3-.48,3.65.37,4.73.95,1.21,2.75,2.27,3.93,3.28,1.05.9,2.09,1.64,3.38,2.14,3,1.17,6.19.75,9.37.77,1.29.01,2.5.12,3.7-.39,1.29-.55,2.53-1,3.91-1.36,2.25-.59,4.49-.98,6.82-1.06,1.42-.05,1.97-.05,2.93-1.06,1.27-1.34,2.64-2.77,3.72-4.26,1.18-1.64,1.44-3.34,1.67-5.3.24-1.99.61-4.08.46-6.09-.11-1.61-.41-3.13-.41-4.76,0-2.95,1.3-6.24-1.2-8.45-1.65-1.46-3.32-2.27-5.43-2.89-1.2-.35-2.22-.78-3.13-1.7-.54-.55-1.16-1.18-1.65-1.77-.36-.44-.46-1.03-1.19-1.2h0Z"/>
                <path class="cls-76" d="M229.4,48.74c-.76-.1-1.55.21-2.29.31-.92.12-1.86.07-2.78.21-.71.1-1.41.1-1.96.58-.52.46-.97,2.24-1.11,2.67-.65,1.9-1.51,3.71-2.79,5.27-1.73,2.11-4.25,3.41-5.83,5.67-.88,1.26-1.06,3.25-1.36,4.7-.51,2.5-1.03,5.01-1.03,7.56,0,2.41.86,4.43,1.18,6.79.38,2.83-.36,5.6.65,8.36.41,1.13,1,2.31,1.71,3.28,1.35,1.84,3.45,3.04,4.68,4.97,1.57,2.46,1.89,5.64,3.11,8.29.44.95,1.08,1.85,1.75,2.65.83,1,2.07,1.76,3.09,2.54,1.2.91,2.08,2.13,2.99,3.32.45.59.9,1.19,1.47,1.68,1.17,1.02,2.53.7,4.03.72,1.18.01,1.95-.02,3.06-.61.73-.39,1.22-.79,1.97-1.1.85-.35,1.78-.78,2.55-1.29,1.04-.7,1.52-1.84,2.55-2.54.81-.54,1.58-1.15,2.4-1.68,1.5-.98,3.16-1.13,3.84-3.05.32-.91.24-1.5.75-2.43.35-.64.7-1.29.98-1.97.45-1.09.16-2.16.64-3.2.48-1.04,1.12-1.98,1.77-2.89.46-.65.73-1.38,1.2-2.03.53-.71,1.04-1.1,1.69-1.66,1.48-1.29,2.46-3.18,4.03-4.38.96-.73,1.92-1.3,2.47-2.49.26-.56.26-1.01.34-1.63.13-.96.61-1.59.99-2.45.88-2.01.92-3.99,1.09-6.11.09-1.19.57-2.32.72-3.51.13-1.04.12-2.12.1-3.16-.08-3.53-1.91-6.88-3.59-9.89-1.7-3.04-4.12-5.49-6.41-8.08-.56-.63-1.05-1.28-1.72-1.81-1.82-1.44-3.77-1.87-5.87-2.55-.42-.14-.76-.5-1.14-.64-.89-.31-2.16-.1-3.09-.09-1.69.02-3.31.38-4.99.44-1.27.04-2.16-.03-3.38.39-1.17.4-2,.24-3.17.39-2.36.28-4.93,1.94-5.31.43h0Z"/>
                <path class="cls-3" d="M54.96,237.86c-.15-.6.28-.8.45-1.28.11-.3.02-.72.16-1.07.39-1.03,1.08-1.84,1.36-2.96.53-2.11.98-5.15.68-7.32-.14-1.01-.85-1.74-.96-2.74-.24-.06-.48-.11-.72-.14-.21-.89-.08-1.9-.08-2.83,0-2.09-.32-4.42.16-6.46.56-2.4,1.77-4.9,2.95-7.03.83-1.5,1.37-2.35,2.8-3.23,1.68-1.03,3.29-2.11,5.14-2.82,1.14-.43,2.2-.81,3.28-1.29.82-.37,1.45-.54,2.15-1.13,2.22-1.85,4.02-4.05,6.84-5.13,1.14-.44,3.12-.97,4.37-.98,1.92-.01,3.58,1.64,5.12,2.7,1.93,1.33,3.38,3.02,5.54,4.01,3.26,1.51,6.75,2.18,10.28,2.75,4.69.75,9.42,1.24,14.19,1.19,2.16-.02,4.26.18,6.41.34,4.56.34,9.18.08,13.75.1,1.98,0,4.03.21,5.99-.17,1.71-.33,3.42-.82,5.1-1.23,1.81-.43,3.57-1.3,5.27-2.04.57-.25,2.02-.95,2.8-.96,1.1-.01,1.87.74,2.91,1.1,1.9.65,2.93,1.26,4.49,2.6,1.93,1.66,3.98,3.17,5.79,4.97,1.21,1.2.77,3,.77,4.64,0,1.41.52,3.88-.48,5.1-.76.92-2.91,1.48-3.95,1.99-1.32.66-2.39,1.34-3.8,1.7-3.24.82-7.32,3.4-10.75,2.65-1.2-.26-2.5-1.6-3.57-2.17-1.48-.78-2.79-1.52-4.15-2.5-1.89-1.37-4.08-2.71-6.4-3.21-3.3-.71-6.7-1.94-10.16-1.4-1.48.23-2.93,1.07-4.43,1.42-1.81.42-3.49,1.04-5.34,1.34-2.95.47-5.92.32-8.9.32-.58,0-2.33-.33-2.49.34,3.37.73,6.83,1.77,10.15,2.76,1.99.59,3.04,2.4,3.41,4.36.32,1.7.22,3.62-.33,5.26-.39,1.16-1.15,2.43-.97,3.71.12.87.53,1.27,1.34,1.59,1.52.61,3.94.52,5.55.55,4.33.09,11.24-.72,13.31,4.26.38.91.11,1.77.64,2.69.77,1.35,1.8,1.49,3.07,1.93,1.8.63.87,3.63.47,5.06-.96,3.52-2.26,6.94-3.21,10.46-.62,2.3-2.04,3.38-4.38,3.84-2.47.48-4.82-.95-6.94-2.01-5.64-2.81-11.2-5.34-17.61-5.86-2.82-.23-5.76-.3-8.58-.16-3.39.17-6.5,1.4-9.89,1.47-2.77.06-5.55.15-8.32.27-4.16.26-8.33.24-12.49-.04-3.02-.48-5.83-1.74-8.73-2.67-2.12-.72-4.29-1.24-6.51-1.58-1.03-.02-2.03-.17-3.01-.46-1-.44-.8-.58-.87-1.38-.13-1.52-.09-3.23-.02-4.76.09-1.85,1.61-2.94,1.82-4.57.08-.6-.05-1.17-.33-1.7-.29-.55-.82-.77-.13-2.19h0Z"/>
                <path class="cls-76" d="M29.28,189.36c-.05-.08-.09-.17-.14-.25-.09-.18-.21-.35-.38-.47-.15-.1-.33-.16-.5-.24-.14-.07-.28-.15-.41-.23-.67-.41-1.41-.72-2.15-.97-.93-.31-1.98-.67-2.94-.89-1.39-.33-2.92,0-4.35-.07-1.42-.07-1.77-.11-3,1.07-1.15,1.1-2.27,2.43-3.25,3.67-.48.6-.92,1.4-1.55,1.85-1.15.83-3.05.8-4.36,1.1-1.42.32-4.16.95-4.87,2.49-2.24,4.83,3.74,9.78,6.48,12.7,1.99,2.13,4.26,3.97,5.97,6.34,1.71,2.38,2.92,5.13,4.69,7.45.83,1.09,1.96,1.94,2.8,3.02.85,1.1,1.53,2.33,2.38,3.43,1.58,2.05,3.21,4.2,5.35,5.68,1.93,1.33,3.95,2.43,6.01,3.53.93.5,1.38.73,2.44.66,1.14-.07,2.27-.51,3.37-.71.86-.16,1.8-.12,2.64-.4,1.17-.39,2.54-1.08,3.52-1.83.82-.62.71-.57,1.8-.69,1.69-.19,3.58-1.03,4.85-2.18.64-.58,1.48-1.44,2.13-2.11,1.5-1.54,2.45-3.39,3.82-5.02.62-.74,1.24-1.32,1.72-2.15.44-.77.73-1.65,1.12-2.45.7-1.43,1.89-3.02,1.7-4.67-.37-3.11-1.14-6.08-3.26-8.52-1.39-1.6-3.47-3.68-5.51-4.31-2.42-.75-4.86-.07-7.24.59-1.06.29-1.84.44-2.94.43-1.02,0-2.07.07-3.09.03-1.58-.05-3.11-.8-4.6-1.23-1.58-.46-3.17-.71-4.2-2.01-.71-.9-.43-2.02-.43-3.19,0-.7.02-1.4,0-2.09-.02-1.11-.13-2.26-.65-3.25-.26-.5-.62-.98-1.07-1.33-.15-.12-.37-.17-.5-.33-.08-.1-.11-.23-.15-.36-.05-.15-.14-.28-.21-.42-.07-.14-.12-.28-.2-.41-.14-.22-.29-.43-.45-.65-.15-.2-.28-.41-.4-.62h0Z"/>
              </g>
            </g>
          </g>
          <g class="cls-37">
            <g class="cls-44">
              <g>
                <rect class="cls-4" x="-.03" y="52.25" width="276.66" height="200"/>
                <path class="cls-4" d="M277.63,123.21v61.06h1.73c-7.94,18.77-19.42,35.67-33.62,49.86-7.1,7.1-14.87,13.52-23.22,19.16v-.03H47.11v.03c-8.35-5.64-16.12-12.06-23.22-19.16-7.1-7.1-13.52-14.87-19.16-23.22-2.82-4.17-5.44-8.49-7.86-12.93H-1.04V51.25h273.79v-2.82c2.41,4.45,4.62,9.02,6.61,13.71h-1.73v61.06h0Z"/>
                <path class="cls-58" d="M277.63,122.08v46.23h5.22c-1.51,4.87-3.26,9.63-5.23,14.28-7.87,18.6-19.25,35.35-33.32,49.42-7.03,7.03-14.74,13.4-23.01,18.98-4.14,2.79-8.41,5.39-12.82,7.79v-5.53H60.26v5.53c-4.41-2.39-8.68-4.99-12.82-7.79-8.27-5.59-15.98-11.95-23.01-18.98-7.03-7.03-13.4-14.74-18.98-23.01-2.79-4.14-5.39-8.41-7.79-12.82h1.3V51.25h272.11v-3.28c2.39,4.41,4.58,8.94,6.55,13.59s3.71,9.42,5.23,14.28h-5.22v46.23h0Z"/>
                <path class="cls-87" d="M277.63,120.94v45.82h3.44c-1.5,4.82-3.23,9.55-5.18,14.16-7.8,18.43-19.08,35.03-33.02,48.97-6.97,6.97-14.6,13.28-22.8,18.81-4.1,2.77-8.34,5.34-12.7,7.72v-3.16H60.48v3.16c-4.37-2.37-8.6-4.95-12.7-7.72-8.2-5.54-15.83-11.84-22.8-18.81-6.97-6.97-13.28-14.6-18.81-22.8-2.77-4.1-5.34-8.34-7.72-12.7h.52V51.25h270.43v-3.75c2.37,4.37,4.54,8.86,6.49,13.47,1.95,4.61,3.68,9.33,5.18,14.16h-3.44v45.82h0Z"/>
                <path class="cls-106" d="M277.63,119.81v30.77h5.42c-2.03,9.94-5.03,19.53-8.9,28.66-7.72,18.27-18.9,34.71-32.72,48.53-6.91,6.91-14.47,13.16-22.59,18.64-4.06,2.74-8.26,5.3-12.59,7.65v-.8H60.71v.8c-4.33-2.35-8.53-4.9-12.59-7.65-8.12-5.49-15.69-11.73-22.59-18.64-13.81-13.81-24.99-30.26-32.72-48.53H-1.04V60.39h-6.16c1.93-4.57,4.08-9.02,6.43-13.34v4.21h268.49v-4.21c2.35,4.33,4.5,8.78,6.43,13.34,3.86,9.13,6.86,18.72,8.9,28.66h-5.42v30.77h0Z"/>
                <path class="cls-104" d="M284.3,118.68c0,41.77-16.93,79.59-44.31,106.96-13.69,13.69-29.98,24.76-48.08,32.42v-4.81h-117.76v4.81c-18.1-7.66-34.4-18.73-48.08-32.42-13.69-13.69-24.76-29.98-32.42-48.08H-1.03V59.8h-5.32c1.91-4.52,4.04-8.94,6.37-13.22v4.67h266.02v-4.67c2.33,4.29,4.46,8.7,6.37,13.22,7.66,18.1,11.89,37.99,11.89,58.88h0Z"/>
                <path class="cls-72" d="M282.46,117.55c0,41.39-16.78,78.85-43.9,105.97-13.56,13.56-29.71,24.53-47.64,32.12v-2.38h-116.67v2.38c-17.93-7.58-34.08-18.56-47.64-32.12S2.08,193.81-5.5,175.88H-1.03V59.21h-4.47c1.9-4.48,4-8.85,6.31-13.1v5.14h263.56v-5.14c2.31,4.25,4.41,8.62,6.31,13.1,7.58,17.93,11.78,37.64,11.78,58.34h0Z"/>
                <path class="cls-107" d="M280.61,116.42c0,41-16.62,78.11-43.48,104.98-13.43,13.43-29.43,24.3-47.19,31.82-4.44,1.88-8.99,3.55-13.64,4.99v-4.95h-88.3v4.95c-4.65-1.45-9.2-3.11-13.64-4.99-17.76-7.51-33.76-18.38-47.19-31.82s-24.3-29.43-31.82-47.19H-1.03V58.63h-3.62c1.88-4.44,3.97-8.77,6.25-12.98v5.6h261.1v-5.6c2.29,4.21,4.37,8.54,6.25,12.98,7.51,17.76,11.67,37.29,11.67,57.79h0Z"/>
                <path class="cls-23" d="M278.76,115.28c0,40.61-16.46,77.38-43.08,103.99-13.31,13.31-29.15,24.08-46.75,31.52-8.8,3.72-18.03,6.61-27.61,8.57v-6.11h-59.28v6.11c-9.57-1.96-18.81-4.85-27.61-8.57-17.59-7.44-33.44-18.21-46.75-31.52S3.63,190.12-3.81,172.53H-1.04V58.04h-2.78c1.86-4.4,3.93-8.69,6.19-12.86v6.07h258.63v-6.07c2.26,4.17,4.33,8.46,6.19,12.86,7.44,17.59,11.56,36.94,11.56,57.24h0Z"/>
                <path class="cls-53" d="M276.92,114.15c0,80.45-65.22,145.67-145.67,145.67-40.22,0-76.64-16.3-103-42.66-13.18-13.18-23.85-28.87-31.22-46.3h1.93V57.45h-1.93c1.84-4.36,3.89-8.6,6.13-12.73v6.53h256.17v-6.53c2.24,4.13,4.29,8.38,6.13,12.73,7.37,17.43,11.45,36.59,11.45,56.7h0Z"/>
                <path class="cls-75" d="M275.07,113.02c0,79.68-64.59,144.27-144.27,144.27-39.84,0-75.9-16.15-102.01-42.25-13.05-13.05-23.62-28.6-30.92-45.86h1.09V56.87h-1.09c1.83-4.32,3.85-8.52,6.08-12.61v7h253.71v-7c2.22,4.09,4.25,8.3,6.08,12.61,7.3,17.26,11.34,36.24,11.34,56.15h0Z"/>
                <path class="cls-39" d="M273.22,111.89c0,78.9-63.96,142.86-142.86,142.86-39.45,0-75.17-15.99-101.02-41.84-12.93-12.93-23.39-28.32-30.62-45.41h.24V56.28h-.24c.9-2.14,1.86-4.25,2.86-6.33v1.3h257.55v-1.3c1,2.08,1.96,4.19,2.86,6.33,7.23,17.09,11.23,35.88,11.23,55.61Z"/>
                <path class="cls-79" d="M271.38,110.75c0,78.13-63.34,141.46-141.46,141.46-39.06,0-74.43-15.83-100.03-41.43-12.8-12.8-23.16-28.04-30.32-44.97-1.79-4.23-3.38-8.57-4.76-13H-1.03v-84.13h-4.16c1.38-4.43,2.97-8.77,4.76-13,.9-2.12,1.84-4.21,2.83-6.27v1.83h255.03v-1.83c.99,2.06,1.94,4.15,2.83,6.27,7.16,16.92,11.12,35.53,11.12,55.06h0Z"/>
                <path class="cls-19" d="M269.53,109.62c0,77.35-62.71,140.06-140.06,140.06-38.68,0-73.69-15.68-99.04-41.02-12.67-12.67-22.93-27.76-30.02-44.52-3.54-8.38-6.3-17.17-8.16-26.29H-1.03v-56.46h-6.72c1.87-9.12,4.62-17.91,8.16-26.29.89-2.09,1.82-4.16,2.8-6.2v2.35h252.5v-2.35c.98,2.04,1.92,4.11,2.8,6.2,7.09,16.76,11.01,35.18,11.01,54.52h0Z"/>
                <path class="cls-35" d="M267.69,108.49c0,76.58-62.08,138.66-138.66,138.66-38.29,0-72.96-15.52-98.05-40.61-12.55-12.55-22.7-27.49-29.72-44.08-3.51-8.29-6.23-17-8.08-26.03H-1.04v-55.89h-5.79c1.85-9.03,4.57-17.73,8.08-26.03.88-2.07,1.8-4.12,2.78-6.14v2.88h249.98v-2.88c.97,2.02,1.9,4.07,2.78,6.14,7.02,16.59,10.9,34.83,10.9,53.97h0Z"/>
                <path class="cls-80" d="M265.84,107.36c0,75.81-61.45,137.26-137.26,137.26-37.9,0-72.22-15.36-97.06-40.2-12.42-12.42-22.47-27.21-29.42-43.63-3.47-8.21-6.17-16.83-8-25.77H-1.03v-55.33h-4.86c1.83-8.93,4.53-17.55,8-25.77.87-2.05,1.78-4.08,2.75-6.08v3.4h247.45v-3.4c.96,2,1.88,4.03,2.75,6.08,6.95,16.42,10.79,34.48,10.79,53.43h0Z"/>
                <path class="cls-6" d="M263.99,106.23c0,75.03-60.83,135.86-135.86,135.86S-7.73,181.26-7.73,106.23c0-18.76,3.8-36.63,10.68-52.88.86-2.03,1.77-4.04,2.72-6.02v3.93h244.93v-3.93c.95,1.98,1.86,3.99,2.72,6.02,6.88,16.25,10.68,34.12,10.68,52.88h0Z"/>
                <path class="cls-22" d="M262.15,105.09c0,74.26-60.2,134.46-134.46,134.46S-6.77,179.35-6.77,105.09c0-18.57,3.76-36.25,10.57-52.34.85-2.01,1.75-4,2.69-5.96v4.45h242.4v-4.45c.94,1.96,1.84,3.95,2.69,5.96,6.8,16.09,10.57,33.77,10.57,52.34h0Z"/>
                <path class="cls-42" d="M260.3,103.96c0,73.49-59.57,133.06-133.06,133.06S-5.82,177.45-5.82,103.96c0-18.37,3.72-35.87,10.46-51.79.84-1.99,1.73-3.96,2.66-5.89v4.98h239.88v-4.98c.93,1.94,1.82,3.9,2.66,5.89,6.73,15.92,10.46,33.42,10.46,51.79h0Z"/>
                <path class="cls-49" d="M258.46,102.83c0,72.71-58.95,131.66-131.66,131.66S-4.87,175.54-4.87,102.83c0-18.18,3.68-35.5,10.35-51.25.83-1.97,1.71-3.91,2.64-5.83v5.5h237.35v-5.5c.92,1.92,1.8,3.86,2.64,5.83,6.66,15.75,10.35,33.07,10.35,51.25h0Z"/>
                <path class="cls-101" d="M256.61,101.7c0,71.94-58.32,130.26-130.26,130.26S-3.91,173.64-3.91,101.7c0-17.98,3.65-35.12,10.24-50.7v.26h240.04v-.26c6.59,15.58,10.24,32.72,10.24,50.7h0Z"/>
                <path class="cls-12" d="M254.76,100.57c0,71.17-57.69,128.86-128.86,128.86S-2.96,171.73-2.96,100.57c0-17.79,3.61-34.74,10.13-50.16v.84h237.46v-.84c6.52,15.42,10.13,32.37,10.13,50.16h0Z"/>
                <path class="cls-95" d="M252.92,99.43c0,70.39-57.07,127.46-127.46,127.46S-2,169.83-2,99.43c0-17.6,3.57-34.36,10.02-49.61v1.43h234.88v-1.43c6.45,15.25,10.02,32.01,10.02,49.61h0Z"/>
                <path class="cls-46" d="M251.07,98.3c0,69.62-56.44,126.06-126.06,126.06S-1.04,167.92-1.04,98.3c0-17.41,3.53-33.99,9.91-49.07v2.02h232.3v-2.02c6.38,15.08,9.91,31.66,9.91,49.07Z"/>
                <path class="cls-51" d="M249.23,97.17c0,68.85-55.81,124.66-124.66,124.66S-.09,166.02-.09,97.17C-.09,79.96,3.4,63.56,9.71,48.65v2.6h229.72v-2.6c6.31,14.91,9.8,31.31,9.8,48.52h0Z"/>
                <path class="cls-65" d="M247.38,96.04c0,68.07-55.18,123.26-123.26,123.26S.87,164.11.87,96.04c0-17.02,3.45-33.23,9.69-47.98v3.19h227.14v-3.19c6.24,14.75,9.69,30.96,9.69,47.98Z"/>
                <path class="cls-2" d="M245.53,94.9c0,67.3-54.56,121.85-121.85,121.85S1.82,162.2,1.82,94.9c0-16.83,3.41-32.85,9.58-47.43v3.78h224.56v-3.78c6.17,14.58,9.58,30.61,9.58,47.43h0Z"/>
                <path class="cls-34" d="M243.69,93.77c0,66.53-53.93,120.46-120.46,120.46S2.78,160.3,2.78,93.77c0-16.63,3.37-32.47,9.47-46.89v4.36h221.98v-4.36c6.09,14.41,9.47,30.26,9.47,46.89h0Z"/>
                <path class="cls-10" d="M241.84,92.64c0,65.75-53.3,119.05-119.05,119.05S3.73,158.39,3.73,92.64c0-16.44,3.33-32.1,9.36-46.34v4.95h219.4v-4.95c6.02,14.24,9.36,29.9,9.36,46.34Z"/>
                <path class="cls-1" d="M239.99,91.51c0,64.98-52.67,117.65-117.65,117.65S4.69,156.49,4.69,91.51c0-16.24,3.29-31.72,9.25-45.8v5.54h216.82v-5.54c5.95,14.08,9.25,29.55,9.25,45.8h0Z"/>
                <path class="cls-97" d="M238.15,90.38c0,64.21-52.05,116.25-116.25,116.25S5.64,154.58,5.64,90.38c0-16.05,3.25-31.34,9.14-45.25v6.13h214.23v-6.13c5.88,13.91,9.14,29.2,9.14,45.25Z"/>
                <path class="cls-109" d="M236.3,89.24c0,63.43-51.42,114.85-114.85,114.85S6.6,152.68,6.6,89.24c0-15.86,3.21-30.97,9.03-44.71v6.71h211.65v-6.71c5.81,13.74,9.03,28.85,9.03,44.71h0Z"/>
                <path class="cls-38" d="M234.46,88.11c0,62.66-50.79,113.45-113.45,113.45S7.55,150.77,7.55,88.11c0-7.83.79-15.48,2.3-22.86.76-3.69,1.69-7.32,2.8-10.87.55-1.78,1.15-3.53,1.78-5.27v2.15h213.14v-2.15c.64,1.74,1.23,3.49,1.78,5.27,1.1,3.55,2.04,7.18,2.8,10.87,1.51,7.39,2.3,15.03,2.3,22.86h0Z"/>
                <path class="cls-77" d="M232.61,86.98c0,61.88-50.17,112.05-112.05,112.05S8.51,148.86,8.51,86.98c0-7.73.78-15.29,2.28-22.58.75-3.65,1.67-7.23,2.76-10.74.55-1.75,1.13-3.49,1.76-5.21v2.8h210.5v-2.8c.63,1.72,1.22,3.45,1.76,5.21,1.09,3.51,2.02,7.09,2.76,10.74,1.49,7.29,2.28,14.85,2.28,22.58h0Z"/>
                <path class="cls-47" d="M230.76,85.85c0,61.11-49.54,110.65-110.65,110.65S9.46,146.96,9.46,85.85c0-7.64.77-15.1,2.25-22.3.74-3.6,1.65-7.14,2.73-10.6.54-1.73,1.12-3.45,1.74-5.14v3.45h207.87v-3.45c.62,1.7,1.2,3.41,1.74,5.14,1.08,3.47,1.99,7,2.73,10.6,1.47,7.2,2.25,14.66,2.25,22.3h0Z"/>
                <path class="cls-63" d="M228.92,84.72c0,60.34-48.91,109.25-109.25,109.25S10.42,145.05,10.42,84.72c0-7.54.76-14.91,2.22-22.02.73-3.56,1.63-7.05,2.69-10.47.53-1.71,1.1-3.4,1.72-5.08v4.1h205.24v-4.1c.61,1.67,1.19,3.37,1.72,5.08,1.06,3.42,1.96,6.91,2.69,10.47,1.46,7.11,2.22,14.47,2.22,22.02h0Z"/>
                <path class="cls-15" d="M227.07,83.58c0,59.56-48.29,107.85-107.85,107.85S11.37,143.15,11.37,83.58c0-7.45.75-14.72,2.19-21.73.72-3.51,1.61-6.96,2.66-10.34.53-1.69,1.09-3.36,1.7-5.01v4.75h202.61v-4.75c.6,1.65,1.17,3.32,1.7,5.01,1.05,3.38,1.94,6.83,2.66,10.34,1.44,7.02,2.19,14.29,2.19,21.73h0Z"/>
                <path class="cls-81" d="M225.23,82.45c0,58.79-47.66,106.45-106.45,106.45S12.33,141.24,12.33,82.45c0-7.35.74-14.52,2.16-21.45.71-3.47,1.59-6.87,2.62-10.2v.45h203.33v-.45c1.04,3.33,1.91,6.74,2.62,10.2,1.42,6.93,2.16,14.1,2.16,21.45h0Z"/>
                <path class="cls-102" d="M223.38,81.32c0,58.02-47.03,105.05-105.05,105.05S13.28,139.34,13.28,81.32c0-7.25.73-14.33,2.13-21.17.7-3.42,1.57-6.78,2.59-10.07v1.17h200.65v-1.17c1.02,3.29,1.89,6.65,2.59,10.07,1.4,6.84,2.13,13.92,2.13,21.17h0Z"/>
                <path class="cls-98" d="M221.53,80.19c0,57.24-46.4,103.65-103.65,103.65S14.24,137.43,14.24,80.19c0-7.16.72-14.14,2.11-20.89.69-3.37,1.54-6.69,2.55-9.93v1.89h197.97v-1.89c1.01,3.24,1.86,6.56,2.55,9.93,1.38,6.75,2.11,13.73,2.11,20.89h0Z"/>
                <path class="cls-64" d="M219.69,79.06c0,56.47-45.78,102.25-102.25,102.25S15.2,135.52,15.2,79.06c0-7.06.72-13.95,2.08-20.61.68-3.33,1.52-6.6,2.52-9.8v2.6h195.3v-2.6c1,3.2,1.84,6.47,2.52,9.8,1.36,6.66,2.08,13.55,2.08,20.61h0Z"/>
                <path class="cls-43" d="M217.84,77.92c0,55.7-45.15,100.85-100.85,100.85S16.15,133.62,16.15,77.92c0-6.96.71-13.76,2.05-20.32.67-3.28,1.5-6.51,2.48-9.66v3.32h192.62v-3.32c.98,3.16,1.81,6.38,2.48,9.66,1.34,6.57,2.05,13.36,2.05,20.32Z"/>
                <path class="cls-31" d="M215.99,76.79c0,54.92-44.52,99.45-99.45,99.45S17.1,131.71,17.1,76.79c0-6.86.7-13.57,2.02-20.04.66-3.24,1.48-6.42,2.45-9.53v4.03h189.95v-4.03c.97,3.11,1.79,6.29,2.45,9.53,1.33,6.47,2.02,13.18,2.02,20.04h0Z"/>
                <path class="cls-70" d="M214.15,75.66c0,54.15-43.9,98.04-98.04,98.04S18.06,129.81,18.06,75.66c0-6.77.69-13.38,1.99-19.76.65-3.19,1.46-6.33,2.42-9.4v4.75h187.27v-4.75c.96,3.07,1.76,6.21,2.42,9.4,1.31,6.38,1.99,12.99,1.99,19.76h0Z"/>
                <path class="cls-110" d="M212.3,74.53c0,53.38-43.27,96.64-96.64,96.64S19.02,127.9,19.02,74.53c0-6.67.68-13.19,1.96-19.48.64-3.15,1.44-6.24,2.38-9.26v5.46h184.6v-5.46c.94,3.03,1.74,6.12,2.38,9.26,1.29,6.29,1.96,12.8,1.96,19.48h0Z"/>
                <path class="cls-94" d="M210.46,73.39c0,52.6-42.64,95.24-95.24,95.24S19.97,126,19.97,73.39c0-6.58.67-12.99,1.93-19.2.63-3.1,1.42-6.15,2.35-9.13v6.18h181.92v-6.18c.93,2.98,1.71,6.03,2.35,9.13,1.27,6.2,1.93,12.62,1.93,19.2h0Z"/>
                <path class="cls-20" d="M208.61,72.26c0,51.83-42.02,93.84-93.84,93.84S20.92,124.09,20.92,72.26c0-6.48.66-12.8,1.91-18.91.62-3.05,1.4-6.05,2.31-8.99v6.9h179.25v-6.9c.91,2.94,1.69,5.94,2.31,8.99,1.25,6.11,1.91,12.43,1.91,18.91h0Z"/>
                <path class="cls-21" d="M206.77,71.13c0,51.05-41.39,92.44-92.44,92.44S21.88,122.18,21.88,71.13c0-6.38.65-12.61,1.88-18.63.31-1.5.65-3,1.03-4.47v3.22h179.06v-3.22c.38,1.48.72,2.97,1.03,4.47,1.23,6.02,1.88,12.25,1.88,18.63h0Z"/>
                <path class="cls-82" d="M204.92,70c0,50.28-40.76,91.04-91.04,91.04S22.84,120.28,22.84,70c0-6.28.64-12.42,1.85-18.35.3-1.48.64-2.95,1.02-4.41v4.01h176.35v-4.01c.37,1.45.71,2.92,1.02,4.41,1.21,5.93,1.85,12.06,1.85,18.35h0Z"/>
                <path class="cls-82" d="M203.07,68.87c0,49.51-40.13,89.64-89.64,89.64S23.79,118.37,23.79,68.87c0-6.19.63-12.23,1.82-18.07v.45h175.64v-.45c1.19,5.84,1.82,11.88,1.82,18.07h0Z"/>
                <path class="cls-54" d="M201.23,67.73c0,48.73-39.51,88.24-88.24,88.24S24.75,116.47,24.75,67.73c0-6.09.62-12.04,1.79-17.78v1.3h172.9v-1.3c1.17,5.74,1.79,11.69,1.79,17.78h0Z"/>
                <path class="cls-54" d="M199.38,66.6c0,47.96-38.88,86.84-86.84,86.84S25.7,114.56,25.7,66.6c0-5.99.61-11.85,1.76-17.5v2.15h170.15v-2.15c1.16,5.65,1.76,11.51,1.76,17.5h0Z"/>
                <path class="cls-16" d="M197.53,65.47c0,47.19-38.25,85.44-85.44,85.44S26.66,112.66,26.66,65.47c0-5.9.6-11.66,1.74-17.22v3h167.41v-3c1.14,5.56,1.74,11.32,1.74,17.22Z"/>
                <path class="cls-16" d="M195.69,64.34c0,46.41-37.62,84.04-84.04,84.04S27.61,110.75,27.61,64.34c0-5.8.59-11.47,1.71-16.94v3.85h164.66v-3.85c1.12,5.47,1.71,11.14,1.71,16.94h0Z"/>
                <path class="cls-111" d="M193.84,63.21c0,45.64-37,82.64-82.64,82.64S28.57,108.85,28.57,63.21c0-5.71.58-11.28,1.68-16.65v4.7h161.92v-4.7c1.1,5.38,1.68,10.95,1.68,16.65h0Z"/>
                <path class="cls-24" d="M192,62.07c0,44.87-36.37,81.24-81.24,81.24S29.52,106.94,29.52,62.07c0-5.61.57-11.08,1.65-16.37v5.55h159.17v-5.55c1.08,5.29,1.65,10.76,1.65,16.37h0Z"/>
                <path class="cls-105" d="M190.15,60.94c0,44.09-35.74,79.84-79.84,79.84S30.48,105.03,30.48,60.94c0-5.51.56-10.89,1.62-16.09v6.4h156.43v-6.4c1.06,5.2,1.62,10.58,1.62,16.09h0Z"/>
                <path class="cls-105" d="M188.3,59.81c0,43.32-35.12,78.44-78.44,78.44S31.43,103.13,31.43,59.81c0-2.71.14-5.38.41-8.02.13-1.32.3-2.63.5-3.92v3.39h155.06v-3.39c.2,1.3.36,2.61.5,3.92.27,2.64.41,5.31.41,8.02h0Z"/>
                <path class="cls-17" d="M186.46,58.68c0,42.54-34.49,77.04-77.04,77.04S32.39,101.22,32.39,58.68c0-2.66.14-5.29.4-7.88v.45h153.27v-.45c.26,2.59.4,5.22.4,7.88h0Z"/>
                <path class="cls-96" d="M184.61,57.54c0,41.77-33.86,75.63-75.63,75.63S33.34,99.32,33.34,57.54c0-2.61.13-5.19.39-7.73v1.44h150.49v-1.44c.26,2.54.39,5.12.39,7.73h0Z"/>
                <path class="cls-62" d="M182.77,56.41c0,41-33.24,74.23-74.23,74.23S34.3,97.41,34.3,56.41c0-2.56.13-5.09.38-7.59v2.43h147.7v-2.43c.25,2.5.38,5.03.38,7.59h0Z"/>
                <path class="cls-13" d="M180.92,55.28c0,40.22-32.61,72.83-72.83,72.83S35.25,95.51,35.25,55.28c0-2.51.13-5,.38-7.45v3.42h144.91v-3.42c.25,2.45.38,4.93.38,7.45h0Z"/>
                <path class="cls-13" d="M179.07,54.15c0,39.45-31.98,71.43-71.43,71.43S36.21,93.6,36.21,54.15c0-2.47.12-4.9.37-7.3v4.41h142.13v-4.41c.24,2.4.37,4.84.37,7.3h0Z"/>
                <path class="cls-71" d="M177.23,53.02c0,38.68-31.35,70.03-70.03,70.03S37.16,91.69,37.16,53.02c0-2.42.12-4.81.36-7.16v5.4h139.34v-5.4c.24,2.35.36,4.74.36,7.16h0Z"/>
                <path class="cls-71" d="M175.38,51.88c0,37.9-30.73,68.63-68.63,68.63S38.12,89.79,38.12,51.88c0-2.37.12-4.71.35-7.02v6.38h136.55v-6.38c.23,2.31.35,4.65.35,7.02h0Z"/>
                <path class="cls-71" d="M173.54,50.75c0,37.13-30.1,67.23-67.23,67.23S39.07,87.88,39.07,50.75v.5h134.46v-.5h0Z"/>
                <path class="cls-71" d="M171.69,49.62c0,36.36-29.47,65.83-65.83,65.83S40.03,85.98,40.03,49.62v1.63h131.66v-1.63h0Z"/>
                <path class="cls-90" d="M169.84,48.49c0,35.58-28.85,64.43-64.43,64.43S40.98,84.07,40.98,48.49v2.76h128.86v-2.76h0Z"/>
                <path class="cls-91" d="M168,47.36c0,34.81-28.22,63.03-63.03,63.03s-63.03-28.22-63.03-63.03v3.9h126.06v-3.9h0Z"/>
                <path class="cls-91" d="M166.15,46.22c0,34.04-27.59,61.63-61.63,61.63s-61.63-27.59-61.63-61.63v5.03h123.26v-5.03Z"/>
                <path class="cls-91" d="M164.3,45.09c0,33.26-26.97,60.23-60.23,60.23s-60.23-26.97-60.23-60.23v6.16h120.46v-6.16h0Z"/>
                <path class="cls-57" d="M162.46,51.25h-.3v-1.28c-.2,1.98-.5,3.93-.89,5.84-.78,3.83-1.94,7.52-3.43,11.04-2.98,7.04-7.28,13.38-12.61,18.7-10.65,10.65-25.35,17.23-41.6,17.23s-30.95-6.58-41.6-17.23c-5.32-5.32-9.63-11.66-12.61-18.7-1.49-3.52-2.64-7.21-3.43-11.04-.39-1.91-.69-3.86-.89-5.84v1.28h117.35,0Z"/>
                <path class="cls-57" d="M160.61,51.25h-.3v-2.55c-.2,1.93-.49,3.83-.87,5.7-.77,3.74-1.89,7.34-3.35,10.78-2.91,6.87-7.11,13.06-12.31,18.25-10.39,10.39-24.75,16.82-40.61,16.82s-30.21-6.43-40.61-16.82c-5.2-5.2-9.4-11.38-12.31-18.25-1.45-3.43-2.58-7.04-3.35-10.78-.38-1.87-.67-3.77-.87-5.7v2.55h114.56,0Z"/>
                <path class="cls-57" d="M158.77,51.25h-.29v-3.83c-.19,1.88-.48,3.74-.85,5.56-.75,3.65-1.85,7.16-3.27,10.52-2.84,6.7-6.94,12.74-12.01,17.81-10.14,10.14-24.15,16.41-39.62,16.41s-29.48-6.27-39.62-16.41c-5.07-5.07-9.17-11.11-12.01-17.81-1.42-3.35-2.52-6.87-3.27-10.52-.37-1.82-.66-3.68-.85-5.56v3.83h111.76Z"/>
                <path class="cls-57" d="M156.92,51.25h-.28v-5.1c-.19,1.84-.46,3.65-.83,5.42-.73,3.56-1.8,6.99-3.18,10.25-2.76,6.53-6.76,12.42-11.71,17.36-9.89,9.89-23.54,16-38.63,16s-28.74-6.11-38.63-16c-4.94-4.94-8.94-10.83-11.71-17.36-1.38-3.27-2.46-6.7-3.18-10.25-.36-1.78-.64-3.59-.83-5.42v5.1h108.97Z"/>
                <path class="cls-57" d="M155.07,51.25h-1.08v-1.09c-.71,3.47-1.76,6.81-3.1,9.99-2.69,6.37-6.59,12.1-11.41,16.92-9.63,9.63-22.94,15.59-37.64,15.59s-28-5.96-37.64-15.59c-4.82-4.82-8.71-10.55-11.41-16.92-1.35-3.18-2.39-6.53-3.1-9.99v1.09h105.37,0Z"/>
                <path class="cls-67" d="M153.23,51.25h-1.05v-2.51c-.69,3.37-1.71,6.63-3.02,9.73-2.62,6.2-6.42,11.78-11.11,16.47-9.38,9.38-22.33,15.18-36.65,15.18s-27.27-5.8-36.65-15.18c-4.69-4.69-8.48-10.27-11.11-16.47-1.31-3.1-2.33-6.35-3.02-9.73v2.51h102.6Z"/>
                <path class="cls-28" d="M151.38,51.25h-1.02v-3.92c-.67,3.28-1.66,6.45-2.94,9.47-2.55,6.03-6.24,11.47-10.81,16.03-9.12,9.12-21.73,14.77-35.65,14.77s-26.53-5.64-35.65-14.77c-4.56-4.56-8.26-9.99-10.81-16.03-1.28-3.02-2.27-6.18-2.94-9.47v3.92h99.82,0Z"/>
                <path class="cls-28" d="M149.54,51.25h-1v-5.34c-.65,3.19-1.62,6.27-2.86,9.2-2.48,5.86-6.07,11.15-10.51,15.58-8.87,8.87-21.13,14.36-34.66,14.36s-25.79-5.49-34.66-14.36c-4.44-4.44-8.03-9.72-10.51-15.58-1.24-2.93-2.2-6.01-2.86-9.2v5.34h97.05,0Z"/>
                <path class="cls-28" d="M147.69,51.25h-.97v-6.75c-.63,3.1-1.57,6.09-2.78,8.94-2.41,5.7-5.9,10.83-10.21,15.14-8.62,8.62-20.52,13.95-33.67,13.95s-25.06-5.33-33.67-13.95c-4.31-4.31-7.8-9.44-10.21-15.14-1.21-2.85-2.14-5.84-2.78-8.94v6.75h94.28Z"/>
                <path class="cls-28" d="M145.84,51.25h-2.08v-3.74c-.45,1.45-.97,2.86-1.55,4.25-2.34,5.53-5.72,10.51-9.91,14.69-8.36,8.36-19.92,13.54-32.68,13.54s-24.32-5.17-32.68-13.54c-4.18-4.18-7.57-9.16-9.91-14.69-.59-1.38-1.1-2.8-1.55-4.25v3.74h90.36Z"/>
                <path class="cls-28" d="M144,51.25h-3.52v-1.17c-2.27,5.36-5.55,10.19-9.6,14.25-8.11,8.11-19.32,13.13-31.69,13.13s-23.58-5.02-31.69-13.13c-4.05-4.05-7.34-8.88-9.6-14.25v1.17h86.12,0Z"/>
                <path class="cls-28" d="M142.15,51.25h-3.41v-2.84c-2.2,5.2-5.38,9.87-9.3,13.8-7.86,7.86-18.71,12.72-30.7,12.72s-22.84-4.86-30.7-12.72c-3.93-3.93-7.11-8.61-9.3-13.8v2.84h83.43,0Z"/>
                <path class="cls-28" d="M140.3,51.25h-3.3v-4.52c-2.13,5.03-5.2,9.55-9.01,13.36-7.6,7.6-18.11,12.31-29.71,12.31s-22.11-4.7-29.71-12.31c-3.8-3.8-6.88-8.33-9.01-13.36v4.52h80.74,0Z"/>
                <path class="cls-28" d="M138.46,51.25h-3.19v-6.2c-2.05,4.86-5.03,9.24-8.71,12.91-7.35,7.35-17.51,11.9-28.72,11.9s-21.37-4.55-28.72-11.9c-3.67-3.67-6.65-8.05-8.71-12.91v6.2h78.05Z"/>
                <path class="cls-28" d="M136.61,51.25h-6.7v-1.22c-1.41,2.09-3.02,4.03-4.79,5.8-7.1,7.1-16.9,11.49-27.73,11.49s-20.63-4.39-27.73-11.49c-1.77-1.77-3.38-3.72-4.79-5.8v1.22h71.74Z"/>
                <path class="cls-28" d="M134.77,51.25h-6.46v-3.13c-1.36,2.01-2.91,3.89-4.62,5.6-6.84,6.84-16.3,11.08-26.74,11.08s-19.9-4.23-26.74-11.08c-1.71-1.71-3.26-3.59-4.62-5.6v3.13h69.18Z"/>
                <path class="cls-28" d="M132.92,51.25h-6.22v-5.04c-1.31,1.94-2.8,3.74-4.45,5.39-6.59,6.59-15.69,10.67-25.75,10.67s-19.16-4.08-25.75-10.67c-1.65-1.65-3.14-3.45-4.45-5.39v5.04h66.61,0Z"/>
                <path class="cls-28" d="M131.07,51.25h-10.26v-1.78c-6.34,6.34-15.09,10.26-24.76,10.26s-18.42-3.92-24.76-10.26v1.78h59.78Z"/>
                <path class="cls-28" d="M129.23,51.25h-9.85v-3.9c-6.08,6.08-14.49,9.85-23.77,9.85s-17.69-3.76-23.77-9.85v3.9h57.39Z"/>
                <path class="cls-28" d="M127.38,51.25h-9.43v-6.02c-5.83,5.83-13.88,9.43-22.78,9.43s-16.95-3.61-22.78-9.43v6.02h54.99,0Z"/>
                <path class="cls-28" d="M125.54,51.25h-18.82v-1.54c-3.69,1.56-7.74,2.42-11.99,2.42s-8.31-.86-11.99-2.42v1.54h42.81Z"/>
              </g>
            </g>
          </g>
          <g>
            <circle class="cls-3" cx="128.28" cy="104.52" r="104.52"/>
            <g class="cls-89">
              <g>
                <path class="cls-40" d="M92.11,2.58l.36.3c-.55.41-.97.39-1.7.78-1.28.69-2.18,1.53-3.1,2.63-1.86,2.24-2.33,4.08-2.31,6.87.01,1.95-.9,3.86-1.68,5.6-1.49,3.31-3.17,6.27-3.56,9.92-.34,3.14-.76,5.18-3.09,7.54-1.27,1.29-2.65,2.48-4.07,3.61-1.3,1.03-2.11,2.08-2.12,3.8-.02,2.15,1.27,4.88-.21,6.79-.86,1.11-2.35.94-3.45,1.82-1.83,1.46-4.91,4.97-2.79,7.17,1.7,1.76,3.62,3.21,3.97,5.87.37,2.83,0,5.92,0,8.78,0,3.02.07,5.3,1.06,8.21.47,1.38.91,2.63,1.06,4.09.2,1.87,1.05,3.85.85,5.74-.21,1.96-1.62,2.7-2.99,3.78-1.76,1.41-2.52,3.44-2.55,5.78-.05,4.22.07,8.25-.41,12.44-.4,3.54-.57,7.12-.45,10.69.04,1.02.54,2.11.5,3.1-.05,1.09-.84,2.02-1.36,2.93-.79,1.4-.82,1.56-.48,3.17.38,1.82-.03,3.44-.35,5.16-.34,1.8.69,2.7,1.81,3.89.61.64,1.07,1.45,1.74,2.03,1.29,1.11,3.37,1.62,4.43,3,1.29,1.68.79,4.81,1.02,6.79.36,3.06,1.22,5.93,2.06,8.9.7,2.46.13,4.73-.61,7.16-.94,3.09-.72,6.03-.38,9.2.22,2.01.28,4.07.62,6.05.31,1.8.98,3.47,1.19,5.3.28,2.41.85,4.72.89,7.16.03,2.1-.15,4.12-.41,6.2-.11.89-.08,1.15-.94,1.34-1.21.27-2.93.05-4.12-.04-4.94-.37-9.15-3.11-12.95-6.09-2.53-1.99-4.44-4.28-6.55-6.68-1.19-1.35-2.47-2.1-3.87-3.16-2.31-1.75-4.36-3.83-6.72-5.56-2.95-2.17-5.51-4.76-8.37-7.03-2.75-2.19-6.15-3.76-7.66-7.12-.96-2.13-1.33-4.6-1.86-6.86-1.61-6.87-5.84-12.89-8.18-19.51-2.59-7.34-4.4-14.97-6.91-22.36-1.84-5.42-3.52-10.45-3.67-16.2-.14-5.33.19-10.43,1.47-15.6.65-2.62,1.42-5.22,2.11-7.83.82-3.11,1.51-6.29,2.79-9.25,2.38-5.49,6.54-10.19,8.65-15.8,1.57-4.17,2.45-8.65,3.64-12.94,1.51-5.43,2.96-10.88,5.07-16.11,1.75-4.35,4.88-8.66,8.22-11.96,2.3-2.28,4.87-3.21,7.93-4.27,5.05-1.75,10.12-3.46,15.14-5.3,2.71-.99,5.71-2.46,8.57-3.22,1.74-.47,3.49-.48,5.24-.77,1.53-.26,2.89-.8,4.32-1.43.68-.3,1.44-.83,2.18-.99.92-.21,1.96-.04,2.9-.06,1.27-.04,1.75.14,2.44,1.25,1.15,1.86,1.68,4.54,1.19,6.7l-.35.12"/>
                <path class="cls-3" d="M51.32,67.45c-.03-.18-.36-.35-.49-.45-.14-.11-.23-.23-.32-.38-.21-.34-.55-.51-.82-.8-.09-.09-.12-.2-.22-.29-.21-.18-.43-.33-.63-.53-.31-.31-.6-.64-.88-.97-.17-.21-.47-.27-.72-.29-.1,0-.19,0-.28-.02-.51-.09-.94-.15-1.46-.02-1.89.47-4.09,2.04-4.31,4.09-.06.54-.04,1.22,0,1.77.05.81.16,2.39.49,3.13.56,1.27,3.06,1.34,3,2.76,1.18.19,2.15.82,3.41.45s2.52-1.94,3.19-2.99c.63-.99,1.39-2.52.89-3.74-.23-.28-.47-.56-.7-.85-.06-.29-.11-.58-.15-.87h0Z"/>
                <path class="cls-40" d="M211.04,102.71c-1.6,2.72-3.24,5.41-4.92,8.08-2.55,3.9-5.43,8.26-9.36,10.92-2.3,1.32-4.55,2.71-6.76,4.17-3.96,2.6-7.74,5.42-11.37,8.47-2.64,2.22-5.43,4.28-8.04,6.54-2.33,2.03-4.36,4.3-6.5,6.53-2.49,2.59-5.42,4.52-5.81,8.32-.05,1.67-.05,3.33.02,5-.03,1.74-.18,3.47-.45,5.19-.52,4.94-.42,9.84-.42,14.8,0,3.01-.36,6.22.37,9.17.49,1.99,1.49,3.77,2.56,5.5s2.01,3.42,2.81,5.29c.74,1.73,1.5,3.73,3.08,4.92,1.11.84,2.5.97,3.83,1.1,4.02.42,8.04.26,12.08.31,1.88.1,3.75.08,5.63-.05,2.85-.53,5.59-1.41,8.22-2.64,5.14-2.16,10.82-4.84,14.68-9.03,4.05-4.4,7.98-8.87,12.16-13.17,4.57-4.71,8.76-9.33,12.06-15.05,2.05-3.55,3.79-7.25,5.74-10.85,1.68-3.11,3.52-5.94,4.69-9.29,1.52-4.34,6.62-7.55,6.81-12.36-.3-1.8-.86-3.51-1.68-5.15-.78-1.76-1.53-3.53-2.26-5.31-1.13-2.4-2.83-4.27-4.46-6.35-.97-.9-1.62-1.97-1.95-3.22-.02-1.06,0-2.12.05-3.18-.03-1.85-.52-3.65-1.29-5.33-.68-1.5-1.28-2.66-2.74-3.53-3.26-1.92-7.17-2.89-10.71-4.13-1.07-.38-2.17-.68-3.28-.94-.46-.11-1.4-.09-1.75-.46-.24-.25-.18-.47-.56-.61-.77-.28-1.71-.05-2.51,0-.76.05-1.32.2-1.96.57-.96.54-1.97,1.09-2.83,1.78-.75.6-1.59,1.13-2.18,1.91-.19.25-.26.5-.35.79-.15.46-.4.88-.63,1.31h0Z"/>
                <path class="cls-76" d="M174.81,6.83l.36.35c-1.44.49-3.13-.34-4.6.13-1.21.38-1.89,1.69-2.26,2.78-.67,1.96-.63,3.82-.7,5.86-.05,1.6-.84,2.9-.88,4.53-.09,4.05-1.09,7.9-1.59,11.93-.23,1.83-.39,3.67-1.25,5.34-.41.8-.79,1.43-1.04,2.3-.58,2.06-.92,3.42-2.87,4.59-.91.54-1.89.91-2.93,1.12-2.46.49-4.47,2.81-4.85,5.25-.46,2.96-.42,5.33,1.86,7.48.99.94,2.43,1.97,3.18,3.12.73,1.11.95,3.9.57,5.22-.42,1.46-2.2,2.34-2.96,3.66-.73,1.28-1.08,2.9-2,4.07-.97,1.25-2.41,1.82-3.07,3.33-.69,1.58-.26,2.23.81,3.43,1.27,1.42,2.93,2.76,3.04,4.82.11,2.03-1.49,3.22-2.8,4.44-2.98,2.78-5.93,5.74-8.72,8.72-.83.88-1.36,1.89-2.08,2.85-.48.66-1.32,1.25-1.31,2.15.96.48,2.49.49,3.47.52,1.47.04,3.16.21,4.55-.27,1.31-.45,1.74-1.05,3.24-1.04,2.69.03,6.41.04,8.1,2.52.73,1.07.9,2.83.77,4.08-.3,2.8-2.31,4.19-4.78,5-2.42.79-4.88.85-7.4.73-1.48-.07-2.99-.84-4.49-.38-.68,2.37,2.55,4.6,3.36,6.67.47,1.2.74,3.04.27,4.27-.49,1.28-1.46,2.03-2.29,2.98-1.3,1.49-.91,3.88-3.01,4.77-1.08.46-2.23.82-3.34,1.17-1.79.56-3.68.67-5.28,1.72-.83.54-1.23,1.36-.29,2.13.46.38.84.31,1.37.4,1.33.22,2.72.33,4.06.41,2.28.13,5.01.18,6.76,1.87,1.78,1.71.36,2.76-1.2,4.2-2.12,1.96-4.27,4.68-7.27,5.32-1.36.29-2.77-.08-4.15.15-.98.17-1.98.45-2.95.66-1.82.4-3.62,1.06-5.21,2.02-1.51.91-2.61,1.35-3.43,2.83-.36.65-.9,1.3-1.11,2.02-.33,1.12.06,1.57-.6,2.69-.69,1.15-1.64,2.13-2.3,3.32-.6,1.09-.67,1.95-.98,3.05-.36,1.26-.74,2.67-1.26,3.9-.41.97-.98,1.84-1.32,2.84-.22.75-.39,1.51-.51,2.28-.21.48-.43.95-.67,1.42-.36,1.43-.07,3.18-.07,4.63,0,2.03.36,4.43,0,6.43-.36,1.94-2.29,3.28-3.43,4.79-.46.61-.71,1.37-1.29,1.89-.77.69-1.69.87-2.31,1.79-1.3,1.92-1.87,4.23-2.71,6.39-.24.62-1.19,1.88-1.21,2.53-.01.47.29.35.39.78.12.52.1,1.64,0,2.18-.16.83-.33,1.74-.54,2.55-.15.56-.69,1.38-.28,2,.78,1.2,2.61.76,3.71,1.02,1.02.24,1.91.64,2.97.76,1.91.2,3.83-.18,5.74.11,3.3.5,6.62.48,9.96.08,4.61-.55,9.28-.43,13.86-1.14,1.81-.28,3.55-.22,5.3-.7,1.45-.4,2.85-.87,4.27-1.33,2.07-.65,4.21-.52,6.28-1.27,1.28-.47,2.55-.42,3.88-.8,1.25-.36,2.26-.72,3.42-1.23.21-.09.57-.03.77-.15,2.97-1.74,5.68-3.86,8.39-5.98.58-.46,1.12-1.01,1.53-1.62.24-.36.52-.82.7-1.22.29-.67.24-1.06.4-1.73.31-1.27.62-2.22.77-3.64.15-1.47.1-2.92.09-4.39,0-1.22.17-2.48-.19-3.64-.38-1.24-1.66-1.97-1.97-3.16-.16-.62.01-.83-.36-1.48-.13-.23-.6-.77-.74-.95-.73-.94-2.04-1.31-2.67-2.36-.8-1.34-1.21-3.88-1.3-5.39-.08-1.4.03-2.83.02-4.23-.01-2.03.5-3.63.94-5.61.38-1.72,1.04-3.13,1.9-4.63.61-1.06,1.17-2.2,1.75-3.28.45-.85.51-1.43,1.3-1.98,1.25-.88,3.26-1.29,4.75-1.58,1.24-.25,2.51-.32,3.76-.52,1.87-.3,3.46-1.05,5.22-1.71,4.46-1.67,9.39-2.15,13.67-4.32,1.16-.59,2.12-1.29,3.2-2,1.17-.77,2.52-1.16,3.83-1.68,2.86-1.15,5.36-2.91,8.28-3.87,2.19-.72,3.93-2.3,5.63-3.83,1.98-1.78,2.19-5.58,2.17-8.07,0-1.51.31-3.29-.06-4.75-.3-1.2-1.23-2.34-1.64-3.53-.69-2-.17-3.96-.51-5.98s-.63-4.32-.34-6.38c.29-1.99,3.27-2.4,4.96-1.97.79.2,1.92,1.04,2.52,1.53,1.09.89.61,1.62,1.28,2.67.1.15,1.28.96,1.4,1.29.26.76-.06.74.44,1.25.65.66,1.89.66,2.7,1.16.32.2.26.42.68.55.39.12,1.38.04,1.79.02,1.97-.14,3.32-2.69,4.2-4.29,1.47-2.66,2.73-5.64,3.25-8.63,1.72-9.9,4.44-19.69,5.16-29.76.26-3.55.08-6.67-.82-10.15-1.92-7.45-5.3-14.37-8.75-21.2-1.36-2.69-2.76-5.34-4.25-7.95-.73-1.34-1.53-2.65-2.4-3.9-1.98-1.89-4.16-3.51-6.55-4.85-1.72-1.07-3.52-2.23-5.45-2.91-3.92-1.39-8.45-1.85-12.44-2.89-3-.79-5.88-1.79-8.82-2.75-1.7-.55-3.41-1.09-5.12-1.63-1.04-.27-2.07-.58-3.09-.93-.36-.2-.63-.56-.95-.74-.9-.53-1.52-.45-2.61-.61-3-.45-6.02-.3-9.06-.64-1.65-.18-3.62-.4-1.35-2.22h0Z"/>
                <path class="cls-3" d="M48.38,120.34l.06.05c.1-.26-.49-.65-.59-.72-.74-.47-1.62-.86-2.45-1.11-2.41-.72-4.94-.49-7.41-.78-.72-.08-1.44-.15-2.16-.17-.28,0-.57-.02-.84,0-.35.03-.93.11-1.21.28-.21.13-.33.19-.35.46-.01.18,0,.38,0,.56,0,.37-.02.73,0,1.09.05.68.34,1.21.66,1.81.4.76.76,1.5.91,2.34.15.88.23,1.76.23,2.65,0,.58-.03,1.02.18,1.59.3.83.74,1.61,1.2,2.37.32.54.7,1.13,1.1,1.63.44.55.86.91,1.51,1.27,1.04.57,2.16.92,3.29,1.28.71.22,1.46.56,2.04,1.04.32.27.58.68.85,1,.48.58,1.02,1.1,1.48,1.69.33.43.67.84.97,1.3.27.42.48.86.71,1.3.25.49.48.95.79,1.41.27.39.6.72.91,1.08.44.52.9,1.02,1.33,1.55.52.65,1.08,1.28,1.7,1.83.21.19.38.39.65.23.77-.45,1.4-1.14,2.12-1.65.53-.37,1.15-.58,1.67-.95.46-.33.87-.73,1.31-1.08.45-.35.85-.75,1.13-1.26.14-.26.23-.54.38-.79.24-.4.52-.76.74-1.17.22-.41.43-.81.54-1.26l.09-.36c0-.31-.02-.62-.05-.93-.07-.92.09-1.88-.22-2.78-.46-1.36-1.34-2.53-1.82-3.88-.19-.54-.16-1.14-.38-1.68-.08-.21-.16-.36-.32-.52-.41-.41-.91-.75-1.38-1.09-.57-.42-1.17-.77-1.69-1.25-.68-.61-1.58-.92-2.41-1.28-.36-.15-.79-.28-1.08-.55-.1-.08-.19-.18-.26-.29l-.4-.32c-.45-.34-.97-.59-1.35-1.01-.16-.18-.28-.39-.42-.58-.12-.16-.25-.29-.33-.46-.12-.25-.16-.49-.33-.72-.24-.35-.62-.58-.99-.77-.22-.12-.33-.22-.14-.41h0Z"/>
              </g>
            </g>
          </g>
          <g class="cls-36">
            <g class="cls-60">
              <g>
                <rect class="cls-4" x="23.76" y="0" width="209.04" height="209.04"/>
                <path class="cls-4" d="M233.8,104.52v45.59h2.4c-5.93,14.01-14.5,26.63-25.1,37.23-10.6,10.6-23.22,19.17-37.23,25.1v-2.4h-91.18v2.4c-14.01-5.93-26.63-14.5-37.23-25.1-10.6-10.6-19.17-23.22-25.1-37.23h2.4V58.93h-2.4c5.93-14.01,14.5-26.63,25.1-37.23C56.06,11.1,68.68,2.53,82.69-3.4V-1h91.18v-2.4c14.01,5.93,26.63,14.5,37.23,25.1,10.6,10.6,19.17,23.22,25.1,37.23h-2.4v45.59h0Z"/>
                <path class="cls-74" d="M233.8,103.95v45.18h1.01c-5.87,13.89-14.37,26.39-24.88,36.9s-23.01,19-36.9,24.88v-.87h-90.36v.87c-13.89-5.87-26.39-14.37-36.9-24.88s-19-23.01-24.88-36.9h1.86V58.77h-1.86c5.87-13.89,14.37-26.39,24.88-36.9S68.78,2.87,82.67-3.01V-1h90.36v-2.01c13.89,5.87,26.39,14.37,36.9,24.88s19,23.01,24.88,36.9h-1.01v45.18h0Z"/>
                <path class="cls-56" d="M233.8,103.38v23.18h6.32c-1.53,7.49-3.79,14.71-6.7,21.59-5.82,13.76-14.24,26.16-24.65,36.56-10.41,10.41-22.8,18.83-36.56,24.65-6.88,2.91-14.1,5.17-21.59,6.7v-6.04h-46.36v6.04c-7.49-1.53-14.71-3.79-21.59-6.7-13.76-5.82-26.16-14.24-36.56-24.65-10.41-10.41-18.83-22.8-24.65-36.56h1.33V58.61h-1.33c5.82-13.76,14.24-26.16,24.65-36.56C56.5,11.63,68.89,3.21,82.65-2.61V-1h89.55v-1.61c13.76,5.82,26.16,14.24,36.56,24.65,10.41,10.41,18.83,22.8,24.65,36.56,2.91,6.88,5.17,14.1,6.7,21.59h-6.32v23.18h0Z"/>
                <path class="cls-27" d="M233.8,102.81v22.97h4.87c-1.52,7.42-3.76,14.58-6.64,21.4-5.77,13.64-14.11,25.92-24.43,36.23-20.63,20.63-49.12,33.39-80.6,33.39s-59.97-12.76-80.6-33.39c-10.31-10.31-18.66-22.59-24.43-36.23h.79V58.45h-.79c5.77-13.64,14.11-25.92,24.43-36.23C56.71,11.9,69,3.55,82.63-2.21v1.21h88.74v-1.21c13.64,5.77,25.92,14.11,36.23,24.43s18.66,22.59,24.43,36.23c2.88,6.82,5.12,13.98,6.64,21.4h-4.87v22.97h0Z"/>
                <path class="cls-73" d="M239.51,102.25c0,62.38-50.57,112.94-112.94,112.94-31.19,0-59.42-12.64-79.86-33.08-10.22-10.22-18.49-22.39-24.2-35.9h.25V58.28h-.25c5.72-13.51,13.98-25.68,24.2-35.9S69.1,3.9,82.61-1.82v.82h87.92v-.82c13.51,5.71,25.68,13.99,35.9,24.2,20.44,20.44,33.08,48.67,33.08,79.86h0Z"/>
                <path class="cls-32" d="M238.04,101.68c0,61.8-50.1,111.89-111.89,111.89-30.9,0-58.87-12.52-79.12-32.77-10.12-10.12-18.32-22.18-23.98-35.57-2.83-6.69-5.03-13.72-6.52-21h6.23v-45.1h-6.23c1.49-7.28,3.69-14.31,6.52-21,5.66-13.39,13.85-25.44,23.98-35.57S69.21,4.24,82.59-1.42v.42h87.11v-.42c13.39,5.66,25.44,13.85,35.57,23.98,20.25,20.25,32.77,48.22,32.77,79.12h0Z"/>
                <path class="cls-5" d="M236.57,101.11c0,61.22-49.63,110.85-110.85,110.85-30.61,0-58.32-12.41-78.38-32.47-10.03-10.03-18.15-21.97-23.76-35.23-2.8-6.63-4.98-13.59-6.46-20.81h5.63v-44.68h-5.63c1.48-7.22,3.65-14.18,6.46-20.81,5.61-13.26,13.73-25.21,23.76-35.23C57.37,12.7,69.32,4.58,82.58-1.03v.03h86.29v-.03c13.26,5.61,25.21,13.73,35.23,23.76,20.06,20.06,32.47,47.77,32.47,78.38h0Z"/>
                <path class="cls-99" d="M235.1,100.54c0,60.64-49.16,109.8-109.8,109.8-30.32,0-57.77-12.29-77.64-32.16-9.93-9.93-17.97-21.77-23.53-34.9-2.78-6.57-4.93-13.46-6.4-20.61h5.03v-44.26h-5.03c1.46-7.15,3.62-14.04,6.4-20.61,5.56-13.14,13.6-24.97,23.53-34.9C57.59,12.96,69.42,4.92,82.56-.63c6.57-2.78,13.46-4.93,20.61-6.4V-1h44.26v-6.03c7.15,1.46,14.04,3.62,20.61,6.4,13.14,5.56,24.97,13.6,34.9,23.53,19.87,19.87,32.16,47.32,32.16,77.64Z"/>
                <path class="cls-68" d="M233.63,99.97c0,60.07-48.69,108.76-108.76,108.76S16.12,160.04,16.12,99.97c0-30.03,12.17-57.22,31.85-76.9C57.81,13.23,69.53,5.27,82.54-.24c6.51-2.75,13.34-4.89,20.41-6.34V-1h43.84v-5.57c7.08,1.45,13.91,3.58,20.41,6.34,13.01,5.5,24.73,13.47,34.57,23.31,19.68,19.68,31.85,46.87,31.85,76.9h0Z"/>
                <path class="cls-41" d="M232.16,99.4c0,59.49-48.22,107.71-107.71,107.71S16.73,158.89,16.73,99.4c0-29.74,12.06-56.67,31.55-76.16C58.03,13.5,69.63,5.61,82.52.16c6.44-2.73,13.21-4.84,20.22-6.28V-1h43.41v-5.12c7.01,1.43,13.78,3.55,20.22,6.28,12.89,5.45,24.49,13.34,34.24,23.08,19.49,19.49,31.55,46.42,31.55,76.16h0Z"/>
                <circle class="cls-88" cx="124.02" cy="98.84" r="106.66"/>
                <circle class="cls-8" cx="123.59" cy="98.27" r="105.62"/>
                <circle class="cls-75" cx="123.17" cy="97.7" r="104.57"/>
                <circle class="cls-7" cx="122.74" cy="97.13" r="103.53"/>
                <circle class="cls-29" cx="122.31" cy="96.56" r="102.48"/>
                <circle class="cls-69" cx="121.89" cy="96" r="101.44"/>
                <circle class="cls-19" cx="121.46" cy="95.43" r="100.39"/>
                <circle class="cls-93" cx="121.04" cy="94.86" r="99.35"/>
                <circle class="cls-14" cx="120.61" cy="94.29" r="98.3"/>
                <circle class="cls-86" cx="120.19" cy="93.72" r="97.25"/>
                <circle class="cls-6" cx="119.76" cy="93.15" r="96.21"/>
                <circle class="cls-22" cx="119.33" cy="92.59" r="95.16"/>
                <circle class="cls-92" cx="118.91" cy="92.02" r="94.12"/>
                <circle class="cls-59" cx="118.48" cy="91.45" r="93.07"/>
                <circle class="cls-49" cx="118.06" cy="90.88" r="92.03"/>
                <circle class="cls-101" cx="117.63" cy="90.31" r="90.98"/>
                <circle class="cls-108" cx="117.2" cy="89.74" r="89.93"/>
                <circle class="cls-26" cx="116.78" cy="89.18" r="88.89"/>
                <circle class="cls-95" cx="116.35" cy="88.61" r="87.84"/>
                <circle class="cls-46" cx="115.93" cy="88.04" r="86.8"/>
                <circle class="cls-51" cx="115.5" cy="87.47" r="85.75"/>
                <circle class="cls-84" cx="115.07" cy="86.9" r="84.71"/>
                <circle class="cls-18" cx="114.65" cy="86.34" r="83.66"/>
                <circle class="cls-2" cx="114.22" cy="85.77" r="82.61"/>
                <circle class="cls-50" cx="113.8" cy="85.2" r="81.57"/>
                <circle class="cls-10" cx="113.37" cy="84.63" r="80.52"/>
                <circle class="cls-30" cx="112.94" cy="84.06" r="79.48"/>
                <circle class="cls-11" cx="112.52" cy="83.49" r="78.43"/>
                <circle class="cls-45" cx="112.09" cy="82.93" r="77.38"/>
                <circle class="cls-109" cx="111.67" cy="82.36" r="76.34"/>
                <circle class="cls-38" cx="111.24" cy="81.79" r="75.29"/>
                <circle class="cls-103" cx="110.82" cy="81.22" r="74.25"/>
                <circle class="cls-55" cx="110.39" cy="80.65" r="73.2"/>
                <circle class="cls-78" cx="109.96" cy="80.09" r="72.16"/>
                <circle class="cls-66" cx="109.54" cy="79.52" r="71.11"/>
                <circle class="cls-25" cx="109.11" cy="78.95" r="70.06"/>
                <circle class="cls-61" cx="108.69" cy="78.38" r="69.02"/>
                <circle class="cls-85" cx="108.26" cy="77.81" r="67.97"/>
                <circle class="cls-102" cx="107.83" cy="77.24" r="66.93"/>
                <circle class="cls-98" cx="107.41" cy="76.68" r="65.88"/>
                <circle class="cls-43" cx="106.98" cy="76.11" r="64.84"/>
                <circle class="cls-9" cx="106.56" cy="75.54" r="63.79"/>
                <circle class="cls-52" cx="106.13" cy="74.97" r="62.74"/>
                <circle class="cls-70" cx="105.71" cy="74.4" r="61.7"/>
                <circle class="cls-110" cx="105.28" cy="73.84" r="60.65"/>
                <circle class="cls-94" cx="104.85" cy="73.27" r="59.61"/>
                <circle class="cls-94" cx="104.43" cy="72.7" r="58.56"/>
                <circle class="cls-21" cx="104" cy="72.13" r="57.52"/>
                <circle class="cls-21" cx="103.57" cy="71.56" r="56.47"/>
                <circle class="cls-82" cx="103.15" cy="70.99" r="55.42"/>
                <circle class="cls-82" cx="102.72" cy="70.43" r="54.38"/>
                <circle class="cls-54" cx="102.3" cy="69.86" r="53.33"/>
                <circle class="cls-54" cx="101.87" cy="69.29" r="52.29"/>
                <circle class="cls-16" cx="101.45" cy="68.72" r="51.24"/>
                <circle class="cls-16" cx="101.02" cy="68.15" r="50.2"/>
                <circle class="cls-83" cx="100.59" cy="67.59" r="49.15"/>
                <circle class="cls-24" cx="100.17" cy="67.02" r="48.1"/>
                <circle class="cls-105" cx="99.74" cy="66.45" r="47.06"/>
                <circle class="cls-105" cx="99.32" cy="65.88" r="46.01"/>
                <circle class="cls-17" cx="98.89" cy="65.31" r="44.97"/>
                <circle class="cls-17" cx="98.46" cy="64.74" r="43.92"/>
                <circle class="cls-96" cx="98.04" cy="64.18" r="42.87"/>
                <circle class="cls-62" cx="97.61" cy="63.61" r="41.83"/>
                <circle class="cls-13" cx="97.19" cy="63.04" r="40.78"/>
                <circle class="cls-71" cx="96.76" cy="62.47" r="39.74"/>
                <circle class="cls-71" cx="96.34" cy="61.9" r="38.69"/>
                <circle class="cls-71" cx="95.91" cy="61.33" r="37.65"/>
                <circle class="cls-71" cx="95.48" cy="60.77" r="36.6"/>
                <circle class="cls-90" cx="95.06" cy="60.2" r="35.55"/>
                <circle class="cls-91" cx="94.63" cy="59.63" r="34.51"/>
                <circle class="cls-91" cx="94.21" cy="59.06" r="33.46"/>
                <circle class="cls-91" cx="93.78" cy="58.49" r="32.42"/>
                <circle class="cls-91" cx="93.35" cy="57.93" r="31.37"/>
                <circle class="cls-57" cx="92.93" cy="57.36" r="30.33"/>
                <circle class="cls-57" cx="92.5" cy="56.79" r="29.28"/>
                <circle class="cls-57" cx="92.08" cy="56.22" r="28.23"/>
                <circle class="cls-57" cx="91.65" cy="55.65" r="27.19"/>
                <circle class="cls-67" cx="91.22" cy="55.08" r="26.14"/>
                <circle class="cls-28" cx="90.8" cy="54.52" r="25.1"/>
                <circle class="cls-28" cx="90.37" cy="53.95" r="24.05"/>
                <circle class="cls-28" cx="89.95" cy="53.38" r="23.01"/>
                <circle class="cls-28" cx="89.52" cy="52.81" r="21.96"/>
                <circle class="cls-28" cx="89.09" cy="52.24" r="20.91"/>
                <circle class="cls-28" cx="88.67" cy="51.68" r="19.87"/>
                <circle class="cls-28" cx="88.24" cy="51.11" r="18.82"/>
                <circle class="cls-28" cx="87.82" cy="50.54" r="17.78"/>
                <circle class="cls-28" cx="87.39" cy="49.97" r="16.73"/>
                <circle class="cls-28" cx="86.97" cy="49.4" r="15.69"/>
                <circle class="cls-28" cx="86.54" cy="48.83" r="14.64"/>
                <circle class="cls-28" cx="86.11" cy="48.27" r="13.59"/>
                <circle class="cls-28" cx="85.69" cy="47.7" r="12.55"/>
                <circle class="cls-28" cx="85.26" cy="47.13" r="11.5"/>
                <circle class="cls-28" cx="84.84" cy="46.56" r="10.46"/>
                <circle class="cls-28" cx="84.41" cy="45.99" r="9.41"/>
                <circle class="cls-28" cx="83.98" cy="45.43" r="8.37"/>
                <circle class="cls-28" cx="83.56" cy="44.86" r="7.32"/>
                <circle class="cls-28" cx="83.13" cy="44.29" r="6.27"/>
                <circle class="cls-28" cx="82.71" cy="43.72" r="5.23"/>
                <circle class="cls-28" cx="82.28" cy="43.15" r="4.18"/>
                <circle class="cls-28" cx="81.85" cy="42.58" r="3.14"/>
                <circle class="cls-28" cx="81.43" cy="42.02" r="2.09"/>
                <circle class="cls-28" cx="81" cy="41.45" r="1.05"/>
              </g>
            </g>
          </g>
        </g>
      </g>
    </g>
  </g>
</svg>