<?xml version="1.0" encoding="UTF-8"?>
<svg id="Layer_2" xmlns="http://www.w3.org/2000/svg" viewBox="0 0 655 163">
  <defs>
    <style>
      .cls-1 {
        fill: #f6f6f6;
      }

      .cls-2 {
        fill: #f16e21;
      }

      .cls-3 {
        fill: #35363a;
      }
    </style>
  </defs>
  <g id="logo">
    <g>
      <path class="cls-3" d="M654.5,163H0V.5c1,0,2,0,3,0,216.07,0,432.14,0,648.21,0h3.29v162.49ZM272.39,112.23c-.06-.02-.12-.05-.18-.07-.91-.03-1.83-.06-2.74-.08-2.81.02-5.61.05-8.42.07-.95.03-1.9.06-2.86.08-.46.46-1.4,1.16-1.31,1.34.44.86,1.01,1.99,1.8,2.26,1.22.42,2.65.21,3.99.27.38.52.76,1.05,1.14,1.57l-.14.83c.06,4.87.11,9.74.17,14.62-.05.03-.14.07-.13.1.01.07.04.17.1.2.5.25,1.01.48,1.52.72.53-.56,1.06-1.12,1.59-1.68.06-2.04.2-4.07.15-6.1-.07-2.84-.28-5.68-.42-8.51l1.2-1.78c1.18-.03,2.37.01,3.54-.1,1.67-.16,2.46-1.03,1.99-2.77l-1-.96ZM593.63,36.64c.25.2.51.41.76.61-.04,9.87-.08,19.74-.1,29.6,0,2.07,1.14,3.28,3.13,3.54,1.31.18,2.66.19,3.98.06,2.84-.28,3.52-1.13,3.52-4.04,0-10.7-.01-21.4-.02-32.1,0-4.51-2.15-6.67-6.73-6.69-9.48-.03-18.96-.03-28.44-.01-3.33,0-4,.79-3.99,4.46.01,4.2.3,4.57,3.96,4.58,7.98.02,15.96,0,23.95,0ZM61.42,85.92c-10.24,0-20.48.06-30.72-.04-2.42-.02-3.3.8-3.12,3.19.59,7.82,3.26,15.05,6.9,21.81,3.65,6.78,8.47,12.78,14.52,17.76,8.52,7.02,18.16,11.71,29.04,13.2,10.45,1.44,20.79.77,30.86-3.28,7.85-3.16,14.77-7.51,20.73-13.35,4.68-4.58,8.84-9.66,11.39-15.8,1.99-4.79,4.59-9.52,5.45-14.53,2.13-12.38,1.93-24.68-3.27-36.59-2.72-6.21-6.05-11.93-10.49-16.97-8.33-9.44-18.58-15.72-30.89-18.87-8.25-2.11-16.55-2.2-24.74-.89-10.1,1.61-19.33,5.8-27.25,12.43-5.61,4.7-10.68,9.92-14.11,16.48-1.67,3.2-3.49,6.39-4.6,9.79-1.5,4.6-2.45,9.39-3.47,14.14-.45,2.13.61,3.18,2.93,3.17,20.56-.07,41.12-.04,61.68-.17,1.09,0,2.49-.88,3.18-1.78,1.18-1.55,1.77-3.52,2.86-5.16,2.16-3.25,5.17-5.53,8.78-7.06,4.43-1.88,9.01-2.04,13.37-.38,5.6,2.12,9.66,5.89,11.98,11.77,2.43,6.15,1.62,11.91-1.5,17.1-3.42,5.69-8.8,8.85-15.82,9.28-7.46.46-15.67-4.59-18.41-11.48-.95-2.4-2.4-3.95-5.58-3.87-9.9.25-19.81.09-29.72.1ZM472.77,59.76c2.95,0,5.17.04,7.4-.01,2.07-.05,3.16-1.05,3.06-3.26-.11-2.74-.09-5.48-.08-8.22,0-3.28.03-3.2,4.78-3.9,2.48-.37,3.42,1.01,3.73,2.97.56,3.49,2.29,6.24,4.68,8.75,5.64,5.9,14.15,7.2,21.16,3.35,8.33-4.57,12.4-13.9,7.34-23.71-3.14-6.09-8.63-9.38-15.23-9.42-8.28-.05-14.48,3.84-17.62,12.28-.21.58-.68,1.06-1.15,1.78-.46-.63-.81-.89-.81-1.15-.02-3.2-2.1-3.47-4.56-3.29-1.82.14-2.2-1.04-2.3-2.53q-.41-5.72-6.19-5.67c-.08,0-.17,0-.25,0-3.49.06-4.02.58-4.01,4.05.01,7.06.03,14.11.04,21.17,0,2.05,0,4.1,0,6.81ZM294.48,57.83s0-.08,0-.11c5.07,0,10.15.09,15.22-.03,3.57-.08,3.56-.68,3.54-3.61-.03-6.72-.06-13.45-.04-20.17.02-6.27.05-6.27-6.27-6.17-3.58.06-3.68.06-3.75,3.56-.04,2.04-.87,2.83-2.85,2.81-4.74-.04-9.48-.03-14.23,0-1.98.01-2.8-.89-2.86-2.88-.09-2.99-.68-3.46-3.77-3.51-1-.02-2-.01-2.99,0-3.19.07-3.57.42-3.58,3.6,0,6.64.19,13.29-.02,19.92-.14,4.51,2.39,6.7,6.61,6.6,4.99-.12,9.98-.03,14.97-.03ZM293.58,75.73c.11.27.21.54.32.81-1.95,1.7-3.87,3.42-5.85,5.08-3.35,2.82-6.76,5.59-10.1,8.43-1.22,1.03-1.24,2.24.52,2.34,4.42.26,8.76.65,12.54-2.95,4.16-3.96,8.87-7.36,13.46-10.86.74-.56,2.42-.91,3.02-.47,4.01,2.89,8.08,5.76,11.68,9.13,4.16,3.9,8.61,6.29,14.43,5.23.66-.12,1.26-.58,1.89-.88-.32-.54-.52-1.21-.97-1.59-4.23-3.58-8.52-7.1-12.75-10.68-1.08-.91-2-2-2.99-3.01.11-.24.22-.47.33-.71,1.2-.09,2.39-.24,3.59-.24,4.24,0,8.49,0,12.73.08,2.02.04,2.93-.84,2.82-2.84-.04-.83,0-1.66-.01-2.49-.03-2.3-.96-3.37-3.51-3.31-6.74.16-13.48.05-20.22.08-1.89,0-3.32-.41-3.24-2.73.06-1.97-1.41-2.7-2.92-2.7-2.36-.01-5.08-.95-6.83,1.65-.16.24-.14.65-.12.97.17,2.25-1.04,2.85-3.07,2.82-5.41-.07-10.82-.04-16.22-.03-.99,0-2.01-.01-2.98.19-2.27.48-4.04,2.55-3.95,4.45.11,2.19,1.7,3.6,4.4,3.86.74.07,1.5.08,2.24.07,2.83-.02,5.66-.09,8.49-.06,1.09.01,2.18.24,3.27.38ZM438.97,27.92c-5.4,0-10.81-.02-16.21,0-2.67.01-4,1.12-3.99,3.37.01,7.46.04,14.93.13,22.39.05,3.54,2.41,5.82,6.05,5.83,9.98.02,19.95-.02,29.93-.07,2.47-.01,3.88-1.6,3.88-4.11-.02-7.71-.04-15.43,0-23.14.01-3.22-1.01-4.28-4.31-4.28-5.15,0-10.31,0-15.46,0ZM173.46,95.64c-.11,1.75-.29,3.19-.26,4.63.05,2.68,1.1,3.59,3.74,3.21,1.13-.16,2.38-.41,3.31-1.01,7.47-4.87,11.97-11.57,12.09-20.69.19-15.11.25-30.21.38-45.32.03-3.93.23-4.23,4.06-4.87,1.57-.26,2.43-1.15,2.11-2.44-.18-.73-1.54-1.63-2.39-1.65-6.15-.14-12.31-.14-18.46,0-.89.02-2.32.82-2.52,1.53-.43,1.5.61,2.3,2.22,2.56,4.2.7,4.32.82,4.32,5.04,0,17.93,0,35.86-.12,53.79-.05,7.76-.64,8.07-8.49,5.22ZM237.05,26.12c-.06.27-.11.55-.17.82-5.89-.19-11.3,1.05-16.22,4.53-5,3.53-8.79,7.86-10.56,13.71-2.44,8.06-2.64,16.22-.03,24.28,1.99,6.14,5.5,11.18,11.19,14.63,6.86,4.15,14.3,4.8,21.9,3.48,3.16-.55,6.2-2.26,9.05-3.87.84-.47.86-2.38,1.26-3.64-1.12,0-2.49-.42-3.33.07-3.52,2.06-7.34,1.87-11.15,1.97-9.6.25-15.28-5.81-17.83-13.23-3.48-10.11-3.24-20.05,3.75-29.13,2.22-2.88,4.75-4.76,8.04-6.06,6.4-2.53,12.36-1.33,18.23,1.62.51.26,1.42.36,1.81.07.4-.29.71-1.38.48-1.71-.99-1.43-1.95-3.39-3.38-3.9-4.23-1.53-8.68-2.47-13.04-3.63ZM403.86,64.58c1.28,0,1.97.1,2.61-.02,1.08-.21,2.13-.57,3.19-.87-.46-.99-.78-2.09-1.41-2.95-3.92-5.33-7.91-10.61-11.89-15.89-4.24-5.61-8.44-11.25-12.78-16.79-2.52-3.21-5.91-3.29-8.79-.4-.82.82-1.55,1.73-2.25,2.65-4.77,6.25-9.51,12.51-14.27,18.76-3.06,4.01-6.19,7.98-9.19,12.03-.53.71-.62,1.75-.91,2.64.92.28,1.84.72,2.78.79,1.65.13,3.35.2,4.98-.04,1.15-.17,2.62-.6,3.27-1.43,5.43-6.99,10.76-14.06,16.01-21.19,3.52-4.78,3.43-4.84,7.02-.13.15.2.35.36.5.56,3.98,5.29,7.86,10.65,11.96,15.85,2.5,3.17,4.19,7.84,9.17,6.44ZM379.72,90.57c9.15,0,18.29.05,27.44-.06,1.35-.02,3.34-.43,3.93-1.35,2.16-3.41-.09-7.16-4.06-7.17-6.82-.03-13.64-.05-20.45,0-2.08.01-3.09-.7-2.91-2.93.16-1.98.02-3.98.08-5.97.25-7.84-.81-5.96-6.19-6.28-2.38-.14-3.14,1.08-3.2,3.09-.06,1.91,0,3.82,0,5.72q0,6.38-6.45,6.38c-5.57,0-11.14-.03-16.71.08-2.36.04-4.51,2.33-4.48,4.44.04,2.08,1.85,3.78,4.31,4,.74.07,1.49.06,2.24.07,8.81,0,17.63,0,26.44,0ZM525.43,90.56c8.82,0,17.65,0,26.47,0,3.22,0,3.52-.32,3.59-3.6,0-.5.03-1,0-1.49-.11-2.91-.68-3.47-3.55-3.49-1.25,0-2.5,0-3.75,0-13.73,0-27.47,0-41.2,0-4.2,0-4.26-.06-4.24-4.13,0-1.25,0-2.49.03-3.74.06-3.86-.6-4.54-4.4-4.53-.75,0-1.51-.07-2.25.01-2,.22-3.21,1.27-3.21,3.38,0,3.82-.06,7.64.06,11.46.13,4.27,1.86,6.26,6.23,6.18,8.74-.16,17.48-.05,26.22-.05ZM479.36,77.31c.51-9.25-8.5-17.23-17.42-16.94-8.98.3-17.36,7.3-17.35,16.91.01,9.13,8.16,16.93,17.58,17.01,8.79.07,17.69-7.91,17.18-16.98ZM598.08,91.57c8.65,0,17.31,0,25.96,0,4.59,0,5.11-.52,5.1-5.16,0-11.54,0-23.08-.04-34.61,0-2.19.31-3.96,2.92-4.45.52-.1,1.3-.8,1.32-1.26.11-2.23.07-4.47-.06-6.69-.03-.43-.72-1.18-1.09-1.17-3.54.05-3.07-2.39-3.06-4.64.02-7.42.42-6.11-6.28-6.23-4.44-.08-4.82.4-4.82,4.84.01,15.36-.02,30.71.06,46.07.01,2.26-.76,3.1-3.03,3.07-7.99-.08-15.98-.08-23.96,0-2.2.02-3.14-.61-3.05-2.99.17-4.73.01-9.46.09-14.19.03-1.57-.54-2.81-2.03-2.93-2.19-.18-4.45-.08-6.63.22-1.8.25-2.48,1.53-2.42,3.44.13,4.31.05,8.63.06,12.95,0,3.28-.17,3.46-3.56,3.48-1.41,0-2.84.11-4.24-.01-2.86-.24-4.13,1.91-5.33,3.77-.47.72-.02,2.42.55,3.34,1.58,2.59,4.34,3.11,7.1,3.13,8.82.07,17.64.03,26.46.03ZM546.26,44.92s0,0,.01,0c0,3.82.01,7.63,0,11.45q-.03,5.61,5.58,5.57c3.08-.02,3.61-.48,3.65-3.6.04-3.57.1-7.14-.08-10.7-.12-2.33.98-3.1,3.04-3.27.95-.08,2.61-.2,2.71-.6.5-2.02.83-4.16.64-6.2-.05-.58-2.05-1.26-3.21-1.39-2.07-.23-3.15-.9-3.17-3.2-.03-4.91-.23-5.01-5.08-4.97-3.65.03-4.09.48-4.08,4.22,0,4.23,0,8.46,0,12.69ZM338.28,43.13s.01,0,.02,0c0-3.32,0-6.64,0-9.95q.02-5.34-5.36-5.35c-3.79,0-4.2.43-4.2,4.32,0,6.39.02,12.77.02,19.16,0,6.58-.02,6.51,6.53,6.46,2.2-.01,3-.92,2.99-2.95-.02-3.9,0-7.8,0-11.69ZM365.27,135.08c1.16-1.82,2.12-3.42,3.18-4.96.44-.63.99-1.43,1.65-1.62,4.45-1.3,7.09-.01,9.15,4.28.14.3.27.74.5.83.84.31,1.72.5,2.59.73.15-1.02.69-2.17.38-3.02-.92-2.53-2.19-4.92-3.28-7.39-1.54-3.52-2.99-7.08-4.61-10.55-.27-.57-1.28-1.19-1.88-1.13-.76.07-1.79.66-2.1,1.31-1.05,2.21-1.81,4.56-2.74,6.83-1.11,2.72-2.37,5.38-3.39,8.14-.74,2-2.09,4.13.56,6.57ZM348.22,127.88c-.28-.09-.56-.17-.84-.26-.22-.68-.42-1.36-.66-2.04-1.37-3.85-2.63-7.75-4.22-11.52-.35-.82-1.91-1.61-2.84-1.54-.66.05-1.67,1.58-1.7,2.47-.18,5.63-.17,11.27-.1,16.91,0,.66.75,1.31,1.15,1.96.66-.64,1.76-1.21,1.89-1.94.26-1.43-.07-2.96-.09-4.45-.03-2.01,0-4.03,0-6.77,1.33,1.65,1.94,3.16,2.99,3.57,2.11.83,1.5,2.35,1.34,3.66-.33,2.66,1.12,4.4,2.53,6.34,3.48-2.18,3-6.03,4.59-8.83.81-1.44.65-3.47,2.93-4.48,0,3.77-.1,7.09.07,10.4.04.76.99,1.47,1.51,2.2.64-.62,1.82-1.23,1.84-1.86.1-5.3.12-10.62-.17-15.91-.06-1.12-1.45-2.17-2.23-3.25-.98,1.01-1.98,2.01-2.93,3.05-.14.16-.09.48-.16.72-.9,2.83-1.7,5.69-2.75,8.46-.43,1.14-1.41,2.07-2.14,3.1ZM426.92,122.75c-.89,0-1.6-.15-2.21.04-.78.25-1.48.77-2.22,1.18.73.65,1.38,1.44,2.21,1.9.91.5,2.09.55,2.97,1.09.39.24.67,1.57.46,1.75-1.17.98-2.41,2.21-3.81,2.5-5.14,1.07-9.11-1.66-9.34-6.88-.11-2.5.77-5.7,2.42-7.45,1.94-2.07,5.19-3.12,8.14-.81.7.55,1.17,1.48,1.93,1.83.89.42,1.98.4,2.99.57.09-.66.5-1.56.22-1.94-1.8-2.44-3.85-4.36-7.24-4.62-5.02-.39-8.7,1.66-10.88,5.86-1.81,3.49-2,7.66.02,11.02,3.56,5.92,8.75,7.23,15.24,4.66,3.24-1.28,4.3-3.89,3.59-8.46-.49-3.18-3.03-1.75-4.51-2.25ZM224.75,123.49h.01c0,2.65,0,5.31,0,7.96,0,1.73.85,2.62,2.59,2.63,2.41,0,4.82.02,7.23,0,2.55-.03,4.62-1.16,5.66-3.41,1.06-2.28.93-4.61-.94-6.72-.58-.65-.93-2.17-.57-2.86,2.07-3.9,1.98-5.8-2.02-7.69-2.44-1.16-5.57-1.03-8.41-1.15-2.82-.12-3.46.64-3.54,3.53-.07,2.57-.01,5.14-.01,7.71ZM586.04,121.53c.26-.03.51-.06.77-.09,2.39,3.71,4.66,7.51,7.24,11.07.8,1.1,2.52,2.22,3.75,2.16,1.65-.09,2.34-1.79,2.25-3.6-.06-1.31.24-2.64.26-3.96.05-4.06.12-8.13.03-12.19-.04-1.61-.92-3.02-2.72-3-1.93.02-2.06,1.68-2.06,3.1,0,2.48.18,4.97.22,7.45.02.89-.13,1.79-.2,2.69-.24.07-.48.14-.72.21-.81-.99-1.68-1.93-2.41-2.97-2.26-3.21-4.38-6.52-6.76-9.64-.47-.61-1.98-.91-2.77-.65-.78.26-1.75,1.42-1.77,2.21-.17,5.97-.12,11.95-.16,17.92-.01,1.93,1.42,2.55,2.79,2.4.71-.08,1.72-1.52,1.8-2.41.24-2.72.06-5.47.11-8.21.01-.83.23-1.66.35-2.49ZM331.82,122.99c.21-2.97-.61-5.9-3.32-8.25-3.08-2.66-8.3-3.62-11.31-2.02-7.55,4-7.82,15.77-1.3,20.05,1.87,1.23,4.55,2.07,6.72,1.82,5.48-.63,9.65-5.02,9.21-11.61ZM401.78,126.57c-1.18-.73-2.38-1.07-2.92-1.87-2.34-3.44-4.4-7.06-6.76-10.49-.56-.81-1.84-1.13-2.79-1.67-.46.97-1.29,1.92-1.32,2.9-.15,5.22-.15,10.44-.05,15.66.02.88.8,1.74,1.23,2.61.66-.9,1.82-1.76,1.87-2.69.16-2.71-.15-5.45-.23-8.18-.02-.83.13-1.66.24-3.06,1.35.92,2.46,1.32,2.99,2.11,2.4,3.57,4.55,7.31,7,10.84.45.65,1.88.96,2.78.84.53-.07,1.27-1.29,1.29-2.01.14-5.39.2-10.78.1-16.16-.02-.93-.9-1.84-1.39-2.76-.7.93-1.48,1.82-2.04,2.83-.24.44,0,1.14,0,1.72,0,2.87,0,5.75,0,9.37ZM619.9,123.42c.05-.86.07-1.61.14-2.35.51-5.07,5.55-7.57,9.77-4.82.66.43.98,1.49,1.65,1.75.89.34,1.98.24,2.98.18.11,0,.43-1.13.22-1.43-1.64-2.32-3.45-4.42-6.59-4.75-4.1-.42-8.29.58-11.28,7.04-1.43,3.09-.63,9.24,1.83,12.03,4.65,5.26,11.97,4.85,15.85-.99.46-.69.15-1.89.2-2.86-.98.22-2,.35-2.93.7-.38.14-.56.79-.85,1.19-2.16,3.08-5.89,3.19-8.79.74-2.23-1.88-1.92-4.22-2.21-6.43ZM188.04,123.3c.62,1.76,1.29,3.51,1.86,5.29,1.36,4.25,4.85,5.95,8.74,6.19,3.66.23,6.61-1.95,8.54-5.11.35-.57.1-1.51.13-2.29-.84-.01-1.73-.21-2.49.03-.54.17-.95.88-1.32,1.41-1.78,2.54-3.58,3.24-6.65,2.5-2.08-.5-4.07-2.8-4.28-5.18-.15-1.73-.08-3.48-.1-5.22-.03-3.38,2.55-4.57,4.98-5.88,2.2-1.18,3.57.65,5.17,1.48.6.31.84,1.42,1.43,1.63.84.3,1.87.19,2.79.08.16-.02.48-1.14.27-1.43-1.72-2.36-3.57-4.44-6.83-4.83-7.03-.85-11.81,5.34-12.24,11.33ZM289.02,128.22c.12.59.15,1.09.32,1.52,1.56,4.03,6.48,5.88,11.4,4.3,3.25-1.04,4.77-2.9,5.01-5.7.21-2.45-1.58-4.76-4.54-6.05-3.14-1.37-7.27-1.2-9.09-5.01,4.94-3.65,5.99-3.31,9.31.07.23.23.48.59.75.62.86.09,1.72.06,2.59.07-.12-.82.02-1.8-.39-2.42-2.07-3.12-6.72-4.53-10.41-3.31-2.29.76-4.17,3.06-4.22,5.32-.06,2.6,1.09,4.47,3.61,5.36,2.1.74,4.3,1.23,6.28,2.2,1.25.61,2.51,1.72,3.09,2.93.24.49-1.14,2.07-2.07,2.75-2.05,1.49-6.74.58-8.12-1.58-.87-1.36-1.75-1.85-3.51-1.09ZM464.56,133.06c-.02-.33-.05-.67-.07-1-.95-.23-1.9-.63-2.86-.67-2.16-.08-4.32,0-6.48.05-2.81.07-2.56-1.99-2.71-3.79-.16-1.83.55-2.86,2.51-2.84,2.16.02,4.34.12,6.47-.1.71-.07,1.32-1.04,1.98-1.6-.65-.6-1.24-1.62-1.96-1.72-1.88-.25-3.81-.09-5.72-.09-2.34,0-3.4-.92-3.32-2.98.08-2.06,1.27-2.9,3.26-2.85,2.08.05,4.17.2,6.22-.02.7-.08,1.3-1.13,1.95-1.74-.6-.5-1.19-1.4-1.81-1.43-3.24-.12-6.48-.11-9.72.04-2.51.12-3.48,1.25-3.51,3.88-.05,4.72-.04,9.45.02,14.17.04,2.82.71,3.51,3.57,3.6,3.16.1,6.32.11,9.47,0,.91-.03,1.8-.6,2.7-.93ZM508.59,124.27c.12-.29.25-.58.37-.87-.85-.65-1.63-1.7-2.57-1.86-1.68-.3-3.47-.17-5.2-.04-2.27.17-4.31-.89-4.42-2.48-.15-2.25.99-3.39,3.78-3.5,2.07-.08,4.16.09,6.23.11,1.94.02,2.67-.94,2.19-3.07-3.75,0-7.48.03-11.2-.01-2.73-.03-3.53.5-3.57,3.15-.09,5.23,0,10.46,0,15.69,0,1.75.85,2.59,2.59,2.59,3.58.01,7.16.14,10.73,0,.74-.03,1.45-.96,2.17-1.47-.74-.38-1.47-1.06-2.23-1.1-2.41-.13-4.83.07-7.23-.01-2.35-.08-3.13-1.28-3.19-4.11-.05-2.2,1.51-2.36,2.99-2.49,1.65-.14,3.33.03,4.99-.05,1.2-.06,2.39-.31,3.59-.47ZM545.74,127.93c-1.64-1.1-2.9-1.34-3.9.68-.39.78-1.12,1.45-1.82,2.01-2.68,2.15-9.16.25-9.38-2.88-.2-2.89,0-5.86.49-8.72.6-3.53,5.19-5.3,8.21-3.35,1.02.66,1.85,1.61,2.87,2.26.52.33,1.45.59,1.88.34.4-.23.69-1.32.49-1.79-1.17-2.6-3.31-4.04-6.12-4.4-5.13-.66-9.02,1.7-10.67,6.18-1.08,2.93-.95,6.73-.1,9.79.61,2.2,2.97,4.47,5.13,5.58,5.23,2.69,10.94-.02,12.93-5.7ZM565.14,133c-.03-.41-.05-.83-.08-1.24-2.2-.15-4.41-.36-6.61-.42-3.08-.08-3.45-.33-3.48-3.4-.04-4.14.12-8.28-.01-12.42-.03-.94-.91-1.85-1.4-2.78-.76.86-2.14,1.7-2.17,2.58-.15,5.29-.09,10.6.16,15.88.05.94,1.27,2.52,2.07,2.6,3.2.33,6.44.23,9.67.16.63-.01,1.24-.62,1.86-.96ZM172.31,127.17c-.83.9-1.15,1.1-1.13,1.26.16,1.3-.06,3.2.7,3.78,1.52,1.16,3.65,2.32,5.42,2.17,3.52-.29,5.05-2.62,5.2-6.69.15-3.97.28-7.95.16-11.92-.04-1.14-.99-2.26-1.53-3.39-.36.08-.71.17-1.07.25-.22,1.24-.61,2.48-.63,3.73-.07,3.89.13,7.8-.09,11.68-.06,1.07-1.01,2.52-1.95,2.97-.69.33-2.18-.48-3.04-1.13-.81-.61-1.29-1.68-2.03-2.71ZM574.79,123.45s0,0-.01,0c0-2.74.13-5.49-.07-8.21-.07-.95-.94-1.85-1.45-2.77-.66.95-1.87,1.89-1.9,2.86-.15,5.39-.1,10.79.12,16.17.03.86,1.23,1.66,1.89,2.49.48-.86,1.3-1.69,1.36-2.58.18-2.64.07-5.31.07-7.96ZM471.63,114.61c.77,1.7,1.26,3.26,2.12,4.58,1.99,3.04,4.2,5.92,3.58,9.9-.12.79-.06,1.7.23,2.44.26.66,1.08,1.71,1.4,1.63.75-.2,1.7-.86,1.91-1.54.27-.87-.28-1.96-.15-2.91.25-1.98.26-4.2,1.2-5.85,1.47-2.59,3.71-4.73,5.42-7.21.44-.64.11-1.81.13-2.74-.68.17-1.65.12-2.01.56-1.57,1.94-2.93,4.04-4.43,6.03-.41.54-1.1,1.36-1.55,1.29-.84-.12-1.7-.69-2.36-1.29-.44-.4-.39-1.37-.84-1.72-1.38-1.05-1.6-3.74-4.64-3.17ZM608.75,112.6c-.33,0-.65,0-.98,0-.32,1.1-.88,2.2-.9,3.31-.1,5.06-.1,10.12.02,15.18.02.89.82,1.77,1.26,2.65.53-.88,1.49-1.75,1.51-2.65.15-5.06.13-10.12.03-15.18-.02-1.11-.62-2.21-.95-3.31ZM250.49,112.83c-.39-.11-.77-.23-1.16-.34-.63,1.09-1.77,2.16-1.8,3.27-.15,5.05.04,10.11.05,15.16,0,1.43.49,2.69,1.96,2.56.59-.05,1.49-1.57,1.51-2.44.14-5.05.1-10.11.03-15.17-.01-1.02-.39-2.03-.6-3.04Z"/>
      <path class="cls-1" d="M654.5,163V.51h-3.29c-216.07,0-432.14,0-648.21,0-1,0-2,0-3,0C.08.34.16.04.25.03.83-.02,1.42,0,2,0h653c0,53.62,0,107.18-.02,160.75,0,.75-.31,1.49-.48,2.24Z"/>
      <path class="cls-2" d="M61.42,85.91c9.91,0,19.82.15,29.72-.09,3.17-.08,4.62,1.47,5.58,3.87,2.73,6.89,10.95,11.94,18.41,11.48,7.02-.43,12.4-3.59,15.82-9.28,3.12-5.19,3.93-10.96,1.5-17.1-2.32-5.88-6.38-9.65-11.98-11.77-4.36-1.65-8.94-1.5-13.37.38-3.62,1.53-6.62,3.81-8.78,7.06-1.09,1.63-1.68,3.61-2.86,5.16-.69.9-2.09,1.78-3.18,1.78-20.56.12-41.12.1-61.68.17-2.32,0-3.38-1.03-2.93-3.17,1.01-4.75,1.97-9.54,3.47-14.14,1.11-3.4,2.93-6.59,4.6-9.79,3.43-6.56,8.5-11.79,14.11-16.48,7.92-6.63,17.15-10.82,27.25-12.43,8.19-1.31,16.48-1.22,24.74.89,12.31,3.15,22.56,9.43,30.89,18.87,4.44,5.04,7.78,10.75,10.49,16.97,5.21,11.91,5.4,24.22,3.27,36.59-.86,5.01-3.46,9.74-5.45,14.53-2.55,6.14-6.71,11.22-11.39,15.8-5.96,5.84-12.88,10.19-20.73,13.35-10.07,4.05-20.4,4.72-30.86,3.28-10.88-1.5-20.52-6.18-29.04-13.2-6.05-4.98-10.87-10.98-14.52-17.76-3.64-6.76-6.31-13.99-6.9-21.81-.18-2.38.7-3.21,3.12-3.19,10.24.1,20.48.04,30.72.04Z"/>
      <path class="cls-1" d="M472.77,59.76c0-2.72,0-4.77,0-6.81-.01-7.06-.03-14.11-.04-21.17,0-3.47.52-3.99,4.01-4.05.08,0,.17,0,.25,0q5.76-.05,6.19,5.67c.11,1.49.48,2.67,2.3,2.53,2.46-.19,4.54.09,4.56,3.29,0,.26.35.52.81,1.15.47-.72.94-1.2,1.15-1.78,3.14-8.44,9.33-12.33,17.62-12.28,6.61.04,12.09,3.33,15.23,9.42,5.06,9.81.99,19.14-7.34,23.71-7.02,3.85-15.52,2.55-21.16-3.35-2.4-2.51-4.13-5.26-4.68-8.75-.31-1.96-1.25-3.33-3.73-2.97-4.75.7-4.78.62-4.78,3.9,0,2.74-.03,5.48.08,8.22.09,2.22-.99,3.21-3.06,3.26-2.22.06-4.45.01-7.4.01ZM509.3,35.23c-4.37-.05-8.17,3.93-8.33,8.5-.17,4.8,4.2,8.71,7.93,9.04,3.92.35,8.26-4.36,8.33-8.67.08-4.63-3.67-8.81-7.94-8.87Z"/>
      <path class="cls-1" d="M294.48,57.83c-4.99,0-9.99-.09-14.97.03-4.22.1-6.76-2.08-6.61-6.6.21-6.63,0-13.28.02-19.92,0-3.19.39-3.54,3.58-3.6,1-.02,2-.02,2.99,0,3.09.05,3.68.51,3.77,3.51.06,1.99.88,2.89,2.86,2.88,4.74-.03,9.48-.05,14.23,0,1.98.02,2.81-.77,2.85-2.81.07-3.5.17-3.5,3.75-3.56,6.32-.1,6.29-.1,6.27,6.17-.02,6.72,0,13.45.04,20.17.01,2.93.02,3.52-3.54,3.61-5.07.12-10.15.03-15.22.03,0,.04,0,.08,0,.11ZM293.27,41.62s0-.02,0-.03c-2.57,0-5.15-.08-7.72.02-2.12.09-3.01,1.37-2.98,3.46.04,3.37.59,4.48,2.86,4.52,5.23.08,10.47.01,15.7,0,1.56,0,2.24-.87,2.28-2.34.02-.91.03-1.82.01-2.73-.05-1.88-.91-2.93-2.91-2.9-2.41.03-4.82,0-7.23,0Z"/>
      <path class="cls-1" d="M293.58,75.73c-1.09-.13-2.18-.36-3.27-.38-2.83-.03-5.66.04-8.49.06-.75,0-1.5,0-2.24-.07-2.7-.26-4.3-1.67-4.4-3.86-.09-1.9,1.68-3.97,3.95-4.45.96-.2,1.98-.19,2.98-.19,5.41-.01,10.82-.04,16.22.03,2.03.03,3.24-.58,3.07-2.82-.02-.32-.05-.73.12-.97,1.75-2.6,4.47-1.66,6.83-1.65,1.52,0,2.99.73,2.92,2.7-.08,2.32,1.35,2.74,3.24,2.73,6.74-.03,13.48.08,20.22-.08,2.55-.06,3.48,1.01,3.51,3.31,0,.83-.03,1.66.01,2.49.11,2-.8,2.88-2.82,2.84-4.24-.08-8.49-.08-12.73-.08-1.2,0-2.39.16-3.59.24-.11.24-.22.47-.33.71.99,1.01,1.92,2.1,2.99,3.01,4.23,3.58,8.52,7.1,12.75,10.68.45.38.65,1.06.97,1.59-.63.3-1.23.76-1.89.88-5.82,1.06-10.27-1.33-14.43-5.23-3.59-3.37-7.67-6.24-11.68-9.13-.61-.44-2.29-.09-3.02.47-4.58,3.5-9.3,6.9-13.46,10.86-3.78,3.6-8.12,3.21-12.54,2.95-1.77-.1-1.75-1.31-.52-2.34,3.35-2.83,6.75-5.6,10.1-8.43,1.98-1.66,3.9-3.39,5.85-5.08-.11-.27-.21-.54-.32-.81Z"/>
      <path class="cls-1" d="M438.97,27.92c5.15,0,10.31,0,15.46,0,3.3,0,4.32,1.07,4.31,4.28-.03,7.71-.01,15.43,0,23.14,0,2.51-1.4,4.1-3.88,4.11-9.98.05-19.95.09-29.93.07-3.64,0-6-2.29-6.05-5.83-.1-7.46-.12-14.93-.13-22.39,0-2.25,1.32-3.36,3.99-3.37,5.4-.03,10.81,0,16.21,0ZM438.82,51.9s0,.05,0,.07c2.5,0,4.99-.05,7.49.01,1.88.05,2.83-.85,2.85-2.65.05-3.82.16-7.65-.08-11.45-.05-.85-1.41-2.29-2.21-2.32-5.32-.2-10.65-.16-15.97-.06-1.75.04-2.9.9-2.8,3,.15,3.31.08,6.64.09,9.96.01,2.62.75,3.39,3.4,3.43,2.41.03,4.83,0,7.24,0Z"/>
      <path class="cls-1" d="M173.46,95.64c7.85,2.85,8.44,2.53,8.49-5.22.12-17.93.12-35.86.12-53.79,0-4.21-.12-4.34-4.32-5.04-1.61-.27-2.65-1.07-2.22-2.56.2-.71,1.63-1.51,2.52-1.53,6.15-.13,12.31-.14,18.46,0,.85.02,2.21.92,2.39,1.65.32,1.3-.54,2.18-2.11,2.44-3.83.64-4.02.94-4.06,4.87-.13,15.11-.19,30.21-.38,45.32-.11,9.12-4.62,15.82-12.09,20.69-.93.61-2.17.85-3.31,1.01-2.64.38-3.69-.54-3.74-3.21-.03-1.44.16-2.88.26-4.63Z"/>
      <path class="cls-1" d="M237.05,26.12c4.36,1.17,8.81,2.11,13.04,3.63,1.43.51,2.38,2.48,3.38,3.9.23.33-.08,1.42-.48,1.71-.39.28-1.29.18-1.81-.07-5.87-2.95-11.83-4.15-18.23-1.62-3.29,1.3-5.82,3.17-8.04,6.06-7,9.08-7.23,19.03-3.75,29.13,2.55,7.41,8.22,13.48,17.83,13.23,3.81-.1,7.63.09,11.15-1.97.83-.49,2.2-.07,3.33-.07-.4,1.25-.42,3.17-1.26,3.64-2.85,1.61-5.89,3.32-9.05,3.87-7.59,1.33-15.04.68-21.9-3.48-5.68-3.44-9.2-8.49-11.19-14.63-2.61-8.06-2.41-16.22.03-24.28,1.77-5.85,5.57-10.18,10.56-13.71,4.92-3.47,10.33-4.71,16.22-4.53.06-.27.11-.55.17-.82Z"/>
      <path class="cls-1" d="M403.86,64.58c-4.98,1.4-6.66-3.27-9.17-6.44-4.1-5.19-7.99-10.56-11.96-15.85-.15-.2-.35-.36-.5-.56-3.58-4.71-3.5-4.65-7.02.13-5.25,7.13-10.58,14.2-16.01,21.19-.65.84-2.12,1.26-3.27,1.43-1.63.24-3.33.17-4.98.04-.94-.07-1.85-.52-2.78-.79.29-.89.38-1.93.91-2.64,3.01-4.05,6.13-8.02,9.19-12.03,4.77-6.25,9.5-12.51,14.27-18.76.7-.92,1.43-1.83,2.25-2.65,2.88-2.89,6.27-2.81,8.79.4,4.34,5.53,8.54,11.17,12.78,16.79,3.99,5.28,7.97,10.56,11.89,15.89.63.86.95,1.96,1.41,2.95-1.06.3-2.11.65-3.19.87-.64.13-1.33.02-2.61.02Z"/>
      <path class="cls-1" d="M379.72,90.57c-8.81,0-17.63,0-26.44,0-.75,0-1.5,0-2.24-.07-2.46-.22-4.27-1.92-4.31-4-.04-2.11,2.11-4.39,4.48-4.44,5.57-.1,11.14-.07,16.71-.08q6.46,0,6.45-6.38c0-1.91-.06-3.82,0-5.72.06-2.01.82-3.23,3.2-3.09,5.38.33,6.44-1.55,6.19,6.28-.06,1.99.08,3.99-.08,5.97-.18,2.24.83,2.94,2.91,2.93,6.82-.04,13.64-.02,20.45,0,3.97.02,6.23,3.76,4.06,7.17-.59.93-2.58,1.34-3.93,1.35-9.14.11-18.29.06-27.44.06Z"/>
      <path class="cls-1" d="M525.43,90.56c-8.74,0-17.48-.11-26.22.05-4.37.08-6.09-1.91-6.23-6.18-.12-3.82-.06-7.64-.06-11.46,0-2.12,1.21-3.16,3.21-3.38.74-.08,1.5,0,2.25-.01,3.8,0,4.46.68,4.4,4.53-.02,1.25-.02,2.49-.03,3.74-.02,4.07.04,4.13,4.24,4.13,13.73,0,27.47,0,41.2,0,1.25,0,2.5,0,3.75,0,2.87.02,3.44.57,3.55,3.49.02.5,0,1,0,1.49-.06,3.28-.36,3.6-3.59,3.6-8.82,0-17.65,0-26.47,0Z"/>
      <path class="cls-1" d="M479.36,77.31c.51,9.06-8.39,17.05-17.18,16.98-9.42-.08-17.57-7.88-17.58-17.01-.01-9.61,8.37-16.61,17.35-16.91,8.92-.3,17.93,7.69,17.42,16.94ZM470.15,77.37c.03-4.48-3.74-8.55-7.83-8.65-4.73-.12-8.27,4.23-8.33,8.52-.05,4.23,3.62,8.73,8.19,8.7,4.07-.03,7.94-4.1,7.97-8.57Z"/>
      <path class="cls-2" d="M598.08,91.57c-8.82,0-17.64.04-26.46-.03-2.76-.02-5.51-.54-7.1-3.13-.57-.93-1.02-2.62-.55-3.34,1.2-1.86,2.47-4.01,5.33-3.77,1.4.12,2.83.02,4.24.01,3.39-.02,3.57-.2,3.56-3.48,0-4.32.08-8.64-.06-12.95-.06-1.91.62-3.19,2.42-3.44,2.18-.3,4.44-.4,6.63-.22,1.49.12,2.05,1.36,2.03,2.93-.08,4.73.08,9.47-.09,14.19-.09,2.38.85,3.01,3.05,2.99,7.99-.08,15.98-.08,23.96,0,2.27.02,3.05-.82,3.03-3.07-.07-15.36-.04-30.71-.06-46.07,0-4.45.38-4.92,4.82-4.84,6.7.12,6.29-1.19,6.28,6.23,0,2.25-.47,4.69,3.06,4.64.38,0,1.07.74,1.09,1.17.13,2.23.18,4.47.06,6.69-.02.46-.8,1.16-1.32,1.26-2.6.49-2.92,2.27-2.92,4.45.04,11.54.03,23.08.04,34.61,0,4.64-.51,5.16-5.1,5.16-8.65,0-17.31,0-25.96,0ZM597.56,90.39c8.65,0,17.31-.02,25.96,0,4.72.01,4.97-.25,4.95-4.81-.04-11.63-.03-23.25-.04-34.88,0-1.7-.1-3.52,2.18-3.84,2.56-.36,2.22-2.27,2.28-3.97.06-1.71.03-3.43-2.18-3.88-1.82-.37-2.4-1.56-2.29-3.28.08-1.16.03-2.32.09-3.49.16-3.19-.62-4-4.06-4.11-3.93-.13-4.87.57-4.87,3.81,0,15.45.01,30.89.04,46.34,0,3.25-.58,4-3.85,4.02-8.49.05-16.98-.01-25.47.02-2.15,0-2.97-.96-2.93-3.05.08-3.9.03-7.81.05-11.71.03-5.62.03-5.54-5.56-5.56-2.33,0-3.33.77-3.26,3.19.13,4.48.04,8.97.06,13.45.02,2.85-.52,3.49-3.42,3.64-1.83.1-3.75-.3-5.46.16-1.54.41-3.24,1.4-4.11,2.66-.54.79-.1,3.06.69,3.75,1.1.96,2.94,1.44,4.47,1.46,8.9.13,17.81.06,26.71.06Z"/>
      <path class="cls-1" d="M546.26,44.92c0-4.23,0-8.46,0-12.69,0-3.74.44-4.19,4.08-4.22,4.86-.04,5.05.07,5.08,4.97.01,2.29,1.1,2.97,3.17,3.2,1.16.13,3.16.81,3.21,1.39.19,2.04-.15,4.19-.64,6.2-.1.4-1.76.52-2.71.6-2.06.17-3.16.94-3.04,3.27.18,3.56.13,7.13.08,10.7-.04,3.12-.57,3.58-3.65,3.6q-5.62.04-5.58-5.57c.02-3.82,0-7.63,0-11.45,0,0,0,0-.01,0Z"/>
      <path class="cls-1" d="M338.28,43.13c0,3.9-.01,7.8,0,11.69.01,2.03-.79,2.94-2.99,2.95-6.55.04-6.54.12-6.53-6.46,0-6.39,0-12.77-.02-19.16,0-3.89.41-4.33,4.2-4.32q5.38,0,5.36,5.35c-.01,3.32,0,6.64,0,9.95,0,0-.01,0-.02,0Z"/>
      <path class="cls-1" d="M365.27,135.08c-2.65-2.44-1.3-4.57-.56-6.57,1.02-2.75,2.28-5.42,3.39-8.14.93-2.27,1.68-4.62,2.74-6.83.31-.65,1.35-1.23,2.1-1.31.6-.06,1.61.55,1.88,1.13,1.62,3.48,3.07,7.04,4.61,10.55,1.08,2.47,2.36,4.86,3.28,7.39.31.85-.23,2-.38,3.02-.87-.23-1.75-.42-2.59-.73-.24-.09-.36-.53-.5-.83-2.06-4.29-4.7-5.58-9.15-4.28-.66.19-1.21.99-1.65,1.62-1.06,1.53-2.02,3.14-3.18,4.96ZM373.85,118.27c-.78.53-1.56,1.06-2.34,1.59-.33,1.23-.66,2.45-.99,3.68-.04.07-.08.14-.12.21.03,0,.06,0,.09.01,1.02,1.77,2.57,1.38,4.11,1-.05.06-.12.12-.14.19-.02.07.01.15.03.23.31-.57.62-1.14.94-1.71-.18-.59-.36-1.18-.53-1.77l.11-.12-.16-.04c-.33-1.09-.66-2.18-.99-3.28Z"/>
      <path class="cls-1" d="M348.22,127.88c.73-1.03,1.71-1.96,2.14-3.1,1.05-2.77,1.85-5.63,2.75-8.46.07-.24.02-.56.16-.72.96-1.04,1.95-2.04,2.93-3.05.78,1.08,2.17,2.13,2.23,3.25.28,5.29.27,10.61.17,15.91-.01.63-1.2,1.24-1.84,1.86-.53-.73-1.48-1.44-1.51-2.2-.17-3.31-.07-6.63-.07-10.4-2.28,1.01-2.12,3.04-2.93,4.48-1.59,2.8-1.11,6.65-4.59,8.83-1.4-1.94-2.85-3.68-2.53-6.34.16-1.31.78-2.83-1.34-3.66-1.05-.41-1.66-1.91-2.99-3.57,0,2.74-.02,4.75,0,6.77.02,1.49.34,3.02.09,4.45-.13.74-1.23,1.3-1.89,1.94-.4-.65-1.14-1.3-1.15-1.96-.07-5.64-.08-11.28.1-16.91.03-.89,1.05-2.42,1.7-2.47.93-.07,2.49.72,2.84,1.54,1.59,3.76,2.85,7.66,4.22,11.52.24.67.44,1.36.66,2.04.28.09.56.17.84.26Z"/>
      <path class="cls-1" d="M426.92,122.75c1.48.49,4.02-.93,4.51,2.25.7,4.58-.36,7.18-3.59,8.46-6.49,2.57-11.68,1.26-15.24-4.66-2.02-3.36-1.84-7.53-.02-11.02,2.18-4.2,5.86-6.25,10.88-5.86,3.39.26,5.44,2.18,7.24,4.62.28.38-.13,1.28-.22,1.94-1.01-.17-2.1-.15-2.99-.57-.76-.36-1.23-1.29-1.93-1.83-2.95-2.31-6.2-1.25-8.14.81-1.65,1.75-2.53,4.95-2.42,7.45.23,5.22,4.19,7.95,9.34,6.88,1.4-.29,2.64-1.53,3.81-2.5.22-.18-.07-1.51-.46-1.75-.88-.54-2.06-.58-2.97-1.09-.84-.46-1.48-1.26-2.21-1.9.73-.41,1.43-.93,2.22-1.18.6-.19,1.32-.04,2.21-.04Z"/>
      <path class="cls-1" d="M224.75,123.49c0-2.57-.06-5.14.01-7.71.08-2.89.72-3.66,3.54-3.53,2.84.12,5.97,0,8.41,1.15,4,1.9,4.09,3.79,2.02,7.69-.37.69,0,2.21.57,2.86,1.87,2.11,2,4.43.94,6.72-1.04,2.25-3.11,3.38-5.66,3.41-2.41.03-4.82.02-7.23,0-1.74,0-2.59-.9-2.59-2.63,0-2.65,0-5.31,0-7.96h-.01ZM232.31,124.68c-.08-.18-.16-.35-.24-.53-1.47.66-3.67.92-4.27,2.04-1.51,2.81.32,5.13,3.59,5.15.75,0,1.49-.04,2.24-.09,2.14-.14,3.65-1.34,4.13-3.29.42-1.7-1.53-3.04-4.21-3.22-.41-.03-.83-.04-1.24-.07ZM231.46,121.22c.83-.11,1.89.03,2.59-.42.89-.57,2.07-1.61,2.06-2.43-.02-.86-1.16-2.14-2.07-2.42-1.35-.43-2.94-.25-4.41-.15-1.78.13-2.33,1.3-2.17,2.96.25,2.54,2.26,2.17,4,2.46Z"/>
      <path class="cls-2" d="M586.04,121.53c-.12.83-.34,1.66-.35,2.49-.05,2.74.13,5.49-.11,8.21-.08.89-1.09,2.33-1.8,2.41-1.37.15-2.81-.47-2.79-2.4.04-5.97,0-11.95.16-17.92.02-.79.99-1.94,1.77-2.21.79-.27,2.31.04,2.77.65,2.38,3.12,4.5,6.43,6.76,9.64.73,1.04,1.6,1.98,2.41,2.97.24-.07.48-.14.72-.21.07-.9.22-1.79.2-2.69-.04-2.48-.22-4.97-.22-7.45,0-1.43.13-3.09,2.06-3.1,1.81-.02,2.68,1.39,2.72,3,.1,4.06.03,8.13-.03,12.19-.02,1.32-.32,2.65-.26,3.96.09,1.82-.59,3.52-2.25,3.6-1.24.06-2.95-1.06-3.75-2.16-2.59-3.56-4.85-7.36-7.24-11.07-.26.03-.51.06-.77.09ZM598.75,123.59s.03,0,.05,0c0-2.32.14-4.66-.07-6.96-.09-.92-.96-1.77-1.48-2.66-.34.84-.93,1.67-.96,2.51-.1,2.98.05,5.97,0,8.95-.01.55-.54,1.09-.83,1.64-.53-.32-1.24-.51-1.55-.97-1.62-2.4-3.09-4.9-4.7-7.31-1.05-1.57-2.14-3.13-3.39-4.54-.5-.57-1.82-1.24-2.13-1.01-.7.52-1.38,1.55-1.42,2.41-.26,5.04-.33,10.09-.48,15.14-.04,1.3.33,2.54,1.81,2.31.58-.09,1.32-1.46,1.36-2.28.13-2.98-.05-5.97.01-8.95.01-.63.56-1.25.86-1.88.58.35,1.33.57,1.7,1.08.97,1.31,1.73,2.77,2.66,4.12,1.63,2.37,3.25,4.76,5.04,7.01.47.6,1.83,1.22,2.26.96.66-.4,1.16-1.52,1.22-2.37.16-2.39.06-4.8.06-7.21Z"/>
      <path class="cls-1" d="M331.82,122.99c.44,6.59-3.73,10.97-9.21,11.61-2.16.25-4.85-.6-6.72-1.82-6.52-4.28-6.24-16.05,1.3-20.05,3.01-1.6,8.23-.64,11.31,2.02,2.71,2.35,3.52,5.28,3.32,8.25ZM321.53,131.48c4.3.54,7.16-4.84,7.17-8.25,0-4.07-3.54-8.21-7-8.23-3.84-.02-7.31,4-7.3,8.46,0,4.22,3.39,8.02,7.13,8.02Z"/>
      <path class="cls-1" d="M401.78,126.57c0-3.62,0-6.5,0-9.37,0-.58-.24-1.28,0-1.72.56-1.01,1.35-1.89,2.04-2.83.49.92,1.37,1.83,1.39,2.76.1,5.39.04,10.78-.1,16.16-.02.72-.76,1.94-1.29,2.01-.9.12-2.33-.19-2.78-.84-2.45-3.54-4.6-7.27-7-10.84-.53-.79-1.64-1.18-2.99-2.11-.12,1.4-.27,2.24-.24,3.06.07,2.73.38,5.47.23,8.18-.05.93-1.22,1.8-1.87,2.69-.43-.87-1.21-1.73-1.23-2.61-.1-5.22-.1-10.45.05-15.66.03-.98.86-1.93,1.32-2.9.95.54,2.24.86,2.79,1.67,2.35,3.43,4.42,7.05,6.76,10.49.54.79,1.74,1.14,2.92,1.87Z"/>
      <path class="cls-1" d="M619.9,123.42c.29,2.21-.02,4.55,2.21,6.43,2.9,2.44,6.63,2.34,8.79-.74.28-.41.47-1.05.85-1.19.93-.35,1.94-.48,2.93-.7-.05.97.26,2.17-.2,2.86-3.89,5.84-11.2,6.25-15.85.99-2.47-2.79-3.27-8.93-1.83-12.03,2.99-6.46,7.18-7.46,11.28-7.04,3.14.32,4.96,2.42,6.59,4.75.21.3-.1,1.42-.22,1.43-1,.06-2.09.16-2.98-.18-.67-.26-.99-1.32-1.65-1.75-4.22-2.76-9.26-.25-9.77,4.82-.08.74-.09,1.49-.14,2.35Z"/>
      <path class="cls-2" d="M593.63,36.64c-7.98,0-15.96.02-23.95,0-3.65,0-3.95-.38-3.96-4.58-.01-3.67.66-4.45,3.99-4.46,9.48-.01,18.96-.02,28.44.01,4.58.01,6.73,2.18,6.73,6.69,0,10.7.02,21.4.02,32.1,0,2.92-.68,3.76-3.52,4.04-1.31.13-2.67.12-3.98-.06-1.99-.27-3.13-1.47-3.13-3.54.02-9.87.07-19.74.1-29.61.27.62.78,1.24.78,1.87.01,8.96.06,17.93-.15,26.89-.05,2.31.91,3.27,2.83,3.56,1.29.2,2.67.12,3.97-.08,1.76-.27,2.64-1.24,2.62-3.25-.1-10.46-.08-20.91-.07-31.37,0-4.57-1.82-6.62-6.42-6.67-9.4-.09-18.8-.07-28.2-.03-2.89.01-3.62.88-3.61,3.81.02,3.85.25,4.18,3.47,4.2,7.15.04,14.31,0,21.46.03.85,0,1.7.28,2.55.44Z"/>
      <path class="cls-1" d="M188.04,123.3c.43-5.99,5.21-12.18,12.24-11.33,3.26.39,5.11,2.47,6.83,4.83.21.29-.1,1.41-.27,1.43-.92.12-1.95.23-2.79-.08-.59-.22-.83-1.32-1.43-1.63-1.6-.83-2.97-2.66-5.17-1.48-2.44,1.31-5.01,2.5-4.98,5.88.02,1.74-.06,3.49.1,5.22.21,2.38,2.2,4.68,4.28,5.18,3.07.73,4.87.04,6.65-2.5.37-.53.78-1.25,1.32-1.41.76-.23,1.65-.04,2.49-.03-.03.77.22,1.71-.13,2.29-1.94,3.16-4.89,5.34-8.54,5.11-3.88-.24-7.37-1.94-8.74-6.19-.57-1.78-1.24-3.53-1.86-5.29Z"/>
      <path class="cls-1" d="M289.02,128.22c1.76-.76,2.64-.28,3.51,1.09,1.37,2.16,6.06,3.07,8.12,1.58.94-.68,2.31-2.25,2.07-2.75-.58-1.21-1.84-2.32-3.09-2.93-1.98-.96-4.19-1.46-6.28-2.2-2.52-.89-3.67-2.76-3.61-5.36.05-2.26,1.93-4.56,4.22-5.32,3.7-1.22,8.35.19,10.41,3.31.41.62.27,1.6.39,2.42-.86-.02-1.73.02-2.59-.07-.27-.03-.52-.39-.75-.62-3.32-3.39-4.37-3.72-9.31-.07,1.82,3.81,5.96,3.64,9.09,5.01,2.96,1.29,4.76,3.6,4.54,6.05-.25,2.8-1.76,4.66-5.01,5.7-4.92,1.58-9.84-.27-11.4-4.3-.17-.44-.2-.93-.32-1.52Z"/>
      <path class="cls-1" d="M464.56,133.06c-.9.32-1.79.9-2.7.93-3.15.11-6.32.09-9.47,0-2.86-.09-3.53-.78-3.57-3.6-.06-4.72-.06-9.45-.02-14.17.03-2.63.99-3.76,3.51-3.88,3.24-.15,6.48-.16,9.72-.04.62.02,1.2.93,1.81,1.43-.65.61-1.24,1.67-1.95,1.74-2.05.22-4.15.07-6.22.02-1.99-.05-3.18.79-3.26,2.85-.08,2.06.97,2.98,3.32,2.98,1.91,0,3.84-.16,5.72.09.72.09,1.31,1.12,1.96,1.72-.66.56-1.27,1.52-1.98,1.6-2.14.22-4.31.11-6.47.1-1.96-.02-2.67,1.02-2.51,2.84.15,1.8-.1,3.87,2.71,3.79,2.16-.06,4.32-.13,6.48-.05.96.04,1.91.43,2.86.67.02.33.05.67.07,1Z"/>
      <path class="cls-1" d="M508.59,124.27c-1.2.16-2.39.41-3.59.47-1.66.08-3.34-.09-4.99.05-1.48.12-3.04.29-2.99,2.49.06,2.83.84,4.03,3.19,4.11,2.41.08,4.83-.11,7.23.01.76.04,1.49.72,2.23,1.1-.72.51-1.43,1.44-2.17,1.47-3.57.13-7.15,0-10.73,0-1.75,0-2.6-.84-2.59-2.59,0-5.23-.08-10.46,0-15.69.04-2.65.84-3.18,3.57-3.15,3.72.04,7.45.01,11.2.01.49,2.14-.24,3.09-2.19,3.07-2.08-.02-4.16-.19-6.23-.11-2.79.11-3.93,1.25-3.78,3.5.11,1.59,2.14,2.65,4.42,2.48,1.73-.13,3.52-.26,5.2.04.94.17,1.72,1.21,2.57,1.86-.12.29-.25.58-.37.87Z"/>
      <path class="cls-1" d="M545.74,127.93c-1.99,5.68-7.7,8.39-12.93,5.7-2.16-1.11-4.52-3.38-5.13-5.58-.85-3.06-.98-6.86.1-9.79,1.65-4.48,5.55-6.83,10.67-6.18,2.82.36,4.95,1.8,6.12,4.4.21.47-.09,1.56-.49,1.79-.43.25-1.36-.01-1.88-.34-1.02-.65-1.85-1.6-2.87-2.26-3.01-1.94-7.6-.18-8.21,3.35-.49,2.86-.68,5.83-.49,8.72.22,3.13,6.7,5.03,9.38,2.88.7-.56,1.43-1.23,1.82-2.01,1.01-2.02,2.26-1.78,3.9-.68Z"/>
      <path class="cls-1" d="M565.14,133c-.62.34-1.23.95-1.86.96-3.22.07-6.47.17-9.67-.16-.8-.08-2.02-1.66-2.07-2.6-.25-5.29-.31-10.59-.16-15.88.03-.88,1.41-1.72,2.17-2.58.49.93,1.37,1.84,1.4,2.78.13,4.14-.02,8.28.01,12.42.03,3.07.4,3.32,3.48,3.4,2.21.06,4.41.28,6.61.42.03.41.05.83.08,1.24Z"/>
      <path class="cls-1" d="M172.31,127.17c.74,1.03,1.22,2.1,2.03,2.71.87.65,2.35,1.47,3.04,1.13.94-.45,1.89-1.9,1.95-2.97.22-3.88.02-7.79.09-11.68.02-1.25.41-2.49.63-3.73.36-.08.71-.17,1.07-.25.54,1.13,1.49,2.24,1.53,3.39.13,3.97,0,7.95-.16,11.92-.16,4.08-1.68,6.4-5.2,6.69-1.77.15-3.9-1.02-5.42-2.17-.76-.58-.53-2.47-.7-3.78-.02-.16.3-.36,1.13-1.26Z"/>
      <path class="cls-1" d="M266.93,132.46c-.53.56-1.06,1.12-1.58,1.68-.49-.34-.99-.68-1.49-1.02-.06-4.87-.11-9.74-.17-14.61.05-.27.09-.55.14-.83-.38-.52-.76-1.05-1.13-1.57-.86-.24-1.71-.61-2.6-.71-2.25-.26-2.75-1.02-1.89-3.16.95-.03,1.9-.06,2.84-.08,2.8-.02,5.62-.05,8.43-.08.91.03,1.83.06,2.74.08.06.02.12.05.18.07.33.32.67.64,1,.95-.87,1.45-1.86,2.59-3.85,2.27-.52-.08-1.12.39-1.69.61-.4.59-.8,1.19-1.2,1.77-.03,1.52-.11,3.06-.07,4.59.08,3.35.23,6.7.35,10.04Z"/>
      <path class="cls-1" d="M574.79,123.45c0,2.66.12,5.32-.07,7.96-.06.89-.89,1.72-1.36,2.58-.66-.83-1.86-1.64-1.89-2.49-.21-5.39-.27-10.78-.12-16.17.03-.97,1.24-1.91,1.9-2.86.51.92,1.38,1.82,1.45,2.77.2,2.72.07,5.47.07,8.21,0,0,0,0,.01,0Z"/>
      <path class="cls-1" d="M471.63,114.61c3.04-.57,3.26,2.12,4.64,3.17.45.35.4,1.32.84,1.72.66.59,1.52,1.16,2.36,1.29.45.07,1.14-.75,1.55-1.29,1.5-1.99,2.87-4.09,4.43-6.03.36-.44,1.32-.39,2.01-.56-.02.93.31,2.1-.13,2.74-1.71,2.47-3.95,4.62-5.42,7.21-.94,1.65-.94,3.87-1.2,5.85-.12.95.43,2.04.15,2.91-.22.68-1.16,1.34-1.91,1.54-.32.08-1.14-.97-1.4-1.63-.29-.74-.35-1.65-.23-2.44.62-3.98-1.59-6.86-3.58-9.9-.86-1.32-1.35-2.87-2.12-4.58Z"/>
      <path class="cls-1" d="M608.75,112.6c.33,1.1.93,2.2.95,3.31.1,5.06.12,10.12-.03,15.18-.03.9-.99,1.77-1.51,2.65-.44-.88-1.24-1.76-1.26-2.65-.12-5.06-.12-10.12-.02-15.18.02-1.11.59-2.21.9-3.31.33,0,.65,0,.98,0Z"/>
      <path class="cls-1" d="M250.49,112.83c.21,1.01.59,2.03.6,3.04.06,5.06.11,10.12-.03,15.17-.02.87-.92,2.39-1.51,2.44-1.48.12-1.96-1.14-1.96-2.56-.02-5.05-.2-10.11-.05-15.16.03-1.11,1.17-2.18,1.8-3.27.39.11.77.23,1.16.34Z"/>
      <path class="cls-2" d="M266.93,132.46c-.12-3.35-.26-6.69-.35-10.04-.04-1.53.04-3.07.07-4.59.15,2.85.36,5.69.43,8.53.05,2.03-.09,4.07-.15,6.1Z"/>
      <path class="cls-2" d="M258.21,112.24c-.85,2.14-.36,2.9,1.89,3.16.88.1,1.74.47,2.6.71-1.35-.06-2.78.14-3.99-.27-.79-.27-1.37-1.4-1.8-2.26-.09-.18.84-.88,1.31-1.34Z"/>
      <path class="cls-2" d="M269.48,112.08c-2.81.03-5.63.05-8.43.08,2.82-.03,5.62-.05,8.43-.08Z"/>
      <path class="cls-2" d="M267.86,116.06c.57-.22,1.17-.69,1.69-.61,1.99.32,2.98-.82,3.85-2.27.47,1.74-.33,2.62-1.99,2.78-1.17.11-2.36.07-3.54.1Z"/>
      <path class="cls-2" d="M263.86,133.12c.5.34,1,.68,1.49,1.02-.51-.24-1.02-.47-1.53-.72-.05-.03-.09-.13-.1-.2,0-.02.09-.06.13-.1Z"/>
      <path class="cls-2" d="M263.83,117.68c-.05.28-.09.56-.14.83.05-.28.09-.56.14-.83Z"/>
      <path class="cls-2" d="M272.39,112.23c-.06-.02-.12-.05-.18-.07.06.02.12.05.18.07Z"/>
      <path class="cls-3" d="M509.3,35.23c4.27.05,8.02,4.24,7.94,8.87-.07,4.31-4.41,9.02-8.33,8.67-3.73-.33-8.1-4.25-7.93-9.04.16-4.57,3.96-8.55,8.33-8.5Z"/>
      <path class="cls-3" d="M293.27,41.62c2.41,0,4.82.02,7.23,0,2-.03,2.86,1.03,2.91,2.9.02.91,0,1.82-.01,2.73-.03,1.48-.72,2.34-2.28,2.34-5.23.01-10.47.08-15.7,0-2.27-.04-2.82-1.15-2.86-4.52-.02-2.09.87-3.37,2.98-3.46,2.57-.11,5.15-.02,7.72-.02,0,0,0,.02,0,.03Z"/>
      <path class="cls-3" d="M438.82,51.9c-2.41,0-4.83.02-7.24,0-2.65-.03-3.39-.81-3.4-3.43-.01-3.32.05-6.64-.09-9.96-.09-2.1,1.06-2.97,2.8-3,5.32-.11,10.65-.15,15.97.06.8.03,2.16,1.47,2.21,2.32.24,3.8.13,7.63.08,11.45-.02,1.8-.97,2.7-2.85,2.65-2.49-.06-4.99-.01-7.49-.01,0-.02,0-.05,0-.07Z"/>
      <path class="cls-3" d="M470.15,77.37c-.03,4.47-3.9,8.54-7.97,8.57-4.58.03-8.25-4.47-8.19-8.7.06-4.28,3.6-8.63,8.33-8.52,4.09.1,7.86,4.17,7.83,8.65Z"/>
      <path class="cls-1" d="M597.56,90.4c-8.9,0-17.81.07-26.71-.06-1.53-.02-3.38-.5-4.47-1.46-.8-.7-1.23-2.96-.69-3.75.86-1.26,2.57-2.26,4.11-2.66,1.71-.45,3.64-.06,5.46-.16,2.9-.16,3.44-.79,3.42-3.64-.03-4.48.06-8.97-.06-13.45-.07-2.41.94-3.2,3.26-3.19,5.58.02,5.58-.06,5.56,5.56-.02,3.9.03,7.81-.05,11.71-.04,2.09.79,3.06,2.93,3.05,8.49-.03,16.98.03,25.47-.02,3.27-.02,3.86-.77,3.85-4.02-.03-15.45-.04-30.89-.04-46.34,0-3.24.94-3.95,4.87-3.81,3.44.12,4.22.92,4.06,4.11-.06,1.16,0,2.33-.09,3.49-.11,1.72.46,2.91,2.29,3.28,2.21.45,2.25,2.16,2.18,3.88-.06,1.7.28,3.61-2.28,3.97-2.28.32-2.18,2.14-2.18,3.84.01,11.63,0,23.25.04,34.88.01,4.56-.24,4.82-4.95,4.81-8.65-.02-17.31,0-25.96,0Z"/>
      <path class="cls-3" d="M374.61,124.76c-1.54.37-3.09.76-4.11-1,0,0,.13-.1.13-.1l-.1-.12c.33-1.23.66-2.45.99-3.67.78-.53,1.56-1.06,2.34-1.6.33,1.09.66,2.18.99,3.27,0,0-.13.11-.13.11,0,0,.19.05.19.05.18.59.36,1.18.53,1.76-.27.43-.55.86-.82,1.3Z"/>
      <path class="cls-2" d="M373.85,118.27c-.78.53-1.57,1.07-2.34,1.6.78-.54,1.56-1.07,2.34-1.6Z"/>
      <path class="cls-2" d="M374.61,124.76c.27-.43.55-.87.82-1.3-.31.57-.62,1.14-.93,1.71-.01-.08-.04-.16-.03-.23.02-.07.09-.13.14-.19Z"/>
      <polygon class="cls-2" points="374.9 121.7 374.71 121.66 374.84 121.54 375 121.59 374.9 121.7"/>
      <path class="cls-2" d="M370.52,123.54s.1.12.1.12c0,0-.13.11-.13.1-.03,0-.06-.01-.09-.02.04-.07.08-.14.12-.21Z"/>
      <path class="cls-3" d="M232.31,124.68c.41.02.83.04,1.24.07,2.68.18,4.63,1.51,4.21,3.22-.48,1.95-1.99,3.15-4.13,3.29-.74.05-1.49.1-2.24.09-3.28-.02-5.11-2.34-3.59-5.15.6-1.12,2.8-1.39,4.27-2.04.08.18.16.35.24.53Z"/>
      <path class="cls-3" d="M231.46,121.22c-1.74-.29-3.75.08-4-2.46-.16-1.65.39-2.83,2.17-2.96,1.47-.1,3.06-.28,4.41.15.91.29,2.05,1.57,2.07,2.42.01.82-1.16,1.86-2.06,2.43-.7.44-1.76.31-2.59.42Z"/>
      <path class="cls-1" d="M598.75,123.59c0,2.4.1,4.81-.06,7.21-.06.85-.56,1.97-1.22,2.37-.42.26-1.78-.37-2.26-.96-1.79-2.25-3.41-4.64-5.04-7.01-.93-1.35-1.69-2.81-2.66-4.12-.37-.5-1.12-.73-1.7-1.08-.3.62-.85,1.24-.86,1.88-.06,2.98.12,5.97-.01,8.95-.04.82-.78,2.19-1.36,2.28-1.48.23-1.85-1.01-1.81-2.31.14-5.05.22-10.1.48-15.14.04-.86.72-1.89,1.42-2.41.31-.23,1.63.44,2.13,1.01,1.24,1.41,2.34,2.97,3.39,4.54,1.6,2.41,3.08,4.91,4.7,7.31.31.46,1.02.65,1.55.97.29-.55.82-1.09.83-1.64.06-2.98-.09-5.97,0-8.95.03-.85.62-1.68.96-2.51.52.88,1.39,1.73,1.48,2.66.22,2.3.07,4.64.07,6.96-.02,0-.03,0-.05,0Z"/>
      <path class="cls-3" d="M321.53,131.48c-3.74,0-7.12-3.81-7.13-8.02,0-4.46,3.46-8.48,7.3-8.46,3.46.02,7.01,4.16,7,8.23,0,3.41-2.87,8.78-7.17,8.25Z"/>
      <path class="cls-1" d="M593.63,36.64c-.85-.15-1.7-.43-2.55-.44-7.15-.04-14.31,0-21.46-.03-3.23-.02-3.45-.35-3.47-4.2-.02-2.93.71-3.8,3.61-3.81,9.4-.04,18.8-.06,28.2.03,4.6.05,6.42,2.1,6.42,6.67,0,10.46-.03,20.92.07,31.37.02,2.01-.86,2.98-2.62,3.25-1.3.2-2.68.28-3.97.08-1.92-.29-2.88-1.25-2.83-3.56.21-8.96.16-17.92.15-26.89,0-.62-.51-1.25-.78-1.87-.25-.2-.51-.41-.76-.61Z"/>
    </g>
  </g>
</svg>