<?xml version="1.0" encoding="UTF-8"?>
<svg id="Layer_2" xmlns="http://www.w3.org/2000/svg" viewBox="0 0 1083.47 251.15">
  <defs>
    <style>
      .cls-1 {
        fill: #f48735;
      }

      .cls-2 {
        fill: #0c3f74;
      }
    </style>
  </defs>
  <g id="logo">
    <g>
      <path class="cls-2" d="M496.06,251.15c15.51-34.68,31.16-69.29,46.37-104.09,2.44-5.57,5.5-7.39,11.36-7.02,7.51.48,15.09.27,22.62.02,4.64-.15,7.33,1.03,8,6.18,1.32,10.23,2.92,20.44,4.93,30.56,1.04,5.24-.72,6.54-5.44,5.49-5.95-1.32-12.15-2.03-17.74-4.25-6.47-2.57-10.72-.75-15.08,3.9-4.51,4.82-9.6,9.1-14.43,13.61.29.85.58,1.69.87,2.54,26.33,1.63,52.64,3.94,79,4.77,72.38,2.28,144.05-3.76,214.7-20.05,39.16-9.03,77.55-20.44,113.63-38.45,6.6-3.3,8.28-1.67,6.63,5.09-.42,1.71-.27,3.55-.49,5.32-1.65,12.87-1.68,13.39-14.55,12.77-7.8-.37-10.36,1.98-11.31,9.73-3.03,24.69-7.02,49.26-10.64,73.88h-30.19c2.74-21.08,5.41-42.18,8.25-63.25,1.89-14.05,2.01-14.02-11.19-9.61-6.43,2.15-12.99,3.97-19.28,6.47-2.25.89-4.81,3.01-5.58,5.15-1.86,5.16-1.08,13.27-4.44,15.37-4.39,2.75-11.73.87-17.81.96-2.51.04-5.02,0-7.53,0-12.88.03-12.52.11-13.83,12.68-.63,6.07,1.5,7.11,6.82,6.91,8.95-.34,17.95.37,26.86-.24,7.39-.51,8.54,2.59,7.4,8.78-1.01,5.53-1.39,11.18-2.05,16.77h-71.17c1.61-14.37,3.35-28.72,4.69-43.12.17-1.84-2.09-5.63-2.6-5.52-3.33.68-8.83-.81-8.16,5.52,2.13,20.02-7.19,33.64-24.12,43.12h-36.66c-2.26-1.02-4.55-1.99-6.78-3.08-20.34-10-20.65-11.78-8.58-30.53,3.54-5.51,5.44-5.51,10.01-1.02,6.76,6.65,15.09,10.87,25.15,9.69,5.76-.68,9.42-3.8,8.97-9.85-.44-5.98-3.86-8.55-10.17-8.03-12.49,1.02-25.04,1.33-37.5,2.57-2.25.22-5.85,3.34-6.01,5.34-1.3,16.64-10.92,27.14-24.7,34.9h-36.66c-2.54-1.26-5.1-2.5-7.63-3.78q-19.15-9.68-8.44-28.02c.54-.92.97-1.91,1.58-2.79,2.44-3.52,1.52-5.08-2.76-5.07-2.49,0-4.99-.22-7.46-.56-6.47-.9-7.98,1.22-6.5,7.74,2.42,10.69,3.62,21.64,5.34,32.49h-30.19c-.78-7.74-1.25-15.53-2.56-23.18-.32-1.87-3.2-4.43-5.2-4.72-22.3-3.3-24.83-1.76-33.81,19.25-1.23,2.89-2.48,5.77-3.72,8.65h-30.19ZM620.36,212.32c-.19.77-.37,1.55-.56,2.32,3.37,2.5,6.4,6.09,10.2,7.26,6.52,2.02,13.55,3.37,20.31,3.18,2.08-.06,3.99-6.04,5.98-9.31-2.51-1.15-4.99-3.19-7.54-3.3-9.45-.4-18.92-.16-28.38-.16Z"/>
      <path class="cls-2" d="M0,251.15c6.75-30.16,13.35-60.35,20.29-90.47,4.74-20.55,4.95-20.5,26.52-20.51,16.23,0,16.05.01,18.02,16.44,1.64,13.69,3.76,27.32,7.69,41.29,6.83-15.47,14.33-30.69,20.24-46.49,3.47-9.27,8.53-12.7,18.13-11.37,5.29.73,10.82.65,16.14.04,7.91-.91,9.76,2.5,9.36,9.67-1.79,32.02-3.23,64.06-4.79,96.09-.09,1.77-.03,3.55-.04,5.32h-28.04c1.38-23.91,2.75-47.82,4.13-71.73-.49-.11-.97-.21-1.46-.32-10.24,24.02-20.47,48.03-30.71,72.05h-21.57c-3.09-22.64-6.18-45.28-9.27-67.92-.76-.05-1.53-.11-2.29-.16-4.77,22.69-9.54,45.39-14.32,68.08H0Z"/>
      <path class="cls-2" d="M191.95,251.15c5.04-34.8,10.01-69.62,15.31-104.38.36-2.38,3.27-6.23,5.03-6.26,16.12-.22,32.47-1.32,48.33.87,26.09,3.61,26.54,21.8,23.3,40.81-1.73,10.14-7.76,17.78-18.52,19.89-7.37,1.44-5.66,4.74-3.4,9.44,6.32,13.11,12.27,26.4,18.36,39.62h-30.19c-6.89-16.65-13.78-33.3-20.66-49.96-.64.27-1.27.54-1.91.8-2.54,16.38-5.08,32.77-7.62,49.15h-28.04ZM237.1,190.01c3.7-1.08,7.74-1.55,11.02-3.38,7.06-3.92,7.93-10.91,5.99-17.65-2.21-7.66-9.29-7.49-15.86-7.69-8.81-.26-4.67,7.08-6.35,10.82-1.39,3.09-.57,7.07-1.53,10.44-1.79,6.35,1.08,7.6,6.74,7.46Z"/>
      <path class="cls-2" d="M282.54,251.15c5.32-12.68,10.46-25.45,16.01-38.03,9.59-21.74,19.63-43.29,29.03-65.11,2.42-5.62,5.2-8.49,11.7-7.98,7.12.56,14.35.51,21.48.01,5.7-.39,8.23,1.44,9.16,7.16,5.25,32.21,10.83,64.37,16.2,96.57.4,2.39-.02,4.92-.06,7.38h-28.04c-.77-5.6-1.44-11.22-2.37-16.79-.33-1.97-1.24-5.5-1.96-5.52-10.64-.26-21.29-.08-31.94.17-.68.02-1.6,1.44-1.95,2.38-2.43,6.56-4.74,13.17-7.08,19.77h-30.19ZM346.82,169.16c-.58.04-1.17.09-1.75.13-4.2,9.76-8.28,19.59-12.66,29.27-2.34,5.17-.17,6.15,4.48,5.81,2.85-.21,5.77-.33,8.6.01,5.95.71,6.39-2.29,5.59-6.98-1.59-9.38-2.86-18.82-4.26-28.23Z"/>
      <path class="cls-2" d="M392.53,251.15c4.99-35.17,10.09-70.33,14.84-105.53.67-4.97,3.17-5.5,7.16-5.49,19.37.05,38.74.06,58.11-.11,4.69-.04,6.11,1.3,5.54,6.21-2.1,18.34-1.92,18.36-20.81,18.35-4.66,0-9.33,0-13.99.02-8.93.05-14.39,7.05-11.81,15.76.44,1.48,3.48,3.05,5.37,3.12,8.96.33,17.93.24,26.9.12,4.03-.06,5.5.92,5.15,5.54-1.29,17.1-1.06,17.12-18.51,17.12-5.74,0-11.5.28-17.21-.09-4.57-.29-6.14,1.37-6.69,5.82-1.91,15.48-4.63,13.59,11.44,13.77,3.23.04,6.46,0,9.68,0q21.44,0,16.82,21.26c-.3,1.37-.55,2.75-.83,4.13h-71.17Z"/>
      <path class="cls-2" d="M144.5,251.15c3.89-28.15,7.76-56.3,11.69-84.44.84-5.99,2.65-11.94,2.67-17.91.02-8.05,4.1-8.88,10.83-8.82,21.1.19,21.22-.03,18.28,20.51-4.33,30.23-8.84,60.44-13.28,90.65h-30.19Z"/>
      <path class="cls-1" d="M962.55,132.4c8.39-7.47,16.85-14.87,25.17-22.43,26.33-23.95,46.26-52.05,57.3-86.11,1.22-3.75,4.86-7.59,8.4-9.56,8.95-4.97,18.49-8.9,30.05-14.3-17.84,66.17-64.57,103.6-118.61,134.63-.77-.74-1.54-1.49-2.31-2.23Z"/>
      <path class="cls-2" d="M674.88,189.67c-16.64-.82-33.31-1.39-49.9-2.76-2.25-.19-5.46-4.1-6.03-6.76-4.56-21.07,9.18-40.2,31.7-44.03,12.75-2.17,24.96.2,36.36,6.48,5.05,2.79,8.06,5.97,3.68,11.63-.86,1.12-1.44,2.46-2.1,3.73q-5.44,10.45-16.13,4.85c-1.89-.98-3.9-1.77-5.94-2.42-5.64-1.79-11-1.37-14,4.29-3.26,6.15.72,10.2,5.57,13.15,5.63,3.42,11.57,6.35,17.37,9.5-.19.78-.39,1.56-.58,2.34Z"/>
      <path class="cls-2" d="M756.79,186.72c-14.33.77-28.67,1.32-42.97,2.41-5.54.42-7.53-1.85-8.71-6.79-6.75-28.22,17.53-51.4,48.79-46.35,3.18.51,6.36,1.23,9.43,2.2,16.89,5.33,17.86,8.33,9.6,23.8-2.96,5.55-5.26,7.53-10.94,3.08-3.25-2.55-7.66-5.01-11.56-5.02-3.99,0-9.93,2.08-11.41,5.03-1.33,2.67,1.14,8.82,3.87,11.48,3.87,3.78,9.51,5.76,14.39,8.52-.16.55-.33,1.09-.49,1.64Z"/>
      <path class="cls-2" d="M831.39,140.17c8.96,0,17.93.22,26.88-.08,5.39-.18,8.4,1.05,6.9,7.12-.34,1.36-.22,2.83-.38,4.25q-1.5,13.19-14.57,13.17c-5.73,0-11.49.27-17.2-.11-7.82-.52-14.68-.57-13.75,10.4.12,1.42-2.11,4.12-3.62,4.43-7.34,1.47-14.79,2.53-22.26,3.18-1.02.09-3.46-3.03-3.29-4.44,1.28-10.56,3.23-21.05,4.6-31.6.63-4.82,2.68-6.59,7.65-6.42,9.67.34,19.35.1,29.03.1Z"/>
      <path class="cls-2" d="M940.97,142.26c-7.66,3.31-15.18,6.99-23.01,9.85-12.41,4.53-25.05,8.44-37.54,12.77-5.81,2.01-8.07.43-6.95-5.72.83-4.54.85-9.31,2.31-13.61.75-2.2,3.85-5.1,5.95-5.15,19.54-.39,39.08-.23,58.63-.23.2.7.41,1.4.61,2.09Z"/>
    </g>
  </g>
</svg>