<?xml version="1.0" encoding="UTF-8"?>
<svg id="Layer_2" xmlns="http://www.w3.org/2000/svg" viewBox="0 0 135.84 156.14">
  <defs>
    <style>
      .cls-1 {
        fill: #fc2d84;
      }
    </style>
  </defs>
  <g id="logo">
    <g>
      <path class="cls-1" d="M77.49,70.53c0-2.65-.09-5.31.03-7.95.1-2.22,1.03-3.01,3.05-2.99,1.99.02,2.88.82,2.96,3.08.11,3.14.07,6.3,0,9.44-.03,1.56-.13,2.29,2.05,1.68,4.06-1.15,8.3-1.64,12.46-2.47,5.22-1.05,10.41-.89,15.64-.02,3.87.64,7.79,1.07,11.7,1.38,1.94.15,3.74-1.52,3.73-3,0-1.24-1.76-3.15-3.36-3.09-1.91.07-3.89.44-5.69,1.09-3,1.08-4.29,1.15-5.25-.44-1.14-1.91-.22-3.34,1.05-4.84,3.71-4.38,6.87-9.04,8.6-14.68,3.93-12.89-.44-26.19-11.03-34.56-11.86-9.37-29.31-8.25-40.01,2.25-.59.58-1.13,1.23-1.77,1.74-2.51,2-3.23,1.97-5.8-.56-4.04-3.99-8.61-7.14-14.11-8.63-10.95-2.96-20.92-.82-29.3,6.84-9.06,8.29-12.33,18.67-9.7,30.8.21.96.16,1.98.2,2.97.06,1.52-.72,2.56-2.12,2.96-1.59.45-3.25.02-3.74-1.57-.89-2.95-1.85-6.01-1.93-9.05C4.72,23.33,14.12,7.24,32.53,1.68c12.36-3.73,23.58-1.15,33.78,6.49,2.68,2,2.69,2.12,5.32.05C78.73,2.63,86.77-.19,95.79.08c8.42.26,15.96,3.07,22.55,8.4,7.06,5.7,11.49,13.12,13.45,21.82,1.91,8.48.71,16.82-2.81,24.79-.4.9-.9,1.76-1.44,2.58-.7,1.09-.36,1.89.63,2.46.99.57,2.1.93,3.08,1.53,3.02,1.83,5.17,6.57,4.46,9.66-1.02,4.4-4.64,8.15-8.69,8.16-3.91,0-7.87-.42-11.72-1.16-7.73-1.48-15.34-1.08-22.93.68-2.85.66-5.63,1.6-8.46,2.33-.94.24-1.96.3-2.94.29-2.69-.03-3.36-.71-3.46-3.62-.08-2.48-.02-4.97-.02-7.45Z"/>
      <path class="cls-1" d="M55.56,50.48c0-6.3.03-12.59-.01-18.89-.03-3.46-.26-3.66-3.61-3.74-1.82-.04-3.64.04-5.46-.03-1.78-.07-2.65-1.13-2.72-2.87-.09-2.04.73-3.09,2.91-3.15,3.97-.12,7.94-.03,11.92-.04,2.04,0,3.03,1.07,3.08,3.05.04,1.99.09,3.98.02,5.96-.05,1.55.67,2.02,2.09,1.94,1.15-.06,2.33-.1,3.47.04,1.6.21,3.26,2.03,3.18,3.28-.08,1.31-1.74,2.68-3.42,2.78-.82.05-1.66-.04-2.48.02-2.41.18-2.83.71-2.83,3.05,0,1.22.41,1.85,1.7,1.8,1.16-.04,2.33-.11,3.47.02,1.9.21,3.63,1.95,3.62,3.46,0,1.53-1.73,3.13-3.68,3.37-1.59.2-4.02-.21-4.58.64-.85,1.3-.5,3.45-.51,5.23-.04,6.29.02,12.59-.03,18.89-.03,3.79-.66,4.31-4.28,4.32-4.56,0-7.71-2.68-10.43-5.76-4.72-5.34-7.63-11.77-10.09-18.4-.25-.66-.76-1.22-1.14-1.83-.45.63-.99,1.22-1.34,1.9-2.31,4.52-4.23,9.27-7.88,12.98-.92.94-.62,1.72.09,2.58.94,1.14,1.77,2.37,2.77,3.45,8.47,9.07,17.71,17.25,28.45,23.53,13.03,7.61,9.5,7.16,22.4.22,7.1-3.82,13.68-8.42,19.79-13.71.79-.68,2.04-1.08,3.1-1.14,2.75-.15,3.98,1.75,2.66,4.14-.7,1.27-1.63,2.52-2.75,3.42-9.64,7.71-20.25,13.85-31.27,19.36-2.04,1.02-3.68.86-5.55-.09-11.17-5.65-21.77-12.16-30.92-20.79-4.06-3.83-7.91-7.86-11.83-11.83-2.62-2.65-2.67-2.83-5.83-1.28-3.15,1.54-6.41,1.46-9.67,1.16-5.83-.53-10.78-9.61-6.02-15.4,3.57-4.36,9.79-6.49,16.19-1.73.79.59,1.48,1.33,2.14,2.06,1.08,1.2,1.92,1.72,2.87-.22,2.17-4.39,4.62-8.65,6.69-13.09,1.3-2.79,2.06-5.83,3.17-8.71.4-1.05.95-2.16,1.73-2.93,1.83-1.8,4.33-.74,5.11,2.04,1.62,5.79,3.11,11.63,4.91,17.36,1.54,4.9,4.05,9.32,7.75,12.97.66.65,1.57,1.05,2.36,1.57.25-1.03.69-2.06.7-3.1.07-5.96.03-11.93.03-17.89ZM10.93,64.53c-3.23.06-4.8,2.11-3.89,4.86.46,1.38,2.73,2.34,5,2.11,2.24-.22,4.76-1.73,4.72-2.83-.04-1.09-3.05-3.79-4.55-4.05-.48-.08-.98-.07-1.28-.09Z"/>
      <path class="cls-1" d="M89.82,54.66c-7.94,0-14.23-4.76-14.08-14.07.13-8.26,5.95-13.77,13.81-13.54,9.79.28,13.28,4.58,14.49,13.95.94,7.26-6.22,13.67-14.22,13.67ZM90.08,47.79c4.65-.05,7.32-2.52,7.29-6.74-.03-4.21-3.2-7.28-7.5-7.28-4.88,0-7.2,2.42-7.4,7.11-.16,3.87,2.86,7.31,7.62,6.91Z"/>
      <path class="cls-1" d="M108.35,39.94c0-4.45-.06-8.9.02-13.35.05-2.59.96-3.63,2.89-3.75,1.98-.11,3.64,1.35,3.93,3.55.11.81.02,1.65.02,2.47,0,7.25.02,14.5-.02,21.75,0,1.29-.09,2.61-.37,3.87-.44,1.99-1.92,2.43-3.75,2.21-1.76-.21-2.66-1.23-2.68-2.92-.05-4.61-.02-9.23-.02-13.84,0,0-.01,0-.02,0Z"/>
      <path class="cls-1" d="M92.55,130.72c0-.99-.17-2.02.04-2.97.33-1.49.69-2.55,2.98-1.94,2.23.59,4.82.12,7.21-.23,3.1-.45,4.32.01,5.05,3,.38,1.55.43,3.27.19,4.85-.1.69-1.22,1.58-2,1.75-1.26.27-1.49-.81-1.56-1.92-.1-1.57-.37-3.14-.57-4.7-2.44.86-1.39,2.99-1.72,4.64-.23,1.16-.83,2.24-2.3,2.07-1.29-.15-1.28-1.19-1.38-2.22-.15-1.49-.48-2.96-.73-4.44-2.11.89-1.32,2.78-1.4,4.31-.07,1.26-.12,2.32-1.76,2.38-1.89.06-2.12-1.13-2.05-2.6.03-.66,0-1.32,0-1.98Z"/>
      <path class="cls-1" d="M52.73,149.02c0,1.65.14,3.32-.07,4.94-.08.67-.8,1.55-1.43,1.76-.58.19-1.7-.17-2.08-.67-.98-1.28-1.66-2.78-2.49-4.18-.14-.24-.44-.39-.67-.58-.14.29-.38.57-.41.87-.13,1.88.04,4.73-2.3,4.4-2.38-.34-1.28-3.31-1.4-5.17-.13-1.97-.19-3.98.05-5.93.1-.79.93-1.9,1.64-2.11.73-.21,1.85.33,2.59.85.63.44,1.02,1.27,1.4,1.99.66,1.25,1.24,2.54,1.85,3.81.1-1.3.19-2.61.28-3.91.03-.49-.14-1.13.1-1.45.42-.56,1.04-1.09,1.68-1.28.25-.08,1.11.77,1.14,1.23.14,1.8.06,3.62.06,5.44.02,0,.03,0,.05,0Z"/>
      <path class="cls-1" d="M65.66,147.97c0,.99.04,1.98,0,2.97-.15,3.4-1.8,4.99-5.25,5.08-2.67.07-5.31-1.92-5.56-4.53-.22-2.29-.25-4.65.03-6.92.1-.83,1.32-1.52,2.03-2.27.55.75,1.46,1.45,1.57,2.26.24,1.79-.05,3.64.14,5.44.08.79.67,1.99,1.28,2.18,1.54.48,2.49-.56,2.69-2.06.15-1.14.04-2.31.04-3.47,0-.83-.01-1.65,0-2.48.03-1.1.42-2.1,1.67-1.84.54.11,1.19,1.05,1.29,1.69.2,1.29.06,2.63.06,3.96Z"/>
      <path class="cls-1" d="M86.49,151.3c-.23,1.52.79,4.24-1.62,4.27-1.91.03-1.33-2.58-1.42-4.17-.03-.49.15-1.13-.09-1.45-.35-.46-1.01-.94-1.52-.93-.46.01-1.23.62-1.3,1.06-.2,1.29.12,2.7-.23,3.93-.21.74-1.2,1.49-1.99,1.74-.36.11-1.55-1-1.58-1.58-.16-3.63-.16-7.26-.02-10.89.02-.64.87-1.59,1.49-1.74.53-.13,1.8.63,1.86,1.11.28,2.23,1.37,2.61,3.51,2.8,2.71.24,2.92,1.15,2.91,5.86Z"/>
      <path class="cls-1" d="M34.9,152.37c-.27,0,.26.11.71-.03.34-.11.68-.48.84-.82.07-.15-.26-.64-.51-.75-1.03-.46-2.15-.73-3.13-1.26-1.6-.87-2.41-2.28-1.99-4.11.4-1.74,1.57-2.9,3.35-3.17,1.12-.17,2.37-.24,3.43.08.8.24,1.88,1.12,1.97,1.81.17,1.5-1.22,1.07-2.12,1.09-.65.01-1.32-.09-1.96-.02-.26.03-.71.41-.69.58.05.43.21,1.04.53,1.2.85.45,1.91.54,2.68,1.07,1.5,1.03,3,2.25,2.47,4.39-.43,1.74-2.95,3.62-4.85,3.55-1.26-.05-2.57-.39-3.71-.91-.53-.24-1.03-1.27-.95-1.87.05-.42,1.07-.81,1.72-1.02.43-.14.97.07,2.22.2Z"/>
      <path class="cls-1" d="M111.47,139.58c-.71-.52-1.4-1.02-2.1-1.53.44-.56.81-1.51,1.34-1.61,1.88-.36,2.06-1.41,1.4-2.84-.82-1.78-1.89-3.46-2.57-5.28-.37-.97-.7-2.53.91-2.81.72-.12,1.67.68,2.39,1.23.31.24.23.94.46,1.35.39.68.89,1.3,1.35,1.95.29-.64.54-1.31.87-1.92.32-.57.63-1.22,1.12-1.61.58-.45,1.35-.66,2.04-.97.22.59.68,1.21.61,1.77-.53,4.17-2.91,7.56-4.98,11.05-.39.65-1.68.76-2.84,1.23Z"/>
      <path class="cls-1" d="M30.81,126.31c1.07-.32,2.12-.73,3.2-.95,2.47-.5,4.78.51,5.88,2.48,1.42,2.54,1.12,4.65-.95,6.69-1.67,1.64-4.03,2.11-5.83,1.16-2.25-1.19-3.56-3.7-3.11-6.18.2-1.1.57-2.16.86-3.24,0,0-.04.04-.04.04ZM33.7,131.38c.21.26.71,1.48,1.47,1.67,1.62.41,1.69-1.04,1.7-2.18.01-1.08.29-2.4-1.4-2.55-1.67-.14-1.73,1.04-1.77,3.05Z"/>
      <path class="cls-1" d="M105.32,151.46c.02-3.96,1.28-5.58,4.06-6.14,2.17-.44,4.53.9,5.49,3.11.79,1.83.29,2.57-1.82,2.85-1.21.16-2.41.46-3.61.69.64,2.38,2.49.53,3.65,1.06.41.19,1.14.54,1.11.68-.13.58-.36,1.31-.8,1.6-2,1.31-3.99.78-6-.19-2.04-.98-2.09-2.73-2.07-3.66Z"/>
      <path class="cls-1" d="M51.69,131.14c0,.82.06,1.65-.02,2.47-.04.45-.26,1.22-.5,1.26-2.32.37-4.76,1.16-6.97.75-2.11-.39-2.59-2.68-2.36-4.85.12-1.14-.23-2.39.11-3.43.24-.75,1.2-1.47,2-1.74.31-.11,1.39.97,1.53,1.64.27,1.27.05,2.63.17,3.93.03.38.55,1.05.77,1.02.59-.07,1.54-.36,1.63-.73.38-1.56.44-3.19.73-4.77.07-.41.54-1.09.77-1.07.57.05,1.5.35,1.59.72.4,1.55.54,3.17.78,4.77-.07,0-.15.02-.22.03Z"/>
      <path class="cls-1" d="M76.51,128.32c.99-.78,1.92-1.65,2.97-2.33,2.29-1.48,5.54-.6,6.76,1.75,1,1.93.16,3.45-2.01,3.62-.65.05-1.34-.09-1.96.05-.53.12-.99.51-1.49.78.47.33.91.72,1.41.97.26.13.65-.03.97.02,1.06.17,2.27.13,3.12.65.59.36-1.48,2.05-3.21,2.26-2.26.27-4.66-.93-5.51-3.13-.57-1.47-.66-3.14-.97-4.71l-.08.08Z"/>
      <path class="cls-1" d="M66.65,131.13c0,.82,0,1.64,0,2.46,0,1.21-.57,1.75-1.8,1.71-.96-.03-1.94-.02-2.89.13-2.08.32-3.74-.37-4.13-1.98-.42-1.7.68-2.75,1.86-3.7.13-.1.26-.23.41-.26,1.07-.24,2.14-.47,3.22-.69-1.19-.17-2.39-.28-3.56-.53-.38-.08-.9-.5-.97-.85-.08-.38.17-.98.48-1.25,1.69-1.5,3.75-1.05,5.59-.61,1.69.4,1.91,2.03,1.79,3.61-.05.65,0,1.31,0,1.97h0ZM64.45,132.37c-1.24-.63-1.65-1.01-1.94-.93-.31.08-.52.58-.77.9.33.24.65.66,1,.68.4.03.82-.29,1.71-.65Z"/>
      <path class="cls-1" d="M103.43,151.58c0,.66.19,1.39-.04,1.96-.34.84-.99,1.55-1.5,2.31-.5-.78-1.23-1.51-1.43-2.36-.26-1.09.04-2.31-.17-3.43-.08-.44-.86-1.03-1.33-1.04-.49-.01-1.33.53-1.42.95-.22,1.11.04,2.32-.18,3.43-.13.65-.72,1.59-1.23,1.69-.59.11-1.9-.53-1.92-.9-.16-2.37-.12-4.76.03-7.13.02-.35.95-.8,1.53-.94,1.39-.33,2.81-.56,4.22-.72,1.52-.17,3.26,1.22,3.39,2.73.1,1.14.02,2.3.02,3.45,0,0,.02,0,.02,0Z"/>
      <path class="cls-1" d="M30.85,126.27c-3.46.46-3.05,3.59-3.91,5.79-.28.73.06,1.7-.24,2.42-.17.42-1.02.71-1.6.77-.37.03-1.15-.52-1.12-.72.53-4.01-2.21-6.68-3.83-9.82-.27-.52,0-1.79.45-2.08.48-.32,1.49-.02,2.19.23.39.14.62.74.91,1.14.57.76,1.13,1.53,1.7,2.29.55-.79,1.09-1.59,1.65-2.37.29-.4.54-.92.94-1.12.54-.27,1.3-.51,1.79-.32.44.17.81.9.93,1.45.17.77.08,1.6.1,2.41l.04-.04Z"/>
      <path class="cls-1" d="M71.82,145.34c.49,0,1.07-.16,1.45.04.5.26,1.07.74,1.24,1.24.33.96-.22,1.49-1.24,1.57-.48.03-.94.16-1.42.24.4.35.79.7,1.2,1.04.12.11.28.18.4.28,2.29,1.84,2.6,3.19,1.1,4.85-1.52,1.68-4.71,2.12-6.16.64-.49-.5-.58-2.33-.35-2.43,2.17-.97.5-1.36-.03-2.34-1.64-3.03.05-5.2,3.8-5.13Z"/>
      <path class="cls-1" d="M76.59,128.24q-3.89.56-4.11,3.82c-.03.49.18,1.1-.04,1.45-.54.87-1.27,1.62-1.93,2.43-.6-.86-1.59-1.67-1.72-2.6-.27-1.93-.28-3.95,0-5.87.17-1.21.88-2.47,2.71-1.68.62.27,1.48.09,2.21-.05,2.49-.48,2.49-.51,2.82,2.57l.08-.08Z"/>
      <path class="cls-1" d="M88.2,150.31c.42-1.52.99-3.03,1.2-4.58.12-.86-.5-1.8-.5-2.7,0-.49.61-.97.94-1.46.48.34,1.33.62,1.39,1.02.43,3.01.76,6.04,1.02,9.07.14,1.67-.16,3.92-1.83,4.01-2.16.12-1.82-2.19-1.84-3.79,0-.49,0-.99,0-1.48-.12-.03-.25-.07-.37-.1Z"/>
    </g>
  </g>
</svg>